<svg id="Слой_1" data-name="Слой 1" xmlns="http://www.w3.org/2000/svg" viewBox="0 0 466.23 544.31"><defs><style>.cls-1,.cls-10,.cls-11,.cls-13,.cls-14,.cls-15,.cls-16,.cls-17,.cls-2,.cls-3,.cls-4,.cls-5,.cls-6,.cls-9{stroke:#000;}.cls-1,.cls-10,.cls-11,.cls-13,.cls-14,.cls-15,.cls-16,.cls-17,.cls-2,.cls-20,.cls-3,.cls-4,.cls-5,.cls-6,.cls-9{stroke-linecap:round;stroke-linejoin:round;stroke-width:3px;}.cls-2{fill:#445151;}.cls-3{fill:#5f7172;}.cls-4{fill:#9eb6b7;}.cls-5{fill:#738b8e;}.cls-18,.cls-6{fill:#fff;}.cls-14,.cls-7{fill:#e0d9c7;}.cls-8{fill:#9b968c;}.cls-20,.cls-9{fill:none;}.cls-10{fill:#c0c6cc;}.cls-11{fill:#999fa3;}.cls-12{fill:#d5dce0;}.cls-13{fill:#b7b2a7;}.cls-15{fill:#282828;}.cls-16{fill:#161616;}.cls-17{fill:#d9d9d9;}.cls-19{fill:#bcbcbc;}.cls-20{stroke:#fff;}</style></defs><title>about-loser</title><path class="cls-1" d="M137.89,312.39c-1.72.57-2.54,1.44-4.41,1.46-.48,0-1.33,0-4.47-1.47-.61-.28-5.22-2.39-5-2.87.13-.26,1.45.33,3.63.11,1.65-.16,3.19-.72,3.16-1s-2.36.06-5.36-.76c-1.64-.45-3.66-1.31-3.54-1.88s2.05-.3,4.74-1.5c.87-.39,2.46-1.1,2.4-1.78s-2.4-.88-4.14-1.51c-3.64-1.31-4.94-5.09-6.53-9.71a37.92,37.92,0,0,1-2-15.29,35.46,35.46,0,0,1,2.77-11.51c2.92-6.76,4.39-10.15,5.71-11.61.47-.52,1.83-1.94,1.52-3.43-.21-1-1-1-1.27-2.18a6.49,6.49,0,0,1,.8-3.92c.13-.3.24-.53.47-1,.75-1.49,1.12-2.23,1.42-2.2s0,1.4,1,2.51a6.78,6.78,0,0,0,1.81,1.23c.27.13.47.2.64.27.58.22,2.15.81,2.42.51s-1.37-1.29-2.07-3.25c-.57-1.61-.34-3.41.19-3.55s.94,1.84,3.08,3.41a10.07,10.07,0,0,0,4.83,1.71c2.88.35,4.83-.45,6.79-.89,5.32-1.2,10.12.4,13.35,1.48a32.61,32.61,0,0,1,11,6.48c3.21,2.76,3.07,3.7,5.57,4.85,3.6,1.64,5.78.55,9.22,2.61a8.52,8.52,0,0,1,3.8,3.9c.84,2.09,0,3.6-.67,7.42a66.88,66.88,0,0,0-.71,7.14C186.94,285,178.64,293,174.36,297a67.31,67.31,0,0,1-11.05,8.49c-8.33,5.26-12.77,5.69-17.46,7.28C143,313.77,140.59,312.91,137.89,312.39Z" transform="translate(-67.27 -227.69)"/><polygon class="cls-2" points="423.97 492.91 416.88 496.46 416.88 460.42 423.97 456.28 423.97 492.91"/><rect class="cls-3" x="400.33" y="456.87" width="16.54" height="39.58"/><polygon class="cls-2" points="398.27 502.66 391.18 506.2 391.18 470.17 398.27 466.03 398.27 502.66"/><rect class="cls-3" x="374.64" y="466.62" width="16.54" height="39.58"/><polygon class="cls-2" points="189.43 492.91 182.34 496.46 182.34 460.42 189.43 456.28 189.43 492.91"/><rect class="cls-3" x="165.8" y="456.87" width="16.54" height="39.58"/><polygon class="cls-2" points="163.43 502.66 156.34 506.2 156.34 470.17 163.43 466.03 163.43 502.66"/><rect class="cls-3" x="139.8" y="466.62" width="16.54" height="39.58"/><rect class="cls-4" x="103.76" y="434.72" width="360.97" height="25.4"/><polygon class="cls-5" points="464.73 460.12 444.05 470.17 444.05 445.35 464.73 434.72 464.73 460.12"/><rect class="cls-5" x="80.13" y="445.35" width="363.92" height="24.81"/><path class="cls-6" d="M202.93,378.25a11.16,11.16,0,0,0-3.54,1.77c-.89.72-1.59,1.87-3,4.14a30.86,30.86,0,0,0-3,5.91,11.65,11.65,0,0,0-.59,2.36,9.25,9.25,0,0,0,0,3c.47,1.68,3.6,2.48,10,3,8,.59,12.06.84,15.36-1.18,1.2-.74,3.79-2.32,4.73-5.32,1.54-4.91-2.3-10.56-6.5-13a14.87,14.87,0,0,0-8.27-1.77A18.47,18.47,0,0,0,202.93,378.25Z" transform="translate(-67.27 -227.69)"/><path class="cls-7" d="M374.26,585a73.78,73.78,0,0,1,1.18,22.45c-.95,7.89-1.58,13.68-2,18-5.59,3.57-14.13,12-26,12.41-12.23.44-16.86-8-30.72-15.36-30.67-16.35-66.72-6.52-70.89-5.32-18.69,5.37-32.26,16.1-54.94,19.5-7.92,1.19-13.23.92-18.31-.59-11.78-3.49-14.46-11.24-20.09-10.63-9,1-20.06,23-14.18,37.81,1.83,4.6,5.16,8.22,14.36,11.62-1.21-.2-2.37-.43-3.43-.69-12.07-3-15.34-11.38-28.95-24.81C103.88,633.3,98,634.62,90.69,621.65c-2.77-4.93-7.18-13-4.73-21.86,1.79-6.46,6.56-10.83,8.27-12.41a34.87,34.87,0,0,1,12.41-7.09c9.48-3.32,17.74-2.91,25.4-2.36,21.21,1.51,31.82,2.27,37.81,4.14,7.75,2.42,27.23,8.5,39.58,22.45a34.74,34.74,0,0,0,13,10,30.07,30.07,0,0,0,14.18,2.36c10.14-1,13.46-8.16,24.81-16.54,3-2.17,12.45-6.4,31.31-14.77,18.3-8.11,27.51-12.18,30.72-13,27.21-6.88,40.27-.87,43.13,1.18a22,22,0,0,1,5.91,6.5A18.51,18.51,0,0,1,374.26,585Z" transform="translate(-67.27 -227.69)"/><path class="cls-8" d="M373.41,625.49c-1.28,12.19-1.15,13.06-2.69,17.43-3.69,10.46-8.16,16.13-10.63,18.9a47,47,0,0,1-7.09,6.5,53.33,53.33,0,0,1-12.41,6.5c-20.31,7.15-134.08.64-156,1.77A145.07,145.07,0,0,1,161,676c-1.92-.19-5.25-.54-8.38-1.08-9.2-3.4-12.54-7-14.36-11.62-5.88-14.82,5.14-36.82,14.18-37.81,5.62-.61,8.31,7.15,20.09,10.63,5.09,1.51,10.39,1.78,18.31.59,22.69-3.39,36.26-14.13,54.94-19.5,4.18-1.2,40.22-11,70.89,5.32,13.86,7.39,18.49,15.8,30.72,15.36C359.28,637.47,367.82,629.06,373.41,625.49Z" transform="translate(-67.27 -227.69)"/><path class="cls-9" d="M152.61,674.92c-1.21-.2-2.37-.43-3.43-.69-12.07-3-15.34-11.38-28.95-24.81C103.88,633.3,98,634.62,90.69,621.65c-2.77-4.93-7.18-13-4.73-21.86,1.79-6.46,6.56-10.83,8.27-12.41a34.87,34.87,0,0,1,12.41-7.09c9.48-3.32,17.74-2.91,25.4-2.36,21.21,1.51,31.82,2.27,37.81,4.14,7.75,2.42,27.23,8.5,39.58,22.45a34.74,34.74,0,0,0,13,10,30.07,30.07,0,0,0,14.18,2.36c10.14-1,13.46-8.16,24.81-16.54,3-2.17,12.45-6.4,31.31-14.77,18.3-8.11,27.51-12.18,30.72-13,27.21-6.88,40.27-.87,43.13,1.18a22,22,0,0,1,5.91,6.5,18.51,18.51,0,0,1,1.77,4.73,73.78,73.78,0,0,1,1.18,22.45c-.95,7.89-1.58,13.68-2,18-1.28,12.19-1.15,13.06-2.69,17.43-3.69,10.46-8.16,16.13-10.63,18.9a47,47,0,0,1-7.09,6.5,53.33,53.33,0,0,1-12.41,6.5c-20.31,7.15-134.08.64-156,1.77A145.07,145.07,0,0,1,161,676C159.07,675.8,155.74,675.45,152.61,674.92Z" transform="translate(-67.27 -227.69)"/><path class="cls-8" d="M321.39,584.13c1.65,4.24,7.08,2.63,19.5,8.86,6.64,3.33,12.68,6.46,16,13,1.68,3.36,2.1,6.58,3,6.5,1.08-.11,2.24-5.52,1.18-10.63-2-9.55-10.9-14.19-10-15.36.66-.9,6.48,1,10.63,5.32,2.43,2.52,3.45,5,4.14,4.73,1-.35-.12-5.48-.59-7.68-1.53-7.16-2.3-10.74-4.14-13.59-5.66-8.76-22.55-12.6-32.49-5.32C324.1,573.16,319.61,579.58,321.39,584.13Z" transform="translate(-67.27 -227.69)"/><path class="cls-10" d="M214.16,383c-12,3.64-28.65,15-62,37.81a26.87,26.87,0,0,0-8.27,8.27c-6.23,10.15-3.11,22.23-1.18,31.31,0,0,3.66,17.3,5.32,46.08,2.13,37.13-9.24,51.52,2.36,66.17.29.37-.07-.11,15.36,13.59,18.19,16.14,19.83,17.81,21.86,20.09,6.85,7.67,7.09,9.87,16,19.5C209.2,631.95,212,635,215.34,637c11.17,6.68,23.5,4.79,27.77,4.14,9.87-1.51,16.39-5.59,25.4-11.22,5.66-3.54,12.63-8,19.5-16a103.55,103.55,0,0,0,11.82-17.72c5.25-9.4,3.93-9.55,6.5-12.41,7.13-8,18.77-8.42,30.13-8.86s18.36,1.85,21.27,3a41.86,41.86,0,0,1,8.86,4.73c3.91,2.72,8.79,6.12,9.45,11.22.3,2.33-.41,4,0,4.14.68.21,3.43-4.29,4.14-9.45a25.86,25.86,0,0,0-.89-12.11c-2-6.87-3.6-11.49-6.5-14.77-2.2-2.49-5-5.61-5-5.61s.58-2,1.18-3.54a18.3,18.3,0,0,0,.59-9.45c-.86-6.24-3.85-6.93-5.32-14.18a31.44,31.44,0,0,1-.59-5.91c-.33-10.73-4.48-26.94-6.5-34.86A250.57,250.57,0,0,0,343.54,448c-4.27-9.74-8.15-18.6-14.77-28.36-5.08-7.48-17.47-25.74-37.81-36C261.42,368.61,230.19,378.1,214.16,383Z" transform="translate(-67.27 -227.69)"/><path class="cls-1" d="M195.25,406c-2.91,4-3.61,8.81-4.73,16.54a63.47,63.47,0,0,0,8.86,43.13,60.3,60.3,0,0,0,7.68,10,61.49,61.49,0,0,0,10,8.27c6,4,9.67,6.46,14.18,5.91,2.77-.34,4.61-1.65,6.5-3,15.66-10.86,14.73-8,21.86-14.18a80.1,80.1,0,0,0,14.77-16.54c5.65-8.57,16.18-24.52,11.22-37.22-4.89-12.53-22.35-15.49-42.54-18.9C229.13,397.74,204.37,393.55,195.25,406Z" transform="translate(-67.27 -227.69)"/><path class="cls-11" d="M297.46,507c-4.17-.59-5.32,3.54-5.91,8.27-.53,4.23,9.92-.39,12.41-3.54C306.3,508.79,301.86,507.66,297.46,507Z" transform="translate(-67.27 -227.69)"/><path class="cls-11" d="M98.37,506.45c-2.11.78-3.54,2.36-5.91,4.14,0,1.49,2.27,2.71,5.91,4.14,10.33,4,19.92,7.8,23.63,3.54,2.38-2.73,1.78-8.11-.59-11.22C116,500,102,505.11,98.37,506.45Z" transform="translate(-67.27 -227.69)"/><path class="cls-11" d="M350.63,510c0-2.49,6.67-8.9,9.45-4.73a42.56,42.56,0,0,1,4.14,8.86C361.7,516.82,350.68,513.74,350.63,510Z" transform="translate(-67.27 -227.69)"/><path class="cls-12" d="M343.83,567.59c1.73,2.69,5.62.37,14.18,3.54a36.49,36.49,0,0,1,11.22,6.5c4.63,4,6.17,7.52,7.09,7.09,1.19-.55-.43-7-2.36-11.82a37.66,37.66,0,0,0-6.5-11.22c-4.06-4.74-9-10.55-14.77-9.45C346,553.52,341.35,563.72,343.83,567.59Z" transform="translate(-67.27 -227.69)"/><path class="cls-12" d="M197.32,548.69c5.55,8.92,9.32,12.42,10.63,13.59,3.25,2.9,7.54,6.74,14.18,8.27,1.13.26,6,1.31,14.18-.59,14.61-3.42,20-11.79,22.45-10,3.26,2.36-2.1,20.85-16,31.31-3.15,2.38-9.19,6.81-17.72,7.09-11.35.37-19.52-6.86-22.45-9.45-21.59-19.1-17.67-57.34-14.77-57.9C189,530.74,189.83,536.66,197.32,548.69Z" transform="translate(-67.27 -227.69)"/><path class="cls-1" d="M121.41,475.73c-6.37,4.78-9.76,18.94-16.54,47.26a77.85,77.85,0,0,0-2.36,21.27c.33,10.64,2.84,17.15,3.54,18.9a37.57,37.57,0,0,0,6.5,11.22c.76.88,7.5,8.52,16.54,10.63,17.62,4.12,37.47-14.28,42.54-29.54a67,67,0,0,0,3-18.9,68.7,68.7,0,0,0-.59-10c-4.23-33.84-1.1-41.8-7.68-49C156.72,467,134,466.23,121.41,475.73Z" transform="translate(-67.27 -227.69)"/><path class="cls-1" d="M316.36,506.45c-4.71-.72-12.14,1.41-17.72,5.32a28,28,0,0,0-4.14,3.54c-8.39,8.58-11.32,9.48-24.22,21.86-13.28,12.74-19.92,19.11-26.59,28.95a94.49,94.49,0,0,0-17.13,46.08,58.12,58.12,0,0,0,0,11.22,26.1,26.1,0,0,0,3,10.63,10,10,0,0,0,3,3.54,10.82,10.82,0,0,0,5.32,1.77c2.49.32,4.46.58,5.91-.59,1.13-.91,1.18-2.08,2.36-2.36.91-.22,1.61.3,2.36.59,2.15.84,4.47-.24,6.5-1.18,4-1.85,6.33-6.6,8.86-11.82,3.67-7.57,6.82-14.07,5.32-18.9-.2-.65-.87-2.51,0-3.54s3.06-.67,3.54-.59c4.77.81,13.7-3.12,21.27-5.91,22.34-8.24,26.66-4.36,33.67-10.63,12.25-11,9.48-32.12,8.27-41.35C335.6,541.1,331.07,508.68,316.36,506.45Z" transform="translate(-67.27 -227.69)"/><path class="cls-1" d="M298,492.27c-2.84,4.12-3.71,12.45-5.32,28.95-2.09,21.36-1,28.8-.59,31.31a75.23,75.23,0,0,0,6.5,20.68c3.8,8.3,6.77,14.57,13,16.54,3.24,1,5.94.44,10.63-.59a48.07,48.07,0,0,0,18.9-8.86,51.34,51.34,0,0,0,14.77-18.9c4.34-9.47,4.5-17.42,4.73-28.95.28-14,.42-21.07-3-28.95-1.57-3.66-9.55-22.32-28.36-24.81C316.84,477,304.33,483.15,298,492.27Z" transform="translate(-67.27 -227.69)"/><path class="cls-10" d="M296.57,463c-.61,3.45-1.5,9.68-2.66,22.15-.72,7.77-1.08,11.66-1.18,12.41a115.26,115.26,0,0,0-1.18,11.82,31.54,31.54,0,0,1,0,4.14c-.1,1.08-.24,1.62,0,1.77.72.46,3.79-3.15,4.14-3.54,5.21-6,20.21-9.73,32.49-10,10.14-.26,21.59-.55,28.95,6.5,2,1.95,6,6.61,7.09,5.91.53-.34.14-1.82,0-2.36-4.64-17.68-3.76-23.27-11.52-39.88" transform="translate(-67.27 -227.69)"/><path class="cls-10" d="M172.8,469.82" transform="translate(-67.27 -227.69)"/><path class="cls-10" d="M172.8,469.82c-.21,3.49-.67,7.17-.59,13.59.14,10.76,1.59,11.53,1.77,23,.12,7.75-.5,9.39.59,14.18.86,3.78,1,8.15,0,8.86a70.18,70.18,0,0,1-5.32-4.73c-1.7-1.39-6.06-3.29-18.31-9.45-11.69-5.88-23.43-6.29-29.54-6.5-15.24-.53-22.45.59-28.95,1.77,3-2.36,4.79-4.69,8.27-8.86,3.9-4.68,6.34-11,12.41-23.63,5.29-11,4.17-10.08,10-22.45,5-10.6,7.87-15.54,11.82-20.68,4.32-5.63,7.89-8.81,11.82-11.22,4.92-3,7.38-4.54,10-4.14" transform="translate(-67.27 -227.69)"/><path class="cls-12" d="M316.07,425.22c-3.64,1.84-4.93,5.51-5.91,8.27-1.54,4.37-1.37,8.31-1.18,12.41.18,3.93.68,4.76.59,8.86a47.07,47.07,0,0,1-.59,7.09c-.85,5.18-2.19,7.4-1.18,8.27,1.27,1.1,4.47-1.52,5.32-.59.55.6-.21,2.37-3,6.5-4,6.08-4.61,5.53-6.5,8.86-.8,1.41-.16.55-4.14,11.82-.67,1.9-1.1,3.09-.59,3.54,1,.9,4.27-2.15,8.27-4.14,6.06-3,11.78-2.55,21.86-1.77,5.7.44,9.39.73,14.18,2.36,10.16,3.47,15.09,9.55,16.54,8.27.9-.79-.62-3.48-4.14-11.82,0,0-.36-.84-4.73-11.82-3.58-9-3.13-10.37-6.5-20.09-1.26-3.65-4.58-10.7-11.22-24.81-2.85-6.06-5-10.4-9.45-11.82A10.81,10.81,0,0,0,316.07,425.22Z" transform="translate(-67.27 -227.69)"/><path class="cls-12" d="M153,423.44a26.18,26.18,0,0,0-11.22,7.68c-2.2,2.32-3.43,4.3-5.91,8.27a68.63,68.63,0,0,0-5.32,10,77.1,77.1,0,0,0-3,8.86c-1.83,5.89-2.85,6.59-8.27,18.31-6.07,13.13-5.11,13-7.68,16.54-5.06,7.06-10.83,10.55-10,11.82.51.83,3.21-.35,7.09-1.18,6.41-1.38,11.3-.81,18.31,0,6.09.71,10.56,2,19.5,4.73,8.69,2.61,11.27,4.05,12.41,4.73,4.26,2.52,7,5.3,7.68,4.73s-1.83-3.27-3.54-8.86a20.65,20.65,0,0,1-1.18-8.27,18.09,18.09,0,0,1,2.36-7.09c2.85-5.56,3.13-11,3.54-18.9.67-12.73-3.37-19.61-1.18-20.68,1.72-.84,5.77,2.68,7.68,6.5s1.3,7.07,1.77,7.09c.71,0,2.41-7.41,1.77-16A49.08,49.08,0,0,0,175.46,440c-2.46-7.42-4.89-14.75-11.22-17.13C159.93,421.23,155.67,422.59,153,423.44Z" transform="translate(-67.27 -227.69)"/><path class="cls-12" d="M184.92,452.39c-.62.13,0,5.64.59,10.63.95,8.1,1.42,12.15,2.36,16a81.84,81.84,0,0,0,10,23,91,91,0,0,0,5.91,8.27c6.09,7.54,10.55,10.49,10,11.22-.62.91-8.58-1.78-14.77-7.68-2.09-2-3.5-3.89-4.14-3.54s.17,3.34,2.36,10c2.47,7.57,3.68,11.36,4.14,12.41,2,4.55,4.31,9.81,9.45,14.77A29.95,29.95,0,0,0,231,556.37c8.76.43,16.09-2.91,16-3.54s-5.32,1.56-12.41,0a27.74,27.74,0,0,1-13-7.09c-5.47-5.15-8.69-12.18-7.68-13,.69-.56,2.83,2.22,7.68,4.73A33.72,33.72,0,0,0,235.72,541c8,.42,14-1.86,18.31-3.54a51.37,51.37,0,0,0,14.77-8.86A50,50,0,0,0,280,514.42a53,53,0,0,0,5.32-16,63.59,63.59,0,0,0-1.18-29.54c-1.52-5.05-3.54-11.43-4.73-11.22-1.56.27,1.86,11.24-3,22.45-3.8,8.85-10.92,13.62-13.59,15.36-11.67,7.61-22,11.74-26.59,11.22-7.53-.85-15.85-4.53-20.09-6.5s-11.56-10.06-18.31-17.72C186.34,469.4,186,452.16,184.92,452.39Z" transform="translate(-67.27 -227.69)"/><path class="cls-9" d="M192.89,523a63.26,63.26,0,0,0,3,10,55.44,55.44,0,0,0,5.32,10.63c2.27,3.5,5.15,8,10.63,11.82a30.73,30.73,0,0,0,11.82,5.32,27.25,27.25,0,0,0,14.18-.59,25.36,25.36,0,0,0,4.14-1.77" transform="translate(-67.27 -227.69)"/><path class="cls-9" d="M228.34,543.08a38.3,38.3,0,0,0,12.41,1.77c7.9-.19,13.6-2.82,17.72-4.73a53.6,53.6,0,0,0,14.77-10,51.55,51.55,0,0,0,6.5-7.68" transform="translate(-67.27 -227.69)"/><path class="cls-9" d="M200,593.88c4,8.17,7.76,14.75,10.63,19.5,5.76,9.5,8.1,11.88,11.22,13.59,5.35,2.92,10.7,2.6,14.77,2.36,8.21-.48,14.06-3.41,20.09-6.5a88.44,88.44,0,0,0,20.09-14.18" transform="translate(-67.27 -227.69)"/><path class="cls-9" d="M195.25,464.8a64.37,64.37,0,0,0,5.32,10.63,69,69,0,0,0,8.27,10.63c5.84,6.2,19.2,16,29.83,18.31" transform="translate(-67.27 -227.69)"/><path class="cls-13" d="M249.61,646.46c-.83,2.45-1.74,5.13-.59,7.09,2.19,3.71,11.39,4.09,16.54-.59,2.58-2.35,5.19-6.92,3.54-10.63-2.11-4.77-10.2-5.85-14.77-3C251.38,641.24,250.26,644.55,249.61,646.46Z" transform="translate(-67.27 -227.69)"/><path class="cls-13" d="M75.33,628.74c-.58.12-6.47,1.09-6.5,3.54,0,1.46,1.29,3.16,3.54,4.14.79.34,13.35,5.68,16,1.77,1.44-2.17-.45-6.74-3.54-8.86C81.88,627.34,78.67,628,75.33,628.74Z" transform="translate(-67.27 -227.69)"/><path class="cls-13" d="M341.77,644.1c4.17-.75,8.44,4.9,10,8.86.4,1,2.46,6.08,0,11.22-.59,1.24-2.3,4.8-5.32,5.32-4.41.76-9.57-5.32-10.63-11.22S337.37,644.89,341.77,644.1Z" transform="translate(-67.27 -227.69)"/><path class="cls-1" d="M102.8,598.31c-4.27,2.23-9.18-4.31-13.88,2.07-15.48,21-5.32,51.79,0,63.8,4.17,9.43,9.9,17.43,14.77,24.22a201.85,201.85,0,0,0,16.54,20.09c34.44,37.33,39.43,50,52,49.63,1.24,0,9.49-.29,14.77-6.5,3.66-4.3,3.93-9.46,4.14-14.77.89-23.05,1.33-34.58.59-41.35-1.2-11-2-18.68-5.32-28.95a102.85,102.85,0,0,0-16.54-32.49c-9.13-11.86-18.44-18.12-31.9-27.18C129.7,601.33,117.36,604.77,102.8,598.31Z" transform="translate(-67.27 -227.69)"/><path class="cls-1" d="M266.74,622.83c-6.74,8-8.36,18-10,28.36-.53,3.26-2.32,15.4.59,33.67,5.41,34,18.75,37,23,67.35.5,3.57.91,7.74,4.14,11.22,6,6.47,13.49,1.77,37.81,4.14,8.57.83,14.52,2.09,18.31-1.77.8-.82,1.84-2.26,3-8.86,1.41-8.37,1.15-14.47,1.18-20.09,0-3.83.41-8.66,1.18-18.31,1.05-13.16,2-16.87,3-26.59.86-8.67,2-19.94,1.18-30.13-.89-11.45-2.54-32.79-17.72-44.9C313.71,602.09,280.89,605.94,266.74,622.83Z" transform="translate(-67.27 -227.69)"/><path class="cls-14" d="M109.89,579.41c-10.63,1.77-19.21,8.95-21.56,11.52C82.07,597.75,80,607,79.46,609.24c-1.41,6.19-.66,9.28-3.54,14.18-3.3,5.6-7.71,7.41-7.09,8.86.78,1.83,8.2,0,16-1.18A199,199,0,0,1,112,629.33c15.56-.06,26.9,3.16,40.76,7.09,15.39,4.37,19.94,7.63,23,10.63,4.51,4.37,7.16,9.4,8.27,8.86,1.51-.74-2-10.75-3-13.59-2.46-7.08-4.84-13.94-9.45-21.27" transform="translate(-67.27 -227.69)"/><path class="cls-14" d="M333.55,590.28c-7.33-3.05-17.87-4.89-33.13-4.08-19.86,1.06-32.8,15.58-36.63,20.09-16.63,19.57-16.67,45.7-15.36,46.08.54.16,1-4.18,4.73-8.86,7.79-9.78,21.76-10.9,33.08-11.82,7.68-.62,17.05-1.37,28.95,1.77,15.17,4,33.42,14.1,36,25.4.24,1,.69,3.57,1.18,3.54,1,0,5.58-8.62,6.79-15.06a43.39,43.39,0,0,0-.16-18.75" transform="translate(-67.27 -227.69)"/><path class="cls-8" d="M125.25,579.41c-1.88-.29-7.82-1.36-10.63,1.77a3.88,3.88,0,0,0-1.18,3c.5,2.89,6.58,3.77,12.41,5.32,3.66,1,8.35,3,17.72,7.09,11,4.77,17.56,7.63,23.63,13.59,9.5,9.32,10.14,18.74,13.59,18.31s6.58-11.13,5.32-20.68c-1.76-13.39-12.26-27.62-26-31.31C146.84,572.89,139.91,581.65,125.25,579.41Z" transform="translate(-67.27 -227.69)"/><path class="cls-1" d="M109,547.21c3.37-7.8,11.35-10.89,18.31-13.59,15.88-6.15,30.27-2.44,34.86-1.18a63.86,63.86,0,0,1,21.27,10.63c14.16,10.16,21.14,22.43,25.4,30.13,3.16,5.7,11,20.17,11.22,36.63.1,7-1.23,10.91-3,16,0,0-3,8.67-7.09,10a8.27,8.27,0,0,1-3,.59,3.36,3.36,0,0,0-1.77,0,2.64,2.64,0,0,0-1.18,1.18,14.58,14.58,0,0,1-2.36,3,6.32,6.32,0,0,1-4.14,1.18,5.47,5.47,0,0,1-3-.59c-.93-.54-1.06-1.09-1.77-1.18s-1.3.61-2.36,1.18a7.06,7.06,0,0,1-4.14.59,8.34,8.34,0,0,1-4.73-1.77c-1.8-1.59-2.08-3.89-2.36-5.91-1.49-10.55-2.24-15.83-4.73-19.5a13.18,13.18,0,0,1-2.36-4.73c-.51-2.12,0-2.94-.59-4.73a10.1,10.1,0,0,0-3.54-4.73,20.31,20.31,0,0,0-8.27-4.14c-6.1-1.53-11.75-4.52-17.72-6.5-9.26-3.06-18.65-6.16-25.4-13.59C110.93,569.84,104.52,557.57,109,547.21Z" transform="translate(-67.27 -227.69)"/><path d="M133.81,718.71a27.73,27.73,0,0,0-9.45-4.43c-1.64-.39-10-2.38-17.72,2.22a21.29,21.29,0,0,0-8.27,9.42A22.27,22.27,0,0,0,96,736.44a21.27,21.27,0,0,0,2.36,8.86,20.27,20.27,0,0,0,5.91,7.2,22.23,22.23,0,0,0,6.5,3.32,25.46,25.46,0,0,0,8.86,1.11,26.45,26.45,0,0,0,14.77-5.54c7.77-6.31,11.48-18,7.09-25.49C139.54,722.57,136.09,720.25,133.81,718.71Z" transform="translate(-67.27 -227.69)"/><path d="M113.14,737.44a21.18,21.18,0,0,1,6.5-16,25.3,25.3,0,0,1,14.77-7.68A19.11,19.11,0,0,1,145,715a18.91,18.91,0,0,1,7.68,6.5,25.36,25.36,0,0,1,4.73,13.59c.27,3.54,1,12.78-5.32,18.9-3.87,3.77-8.61,4.63-12.41,5.32a24.18,24.18,0,0,1-13-.59,20.17,20.17,0,0,1-9.45-6.5C113.09,746.89,113.12,740.85,113.14,737.44Z" transform="translate(-67.27 -227.69)"/><path d="M139.72,736.26a21.42,21.42,0,0,0,1.77,10.63,22.07,22.07,0,0,0,5.32,7.09,27.6,27.6,0,0,0,9.45,5.91,27.33,27.33,0,0,0,17.72,0c3.53-1.15,8.12-2.65,11.22-7.09,3.65-5.23,2.89-11.21,2.36-15.36-.46-3.58-1.21-9.48-5.91-14.18-3.84-3.84-8.28-4.84-13-5.91-4.33-1-9.21-2.08-14.77,0a21.15,21.15,0,0,0-8.86,6.5A22.28,22.28,0,0,0,139.72,736.26Z" transform="translate(-67.27 -227.69)"/><path d="M286.82,730.35a30.1,30.1,0,0,0-10-4.73c-3.07-.78-6-1.52-9.45-.59-5.33,1.43-8.21,5.79-9.45,7.68a22.77,22.77,0,0,0-3.54,11.82,22.11,22.11,0,0,0,2.36,12.41,19.8,19.8,0,0,0,6.5,7.09,20.35,20.35,0,0,0,10,3c4.29.34,13.1,1,18.31-4.14C299.44,755,295.61,737.32,286.82,730.35Z" transform="translate(-67.27 -227.69)"/><path d="M280.33,743.35a31.18,31.18,0,0,1,1.18-7.68c.78-2.52,1.81-5.75,4.73-8.27a14.88,14.88,0,0,1,5.91-3,20.24,20.24,0,0,1,20.68,4.73A25.88,25.88,0,0,1,319.91,741c1.21,3.86,3,9.43.59,15.36a25.23,25.23,0,0,1-11.82,11.82c-5,2.28-9.49,2-13,1.77s-5.65-.39-8.27-1.77a16,16,0,0,1-6.5-6.5C279.29,758.59,279.62,753.47,280.33,743.35Z" transform="translate(-67.27 -227.69)"/><path d="M306.91,748.08a20.52,20.52,0,0,1,1.77-7.68c.73-1.58,3.24-7,9.45-9.45a16.06,16.06,0,0,1,11.82,0c5.93,2.53,8.11,8.28,9.45,11.82,2.23,5.88,1.64,10.9,1.18,14.77-.55,4.66-1.7,6.68-2.36,7.68a14.46,14.46,0,0,1-5.32,4.73c-5.26,2.83-13.06,3-18.31-1.18-2.69-2.16-3.8-4.75-5.32-8.27A26.32,26.32,0,0,1,306.91,748.08Z" transform="translate(-67.27 -227.69)"/><path class="cls-9" d="M368.06,556.37c-3.54-3-5.32-4.14-10-5.32" transform="translate(-67.27 -227.69)"/><path class="cls-9" d="M290.66,468.34c-1.18,7.09.84,22.68,2.36,27.18" transform="translate(-67.27 -227.69)"/><path class="cls-10" d="M177.24,473.66a88.3,88.3,0,0,1-.59,8.86c-.43,3.7-2.84,9.42-3.54,12.41" transform="translate(-67.27 -227.69)"/><path class="cls-15" d="M117,518.56c2.06-1,4.92-1.08,10.63-1.18a78.94,78.94,0,0,1,17.13,1.77,111.57,111.57,0,0,1,11.82,3c7,2.15,3.45,1.81,10.63,4.73a4.84,4.84,0,0,1,2.36,1.77c.52.8.66,1.67.59,4.14-.12,4.14-.6,4.91,0,5.91.95,1.58,3.37,1.7,4.14,1.77,8.12.79,19.85,14.93,23.63,19.5,7.21,8.7,10.78,16.4,13.59,22.45a73.69,73.69,0,0,1,5.91,19.5,22.9,22.9,0,0,1,0,8.27c-1.23,6.22-5.15,11-5.91,10.63-.5-.22.73-2.47.59-6.5s-1.53-7.75-2.36-7.68-.4,2.7-1.77,7.09a28,28,0,0,1-4.14,8.27c-2.55,3.44-6.23,6.53-7.09,5.91-.57-.41.63-2,1.18-6.5a27.34,27.34,0,0,0,.15-5.23c0-.58-.22-4.19-.74-4.22s-.13,5.92-3.54,8.27a5.78,5.78,0,0,1-5.32.59c-1.77-.76-1.72-2.13-4.14-5.91-2.6-4.08-3.8-4.26-4.73-7.09a14.64,14.64,0,0,1-.59-5.32c.14-6.63,2.94-9.07,1.77-11.22-1.34-2.48-6.47-1.85-10-1.77-2.74.06-5-.2-27.18-8.86-25.26-9.85-26.86-11.26-28.36-13-7-8.11-7.48-18.06-7.68-22.45C107.41,542.71,106.75,523.66,117,518.56Z" transform="translate(-67.27 -227.69)"/><path class="cls-15" d="M229.81,608.95c-1.14-.36.05-10,3.54-20.09,5.05-14.65,12.81-24.25,20.09-33.08,7.95-9.65,15.54-16.28,30.72-29.54,10.11-8.83,15.25-13.27,19.5-14.77,14.61-5.15,34.78-1.3,43.72,11.82a26.67,26.67,0,0,1,4.73,16.54c-.64,9.58-6.8,15.73-8.86,17.72-4.37,4.23-8.65,5.81-17.72,8.86-19.59,6.6-34.86,11.22-34.86,11.22a250.68,250.68,0,0,0-26.59,10c-4.31,1.92-10.1,4.66-13.59,10.63a29.3,29.3,0,0,0-3,7.68c-1.65,7.1,0,12.07-1.18,12.41s-3.28-3.16-4.73-7.09c-3.53-9.62-.41-17.87-1.77-18.31C237.89,592.35,231.39,609.45,229.81,608.95Z" transform="translate(-67.27 -227.69)"/><path class="cls-15" d="M265.26,660.35c-.55,3.25-.77,5.75-1.18,10.63-.75,8.87-1.12,13.3-.59,16.54a36.51,36.51,0,0,0,5.32,13.59c3.67,6,9.52,12.21,11.22,11.22,1.09-.63-.59-3.61-.59-8.86,0-8.59,4.48-16.27,5.91-16,.8.18.74,4.65.59,13.59-.2,12.31-.79,16.78,1.77,18.31,1.38.83,2.21-.07,6.5-.59,5.1-.62,8.91.05,15.36,1.18,4.78.84,7.83,1.37,11.82,3,6.41,2.54,8.69,5.2,11.22,4.14s3-4.52,3.54-7.68a88.69,88.69,0,0,0,4.14-23c1.34-30.12,3.09-28.12,1.77-31.31-5.88-14.23-25.29-16.69-61.44-21.27-2.44-.31-6.78-.78-10,1.77S266.64,652.26,265.26,660.35Z" transform="translate(-67.27 -227.69)"/><path class="cls-15" d="M108.7,649.71c-.74,1.18-1.13,2.94,1.77,11.82,1.65,5.05,3.7,10.35,8.86,21.27,10.35,21.89,7.82,12.66,10,18.31.48,1.23,1.34,3.54,3.54,4.73s3.65.21,8.27.59c3.22.27,3,.77,6.5,1.18,4.25.5,5.51-.13,9.45,0a41.31,41.31,0,0,1,10,1.77c7.91,2.48,9.53,6.15,12.41,5.32,3.84-1.11,4.75-8.76,5.32-13.59.45-3.8.86-10.37-3.54-30.72-2.58-11.92-3.82-14.72-6.5-17.13-1.91-1.72-4.54-3.24-13.59-4.73-10.79-1.78-15.39-1-31.31-1.18C115.66,647.18,110.74,646.44,108.7,649.71Z" transform="translate(-67.27 -227.69)"/><path class="cls-15" d="M258.17,743.05c-1.06-2.45-.29-4.87.59-7.68a13.18,13.18,0,0,1,2.36-4.73,12.49,12.49,0,0,1,4.73-3.54,15.26,15.26,0,0,1,6.5-1.18c5.35.11,10.8,2.6,10.63,4.14-.06.58-.87.49-2.36,1.77a12.37,12.37,0,0,0-3,4.14,37.82,37.82,0,0,0-1.77,4.73c-1.38,3.62-2.07,5.43-3.54,6.5-2.71,2-6.44.93-7.68.59S259.61,746.38,258.17,743.05Z" transform="translate(-67.27 -227.69)"/><path class="cls-15" d="M283,746a7.68,7.68,0,0,1-3.54-4.14c-1.65-5.47,5.23-13,12.41-15.36a19.85,19.85,0,0,1,13.59.59c1.88.73,6.47,2.5,6.5,5.32,0,.93-.56,1.11-2.36,3.54s-3.44,4.66-4.14,7.68c-.5,2.18,0,2.47-.59,3.54-1.58,2.78-6.25,2.9-8.27,3A24.06,24.06,0,0,1,283,746Z" transform="translate(-67.27 -227.69)"/><path class="cls-15" d="M310.16,747.78c-.76-1.65-.09-3.46.59-5.32,1.87-5.09,6.55-7.18,7.68-7.68a13.23,13.23,0,0,1,8.27-1.18c4.43.92,6.88,4.1,8.27,5.91,1.51,2,4,5.24,3,7.68-.46,1-1.69,2.18-8.27,3C322.21,751,312.17,752.19,310.16,747.78Z" transform="translate(-67.27 -227.69)"/><path class="cls-15" d="M174.28,721.79a22.58,22.58,0,0,0-8.86-3,18.2,18.2,0,0,0-11.22,1.77,16.66,16.66,0,0,0-6.5,6.5c-1.14,2-2.75,4.81-1.77,7.68a7.19,7.19,0,0,0,3,3.54c3.43,2.41,6.91,2.28,13.59,2.36,12.3.14,14,.72,16.54-1.18.46-.34,4-3.09,4.14-7.09C183.26,727,176.95,723.34,174.28,721.79Z" transform="translate(-67.27 -227.69)"/><path class="cls-15" d="M147.11,718.83c-1-2.33-5.64-2.35-8.86-2.36A21.89,21.89,0,0,0,127,718.83a14.93,14.93,0,0,0-6.5,5.91c-.68,1.24-2.56,4.63-1.18,7.68.81,1.79,2.35,2.62,4.14,3.54,1.46.76,8.9,4.63,14.18,1.18,1.15-.75,2.14-2.27,4.14-5.32a41.92,41.92,0,0,0,4.14-8.27C147.43,719.8,147.25,719.16,147.11,718.83Z" transform="translate(-67.27 -227.69)"/><path class="cls-15" d="M122.29,716.47c-.84-1.27-3.77-.73-7.68,0-2.8.52-5.45,1-8.27,3-1.28.88-5.33,3.67-5.91,8.27a6.34,6.34,0,0,0,.59,4.14,7.16,7.16,0,0,0,7.68,3c2.08-.55,3-2.06,5.32-5.32C120.9,719.65,123.16,717.78,122.29,716.47Z" transform="translate(-67.27 -227.69)"/><path class="cls-9" d="M166.31,606.29a22.51,22.51,0,0,1,8.27,6.5,23.55,23.55,0,0,1,4.73,16" transform="translate(-67.27 -227.69)"/><path class="cls-9" d="M192,643.21a9.44,9.44,0,0,1-2.36,4.73,21.28,21.28,0,0,1-5.32,3.54" transform="translate(-67.27 -227.69)"/><path class="cls-9" d="M323.16,583.54a55.63,55.63,0,0,1,17.13,1.77c5.16,1.37,10.16,2.77,14.77,7.09a25.94,25.94,0,0,1,5.32,7.09" transform="translate(-67.27 -227.69)"/><path class="cls-9" d="M327.29,579.41a35.8,35.8,0,0,1,31.31,7.68" transform="translate(-67.27 -227.69)"/><path class="cls-16" d="M417.09,586.5" transform="translate(-67.27 -227.69)"/><path class="cls-17" d="M172.21,265.41c-6.72,5.09-13,9.89-17.72,14.77-15.67,16.36-18.11,39.23-18.9,46.67a132.6,132.6,0,0,0-.59,16.54c.18,7.36.27,11,1.18,14.77.83,3.43,2.13,7,2.36,12.41A17.33,17.33,0,0,1,135,382.38a13.1,13.1,0,0,1-3.54,3.54,11.23,11.23,0,0,1-4.73,1.77c-4.55.53-7.7-2.5-8.27-1.77-.11.14-.29.64,3.54,5.32a46.53,46.53,0,0,0,5.32,5.91,26.57,26.57,0,0,0,5.91,4.14c4.46,2.22,7.63,2,7.68,3s-2.8,2-5.32,2.36c-3.37.43-5.54-.66-5.91,0s1.33,2.9,3.54,4.14c3,1.65,5.85,1.15,5.91,1.77,0,.37-1.16.84-3.54,1.77a20.46,20.46,0,0,0-3,1.18c-2,1.16-3.27,3.16-3,3.54s1.28-.74,3.54-1.18c1.8-.35,2.1.13,5.32,0,1.93-.08,2.85-.29,3,0,.16.45-1.89,1.52-2.36,1.77a8.63,8.63,0,0,1-3.54,1.18c-1.1.08-1.73-.14-1.77,0s1.91,1.33,4.14,1.77A14.8,14.8,0,0,0,145,422a27.77,27.77,0,0,0,5.91-2.36c6.58-3.47,10.14-7.55,10.63-7.09.29.27-1.06,1.65-2.36,4.73a28.19,28.19,0,0,0-1.77,6.5,29.27,29.27,0,0,0-.59,5.91c.08,4.92,1.72,9.54,2.36,9.45.31,0,.09-1.1.59-3a13.86,13.86,0,0,1,4.14-6.5,17,17,0,0,1,4.73-3c1.52-.74,2.09-.83,2.36-.59.44.4-.11,1.52-.59,3-.63,1.87-.81,3.81-1.18,7.68-.18,1.84-.5,5.21,0,5.32s1-2.31,2.36-4.73c2.27-4,5.77-7,6.5-6.5.23.16,0,.58,0,1.77a13,13,0,0,0,.59,4.14,12.38,12.38,0,0,0,3,5.32c3.2,3.33,7.6,3.75,7.68,3.54s-1.57-.39-2.36-1.77c-1.07-1.87.16-4.43.59-5.32,1.43-3,4.17-5.12,4.73-4.73.19.13,0,.47,0,1.18,0,1.87,1.48,3.27,2.36,4.14a16.63,16.63,0,0,0,3.54,2.36c2.66,1.5,4,2.25,4.73,2.36,2.3.34,4.14-.65,6.5,0a3,3,0,0,1,1.18.59,4.43,4.43,0,0,1,1.18,2.36c.31,1,.83,2,1.18,3,1.25,3.51,5,8.69,5.91,8.27.29-.14,0-.76,0-2.36a15,15,0,0,1,1.77-6.5c.91-1.92,2.11-3.66,2.36-3.54s-.65,1.47-.59,3.54c0,.77.16,1.26,1.18,4.14,1.33,3.74,1.54,4.16,1.77,4.14.47,0,.26-1.84,1.18-4.73a15.28,15.28,0,0,1,3-5.32c.54-.62,1.79-2.06,2.36-1.77s.32,1.88,0,3c-.67,2.25-2.06,3-1.77,3.54.38.77,3.17.45,5.32-.59.83-.4,3.36-1.64,4.14-4.14.55-1.77-.09-3.2.59-3.54s1.45.53,2.36,1.18a14.4,14.4,0,0,0,7.09,2.36c3.35.39,6-.77,8.27-1.77,5.2-2.28,8.56-6.07,8.27-6.5-.13-.19-.92.39-1.77,0a2.35,2.35,0,0,1-1.18-1.77,4,4,0,0,1,1.18-3c.52-.69.78-1,1.18-1.18,1.88-.7,4.55,2.72,4.73,3a7.48,7.48,0,0,1,1.77,4.14c.13,2.11-.92,3.32-.59,3.54.52.35,3.33-2.6,5.32-5.91,1.72-2.86,1.78-4.21,1.77-4.73,0-2-1-3.17-.59-3.54s3,1,4.73,3c.49.56,3.22,3.65,3,7.68-.12,1.78-.77,2.88-.59,3s2.42-3.1,3.54-7.09c.68-2.39,1.29-4.57.59-7.09s-2.16-3.47-1.77-4.14c.75-1.28,5.63-.83,8.86,1.77a10.82,10.82,0,0,1,3.54,5.32c.55,2,.25,3.49.59,3.54s1.48-2.55,1.77-5.32a17.1,17.1,0,0,0-.59-6.5c-1.24-4.36-3.54-6.47-3-7.09s2.11.72,4.73,1.77a30.83,30.83,0,0,0,20.68,0c2.5-1,4.89-2.52,4.73-3s-1.33.22-3,0c-3.16-.43-5.72-3.35-5.32-4.14.31-.6,2.16.52,5.32,0,2.41-.39,4.84-1.62,4.73-2.36-.06-.4-1.62-.66-4.73-1.18-4.79-.8-6.36-1.06-7.68-2.36-.33-.32-1.49-1.48-1.18-2.36.37-1,2.56-1.11,6.5-1.18s5.71-.11,7.68.59c3,1.07,4.21,2.78,4.73,2.36.68-.55-.79-3.95-3-6.5a18.05,18.05,0,0,0-5.32-4.14c-3.58-1.89-6.53-2.11-6.5-2.36.06-.46,5.33-1.09,11.22.59,6.11,1.74,9.28,4.95,10,4.14.55-.59-1-3-4.14-7.68-2.85-4.31-4-5.3-4.73-5.91-2.65-2.08-4.78-2.3-4.73-3,.11-1.37,7.92-1.76,11.82-1.77,5.56,0,8.75,0,12.41,1.77,1.35.66,2.65,1.51,3,1.18.48-.54-2.06-3.73-4.14-5.91-5.58-5.87-11.47-8.38-11.22-8.86s2.87,1.28,7.09,1.77a17.55,17.55,0,0,0,9.45-1.18c4.1-1.85,6.87-5.38,6.5-5.91-.2-.29-1.21.49-3,.59a8.71,8.71,0,0,1-5.32-1.77,47.5,47.5,0,0,1-11.22-10.63,65.34,65.34,0,0,1-8.86-16c-3-7.94-1.94-9.41-4.73-20.68A106.55,106.55,0,0,0,322.27,289a70.8,70.8,0,0,0-12.41-18.31,68.13,68.13,0,0,0-14.18-11.22c-15.56-9.7-35.09-15.13-48.44-14.77a103.83,103.83,0,0,1-14.77-.59,44.55,44.55,0,0,1-10-1.77,27,27,0,0,1-8.86-4.14c-5.33-4-6.78-9.23-7.68-8.86s.22,4.85,1.18,7.68c.83,2.45,1.43,4.2,3,5.91,2.89,3.23,6.62,3.48,6.5,4.14-.17.89-7.12.3-10.63,0-6.24-.53-9.36-.8-12.41-1.77-2.6-.83-4.34-1.72-4.73-1.18s1.36,3.09,3.54,4.73c3.2,2.39,5.82,2.08,5.91,3,.16,1.53-7.82,2.45-16.54,7.09C178.77,260.45,176.55,262.13,172.21,265.41Z" transform="translate(-67.27 -227.69)"/><path class="cls-18" d="M189.64,393.9c-1.13-.64-2.42,1.12-7.09,3.54-5.19,2.7-10.4,4.05-10.63,3.54s4.84-3.35,4.73-3.54-3.95,2.55-9.45,4.14a25.82,25.82,0,0,1-10,1.18c-4.82-.47-7.92-2.4-8.27-1.77s1.74,2.34,3.54,3.54a21.88,21.88,0,0,0,10.63,3.54c8,.45,14.66-3.24,14.77-3s-5,1.31-7.09,5.32c-1.07,2-1.17,4.48-.59,4.73s1.42-2.11,4.14-4.14c2.07-1.55,3.07-1.27,7.09-3,3.48-1.46,5.22-2.19,6.5-3.54C191.11,401.1,191.45,394.92,189.64,393.9Z" transform="translate(-67.27 -227.69)"/><path class="cls-18" d="M202.93,258.91c.31.34-1.31,2.5-3,4.14-2.4,2.39-4.3,3.1-4.14,3.54.23.62,4.23-.14,7.68-1.18a38.2,38.2,0,0,0,10.63-4.73c2.9-1.9,5-3.88,5.32-3.54s-2.42,3.22-1.77,4.14,5.17-.3,8.86-3c5.24-3.77,6.69-8.76,8.27-8.27,1,.32,1.25,2.76,1.18,4.14-.23,4.8-4.23,7.19-3.54,8.27.78,1.24,7-.15,12.41-3.54,3.73-2.35,5.36-4.6,9.45-5.32a15.05,15.05,0,0,1,4.73,0c2.84.36,10.82,1.36,17.72,7.09,1.72,1.43,5.53,4.95,9.45,14.18,8.13,19.14,8.32,43,6.5,52a22.64,22.64,0,0,0,0,10,23.86,23.86,0,0,0,2.36,5.91c1.1,2.06,3.09,5.77,6.5,8.27,5.84,4.29,13,2.93,13,4.14,0,.89-3.83,1.71-4.14,1.77-4.14.86-6.74-.18-7.09.59s2.21,2.07,4.73,4.73c3.08,3.25,4.27,6.61,5.91,11.22.35,1,3.28,9.26,1.77,10-.79.41-1.91-1.67-5.32-3.54-3.66-2-7.86-2.62-8.27-1.77-.27.56,1.35,1.23,3,3.54,1.8,2.59,1.35,4,3,8.86,1.41,4.24,2.78,6.22,2.36,6.5s-2.32-2.48-6.5-5.91-6.75-4.31-8.27-4.73c-2.18-.6-5.41-1-5.91,0-.25.53.37,1.09,1.77,3.54s2.13,3.73,1.77,4.14c-.5.56-2.74-1.38-6.5-3A35.2,35.2,0,0,0,275,388.88c-3.8-.27-5.19.07-7.09,0-8.86-.32-20.13-9.25-20.68-18.31-.5-8.2,8.06-11.75,5.91-18.9-1.37-4.56-6.06-7.12-7.09-7.68-3.41-1.86-4.68-.88-12.41-2.36a80,80,0,0,1-12.41-3.54c-6.55-2.26-7.61-3.28-8.27-4.14-3-3.91-1.33-9.3-2.36-9.45s-2.32,3.91-3,6.5a16.14,16.14,0,0,0-.59,3.54c0,1-.06,5.17,2.36,8.27,3,3.78,7.83,3.85,7.68,4.73-.12.69-3.22.76-5.32.59-2.62-.21-6-.49-8.86-3a15.22,15.22,0,0,1-4.14-6.5c-.74-2-.84-3.56-1.18-3.54s-1,2.65-.59,5.32a18.8,18.8,0,0,0,2.36,5.91c1.3,2.43,2.06,3.19,1.77,3.54-.47.59-3.38-.32-5.32-2.36-1.72-1.81-1.26-3-3-7.09a30.82,30.82,0,0,0-4.14-7.09c-2.27-2.88-5-5-5.32-4.73s2.45,2.94,3.54,7.68a13.87,13.87,0,0,1,0,7.09,13.56,13.56,0,0,1-3.54,5.91c-2.12,2.15-3.13,1.88-9.45,5.32-4.86,2.64-6.24,3.88-7.09,4.73a24.39,24.39,0,0,0-3.54,4.73,33.89,33.89,0,0,0-4.14,8.86c-1.23,4.32-.17,4.56-1.18,8.86-.56,2.36-1.65,7-5.32,10.63-4.43,4.4-10.44,5.16-10.63,4.73s3.65-1.48,5.91-5.32c1.49-2.53,1.88-5.54,1.18-5.91s-1.44,1.6-4.14,3a12.82,12.82,0,0,1-5.91,1.18c-.34,0-5.68.07-5.91-1.18s3.93-1.53,7.09-4.73c3-3,3.48-6.88,4.14-12.41.59-5,.15-6.71,0-15.36-.16-8.94-3.49-14.3-2.66-16.84,2.8-8.6,3.16-7.32,2.36-8.27s-1.94,2.34-2.36,1.77-1.4-20.19,2.36-24.22c1.46-1.57,8.86-27.18,23.34-21-1.15-4.58-6-7.2-4.73-9.45,1-1.76,4.41-1.77,4.73-1.77,2.46,0,2.86,1.86,4.73,1.77s3.28-1.94,5.32-4.73a14,14,0,0,0,3-5.91c.38-2,0-3.36.59-3.54s2.13,1.26,2.36,3c.34,2.47-2.17,4.24-1.77,4.73s4.92-2,8.86-4.73c2.25-1.58,4.23-3.15,8.27-5.91C201.82,259.21,202.74,258.7,202.93,258.91Z" transform="translate(-67.27 -227.69)"/><path class="cls-17" d="M206.48,422a18.21,18.21,0,0,0-4.73,5.32,18.77,18.77,0,0,0-2.36,7.09,23.66,23.66,0,0,0,0,4.73,23.41,23.41,0,0,0,1.18,7.09c.83,2.29,2.07,4.25,2.36,4.14s-.62-1.74-.59-4.14a11,11,0,0,1,3-7.09c1.3-1.44,3.13-2.71,3.54-2.36s-.5,1.31-1.18,3.54a10.46,10.46,0,0,0,1.18,10c.76,1.31,2,3.12,2.36,3s-.49-1.49-.59-3.54c0-.72-.23-4.49,2.36-6.5a6.3,6.3,0,0,1,4.14-1.18" transform="translate(-67.27 -227.69)"/><path class="cls-18" d="M213,420.78a12.53,12.53,0,0,0-4.14,2.36,17,17,0,0,0-4.73,5.91c-.5,1-1.85,3.57-1.18,4.14.44.38,1.34-.51,3.54-1.18.51-.15,4.4-1.31,5.32,0,.22.32.14.61,0,1.77-.32,2.69-.53,4.45,0,4.73s1.2-1,3.54-2.36a9.45,9.45,0,0,1,3-1.18,10.87,10.87,0,0,1,3.54,0,4.43,4.43,0,0,1,2.36.59c1.06.86.93,2.37,1.18,2.36s.75-1.83.59-4.14c-.29-4.18-2.42-6.54-1.77-7.09s2.56,1,3.54,1.77c2.52,2.1,3.22,4.26,3.54,4.14s.24-5-3-8.27c-2.29-2.35-5.11-2.91-8.27-3.54A13.3,13.3,0,0,0,213,420.78Z" transform="translate(-67.27 -227.69)"/><path class="cls-19" d="M192.89,349.89a6.14,6.14,0,0,0,1.18,3.54,8.81,8.81,0,0,0,4.14,2.36,15.34,15.34,0,0,0,2.36.59c.8.14,7.82,1.36,8.27,0,.21-.64-1.24-1.15-3-3.54-.81-1.14-2.31-3.58-1.77-4.14s3.46,2,8.27,4.14c5.84,2.62,12,3.4,12.41,2.36.19-.45-.87-.93-2.36-3-1.67-2.27-2.79-5-2.36-5.32s2.36,2.66,6.5,5.32a27.59,27.59,0,0,0,6.5,3c2.83,1,5.74,1.65,11.82,2.36,8.11,1,8.09.37,13.59,1.18a70.88,70.88,0,0,1,12.41,3c7.79,2.63,10.38,5.06,11.22,5.91a22.2,22.2,0,0,1,3.54,4.73,16.38,16.38,0,0,1,2.36,6.5,15.87,15.87,0,0,1-.59,5.91,28.29,28.29,0,0,1-3.54,8.27c-1.75,2.93-3.34,4.65-6.4,8-1,1-2.75,2.91-3.05,2.68s1-1.8,1.77-4.73c.89-3.36.19-4.93,0-5.32s-.83-1.69-1.77-1.77c-1.44-.12-3.27,2.48-3,4.73a4.2,4.2,0,0,0,1.18,2.36c.87.84,1.8.9,1.77,1.18s-1.86.6-3.54.59a19.85,19.85,0,0,1-4.73-.59,41.74,41.74,0,0,1-8.86-3.54,36.48,36.48,0,0,1-5.91-3.54c-2.4-1.83-3.58-3.29-4.14-3s-.23,2.15.59,3.54c1.59,2.69,4.82,3.26,4.73,3.54s-3.32-.18-7.68-1.77a60.27,60.27,0,0,1-7.68-3.54c-5-2.57-7.48-3.86-8.86-5.32-3.46-3.64-3.38-7.19-4.73-7.09-1.57.12-3.31,5.07-2.36,9.45.34,1.56.73,1.71.59,2.36-1.07,5.13-27.34,4.66-27.77,1.77-.11-.75,1.61-1,3-3.54a12.21,12.21,0,0,0,1.18-5.32,13.91,13.91,0,0,0-.59-5.91c-.51-1.45-1.4-3.07-1.77-3s.23,2.14,0,4.73a14.5,14.5,0,0,1-2.36,6.5c-1.75,2.83-3.82,4.28-7.09,6.5-4.29,2.92-8.09,4.44-8.27,4.14s1.8-1.16,3-3.54c.53-1.1,1-2.71.59-3-.68-.42-2.49,3.94-7.09,6.5-2.89,1.61-5.79,1.89-10.63,2.36-3.36.33-4.72.11-4.73,0s2.9.07,4.73-1.77c.15-.15,1.6-1.64,1.18-3-.52-1.65-3.63-1.92-5.32-1.77-.63.06-3.81.34-4.73,2.36s1.22,4.1.59,4.73c-1,1-8-2.09-10.63-8.27-1.68-4-1-7.91-.59-10a15.64,15.64,0,0,1,2.36-6.5c1.93-2.83,4.45-4.08,8.27-5.91,4.52-2.17,5.3-1.71,11.22-4.14,5-2.06,4-2.2,8.86-4.14,5-2,7.19-2.29,10-4.73a14.81,14.81,0,0,0,3.54-4.14c3.28-5.9.83-12.94,1.18-13S192.32,344.14,192.89,349.89Z" transform="translate(-67.27 -227.69)"/><path class="cls-9" d="M205.89,340.44a13.06,13.06,0,0,0,3.54,8.27,14,14,0,0,0,6.5,3.54,16.47,16.47,0,0,0,4.14.59" transform="translate(-67.27 -227.69)"/><path class="cls-9" d="M184,336.3a18.36,18.36,0,0,1,4.14,7.09,12,12,0,0,1,.59,5.32,7.85,7.85,0,0,1-1.18,3.54,7.53,7.53,0,0,1-4.14,3" transform="translate(-67.27 -227.69)"/><path class="cls-1" d="M220.66,354c-.94.43-1.3,1.93-1.18,3,.08.72.39,1.19,1.77,3,2,2.52,2,2.38,2.36,3,.92,1.48.66,2.3,1.18,5.32a33,33,0,0,0,1.77,6.5,21.34,21.34,0,0,0,3,5.32,21,21,0,0,0,6.5,5.32c6.8,3.72,14.22,3.64,18.9,3.54a53.22,53.22,0,0,0,17.13-3c8.28-3,10.06-6.32,10.63-7.68a7.75,7.75,0,0,0,.59-4.73c-.72-3.23-3.75-5-6.5-6.5-1.48-.82-4.39-2.27-10.63-3.54-5.11-1-5.82-.62-13.59-1.77-2-.29-5.49-.82-10-1.77-6.28-1.31-6.36-1.73-10.63-2.36-3.17-.47-4.08-.39-5.91-1.18C223.15,355.16,221.89,353.47,220.66,354Z" transform="translate(-67.27 -227.69)"/><path class="cls-1" d="M181.67,353.44c-.54-.06-1.14.18-3.54,3-3.29,3.79-3.82,5.23-5.91,7.09a19.68,19.68,0,0,1-4.73,3c-1.31.67-2.81,1.32-10,3.54-4,1.25-5.38,1.6-7.09,3a7,7,0,0,0-3,4.14,6.78,6.78,0,0,0,1.18,4.73c2.71,4.47,8.15,5.85,13,7.09a27.3,27.3,0,0,0,8.86,1.18c4.26-.22,7.27-1.51,10.63-3,4.58-2,6-3.51,6.5-4.14a10.17,10.17,0,0,0,2.36-4.73c.42-2.28-.17-4.07-1.18-7.09s-1.57-3.13-2.36-5.91-.38-3.22-1.18-5.91C184.6,357.29,183.51,353.64,181.67,353.44Z" transform="translate(-67.27 -227.69)"/><path class="cls-20" d="M239.56,371.75a7.33,7.33,0,0,0,1.18,2.36,9.23,9.23,0,0,0,4.73,3,18.36,18.36,0,0,0,6.5,1.18,19.43,19.43,0,0,0,10-3" transform="translate(-67.27 -227.69)"/><path class="cls-20" d="M165.12,377.66a14.43,14.43,0,0,0,4.14,2.36,15.32,15.32,0,0,0,13.59-1.77" transform="translate(-67.27 -227.69)"/><path class="cls-1" d="M191.71,399.52a3.56,3.56,0,0,1,0-2.36c1.13-3,7.44-3.31,12.41-3.54,4.13-.19,7.28.46,13.59,1.77,1.3.27,3.43.75,4.14,2.36a3.2,3.2,0,0,1,0,2.36c-.31.71-1,1.43-4.14,2.36a32.29,32.29,0,0,1-5.91,1.18,51.86,51.86,0,0,1-10,0,22.48,22.48,0,0,1-5.91-1.18C192.49,401.26,191.89,400,191.71,399.52Z" transform="translate(-67.27 -227.69)"/><path class="cls-1" d="M204.12,401.29c-.22,1.18.27,2.21,1.18,4.14a16,16,0,0,0,1.77,3c2.9,3.78,7.46,5.65,7.68,5.32s-2.52-1.37-4.73-4.73c-.77-1.17-2.95-4.48-2.36-8.27.27-1.74,1-2.65.59-3C207.61,397.24,204.56,398.9,204.12,401.29Z" transform="translate(-67.27 -227.69)"/><path class="cls-1" d="M201.16,417.24a1.88,1.88,0,0,1-.59-1.77c.67-2.88,10.19-3.49,16.54-3a74.51,74.51,0,0,1,16,3.54,9.71,9.71,0,0,1,1.77.59c0,.2-8-2.32-17.72-2.36-3.65,0-5.48,0-7.68.59C205.28,416,202.53,418.35,201.16,417.24Z" transform="translate(-67.27 -227.69)"/><path class="cls-18" d="M227.45,388.59c1-.34,1.65,1.87,5.32,4.73s6.95,3.81,11.82,5.32c6,1.85,5.36.55,9.81,2.13.49.17,1.72.62,2,.23.58-.79-3.36-4.22-3-4.73s2.45,1.16,5.91,3c2,1,1.89.85,8.86,4.14,3,1.41,4.25,2,5.32,3.54s1.39,3,1.77,3-.17-1.66.59-3.54c.55-1.35,1.55-2.28,3.54-4.14.49-.45.46-.4,1.34-1.18,2.7-2.39,3.83-3.66,4-3.54s-3.33,3.05-3.54,7.09c-.18,3.47,2.2,6.21,3,7.09,3.63,4.2,9,5,8.86,5.32s-4.75-.74-10.63-1.77c-2.25-.39-3.79-.63-4.14,0-.51.93,2.19,2.57,3.54,5.91,1.18,2.92,1.33,6.22.59,6.5s-1.84-3-5.32-6.5c-2.86-2.9-5.72-4.33-8.86-5.91-5.35-2.68-10.45-4-10.63-3.54-.11.27,1.89.85,3.54,3,1.83,2.32,2.46,5.51,1.77,5.91s-2.47-3.18-7.09-6.5c-2.8-2-5.81-3.12-11.82-5.32-3.33-1.22-5.84-1.93-8.86-4.14a8.8,8.8,0,0,0-1.77-1.18c-.21.23,5.83,5.14,5.32,5.91s-5.56-.88-8.86-4.73C224.83,398.73,225.45,389.25,227.45,388.59Z" transform="translate(-67.27 -227.69)"/><path class="cls-18" d="M195.42,395.33a.58.58,0,0,0,.32,1c18.17,1.37,22.76,1.12,22.85.49s-2.57-2.5-8.86-3.54c-3.25-.54-10.21-.3-13,1.18A9.38,9.38,0,0,0,195.42,395.33Z" transform="translate(-67.27 -227.69)"/><path class="cls-1" d="M308.19,303.53c1.72.57,2.54,1.44,4.41,1.46.48,0,1.33,0,4.47-1.47.61-.28,5.22-2.39,5-2.87-.13-.26-1.45.33-3.63.11-1.65-.16-3.19-.72-3.16-1s2.36.06,5.36-.76c1.64-.45,3.66-1.31,3.54-1.88s-2.05-.3-4.74-1.5c-.87-.39-2.46-1.1-2.4-1.78s2.4-.88,4.14-1.51c3.64-1.31,4.94-5.09,6.53-9.71a37.92,37.92,0,0,0,2-15.29,35.46,35.46,0,0,0-2.77-11.51c-2.92-6.76-4.39-10.15-5.71-11.61-.47-.52-1.83-1.94-1.52-3.43.21-1,1-1,1.27-2.18a6.49,6.49,0,0,0-.8-3.92c-.13-.3-.24-.53-.47-1-.75-1.49-1.12-2.23-1.42-2.2s0,1.4-1,2.51a6.78,6.78,0,0,1-1.81,1.23c-.27.13-.47.2-.64.27-.58.22-2.15.81-2.42.51s1.37-1.29,2.07-3.25c.57-1.61.34-3.41-.19-3.55s-.94,1.84-3.08,3.41a10.07,10.07,0,0,1-4.83,1.71c-2.88.35-4.83-.45-6.79-.89-5.32-1.2-10.12.4-13.35,1.48a32.61,32.61,0,0,0-11,6.48c-3.21,2.76-3.07,3.7-5.57,4.85-3.6,1.64-5.78.55-9.22,2.61a8.52,8.52,0,0,0-3.8,3.9c-.84,2.09.5,4,3.9,5.87C267.31,262.37,296.57,280.47,308.19,303.53Z" transform="translate(-67.27 -227.69)"/></svg>