<svg id="Слой_1" data-name="Слой 1" xmlns="http://www.w3.org/2000/svg" viewBox="0 0 25 64.88"><defs><style>.cls-1{fill:#00c5db;}</style></defs><title>arrow</title><path class="cls-1" d="M295.48,528.4l.51,1c.1.2.19.4.28.6s.17.37.25.56a2.13,2.13,0,0,0,0,.34.86.86,0,0,0,.07.38.69.69,0,0,0,.26.31l0,.19h0a.66.66,0,0,0,.12.39.42.42,0,0,0,.31.18.41.41,0,0,0,.32-.14.58.58,0,0,0,.15-.34s0,0,0,0a5.06,5.06,0,0,0-.08-.64v0a2.31,2.31,0,0,1,.05-.23v0c.14-.18.3-.34.46-.5l.35-.37.64-.66,1.34-1.42c.91-1,1.81-2,2.71-3l2.6-2.88a.48.48,0,0,0,.57-.25.7.7,0,0,0,.08-.3.73.73,0,0,0,0-.16l2.19-2.4.56-.61a.35.35,0,0,0,.14,0,.47.47,0,0,0,.28-.24.64.64,0,0,0,.07-.28s0,0,0,0l2.51-2.74a.91.91,0,0,0,.21-.39,1,1,0,0,0,.22-.41,1.4,1.4,0,0,0,0-.29,1,1,0,0,0,0-.23,1.1,1.1,0,0,0-.21-.46,1.42,1.42,0,0,0-.84-.46l-.75-.19c-.63-.14-1.26-.3-1.9-.41l-1-.19c-.23,0-.46-.1-.68-.12l-2-.23h0v0c0-.26,0-.51.05-.77,0-.45,0-.91,0-1.36q0-1.17,0-2.33c0-.66,0-1.31,0-2s0-1.36,0-2q-.1-4.72-.22-9.43c-.07-2.66-.11-5.33-.16-8,0-1.37,0-2.73-.08-4.1l-.09-3c0-.53,0-1.06,0-1.59l-.17-3.56c0-.38,0-.76-.05-1.14,0-.72-.07-1.43-.09-2.15,0-.33,0-.66,0-1,0-.06,0-.12,0-.18a.54.54,0,0,0,.21-.54c0-.23-.06-.47-.1-.71a.51.51,0,0,0-.18-.31.37.37,0,0,0-.42,0,.69.69,0,0,0-.19.14,1,1,0,0,0-.16.31,1.48,1.48,0,0,0-.07.32c0,.1,0,.2,0,.3s0,.36,0,.54l-.24,0-.4,0-.55-.06-.86-.05c-.45,0-.9,0-1.35,0-.94,0-1.88,0-2.83,0l-1.07,0-1.12.08-1.11.12-.18,0-.27,0-.25.07a2.7,2.7,0,0,0-.36.14l-.12.05a.57.57,0,0,0-.19.21v0a.59.59,0,0,0-.61-.23.8.8,0,0,0-.49.93c.18,1.09.37,2.19.56,3.28l.26,1.47c0,.28.1.56.15.85l.14,1.79v0h0q.16,2.24.32,4.47v-.05c.11,1.62.21,3.23.31,4.85.07,1.16.13,2.33.19,3.49l-.07,0a.5.5,0,0,0-.24.15.71.71,0,0,0-.17.45.73.73,0,0,0,.14.46.48.48,0,0,0,.37.21h0l.09,1.82c0,.35,0,.71.05,1.06l.2,5.48c0,1.2.06,2.39.09,3.59l.06,2.94c0,.36,0,.72,0,1.08v.85h0c-.11,0-.2.11-.28.19a.7.7,0,0,0-.11.73.54.54,0,0,0,.38.32q0,.53,0,1.05t0,1.31l-.19-.09-.27-.12-.18-.08a3.83,3.83,0,0,0-.87-.22c-.33,0-.61.31-.63.69a.83.83,0,0,0,.16.52.6.6,0,0,0,.42.24h.09l.08,0c-.66,0-1.31.07-2,.14a11.69,11.69,0,0,0-1.23.19,3.84,3.84,0,0,0-1.22.44.73.73,0,0,0-.34.43.86.86,0,0,0,.05.54,2,2,0,0,0,.43.58c.19.2.36.42.53.63l0,.08a1.64,1.64,0,0,0,.14.25l.06.1a6.25,6.25,0,0,0,.39.62.5.5,0,0,0,.31.2l.15.23c.09.13.17.25.25.38l.72,1.22,1.06,2c.21.4.41.8.62,1.21a.66.66,0,0,0-.15.28.76.76,0,0,0,0,.49.59.59,0,0,0,.3.31l.13.07.4.25,1.49,2.9C295,527.37,295.22,527.88,295.48,528.4ZM304,500.13l-.11-.12h0l0,0c-.68-.7-1.35-1.39-2-2.07l-2-1.94c-.3-.3-.61-.61-.92-.9l-1.85-1.7-1.12-1-.74-.65-.51-.44c-.06-1.22-.11-2.45-.18-3.67h0a.6.6,0,0,0,.08-.17l.26.23.71.61c.35.3.69.61,1,.92.13.11.26.22.38.34l.42.41,1.06,1,1.15,1.25.71.77.23.26,1.31,1.61.63.77c.25.31.48.64.72,1a.44.44,0,0,0,.68.06V497Q303.94,498.54,304,500.13Zm-.26-21q0,1,0,1.94c-.29-.38-.58-.75-.88-1.12l-.45-.55-1.57-1.9c-.25-.3-.49-.61-.75-.9l-1.45-1.63c-.25-.28-.5-.57-.76-.85l-.72-.76c-.15-.16-.29-.32-.45-.46-.39-.38-.77-.75-1.17-1.12l-.53-.46-.18-.15a.58.58,0,0,0-.22-.11l-.13,0-.17,0a.64.64,0,0,0-.42.44,1.19,1.19,0,0,0,0,.3c0,.1,0,.19,0,.29a.65.65,0,0,0,.12.39.4.4,0,0,0,.67,0l.19.17.49.46.86.83,1.1,1.14c.13.14.25.28.38.43l.81.91.74.83.24.27,1.19,1.44,1.22,1.48c.45.55.89,1.11,1.33,1.67a.44.44,0,0,0,.55.14q0,.46,0,.92t0,1c-.22-.18-.44-.36-.65-.56l-.72-.67-1.67-1.55c-.27-.25-.53-.52-.8-.79l-1.66-1.68c-.68-.69-1.36-1.4-2.05-2.07-.43-.42-.86-.84-1.3-1.24l-.82-.75-.39-.32,0-.55-.06-.91c0-.18,0-.35,0-.53s0-.39,0-.58a2.88,2.88,0,0,0-.09-.49,1,1,0,0,0-.17-.4.73.73,0,0,0-.31-.24l-.14,0,0-.15a.41.41,0,0,0,.3,0c.32-.09.64-.16,1-.24l.89-.19c.5-.1,1-.18,1.51-.24,0,0,0,.09,0,.13a1.19,1.19,0,0,0,0,.34.61.61,0,0,0,.2.35.4.4,0,0,0,.35.08l.07,0,.12.11.39.37.62.6c.35.35.7.7,1.05,1.06l4.37,4.6h0C303.69,478.11,303.69,478.61,303.7,479.1Zm-.07-3.12-2-2.15-1.48-1.57c-.4-.42-.8-.83-1.2-1.24-.25-.26-.51-.51-.77-.76l-.41-.37c.47,0,.94-.07,1.41-.09l.78,0a1.19,1.19,0,0,0-.2.26.67.67,0,0,0,0,.7.43.43,0,0,0,.49.16l.05,0c.49.55,1,1.1,1.47,1.66.21.24.41.5.62.75l1,1.2a.54.54,0,0,0,.21.16v.3Zm-.11-3.43V473l-.34-.42c-.21-.26-.42-.53-.64-.78-.47-.55-.94-1.11-1.44-1.62l-.25-.25a.94.94,0,0,0-.22-.15c.59,0,1.18,0,1.77,0l.55.06h0a.31.31,0,0,0,.36.26l.1,0h0C303.46,470.92,303.49,471.74,303.52,472.55Zm-11,5.3h0Zm1.26-1.74,0,0,.28.25c.2.18.41.35.6.54l.77.72.46.43,2.43,2.43,1.45,1.45c.21.21.42.41.63.6l1.6,1.48.58.54c.27.25.54.47.82.7a.38.38,0,0,0,.31.08q0,1.21,0,2.42t0,2.48l-.31-.45a18.59,18.59,0,0,0-1.59-1.92c-.56-.6-1.14-1.17-1.71-1.74-.77-.77-1.56-1.5-2.36-2.22l-2-1.78c-.58-.52-1.17-1-1.77-1.54q-.09-1.3-.17-2.6Q293.89,477.05,293.82,476.1Zm.4,6.11.34.3,1.15,1c.86.75,1.72,1.49,2.57,2.26.4.36.8.71,1.18,1.08l1.39,1.35c.45.47.9.94,1.32,1.45a12.77,12.77,0,0,1,1.19,1.65c.17.29.32.59.48.89q0,1.79.05,3.57c-.22-.3-.44-.6-.67-.89l-.71-.87-1.25-1.54c-.12-.14-.25-.27-.37-.41l-.85-.94c-.36-.4-.71-.8-1.09-1.18l-1.24-1.24c-.27-.27-.55-.52-.83-.78l-.91-.82-.63-.54-.39-.35a2.54,2.54,0,0,0-.38-.28l-.14-.07-.2-3.42Zm.69,13c0-.68-.05-1.37-.09-2l.84.76,1.2,1.11,1.56,1.44.35.34.87.86c.91.9,1.84,1.8,2.74,2.72l-.12-.12.93,1a.49.49,0,0,0,.46.1.59.59,0,0,0,.32-.24q0,1.08,0,2.16c0,.8,0,1.59,0,2.39,0,1.43,0,2.86,0,4.29l-.8-.78-.68-.64-2-1.84c-.31-.29-.63-.58-1-.86l-1.75-1.53c-.41-.36-.82-.69-1.23-1l-.6-.48a5.65,5.65,0,0,0-.86-.61c0-.47,0-.94,0-1.42Zm.26,9.39q0-.35,0-.69l.45.37.6.49c.45.37.89.74,1.34,1.12l1.84,1.6c.36.31.71.66,1.07,1L302.1,510c.58.54,1.14,1.1,1.7,1.65a.39.39,0,0,0,.14.08.85.85,0,0,1-.31.85.9.9,0,0,0,.74,1c.33,0,.66,0,1,.08l.82.1.86.1.3,0,1.56.29,1,.21.71.17-2,2.2-1-.63c-.47-.3-.94-.61-1.41-.9l-1.72-1c-.41-.25-.82-.51-1.23-.74l-1.9-1.09c-.48-.28-1-.54-1.46-.8l-1.5-.82c-.46-.25-.91-.5-1.37-.74l-1.4-.7-.38-.18v-.71C295.23,507.12,295.19,505.86,295.17,504.6Zm0,5.91.53.25c.5.23,1,.48,1.48.72,1.06.53,2.12,1.08,3.17,1.64.9.47,1.78,1,2.67,1.47l1.32.79c.43.26.88.51,1.31.78l2.15,1.37-.45.49-2,2.19-.08-.07-1-.82-1-.8-.33-.26-2-1.45c-.46-.34-.94-.65-1.41-1l-.79-.54-.6-.38c-.53-.33-1-.67-1.58-1l-1.55-.89c0-.17,0-.34,0-.5v-2Zm-5,4.2a21.69,21.69,0,0,1,2.51-.05c.49,0,1,.05,1.47,0a.55.55,0,0,0,.29.11.6.6,0,0,0,.52-.29l0,0,0,0,.38.2,1.12.61,1.68,1,.44.29,1.11.74c.2.13.4.25.59.39l.69.5,1.11.81c.16.12.34.23.5.36l1.45,1.21.53.44-2.78,3.09a1,1,0,0,0,0-.11.9.9,0,0,0-.3-.52c-1.29-1.16-2.6-2.3-3.9-3.44l-.42-.34-1.06-.86c-.18-.15-.36-.31-.55-.45l-.83-.61c-.31-.23-.62-.47-.94-.68l-1.24-.81c-.22-.14-.46-.26-.68-.39l-.53-.31-.67-.35-.56-.26a2,2,0,0,0-.46-.13.92.92,0,0,0-.31,0l0,0C289.63,514.78,289.91,514.74,290.18,514.71Zm1.57,4.06c-.13-.27-.29-.53-.43-.79s-.28-.52-.43-.78l.05,0,.87.5.84.54c.2.13.41.26.61.4l1,.71c.21.15.42.29.62.46l1.76,1.42c.39.32.77.66,1.15,1q1.51,1.32,3,2.66a.54.54,0,0,0,.26.13l-1.41,1.55q-1.68-1-3.34-2.13l-1.56-1L294,523l-.21-.13-.09-.19Q292.73,520.71,291.75,518.77Zm3.13,6.28.89.58q1.48,1,3,1.89l-.62.66c-.23.25-.46.5-.69.76l-.41.49-.16-.35c-.13-.28-.27-.55-.4-.83-.3-.61-.59-1.22-.89-1.82Z" transform="translate(-287.74 -467.48)"/><path class="cls-1" d="M303.71,505.94a.43.43,0,0,0,.1-.26.36.36,0,0,0-.08-.25c-.08-.1-.16-.19-.24-.28l-.32-.33-.46-.48-1.13-1.13-1.82-1.82L298,499.65l-.9-.89-.41-.38-.26-.23a2.54,2.54,0,0,0-.37-.25,1.74,1.74,0,0,0-.32-.14.38.38,0,0,0-.34,0,.52.52,0,0,0-.21.3.56.56,0,0,0,.28.67l.2.09a6.84,6.84,0,0,1,.76.63l.47.42,1,1c.59.54,1.16,1.09,1.74,1.64l1.74,1.65c.58.55,1.17,1.11,1.74,1.68l.08.08a.31.31,0,0,0,.21.12A.27.27,0,0,0,303.71,505.94Z" transform="translate(-287.74 -467.48)"/></svg>