<svg id="Слой_1" data-name="Слой 1" xmlns="http://www.w3.org/2000/svg" viewBox="0 0 692.21 639.13"><defs><style>.cls-1,.cls-3,.cls-4{fill:none;stroke:#fff;}.cls-1,.cls-3{stroke-linecap:round;stroke-linejoin:round;stroke-width:5px;}.cls-1,.cls-2{opacity:0.27;}.cls-1{isolation:isolate;}.cls-4{stroke-miterlimit:10;}</style></defs><title>bg-aboutloser768</title><circle class="cls-1" cx="353.02" cy="8.78" r="6.27" transform="translate(-80.73 202.75) rotate(-31.94)"/><circle class="cls-1" cx="353.02" cy="8.78" r="6.27" transform="translate(-80.73 202.75) rotate(-31.94)"/><circle class="cls-1" cx="792.73" cy="283.72" r="6.27" transform="translate(-157.13 488.04) rotate(-32.71)"/><circle class="cls-1" cx="333.74" cy="287.72" r="6.27" transform="translate(-232.08 240.64) rotate(-32.71)"/><g class="cls-2"><line class="cls-3" x1="145.89" y1="455.62" x2="160.06" y2="440.24"/><line class="cls-3" x1="145.28" y1="440.84" x2="160.66" y2="455.01"/></g><g class="cls-2"><line class="cls-3" x1="186.47" y1="435.32" x2="186.72" y2="462.75"/><line class="cls-4" x1="176.41" y1="452.87" x2="176.66" y2="480.3"/></g><g class="cls-2"><polygon class="cls-3" points="131.83 552.05 135.88 558.9 139.79 551.97 143.71 545.03 135.75 545.11 127.78 545.19 131.83 552.05"/><polygon class="cls-4" points="126.84 560.76 130.89 567.61 134.8 560.68 138.72 553.74 130.76 553.82 122.79 553.9 126.84 560.76"/></g><g class="cls-2"><polygon class="cls-3" points="677.83 337.05 681.88 343.9 685.79 336.97 689.71 330.03 681.75 330.11 673.78 330.19 677.83 337.05"/><polygon class="cls-4" points="672.84 345.75 676.89 352.61 680.8 345.68 684.72 338.74 676.75 338.82 668.79 338.9 672.84 345.75"/></g><g class="cls-2"><rect class="cls-3" x="291.48" y="97.2" width="10.96" height="10.96" transform="translate(-130.47 17.41) rotate(-0.53)"/><rect class="cls-4" x="286.92" y="105.14" width="10.96" height="10.96" transform="translate(-130.54 17.37) rotate(-0.53)"/></g><g class="cls-2"><line class="cls-3" x1="128.89" y1="341.62" x2="143.06" y2="326.24"/><line class="cls-3" x1="128.28" y1="326.84" x2="143.66" y2="341.01"/></g><g class="cls-2"><path class="cls-3" d="M326.17,136.38A11.1,11.1,0,0,1,308.43,123" transform="translate(-129.53 14.66)"/><path class="cls-4" d="M343.25,129.26a11.09,11.09,0,1,1-18.1-12.82l.4-.53" transform="translate(-129.53 14.66)"/><path class="cls-3" d="M365.43,441a12.93,12.93,0,0,1,2.5-18.11h0A12.93,12.93,0,0,1,386,425.42l0,0h0" transform="translate(-129.53 14.66)"/><path class="cls-4" d="M368,462.41a12.93,12.93,0,0,1,2.45-18.12h0a12.93,12.93,0,0,1,18.11,2.55h0" transform="translate(-129.53 14.66)"/><rect class="cls-3" x="95.9" y="20.92" width="10.88" height="10.88"/><rect class="cls-4" x="100.49" y="13.08" width="10.88" height="10.88"/><line class="cls-3" x1="306.93" y1="13.51" x2="292.62" y2="28.76"/><line class="cls-3" x1="307.4" y1="28.29" x2="292.15" y2="13.98"/><circle class="cls-3" cx="502.34" cy="182.97" r="6.26" transform="translate(-149.81 310.31) rotate(-32.18)"/><path class="cls-3" d="M261.23,111.74c0,5.69-10.1,4.71-10.1,12" transform="translate(-129.53 14.66)"/><path class="cls-3" d="M261.23,87.79c0,5.69-10.1,4.71-10.1,12" transform="translate(-129.53 14.66)"/><path class="cls-3" d="M261.23,111.74c0-5.69-10.1-4.71-10.1-12" transform="translate(-129.53 14.66)"/><path class="cls-3" d="M251.13,75.82" transform="translate(-129.53 14.66)"/><path class="cls-3" d="M261.23,87.79c0-5.69-10.1-4.71-10.1-12" transform="translate(-129.53 14.66)"/><path class="cls-4" d="M272.24,93c0,5.69-10.1,4.71-10.1,12" transform="translate(-129.53 14.66)"/><path class="cls-4" d="M272.24,69c0,5.69-10.1,4.71-10.1,12" transform="translate(-129.53 14.66)"/><path class="cls-4" d="M272.24,93c0-5.69-10.1-4.71-10.1-12" transform="translate(-129.53 14.66)"/><path class="cls-4" d="M262.14,57" transform="translate(-129.53 14.66)"/><path class="cls-4" d="M272.24,69c0-5.69-10.1-4.71-10.1-12" transform="translate(-129.53 14.66)"/><polygon class="cls-3" points="16.49 211.64 2.5 207.9 6.26 221.88 10.02 235.86 20.25 225.62 30.48 215.37 16.49 211.64"/><polygon class="cls-4" points="25.71 195.89 11.72 192.15 15.48 206.13 19.24 220.11 29.47 209.87 39.7 199.63 25.71 195.89"/><line class="cls-3" x1="87.01" y1="405.38" x2="87.01" y2="369.52"/><polygon class="cls-3" points="232.59 20.94 218.07 17.06 221.97 31.56 225.87 46.08 236.49 35.44 247.11 24.82 232.59 20.94"/><polygon class="cls-4" points="242.16 4.59 227.64 0.71 231.54 15.22 235.44 29.73 246.06 19.1 256.68 8.47 242.16 4.59"/><line class="cls-3" x1="265.82" y1="165.72" x2="246.82" y2="146.72"/><line class="cls-4" x1="275.83" y1="148.63" x2="256.83" y2="129.62"/><path class="cls-3" d="M178.43,109.19a6,6,0,1,1,0-11.93" transform="translate(-129.53 14.66)"/><path class="cls-4" d="M183.43,100.59a6,6,0,1,1,0-11.93" transform="translate(-129.53 14.66)"/><circle class="cls-3" cx="249.54" cy="463.75" r="6.27" transform="matrix(0.85, -0.53, 0.53, 0.85, -337.09, 216.89)"/><circle class="cls-3" cx="388.92" cy="516.31" r="6.27" transform="translate(-343.8 298.58) rotate(-31.94)"/><circle class="cls-3" cx="213.87" cy="166.13" r="6.27" transform="translate(-185.04 152.96) rotate(-31.94)"/><line class="cls-3" x1="180.48" y1="621.38" x2="166.17" y2="636.63"/><line class="cls-3" x1="180.95" y1="636.16" x2="165.7" y2="621.85"/><line class="cls-3" x1="167.93" y1="28.51" x2="153.62" y2="43.76"/><line class="cls-3" x1="168.4" y1="43.29" x2="153.15" y2="28.98"/><polygon class="cls-3" points="358.96 466.21 346.66 462.92 349.96 475.22 353.27 487.51 362.26 478.5 371.26 469.5 358.96 466.21"/><polygon class="cls-4" points="367.07 452.36 354.77 449.07 358.07 461.37 361.38 473.66 370.37 464.66 379.37 455.65 367.07 452.36"/><polygon class="cls-3" points="189.34 481.69 184.03 472.52 178.75 481.69 173.46 490.87 184.05 490.86 194.64 490.85 189.34 481.69"/><polygon class="cls-4" points="196.08 470.17 190.78 461 185.49 470.17 180.2 479.35 190.79 479.34 201.38 479.34 196.08 470.17"/><path class="cls-3" d="M247.09,564.47c0,5.14-9.12,4.26-9.12,10.82" transform="translate(-129.53 14.66)"/><path class="cls-3" d="M247.09,542.79c0,5.14-9.12,4.26-9.12,10.82" transform="translate(-129.53 14.66)"/><path class="cls-3" d="M247.09,564.47c0-5.14-9.12-4.26-9.12-10.82" transform="translate(-129.53 14.66)"/><path class="cls-3" d="M238,532" transform="translate(-129.53 14.66)"/><path class="cls-3" d="M247.09,542.79c0-5.14-9.12-4.26-9.12-10.82" transform="translate(-129.53 14.66)"/><path class="cls-4" d="M257,547.47c0,5.14-9.12,4.26-9.12,10.82" transform="translate(-129.53 14.66)"/><path class="cls-4" d="M257,525.81c0,5.14-9.12,4.26-9.12,10.82" transform="translate(-129.53 14.66)"/><path class="cls-4" d="M257,547.47c0-5.14-9.12-4.26-9.12-10.82" transform="translate(-129.53 14.66)"/><path class="cls-4" d="M247.92,515" transform="translate(-129.53 14.66)"/><path class="cls-4" d="M257,525.81c0-5.14-9.12-4.26-9.12-10.82" transform="translate(-129.53 14.66)"/></g></svg>