<svg id="Слой_1" data-name="Слой 1" xmlns="http://www.w3.org/2000/svg" viewBox="0 0 1129.29 906.96"><defs><style>.cls-1,.cls-4{opacity:0.7;}.cls-2,.cls-3,.cls-4{fill:none;stroke:#fff;}.cls-2,.cls-4{stroke-linecap:round;stroke-linejoin:round;stroke-width:5px;}.cls-3{stroke-miterlimit:10;}.cls-4{isolation:isolate;}</style></defs><title>bg-aboutwinner</title><g class="cls-1"><polygon class="cls-2" points="578.5 413.15 582.38 398.63 567.87 402.53 553.36 406.43 563.99 417.05 574.62 427.67 578.5 413.15"/><polygon class="cls-3" points="594.84 422.72 598.72 408.2 584.21 412.1 569.7 416 580.33 426.62 590.96 437.24 594.84 422.72"/></g><g class="cls-1"><path class="cls-2" d="M433,322.26c-5.69,0-4.71-10.1-12-10.1" transform="translate(1.03 0)"/><path class="cls-2" d="M456.95,322.26c-5.69,0-4.71-10.1-12-10.1" transform="translate(1.03 0)"/><path class="cls-2" d="M433,322.26c5.69,0,4.71-10.1,12-10.1" transform="translate(1.03 0)"/><path class="cls-2" d="M468.92,312.16" transform="translate(1.03 0)"/><path class="cls-2" d="M456.95,322.26c5.69,0,4.71-10.1,12-10.1" transform="translate(1.03 0)"/><path class="cls-3" d="M451.79,333.27c-5.69,0-4.71-10.1-12-10.1" transform="translate(1.03 0)"/><path class="cls-3" d="M475.72,333.27c-5.69,0-4.71-10.1-12-10.1" transform="translate(1.03 0)"/><path class="cls-3" d="M451.79,333.27c5.69,0,4.71-10.1,12-10.1" transform="translate(1.03 0)"/><path class="cls-3" d="M487.72,323.17" transform="translate(1.03 0)"/><path class="cls-3" d="M475.72,333.27c5.69,0,4.71-10.1,12-10.1" transform="translate(1.03 0)"/></g><g class="cls-1"><line class="cls-2" x1="421.93" y1="579.49" x2="406.67" y2="565.18"/><line class="cls-2" x1="407.15" y1="579.96" x2="421.45" y2="564.71"/></g><g class="cls-1"><line class="cls-2" x1="755.93" y1="209.49" x2="740.67" y2="195.18"/><line class="cls-2" x1="741.15" y1="209.96" x2="755.45" y2="194.71"/></g><g class="cls-1"><line class="cls-2" x1="552.71" y1="302.38" x2="571.72" y2="283.38"/><line class="cls-3" x1="569.81" y1="312.39" x2="588.81" y2="293.39"/></g><circle class="cls-4" cx="379.15" cy="166.68" r="6.27" transform="translate(-29.74 225.85) rotate(-31.94)"/><circle class="cls-4" cx="600.84" cy="213.43" r="6.27" transform="translate(-20.9 350.23) rotate(-31.94)"/><g class="cls-1"><polygon class="cls-2" points="388.9 716.93 398.39 711.44 388.9 705.98 379.41 700.5 379.41 711.46 379.42 722.41 388.9 716.93"/><polygon class="cls-3" points="400.82 723.91 410.31 718.42 400.82 712.95 391.32 707.48 391.33 718.43 391.34 729.39 400.82 723.91"/></g><g class="cls-1"><rect class="cls-2" x="495.89" y="446.92" width="12.7" height="10.93"/><rect class="cls-3" x="505.04" y="451.53" width="12.7" height="10.93"/></g><g class="cls-1"><rect class="cls-2" x="453.89" y="733.92" width="12.7" height="10.93"/><rect class="cls-3" x="463.04" y="738.53" width="12.7" height="10.93"/></g><g class="cls-1"><polygon class="cls-2" points="578.5 413.15 582.38 398.63 567.87 402.53 553.36 406.43 563.99 417.05 574.62 427.67 578.5 413.15"/><polygon class="cls-3" points="594.84 422.72 598.72 408.2 584.21 412.1 569.7 416 580.33 426.62 590.96 437.24 594.84 422.72"/></g><g class="cls-1"><path class="cls-2" d="M433,322.26c-5.69,0-4.71-10.1-12-10.1" transform="translate(1.03 0)"/><path class="cls-2" d="M456.95,322.26c-5.69,0-4.71-10.1-12-10.1" transform="translate(1.03 0)"/><path class="cls-2" d="M433,322.26c5.69,0,4.71-10.1,12-10.1" transform="translate(1.03 0)"/><path class="cls-2" d="M468.92,312.16" transform="translate(1.03 0)"/><path class="cls-2" d="M456.95,322.26c5.69,0,4.71-10.1,12-10.1" transform="translate(1.03 0)"/><path class="cls-3" d="M451.79,333.27c-5.69,0-4.71-10.1-12-10.1" transform="translate(1.03 0)"/><path class="cls-3" d="M475.72,333.27c-5.69,0-4.71-10.1-12-10.1" transform="translate(1.03 0)"/><path class="cls-3" d="M451.79,333.27c5.69,0,4.71-10.1,12-10.1" transform="translate(1.03 0)"/><path class="cls-3" d="M487.72,323.17" transform="translate(1.03 0)"/><path class="cls-3" d="M475.72,333.27c5.69,0,4.71-10.1,12-10.1" transform="translate(1.03 0)"/></g><g class="cls-1"><line class="cls-2" x1="421.93" y1="579.49" x2="406.67" y2="565.18"/><line class="cls-2" x1="407.15" y1="579.96" x2="421.45" y2="564.71"/></g><g class="cls-1"><line class="cls-2" x1="755.93" y1="209.49" x2="740.67" y2="195.18"/><line class="cls-2" x1="741.15" y1="209.96" x2="755.45" y2="194.71"/></g><g class="cls-1"><line class="cls-2" x1="552.71" y1="302.38" x2="571.72" y2="283.38"/><line class="cls-3" x1="569.81" y1="312.39" x2="588.81" y2="293.39"/></g><circle class="cls-4" cx="379.15" cy="166.68" r="6.27" transform="translate(-29.74 225.85) rotate(-31.94)"/><circle class="cls-4" cx="600.84" cy="213.43" r="6.27" transform="translate(-20.9 350.23) rotate(-31.94)"/><g class="cls-1"><polygon class="cls-2" points="388.9 716.93 398.39 711.44 388.9 705.98 379.41 700.5 379.41 711.46 379.42 722.41 388.9 716.93"/><polygon class="cls-3" points="400.82 723.91 410.31 718.42 400.82 712.95 391.32 707.48 391.33 718.43 391.34 729.39 400.82 723.91"/></g><g class="cls-1"><rect class="cls-2" x="495.89" y="446.92" width="12.7" height="10.93"/><rect class="cls-3" x="505.04" y="451.53" width="12.7" height="10.93"/></g><g class="cls-1"><rect class="cls-2" x="453.89" y="733.92" width="12.7" height="10.93"/><rect class="cls-3" x="463.04" y="738.53" width="12.7" height="10.93"/></g><g class="cls-1"><path class="cls-2" d="M982,246.26c-5.69,0-4.71-10.1-12-10.1" transform="translate(1.03 0)"/><path class="cls-2" d="M1005.95,246.26c-5.69,0-4.71-10.1-12-10.1" transform="translate(1.03 0)"/><path class="cls-2" d="M982,246.26c5.69,0,4.71-10.1,12-10.1" transform="translate(1.03 0)"/><path class="cls-2" d="M1017.92,236.16" transform="translate(1.03 0)"/><path class="cls-2" d="M1005.95,246.26c5.69,0,4.71-10.1,12-10.1" transform="translate(1.03 0)"/><path class="cls-3" d="M1000.79,257.27c-5.69,0-4.71-10.1-12-10.1" transform="translate(1.03 0)"/><path class="cls-3" d="M1024.72,257.27c-5.69,0-4.71-10.1-12-10.1" transform="translate(1.03 0)"/><path class="cls-3" d="M1000.79,257.27c5.69,0,4.71-10.1,12-10.1" transform="translate(1.03 0)"/><path class="cls-3" d="M1036.72,247.17" transform="translate(1.03 0)"/><path class="cls-3" d="M1024.72,257.27c5.69,0,4.71-10.1,12-10.1" transform="translate(1.03 0)"/></g><g class="cls-1"><polygon class="cls-2" points="208.5 438.15 212.38 423.63 197.87 427.53 183.36 431.43 193.99 442.05 204.62 452.67 208.5 438.15"/><polygon class="cls-3" points="224.84 447.72 228.72 433.2 214.21 437.1 199.7 441 210.33 451.62 220.96 462.24 224.84 447.72"/></g><g class="cls-1"><line class="cls-2" x1="1019.71" y1="756.38" x2="1038.72" y2="737.38"/><line class="cls-3" x1="1036.81" y1="766.39" x2="1055.81" y2="747.39"/></g><g class="cls-1"><path class="cls-2" d="M63,347.26c-5.69,0-4.71-10.1-12-10.1" transform="translate(1.03 0)"/><path class="cls-2" d="M86.95,347.26c-5.69,0-4.71-10.1-12-10.1" transform="translate(1.03 0)"/><path class="cls-2" d="M63,347.26c5.69,0,4.71-10.1,12-10.1" transform="translate(1.03 0)"/><path class="cls-2" d="M98.92,337.16" transform="translate(1.03 0)"/><path class="cls-2" d="M86.95,347.26c5.69,0,4.71-10.1,12-10.1" transform="translate(1.03 0)"/><path class="cls-3" d="M81.79,358.27c-5.69,0-4.71-10.1-12-10.1" transform="translate(1.03 0)"/><path class="cls-3" d="M105.72,358.27c-5.69,0-4.71-10.1-12-10.1" transform="translate(1.03 0)"/><path class="cls-3" d="M81.79,358.27c5.69,0,4.71-10.1,12-10.1" transform="translate(1.03 0)"/><path class="cls-3" d="M117.72,348.17" transform="translate(1.03 0)"/><path class="cls-3" d="M105.72,358.27c5.69,0,4.71-10.1,12-10.1" transform="translate(1.03 0)"/></g><g class="cls-1"><path class="cls-2" d="M670,870.26c-5.69,0-4.71-10.1-12-10.1" transform="translate(1.03 0)"/><path class="cls-2" d="M694,870.26c-5.69,0-4.71-10.1-12-10.1" transform="translate(1.03 0)"/><path class="cls-2" d="M670,870.26c5.69,0,4.71-10.1,12-10.1" transform="translate(1.03 0)"/><path class="cls-2" d="M705.92,860.16" transform="translate(1.03 0)"/><path class="cls-2" d="M694,870.26c5.69,0,4.71-10.1,12-10.1" transform="translate(1.03 0)"/><path class="cls-3" d="M688.79,881.27c-5.69,0-4.71-10.1-12-10.1" transform="translate(1.03 0)"/><path class="cls-3" d="M712.72,881.27c-5.69,0-4.71-10.1-12-10.1" transform="translate(1.03 0)"/><path class="cls-3" d="M688.79,881.27c5.69,0,4.71-10.1,12-10.1" transform="translate(1.03 0)"/><path class="cls-3" d="M724.72,871.17" transform="translate(1.03 0)"/><path class="cls-3" d="M712.72,881.27c5.69,0,4.71-10.1,12-10.1" transform="translate(1.03 0)"/></g><g class="cls-1"><polygon class="cls-2" points="853.5 242.15 857.38 227.63 842.87 231.53 828.36 235.43 838.99 246.05 849.62 256.67 853.5 242.15"/><polygon class="cls-3" points="869.84 251.72 873.72 237.2 859.21 241.1 844.7 245 855.33 255.62 865.96 266.24 869.84 251.72"/></g><g class="cls-1"><polygon class="cls-2" points="177.5 105.15 181.38 90.63 166.87 94.53 152.36 98.43 162.99 109.05 173.62 119.67 177.5 105.15"/><polygon class="cls-3" points="193.84 114.72 197.72 100.2 183.21 104.1 168.7 108 179.33 118.62 189.96 129.24 193.84 114.72"/></g><g class="cls-1"><line class="cls-2" x1="51.93" y1="604.49" x2="36.67" y2="590.18"/><line class="cls-2" x1="37.15" y1="604.96" x2="51.45" y2="589.71"/></g><g class="cls-1"><line class="cls-2" x1="365.93" y1="814.49" x2="350.67" y2="800.18"/><line class="cls-2" x1="351.15" y1="814.96" x2="365.45" y2="799.71"/></g><g class="cls-1"><line class="cls-2" x1="1044.93" y1="451.49" x2="1029.67" y2="437.18"/><line class="cls-2" x1="1030.15" y1="451.96" x2="1044.45" y2="436.71"/></g><g class="cls-1"><line class="cls-2" x1="940.93" y1="112.49" x2="925.67" y2="98.18"/><line class="cls-2" x1="926.15" y1="112.96" x2="940.45" y2="97.71"/></g><g class="cls-1"><line class="cls-2" x1="385.93" y1="234.49" x2="370.67" y2="220.18"/><line class="cls-2" x1="371.15" y1="234.96" x2="385.45" y2="219.71"/></g><g class="cls-1"><line class="cls-2" x1="919.71" y1="421.38" x2="938.72" y2="402.38"/><line class="cls-3" x1="936.81" y1="431.39" x2="955.81" y2="412.39"/></g><g class="cls-1"><line class="cls-2" x1="182.71" y1="327.38" x2="201.72" y2="308.38"/><line class="cls-3" x1="199.81" y1="337.39" x2="218.81" y2="318.39"/></g><circle class="cls-4" cx="143.49" cy="862.6" r="6.27" transform="translate(-433.64 206.56) rotate(-31.94)"/><circle class="cls-4" cx="1104.76" cy="563" r="6.27" transform="translate(-129.55 669.79) rotate(-31.94)"/><circle class="cls-4" cx="7.74" cy="190.81" r="6.27" transform="translate(-98.75 33) rotate(-31.94)"/><circle class="cls-4" cx="531.17" cy="760.23" r="6.27" transform="translate(-320.77 396.18) rotate(-31.94)"/><circle class="cls-4" cx="229.42" cy="237.55" r="6.27" transform="translate(-89.91 157.36) rotate(-31.94)"/><circle class="cls-4" cx="870.77" cy="325.36" r="6.26" transform="translate(-38.48 513.74) rotate(-32.18)"/><circle class="cls-4" cx="1025.73" cy="850.84" r="6.27" transform="translate(-293.81 671.57) rotate(-31.94)"/><circle class="cls-4" cx="1119.49" cy="304.1" r="6.27" transform="translate(9.67 638.38) rotate(-31.94)"/><circle class="cls-4" cx="405.57" cy="42.3" r="6.27" transform="translate(40.07 221) rotate(-31.94)"/><g class="cls-1"><polygon class="cls-2" points="846.9 404.93 856.39 399.44 846.9 393.98 837.41 388.5 837.41 399.46 837.42 410.41 846.9 404.93"/><polygon class="cls-3" points="858.82 411.91 868.31 406.42 858.82 400.95 849.32 395.48 849.33 406.43 849.34 417.39 858.82 411.91"/></g><g class="cls-1"><polygon class="cls-2" points="18.9 741.93 28.39 736.44 18.9 730.98 9.41 725.5 9.41 736.46 9.42 747.41 18.9 741.93"/><polygon class="cls-3" points="30.82 748.91 40.31 743.42 30.82 737.95 21.32 732.48 21.33 743.43 21.34 754.39 30.82 748.91"/></g><g class="cls-1"><polygon class="cls-2" points="688.9 707.93 698.39 702.44 688.9 696.98 679.41 691.5 679.41 702.46 679.42 713.41 688.9 707.93"/><polygon class="cls-3" points="700.82 714.91 710.31 709.42 700.82 703.95 691.32 698.48 691.33 709.43 691.34 720.39 700.82 714.91"/></g><g class="cls-1"><rect class="cls-2" x="125.89" y="471.92" width="12.7" height="10.93"/><rect class="cls-3" x="135.04" y="476.53" width="12.7" height="10.93"/></g><g class="cls-1"><rect class="cls-2" x="978.89" y="620.92" width="12.7" height="10.93"/><rect class="cls-3" x="988.04" y="625.53" width="12.7" height="10.93"/></g><g class="cls-1"><rect class="cls-2" x="83.89" y="758.92" width="12.7" height="10.93"/><rect class="cls-3" x="93.04" y="763.53" width="12.7" height="10.93"/></g><g class="cls-1"><rect class="cls-2" x="481.89" y="890.92" width="12.7" height="10.93"/><rect class="cls-3" x="491.04" y="895.53" width="12.7" height="10.93"/></g><g class="cls-1"><circle class="cls-2" cx="441" cy="700.16" r="9.61" transform="translate(-262.41 1134.3) rotate(-89.44)"/><circle class="cls-3" cx="432.8" cy="713.86" r="9.61" transform="translate(-284.23 1139.67) rotate(-89.44)"/></g><g class="cls-1"><circle class="cls-2" cx="844.03" cy="12.11" r="9.61" transform="matrix(0.01, -1, 1, 0.01, 824.71, 855.98)"/><circle class="cls-3" cx="835.83" cy="25.81" r="9.61" transform="matrix(0.01, -1, 1, 0.01, 802.88, 861.35)"/></g></svg>