<svg id="Слой_1" data-name="Слой 1" xmlns="http://www.w3.org/2000/svg" viewBox="0 0 1074.26 553.95"><defs><style>.cls-1,.cls-3,.cls-4{fill:none;stroke:#fff;}.cls-1,.cls-3{stroke-linecap:round;stroke-linejoin:round;stroke-width:5px;}.cls-1,.cls-2{opacity:0.27;}.cls-1{isolation:isolate;}.cls-4{stroke-miterlimit:10;}</style></defs><title>bg-aboutloser</title><circle class="cls-1" cx="353.02" cy="8.8" r="6.27" transform="translate(48.79 188.07) rotate(-31.94)"/><circle class="cls-1" cx="353.02" cy="8.8" r="6.27" transform="translate(48.79 188.07) rotate(-31.94)"/><circle class="cls-1" cx="792.73" cy="283.75" r="6.27" transform="translate(-27.62 473.35) rotate(-32.71)"/><circle class="cls-1" cx="333.74" cy="287.75" r="6.27" transform="translate(-102.57 225.95) rotate(-32.71)"/><g class="cls-2"><line class="cls-3" x1="275.42" y1="440.96" x2="289.59" y2="425.58"/><line class="cls-3" x1="274.81" y1="426.18" x2="290.19" y2="440.35"/></g><g class="cls-2"><line class="cls-3" x1="316" y1="420.66" x2="316.25" y2="448.09"/><line class="cls-4" x1="305.94" y1="438.21" x2="306.19" y2="465.64"/></g><g class="cls-2"><polygon class="cls-3" points="261.36 537.39 265.41 544.24 269.32 537.31 273.24 530.37 265.28 530.45 257.31 530.53 261.36 537.39"/><polygon class="cls-4" points="256.37 546.1 260.42 552.95 264.33 546.02 268.25 539.08 260.29 539.16 252.32 539.24 256.37 546.1"/></g><g class="cls-2"><polygon class="cls-3" points="807.36 322.39 811.41 329.24 815.32 322.31 819.24 315.37 811.28 315.45 803.31 315.53 807.36 322.39"/><polygon class="cls-4" points="802.37 331.09 806.42 337.95 810.33 331.02 814.25 324.08 806.28 324.16 798.32 324.24 802.37 331.09"/></g><g class="cls-2"><rect class="cls-3" x="291.48" y="97.23" width="10.96" height="10.96" transform="translate(-0.94 2.72) rotate(-0.53)"/><rect class="cls-4" x="286.92" y="105.17" width="10.96" height="10.96" transform="translate(-1.01 2.68) rotate(-0.53)"/></g><g class="cls-2"><line class="cls-3" x1="258.42" y1="326.96" x2="272.59" y2="311.58"/><line class="cls-3" x1="257.81" y1="312.18" x2="273.19" y2="326.35"/></g><g class="cls-2"><path class="cls-3" d="M923.21,326.29a11.1,11.1,0,1,1,13.36-17.74" transform="translate(0 -0.03)"/><path class="cls-4" d="M930.33,343.37a11.09,11.09,0,1,1,12.82-18.1l.53.4" transform="translate(0 -0.03)"/><path class="cls-3" d="M183.45,349a12.93,12.93,0,0,1,18.11,2.5h0A12.93,12.93,0,0,1,199,369.65h0" transform="translate(0 -0.03)"/><path class="cls-4" d="M162.06,351.55A12.93,12.93,0,0,1,180.18,354h0a12.93,12.93,0,0,1-2.55,18.11h0" transform="translate(0 -0.03)"/><rect class="cls-3" x="1042.46" y="225.52" width="10.88" height="10.88"/><rect class="cls-4" x="1050.3" y="230.11" width="10.88" height="10.88"/><line class="cls-3" x1="1060.75" y1="436.55" x2="1045.5" y2="422.24"/><line class="cls-3" x1="1045.97" y1="437.02" x2="1060.28" y2="421.77"/><circle class="cls-3" cx="876.62" cy="502.46" r="6.26" transform="translate(-132.93 544.03) rotate(-32.18)"/><path class="cls-3" d="M947.85,261.35c-5.69,0-4.71-10.1-12-10.1" transform="translate(0 -0.03)"/><path class="cls-3" d="M971.8,261.35c-5.69,0-4.71-10.1-12-10.1" transform="translate(0 -0.03)"/><path class="cls-3" d="M947.85,261.35c5.69,0,4.71-10.1,12-10.1" transform="translate(0 -0.03)"/><path class="cls-3" d="M983.77,251.25" transform="translate(0 -0.03)"/><path class="cls-3" d="M971.8,261.35c5.69,0,4.71-10.1,12-10.1" transform="translate(0 -0.03)"/><path class="cls-4" d="M966.64,272.36c-5.69,0-4.71-10.1-12-10.1" transform="translate(0 -0.03)"/><path class="cls-4" d="M990.57,272.36c-5.69,0-4.71-10.1-12-10.1" transform="translate(0 -0.03)"/><path class="cls-4" d="M966.64,272.36c5.69,0,4.71-10.1,12-10.1" transform="translate(0 -0.03)"/><path class="cls-4" d="M1002.57,262.26" transform="translate(0 -0.03)"/><path class="cls-4" d="M990.57,272.36c5.69,0,4.71-10.1,12-10.1" transform="translate(0 -0.03)"/><polygon class="cls-3" points="862.62 146.11 866.36 132.12 852.38 135.88 838.4 139.64 848.64 149.87 858.89 160.1 862.62 146.11"/><polygon class="cls-4" points="878.37 155.33 882.11 141.34 868.13 145.1 854.15 148.86 864.39 159.09 874.63 169.32 878.37 155.33"/><line class="cls-3" x1="233.75" y1="200.08" x2="269.61" y2="200.08"/><polygon class="cls-3" points="1053.32 362.21 1057.2 347.69 1042.7 351.59 1028.18 355.49 1038.82 366.11 1049.44 376.73 1053.32 362.21"/><polygon class="cls-4" points="1069.67 371.78 1073.55 357.26 1059.04 361.16 1044.53 365.06 1055.16 375.68 1065.79 386.3 1069.67 371.78"/><line class="cls-3" x1="908.54" y1="395.44" x2="927.54" y2="376.44"/><line class="cls-4" x1="925.63" y1="405.45" x2="944.64" y2="386.45"/><path class="cls-3" d="M950.4,178.55a6,6,0,1,1,11.93,0" transform="translate(0 -0.03)"/><path class="cls-4" d="M959,183.55a6,6,0,1,1,11.93,0" transform="translate(0 -0.03)"/><circle class="cls-3" cx="160.72" cy="233.11" r="6.27" transform="translate(-98.99 120.29) rotate(-31.94)"/><circle class="cls-3" cx="108.15" cy="372.49" r="6.27" transform="translate(-180.68 113.58) rotate(-31.94)"/><circle class="cls-3" cx="893.47" cy="213.99" r="6.27" transform="translate(22.06 505.04) rotate(-31.94)"/><line class="cls-3" x1="17.75" y1="293.55" x2="2.5" y2="279.24"/><line class="cls-3" x1="2.97" y1="294.02" x2="17.28" y2="278.77"/><line class="cls-3" x1="1045.75" y1="297.55" x2="1030.5" y2="283.24"/><line class="cls-3" x1="1030.97" y1="298.02" x2="1045.28" y2="282.77"/><polygon class="cls-3" points="172.92 472.03 176.21 459.73 163.91 463.03 151.62 466.34 160.63 475.33 169.63 484.33 172.92 472.03"/><polygon class="cls-4" points="186.77 480.14 190.06 467.84 177.76 471.14 165.47 474.45 174.47 483.44 183.48 492.44 186.77 480.14"/><polygon class="cls-3" points="157.44 302.41 166.61 297.1 157.44 291.82 148.26 286.53 148.27 297.12 148.28 307.71 157.44 302.41"/><polygon class="cls-4" points="168.96 309.15 178.13 303.85 168.96 298.56 159.78 293.27 159.79 303.86 159.79 314.45 168.96 309.15"/><path class="cls-3" d="M60,230.66c-5.14,0-4.26-9.12-10.82-9.12" transform="translate(0 -0.03)"/><path class="cls-3" d="M81.68,230.66c-5.14,0-4.26-9.12-10.82-9.12" transform="translate(0 -0.03)"/><path class="cls-3" d="M60,230.66c5.14,0,4.26-9.12,10.82-9.12" transform="translate(0 -0.03)"/><path class="cls-3" d="M92.5,221.55" transform="translate(0 -0.03)"/><path class="cls-3" d="M81.68,230.66c5.14,0,4.26-9.12,10.82-9.12" transform="translate(0 -0.03)"/><path class="cls-4" d="M77,240.61c-5.14,0-4.26-9.12-10.82-9.12" transform="translate(0 -0.03)"/><path class="cls-4" d="M98.66,240.61c-5.14,0-4.26-9.12-10.82-9.12" transform="translate(0 -0.03)"/><path class="cls-4" d="M77,240.61c5.14,0,4.26-9.12,10.82-9.12" transform="translate(0 -0.03)"/><path class="cls-4" d="M109.48,231.49" transform="translate(0 -0.03)"/><path class="cls-4" d="M98.66,240.61c5.14,0,4.26-9.12,10.82-9.12" transform="translate(0 -0.03)"/></g></svg>