<svg id="Слой_1" data-name="Слой 1" xmlns="http://www.w3.org/2000/svg" viewBox="0 0 725.75 724.92"><defs><style>.cls-1,.cls-4{opacity:0.7;}.cls-2,.cls-3,.cls-4{fill:none;stroke:#fff;}.cls-2,.cls-4{stroke-linecap:round;stroke-linejoin:round;stroke-width:5px;}.cls-3{stroke-miterlimit:10;}.cls-4{isolation:isolate;}</style></defs><title>bg-aboutwinner480</title><g class="cls-1"><polygon class="cls-2" points="578.5 231.11 582.38 216.59 567.87 220.49 553.36 224.39 563.99 235.01 574.62 245.63 578.5 231.11"/><polygon class="cls-3" points="594.84 240.68 598.72 226.16 584.21 230.06 569.7 233.96 580.33 244.58 590.96 255.2 594.84 240.68"/></g><g class="cls-1"><path class="cls-2" d="M433,322.26c-5.69,0-4.71-10.1-12-10.1" transform="translate(1.03 -182.04)"/><path class="cls-2" d="M456.95,322.26c-5.69,0-4.71-10.1-12-10.1" transform="translate(1.03 -182.04)"/><path class="cls-2" d="M433,322.26c5.69,0,4.71-10.1,12-10.1" transform="translate(1.03 -182.04)"/><path class="cls-2" d="M468.92,312.16" transform="translate(1.03 -182.04)"/><path class="cls-2" d="M456.95,322.26c5.69,0,4.71-10.1,12-10.1" transform="translate(1.03 -182.04)"/><path class="cls-3" d="M451.79,333.27c-5.69,0-4.71-10.1-12-10.1" transform="translate(1.03 -182.04)"/><path class="cls-3" d="M475.72,333.27c-5.69,0-4.71-10.1-12-10.1" transform="translate(1.03 -182.04)"/><path class="cls-3" d="M451.79,333.27c5.69,0,4.71-10.1,12-10.1" transform="translate(1.03 -182.04)"/><path class="cls-3" d="M487.72,323.17" transform="translate(1.03 -182.04)"/><path class="cls-3" d="M475.72,333.27c5.69,0,4.71-10.1,12-10.1" transform="translate(1.03 -182.04)"/></g><g class="cls-1"><line class="cls-2" x1="421.93" y1="397.45" x2="406.67" y2="383.14"/><line class="cls-2" x1="407.15" y1="397.92" x2="421.45" y2="382.67"/></g><g class="cls-1"><line class="cls-2" x1="552.71" y1="120.34" x2="571.72" y2="101.34"/><line class="cls-3" x1="569.81" y1="130.35" x2="588.81" y2="111.35"/></g><circle class="cls-4" cx="600.84" cy="213.43" r="6.27" transform="translate(-20.9 168.19) rotate(-31.94)"/><g class="cls-1"><polygon class="cls-2" points="388.9 534.89 398.39 529.4 388.9 523.94 379.41 518.46 379.41 529.42 379.42 540.37 388.9 534.89"/><polygon class="cls-3" points="400.82 541.87 410.31 536.38 400.82 530.91 391.32 525.44 391.33 536.39 391.34 547.35 400.82 541.87"/></g><g class="cls-1"><rect class="cls-2" x="495.89" y="264.88" width="12.7" height="10.93"/><rect class="cls-3" x="505.04" y="269.49" width="12.7" height="10.93"/></g><g class="cls-1"><rect class="cls-2" x="453.89" y="551.88" width="12.7" height="10.93"/><rect class="cls-3" x="463.04" y="556.49" width="12.7" height="10.93"/></g><g class="cls-1"><polygon class="cls-2" points="578.5 231.11 582.38 216.59 567.87 220.49 553.36 224.39 563.99 235.01 574.62 245.63 578.5 231.11"/><polygon class="cls-3" points="594.84 240.68 598.72 226.16 584.21 230.06 569.7 233.96 580.33 244.58 590.96 255.2 594.84 240.68"/></g><g class="cls-1"><path class="cls-2" d="M433,322.26c-5.69,0-4.71-10.1-12-10.1" transform="translate(1.03 -182.04)"/><path class="cls-2" d="M456.95,322.26c-5.69,0-4.71-10.1-12-10.1" transform="translate(1.03 -182.04)"/><path class="cls-2" d="M433,322.26c5.69,0,4.71-10.1,12-10.1" transform="translate(1.03 -182.04)"/><path class="cls-2" d="M468.92,312.16" transform="translate(1.03 -182.04)"/><path class="cls-2" d="M456.95,322.26c5.69,0,4.71-10.1,12-10.1" transform="translate(1.03 -182.04)"/><path class="cls-3" d="M451.79,333.27c-5.69,0-4.71-10.1-12-10.1" transform="translate(1.03 -182.04)"/><path class="cls-3" d="M475.72,333.27c-5.69,0-4.71-10.1-12-10.1" transform="translate(1.03 -182.04)"/><path class="cls-3" d="M451.79,333.27c5.69,0,4.71-10.1,12-10.1" transform="translate(1.03 -182.04)"/><path class="cls-3" d="M487.72,323.17" transform="translate(1.03 -182.04)"/><path class="cls-3" d="M475.72,333.27c5.69,0,4.71-10.1,12-10.1" transform="translate(1.03 -182.04)"/></g><g class="cls-1"><line class="cls-2" x1="421.93" y1="397.45" x2="406.67" y2="383.14"/><line class="cls-2" x1="407.15" y1="397.92" x2="421.45" y2="382.67"/></g><g class="cls-1"><line class="cls-2" x1="552.71" y1="120.34" x2="571.72" y2="101.34"/><line class="cls-3" x1="569.81" y1="130.35" x2="588.81" y2="111.35"/></g><circle class="cls-4" cx="600.84" cy="213.43" r="6.27" transform="translate(-20.9 168.19) rotate(-31.94)"/><g class="cls-1"><polygon class="cls-2" points="388.9 534.89 398.39 529.4 388.9 523.94 379.41 518.46 379.41 529.42 379.42 540.37 388.9 534.89"/><polygon class="cls-3" points="400.82 541.87 410.31 536.38 400.82 530.91 391.32 525.44 391.33 536.39 391.34 547.35 400.82 541.87"/></g><g class="cls-1"><rect class="cls-2" x="495.89" y="264.88" width="12.7" height="10.93"/><rect class="cls-3" x="505.04" y="269.49" width="12.7" height="10.93"/></g><g class="cls-1"><rect class="cls-2" x="453.89" y="551.88" width="12.7" height="10.93"/><rect class="cls-3" x="463.04" y="556.49" width="12.7" height="10.93"/></g><g class="cls-1"><polygon class="cls-2" points="208.5 256.11 212.38 241.59 197.87 245.49 183.36 249.39 193.99 260.01 204.62 270.63 208.5 256.11"/><polygon class="cls-3" points="224.84 265.68 228.72 251.16 214.21 255.06 199.7 258.96 210.33 269.58 220.96 280.2 224.84 265.68"/></g><g class="cls-1"><path class="cls-2" d="M63,347.26c-5.69,0-4.71-10.1-12-10.1" transform="translate(1.03 -182.04)"/><path class="cls-2" d="M86.95,347.26c-5.69,0-4.71-10.1-12-10.1" transform="translate(1.03 -182.04)"/><path class="cls-2" d="M63,347.26c5.69,0,4.71-10.1,12-10.1" transform="translate(1.03 -182.04)"/><path class="cls-2" d="M98.92,337.16" transform="translate(1.03 -182.04)"/><path class="cls-2" d="M86.95,347.26c5.69,0,4.71-10.1,12-10.1" transform="translate(1.03 -182.04)"/><path class="cls-3" d="M81.79,358.27c-5.69,0-4.71-10.1-12-10.1" transform="translate(1.03 -182.04)"/><path class="cls-3" d="M105.72,358.27c-5.69,0-4.71-10.1-12-10.1" transform="translate(1.03 -182.04)"/><path class="cls-3" d="M81.79,358.27c5.69,0,4.71-10.1,12-10.1" transform="translate(1.03 -182.04)"/><path class="cls-3" d="M117.72,348.17" transform="translate(1.03 -182.04)"/><path class="cls-3" d="M105.72,358.27c5.69,0,4.71-10.1,12-10.1" transform="translate(1.03 -182.04)"/></g><g class="cls-1"><path class="cls-2" d="M670,870.26c-5.69,0-4.71-10.1-12-10.1" transform="translate(1.03 -182.04)"/><path class="cls-2" d="M694,870.26c-5.69,0-4.71-10.1-12-10.1" transform="translate(1.03 -182.04)"/><path class="cls-2" d="M670,870.26c5.69,0,4.71-10.1,12-10.1" transform="translate(1.03 -182.04)"/><path class="cls-2" d="M705.92,860.16" transform="translate(1.03 -182.04)"/><path class="cls-2" d="M694,870.26c5.69,0,4.71-10.1,12-10.1" transform="translate(1.03 -182.04)"/><path class="cls-3" d="M688.79,881.27c-5.69,0-4.71-10.1-12-10.1" transform="translate(1.03 -182.04)"/><path class="cls-3" d="M712.72,881.27c-5.69,0-4.71-10.1-12-10.1" transform="translate(1.03 -182.04)"/><path class="cls-3" d="M688.79,881.27c5.69,0,4.71-10.1,12-10.1" transform="translate(1.03 -182.04)"/><path class="cls-3" d="M724.72,871.17" transform="translate(1.03 -182.04)"/><path class="cls-3" d="M712.72,881.27c5.69,0,4.71-10.1,12-10.1" transform="translate(1.03 -182.04)"/></g><g class="cls-1"><line class="cls-2" x1="51.93" y1="422.45" x2="36.67" y2="408.14"/><line class="cls-2" x1="37.15" y1="422.92" x2="51.45" y2="407.67"/></g><g class="cls-1"><line class="cls-2" x1="365.93" y1="632.45" x2="350.67" y2="618.14"/><line class="cls-2" x1="351.15" y1="632.92" x2="365.45" y2="617.67"/></g><g class="cls-1"><line class="cls-2" x1="385.93" y1="52.45" x2="370.67" y2="38.14"/><line class="cls-2" x1="371.15" y1="52.92" x2="385.45" y2="37.67"/></g><g class="cls-1"><line class="cls-2" x1="182.71" y1="145.34" x2="201.72" y2="126.34"/><line class="cls-3" x1="199.81" y1="155.35" x2="218.81" y2="136.35"/></g><circle class="cls-4" cx="143.49" cy="862.6" r="6.27" transform="translate(-433.64 24.51) rotate(-31.94)"/><circle class="cls-4" cx="7.74" cy="190.81" r="6.27" transform="translate(-98.75 -149.05) rotate(-31.94)"/><circle class="cls-4" cx="531.17" cy="760.23" r="6.27" transform="translate(-320.77 214.13) rotate(-31.94)"/><circle class="cls-4" cx="229.42" cy="237.55" r="6.27" transform="translate(-89.91 -24.68) rotate(-31.94)"/><g class="cls-1"><polygon class="cls-2" points="18.9 559.89 28.39 554.4 18.9 548.94 9.41 543.46 9.41 554.42 9.42 565.37 18.9 559.89"/><polygon class="cls-3" points="30.82 566.87 40.31 561.38 30.82 555.91 21.32 550.44 21.33 561.39 21.34 572.35 30.82 566.87"/></g><g class="cls-1"><polygon class="cls-2" points="688.9 525.89 698.39 520.4 688.9 514.94 679.41 509.46 679.41 520.42 679.42 531.37 688.9 525.89"/><polygon class="cls-3" points="700.82 532.87 710.31 527.38 700.82 521.91 691.32 516.44 691.33 527.39 691.34 538.35 700.82 532.87"/></g><g class="cls-1"><rect class="cls-2" x="125.89" y="289.88" width="12.7" height="10.93"/><rect class="cls-3" x="135.04" y="294.49" width="12.7" height="10.93"/></g><g class="cls-1"><rect class="cls-2" x="83.89" y="576.88" width="12.7" height="10.93"/><rect class="cls-3" x="93.04" y="581.49" width="12.7" height="10.93"/></g><g class="cls-1"><rect class="cls-2" x="481.89" y="708.88" width="12.7" height="10.93"/><rect class="cls-3" x="491.04" y="713.49" width="12.7" height="10.93"/></g><g class="cls-1"><circle class="cls-2" cx="441" cy="700.16" r="9.61" transform="translate(-262.41 952.25) rotate(-89.44)"/><circle class="cls-3" cx="432.8" cy="713.86" r="9.61" transform="translate(-284.23 957.62) rotate(-89.44)"/></g></svg>