<svg id="Слой_1" data-name="Слой 1" xmlns="http://www.w3.org/2000/svg" viewBox="0 0 572.31 844.61"><defs><style>.cls-1,.cls-4{opacity:0.27;}.cls-2,.cls-3,.cls-4{fill:none;stroke:#fff;}.cls-2,.cls-4{stroke-linecap:round;stroke-linejoin:round;stroke-width:5px;}.cls-3{stroke-miterlimit:10;}.cls-4{isolation:isolate;}</style></defs><title>bg-header320</title><g class="cls-1"><polygon class="cls-2" points="255.2 392.66 240.68 388.78 244.58 403.28 248.48 417.8 259.1 407.16 269.72 396.54 255.2 392.66"/><polygon class="cls-3" points="264.77 376.31 250.25 372.43 254.15 386.94 258.05 401.45 268.67 390.82 279.29 380.19 264.77 376.31"/></g><g class="cls-1"><path class="cls-2" d="M300.74,402.91c0,5.69-10.1,4.71-10.1,12" transform="translate(-136.43 134.22)"/><path class="cls-2" d="M300.74,379c0,5.69-10.1,4.71-10.1,12" transform="translate(-136.43 134.22)"/><path class="cls-2" d="M300.74,402.91c0-5.69-10.1-4.71-10.1-12" transform="translate(-136.43 134.22)"/><path class="cls-2" d="M290.64,367" transform="translate(-136.43 134.22)"/><path class="cls-2" d="M300.74,379c0-5.69-10.1-4.71-10.1-12" transform="translate(-136.43 134.22)"/><path class="cls-3" d="M311.75,384.12c0,5.69-10.1,4.71-10.1,12" transform="translate(-136.43 134.22)"/><path class="cls-3" d="M311.75,360.19c0,5.69-10.1,4.71-10.1,12" transform="translate(-136.43 134.22)"/><path class="cls-3" d="M311.75,384.12c0-5.69-10.1-4.71-10.1-12" transform="translate(-136.43 134.22)"/><path class="cls-3" d="M301.65,348.19" transform="translate(-136.43 134.22)"/><path class="cls-3" d="M311.75,360.19c0-5.69-10.1-4.71-10.1-12" transform="translate(-136.43 134.22)"/></g><g class="cls-1"><line class="cls-2" x1="421.54" y1="549.23" x2="407.23" y2="564.48"/><line class="cls-2" x1="422.01" y1="564.01" x2="406.76" y2="549.7"/></g><g class="cls-1"><line class="cls-2" x1="51.54" y1="215.23" x2="37.23" y2="230.48"/><line class="cls-2" x1="52.01" y1="230.01" x2="36.76" y2="215.7"/></g><g class="cls-1"><line class="cls-2" x1="144.43" y1="418.44" x2="125.43" y2="399.44"/><line class="cls-3" x1="154.44" y1="401.35" x2="135.44" y2="382.34"/></g><circle class="cls-4" cx="145.2" cy="456.74" r="6.27" transform="matrix(0.85, -0.53, 0.53, 0.85, -356.07, 280.19)"/><circle class="cls-4" cx="191.47" cy="234.19" r="6.28" transform="translate(-231.34 271) rotate(-31.94)"/><g class="cls-1"><polygon class="cls-2" points="558.98 582.25 553.49 572.76 548.02 582.25 542.55 591.75 553.51 591.74 564.46 591.73 558.98 582.25"/><polygon class="cls-3" points="565.96 570.33 560.47 560.85 555 570.34 549.53 579.83 560.49 579.82 571.44 579.82 565.96 570.33"/></g><g class="cls-1"><rect class="cls-2" x="288.97" y="462.57" width="10.93" height="12.7"/><rect class="cls-3" x="293.58" y="453.41" width="10.93" height="12.7"/></g><g class="cls-1"><rect class="cls-2" x="190.9" y="710.2" width="12.7" height="10.93"/><rect class="cls-3" x="200.06" y="714.81" width="12.7" height="10.93"/></g><g class="cls-1"><polygon class="cls-2" points="255.2 392.66 240.68 388.78 244.58 403.28 248.48 417.8 259.1 407.16 269.72 396.54 255.2 392.66"/><polygon class="cls-3" points="264.77 376.31 250.25 372.43 254.15 386.94 258.05 401.45 268.67 390.82 279.29 380.19 264.77 376.31"/></g><g class="cls-1"><path class="cls-2" d="M300.74,402.91c0,5.69-10.1,4.71-10.1,12" transform="translate(-136.43 134.22)"/><path class="cls-2" d="M300.74,379c0,5.69-10.1,4.71-10.1,12" transform="translate(-136.43 134.22)"/><path class="cls-2" d="M300.74,402.91c0-5.69-10.1-4.71-10.1-12" transform="translate(-136.43 134.22)"/><path class="cls-2" d="M290.64,367" transform="translate(-136.43 134.22)"/><path class="cls-2" d="M300.74,379c0-5.69-10.1-4.71-10.1-12" transform="translate(-136.43 134.22)"/><path class="cls-3" d="M311.75,384.12c0,5.69-10.1,4.71-10.1,12" transform="translate(-136.43 134.22)"/><path class="cls-3" d="M311.75,360.19c0,5.69-10.1,4.71-10.1,12" transform="translate(-136.43 134.22)"/><path class="cls-3" d="M311.75,384.12c0-5.69-10.1-4.71-10.1-12" transform="translate(-136.43 134.22)"/><path class="cls-3" d="M301.65,348.19" transform="translate(-136.43 134.22)"/><path class="cls-3" d="M311.75,360.19c0-5.69-10.1-4.71-10.1-12" transform="translate(-136.43 134.22)"/></g><g class="cls-1"><line class="cls-2" x1="421.54" y1="549.23" x2="407.23" y2="564.48"/><line class="cls-2" x1="422.01" y1="564.01" x2="406.76" y2="549.7"/></g><g class="cls-1"><line class="cls-2" x1="51.54" y1="215.23" x2="37.23" y2="230.48"/><line class="cls-2" x1="52.01" y1="230.01" x2="36.76" y2="215.7"/></g><g class="cls-1"><line class="cls-2" x1="144.43" y1="418.44" x2="125.43" y2="399.44"/><line class="cls-3" x1="154.44" y1="401.35" x2="135.44" y2="382.34"/></g><circle class="cls-4" cx="145.2" cy="456.74" r="6.27" transform="matrix(0.85, -0.53, 0.53, 0.85, -356.07, 280.19)"/><circle class="cls-4" cx="191.47" cy="234.19" r="6.28" transform="translate(-231.34 271) rotate(-31.94)"/><g class="cls-1"><polygon class="cls-2" points="558.98 582.25 553.49 572.76 548.02 582.25 542.55 591.75 553.51 591.74 564.46 591.73 558.98 582.25"/><polygon class="cls-3" points="565.96 570.33 560.47 560.85 555 570.34 549.53 579.83 560.49 579.82 571.44 579.82 565.96 570.33"/></g><g class="cls-1"><rect class="cls-2" x="288.97" y="462.57" width="10.93" height="12.7"/><rect class="cls-3" x="293.58" y="453.41" width="10.93" height="12.7"/></g><g class="cls-1"><rect class="cls-2" x="190.9" y="710.2" width="12.7" height="10.93"/><rect class="cls-3" x="200.06" y="714.81" width="12.7" height="10.93"/></g><g class="cls-1"><polygon class="cls-2" points="415.75 261.6 418.93 249.27 406.67 252.69 394.4 256.11 403.49 265.02 412.58 273.93 415.75 261.6"/><polygon class="cls-3" points="429.68 269.58 432.85 257.25 420.59 260.67 408.32 264.09 417.42 273 426.5 281.91 429.68 269.58"/></g><g class="cls-1"><line class="cls-2" x1="398.65" y1="542.98" x2="426.08" y2="542.73"/><line class="cls-3" x1="416.2" y1="553.04" x2="443.63" y2="552.79"/></g><g class="cls-1"><path class="cls-2" d="M286.58,393.27a12.92,12.92,0,0,1,15.75,20.49" transform="translate(-136.43 134.22)"/><path class="cls-3" d="M265.22,396a12.9,12.9,0,0,1,17.47,19l-.16.15q-.36.33-.75.63l-.84.65" transform="translate(-136.43 134.22)"/></g><g class="cls-1"><circle class="cls-2" cx="528.34" cy="215.69" r="9.61"/><circle class="cls-3" cx="520.27" cy="229.47" r="9.61"/></g><g class="cls-1"><circle class="cls-2" cx="245.34" cy="520.69" r="9.61"/><circle class="cls-3" cx="237.27" cy="534.47" r="9.61"/></g><circle class="cls-4" cx="420.14" cy="17.03" r="6.27" transform="translate(-79 363.96) rotate(-32.71)"/><circle class="cls-4" cx="424.14" cy="476.03" r="6.27" transform="translate(-326.4 438.91) rotate(-32.71)"/><circle class="cls-4" cx="555.15" cy="53.02" r="6.27" transform="translate(-77.04 442.63) rotate(-32.71)"/><circle class="cls-4" cx="228.15" cy="142.03" r="6.27" transform="translate(-177 280.04) rotate(-32.71)"/><g class="cls-1"><path class="cls-2" d="M362,158c-5.14,0-4.34-9.08-10.9-9" transform="translate(-136.43 134.22)"/><path class="cls-2" d="M383.67,157.82c-5.14,0-4.34-9.08-10.9-9" transform="translate(-136.43 134.22)"/><path class="cls-2" d="M362,158c5.14,0,4.17-9.16,10.73-9.22" transform="translate(-136.43 134.22)"/><path class="cls-2" d="M394.39,148.6" transform="translate(-136.43 134.22)"/><path class="cls-2" d="M383.67,157.82c5.14,0,4.17-9.16,10.73-9.22" transform="translate(-136.43 134.22)"/><path class="cls-3" d="M379.1,167.76c-5.14,0-4.34-9.08-10.9-9" transform="translate(-136.43 134.22)"/><path class="cls-3" d="M400.74,167.6c-5.14,0-4.34-9.08-10.9-9" transform="translate(-136.43 134.22)"/><path class="cls-3" d="M379.1,167.76c5.14,0,4.17-9.16,10.73-9.22" transform="translate(-136.43 134.22)"/><path class="cls-3" d="M411.47,158.38" transform="translate(-136.43 134.22)"/><path class="cls-3" d="M400.74,167.6c5.14,0,4.17-9.16,10.73-9.22" transform="translate(-136.43 134.22)"/></g><g class="cls-1"><line class="cls-2" x1="440.95" y1="668.56" x2="425.57" y2="654.39"/><line class="cls-2" x1="426.17" y1="669.17" x2="440.34" y2="653.79"/></g><g class="cls-1"><line class="cls-2" x1="126.95" y1="595.56" x2="111.57" y2="581.39"/><line class="cls-2" x1="112.17" y1="596.17" x2="126.34" y2="580.79"/></g><g class="cls-1"><polygon class="cls-2" points="161.75 203.6 164.93 191.27 152.67 194.69 140.4 198.11 149.49 207.02 158.58 215.93 161.75 203.6"/><polygon class="cls-3" points="175.68 211.58 178.85 199.25 166.59 202.67 154.32 206.09 163.41 215 172.5 223.91 175.68 211.58"/></g><g class="cls-1"><line class="cls-2" x1="420.65" y1="627.98" x2="448.08" y2="627.73"/><line class="cls-3" x1="438.2" y1="638.04" x2="465.63" y2="637.79"/></g><g class="cls-1"><line class="cls-2" x1="295.65" y1="469.98" x2="323.08" y2="469.73"/><line class="cls-3" x1="313.2" y1="480.04" x2="340.63" y2="479.79"/></g><g class="cls-1"><path class="cls-2" d="M234.58,358.27a12.92,12.92,0,0,1,15.75,20.49h0" transform="translate(-136.43 134.22)"/><path class="cls-3" d="M213.22,361a12.9,12.9,0,0,1,17.31,19.13q-.36.33-.75.63l-.84.65" transform="translate(-136.43 134.22)"/></g><g class="cls-1"><circle class="cls-2" cx="281.34" cy="223.69" r="9.61"/><circle class="cls-3" cx="273.27" cy="237.47" r="9.61"/></g><circle class="cls-4" cx="534.14" cy="376.03" r="6.27" transform="translate(-254.92 482.5) rotate(-32.71)"/><circle class="cls-4" cx="592.15" cy="72.03" r="6.27" transform="translate(-81.45 465.64) rotate(-32.71)"/><circle class="cls-4" cx="215.15" cy="191.03" r="6.27" transform="translate(-205.53 280.79) rotate(-32.71)"/><g class="cls-1"><polygon class="cls-2" points="537.38 682.62 544.23 678.57 537.3 674.66 530.36 670.74 530.44 678.7 530.52 686.67 537.38 682.62"/><polygon class="cls-3" points="546.09 687.61 552.94 683.56 546.01 679.65 539.07 675.73 539.15 683.69 539.23 691.66 546.09 687.61"/></g><g class="cls-1"><polygon class="cls-2" points="297.38 566.62 304.23 562.57 297.3 558.66 290.36 554.74 290.44 562.7 290.52 570.67 297.38 566.62"/><polygon class="cls-3" points="306.08 571.61 312.94 567.56 306.01 563.65 299.07 559.73 299.15 567.69 299.23 575.66 306.08 571.61"/></g><g class="cls-1"><polygon class="cls-2" points="322.38 136.62 329.23 132.57 322.3 128.66 315.36 124.74 315.44 132.7 315.52 140.67 322.38 136.62"/><polygon class="cls-3" points="331.08 141.61 337.94 137.56 331.01 133.65 324.07 129.73 324.15 137.7 324.23 145.66 331.08 141.61"/></g><g class="cls-1"><rect class="cls-2" x="233.62" y="507.32" width="10.96" height="10.96" transform="translate(-141.16 136.46) rotate(-0.53)"/><rect class="cls-3" x="241.56" y="511.88" width="10.96" height="10.96" transform="translate(-141.2 136.53) rotate(-0.53)"/></g><g class="cls-1"><line class="cls-2" x1="326.95" y1="685.56" x2="311.57" y2="671.39"/><line class="cls-2" x1="312.17" y1="686.17" x2="326.34" y2="670.79"/></g><g class="cls-1"><circle class="cls-2" cx="367.8" cy="151.11" r="10.56"/><circle class="cls-3" cx="376.67" cy="135.97" r="10.56"/><circle class="cls-2" cx="573.64" cy="521.91" r="9.61" transform="translate(-90.29 1224.65) rotate(-89.44)"/><circle class="cls-3" cx="587.34" cy="530.12" r="9.61" transform="translate(-84.93 1246.48) rotate(-89.44)"/><path class="cls-2" d="M462.68-113.45a11.1,11.1,0,0,1-15.55,2.19,11.1,11.1,0,0,1-2.19-15.55" transform="translate(-136.43 134.22)"/><path class="cls-3" d="M479.76-120.57a11.09,11.09,0,0,1-15.46,2.64,11.09,11.09,0,0,1-2.64-15.46l.4-.53" transform="translate(-136.43 134.22)"/><path class="cls-2" d="M485.39,626.31a12.93,12.93,0,0,1,2.5-18.11h0A12.93,12.93,0,0,1,506,610.71l0,0h0" transform="translate(-136.43 134.22)"/><path class="cls-3" d="M487.94,647.7a12.93,12.93,0,0,1,2.45-18.12h0a12.93,12.93,0,0,1,18.11,2.55h0" transform="translate(-136.43 134.22)"/><circle class="cls-2" cx="638.85" cy="-66.86" r="6.26" transform="translate(-2.68 464.19) rotate(-32.18)"/><polygon class="cls-2" points="146.1 81.36 132.11 77.62 135.87 91.6 139.63 105.58 149.86 95.34 160.09 85.09 146.1 81.36"/><polygon class="cls-3" points="155.32 65.61 141.33 61.87 145.09 75.85 148.85 89.83 159.08 79.59 169.31 69.35 155.32 65.61"/><line class="cls-2" x1="200.07" y1="710.23" x2="200.07" y2="674.37"/><line class="cls-3" x1="213.42" y1="687.42" x2="213.42" y2="651.55"/><circle class="cls-2" cx="622.9" cy="468.05" r="6.27" transform="translate(-289.73 534.62) rotate(-31.94)"/><circle class="cls-2" cx="369.5" cy="649.04" r="6.27" transform="translate(-423.85 427.96) rotate(-31.94)"/><circle class="cls-2" cx="508.88" cy="701.61" r="6.27" transform="translate(-430.56 509.66) rotate(-31.94)"/><circle class="cls-2" cx="530.91" cy="341.34" r="6.27" transform="translate(-236.63 466.77) rotate(-31.94)"/><circle class="cls-2" cx="298.21" cy="281.51" r="6.27" transform="translate(-240.2 334.61) rotate(-31.94)"/><circle class="cls-2" cx="506.56" cy="65.26" r="6.27" transform="translate(-94.26 412.09) rotate(-31.94)"/><circle class="cls-2" cx="350.38" cy="-83.71" r="6.27" transform="translate(-39.09 306.91) rotate(-31.94)"/><line class="cls-2" x1="368.76" y1="626.23" x2="358.13" y2="641.48"/><line class="cls-2" x1="369.11" y1="641.01" x2="357.78" y2="626.7"/><line class="cls-2" x1="130.54" y1="542.23" x2="116.23" y2="557.48"/><line class="cls-2" x1="131.01" y1="557.01" x2="115.76" y2="542.7"/><line class="cls-2" x1="156.54" y1="193.23" x2="142.23" y2="208.48"/><line class="cls-2" x1="157.01" y1="208.01" x2="141.76" y2="193.7"/><line class="cls-2" x1="372.52" y1="432.23" x2="372.52" y2="404.8"/><line class="cls-3" x1="382.74" y1="414.78" x2="382.74" y2="387.35"/><polygon class="cls-2" points="472.02 771.06 459.72 767.77 463.02 780.07 466.33 792.36 475.32 783.35 484.32 774.35 472.02 771.06"/><polygon class="cls-3" points="480.13 757.21 467.83 753.92 471.13 766.22 474.44 778.51 483.43 769.51 492.43 760.5 480.13 757.21"/><polygon class="cls-2" points="145.7 331.32 140.97 323.13 136.25 331.32 131.53 339.51 140.98 339.5 150.43 339.5 145.7 331.32"/><polygon class="cls-3" points="151.72 321.03 146.99 312.85 142.27 321.04 137.55 329.23 147 329.22 156.45 329.22 151.72 321.03"/><polygon class="cls-2" points="359.5 503.39 355.51 496.5 351.54 503.4 347.56 510.3 355.52 510.29 363.48 510.29 359.5 503.39"/><polygon class="cls-3" points="364.57 494.73 360.58 487.83 356.61 494.73 352.63 501.63 360.59 501.63 368.56 501.62 364.57 494.73"/><path class="cls-2" d="M530.94,389.91" transform="translate(-136.43 134.22)"/><rect class="cls-2" x="336.97" y="255.57" width="10.93" height="12.7"/><rect class="cls-3" x="341.58" y="246.41" width="10.93" height="12.7"/><rect class="cls-2" x="153.97" y="509.06" width="9.22" height="9.21"/><rect class="cls-3" x="157.86" y="502.41" width="9.22" height="9.21"/><rect class="cls-2" x="318.97" y="656.31" width="10.96" height="10.96"/><rect class="cls-3" x="323.59" y="648.41" width="10.96" height="10.96"/></g></svg>