<svg id="Слой_1" data-name="Слой 1" xmlns="http://www.w3.org/2000/svg" viewBox="0 0 1074.26 592.02"><defs><style>.cls-1,.cls-4{opacity:0.27;}.cls-2,.cls-3,.cls-4{fill:none;stroke:#fff;}.cls-2,.cls-4{stroke-linecap:round;stroke-linejoin:round;stroke-width:5px;}.cls-3{stroke-miterlimit:10;}.cls-4{isolation:isolate;}</style></defs><title>bg-header</title><g class="cls-1"><polygon class="cls-2" points="551.32 255.21 555.2 240.69 540.7 244.59 526.18 248.49 536.82 259.11 547.44 269.73 551.32 255.21"/><polygon class="cls-3" points="567.67 264.78 571.55 250.26 557.04 254.16 542.53 258.06 553.16 268.68 563.79 279.3 567.67 264.78"/></g><g class="cls-1"><path class="cls-2" d="M941,44c-5.69,0-4.71-10.1-12-10.1" transform="translate(0 -0.03)"/><path class="cls-2" d="M965,44c-5.69,0-4.71-10.1-12-10.1" transform="translate(0 -0.03)"/><path class="cls-2" d="M941,44c5.69,0,4.71-10.1,12-10.1" transform="translate(0 -0.03)"/><path class="cls-2" d="M976.93,33.87" transform="translate(0 -0.03)"/><path class="cls-2" d="M965,44c5.69,0,4.71-10.1,12-10.1" transform="translate(0 -0.03)"/><path class="cls-3" d="M959.8,55c-5.69,0-4.71-10.1-12-10.1" transform="translate(0 -0.03)"/><path class="cls-3" d="M983.73,55c-5.69,0-4.71-10.1-12-10.1" transform="translate(0 -0.03)"/><path class="cls-3" d="M959.8,55c5.69,0,4.71-10.1,12-10.1" transform="translate(0 -0.03)"/><path class="cls-3" d="M995.73,44.88" transform="translate(0 -0.03)"/><path class="cls-3" d="M983.73,55c5.69,0,4.71-10.1,12-10.1" transform="translate(0 -0.03)"/></g><g class="cls-1"><line class="cls-2" x1="394.75" y1="421.55" x2="379.5" y2="407.24"/><line class="cls-2" x1="379.97" y1="422.02" x2="394.28" y2="406.77"/></g><g class="cls-1"><line class="cls-2" x1="728.75" y1="51.55" x2="713.5" y2="37.24"/><line class="cls-2" x1="713.97" y1="52.02" x2="728.28" y2="36.77"/></g><circle class="cls-4" cx="353.02" cy="8.8" r="6.27" transform="translate(48.79 188.07) rotate(-31.94)"/><circle class="cls-4" cx="574.72" cy="55.56" r="6.27" transform="matrix(0.85, -0.53, 0.53, 0.85, 57.62, 312.43)"/><g class="cls-1"><polygon class="cls-2" points="361.73 558.99 371.22 553.5 361.73 548.03 352.23 542.56 352.24 553.52 352.25 564.47 361.73 558.99"/><polygon class="cls-3" points="373.65 565.97 383.13 560.48 373.64 555.01 364.15 549.54 364.16 560.5 364.16 571.45 373.65 565.97"/></g><g class="cls-1"><rect class="cls-2" x="468.71" y="288.98" width="12.7" height="10.93"/><rect class="cls-3" x="477.87" y="293.59" width="12.7" height="10.93"/></g><g class="cls-1"><rect class="cls-2" x="426.71" y="575.98" width="12.7" height="10.93"/><rect class="cls-3" x="435.87" y="580.59" width="12.7" height="10.93"/></g><g class="cls-1"><polygon class="cls-2" points="551.32 255.21 555.2 240.69 540.7 244.59 526.18 248.49 536.82 259.11 547.44 269.73 551.32 255.21"/><polygon class="cls-3" points="567.67 264.78 571.55 250.26 557.04 254.16 542.53 258.06 553.16 268.68 563.79 279.3 567.67 264.78"/></g><g class="cls-1"><path class="cls-2" d="M151.06,65.66c-5.69,0-4.71-10.1-12-10.1" transform="translate(0 -0.03)"/><path class="cls-2" d="M175,65.66c-5.69,0-4.71-10.1-12-10.1" transform="translate(0 -0.03)"/><path class="cls-2" d="M151.06,65.66c5.69,0,4.71-10.1,12-10.1" transform="translate(0 -0.03)"/><path class="cls-2" d="M187,55.56" transform="translate(0 -0.03)"/><path class="cls-2" d="M175,65.66c5.69,0,4.71-10.1,12-10.1" transform="translate(0 -0.03)"/><path class="cls-3" d="M169.85,76.67c-5.69,0-4.71-10.1-12-10.1" transform="translate(0 -0.03)"/><path class="cls-3" d="M193.78,76.67c-5.69,0-4.71-10.1-12-10.1" transform="translate(0 -0.03)"/><path class="cls-3" d="M169.85,76.67c5.69,0,4.71-10.1,12-10.1" transform="translate(0 -0.03)"/><path class="cls-3" d="M205.78,66.57" transform="translate(0 -0.03)"/><path class="cls-3" d="M193.78,76.67c5.69,0,4.71-10.1,12-10.1" transform="translate(0 -0.03)"/></g><g class="cls-1"><line class="cls-2" x1="394.75" y1="421.55" x2="379.5" y2="407.24"/><line class="cls-2" x1="379.97" y1="422.02" x2="394.28" y2="406.77"/></g><g class="cls-1"><line class="cls-2" x1="728.75" y1="51.55" x2="713.5" y2="37.24"/><line class="cls-2" x1="713.97" y1="52.02" x2="728.28" y2="36.77"/></g><circle class="cls-4" cx="353.02" cy="8.8" r="6.27" transform="translate(48.79 188.07) rotate(-31.94)"/><circle class="cls-4" cx="574.72" cy="55.56" r="6.27" transform="matrix(0.85, -0.53, 0.53, 0.85, 57.62, 312.43)"/><g class="cls-1"><polygon class="cls-2" points="361.73 558.99 371.22 553.5 361.73 548.03 352.23 542.56 352.24 553.52 352.25 564.47 361.73 558.99"/><polygon class="cls-3" points="373.65 565.97 383.13 560.48 373.64 555.01 364.15 549.54 364.16 560.5 364.16 571.45 373.65 565.97"/></g><g class="cls-1"><rect class="cls-2" x="468.71" y="288.98" width="12.7" height="10.93"/><rect class="cls-3" x="477.87" y="293.59" width="12.7" height="10.93"/></g><g class="cls-1"><rect class="cls-2" x="426.71" y="575.98" width="12.7" height="10.93"/><rect class="cls-3" x="435.87" y="580.59" width="12.7" height="10.93"/></g><g class="cls-1"><polygon class="cls-2" points="682.38 415.76 694.71 418.94 691.29 406.68 687.87 394.41 678.96 403.5 670.05 412.59 682.38 415.76"/><polygon class="cls-3" points="674.4 429.69 686.73 432.86 683.31 420.6 679.89 408.33 670.98 417.43 662.07 426.51 674.4 429.69"/></g><g class="cls-1"><line class="cls-2" x1="401" y1="398.66" x2="401.25" y2="426.09"/><line class="cls-3" x1="390.94" y1="416.21" x2="391.19" y2="443.64"/></g><g class="cls-1"><path class="cls-2" d="M175.7,142.56a12.9,12.9,0,1,1-20.44,15.75" transform="translate(0 -0.03)"/><path class="cls-3" d="M173,121.2a12.9,12.9,0,1,1-19.13,17.31q-.33-.36-.63-.75t-.65-.84" transform="translate(0 -0.03)"/></g><g class="cls-1"><circle class="cls-2" cx="728.29" cy="528.35" r="9.61"/><circle class="cls-3" cx="714.51" cy="520.28" r="9.61"/></g><g class="cls-1"><circle class="cls-2" cx="423.29" cy="245.35" r="9.61"/><circle class="cls-3" cx="409.51" cy="237.28" r="9.61"/></g><circle class="cls-4" cx="792.73" cy="283.75" r="6.27" transform="translate(-27.62 473.35) rotate(-32.71)"/><circle class="cls-4" cx="333.74" cy="287.75" r="6.27" transform="translate(-102.57 225.95) rotate(-32.71)"/><circle class="cls-4" cx="756.74" cy="418.76" r="6.27" transform="translate(-106.28 475.31) rotate(-32.71)"/><circle class="cls-4" cx="667.73" cy="91.76" r="6.27" transform="translate(56.3 375.36) rotate(-32.71)"/><g class="cls-1"><path class="cls-2" d="M651.74,225.66c0-5.14,9.08-4.34,9-10.9" transform="translate(0 -0.03)"/><path class="cls-2" d="M651.94,247.28c0-5.14,9.08-4.34,9-10.9" transform="translate(0 -0.03)"/><path class="cls-2" d="M651.74,225.66c0,5.14,9.16,4.17,9.22,10.73" transform="translate(0 -0.03)"/><path class="cls-2" d="M661.16,258" transform="translate(0 -0.03)"/><path class="cls-2" d="M651.94,247.28c0,5.14,9.16,4.17,9.22,10.73" transform="translate(0 -0.03)"/><path class="cls-3" d="M642,242.71c0-5.14,9.08-4.34,9-10.9" transform="translate(0 -0.03)"/><path class="cls-3" d="M642.16,264.35c0-5.14,9.08-4.34,9-10.9" transform="translate(0 -0.03)"/><path class="cls-3" d="M642,242.71c0,5.14,9.16,4.17,9.22,10.73" transform="translate(0 -0.03)"/><path class="cls-3" d="M651.38,275.08" transform="translate(0 -0.03)"/><path class="cls-3" d="M642.16,264.35c0,5.14,9.16,4.17,9.22,10.73" transform="translate(0 -0.03)"/></g><g class="cls-1"><line class="cls-2" x1="275.42" y1="440.96" x2="289.59" y2="425.58"/><line class="cls-2" x1="274.81" y1="426.18" x2="290.19" y2="440.35"/></g><g class="cls-1"><polygon class="cls-2" points="740.38 161.76 752.71 164.94 749.29 152.68 745.87 140.41 736.96 149.5 728.05 158.59 740.38 161.76"/><polygon class="cls-3" points="732.4 175.69 744.73 178.86 741.31 166.6 737.89 154.33 728.98 163.42 720.07 172.51 732.4 175.69"/></g><g class="cls-1"><line class="cls-2" x1="316" y1="420.66" x2="316.25" y2="448.09"/><line class="cls-3" x1="305.94" y1="438.21" x2="306.19" y2="465.64"/></g><g class="cls-1"><line class="cls-2" x1="474" y1="295.66" x2="474.25" y2="323.09"/><line class="cls-3" x1="463.94" y1="313.21" x2="464.19" y2="340.64"/></g><g class="cls-1"><path class="cls-2" d="M893.11,55.86a12.9,12.9,0,0,1-20.44,15.75" transform="translate(0 -0.03)"/><path class="cls-3" d="M890.38,34.5A12.9,12.9,0,0,1,871.25,51.8q-.33-.36-.63-.75t-.65-.84" transform="translate(0 -0.03)"/></g><g class="cls-1"><circle class="cls-2" cx="720.29" cy="281.35" r="9.61"/><circle class="cls-3" cx="706.51" cy="273.28" r="9.61"/></g><circle class="cls-4" cx="433.73" cy="397.75" r="6.27" transform="translate(-146.16 297.43) rotate(-32.71)"/><circle class="cls-4" cx="737.73" cy="455.76" r="6.27" transform="translate(-129.3 470.91) rotate(-32.71)"/><circle class="cls-4" cx="618.73" cy="78.76" r="6.27" transform="translate(55.56 346.82) rotate(-32.71)"/><g class="cls-1"><polygon class="cls-2" points="261.36 537.39 265.41 544.24 269.32 537.31 273.24 530.37 265.28 530.45 257.31 530.53 261.36 537.39"/><polygon class="cls-3" points="256.37 546.1 260.42 552.95 264.33 546.02 268.25 539.08 260.29 539.16 252.32 539.24 256.37 546.1"/></g><g class="cls-1"><polygon class="cls-2" points="377.36 297.39 381.41 304.24 385.32 297.31 389.24 290.37 381.28 290.45 373.31 290.53 377.36 297.39"/><polygon class="cls-3" points="372.37 306.09 376.42 312.95 380.33 306.02 384.25 299.08 376.29 299.16 368.32 299.24 372.37 306.09"/></g><g class="cls-1"><polygon class="cls-2" points="807.36 322.39 811.41 329.24 815.32 322.31 819.24 315.37 811.28 315.45 803.31 315.53 807.36 322.39"/><polygon class="cls-3" points="802.37 331.09 806.42 337.95 810.33 331.02 814.25 324.08 806.28 324.16 798.32 324.24 802.37 331.09"/></g><g class="cls-1"><rect class="cls-2" x="291.48" y="97.23" width="10.96" height="10.96" transform="translate(-0.94 2.72) rotate(-0.53)"/><rect class="cls-3" x="286.92" y="105.17" width="10.96" height="10.96" transform="translate(-1.01 2.68) rotate(-0.53)"/></g><g class="cls-1"><line class="cls-2" x1="258.42" y1="326.96" x2="272.59" y2="311.58"/><line class="cls-2" x1="257.81" y1="312.18" x2="273.19" y2="326.35"/></g><g class="cls-1"><circle class="cls-2" cx="792.87" cy="367.81" r="10.56"/><circle class="cls-3" cx="808.01" cy="376.68" r="10.56"/><circle class="cls-2" cx="287.84" cy="437.24" r="9.61" transform="translate(-152.19 720.77) rotate(-89.44)"/><circle class="cls-3" cx="279.64" cy="450.94" r="9.61" transform="translate(-174.01 726.14) rotate(-89.44)"/><path class="cls-2" d="M923.21,326.29a11.1,11.1,0,1,1,13.36-17.74" transform="translate(0 -0.03)"/><path class="cls-3" d="M930.33,343.37a11.09,11.09,0,1,1,12.82-18.1l.53.4" transform="translate(0 -0.03)"/><path class="cls-2" d="M183.45,349a12.93,12.93,0,0,1,18.11,2.5h0A12.93,12.93,0,0,1,199,369.65h0" transform="translate(0 -0.03)"/><path class="cls-3" d="M162.06,351.55A12.93,12.93,0,0,1,180.18,354h0a12.93,12.93,0,0,1-2.55,18.11h0" transform="translate(0 -0.03)"/><rect class="cls-2" x="1042.46" y="225.52" width="10.88" height="10.88"/><rect class="cls-3" x="1050.3" y="230.11" width="10.88" height="10.88"/><line class="cls-2" x1="1060.75" y1="436.55" x2="1045.5" y2="422.24"/><line class="cls-2" x1="1045.97" y1="437.02" x2="1060.28" y2="421.77"/><circle class="cls-2" cx="876.62" cy="502.46" r="6.26" transform="translate(-132.93 544.03) rotate(-32.18)"/><path class="cls-2" d="M947.85,261.35c-5.69,0-4.71-10.1-12-10.1" transform="translate(0 -0.03)"/><path class="cls-2" d="M971.8,261.35c-5.69,0-4.71-10.1-12-10.1" transform="translate(0 -0.03)"/><path class="cls-2" d="M947.85,261.35c5.69,0,4.71-10.1,12-10.1" transform="translate(0 -0.03)"/><path class="cls-2" d="M983.77,251.25" transform="translate(0 -0.03)"/><path class="cls-2" d="M971.8,261.35c5.69,0,4.71-10.1,12-10.1" transform="translate(0 -0.03)"/><path class="cls-3" d="M966.64,272.36c-5.69,0-4.71-10.1-12-10.1" transform="translate(0 -0.03)"/><path class="cls-3" d="M990.57,272.36c-5.69,0-4.71-10.1-12-10.1" transform="translate(0 -0.03)"/><path class="cls-3" d="M966.64,272.36c5.69,0,4.71-10.1,12-10.1" transform="translate(0 -0.03)"/><path class="cls-3" d="M1002.57,262.26" transform="translate(0 -0.03)"/><path class="cls-3" d="M990.57,272.36c5.69,0,4.71-10.1,12-10.1" transform="translate(0 -0.03)"/><polygon class="cls-2" points="862.62 146.11 866.36 132.12 852.38 135.88 838.4 139.64 848.64 149.87 858.89 160.1 862.62 146.11"/><polygon class="cls-3" points="878.37 155.33 882.11 141.34 868.13 145.1 854.15 148.86 864.39 159.09 874.63 169.32 878.37 155.33"/><line class="cls-2" x1="233.75" y1="200.08" x2="269.61" y2="200.08"/><line class="cls-3" x1="256.56" y1="213.43" x2="292.43" y2="213.43"/><polygon class="cls-2" points="759.73 473.99 769.22 468.5 759.73 463.03 750.23 457.56 750.24 468.52 750.25 479.47 759.73 473.99"/><polygon class="cls-3" points="771.65 480.97 781.13 475.48 771.64 470.01 762.15 464.54 762.16 475.5 762.16 486.45 771.65 480.97"/><polygon class="cls-2" points="1053.32 362.21 1057.2 347.69 1042.7 351.59 1028.18 355.49 1038.82 366.11 1049.44 376.73 1053.32 362.21"/><polygon class="cls-3" points="1069.67 371.78 1073.55 357.26 1059.04 361.16 1044.53 365.06 1055.16 375.68 1065.79 386.3 1069.67 371.78"/><line class="cls-2" x1="908.54" y1="395.44" x2="927.54" y2="376.44"/><line class="cls-3" x1="925.63" y1="405.45" x2="944.64" y2="386.45"/><path class="cls-2" d="M950.4,178.55a6,6,0,1,1,11.93,0" transform="translate(0 -0.03)"/><path class="cls-3" d="M959,183.55a6,6,0,1,1,11.93,0" transform="translate(0 -0.03)"/><circle class="cls-2" cx="341.71" cy="486.52" r="6.27" transform="translate(-205.65 254.4) rotate(-31.94)"/><circle class="cls-2" cx="160.72" cy="233.11" r="6.27" transform="translate(-98.99 120.29) rotate(-31.94)"/><circle class="cls-2" cx="108.15" cy="372.49" r="6.27" transform="translate(-180.68 113.58) rotate(-31.94)"/><circle class="cls-2" cx="468.42" cy="394.52" r="6.27" transform="translate(-137.8 307.51) rotate(-31.94)"/><circle class="cls-2" cx="528.26" cy="161.82" r="6.27" transform="translate(-5.63 303.94) rotate(-31.94)"/><circle class="cls-2" cx="744.5" cy="370.17" r="6.27" transform="translate(-83.11 449.88) rotate(-31.94)"/><circle class="cls-2" cx="893.47" cy="213.99" r="6.27" transform="translate(22.06 505.04) rotate(-31.94)"/><line class="cls-2" x1="317.75" y1="368.77" x2="302.5" y2="358.14"/><line class="cls-2" x1="302.97" y1="369.12" x2="317.28" y2="357.79"/><line class="cls-2" x1="750.75" y1="156.55" x2="735.5" y2="142.24"/><line class="cls-2" x1="735.97" y1="157.02" x2="750.28" y2="141.77"/><line class="cls-2" x1="17.75" y1="293.55" x2="2.5" y2="279.24"/><line class="cls-2" x1="2.97" y1="294.02" x2="17.28" y2="278.77"/><line class="cls-2" x1="1045.75" y1="297.55" x2="1030.5" y2="283.24"/><line class="cls-2" x1="1030.97" y1="298.02" x2="1045.28" y2="282.77"/><line class="cls-2" x1="511.75" y1="372.53" x2="539.18" y2="372.53"/><line class="cls-3" x1="529.2" y1="382.75" x2="556.63" y2="382.75"/><polygon class="cls-2" points="172.92 472.03 176.21 459.73 163.91 463.03 151.62 466.34 160.63 475.33 169.63 484.33 172.92 472.03"/><polygon class="cls-3" points="186.77 480.14 190.06 467.84 177.76 471.14 165.47 474.45 174.47 483.44 183.48 492.44 186.77 480.14"/><polygon class="cls-2" points="157.44 302.41 166.61 297.1 157.44 291.82 148.26 286.53 148.27 297.12 148.28 307.71 157.44 302.41"/><polygon class="cls-3" points="168.96 309.15 178.13 303.85 168.96 298.56 159.78 293.27 159.79 303.86 159.79 314.45 168.96 309.15"/><polygon class="cls-2" points="440.59 359.51 447.48 355.52 440.58 351.55 433.68 347.57 433.69 355.53 433.69 363.49 440.59 359.51"/><polygon class="cls-3" points="449.25 364.58 456.15 360.59 449.25 356.62 442.35 352.64 442.35 360.6 442.36 368.57 449.25 364.58"/><path class="cls-2" d="M419.85,394.55" transform="translate(0 -0.03)"/><path class="cls-2" d="M60,230.66c-5.14,0-4.26-9.12-10.82-9.12" transform="translate(0 -0.03)"/><path class="cls-2" d="M81.68,230.66c-5.14,0-4.26-9.12-10.82-9.12" transform="translate(0 -0.03)"/><path class="cls-2" d="M60,230.66c5.14,0,4.26-9.12,10.82-9.12" transform="translate(0 -0.03)"/><path class="cls-2" d="M92.5,221.55" transform="translate(0 -0.03)"/><path class="cls-2" d="M81.68,230.66c5.14,0,4.26-9.12,10.82-9.12" transform="translate(0 -0.03)"/><path class="cls-3" d="M77,240.61c-5.14,0-4.26-9.12-10.82-9.12" transform="translate(0 -0.03)"/><path class="cls-3" d="M98.66,240.61c-5.14,0-4.26-9.12-10.82-9.12" transform="translate(0 -0.03)"/><path class="cls-3" d="M77,240.61c5.14,0,4.26-9.12,10.82-9.12" transform="translate(0 -0.03)"/><path class="cls-3" d="M109.48,231.49" transform="translate(0 -0.03)"/><path class="cls-3" d="M98.66,240.61c5.14,0,4.26-9.12,10.82-9.12" transform="translate(0 -0.03)"/><rect class="cls-2" x="675.71" y="336.98" width="12.7" height="10.93"/><rect class="cls-3" x="684.87" y="341.59" width="12.7" height="10.93"/><rect class="cls-2" x="425.71" y="153.98" width="9.21" height="9.22"/><rect class="cls-3" x="432.36" y="157.87" width="9.21" height="9.22"/><rect class="cls-2" x="276.71" y="318.98" width="10.96" height="10.96"/><rect class="cls-3" x="284.61" y="323.6" width="10.96" height="10.96"/></g></svg>