<svg id="Слой_1" data-name="Слой 1" xmlns="http://www.w3.org/2000/svg" viewBox="0 0 844.6 592.02"><defs><style>.cls-1,.cls-4{opacity:0.27;}.cls-2,.cls-3,.cls-4{fill:none;stroke:#fff;}.cls-2,.cls-4{stroke-linecap:round;stroke-linejoin:round;stroke-width:5px;}.cls-3{stroke-miterlimit:10;}.cls-4{isolation:isolate;}</style></defs><title>bg-header480</title><g class="cls-1"><polygon class="cls-2" points="451.94 255.21 455.82 240.69 441.32 244.59 426.8 248.49 437.44 259.11 448.06 269.73 451.94 255.21"/><polygon class="cls-3" points="468.29 264.78 472.17 250.26 457.66 254.16 443.15 258.06 453.78 268.68 464.41 279.3 468.29 264.78"/></g><g class="cls-1"><path class="cls-2" d="M406.85,164.35c-5.69,0-4.71-10.1-12-10.1" transform="translate(-99.38 -0.03)"/><path class="cls-2" d="M430.8,164.35c-5.69,0-4.71-10.1-12-10.1" transform="translate(-99.38 -0.03)"/><path class="cls-2" d="M406.85,164.35c5.69,0,4.71-10.1,12-10.1" transform="translate(-99.38 -0.03)"/><path class="cls-2" d="M442.77,154.25" transform="translate(-99.38 -0.03)"/><path class="cls-2" d="M430.8,164.35c5.69,0,4.71-10.1,12-10.1" transform="translate(-99.38 -0.03)"/><path class="cls-3" d="M425.64,175.36c-5.69,0-4.71-10.1-12-10.1" transform="translate(-99.38 -0.03)"/><path class="cls-3" d="M449.57,175.36c-5.69,0-4.71-10.1-12-10.1" transform="translate(-99.38 -0.03)"/><path class="cls-3" d="M425.64,175.36c5.69,0,4.71-10.1,12-10.1" transform="translate(-99.38 -0.03)"/><path class="cls-3" d="M461.57,165.26" transform="translate(-99.38 -0.03)"/><path class="cls-3" d="M449.57,175.36c5.69,0,4.71-10.1,12-10.1" transform="translate(-99.38 -0.03)"/></g><g class="cls-1"><line class="cls-2" x1="295.37" y1="421.55" x2="280.12" y2="407.24"/><line class="cls-2" x1="280.59" y1="422.02" x2="294.9" y2="406.77"/></g><g class="cls-1"><line class="cls-2" x1="629.37" y1="51.55" x2="614.12" y2="37.24"/><line class="cls-2" x1="614.59" y1="52.02" x2="628.9" y2="36.77"/></g><g class="cls-1"><line class="cls-2" x1="426.16" y1="144.44" x2="445.16" y2="125.44"/><line class="cls-3" x1="443.25" y1="154.45" x2="462.26" y2="135.45"/></g><circle class="cls-4" cx="353.02" cy="8.8" r="6.27" transform="translate(-50.59 188.07) rotate(-31.94)"/><circle class="cls-4" cx="574.72" cy="55.56" r="6.27" transform="matrix(0.85, -0.53, 0.53, 0.85, -41.77, 312.43)"/><g class="cls-1"><polygon class="cls-2" points="262.35 558.99 271.84 553.5 262.35 548.03 252.85 542.56 252.86 553.52 252.87 564.47 262.35 558.99"/><polygon class="cls-3" points="274.27 565.97 283.75 560.48 274.26 555.01 264.77 549.54 264.78 560.5 264.78 571.45 274.27 565.97"/></g><g class="cls-1"><rect class="cls-2" x="369.33" y="288.98" width="12.7" height="10.93"/><rect class="cls-3" x="378.49" y="293.59" width="12.7" height="10.93"/></g><g class="cls-1"><rect class="cls-2" x="327.33" y="575.98" width="12.7" height="10.93"/><rect class="cls-3" x="336.49" y="580.59" width="12.7" height="10.93"/></g><g class="cls-1"><polygon class="cls-2" points="451.94 255.21 455.82 240.69 441.32 244.59 426.8 248.49 437.44 259.11 448.06 269.73 451.94 255.21"/><polygon class="cls-3" points="468.29 264.78 472.17 250.26 457.66 254.16 443.15 258.06 453.78 268.68 464.41 279.3 468.29 264.78"/></g><g class="cls-1"><path class="cls-2" d="M406.85,164.35c-5.69,0-4.71-10.1-12-10.1" transform="translate(-99.38 -0.03)"/><path class="cls-2" d="M430.8,164.35c-5.69,0-4.71-10.1-12-10.1" transform="translate(-99.38 -0.03)"/><path class="cls-2" d="M406.85,164.35c5.69,0,4.71-10.1,12-10.1" transform="translate(-99.38 -0.03)"/><path class="cls-2" d="M442.77,154.25" transform="translate(-99.38 -0.03)"/><path class="cls-2" d="M430.8,164.35c5.69,0,4.71-10.1,12-10.1" transform="translate(-99.38 -0.03)"/><path class="cls-3" d="M425.64,175.36c-5.69,0-4.71-10.1-12-10.1" transform="translate(-99.38 -0.03)"/><path class="cls-3" d="M449.57,175.36c-5.69,0-4.71-10.1-12-10.1" transform="translate(-99.38 -0.03)"/><path class="cls-3" d="M425.64,175.36c5.69,0,4.71-10.1,12-10.1" transform="translate(-99.38 -0.03)"/><path class="cls-3" d="M461.57,165.26" transform="translate(-99.38 -0.03)"/><path class="cls-3" d="M449.57,175.36c5.69,0,4.71-10.1,12-10.1" transform="translate(-99.38 -0.03)"/></g><g class="cls-1"><line class="cls-2" x1="295.37" y1="421.55" x2="280.12" y2="407.24"/><line class="cls-2" x1="280.59" y1="422.02" x2="294.9" y2="406.77"/></g><g class="cls-1"><line class="cls-2" x1="629.37" y1="51.55" x2="614.12" y2="37.24"/><line class="cls-2" x1="614.59" y1="52.02" x2="628.9" y2="36.77"/></g><g class="cls-1"><line class="cls-2" x1="426.16" y1="144.44" x2="445.16" y2="125.44"/><line class="cls-3" x1="443.25" y1="154.45" x2="462.26" y2="135.45"/></g><circle class="cls-4" cx="353.02" cy="8.8" r="6.27" transform="translate(-50.59 188.07) rotate(-31.94)"/><circle class="cls-4" cx="574.72" cy="55.56" r="6.27" transform="matrix(0.85, -0.53, 0.53, 0.85, -41.77, 312.43)"/><g class="cls-1"><polygon class="cls-2" points="262.35 558.99 271.84 553.5 262.35 548.03 252.85 542.56 252.86 553.52 252.87 564.47 262.35 558.99"/><polygon class="cls-3" points="274.27 565.97 283.75 560.48 274.26 555.01 264.77 549.54 264.78 560.5 264.78 571.45 274.27 565.97"/></g><g class="cls-1"><rect class="cls-2" x="369.33" y="288.98" width="12.7" height="10.93"/><rect class="cls-3" x="378.49" y="293.59" width="12.7" height="10.93"/></g><g class="cls-1"><rect class="cls-2" x="327.33" y="575.98" width="12.7" height="10.93"/><rect class="cls-3" x="336.49" y="580.59" width="12.7" height="10.93"/></g><g class="cls-1"><polygon class="cls-2" points="583 415.76 595.33 418.94 591.91 406.68 588.49 394.41 579.58 403.5 570.67 412.59 583 415.76"/><polygon class="cls-3" points="575.02 429.69 587.35 432.86 583.93 420.6 580.51 408.33 571.6 417.43 562.69 426.51 575.02 429.69"/></g><g class="cls-1"><line class="cls-2" x1="301.62" y1="398.66" x2="301.87" y2="426.09"/><line class="cls-3" x1="291.56" y1="416.21" x2="291.81" y2="443.64"/></g><g class="cls-1"><path class="cls-2" d="M416.49,150.19A12.9,12.9,0,1,1,396,165.94" transform="translate(-99.38 -0.03)"/><path class="cls-3" d="M413.76,128.83a12.9,12.9,0,1,1-19.13,17.31q-.33-.36-.63-.75t-.65-.84" transform="translate(-99.38 -0.03)"/></g><g class="cls-1"><circle class="cls-2" cx="628.91" cy="528.35" r="9.61"/><circle class="cls-3" cx="615.13" cy="520.28" r="9.61"/></g><g class="cls-1"><circle class="cls-2" cx="323.91" cy="245.35" r="9.61"/><circle class="cls-3" cx="310.13" cy="237.28" r="9.61"/></g><circle class="cls-4" cx="792.73" cy="283.75" r="6.27" transform="translate(-127 473.35) rotate(-32.71)"/><circle class="cls-4" cx="333.74" cy="287.75" r="6.27" transform="translate(-201.96 225.95) rotate(-32.71)"/><circle class="cls-4" cx="756.74" cy="418.76" r="6.27" transform="translate(-205.67 475.31) rotate(-32.71)"/><circle class="cls-4" cx="667.73" cy="91.76" r="6.27" transform="translate(-43.08 375.36) rotate(-32.71)"/><g class="cls-1"><path class="cls-2" d="M651.74,225.66c0-5.14,9.08-4.34,9-10.9" transform="translate(-99.38 -0.03)"/><path class="cls-2" d="M651.94,247.28c0-5.14,9.08-4.34,9-10.9" transform="translate(-99.38 -0.03)"/><path class="cls-2" d="M651.74,225.66c0,5.14,9.16,4.17,9.22,10.73" transform="translate(-99.38 -0.03)"/><path class="cls-2" d="M661.16,258" transform="translate(-99.38 -0.03)"/><path class="cls-2" d="M651.94,247.28c0,5.14,9.16,4.17,9.22,10.73" transform="translate(-99.38 -0.03)"/><path class="cls-3" d="M642,242.71c0-5.14,9.08-4.34,9-10.9" transform="translate(-99.38 -0.03)"/><path class="cls-3" d="M642.16,264.35c0-5.14,9.08-4.34,9-10.9" transform="translate(-99.38 -0.03)"/><path class="cls-3" d="M642,242.71c0,5.14,9.16,4.17,9.22,10.73" transform="translate(-99.38 -0.03)"/><path class="cls-3" d="M651.38,275.08" transform="translate(-99.38 -0.03)"/><path class="cls-3" d="M642.16,264.35c0,5.14,9.16,4.17,9.22,10.73" transform="translate(-99.38 -0.03)"/></g><g class="cls-1"><line class="cls-2" x1="176.04" y1="440.96" x2="190.21" y2="425.58"/><line class="cls-2" x1="175.43" y1="426.18" x2="190.81" y2="440.35"/></g><g class="cls-1"><line class="cls-2" x1="249.04" y1="126.96" x2="263.21" y2="111.58"/><line class="cls-2" x1="248.43" y1="112.18" x2="263.81" y2="126.35"/></g><g class="cls-1"><polygon class="cls-2" points="641 161.76 653.33 164.94 649.91 152.68 646.49 140.41 637.58 149.5 628.67 158.59 641 161.76"/><polygon class="cls-3" points="633.02 175.69 645.35 178.86 641.93 166.6 638.51 154.33 629.6 163.42 620.69 172.51 633.02 175.69"/></g><g class="cls-1"><line class="cls-2" x1="216.62" y1="420.66" x2="216.87" y2="448.09"/><line class="cls-3" x1="206.56" y1="438.21" x2="206.81" y2="465.64"/></g><g class="cls-1"><line class="cls-2" x1="374.62" y1="295.66" x2="374.87" y2="323.09"/><line class="cls-3" x1="364.56" y1="313.21" x2="364.81" y2="340.64"/></g><g class="cls-1"><path class="cls-2" d="M451.49,98.19A12.9,12.9,0,1,1,431,113.94" transform="translate(-99.38 -0.03)"/><path class="cls-3" d="M448.76,76.83a12.9,12.9,0,0,1-19.13,17.31q-.33-.36-.63-.75t-.65-.84" transform="translate(-99.38 -0.03)"/></g><g class="cls-1"><circle class="cls-2" cx="620.91" cy="281.35" r="9.61"/><circle class="cls-3" cx="607.13" cy="273.28" r="9.61"/></g><circle class="cls-4" cx="433.73" cy="397.75" r="6.27" transform="translate(-245.54 297.43) rotate(-32.71)"/><circle class="cls-4" cx="737.73" cy="455.76" r="6.27" transform="translate(-228.68 470.91) rotate(-32.71)"/><circle class="cls-4" cx="618.73" cy="78.76" r="6.27" transform="translate(-43.82 346.82) rotate(-32.71)"/><g class="cls-1"><polygon class="cls-2" points="161.98 537.39 166.03 544.24 169.94 537.31 173.86 530.37 165.9 530.45 157.93 530.53 161.98 537.39"/><polygon class="cls-3" points="156.99 546.1 161.04 552.95 164.95 546.02 168.87 539.08 160.91 539.16 152.94 539.24 156.99 546.1"/></g><g class="cls-1"><polygon class="cls-2" points="277.98 297.39 282.03 304.24 285.94 297.31 289.86 290.37 281.9 290.45 273.93 290.53 277.98 297.39"/><polygon class="cls-3" points="272.99 306.09 277.04 312.95 280.95 306.02 284.87 299.08 276.91 299.16 268.94 299.24 272.99 306.09"/></g><g class="cls-1"><polygon class="cls-2" points="707.98 322.39 712.03 329.24 715.94 322.31 719.86 315.37 711.9 315.45 703.93 315.53 707.98 322.39"/><polygon class="cls-3" points="702.99 331.09 707.04 337.95 710.95 331.02 714.87 324.08 706.9 324.16 698.94 324.24 702.99 331.09"/></g><g class="cls-1"><rect class="cls-2" x="291.48" y="97.23" width="10.96" height="10.96" transform="translate(-100.32 2.72) rotate(-0.53)"/><rect class="cls-3" x="286.92" y="105.17" width="10.96" height="10.96" transform="translate(-100.39 2.68) rotate(-0.53)"/></g><g class="cls-1"><line class="cls-2" x1="159.04" y1="326.96" x2="173.21" y2="311.58"/><line class="cls-2" x1="158.43" y1="312.18" x2="173.81" y2="326.35"/></g><g class="cls-1"><circle class="cls-2" cx="693.49" cy="367.81" r="10.56"/><circle class="cls-3" cx="708.63" cy="376.68" r="10.56"/><circle class="cls-2" cx="287.84" cy="437.24" r="9.61" transform="translate(-251.57 720.77) rotate(-89.44)"/><circle class="cls-3" cx="279.64" cy="450.94" r="9.61" transform="translate(-273.4 726.14) rotate(-89.44)"/><path class="cls-2" d="M923.21,326.29a11.1,11.1,0,1,1,13.36-17.74" transform="translate(-99.38 -0.03)"/><path class="cls-3" d="M930.33,343.37a11.09,11.09,0,1,1,12.82-18.1l.53.4" transform="translate(-99.38 -0.03)"/><path class="cls-2" d="M183.45,349a12.93,12.93,0,0,1,18.11,2.5h0A12.93,12.93,0,0,1,199,369.65h0" transform="translate(-99.38 -0.03)"/><path class="cls-3" d="M162.06,351.55A12.93,12.93,0,0,1,180.18,354h0a12.93,12.93,0,0,1-2.55,18.11h0" transform="translate(-99.38 -0.03)"/><circle class="cls-2" cx="876.62" cy="502.46" r="6.26" transform="translate(-232.32 544.03) rotate(-32.18)"/><polygon class="cls-2" points="763.24 146.11 766.98 132.12 753 135.88 739.02 139.64 749.26 149.87 759.51 160.1 763.24 146.11"/><polygon class="cls-3" points="778.99 155.33 782.73 141.34 768.75 145.1 754.77 148.86 765.01 159.09 775.25 169.32 778.99 155.33"/><line class="cls-2" x1="134.37" y1="200.08" x2="170.23" y2="200.08"/><line class="cls-3" x1="157.18" y1="213.43" x2="193.05" y2="213.43"/><circle class="cls-2" cx="341.71" cy="486.52" r="6.27" transform="translate(-305.03 254.4) rotate(-31.94)"/><circle class="cls-2" cx="160.72" cy="233.11" r="6.27" transform="translate(-198.37 120.29) rotate(-31.94)"/><circle class="cls-2" cx="108.15" cy="372.49" r="6.27" transform="translate(-280.07 113.58) rotate(-31.94)"/><circle class="cls-2" cx="468.42" cy="394.52" r="6.27" transform="translate(-237.18 307.51) rotate(-31.94)"/><circle class="cls-2" cx="528.26" cy="161.82" r="6.27" transform="translate(-105.02 303.94) rotate(-31.94)"/><circle class="cls-2" cx="744.5" cy="370.17" r="6.27" transform="translate(-182.5 449.88) rotate(-31.94)"/><circle class="cls-2" cx="893.47" cy="213.99" r="6.27" transform="translate(-77.32 505.04) rotate(-31.94)"/><line class="cls-2" x1="218.37" y1="368.77" x2="203.12" y2="358.14"/><line class="cls-2" x1="203.59" y1="369.12" x2="217.9" y2="357.79"/><line class="cls-2" x1="302.37" y1="130.55" x2="287.12" y2="116.24"/><line class="cls-2" x1="287.59" y1="131.02" x2="301.9" y2="115.77"/><line class="cls-2" x1="651.37" y1="156.55" x2="636.12" y2="142.24"/><line class="cls-2" x1="636.59" y1="157.02" x2="650.9" y2="141.77"/><line class="cls-2" x1="412.37" y1="372.53" x2="439.8" y2="372.53"/><line class="cls-3" x1="429.82" y1="382.75" x2="457.25" y2="382.75"/><polygon class="cls-2" points="73.54 472.03 76.83 459.73 64.53 463.03 52.24 466.34 61.25 475.33 70.25 484.33 73.54 472.03"/><polygon class="cls-3" points="87.39 480.14 90.68 467.84 78.38 471.14 66.09 474.45 75.09 483.44 84.1 492.44 87.39 480.14"/><polygon class="cls-2" points="513.28 145.71 521.47 140.98 513.28 136.26 505.09 131.54 505.1 140.99 505.1 150.44 513.28 145.71"/><polygon class="cls-3" points="523.57 151.73 531.75 147 523.56 142.28 515.37 137.56 515.38 147.01 515.38 156.46 523.57 151.73"/><polygon class="cls-2" points="341.21 359.51 348.1 355.52 341.2 351.55 334.3 347.57 334.31 355.53 334.31 363.49 341.21 359.51"/><polygon class="cls-3" points="349.87 364.58 356.77 360.59 349.87 356.62 342.97 352.64 342.97 360.6 342.98 368.57 349.87 364.58"/><path class="cls-2" d="M419.85,394.55" transform="translate(-99.38 -0.03)"/><rect class="cls-2" x="576.33" y="336.98" width="12.7" height="10.93"/><rect class="cls-3" x="585.49" y="341.59" width="12.7" height="10.93"/><rect class="cls-2" x="326.33" y="153.98" width="9.21" height="9.22"/><rect class="cls-3" x="332.98" y="157.87" width="9.21" height="9.22"/><rect class="cls-2" x="177.33" y="318.98" width="10.96" height="10.96"/><rect class="cls-3" x="185.23" y="323.6" width="10.96" height="10.96"/></g></svg>