<svg id="Слой_1" data-name="Слой 1" xmlns="http://www.w3.org/2000/svg" viewBox="0 0 549.19 592.39"><defs><style>.cls-1,.cls-4{opacity:0.7;}.cls-2,.cls-3,.cls-4{fill:none;stroke:#fff;}.cls-2,.cls-4{stroke-linecap:round;stroke-linejoin:round;stroke-width:5px;}.cls-3{stroke-miterlimit:10;}</style></defs><title>bg-successloser</title><g class="cls-1"><polygon class="cls-2" points="289.01 255.58 292.89 241.06 278.39 244.96 263.87 248.86 274.5 259.48 285.13 270.1 289.01 255.58"/><polygon class="cls-3" points="305.36 265.15 309.24 250.63 294.73 254.53 280.22 258.43 290.85 269.05 301.48 279.67 305.36 265.15"/></g><g class="cls-1"><path class="cls-2" d="M169.28,168.8c-5.69,0-4.71-10.1-12-10.1" transform="translate(-24.74 -4.11)"/><path class="cls-2" d="M193.23,168.8c-5.69,0-4.71-10.1-12-10.1" transform="translate(-24.74 -4.11)"/><path class="cls-2" d="M169.28,168.8c5.69,0,4.71-10.1,12-10.1" transform="translate(-24.74 -4.11)"/><path class="cls-2" d="M205.2,158.7" transform="translate(-24.74 -4.11)"/><path class="cls-2" d="M193.23,168.8c5.69,0,4.71-10.1,12-10.1" transform="translate(-24.74 -4.11)"/><path class="cls-3" d="M188.07,179.81c-5.69,0-4.71-10.1-12-10.1" transform="translate(-24.74 -4.11)"/><path class="cls-3" d="M212,179.81c-5.69,0-4.71-10.1-12-10.1" transform="translate(-24.74 -4.11)"/><path class="cls-3" d="M188.07,179.81c5.69,0,4.71-10.1,12-10.1" transform="translate(-24.74 -4.11)"/><path class="cls-3" d="M224,169.71" transform="translate(-24.74 -4.11)"/><path class="cls-3" d="M212,179.81c5.69,0,4.71-10.1,12-10.1" transform="translate(-24.74 -4.11)"/></g><g class="cls-1"><line class="cls-2" x1="132.44" y1="421.92" x2="117.19" y2="407.61"/><line class="cls-2" x1="117.66" y1="422.39" x2="131.97" y2="407.14"/></g><g class="cls-1"><line class="cls-2" x1="466.44" y1="51.92" x2="451.19" y2="37.61"/><line class="cls-2" x1="451.66" y1="52.39" x2="465.97" y2="37.14"/></g><g class="cls-1"><line class="cls-2" x1="263.23" y1="144.81" x2="282.23" y2="125.81"/><line class="cls-3" x1="280.32" y1="154.82" x2="299.33" y2="135.82"/></g><circle class="cls-4" cx="115.05" cy="12.88" r="6.26" transform="matrix(0.85, -0.53, 0.53, 0.85, -13.92, 59.14)"/><circle class="cls-4" cx="336.05" cy="58.88" r="6.26" transform="matrix(0.85, -0.53, 0.53, 0.85, -4.47, 183.92)"/><g class="cls-1"><polygon class="cls-2" points="99.42 559.36 108.91 553.87 99.41 548.4 89.92 542.93 89.93 553.89 89.93 564.84 99.42 559.36"/><polygon class="cls-3" points="111.34 566.34 120.82 560.85 111.33 555.38 101.84 549.91 101.85 560.87 101.85 571.82 111.34 566.34"/></g><g class="cls-1"><rect class="cls-2" x="206.4" y="289.35" width="12.7" height="10.93"/><rect class="cls-3" x="215.56" y="293.96" width="12.7" height="10.93"/></g><g class="cls-1"><rect class="cls-2" x="164.4" y="576.35" width="12.7" height="10.93"/><rect class="cls-3" x="173.56" y="580.96" width="12.7" height="10.93"/></g><g class="cls-1"><polygon class="cls-2" points="289.01 255.58 292.89 241.06 278.39 244.96 263.87 248.86 274.5 259.48 285.13 270.1 289.01 255.58"/><polygon class="cls-3" points="305.36 265.15 309.24 250.63 294.73 254.53 280.22 258.43 290.85 269.05 301.48 279.67 305.36 265.15"/></g><g class="cls-1"><path class="cls-2" d="M169.28,168.8c-5.69,0-4.71-10.1-12-10.1" transform="translate(-24.74 -4.11)"/><path class="cls-2" d="M193.23,168.8c-5.69,0-4.71-10.1-12-10.1" transform="translate(-24.74 -4.11)"/><path class="cls-2" d="M169.28,168.8c5.69,0,4.71-10.1,12-10.1" transform="translate(-24.74 -4.11)"/><path class="cls-2" d="M205.2,158.7" transform="translate(-24.74 -4.11)"/><path class="cls-2" d="M193.23,168.8c5.69,0,4.71-10.1,12-10.1" transform="translate(-24.74 -4.11)"/><path class="cls-3" d="M188.07,179.81c-5.69,0-4.71-10.1-12-10.1" transform="translate(-24.74 -4.11)"/><path class="cls-3" d="M212,179.81c-5.69,0-4.71-10.1-12-10.1" transform="translate(-24.74 -4.11)"/><path class="cls-3" d="M188.07,179.81c5.69,0,4.71-10.1,12-10.1" transform="translate(-24.74 -4.11)"/><path class="cls-3" d="M224,169.71" transform="translate(-24.74 -4.11)"/><path class="cls-3" d="M212,179.81c5.69,0,4.71-10.1,12-10.1" transform="translate(-24.74 -4.11)"/></g><g class="cls-1"><line class="cls-2" x1="132.44" y1="421.92" x2="117.19" y2="407.61"/><line class="cls-2" x1="117.66" y1="422.39" x2="131.97" y2="407.14"/></g><g class="cls-1"><line class="cls-2" x1="466.44" y1="51.92" x2="451.19" y2="37.61"/><line class="cls-2" x1="451.66" y1="52.39" x2="465.97" y2="37.14"/></g><g class="cls-1"><line class="cls-2" x1="263.23" y1="144.81" x2="282.23" y2="125.81"/><line class="cls-3" x1="280.32" y1="154.82" x2="299.33" y2="135.82"/></g><circle class="cls-4" cx="115.05" cy="12.88" r="6.26" transform="matrix(0.85, -0.53, 0.53, 0.85, -13.92, 59.14)"/><circle class="cls-4" cx="336.05" cy="58.88" r="6.26" transform="matrix(0.85, -0.53, 0.53, 0.85, -4.47, 183.92)"/><g class="cls-1"><polygon class="cls-2" points="99.42 559.36 108.91 553.87 99.41 548.4 89.92 542.93 89.93 553.89 89.93 564.84 99.42 559.36"/><polygon class="cls-3" points="111.34 566.34 120.82 560.85 111.33 555.38 101.84 549.91 101.85 560.87 101.85 571.82 111.34 566.34"/></g><g class="cls-1"><rect class="cls-2" x="206.4" y="289.35" width="12.7" height="10.93"/><rect class="cls-3" x="215.56" y="293.96" width="12.7" height="10.93"/></g><g class="cls-1"><rect class="cls-2" x="164.4" y="576.35" width="12.7" height="10.93"/><rect class="cls-3" x="173.56" y="580.96" width="12.7" height="10.93"/></g><g class="cls-1"><line class="cls-2" x1="429.69" y1="48.03" x2="429.94" y2="75.46"/><line class="cls-3" x1="419.63" y1="65.58" x2="419.88" y2="93.01"/></g><circle class="cls-4" cx="565.16" cy="231.21" r="6.27" transform="translate(-60.06 337.96) rotate(-32.71)"/><g class="cls-1"><path class="cls-2" d="M332.17,443.09c0-5.14,9.08-4.34,9-10.9" transform="translate(-24.74 -4.11)"/><path class="cls-2" d="M332.37,464.73c0-5.14,9.08-4.34,9-10.9" transform="translate(-24.74 -4.11)"/><path class="cls-2" d="M332.17,443.09c0,5.14,9.16,4.17,9.22,10.73" transform="translate(-24.74 -4.11)"/><path class="cls-2" d="M341.59,475.46" transform="translate(-24.74 -4.11)"/><path class="cls-2" d="M332.37,464.73c0,5.14,9.16,4.17,9.22,10.73" transform="translate(-24.74 -4.11)"/><path class="cls-3" d="M322.39,460.16c0-5.14,9.08-4.34,9-10.9" transform="translate(-24.74 -4.11)"/><path class="cls-3" d="M322.59,481.8c0-5.14,9.08-4.34,9-10.9" transform="translate(-24.74 -4.11)"/><path class="cls-3" d="M322.39,460.16c0,5.14,9.16,4.17,9.22,10.73" transform="translate(-24.74 -4.11)"/><path class="cls-3" d="M331.81,492.53" transform="translate(-24.74 -4.11)"/><path class="cls-3" d="M322.59,481.8c0,5.14,9.16,4.17,9.22,10.73" transform="translate(-24.74 -4.11)"/></g><g class="cls-1"><polygon class="cls-2" points="71.05 295.76 75.1 302.61 79.01 295.68 82.93 288.74 74.97 288.82 67 288.9 71.05 295.76"/><polygon class="cls-3" points="66.06 304.46 70.11 311.32 74.02 304.39 77.94 297.45 69.97 297.53 62.01 297.61 66.06 304.46"/></g><g class="cls-1"><line class="cls-2" x1="3.11" y1="577.33" x2="17.28" y2="561.95"/><line class="cls-2" x1="2.5" y1="562.55" x2="17.88" y2="576.72"/></g></svg>