<svg id="Слой_1" data-name="Слой 1" xmlns="http://www.w3.org/2000/svg" viewBox="0 0 635.42 1140.54"><defs><style>.cls-1,.cls-4,.cls-7{opacity:0.7;}.cls-2,.cls-3,.cls-4,.cls-6,.cls-7{fill:none;}.cls-2,.cls-3,.cls-4{stroke:#fff;}.cls-2,.cls-4,.cls-6,.cls-7{stroke-linecap:round;stroke-linejoin:round;stroke-width:5px;}.cls-3{stroke-miterlimit:10;}.cls-4,.cls-7{isolation:isolate;}.cls-5{opacity:0.4;}.cls-6,.cls-7{stroke:#00c5db;}</style></defs><title>bg-scheme480</title><g class="cls-1"><polygon class="cls-2" points="331.8 513.69 335.68 499.18 321.17 503.08 306.66 506.97 317.29 517.59 327.92 528.21 331.8 513.69"/><polygon class="cls-3" points="348.14 523.26 352.02 508.75 337.51 512.65 323 516.55 333.63 527.16 344.26 537.78 348.14 523.26"/></g><g class="cls-1"><path class="cls-2" d="M439.89,170.24c-5.69,0-4.71-10.1-12-10.1" transform="translate(-252.56 252.56)"/><path class="cls-2" d="M463.84,170.24c-5.69,0-4.71-10.1-12-10.1" transform="translate(-252.56 252.56)"/><path class="cls-2" d="M439.89,170.24c5.69,0,4.71-10.1,12-10.1" transform="translate(-252.56 252.56)"/><path class="cls-2" d="M475.81,160.14" transform="translate(-252.56 252.56)"/><path class="cls-2" d="M463.84,170.24c5.69,0,4.71-10.1,12-10.1" transform="translate(-252.56 252.56)"/><path class="cls-3" d="M458.68,181.25c-5.69,0-4.71-10.1-12-10.1" transform="translate(-252.56 252.56)"/><path class="cls-3" d="M482.61,181.25c-5.69,0-4.71-10.1-12-10.1" transform="translate(-252.56 252.56)"/><path class="cls-3" d="M458.68,181.25c5.69,0,4.71-10.1,12-10.1" transform="translate(-252.56 252.56)"/><path class="cls-3" d="M494.61,171.15" transform="translate(-252.56 252.56)"/><path class="cls-3" d="M482.61,181.25c5.69,0,4.71-10.1,12-10.1" transform="translate(-252.56 252.56)"/></g><g class="cls-1"><line class="cls-2" x1="175.23" y1="680.03" x2="159.97" y2="665.73"/><line class="cls-2" x1="160.45" y1="680.51" x2="174.75" y2="665.25"/></g><g class="cls-1"><line class="cls-2" x1="509.23" y1="310.03" x2="493.97" y2="295.73"/><line class="cls-2" x1="494.45" y1="310.51" x2="508.75" y2="295.25"/></g><g class="cls-1"><line class="cls-2" x1="306.01" y1="402.93" x2="325.02" y2="383.92"/><line class="cls-3" x1="323.11" y1="412.94" x2="342.11" y2="393.93"/></g><circle class="cls-4" cx="386.04" cy="14.67" r="6.27" transform="translate(-201.86 459.04) rotate(-31.94)"/><circle class="cls-4" cx="607.73" cy="61.41" r="6.27" transform="translate(-193.01 583.41) rotate(-31.94)"/><g class="cls-1"><polygon class="cls-2" points="142.2 817.47 151.69 811.99 142.2 806.52 132.7 801.05 132.71 812 132.72 822.96 142.2 817.47"/><polygon class="cls-3" points="154.12 824.45 163.61 818.96 154.12 813.5 144.62 808.02 144.63 818.98 144.64 829.94 154.12 824.45"/></g><g class="cls-1"><rect class="cls-2" x="249.19" y="547.46" width="12.7" height="10.93"/><rect class="cls-3" x="258.34" y="552.07" width="12.7" height="10.93"/></g><g class="cls-1"><rect class="cls-2" x="207.19" y="834.46" width="12.7" height="10.93"/><rect class="cls-3" x="216.34" y="839.07" width="12.7" height="10.93"/></g><g class="cls-1"><polygon class="cls-2" points="331.8 513.69 335.68 499.18 321.17 503.08 306.66 506.97 317.29 517.59 327.92 528.21 331.8 513.69"/><polygon class="cls-3" points="348.14 523.26 352.02 508.75 337.51 512.65 323 516.55 333.63 527.16 344.26 537.78 348.14 523.26"/></g><g class="cls-1"><path class="cls-2" d="M439.89,170.24c-5.69,0-4.71-10.1-12-10.1" transform="translate(-252.56 252.56)"/><path class="cls-2" d="M463.84,170.24c-5.69,0-4.71-10.1-12-10.1" transform="translate(-252.56 252.56)"/><path class="cls-2" d="M439.89,170.24c5.69,0,4.71-10.1,12-10.1" transform="translate(-252.56 252.56)"/><path class="cls-2" d="M475.81,160.14" transform="translate(-252.56 252.56)"/><path class="cls-2" d="M463.84,170.24c5.69,0,4.71-10.1,12-10.1" transform="translate(-252.56 252.56)"/><path class="cls-3" d="M458.68,181.25c-5.69,0-4.71-10.1-12-10.1" transform="translate(-252.56 252.56)"/><path class="cls-3" d="M482.61,181.25c-5.69,0-4.71-10.1-12-10.1" transform="translate(-252.56 252.56)"/><path class="cls-3" d="M458.68,181.25c5.69,0,4.71-10.1,12-10.1" transform="translate(-252.56 252.56)"/><path class="cls-3" d="M494.61,171.15" transform="translate(-252.56 252.56)"/><path class="cls-3" d="M482.61,181.25c5.69,0,4.71-10.1,12-10.1" transform="translate(-252.56 252.56)"/></g><g class="cls-1"><line class="cls-2" x1="175.23" y1="680.03" x2="159.97" y2="665.73"/><line class="cls-2" x1="160.45" y1="680.51" x2="174.75" y2="665.25"/></g><g class="cls-1"><line class="cls-2" x1="509.23" y1="310.03" x2="493.97" y2="295.73"/><line class="cls-2" x1="494.45" y1="310.51" x2="508.75" y2="295.25"/></g><g class="cls-1"><line class="cls-2" x1="306.01" y1="402.93" x2="325.02" y2="383.92"/><line class="cls-3" x1="323.11" y1="412.94" x2="342.11" y2="393.93"/></g><circle class="cls-4" cx="386.04" cy="14.67" r="6.27" transform="translate(-201.86 459.04) rotate(-31.94)"/><circle class="cls-4" cx="607.73" cy="61.41" r="6.27" transform="translate(-193.01 583.41) rotate(-31.94)"/><g class="cls-1"><polygon class="cls-2" points="142.2 817.47 151.69 811.99 142.2 806.52 132.7 801.05 132.71 812 132.72 822.96 142.2 817.47"/><polygon class="cls-3" points="154.12 824.45 163.61 818.96 154.12 813.5 144.62 808.02 144.63 818.98 144.64 829.94 154.12 824.45"/></g><g class="cls-1"><rect class="cls-2" x="249.19" y="547.46" width="12.7" height="10.93"/><rect class="cls-3" x="258.34" y="552.07" width="12.7" height="10.93"/></g><g class="cls-1"><rect class="cls-2" x="207.19" y="834.46" width="12.7" height="10.93"/><rect class="cls-3" x="216.34" y="839.07" width="12.7" height="10.93"/></g><g class="cls-5"><g class="cls-1"><line class="cls-6" x1="371.88" y1="994.07" x2="356.5" y2="979.91"/><line class="cls-6" x1="357.11" y1="994.68" x2="371.27" y2="979.3"/></g><g class="cls-1"><line class="cls-6" x1="371.88" y1="99.07" x2="356.5" y2="84.91"/><line class="cls-6" x1="357.11" y1="99.68" x2="371.27" y2="84.3"/></g><g class="cls-1"><line class="cls-6" x1="505.88" y1="556.07" x2="490.5" y2="541.91"/><line class="cls-6" x1="491.11" y1="556.68" x2="505.27" y2="541.3"/></g><g class="cls-1"><line class="cls-6" x1="17.88" y1="988.07" x2="2.5" y2="973.91"/><line class="cls-6" x1="3.11" y1="988.68" x2="17.27" y2="973.3"/></g><g class="cls-1"><line class="cls-6" x1="96.88" y1="172.07" x2="81.5" y2="157.91"/><line class="cls-6" x1="82.11" y1="172.68" x2="96.27" y2="157.3"/></g><g class="cls-1"><line class="cls-6" x1="623.88" y1="936.07" x2="608.5" y2="921.91"/><line class="cls-6" x1="609.11" y1="936.68" x2="623.27" y2="921.3"/></g><circle class="cls-7" cx="540.2" cy="-23.79" r="6.27" transform="translate(-154.03 540.71) rotate(-32.71)"/><circle class="cls-7" cx="694.2" cy="439.2" r="6.27" transform="translate(-379.81 697.35) rotate(-32.71)"/><circle class="cls-7" cx="633.2" cy="178.21" r="6.27" transform="translate(-248.44 623) rotate(-32.71)"/><circle class="cls-7" cx="879.2" cy="232.21" r="6.27" transform="translate(-238.61 764.49) rotate(-32.71)"/><circle class="cls-7" cx="533.21" cy="781.21" r="6.27" transform="translate(-590.16 664.58) rotate(-32.71)"/><circle class="cls-7" cx="348.2" cy="676.2" r="6.27" transform="translate(-562.75 547.96) rotate(-32.71)"/><circle class="cls-7" cx="273.21" cy="-75.79" r="6.27" transform="translate(-168.27 388.18) rotate(-32.71)"/><circle class="cls-7" cx="378.21" cy="197.2" r="6.27" transform="translate(-299.15 488.21) rotate(-32.71)"/><circle class="cls-7" cx="774.21" cy="879.21" r="6.27" transform="translate(-604.89 810.36) rotate(-32.71)"/><circle class="cls-7" cx="785.21" cy="-243.79" r="6.27" transform="translate(3.7 638.21) rotate(-32.71)"/></g></svg>