<svg id="Слой_1" data-name="Слой 1" xmlns="http://www.w3.org/2000/svg" viewBox="0 0 594.22 648.25"><defs><style>.cls-1,.cls-4{opacity:0.7;}.cls-2,.cls-3,.cls-4{fill:none;stroke:#fff;}.cls-2,.cls-4{stroke-linecap:round;stroke-linejoin:round;stroke-width:5px;}.cls-3{stroke-miterlimit:10;}</style></defs><title>bg-successwinner</title><g class="cls-1"><polygon class="cls-2" points="310.88 268 314.76 253.48 300.25 257.39 285.74 261.28 296.37 271.9 307 282.52 310.88 268"/><polygon class="cls-3" points="327.22 277.57 331.11 263.05 316.6 266.96 302.08 270.85 312.72 281.47 323.35 292.09 327.22 277.57"/></g><g class="cls-1"><path class="cls-2" d="M169.28,168.8c-5.69,0-4.71-10.1-12-10.1" transform="translate(-2.87 8.31)"/><path class="cls-2" d="M193.23,168.8c-5.69,0-4.71-10.1-12-10.1" transform="translate(-2.87 8.31)"/><path class="cls-2" d="M169.28,168.8c5.69,0,4.71-10.1,12-10.1" transform="translate(-2.87 8.31)"/><path class="cls-2" d="M205.2,158.7" transform="translate(-2.87 8.31)"/><path class="cls-2" d="M193.23,168.8c5.69,0,4.71-10.1,12-10.1" transform="translate(-2.87 8.31)"/><path class="cls-3" d="M188.07,179.81c-5.69,0-4.71-10.1-12-10.1" transform="translate(-2.87 8.31)"/><path class="cls-3" d="M212,179.81c-5.69,0-4.71-10.1-12-10.1" transform="translate(-2.87 8.31)"/><path class="cls-3" d="M188.07,179.81c5.69,0,4.71-10.1,12-10.1" transform="translate(-2.87 8.31)"/><path class="cls-3" d="M224,169.71" transform="translate(-2.87 8.31)"/><path class="cls-3" d="M212,179.81c5.69,0,4.71-10.1,12-10.1" transform="translate(-2.87 8.31)"/></g><g class="cls-1"><line class="cls-2" x1="154.31" y1="434.34" x2="139.06" y2="420.03"/><line class="cls-2" x1="139.53" y1="434.82" x2="153.84" y2="419.56"/></g><g class="cls-1"><line class="cls-2" x1="488.31" y1="64.34" x2="473.06" y2="50.03"/><line class="cls-2" x1="473.53" y1="64.82" x2="487.84" y2="49.56"/></g><g class="cls-1"><line class="cls-2" x1="285.1" y1="157.24" x2="304.1" y2="138.23"/><line class="cls-3" x1="302.19" y1="167.25" x2="321.2" y2="148.24"/></g><circle class="cls-4" cx="115.05" cy="12.88" r="6.26" transform="matrix(0.85, -0.53, 0.53, 0.85, 7.95, 71.57)"/><circle class="cls-4" cx="336.05" cy="58.88" r="6.26" transform="matrix(0.85, -0.53, 0.53, 0.85, 17.4, 196.34)"/><g class="cls-1"><polygon class="cls-2" points="121.29 571.78 130.78 566.29 121.28 560.83 111.79 555.35 111.8 566.31 111.8 577.27 121.29 571.78"/><polygon class="cls-3" points="133.21 578.76 142.69 573.27 133.2 567.8 123.71 562.33 123.72 573.29 123.72 584.24 133.21 578.76"/></g><g class="cls-1"><rect class="cls-2" x="228.27" y="301.77" width="12.7" height="10.93"/><rect class="cls-3" x="237.43" y="306.38" width="12.7" height="10.93"/></g><g class="cls-1"><rect class="cls-2" x="186.27" y="588.77" width="12.7" height="10.93"/><rect class="cls-3" x="195.43" y="593.38" width="12.7" height="10.93"/></g><g class="cls-1"><polygon class="cls-2" points="310.88 268 314.76 253.48 300.25 257.39 285.74 261.28 296.37 271.9 307 282.52 310.88 268"/><polygon class="cls-3" points="327.22 277.57 331.11 263.05 316.6 266.96 302.08 270.85 312.72 281.47 323.35 292.09 327.22 277.57"/></g><g class="cls-1"><path class="cls-2" d="M169.28,168.8c-5.69,0-4.71-10.1-12-10.1" transform="translate(-2.87 8.31)"/><path class="cls-2" d="M193.23,168.8c-5.69,0-4.71-10.1-12-10.1" transform="translate(-2.87 8.31)"/><path class="cls-2" d="M169.28,168.8c5.69,0,4.71-10.1,12-10.1" transform="translate(-2.87 8.31)"/><path class="cls-2" d="M205.2,158.7" transform="translate(-2.87 8.31)"/><path class="cls-2" d="M193.23,168.8c5.69,0,4.71-10.1,12-10.1" transform="translate(-2.87 8.31)"/><path class="cls-3" d="M188.07,179.81c-5.69,0-4.71-10.1-12-10.1" transform="translate(-2.87 8.31)"/><path class="cls-3" d="M212,179.81c-5.69,0-4.71-10.1-12-10.1" transform="translate(-2.87 8.31)"/><path class="cls-3" d="M188.07,179.81c5.69,0,4.71-10.1,12-10.1" transform="translate(-2.87 8.31)"/><path class="cls-3" d="M224,169.71" transform="translate(-2.87 8.31)"/><path class="cls-3" d="M212,179.81c5.69,0,4.71-10.1,12-10.1" transform="translate(-2.87 8.31)"/></g><g class="cls-1"><line class="cls-2" x1="154.31" y1="434.34" x2="139.06" y2="420.03"/><line class="cls-2" x1="139.53" y1="434.82" x2="153.84" y2="419.56"/></g><g class="cls-1"><line class="cls-2" x1="488.31" y1="64.34" x2="473.06" y2="50.03"/><line class="cls-2" x1="473.53" y1="64.82" x2="487.84" y2="49.56"/></g><g class="cls-1"><line class="cls-2" x1="285.1" y1="157.24" x2="304.1" y2="138.23"/><line class="cls-3" x1="302.19" y1="167.25" x2="321.2" y2="148.24"/></g><circle class="cls-4" cx="115.05" cy="12.88" r="6.26" transform="matrix(0.85, -0.53, 0.53, 0.85, 7.95, 71.57)"/><circle class="cls-4" cx="336.05" cy="58.88" r="6.26" transform="matrix(0.85, -0.53, 0.53, 0.85, 17.4, 196.34)"/><g class="cls-1"><polygon class="cls-2" points="121.29 571.78 130.78 566.29 121.28 560.83 111.79 555.35 111.8 566.31 111.8 577.27 121.29 571.78"/><polygon class="cls-3" points="133.21 578.76 142.69 573.27 133.2 567.8 123.71 562.33 123.72 573.29 123.72 584.24 133.21 578.76"/></g><g class="cls-1"><rect class="cls-2" x="228.27" y="301.77" width="12.7" height="10.93"/><rect class="cls-3" x="237.43" y="306.38" width="12.7" height="10.93"/></g><g class="cls-1"><rect class="cls-2" x="186.27" y="588.77" width="12.7" height="10.93"/><rect class="cls-3" x="195.43" y="593.38" width="12.7" height="10.93"/></g><g class="cls-1"><line class="cls-2" x1="10.56" y1="149.45" x2="10.81" y2="176.89"/><line class="cls-3" x1="0.5" y1="167" x2="0.75" y2="194.43"/></g><g class="cls-1"><path class="cls-2" d="M363.92,249.64a12.9,12.9,0,1,1-20.44,15.75" transform="translate(-2.87 8.31)"/><path class="cls-3" d="M361.19,228.28A12.9,12.9,0,1,1,340.76,244" transform="translate(-2.87 8.31)"/></g><g class="cls-1"><circle class="cls-2" cx="57.85" cy="108.15" r="9.61"/><circle class="cls-3" cx="44.07" cy="100.07" r="9.61"/></g><circle class="cls-4" cx="269.16" cy="349.21" r="6.27" transform="translate(-148.89 209.14) rotate(-32.71)"/><circle class="cls-4" cx="202.16" cy="139.21" r="6.27" transform="translate(-46.04 139.63) rotate(-32.71)"/><g class="cls-1"><path class="cls-2" d="M585.17,5.09c0-5.14,9.08-4.34,9-10.9" transform="translate(-2.87 8.31)"/><path class="cls-2" d="M585.37,26.73c0-5.14,9.08-4.34,9-10.9" transform="translate(-2.87 8.31)"/><path class="cls-2" d="M585.17,5.09c0,5.14,9.16,4.17,9.22,10.73" transform="translate(-2.87 8.31)"/><path class="cls-2" d="M594.59,37.46" transform="translate(-2.87 8.31)"/><path class="cls-2" d="M585.37,26.73c0,5.14,9.16,4.17,9.22,10.73" transform="translate(-2.87 8.31)"/><path class="cls-3" d="M575.39,22.16c0-5.14,9.08-4.34,9-10.9" transform="translate(-2.87 8.31)"/><path class="cls-3" d="M575.59,43.8c0-5.14,9.08-4.34,9-10.9" transform="translate(-2.87 8.31)"/><path class="cls-3" d="M575.39,22.16c0,5.14,9.16,4.17,9.22,10.73" transform="translate(-2.87 8.31)"/><path class="cls-3" d="M584.81,54.53" transform="translate(-2.87 8.31)"/><path class="cls-3" d="M575.59,43.8c0,5.14,9.16,4.17,9.22,10.73" transform="translate(-2.87 8.31)"/></g><g class="cls-1"><path class="cls-2" d="M158.17,422.09c0-5.14,9.08-4.34,9-10.9" transform="translate(-2.87 8.31)"/><path class="cls-2" d="M158.37,443.73c0-5.14,9.08-4.34,9-10.9" transform="translate(-2.87 8.31)"/><path class="cls-2" d="M158.17,422.09c0,5.14,9.16,4.17,9.22,10.73" transform="translate(-2.87 8.31)"/><path class="cls-2" d="M167.59,454.46" transform="translate(-2.87 8.31)"/><path class="cls-2" d="M158.37,443.73c0,5.14,9.16,4.17,9.22,10.73" transform="translate(-2.87 8.31)"/><path class="cls-3" d="M148.39,439.16c0-5.14,9.08-4.34,9-10.9" transform="translate(-2.87 8.31)"/><path class="cls-3" d="M148.59,460.8c0-5.14,9.08-4.34,9-10.9" transform="translate(-2.87 8.31)"/><path class="cls-3" d="M148.39,439.16c0,5.14,9.16,4.17,9.22,10.73" transform="translate(-2.87 8.31)"/><path class="cls-3" d="M157.81,471.53" transform="translate(-2.87 8.31)"/><path class="cls-3" d="M148.59,460.8c0,5.14,9.16,4.17,9.22,10.73" transform="translate(-2.87 8.31)"/></g><g class="cls-1"><rect class="cls-2" x="231.9" y="468.68" width="10.96" height="10.96" transform="translate(-7.23 10.52) rotate(-0.53)"/><rect class="cls-3" x="227.35" y="476.62" width="10.96" height="10.96" transform="translate(-7.3 10.47) rotate(-0.53)"/></g><g class="cls-1"><line class="cls-2" x1="83.98" y1="384.75" x2="98.15" y2="369.37"/><line class="cls-2" x1="83.37" y1="369.98" x2="98.75" y2="384.14"/></g><g class="cls-1"><line class="cls-2" x1="24.98" y1="645.75" x2="39.15" y2="630.37"/><line class="cls-2" x1="24.37" y1="630.98" x2="39.75" y2="645.14"/></g></svg>