<svg id="Слой_1" data-name="Слой 1" xmlns="http://www.w3.org/2000/svg" viewBox="0 0 570.29 592.39"><defs><style>.cls-1,.cls-4{opacity:0.7;}.cls-2,.cls-3,.cls-4{fill:none;stroke:#fff;}.cls-2,.cls-4{stroke-linecap:round;stroke-linejoin:round;stroke-width:5px;}.cls-3{stroke-miterlimit:10;}</style></defs><title>bg-saleswinner</title><g class="cls-1"><polygon class="cls-2" points="299.87 255.58 303.75 241.06 289.25 244.96 274.73 248.86 285.37 259.48 296 270.1 299.87 255.58"/><polygon class="cls-3" points="316.22 265.15 320.1 250.63 305.59 254.53 291.08 258.43 301.71 269.05 312.34 279.67 316.22 265.15"/></g><g class="cls-1"><path class="cls-2" d="M169.28,168.8c-5.69,0-4.71-10.1-12-10.1" transform="translate(-13.88 -4.11)"/><path class="cls-2" d="M193.23,168.8c-5.69,0-4.71-10.1-12-10.1" transform="translate(-13.88 -4.11)"/><path class="cls-2" d="M169.28,168.8c5.69,0,4.71-10.1,12-10.1" transform="translate(-13.88 -4.11)"/><path class="cls-2" d="M205.2,158.7" transform="translate(-13.88 -4.11)"/><path class="cls-2" d="M193.23,168.8c5.69,0,4.71-10.1,12-10.1" transform="translate(-13.88 -4.11)"/><path class="cls-3" d="M188.07,179.81c-5.69,0-4.71-10.1-12-10.1" transform="translate(-13.88 -4.11)"/><path class="cls-3" d="M212,179.81c-5.69,0-4.71-10.1-12-10.1" transform="translate(-13.88 -4.11)"/><path class="cls-3" d="M188.07,179.81c5.69,0,4.71-10.1,12-10.1" transform="translate(-13.88 -4.11)"/><path class="cls-3" d="M224,169.71" transform="translate(-13.88 -4.11)"/><path class="cls-3" d="M212,179.81c5.69,0,4.71-10.1,12-10.1" transform="translate(-13.88 -4.11)"/></g><g class="cls-1"><line class="cls-2" x1="143.3" y1="421.92" x2="128.05" y2="407.61"/><line class="cls-2" x1="128.52" y1="422.39" x2="142.83" y2="407.14"/></g><g class="cls-1"><line class="cls-2" x1="477.3" y1="51.92" x2="462.05" y2="37.61"/><line class="cls-2" x1="462.52" y1="52.39" x2="476.83" y2="37.14"/></g><g class="cls-1"><line class="cls-2" x1="274.09" y1="144.81" x2="293.09" y2="125.81"/><line class="cls-3" x1="291.18" y1="154.82" x2="310.19" y2="135.82"/></g><circle class="cls-4" cx="115.05" cy="12.88" r="6.26" transform="matrix(0.85, -0.53, 0.53, 0.85, -3.06, 59.14)"/><circle class="cls-4" cx="336.05" cy="58.88" r="6.26" transform="matrix(0.85, -0.53, 0.53, 0.85, 6.39, 183.92)"/><g class="cls-1"><polygon class="cls-2" points="110.28 559.36 119.77 553.87 110.28 548.4 100.78 542.93 100.79 553.89 100.8 564.84 110.28 559.36"/><polygon class="cls-3" points="122.2 566.34 131.69 560.85 122.19 555.38 112.7 549.91 112.71 560.87 112.71 571.82 122.2 566.34"/></g><g class="cls-1"><rect class="cls-2" x="217.26" y="289.35" width="12.7" height="10.93"/><rect class="cls-3" x="226.42" y="293.96" width="12.7" height="10.93"/></g><g class="cls-1"><rect class="cls-2" x="175.26" y="576.35" width="12.7" height="10.93"/><rect class="cls-3" x="184.42" y="580.96" width="12.7" height="10.93"/></g><g class="cls-1"><polygon class="cls-2" points="299.87 255.58 303.75 241.06 289.25 244.96 274.73 248.86 285.37 259.48 296 270.1 299.87 255.58"/><polygon class="cls-3" points="316.22 265.15 320.1 250.63 305.59 254.53 291.08 258.43 301.71 269.05 312.34 279.67 316.22 265.15"/></g><g class="cls-1"><path class="cls-2" d="M169.28,168.8c-5.69,0-4.71-10.1-12-10.1" transform="translate(-13.88 -4.11)"/><path class="cls-2" d="M193.23,168.8c-5.69,0-4.71-10.1-12-10.1" transform="translate(-13.88 -4.11)"/><path class="cls-2" d="M169.28,168.8c5.69,0,4.71-10.1,12-10.1" transform="translate(-13.88 -4.11)"/><path class="cls-2" d="M205.2,158.7" transform="translate(-13.88 -4.11)"/><path class="cls-2" d="M193.23,168.8c5.69,0,4.71-10.1,12-10.1" transform="translate(-13.88 -4.11)"/><path class="cls-3" d="M188.07,179.81c-5.69,0-4.71-10.1-12-10.1" transform="translate(-13.88 -4.11)"/><path class="cls-3" d="M212,179.81c-5.69,0-4.71-10.1-12-10.1" transform="translate(-13.88 -4.11)"/><path class="cls-3" d="M188.07,179.81c5.69,0,4.71-10.1,12-10.1" transform="translate(-13.88 -4.11)"/><path class="cls-3" d="M224,169.71" transform="translate(-13.88 -4.11)"/><path class="cls-3" d="M212,179.81c5.69,0,4.71-10.1,12-10.1" transform="translate(-13.88 -4.11)"/></g><g class="cls-1"><line class="cls-2" x1="143.3" y1="421.92" x2="128.05" y2="407.61"/><line class="cls-2" x1="128.52" y1="422.39" x2="142.83" y2="407.14"/></g><g class="cls-1"><line class="cls-2" x1="477.3" y1="51.92" x2="462.05" y2="37.61"/><line class="cls-2" x1="462.52" y1="52.39" x2="476.83" y2="37.14"/></g><g class="cls-1"><line class="cls-2" x1="274.09" y1="144.81" x2="293.09" y2="125.81"/><line class="cls-3" x1="291.18" y1="154.82" x2="310.19" y2="135.82"/></g><circle class="cls-4" cx="115.05" cy="12.88" r="6.26" transform="matrix(0.85, -0.53, 0.53, 0.85, -3.06, 59.14)"/><circle class="cls-4" cx="336.05" cy="58.88" r="6.26" transform="matrix(0.85, -0.53, 0.53, 0.85, 6.39, 183.92)"/><g class="cls-1"><polygon class="cls-2" points="110.28 559.36 119.77 553.87 110.28 548.4 100.78 542.93 100.79 553.89 100.8 564.84 110.28 559.36"/><polygon class="cls-3" points="122.2 566.34 131.69 560.85 122.19 555.38 112.7 549.91 112.71 560.87 112.71 571.82 122.2 566.34"/></g><g class="cls-1"><rect class="cls-2" x="217.26" y="289.35" width="12.7" height="10.93"/><rect class="cls-3" x="226.42" y="293.96" width="12.7" height="10.93"/></g><g class="cls-1"><rect class="cls-2" x="175.26" y="576.35" width="12.7" height="10.93"/><rect class="cls-3" x="184.42" y="580.96" width="12.7" height="10.93"/></g><g class="cls-1"><polygon class="cls-2" points="430.93 416.13 443.26 419.31 439.84 407.05 436.42 394.78 427.51 403.87 418.6 412.96 430.93 416.13"/><polygon class="cls-3" points="422.95 430.06 435.28 433.23 431.86 420.97 428.44 408.7 419.53 417.8 410.62 426.88 422.95 430.06"/></g><g class="cls-1"><line class="cls-2" x1="149.55" y1="399.03" x2="149.8" y2="426.46"/><line class="cls-3" x1="139.49" y1="416.58" x2="139.74" y2="444.01"/></g><g class="cls-1"><path class="cls-2" d="M178.92,154.64a12.9,12.9,0,1,1-20.44,15.75" transform="translate(-13.88 -4.11)"/><path class="cls-3" d="M176.19,133.28A12.9,12.9,0,1,1,155.76,149" transform="translate(-13.88 -4.11)"/></g><g class="cls-1"><circle class="cls-2" cx="476.84" cy="528.72" r="9.61"/><circle class="cls-3" cx="463.06" cy="520.65" r="9.61"/></g><g class="cls-1"><circle class="cls-2" cx="171.84" cy="245.72" r="9.61"/><circle class="cls-3" cx="158.06" cy="237.65" r="9.61"/></g><circle class="cls-4" cx="555.16" cy="288.21" r="6.27" transform="translate(-81.58 341.59) rotate(-32.71)"/><circle class="cls-4" cx="96.16" cy="292.21" r="6.27" transform="translate(-156.53 94.19) rotate(-32.71)"/><circle class="cls-4" cx="519.16" cy="423.21" r="6.27" transform="translate(-160.24 343.55) rotate(-32.71)"/><circle class="cls-4" cx="430.16" cy="96.21" r="6.27" transform="translate(2.35 243.6) rotate(-32.71)"/><g class="cls-1"><path class="cls-2" d="M414.17,230.09c0-5.14,9.08-4.34,9-10.9" transform="translate(-13.88 -4.11)"/><path class="cls-2" d="M414.37,251.73c0-5.14,9.08-4.34,9-10.9" transform="translate(-13.88 -4.11)"/><path class="cls-2" d="M414.17,230.09c0,5.14,9.16,4.17,9.22,10.73" transform="translate(-13.88 -4.11)"/><path class="cls-2" d="M423.59,262.46" transform="translate(-13.88 -4.11)"/><path class="cls-2" d="M414.37,251.73c0,5.14,9.16,4.17,9.22,10.73" transform="translate(-13.88 -4.11)"/><path class="cls-3" d="M404.39,247.16c0-5.14,9.08-4.34,9-10.9" transform="translate(-13.88 -4.11)"/><path class="cls-3" d="M404.59,268.8c0-5.14,9.08-4.34,9-10.9" transform="translate(-13.88 -4.11)"/><path class="cls-3" d="M404.39,247.16c0,5.14,9.16,4.17,9.22,10.73" transform="translate(-13.88 -4.11)"/><path class="cls-3" d="M413.81,279.53" transform="translate(-13.88 -4.11)"/><path class="cls-3" d="M404.59,268.8c0,5.14,9.16,4.17,9.22,10.73" transform="translate(-13.88 -4.11)"/></g><g class="cls-1"><line class="cls-2" x1="23.97" y1="441.33" x2="38.14" y2="425.95"/><line class="cls-2" x1="23.36" y1="426.55" x2="38.74" y2="440.72"/></g><g class="cls-1"><line class="cls-2" x1="96.97" y1="127.33" x2="111.14" y2="111.95"/><line class="cls-2" x1="96.36" y1="112.55" x2="111.74" y2="126.72"/></g><g class="cls-1"><polygon class="cls-2" points="488.93 162.13 501.26 165.31 497.84 153.05 494.42 140.78 485.51 149.87 476.6 158.96 488.93 162.13"/><polygon class="cls-3" points="480.95 176.06 493.28 179.23 489.86 166.97 486.44 154.7 477.53 163.79 468.62 172.88 480.95 176.06"/></g><g class="cls-1"><line class="cls-2" x1="64.55" y1="421.03" x2="64.8" y2="448.46"/><line class="cls-3" x1="54.49" y1="438.58" x2="54.74" y2="466.01"/></g><g class="cls-1"><line class="cls-2" x1="222.55" y1="296.03" x2="222.8" y2="323.46"/><line class="cls-3" x1="212.49" y1="313.58" x2="212.74" y2="341.01"/></g><g class="cls-1"><path class="cls-2" d="M213.92,102.64a12.9,12.9,0,1,1-20.44,15.75" transform="translate(-13.88 -4.11)"/><path class="cls-3" d="M211.19,81.28A12.9,12.9,0,1,1,190.76,97" transform="translate(-13.88 -4.11)"/></g><g class="cls-1"><circle class="cls-2" cx="468.84" cy="281.72" r="9.61"/><circle class="cls-3" cx="455.06" cy="273.65" r="9.61"/></g><circle class="cls-4" cx="196.16" cy="402.21" r="6.27" transform="translate(-200.12 165.67) rotate(-32.71)"/><circle class="cls-4" cx="500.16" cy="460.21" r="6.27" transform="translate(-183.25 339.15) rotate(-32.71)"/><circle class="cls-4" cx="381.16" cy="83.21" r="6.27" transform="translate(1.6 215.06) rotate(-32.71)"/><g class="cls-1"><polygon class="cls-2" points="9.91 537.76 13.96 544.61 17.88 537.68 21.79 530.74 13.83 530.82 5.86 530.9 9.91 537.76"/><polygon class="cls-3" points="4.92 546.47 8.97 553.32 12.88 546.39 16.8 539.45 8.84 539.53 0.87 539.61 4.92 546.47"/></g><g class="cls-1"><polygon class="cls-2" points="125.91 297.76 129.96 304.61 133.88 297.68 137.79 290.74 129.83 290.82 121.86 290.9 125.91 297.76"/><polygon class="cls-3" points="120.92 306.46 124.97 313.32 128.88 306.39 132.8 299.45 124.83 299.53 116.87 299.61 120.92 306.46"/></g><g class="cls-1"><polygon class="cls-2" points="555.91 322.76 559.96 329.61 563.88 322.68 567.79 315.74 559.83 315.82 551.86 315.9 555.91 322.76"/><polygon class="cls-3" points="550.92 331.46 554.97 338.32 558.88 331.39 562.8 324.45 554.84 324.53 546.87 324.61 550.92 331.46"/></g><g class="cls-1"><rect class="cls-2" x="53.9" y="101.68" width="10.96" height="10.96" transform="translate(-14.86 -3.56) rotate(-0.53)"/><rect class="cls-3" x="49.35" y="109.62" width="10.96" height="10.96" transform="translate(-14.94 -3.6) rotate(-0.53)"/></g><g class="cls-1"><line class="cls-2" x1="6.97" y1="327.33" x2="21.14" y2="311.95"/><line class="cls-2" x1="6.36" y1="312.55" x2="21.74" y2="326.72"/></g></svg>