<svg id="Слой_1" data-name="Слой 1" xmlns="http://www.w3.org/2000/svg" viewBox="0 0 1140.53 635.41"><defs><style>.cls-1,.cls-4,.cls-7{opacity:0.7;}.cls-2,.cls-3,.cls-4,.cls-6,.cls-7{fill:none;}.cls-2,.cls-3,.cls-4{stroke:#fff;}.cls-2,.cls-4,.cls-6,.cls-7{stroke-linecap:round;stroke-linejoin:round;stroke-width:5px;}.cls-3{stroke-miterlimit:10;}.cls-5{opacity:0.4;}.cls-6,.cls-7{stroke:#00c5db;}</style></defs><title>bg-scheme</title><g class="cls-1"><polygon class="cls-2" points="584.36 261.13 588.24 246.62 573.73 250.52 559.22 254.41 569.85 265.03 580.48 275.65 584.36 261.13"/><polygon class="cls-3" points="600.7 270.7 604.58 256.19 590.07 260.09 575.56 263.99 586.19 274.6 596.82 285.22 600.7 270.7"/></g><g class="cls-1"><path class="cls-2" d="M169.28,168.8c-5.69,0-4.71-10.1-12-10.1" transform="translate(270.61 1.44)"/><path class="cls-2" d="M193.23,168.8c-5.69,0-4.71-10.1-12-10.1" transform="translate(270.61 1.44)"/><path class="cls-2" d="M169.28,168.8c5.69,0,4.71-10.1,12-10.1" transform="translate(270.61 1.44)"/><path class="cls-2" d="M205.2,158.7" transform="translate(270.61 1.44)"/><path class="cls-2" d="M193.23,168.8c5.69,0,4.71-10.1,12-10.1" transform="translate(270.61 1.44)"/><path class="cls-3" d="M188.07,179.81c-5.69,0-4.71-10.1-12-10.1" transform="translate(270.61 1.44)"/><path class="cls-3" d="M212,179.81c-5.69,0-4.71-10.1-12-10.1" transform="translate(270.61 1.44)"/><path class="cls-3" d="M188.07,179.81c5.69,0,4.71-10.1,12-10.1" transform="translate(270.61 1.44)"/><path class="cls-3" d="M224,169.71" transform="translate(270.61 1.44)"/><path class="cls-3" d="M212,179.81c5.69,0,4.71-10.1,12-10.1" transform="translate(270.61 1.44)"/></g><g class="cls-1"><line class="cls-2" x1="427.79" y1="427.47" x2="412.53" y2="413.17"/><line class="cls-2" x1="413.01" y1="427.95" x2="427.31" y2="412.69"/></g><g class="cls-1"><line class="cls-2" x1="761.79" y1="57.47" x2="746.53" y2="43.17"/><line class="cls-2" x1="747.01" y1="57.95" x2="761.31" y2="42.69"/></g><g class="cls-1"><line class="cls-2" x1="558.57" y1="150.37" x2="577.58" y2="131.36"/><line class="cls-3" x1="575.67" y1="160.38" x2="594.67" y2="141.37"/></g><circle class="cls-4" cx="115.05" cy="12.88" r="6.26" transform="matrix(0.85, -0.53, 0.53, 0.85, 281.42, 64.7)"/><circle class="cls-4" cx="336.05" cy="58.88" r="6.26" transform="matrix(0.85, -0.53, 0.53, 0.85, 290.88, 189.47)"/><g class="cls-1"><polygon class="cls-2" points="394.76 564.91 404.25 559.43 394.76 553.96 385.26 548.49 385.27 559.44 385.28 570.4 394.76 564.91"/><polygon class="cls-3" points="406.68 571.89 416.17 566.4 406.68 560.94 397.18 555.46 397.19 566.42 397.2 577.38 406.68 571.89"/></g><g class="cls-1"><rect class="cls-2" x="501.75" y="294.9" width="12.7" height="10.93"/><rect class="cls-3" x="510.9" y="299.51" width="12.7" height="10.93"/></g><g class="cls-1"><rect class="cls-2" x="459.75" y="581.9" width="12.7" height="10.93"/><rect class="cls-3" x="468.9" y="586.51" width="12.7" height="10.93"/></g><g class="cls-1"><polygon class="cls-2" points="584.36 261.13 588.24 246.62 573.73 250.52 559.22 254.41 569.85 265.03 580.48 275.65 584.36 261.13"/><polygon class="cls-3" points="600.7 270.7 604.58 256.19 590.07 260.09 575.56 263.99 586.19 274.6 596.82 285.22 600.7 270.7"/></g><g class="cls-1"><path class="cls-2" d="M169.28,168.8c-5.69,0-4.71-10.1-12-10.1" transform="translate(270.61 1.44)"/><path class="cls-2" d="M193.23,168.8c-5.69,0-4.71-10.1-12-10.1" transform="translate(270.61 1.44)"/><path class="cls-2" d="M169.28,168.8c5.69,0,4.71-10.1,12-10.1" transform="translate(270.61 1.44)"/><path class="cls-2" d="M205.2,158.7" transform="translate(270.61 1.44)"/><path class="cls-2" d="M193.23,168.8c5.69,0,4.71-10.1,12-10.1" transform="translate(270.61 1.44)"/><path class="cls-3" d="M188.07,179.81c-5.69,0-4.71-10.1-12-10.1" transform="translate(270.61 1.44)"/><path class="cls-3" d="M212,179.81c-5.69,0-4.71-10.1-12-10.1" transform="translate(270.61 1.44)"/><path class="cls-3" d="M188.07,179.81c5.69,0,4.71-10.1,12-10.1" transform="translate(270.61 1.44)"/><path class="cls-3" d="M224,169.71" transform="translate(270.61 1.44)"/><path class="cls-3" d="M212,179.81c5.69,0,4.71-10.1,12-10.1" transform="translate(270.61 1.44)"/></g><g class="cls-1"><line class="cls-2" x1="427.79" y1="427.47" x2="412.53" y2="413.17"/><line class="cls-2" x1="413.01" y1="427.95" x2="427.31" y2="412.69"/></g><g class="cls-1"><line class="cls-2" x1="761.79" y1="57.47" x2="746.53" y2="43.17"/><line class="cls-2" x1="747.01" y1="57.95" x2="761.31" y2="42.69"/></g><g class="cls-1"><line class="cls-2" x1="558.57" y1="150.37" x2="577.58" y2="131.36"/><line class="cls-3" x1="575.67" y1="160.38" x2="594.67" y2="141.37"/></g><circle class="cls-4" cx="115.05" cy="12.88" r="6.26" transform="matrix(0.85, -0.53, 0.53, 0.85, 281.42, 64.7)"/><circle class="cls-4" cx="336.05" cy="58.88" r="6.26" transform="matrix(0.85, -0.53, 0.53, 0.85, 290.88, 189.47)"/><g class="cls-1"><polygon class="cls-2" points="394.76 564.91 404.25 559.43 394.76 553.96 385.26 548.49 385.27 559.44 385.28 570.4 394.76 564.91"/><polygon class="cls-3" points="406.68 571.89 416.17 566.4 406.68 560.94 397.18 555.46 397.19 566.42 397.2 577.38 406.68 571.89"/></g><g class="cls-1"><rect class="cls-2" x="501.75" y="294.9" width="12.7" height="10.93"/><rect class="cls-3" x="510.9" y="299.51" width="12.7" height="10.93"/></g><g class="cls-1"><rect class="cls-2" x="459.75" y="581.9" width="12.7" height="10.93"/><rect class="cls-3" x="468.9" y="586.51" width="12.7" height="10.93"/></g><g class="cls-5"><g class="cls-1"><line class="cls-6" x1="146.46" y1="371.88" x2="160.62" y2="356.5"/><line class="cls-6" x1="145.85" y1="357.11" x2="161.23" y2="371.27"/></g><g class="cls-1"><line class="cls-6" x1="1041.46" y1="371.88" x2="1055.62" y2="356.5"/><line class="cls-6" x1="1040.85" y1="357.11" x2="1056.23" y2="371.27"/></g><g class="cls-1"><line class="cls-6" x1="584.46" y1="505.88" x2="598.62" y2="490.5"/><line class="cls-6" x1="583.85" y1="491.11" x2="599.23" y2="505.27"/></g><g class="cls-1"><line class="cls-6" x1="152.46" y1="17.88" x2="166.62" y2="2.5"/><line class="cls-6" x1="151.85" y1="3.11" x2="167.23" y2="17.27"/></g><g class="cls-1"><line class="cls-6" x1="968.46" y1="96.88" x2="982.62" y2="81.5"/><line class="cls-6" x1="967.85" y1="82.11" x2="983.23" y2="96.27"/></g><g class="cls-1"><line class="cls-6" x1="204.46" y1="623.88" x2="218.62" y2="608.5"/><line class="cls-6" x1="203.85" y1="609.11" x2="219.23" y2="623.27"/></g><circle class="cls-7" cx="641.16" cy="286.21" r="6.27" transform="translate(217.62 393.3) rotate(-32.71)"/><circle class="cls-7" cx="178.16" cy="440.21" r="6.27" transform="translate(60.98 167.52) rotate(-32.71)"/><circle class="cls-7" cx="439.16" cy="379.21" r="6.27" transform="translate(135.33 298.89) rotate(-32.71)"/><circle class="cls-7" cx="385.16" cy="625.21" r="6.27" transform="translate(-6.17 308.72) rotate(-32.71)"/><circle class="cls-7" cx="-163.84" cy="279.21" r="6.27" transform="translate(93.74 -42.82) rotate(-32.71)"/><circle class="cls-7" cx="-58.84" cy="94.21" r="6.27" transform="translate(210.37 -15.42) rotate(-32.71)"/><circle class="cls-7" cx="693.16" cy="19.21" r="6.27" transform="translate(370.15 379.06) rotate(-32.71)"/><circle class="cls-7" cx="420.16" cy="124.21" r="6.27" transform="translate(270.12 248.19) rotate(-32.71)"/><circle class="cls-7" cx="-261.84" cy="520.21" r="6.27" transform="translate(-52.03 -57.56) rotate(-32.71)"/><circle class="cls-7" cx="861.16" cy="531.21" r="6.27" transform="translate(120.11 551.04) rotate(-32.71)"/></g></svg>