<svg id="Слой_1" data-name="Слой 1" xmlns="http://www.w3.org/2000/svg" viewBox="0 0 529.19 592.39"><defs><style>.cls-1,.cls-4{opacity:0.7;}.cls-2,.cls-3,.cls-4{fill:none;stroke:#fff;}.cls-2,.cls-4{stroke-linecap:round;stroke-linejoin:round;stroke-width:5px;}.cls-3{stroke-miterlimit:10;}</style></defs><title>bg-salesloser</title><g class="cls-1"><polygon class="cls-2" points="279.01 255.58 282.89 241.06 268.39 244.96 253.87 248.86 264.5 259.48 275.13 270.1 279.01 255.58"/><polygon class="cls-3" points="295.36 265.15 299.24 250.63 284.73 254.53 270.22 258.43 280.85 269.05 291.48 279.67 295.36 265.15"/></g><g class="cls-1"><path class="cls-2" d="M169.28,168.8c-5.69,0-4.71-10.1-12-10.1" transform="translate(-34.74 -4.11)"/><path class="cls-2" d="M193.23,168.8c-5.69,0-4.71-10.1-12-10.1" transform="translate(-34.74 -4.11)"/><path class="cls-2" d="M169.28,168.8c5.69,0,4.71-10.1,12-10.1" transform="translate(-34.74 -4.11)"/><path class="cls-2" d="M205.2,158.7" transform="translate(-34.74 -4.11)"/><path class="cls-2" d="M193.23,168.8c5.69,0,4.71-10.1,12-10.1" transform="translate(-34.74 -4.11)"/><path class="cls-3" d="M188.07,179.81c-5.69,0-4.71-10.1-12-10.1" transform="translate(-34.74 -4.11)"/><path class="cls-3" d="M212,179.81c-5.69,0-4.71-10.1-12-10.1" transform="translate(-34.74 -4.11)"/><path class="cls-3" d="M188.07,179.81c5.69,0,4.71-10.1,12-10.1" transform="translate(-34.74 -4.11)"/><path class="cls-3" d="M224,169.71" transform="translate(-34.74 -4.11)"/><path class="cls-3" d="M212,179.81c5.69,0,4.71-10.1,12-10.1" transform="translate(-34.74 -4.11)"/></g><g class="cls-1"><line class="cls-2" x1="122.44" y1="421.92" x2="107.19" y2="407.61"/><line class="cls-2" x1="107.66" y1="422.39" x2="121.97" y2="407.14"/></g><g class="cls-1"><line class="cls-2" x1="456.44" y1="51.92" x2="441.19" y2="37.61"/><line class="cls-2" x1="441.66" y1="52.39" x2="455.97" y2="37.14"/></g><g class="cls-1"><line class="cls-2" x1="253.23" y1="144.81" x2="272.23" y2="125.81"/><line class="cls-3" x1="270.32" y1="154.82" x2="289.33" y2="135.82"/></g><circle class="cls-4" cx="115.05" cy="12.88" r="6.26" transform="matrix(0.85, -0.53, 0.53, 0.85, -23.92, 59.14)"/><circle class="cls-4" cx="336.05" cy="58.88" r="6.26" transform="matrix(0.85, -0.53, 0.53, 0.85, -14.47, 183.92)"/><g class="cls-1"><polygon class="cls-2" points="89.42 559.36 98.91 553.87 89.41 548.4 79.92 542.93 79.93 553.89 79.93 564.84 89.42 559.36"/><polygon class="cls-3" points="101.34 566.34 110.82 560.85 101.33 555.38 91.84 549.91 91.85 560.87 91.85 571.82 101.34 566.34"/></g><g class="cls-1"><rect class="cls-2" x="196.4" y="289.35" width="12.7" height="10.93"/><rect class="cls-3" x="205.56" y="293.96" width="12.7" height="10.93"/></g><g class="cls-1"><rect class="cls-2" x="154.4" y="576.35" width="12.7" height="10.93"/><rect class="cls-3" x="163.56" y="580.96" width="12.7" height="10.93"/></g><g class="cls-1"><polygon class="cls-2" points="279.01 255.58 282.89 241.06 268.39 244.96 253.87 248.86 264.5 259.48 275.13 270.1 279.01 255.58"/><polygon class="cls-3" points="295.36 265.15 299.24 250.63 284.73 254.53 270.22 258.43 280.85 269.05 291.48 279.67 295.36 265.15"/></g><g class="cls-1"><path class="cls-2" d="M169.28,168.8c-5.69,0-4.71-10.1-12-10.1" transform="translate(-34.74 -4.11)"/><path class="cls-2" d="M193.23,168.8c-5.69,0-4.71-10.1-12-10.1" transform="translate(-34.74 -4.11)"/><path class="cls-2" d="M169.28,168.8c5.69,0,4.71-10.1,12-10.1" transform="translate(-34.74 -4.11)"/><path class="cls-2" d="M205.2,158.7" transform="translate(-34.74 -4.11)"/><path class="cls-2" d="M193.23,168.8c5.69,0,4.71-10.1,12-10.1" transform="translate(-34.74 -4.11)"/><path class="cls-3" d="M188.07,179.81c-5.69,0-4.71-10.1-12-10.1" transform="translate(-34.74 -4.11)"/><path class="cls-3" d="M212,179.81c-5.69,0-4.71-10.1-12-10.1" transform="translate(-34.74 -4.11)"/><path class="cls-3" d="M188.07,179.81c5.69,0,4.71-10.1,12-10.1" transform="translate(-34.74 -4.11)"/><path class="cls-3" d="M224,169.71" transform="translate(-34.74 -4.11)"/><path class="cls-3" d="M212,179.81c5.69,0,4.71-10.1,12-10.1" transform="translate(-34.74 -4.11)"/></g><g class="cls-1"><line class="cls-2" x1="122.44" y1="421.92" x2="107.19" y2="407.61"/><line class="cls-2" x1="107.66" y1="422.39" x2="121.97" y2="407.14"/></g><g class="cls-1"><line class="cls-2" x1="456.44" y1="51.92" x2="441.19" y2="37.61"/><line class="cls-2" x1="441.66" y1="52.39" x2="455.97" y2="37.14"/></g><g class="cls-1"><line class="cls-2" x1="253.23" y1="144.81" x2="272.23" y2="125.81"/><line class="cls-3" x1="270.32" y1="154.82" x2="289.33" y2="135.82"/></g><circle class="cls-4" cx="115.05" cy="12.88" r="6.26" transform="matrix(0.85, -0.53, 0.53, 0.85, -23.92, 59.14)"/><circle class="cls-4" cx="336.05" cy="58.88" r="6.26" transform="matrix(0.85, -0.53, 0.53, 0.85, -14.47, 183.92)"/><g class="cls-1"><polygon class="cls-2" points="89.42 559.36 98.91 553.87 89.41 548.4 79.92 542.93 79.93 553.89 79.93 564.84 89.42 559.36"/><polygon class="cls-3" points="101.34 566.34 110.82 560.85 101.33 555.38 91.84 549.91 91.85 560.87 91.85 571.82 101.34 566.34"/></g><g class="cls-1"><rect class="cls-2" x="196.4" y="289.35" width="12.7" height="10.93"/><rect class="cls-3" x="205.56" y="293.96" width="12.7" height="10.93"/></g><g class="cls-1"><rect class="cls-2" x="154.4" y="576.35" width="12.7" height="10.93"/><rect class="cls-3" x="163.56" y="580.96" width="12.7" height="10.93"/></g><g class="cls-1"><polygon class="cls-2" points="410.07 416.13 422.4 419.31 418.98 407.05 415.56 394.78 406.65 403.87 397.74 412.96 410.07 416.13"/><polygon class="cls-3" points="402.08 430.06 414.42 433.23 411 420.97 407.58 408.7 398.67 417.8 389.76 426.88 402.08 430.06"/></g><g class="cls-1"><line class="cls-2" x1="128.69" y1="399.03" x2="128.94" y2="426.46"/><line class="cls-3" x1="118.63" y1="416.58" x2="118.88" y2="444.01"/></g><g class="cls-1"><path class="cls-2" d="M178.92,154.64a12.9,12.9,0,1,1-20.44,15.75" transform="translate(-34.74 -4.11)"/><path class="cls-3" d="M176.19,133.28A12.9,12.9,0,1,1,155.76,149" transform="translate(-34.74 -4.11)"/></g><g class="cls-1"><circle class="cls-2" cx="455.98" cy="528.72" r="9.61"/><circle class="cls-3" cx="442.2" cy="520.65" r="9.61"/></g><g class="cls-1"><circle class="cls-2" cx="150.98" cy="245.72" r="9.61"/><circle class="cls-3" cx="137.2" cy="237.65" r="9.61"/></g><circle class="cls-4" cx="555.16" cy="288.21" r="6.27" transform="translate(-102.44 341.59) rotate(-32.71)"/><circle class="cls-4" cx="96.16" cy="292.21" r="6.27" transform="translate(-177.39 94.19) rotate(-32.71)"/><circle class="cls-4" cx="519.16" cy="423.21" r="6.27" transform="translate(-181.1 343.55) rotate(-32.71)"/><circle class="cls-4" cx="430.16" cy="96.21" r="6.27" transform="translate(-18.51 243.6) rotate(-32.71)"/><g class="cls-1"><path class="cls-2" d="M414.17,230.09c0-5.14,9.08-4.34,9-10.9" transform="translate(-34.74 -4.11)"/><path class="cls-2" d="M414.37,251.73c0-5.14,9.08-4.34,9-10.9" transform="translate(-34.74 -4.11)"/><path class="cls-2" d="M414.17,230.09c0,5.14,9.16,4.17,9.22,10.73" transform="translate(-34.74 -4.11)"/><path class="cls-2" d="M423.59,262.46" transform="translate(-34.74 -4.11)"/><path class="cls-2" d="M414.37,251.73c0,5.14,9.16,4.17,9.22,10.73" transform="translate(-34.74 -4.11)"/><path class="cls-3" d="M404.39,247.16c0-5.14,9.08-4.34,9-10.9" transform="translate(-34.74 -4.11)"/><path class="cls-3" d="M404.59,268.8c0-5.14,9.08-4.34,9-10.9" transform="translate(-34.74 -4.11)"/><path class="cls-3" d="M404.39,247.16c0,5.14,9.16,4.17,9.22,10.73" transform="translate(-34.74 -4.11)"/><path class="cls-3" d="M413.81,279.53" transform="translate(-34.74 -4.11)"/><path class="cls-3" d="M404.59,268.8c0,5.14,9.16,4.17,9.22,10.73" transform="translate(-34.74 -4.11)"/></g><g class="cls-1"><line class="cls-2" x1="3.11" y1="441.33" x2="17.28" y2="425.95"/><line class="cls-2" x1="2.5" y1="426.55" x2="17.88" y2="440.72"/></g><g class="cls-1"><line class="cls-2" x1="76.11" y1="127.33" x2="90.28" y2="111.95"/><line class="cls-2" x1="75.5" y1="112.55" x2="90.88" y2="126.72"/></g></svg>