<svg id="Слой_1" data-name="Слой 1" xmlns="http://www.w3.org/2000/svg" viewBox="0 0 793.57 130.2"><defs><style>.cls-1,.cls-4{opacity:0.7;}.cls-2,.cls-3,.cls-4{fill:none;stroke:#fff;}.cls-2,.cls-4{stroke-linecap:round;stroke-linejoin:round;stroke-width:5px;}.cls-3{stroke-miterlimit:10;}</style></defs><title>bgtop-aboutwinner</title><g class="cls-1"><polygon class="cls-2" points="27.64 105.15 31.52 90.63 17.01 94.53 2.5 98.43 13.13 109.05 23.76 119.67 27.64 105.15"/><polygon class="cls-3" points="43.98 114.72 47.86 100.2 33.36 104.1 18.84 108 29.48 118.62 40.1 129.24 43.98 114.72"/></g><g class="cls-1"><line class="cls-2" x1="791.07" y1="112.49" x2="775.82" y2="98.18"/><line class="cls-2" x1="776.29" y1="112.96" x2="790.59" y2="97.71"/></g><circle class="cls-4" cx="449.05" cy="316.88" r="6.26" transform="matrix(0.85, -0.53, 0.53, 0.85, -2.89, 53.31)"/><circle class="cls-4" cx="159.05" cy="276.88" r="6.26" transform="matrix(0.85, -0.53, 0.53, 0.85, -26.14, -107.29)"/><g class="cls-1"><rect class="cls-2" x="418.03" y="74.92" width="12.7" height="10.93"/><rect class="cls-3" x="427.19" y="79.53" width="12.7" height="10.93"/></g><g class="cls-1"><circle class="cls-2" cx="598.26" cy="246.66" r="9.61" transform="translate(442.71 607.96) rotate(-89.44)"/><circle class="cls-3" cx="590.06" cy="260.36" r="9.61" transform="translate(420.89 613.33) rotate(-89.44)"/></g></svg>