<svg id="Слой_1" data-name="Слой 1" xmlns="http://www.w3.org/2000/svg" viewBox="0 0 108.92 53.9"><defs><style>.cls-1{fill:#00c5db;}</style></defs><title>big-arrow</title><path class="cls-1" d="M252,509l-1.4,1.27c-.27.25-.55.48-.83.72l-.78.65a4,4,0,0,0-.56.16,1.57,1.57,0,0,0-.57.29,1.1,1.1,0,0,0-.37.55l-.29.14h0a1.18,1.18,0,0,0-.57.37.58.58,0,0,0,.26.94,1.07,1.07,0,0,0,.63,0l.05,0a9.32,9.32,0,0,0,1-.44h0l.4,0H249c.37.12.7.27,1,.42l.78.33,1.4.6,3,1.25c2.06.84,4.14,1.65,6.21,2.47l6,2.35a.74.74,0,0,0,.7.71,1.3,1.3,0,0,0,.53,0l.25-.1,5,2,1.27.51a.5.5,0,0,0,.08.19.78.78,0,0,0,.53.29,1.19,1.19,0,0,0,.49,0h0l5.72,2.28a1.66,1.66,0,0,0,.74.1,1.73,1.73,0,0,0,.77.12,2.62,2.62,0,0,0,.49-.08,1.94,1.94,0,0,0,.37-.14,1.91,1.91,0,0,0,.65-.55,2.08,2.08,0,0,0,.32-1.47c0-.4,0-.8-.08-1.2-.09-1-.16-2-.29-3l-.22-1.63c0-.35-.07-.72-.15-1.07l-.65-3.07h0c.43-.1.85-.2,1.27-.32.74-.21,1.48-.44,2.22-.67l3.79-1.19,3.19-1c1.1-.36,2.21-.71,3.3-1.08q7.61-2.56,15.21-5.16,6.44-2.19,12.9-4.33c2.21-.74,4.42-1.46,6.62-2.22l4.82-1.67c.85-.3,1.72-.58,2.56-.89l5.7-2.07,1.82-.66c1.15-.41,2.29-.84,3.44-1.24l1.6-.52.29-.1a1,1,0,0,0,1,0l1.09-.51a.87.87,0,0,0,.42-.43.53.53,0,0,0-.18-.64,1.13,1.13,0,0,0-.32-.2,1.76,1.76,0,0,0-.59-.07,2.77,2.77,0,0,0-.56.07l-.5.12c-.3.08-.59.19-.88.29a2,2,0,0,0-.05-.37c0-.2-.09-.4-.13-.61s-.11-.56-.18-.84c-.1-.44-.23-.87-.36-1.3-.2-.67-.39-1.34-.62-2-.47-1.39-1-2.77-1.49-4.14-.2-.52-.4-1-.61-1.55s-.46-1.07-.7-1.6-.5-1.05-.77-1.57l-.13-.25c-.07-.12-.13-.25-.22-.37l-.24-.34a4.11,4.11,0,0,0-.41-.46l-.15-.15a1,1,0,0,0-.44-.17h0a.86.86,0,0,0,.06-1,1.43,1.43,0,0,0-1.75-.24l-5,2.5-2.26,1.13-1.3.65-2.84,1.12,0,0h0l-7.1,2.76.08,0c-2.57,1-5.15,2-7.72,2.95-1.85.71-3.71,1.39-5.57,2.07l-.07-.08a.81.81,0,0,0-.37-.28,1.37,1.37,0,0,0-1.5.41.72.72,0,0,0-.15.65l0,0v0l-2.9,1.07-1.69.62-8.8,3.11c-1.92.68-3.86,1.32-5.79,2l-4.75,1.6c-.58.2-1.16.39-1.75.57l-1.39.42h0c-.07-.15-.28-.23-.44-.31a1.3,1.3,0,0,0-1.25.22.83.83,0,0,0-.33.72l-1.71.52-2.13.65c0-.11,0-.21.06-.32l.07-.46a2.81,2.81,0,0,0,0-.31,5.43,5.43,0,0,0-.08-1.39c-.11-.5-.81-.75-1.45-.57a1.48,1.48,0,0,0-.77.5.88.88,0,0,0-.17.73l0,.14s0,.09,0,.13c-.39-.95-.79-1.89-1.23-2.82a16.94,16.94,0,0,0-.93-1.71,5.81,5.81,0,0,0-1.33-1.56,1.27,1.27,0,0,0-.88-.28,1.58,1.58,0,0,0-.85.35,3.19,3.19,0,0,0-.72.93c-.23.38-.5.74-.76,1.11l-.12.09a2.8,2.8,0,0,0-.34.33l-.13.13a10.48,10.48,0,0,0-.81.89.74.74,0,0,0-.17.56l-.29.34c-.16.19-.32.38-.49.56l-1.61,1.69-2.71,2.58c-.54.51-1.09,1-1.64,1.53a1.19,1.19,0,0,0-.53-.08,1.4,1.4,0,0,0-.78.3.93.93,0,0,0-.35.6c0,.08,0,.15,0,.22-.07.24-.13.48-.21.72l-4,3.68C253.4,507.76,252.7,508.4,252,509Zm50.24-2a1,1,0,0,0,.13-.23h0l0,.08c.79-1.35,1.57-2.7,2.33-4.06l2.16-3.89c.33-.6.68-1.2,1-1.81l1.82-3.59c.36-.72.71-1.43,1.06-2.15l.68-1.41.46-1c2-.71,3.93-1.42,5.88-2.15h0a1.1,1.1,0,0,0,.31,0l-.24.5-.62,1.36c-.3.66-.64,1.32-1,2-.12.25-.23.5-.36.74l-.45.83-1.15,2.09-1.45,2.33-.9,1.44c-.1.16-.2.32-.31.48l-2,2.75-.94,1.32c-.37.53-.79,1-1.2,1.55a.64.64,0,0,0,.25,1l-.36.12Zm34-11.16-3.13,1c.46-.62.93-1.24,1.37-1.87l.66-.94,2.29-3.28c.36-.52.74-1,1.08-1.56l1.92-3c.33-.52.68-1,1-1.56l.86-1.45c.18-.3.36-.6.53-.9.41-.76.83-1.52,1.22-2.29.17-.34.32-.67.48-1l.16-.34a.84.84,0,0,0,.07-.38l0-.2a.85.85,0,0,0-.13-.24,1.1,1.1,0,0,0-.93-.39,2.23,2.23,0,0,0-.51.09l-.46.16a1.17,1.17,0,0,0-.57.37.62.62,0,0,0-.13.55.66.66,0,0,0,.49.43l-.18.37c-.16.32-.33.64-.5,1-.3.57-.61,1.13-.92,1.7l-1.29,2.21c-.15.26-.33.52-.5.78L338,486.78l-1,1.51c-.1.16-.2.32-.31.48L335,491.26l-1.78,2.56c-.66.95-1.35,1.88-2,2.82a.64.64,0,0,0,0,.88l-1.48.48-1.66.53c.18-.41.37-.83.58-1.23l.72-1.4,1.67-3.25c.27-.53.58-1.05.88-1.58l1.88-3.3c.77-1.36,1.58-2.71,2.32-4.07.46-.85.92-1.69,1.35-2.55l.79-1.59c.12-.24.21-.49.32-.73l.88-.34,1.45-.56.85-.32.92-.36a5.26,5.26,0,0,0,.74-.38,1.67,1.67,0,0,0,.56-.46,1.11,1.11,0,0,0,.24-.58.91.91,0,0,0,0-.23l.23-.12a.58.58,0,0,0,.1.46c.31.42.59.86.88,1.29s.52.8.77,1.21c.42.68.8,1.39,1.16,2.09l-.22,0a2.19,2.19,0,0,0-.54.25,1,1,0,0,0-.46.47.57.57,0,0,0,.05.56l.08.09-.12.23-.4.76c-.21.41-.44.81-.67,1.22-.38.7-.79,1.39-1.18,2.09L338.67,495v0Zm5-1.71,2.46-4.09,1.8-3c.48-.8.94-1.61,1.41-2.41.29-.5.58-1,.84-1.52.13-.26.27-.53.4-.79.3.67.59,1.35.86,2l.44,1.14a2.1,2.1,0,0,0-.53-.15,1.23,1.23,0,0,0-1.11.43.62.62,0,0,0,0,.8l0,.1c-.64,1-1.29,2-2,3-.29.44-.6.86-.91,1.29L343.49,493a.82.82,0,0,0-.15.4l-.48.17Zm5.51-1.92-.69.24.51-.72c.31-.45.64-.89.95-1.34.65-1,1.32-2,1.91-3,.1-.17.2-.33.28-.5a1.41,1.41,0,0,0,.13-.4c.29.87.59,1.74.82,2.63.07.27.13.55.19.83v.07a.47.47,0,0,0-.24.66l.09.14h0C349.44,491.3,348.13,491.76,346.82,492.22Zm-14.18-13.39h0Zm3.47,1,0,0-.26.54c-.19.39-.37.78-.57,1.16l-.79,1.5c-.16.3-.3.6-.47.89l-2.71,4.82-1.62,2.87c-.23.41-.44.83-.66,1.24L327.43,496l-.58,1.14c-.26.52-.48,1-.72,1.56a.54.54,0,0,0,0,.49l-3.93,1.27-4,1.31q.3-.34.58-.68a30,30,0,0,0,2.31-3.32c.69-1.13,1.32-2.27,2-3.41.86-1.52,1.64-3.06,2.4-4.61.63-1.27,1.26-2.53,1.88-3.8s1.11-2.25,1.6-3.39l4.14-1.58Zm-9.73,3.73-.32.65L325,486.38c-.78,1.65-1.54,3.3-2.36,4.94-.38.77-.74,1.54-1.16,2.29L320,496.34c-.53.91-1.07,1.81-1.68,2.69a21,21,0,0,1-2.08,2.59c-.39.39-.79.78-1.2,1.16l-5.78,1.91c.38-.48.76-.95,1.11-1.44l1.06-1.49,1.87-2.62c.17-.24.32-.5.47-.75l1.1-1.74c.46-.73.94-1.46,1.36-2.21l1.38-2.46c.3-.54.56-1.08.84-1.62s.59-1.17.87-1.77l.57-1.2.36-.75a3.84,3.84,0,0,0,.27-.7c0-.08,0-.16.05-.24l5.46-2.06Zm-20.76,7.67c1.1-.38,2.19-.78,3.28-1.18l-.8,1.63c-.39.78-.79,1.56-1.18,2.34l-1.55,3c-.12.23-.25.46-.38.69L304,499.4c-1,1.81-2,3.62-3,5.42l.14-.23-1.09,1.86a.71.71,0,0,0,.07.72,1,1,0,0,0,.55.35l-3.5,1.15c-1.29.42-2.59.82-3.88,1.23q-3.49,1.1-7,2.15c.3-.53.59-1.05.87-1.58l.69-1.32,2-3.82c.32-.61.62-1.22.91-1.84l1.6-3.35c.37-.78.71-1.56,1.06-2.35.17-.37.32-.75.48-1.12a8.49,8.49,0,0,0,.55-1.58l2.28-.78Zm-15.12,5.2,1.12-.37-.36.85c-.16.38-.32.76-.49,1.13-.37.85-.74,1.69-1.14,2.54L288,504.07c-.33.7-.71,1.38-1.07,2.08l-1.65,3.19c-.58,1.12-1.2,2.23-1.82,3.35a.58.58,0,0,0-.07.24l-.2.09a1.86,1.86,0,0,0-1.35-.12,1.47,1.47,0,0,0-1.23,1.6c.13.5.27,1,.37,1.49l.26,1.25.28,1.31c0,.15.07.31.09.47l.32,2.44c.07.51.11,1,.15,1.53s.07.75.09,1.13l-4.59-1.83.52-1.76c.25-.84.52-1.69.75-2.54l.83-3.06c.2-.73.4-1.46.58-2.2l.8-3.35c.2-.85.38-1.7.57-2.55s.38-1.74.57-2.62.35-1.6.5-2.4.3-1.61.43-2.42c0-.22.07-.44.1-.65l1.16-.35C286.44,497.77,288.47,497.07,290.51,496.39Zm-9.59,3.07-.13.91c-.12.85-.27,1.7-.42,2.55-.33,1.84-.68,3.67-1,5.51-.31,1.56-.68,3.12-1,4.68l-.62,2.35c-.2.77-.39,1.55-.61,2.32q-.56,1.93-1.13,3.86l-1-.41-4.57-1.81.07-.15.84-1.85.82-1.81c.09-.21.18-.41.26-.62l1.36-3.62c.32-.85.58-1.72.87-2.57l.48-1.44c.12-.36.21-.72.32-1.09.27-.94.56-1.89.79-2.83s.44-1.82.65-2.73l.82-.24,1.82-.55Zm-9.38-5.22a30.89,30.89,0,0,1,1.36,3.67c.23.73.42,1.47.67,2.19a.79.79,0,0,0,0,.48.94.94,0,0,0,.73.62l.05,0,.07,0c0,.22-.08.44-.13.65l-.41,2-.8,3c-.07.27-.16.53-.24.8l-.63,2c-.11.36-.21.72-.34,1.07l-.46,1.27-.75,2c-.11.3-.2.62-.34.92l-1.24,2.76-.45,1-6.43-2.51.18-.08a1.52,1.52,0,0,0,.7-.71c1.23-2.5,2.42-5,3.61-7.5.13-.26.23-.53.35-.8l.86-2c.15-.34.31-.69.44-1l.57-1.53c.22-.58.45-1.15.63-1.73l.68-2.24c.12-.4.2-.81.29-1.21s.16-.63.23-.94l.23-1.16q.09-.48.14-1a2.88,2.88,0,0,0,0-.74,1.31,1.31,0,0,0-.18-.46l0,0C271.14,493.46,271.34,493.85,271.53,494.24Zm-5.8,4.39c.37-.34.71-.69,1.06-1s.71-.68,1-1l0,.09c-.11.51-.24,1-.37,1.54L267,499.7c-.11.37-.2.74-.34,1.11l-.66,1.78c-.14.38-.26.77-.42,1.15L264.16,507c-.31.74-.67,1.46-1,2.19q-1.38,2.9-2.79,5.8a.79.79,0,0,0-.07.44L257,514.19q.84-3,1.76-6l.87-2.82c.13-.43.25-.87.38-1.3,0-.12.07-.25.1-.37l.26-.23Q263.09,501.05,265.74,498.63Zm-8.61,7.82-.49,1.61c-.54,1.78-1.06,3.56-1.56,5.34l-1.39-.57c-.53-.21-1-.43-1.59-.62-.33-.12-.66-.24-1-.35l.48-.41c.39-.33.76-.68,1.14-1,.83-.75,1.68-1.49,2.5-2.24Z" transform="translate(-246.46 -473.24)"/><path class="cls-1" d="M292.66,509.63a.79.79,0,0,0,.48,0,.63.63,0,0,0,.37-.24c.12-.17.23-.33.34-.5l.38-.64c.18-.31.38-.62.55-.93l1.26-2.24,2-3.6c.64-1.14,1.3-2.27,1.94-3.4.34-.59.66-1.18,1-1.77.14-.27.28-.53.41-.8s.16-.33.24-.49a3.8,3.8,0,0,0,.22-.68,2.51,2.51,0,0,0,.06-.54.56.56,0,0,0-.23-.48.91.91,0,0,0-.6-.16,1,1,0,0,0-.94.75c0,.11,0,.23,0,.34a10.48,10.48,0,0,1-.64,1.44l-.44.91c-.33.68-.67,1.35-1,2-.58,1.14-1.19,2.27-1.78,3.4l-1.79,3.4c-.6,1.14-1.21,2.29-1.85,3.42l-.1.16a.46.46,0,0,0-.09.37A.42.42,0,0,0,292.66,509.63Z" transform="translate(-246.46 -473.24)"/></svg>