<svg id="Слой_1" data-name="Слой 1" xmlns="http://www.w3.org/2000/svg" viewBox="0 0 80 148.63"><defs><style>.cls-1{fill:#00bbd5;}.cls-2{isolation:isolate;}.cls-3{fill:#fff;}.cls-4{fill:#242325;}.cls-5{fill:#181719;}.cls-6{fill:#f1f3f1;}</style></defs><title>bl</title><circle class="cls-1" cx="39.82" cy="34.31" r="34.31"/><path class="cls-1" d="M80,148.06c-20.18,1.07-59.82.36-80,0,0-39.51,12.11-71.55,40-71.55S80,108.55,80,148.06Z"/><g class="cls-2"><path class="cls-3" d="M26.38,119.76a26.43,26.43,0,0,1,5-.44c2.73,0,4.48.47,5.8,1.54a4.43,4.43,0,0,1,1.76,3.73,5,5,0,0,1-3.57,4.64v.06a5.45,5.45,0,0,1,4.36,5.3,5.7,5.7,0,0,1-1.79,4.23c-1.47,1.35-3.86,2-7.31,2a32,32,0,0,1-4.23-.25Zm2.73,8.65h2.48c2.88,0,4.58-1.5,4.58-3.54,0-2.48-1.88-3.45-4.64-3.45a11.64,11.64,0,0,0-2.41.19Zm0,10.13a14.62,14.62,0,0,0,2.29.13c2.82,0,5.42-1,5.42-4.11,0-2.88-2.48-4.08-5.46-4.08H29.11Z"/><path class="cls-3" d="M43.38,119.48h2.73v18.85h9v2.29H43.38Z"/></g><polygon class="cls-4" points="35.63 84.35 32.63 112.4 39.88 117.06 39.88 84.35 35.63 84.35"/><polygon class="cls-4" points="39.88 117.06 46.43 112.4 44.14 84.35 39.88 84.35 39.88 117.06"/><polygon class="cls-4" points="31.83 76.47 35.67 84.35 44.1 84.35 47.94 76.47 31.83 76.47"/><polygon class="cls-4" points="31.83 76.47 35.67 84.35 39.88 84.35 39.88 76.47 31.83 76.47"/><polygon class="cls-5" points="35.67 84.35 44.1 84.35 44.1 84.73 35.67 84.35"/><polygon class="cls-6" points="24.47 71.49 39.79 76.54 24.17 90.34 24.47 71.49"/><polygon class="cls-6" points="55.22 71.49 39.9 76.54 55.52 90.34 55.22 71.49"/></svg>