<svg id="Слой_1" data-name="Слой 1" xmlns="http://www.w3.org/2000/svg" viewBox="0 0 243.08 226.17"><defs><style>.cls-1{fill:#fff;}</style></defs><title>blink-right</title><path class="cls-1" d="M263.2,510.72c-4.37-6.76-14.45-8.27-33.85-11.16-28.6-4.27-50.41.64-50.78-1.44-.31-1.78,16-3.25,34.93-14,7.89-4.51,20.7-12,30.25-26.65,10.82-16.59,12.25-34.35,13-43.21,1.23-15.28-1.06-26.54,1.08-27,2.57-.56,4.28,16,18,29.53,8,7.85,16.77,11.56,22.69,14,8.64,3.63,17.38,7.31,27,6.48,22.17-1.9,34.9-26.46,38.89-23.77,2.87,1.94-5.55,13.43-5.4,31.33,0,3.34.15,17.67,7.56,28.09,15.32,21.52,55.2,17.06,55.1,19.45-.08,1.87-24.33-1.47-50.78,8.64-9.79,3.74-21.44,8.2-30.25,18.37-22.62,26.12-8.41,69.09-17.29,71.3-6.62,1.65-12.13-22.85-31.33-29.17-13.22-4.35-26.31,2.27-36.73,7.56-31.36,15.93-48.59,44.32-48.62,44.29S279.27,535.57,263.2,510.72Z" transform="translate(-178.57 -387.19)"/></svg>