<svg id="Слой_1" data-name="Слой 1" xmlns="http://www.w3.org/2000/svg" viewBox="0 0 196.56 238.79"><defs><style>.cls-1{fill:#fff;}</style></defs><title>blink-left</title><path class="cls-1" d="M202.8,545.78c2.34,3.78,18.71-9.2,40.48-7.9,31.7,1.9,52.51,32.76,53.64,34.49,14.9,22.79,13.29,47.89,16.14,47.67,3.33-.26-3.53-33.89,14.72-63.14a77.58,77.58,0,0,1,21.3-22.72c24-16.83,49.61-13.16,50.07-18.89.43-5.37-22.33-4.93-37.7-22.94-1-1.16-16.17-19.44-11.3-37.86,3.63-13.69,16.17-19.28,14-23.26-2.05-3.82-13.74,1.07-33.24,1.6-10.13.28-21.81.59-31.59-3.28-26.3-10.44-33.72-49.25-36.45-48.27-2.27.82,10.67,24.7,2,46.85-6.09,15.51-20.22,23.64-22.5,24.91-18.4,10.26-37.67,5.55-38.23,9.41s19.79,5.1,26.12,18.68c4.09,8.79.38,18.61-2.63,26.57C218.55,531.7,200.46,542,202.8,545.78Z" transform="translate(-202.59 -381.26)"/></svg>