<svg id="Слой_1" data-name="Слой 1" xmlns="http://www.w3.org/2000/svg" viewBox="0 0 171.73 87.04"><defs><style>.cls-1{fill:#fecc0c;}</style></defs><title>blink</title><path class="cls-1" d="M87.89,64.92c0,.1.38.06.46.08C88.26,64.84,87.79,64.93,87.89,64.92Z" transform="translate(-0.03)"/><polygon class="cls-1" points="86.91 63.34 87.08 63.37 86.66 63.13 86.91 63.34"/><path class="cls-1" d="M87,61.86c-.71.14.12.54-.14.8h-.16l.57.12C87.13,62.5,86.75,62.08,87,61.86Z" transform="translate(-0.03)"/><path class="cls-1" d="M88.5,61.07c-.28,0-.24-.17-.09.18h.07A.38.38,0,0,1,88.5,61.07Z" transform="translate(-0.03)"/><path class="cls-1" d="M88.48,61.22C88.48,61.38,88.71,61.12,88.48,61.22Z" transform="translate(-0.03)"/><path class="cls-1" d="M88.32,60.5l.25.21c.16,0,.2-.23.32-.16C88.75,60.34,88.59,60.38,88.32,60.5Z" transform="translate(-0.03)"/><path class="cls-1" d="M87.8,60.3l.11.11C88,60.39,88,60.36,87.8,60.3Z" transform="translate(-0.03)"/><path class="cls-1" d="M88.12,60.64l-.22-.23c-.12,0-.35,0,.08.1C87.77,60.5,88,60.54,88.12,60.64Z" transform="translate(-0.03)"/><path class="cls-1" d="M88,60.76c-.16.12-.25.26-.5.06C87.61,61.22,88.12,61.16,88,60.76Z" transform="translate(-0.03)"/><path class="cls-1" d="M86.21,61.78l-.21.15.24.13C86.12,62,86.44,61.77,86.21,61.78Z" transform="translate(-0.03)"/><path class="cls-1" d="M88.69,59.22a5.54,5.54,0,0,0-.6.08l.17.15C88.37,59.38,88.46,59.23,88.69,59.22Z" transform="translate(-0.03)"/><path class="cls-1" d="M88.09,59.3l-.26-.23C87.8,59.28,88,59.32,88.09,59.3Z" transform="translate(-0.03)"/><polygon class="cls-1" points="86.97 60.27 87.52 60.64 86.97 60.2 86.97 60.27"/><polygon class="cls-1" points="88.67 58.35 89.03 58.48 88.5 58.25 88.67 58.35"/><path class="cls-1" d="M88.65,57.78c.29.1.49-.13.67,0-.05-.16-.3-.29-.53-.41C89,57.46,88.88,57.6,88.65,57.78Z" transform="translate(-0.03)"/><path class="cls-1" d="M88.46,57.13a1.87,1.87,0,0,0,.33.2A1,1,0,0,0,88.46,57.13Z" transform="translate(-0.03)"/><path class="cls-1" d="M87.9,58.69a.76.76,0,0,0,.43-.18l-.43.09Z" transform="translate(-0.03)"/><path class="cls-1" d="M87.9,58.6h0v0Z" transform="translate(-0.03)"/><path class="cls-1" d="M87.9,58.71Z" transform="translate(-0.03)"/><path class="cls-1" d="M87.39,59.67c-.24-.13-.5-.41-.86-.14C86.83,59.63,87,59.47,87.39,59.67Z" transform="translate(-0.03)"/><path class="cls-1" d="M87.37,58.82l-.1.24a.76.76,0,0,1,.4,0Z" transform="translate(-0.03)"/><polygon class="cls-1" points="87.2 58.7 87.33 58.82 87.37 58.73 87.2 58.7"/><path class="cls-1" d="M88.06,57.55a.43.43,0,0,1-.23-.35.8.8,0,0,0-.13.42C87.84,57.64,88.08,57.7,88.06,57.55Z" transform="translate(-0.03)"/><path class="cls-1" d="M88,58.06Z" transform="translate(-0.03)"/><path class="cls-1" d="M87.84,55.93h0Z" transform="translate(-0.03)"/><path class="cls-1" d="M87.62,57.64c-.08.1,0,.17.15.22a.55.55,0,0,1-.07-.25C87.64,57.61,87.6,57.61,87.62,57.64Z" transform="translate(-0.03)"/><path class="cls-1" d="M88.26,56.78A1.46,1.46,0,0,0,88,57C88.16,56.91,88.38,56.8,88.26,56.78Z" transform="translate(-0.03)"/><path class="cls-1" d="M88,58Z" transform="translate(-0.03)"/><path class="cls-1" d="M88,58a1.16,1.16,0,0,0-.26-.14.55.55,0,0,0,.14.17Z" transform="translate(-0.03)"/><path class="cls-1" d="M85.09,55.55c.4,0,.76.29.34.53A4.4,4.4,0,0,0,87.76,56a.69.69,0,0,1-.57-.25c-.22.08-.51.53-.86.33-.2-.32.14-.26.35-.41-.49.13-.72-.4-1.44-.33l.26.28C85.38,55.57,85.2,55.47,85.09,55.55Z" transform="translate(-0.03)"/><path class="cls-1" d="M87.72,56.41v.1c.07-.11.23-.19.54-.34a.78.78,0,0,0-.47-.21l-.06.48Z" transform="translate(-0.03)"/><path class="cls-1" d="M87.77,57c-.43-.08-.61-.31-1.08-.17,0,.29.36.2.55.37-.11-.46.24.13.48-.2a.57.57,0,0,1,.11.25A1.24,1.24,0,0,1,88,57h-.22c.09-.13.11,0,.16,0h0l-.24-.47A1.45,1.45,0,0,0,87.77,57Z" transform="translate(-0.03)"/><path class="cls-1" d="M85.61,59.28h.1C85.65,59.24,85.62,59.23,85.61,59.28Z" transform="translate(-0.03)"/><path class="cls-1" d="M85.87,59.09c.06,0,.23.06.19.17s-.21,0-.35,0c.11.07.31.23.52,0h-.06a1.54,1.54,0,0,1,.74-.4A5.46,5.46,0,0,0,85.87,59.09Z" transform="translate(-0.03)"/><path class="cls-1" d="M86.71,58l-.21-.39-.37.2h.22C86.26,58,86.54,58,86.71,58Z" transform="translate(-0.03)"/><polygon class="cls-1" points="88.02 55.89 88.47 55.94 87.83 55.72 88.02 55.89"/><polygon class="cls-1" points="87.96 55.38 88.36 55.4 88.12 55.27 87.96 55.38"/><path class="cls-1" d="M83.09,27,83,26.89A.36.36,0,0,0,83.09,27Z" transform="translate(-0.03)"/><path class="cls-1" d="M83.06,27.79h.19C83.15,27.78,83.07,27.76,83.06,27.79Z" transform="translate(-0.03)"/><path class="cls-1" d="M88,43c.37-.17.94-.35.5-.33l-.43,0A.21.21,0,0,1,88,43Z" transform="translate(-0.03)"/><path class="cls-1" d="M85.36,34.55h-.13l.41.11Z" transform="translate(-0.03)"/><path class="cls-1" d="M83.56,34.43l.28-.22A.94.94,0,0,0,83.56,34.43Z" transform="translate(-0.03)"/><path class="cls-1" d="M82.62,22.47l-.44-.13C82.19,22.54,82.41,22.45,82.62,22.47Z" transform="translate(-0.03)"/><path class="cls-1" d="M87.84,50.23a.68.68,0,0,0,.26-.36C87.85,50,87.47,50.18,87.84,50.23Z" transform="translate(-0.03)"/><path class="cls-1" d="M87.69,27.29a.37.37,0,0,0-.26-.1A.3.3,0,0,0,87.69,27.29Z" transform="translate(-0.03)"/><path class="cls-1" d="M88.1,49.46l-.1.08a.42.42,0,0,1,.1.34C88.28,49.74,88.4,49.6,88.1,49.46Z" transform="translate(-0.03)"/><path class="cls-1" d="M83,6.14H83C83,6.1,83,6.12,83,6.14Z" transform="translate(-0.03)"/><path class="cls-1" d="M87.36,1.38a.52.52,0,0,1,0,.2A.21.21,0,0,0,87.36,1.38Z" transform="translate(-0.03)"/><path class="cls-1" d="M88.18,53.36Z" transform="translate(-0.03)"/><path class="cls-1" d="M86.47,53.88a.51.51,0,0,0-.21,0A.65.65,0,0,1,86.47,53.88Z" transform="translate(-0.03)"/><path class="cls-1" d="M85.4,48.39Z" transform="translate(-0.03)"/><path class="cls-1" d="M88,53.52a.51.51,0,0,0,.13-.14A.55.55,0,0,0,88,53.52Z" transform="translate(-0.03)"/><path class="cls-1" d="M88.19,53.5v.09S88.27,53.59,88.19,53.5Z" transform="translate(-0.03)"/><path class="cls-1" d="M88.16,53.21a.28.28,0,0,1,0,.17h.07A1.31,1.31,0,0,1,88.16,53.21Z" transform="translate(-0.03)"/><path class="cls-1" d="M84.15,14.89h0C84,14.76,84,14.8,84.15,14.89Z" transform="translate(-0.03)"/><path class="cls-1" d="M83.45,40.24Z" transform="translate(-0.03)"/><path class="cls-1" d="M83.12,39.86c.54.16.47.26.36.38l1.25-.13Z" transform="translate(-0.03)"/><path class="cls-1" d="M83,25l-.39.27c-.64-.33-.42-.56-1-.31,1.36,0,.14,1,1.5,1.08l-.29.18s-.07-.06-.05-.11c-.65.35,1,.26.79.7a.35.35,0,0,1-.46.16l.34.35c0,.1-.26.08-.24,0l.11.53h0a4.9,4.9,0,0,1,.68.33c-.19.13-.14-.07-.31,0l.33.29c-.35.12-.69-.12-.64-.32-1.36.27.34.24-.45.83l-.17-.28c-.77.18-.49.39-1,.7.25-.07,1.21-.62,1.55-.31-.1.09-.15.21.12.38-.48,0-.36.17-.34.38H82.4c.18.23.51.21.8.34-.06.25-.56.3-1,.36-.1.4.79-.28.92.2-.24.33,0,.57.4,1-.22.23-.39,0-.57,0l.51.21s-.17,0-.25,0c.2.18.64,0,.81.29.7.07-1,.57-.23.91-.18.08-.39,0-.64,0a3.47,3.47,0,0,0,1.09.78l-.42.33c.48-.24,1,.07,1.52.34.23-.09.43-.16.53-.21l.34.43a1.09,1.09,0,0,1-.59-.06l.15.08a1.23,1.23,0,0,1-1,0l.39-.15A3.93,3.93,0,0,0,84,34.52a.35.35,0,0,1,.17.14.66.66,0,0,0-.26,0c-.07,0,.07.06.24.13l-.71.1h.28l-.45.56c.72.4,1.77.75,2.07,1.39a4.77,4.77,0,0,0-1.47,0c.66-.17-.28-.49-.15-.82-.07.17-.36.13-.47.09l.6.59c-.51,0-.38.13-.59.28,1-.12.67.44,1,.68-.34,0-.68,0-.6-.34-.75.32,1.18.42.54.73,0-.07,0-.11-.13-.14.3.17.06.57-.23.48v-.07c-.12.47,0,1.44.84,1.51-.11,0-1-.06-1.2-.09l2.86.85c-.73-.07-2.47.21-2.88-.18a.3.3,0,0,0,0,.49,2.39,2.39,0,0,1,1.12-.09,4.66,4.66,0,0,0-1.13.56c.16-.12,1.3,0,1.27.2a10,10,0,0,1-1.25,0l1.12.45a2.63,2.63,0,0,0-1.27.08c.22,0,0,.39.09.51l.26-.19c-.17.51,1.58.51,1.52,1-.23-.06-1.43-.15-1.57.11.58.12,2.77.53,3.21,1l-.33.09.38.35a27,27,0,0,1-3.4-1.15c-.26.19-.39,0-.36.34a.37.37,0,0,1-.48-.21v0l-.2.67c.67,0,.67.51,1.23.49l-.7-.73c.67,0,1.91.42,1.79.89a6,6,0,0,1-1.42-.08c.23.06.44.45.28.49l-.36-.2c-.25.26.89.43.25.75,0,.11-.87.33-.47.35a15.77,15.77,0,0,1,3.72-.09,5.53,5.53,0,0,1-1.11.7c-.6.18-1.43-.27-2-.12a1.28,1.28,0,0,1,.48.15c-.16.11-.57,0-.49.2.68,0-.06.51.58.12.19.24-.14.26-.11.55a2.72,2.72,0,0,1,1.69.5,1.7,1.7,0,0,0-.5.07c-.06.5-.37.77-.38,1.24-.16,0-.36.27-.66.17.12.07.35.13.37.27-.59.28-.09-.32-.8-.11.4,0,.55.37.79.58.61-.06.12-.47-.13-.68a2.88,2.88,0,0,1,2.12.84c.21.39-.55.17-.43.24-.15.73,1.47.62.86,1.23-.54.24-1.07,0-1.46.06-.2-.32.34-.49.32-.7l-.25.26c-.18-.1-.31-.31-.16-.43-.48.2-.09,1.23-.54,1.79.18.1.37.27.58.19l-.08-.18c.43-.16.6.33.8.11.3.24.78.51.54.84l-.61.06c.18,0,.37-.22.18-.31.27.14-.83.52,0,.67l.42-.24c.31.24,1,.54.77.83.61-.14-.07-.07.64-.28-.88.18,0-.76-.89-.47.82-.22.35-.38,1-.66-.2,0-.39.1-.29-.15l-.18,0h0a.81.81,0,0,1-.31.13c-.46-.12-.45-.52-.69-.66.1-.15.23.06.45,0l-.36-.2c.45,0,.75-.39,1,0v-.31c.25-.19.35-.44.16-.6.1-.15-.5-.37-.15-.25l-.28-.49H88c.06-.49-.74-1,.07-1.56a.54.54,0,0,1-.12-.61l.39,0c-.14-.21.39-.63,0-.72,1-.23.23-1,.41-1.39H88.2a1.33,1.33,0,0,0-.32-.81h-.45c-.37-.27.32-.7.27-1.13.17,0,.13.14,0,.22,1-.51-.74-1.09,0-1.55-.16-.12-.11-.2,0-.28h0L88,43a1,1,0,0,0-.24.14.73.73,0,0,0-.18-.36l.48-.06h0c.18-.13-.23-.11-.59,0a1.08,1.08,0,0,0-.29-.18c.78-.11-.26-.35.57-.5-.4-.09-.3-.67-1.15-.74h.17c.1-.15.19-.3,0-.43l.61-.06-.82-.32a1,1,0,0,1,1.06-.08c-.72-.47-.27-.38-1-.79H87c0-.14-.55-.37-.22-.46.75-.32.1-1.59.8-2.42-1.17.16.52-.38-.38-.42.28,0,.43-.16.67,0-.27-.42.44-.63-.32-.92.28,0,.4.09.57,0-.06,0-.24-.13-.08-.18s.23.06.35.13c0-.43-.9-.47-1.69-.51.38-.22.32-.33-.2-.48.26-.08.53-.2.63.06,0-.15.38-.92-.26-.93.16,0,0-.21,0-.25a1.68,1.68,0,0,0,0-.7l-.1.09c-.77-.13-.17-.28-.26-.54h.08c.56-.61-.27-.26.37-.87h-.48c-1-.06.61-.54.21-.89l-.27.13c-.35-.19,1.4-.54,1.53-.73.09,0,.14.07.21.12.61-.5-.63-.07-.77-.44.34-.07.86.09.92-.16.27-.13-1.1-.73-.45-1.08a.79.79,0,0,1-.72,0c-.2-.15,1-.72.16-1a.49.49,0,0,1,.2,0c-.21-.2-.35-.66-.8-.79,1.66-.19-.81-1.27.72-1.27l-.08-.63h.16c.1-.4-.27-.54-.63-.69.1-.09.25,0,.33,0,.31-.59.24-.65-.52-1.14l.5,0c-.29-.13.78-.85.2-1.42a.51.51,0,0,1,.22.06c-.58-.65,1.38-1.55-.43-1.79L86.71,19c-.14.55-.78-.08-1.08.15-.11-.22.54-.56.64-.3h-.09c.94.1.33-.69,1-.67,0-1.09.47-2.15.51-3.17l-.73.12v-.36c.17-.09.57-.13.54.13.41-.13-.35-.43-.51-.43.3-.5.85.19.87,0l-.05-.21h-.09c-.3-.17-.62-.18-.58-.49s.45-.1.48-.17.08,0,0-.12l.06-.45-.58.18c-.28-.2,0-.42-.62-.21,1-.3.36-1.67.68-1.86a.75.75,0,0,1-.36-.89c-.12.08-.77.14-.69-.16,1.34.11.58-.54,1.55-.77-.64.21-.16-.83-1.07-.5.11-.24.5,0,.82-.2-.52-.58.34-1.28.16-2a1.53,1.53,0,0,1-.71,0l.88-.38c-.09-.14-1-.13-.4-.39-.15,0-.37.09-.43,0,.86-1.41-.7-2.88.91-4.32-.34.19-.37.06-.39-.08-.08.1-.43,0-.67,0l.66-.6c-.66-.11,0-.64-.68-.71l.11.19C86.1.1,85.19.7,84.23.67c.85.28-1.26.75,0,1.21-.2.1-.31-.09-.53,0,.41.12.5.26.31.52h-.1c.1.74-.3,1.06-.57,1.89l.47-.06c-.06.18-.21.22-.33.3.72.2,0-.5.83-.31-1,.24,0,1.26-1.11,1.42,0,.27.55-.08.54.19l-.3.07.38.07c-.06.18-.43.27-.68.28,0,0-.07-.12-.09-.17-.35.23.12.66,0,.74l.18-.26c.28.75-.11,1.66.49,2.39l.22,0c.41.55-.25.44-.05,1h-.05c.22.12.33.28.31.45-.26-.15-.51.29-.8.09.44.6.35.3,1.18.69l-.37.09c.34.13.51.15.61.45-.32-.25-.57.19-1-.09-.81.64.82.94-.37,1.24,1,.29.57-.55.79-.39.34-.14.77.24.66.44s-1.31.35-1.29.86c0,0-.07,0-.07-.11-.26.19.35.38-.07.61.62.13,0,.3.76.34L84,14.15c.21.27,1.13.52.68,1a1.47,1.47,0,0,1-.49-.25c-.23.13.15.25-.08.38-.79,0-.17-.57-.78-.85-.33.14.57.54-.28.4,1.09.21-.14.5.7.85h-.47c.07,0,.3.17.29.27l-.62-.18c.52.28-.46.54-.17.81,0-.56.57-.13.92-.36.64.69-1.24.4-1,1.18-.07-.11.29-.4.5-.23a1.13,1.13,0,0,1-.53.43c.1.52.49-.08.78.14-.58.18.24.25.42.48h-.48c-.31.59,1,.16.63.68l-.67-.22.17.28L83,18.9c.41.3.3.39.15.69.34-.07.88,0,.89.3-.29.18-.46-.1-.39.27-.3-.08-.68-.17-.24-.33a3.78,3.78,0,0,1-.46-.1c-.33.19-.08.48-.07.61A.22.22,0,0,1,83,20.2l.67.53a.51.51,0,0,1-.47,0c.05.11.27.18.32.34-.39,0-.8,0-1-.26l.44.51c-.17,0-.47.26-.61.2-.23.28.76.69.46,1.07a.34.34,0,0,1,.21.14c-.09.35-.57.66,0,1.08l-.7.24c.16.33.89-.32,1.15.22.22.38-.6.14-.8.28.35.19,1.08.52.5.88C82.91,25.2,83,25.1,83,25Zm.31,4c-.1-.08-.41-.23-.13-.29C83.7,28.82,83.43,28.89,83.27,29Zm1.16,6.12c-.16-.06-.08-.15.1-.25,0,.13,0,.13-.1.27Zm3.36,17h0c.17-.12.09,0,0,.07Zm-.21.36a.28.28,0,0,0,.2,0c-.12,0-.13-.11-.1-.2-.12.12-.21.16-.1.27Zm-.19-38.8-.13.07c-.13-.09,0,0,.13,0Z" transform="translate(-0.03)"/><path class="cls-1" d="M83.77,34.45H84A.27.27,0,0,0,83.77,34.45Z" transform="translate(-0.03)"/><path class="cls-1" d="M82.71,22.49h0Z" transform="translate(-0.03)"/><path class="cls-1" d="M83.49,47a.54.54,0,0,1,.25-.14C83.62,46.81,83.52,46.84,83.49,47Z" transform="translate(-0.03)"/><path class="cls-1" d="M88.4,54.46l-.13-.23c0,.11-.08.15-.16.21C88.23,54.44,88.39,54.39,88.4,54.46Z" transform="translate(-0.03)"/><path class="cls-1" d="M85.42,56.47c.06,0,0,.07.07.11h.22C85.69,56.43,85.51,56.32,85.42,56.47Z" transform="translate(-0.03)"/><path class="cls-1" d="M86.8,54.68c-.41,0-.27.16-.19.33h0C87.17,55,87,54.85,86.8,54.68Z" transform="translate(-0.03)"/><path class="cls-1" d="M86.62,55a.2.2,0,0,1,0,.15C86.86,55.21,86.68,55.13,86.62,55Z" transform="translate(-0.03)"/><path class="cls-1" d="M87.85,53c-.1.08.52,0,.35.09C88.72,53.19,87.58,52.59,87.85,53Z" transform="translate(-0.03)"/><polygon class="cls-1" points="85.43 54.81 85.93 54.75 85.53 54.66 85.43 54.81"/><path class="cls-1" d="M85.83,53.53l-.14.26a.2.2,0,0,1,.17.07C85.88,53.7,86,53.52,85.83,53.53Z" transform="translate(-0.03)"/><path class="cls-1" d="M85.86,53.86a.19.19,0,0,0,.08.21A.38.38,0,0,0,85.86,53.86Z" transform="translate(-0.03)"/><polygon class="cls-1" points="85.28 54.46 85.38 54.38 85.42 54.2 85.28 54.46"/><path class="cls-1" d="M86,50.75l-.14-.28c-.17,0-.28,0-.21.15S85.76,50.79,86,50.75Z" transform="translate(-0.03)"/><path class="cls-1" d="M84.55,51.6a1.06,1.06,0,0,1,.38-.12h-.62Z" transform="translate(-0.03)"/><path class="cls-1" d="M84.41,50.78c-.17,0-.49-.41-.46,0C84.12,50.75,84.27,51,84.41,50.78Z" transform="translate(-0.03)"/><polygon class="cls-1" points="85.16 46.52 85.17 46.59 86.19 46.58 85.16 46.52"/><path class="cls-1" d="M82.76,42.76c-.24.34.63.08.32.38.24.08.25-.25.46-.17C83.29,42.77,83.43,42.67,82.76,42.76Z" transform="translate(-0.03)"/><path class="cls-1" d="M83.54,43l.15.1A.5.5,0,0,0,83.54,43Z" transform="translate(-0.03)"/><polygon class="cls-1" points="87.88 0.59 88.09 0.38 87.75 0.52 87.88 0.59"/><path class="cls-1" d="M87.15.18l.65,0L87.21,0S87.3.14,87.15.18Z" transform="translate(-0.03)"/><path class="cls-1" d="M82,29.62h.16c.17,0,.18-.08.21-.18Z" transform="translate(-0.03)"/><polygon class="cls-1" points="82.42 26.7 82.4 26.75 82.99 26.65 82.42 26.7"/><path class="cls-1" d="M81.7,24.25c0,.1.11.22.08.32C81.68,24.35,82.43,24.22,81.7,24.25Z" transform="translate(-0.03)"/><path class="cls-1" d="M66.53,66.49c0,.09.34-.19.41-.22C66.78,66.21,66.45,66.55,66.53,66.49Z" transform="translate(-0.03)"/><polygon class="cls-1" points="64.91 65.95 65.06 65.87 64.61 65.96 64.91 65.95"/><path class="cls-1" d="M64.18,64.91c-.5.53.37.31.31.64l-.11.13.52-.26C64.66,65.25,64.14,65.19,64.18,64.91Z" transform="translate(-0.03)"/><path class="cls-1" d="M65,63.44c-.2.2-.28,0,0,.18v-.07A.29.29,0,0,1,65,63.44Z" transform="translate(-0.03)"/><path class="cls-1" d="M65.06,63.55C65.16,63.65,65.19,63.34,65.06,63.55Z" transform="translate(-0.03)"/><path class="cls-1" d="M64.56,63.15h.31c.11-.13,0-.28.17-.3C64.82,62.77,64.71,62.9,64.56,63.15Z" transform="translate(-0.03)"/><path class="cls-1" d="M64,63.32h.14C64.23,63.28,64.23,63.24,64,63.32Z" transform="translate(-0.03)"/><path class="cls-1" d="M64.48,63.36h-.3c-.08.09-.26.23.12,0C64.12,63.47,64.31,63.38,64.48,63.36Z" transform="translate(-0.03)"/><path class="cls-1" d="M64.46,63.51c-.06.17-.06.34-.37.34C64.37,64.07,64.74,63.73,64.46,63.51Z" transform="translate(-0.03)"/><path class="cls-1" d="M63.55,65.3l-.09.23.26,0C63.59,65.51,63.72,65.16,63.55,65.3Z" transform="translate(-0.03)"/><path class="cls-1" d="M64.19,62a5.5,5.5,0,0,0-.44.42H64A.71.71,0,0,1,64.19,62Z" transform="translate(-0.03)"/><path class="cls-1" d="M63.75,62.45h-.33C63.5,62.61,63.62,62.56,63.75,62.45Z" transform="translate(-0.03)"/><polygon class="cls-1" points="63.35 63.77 63.99 63.7 63.31 63.73 63.35 63.77"/><polygon class="cls-1" points="63.71 61.41 64.06 61.29 63.52 61.45 63.71 61.41"/><path class="cls-1" d="M63.4,61c.28-.11.33-.39.52-.42-.12-.08-.39,0-.64,0C63.45,60.67,63.5,60.78,63.4,61Z" transform="translate(-0.03)"/><path class="cls-1" d="M63,60.71a1.93,1.93,0,0,0,.37-.06A1,1,0,0,0,63,60.71Z" transform="translate(-0.03)"/><path class="cls-1" d="M63.28,62.13a.83.83,0,0,0,.25-.38l-.3.32Z" transform="translate(-0.03)"/><path class="cls-1" d="M63.23,62.08h0l-.08-.15Z" transform="translate(-0.03)"/><path class="cls-1" d="M63.29,62.15Z" transform="translate(-0.03)"/><path class="cls-1" d="M63.39,63.12c-.26,0-.61,0-.76.42C62.91,63.43,63,63.2,63.39,63.12Z" transform="translate(-0.03)"/><path class="cls-1" d="M63,62.55v.23a1,1,0,0,1,.33-.23Z" transform="translate(-0.03)"/><polygon class="cls-1" points="62.72 62.55 62.89 62.55 62.87 62.46 62.72 62.55"/><path class="cls-1" d="M62.81,61.24a.37.37,0,0,1-.37-.1.64.64,0,0,0,.11.37C62.68,61.44,62.9,61.33,62.81,61.24Z" transform="translate(-0.03)"/><path class="cls-1" d="M63,61.67Z" transform="translate(-0.03)"/><path class="cls-1" d="M61.78,60.25l-.05.06h.06Z" transform="translate(-0.03)"/><path class="cls-1" d="M62.51,61.57c0,.12.1.1.24.06a.44.44,0,0,1-.19-.13C62.51,61.53,62.47,61.56,62.51,61.57Z" transform="translate(-0.03)"/><path class="cls-1" d="M62.57,60.59a1.45,1.45,0,0,0-.09.27C62.56,60.73,62.67,60.53,62.57,60.59Z" transform="translate(-0.03)"/><path class="cls-1" d="M63,61.57h0C63.11,61.49,63.07,61.52,63,61.57Z" transform="translate(-0.03)"/><path class="cls-1" d="M63,61.57a1.23,1.23,0,0,0-.28.06.5.5,0,0,0,.2,0Z" transform="translate(-0.03)"/><path class="cls-1" d="M59.39,61.63c.33-.22.76-.25.55.16.36,0,1.32-.9,1.8-1.48a.75.75,0,0,1-.58.17c-.13.19-.13.67-.52.75-.33-.1,0-.26.06-.5-.33.39-.78.15-1.33.63h.35C59.63,61.48,59.43,61.51,59.39,61.63Z" transform="translate(-0.03)"/><path class="cls-1" d="M62,60.65H62a1.32,1.32,0,0,1,.25-.56.84.84,0,0,0-.49.14l.21.37Z" transform="translate(-0.03)"/><path class="cls-1" d="M62.26,61c-.38.21-.65.15-1,.53.17.18.39-.08.63-.07-.33-.26.26,0,.28-.43a.47.47,0,0,1,.22.11,1.12,1.12,0,0,1,0-.29h0l-.14.08c0-.15.08-.08.14-.08h.05L62,60.67C62,60.8,62.11,60.88,62.26,61Z" transform="translate(-0.03)"/><path class="cls-1" d="M61.75,63.92l.07-.07C61.77,63.86,61.73,63.88,61.75,63.92Z" transform="translate(-0.03)"/><path class="cls-1" d="M61.86,63.63c.07,0,.22-.1.24,0s-.17.12-.28.21a.37.37,0,0,0,.43-.29h-.06a1.63,1.63,0,0,1,.39-.72A6.16,6.16,0,0,0,61.86,63.63Z" transform="translate(-0.03)"/><path class="cls-1" d="M62,62.37l-.37-.14-.2.36.17-.14C61.62,62.66,61.81,62.46,62,62.37Z" transform="translate(-0.03)"/><polygon class="cls-1" points="61.9 60.09 62.29 59.85 61.66 60.08 61.9 60.09"/><polygon class="cls-1" points="61.59 59.77 61.92 59.55 61.66 59.6 61.59 59.77"/><path class="cls-1" d="M42.83,42.9h-.15A.34.34,0,0,0,42.83,42.9Z" transform="translate(-0.03)"/><path class="cls-1" d="M43.24,43.49l.17-.1C43.3,43.43,43.23,43.46,43.24,43.49Z" transform="translate(-0.03)"/><path class="cls-1" d="M55.12,51.17c.21-.34.57-.81.22-.53l-.32.3C55.15,51,55.16,51.07,55.12,51.17Z" transform="translate(-0.03)"/><path class="cls-1" d="M48.62,46.82l-.08.11.39-.17Z" transform="translate(-0.03)"/><path class="cls-1" d="M47.12,47.82l.11-.32A.94.94,0,0,0,47.12,47.82Z" transform="translate(-0.03)"/><path class="cls-1" d="M40.11,40l-.42.17C39.8,40.35,40,40.16,40.11,40Z" transform="translate(-0.03)"/><path class="cls-1" d="M58.8,56.27a.6.6,0,0,0,0-.41C58.71,56.14,58.49,56.46,58.8,56.27Z" transform="translate(-0.03)"/><path class="cls-1" d="M46.69,40.36a.41.41,0,0,0-.26.09A.33.33,0,0,0,46.69,40.36Z" transform="translate(-0.03)"/><path class="cls-1" d="M58.61,55.58v.11a.34.34,0,0,1,.26.17C58.9,55.67,59,55.5,58.61,55.58Z" transform="translate(-0.03)"/><path class="cls-1" d="M31.86,28.43a.46.46,0,0,1,0-.06S31.84,28.42,31.86,28.43Z" transform="translate(-0.03)"/><path class="cls-1" d="M32.87,22.49a.4.4,0,0,1,.13.12A.24.24,0,0,0,32.87,22.49Z" transform="translate(-0.03)"/><path class="cls-1" d="M60.72,58.25Z" transform="translate(-0.03)"/><path class="cls-1" d="M59.62,59.64a.58.58,0,0,0-.19.1A.73.73,0,0,1,59.62,59.64Z" transform="translate(-0.03)"/><path class="cls-1" d="M55.89,56.46Z" transform="translate(-0.03)"/><path class="cls-1" d="M60.64,58.48a.48.48,0,0,0,0-.17A.52.52,0,0,0,60.64,58.48Z" transform="translate(-0.03)"/><path class="cls-1" d="M60.8,58.34a.86.86,0,0,0,0,.09C60.88,58.4,60.91,58.36,60.8,58.34Z" transform="translate(-0.03)"/><path class="cls-1" d="M60.62,58.16a.22.22,0,0,1,.05.15v-.06Z" transform="translate(-0.03)"/><path class="cls-1" d="M37.36,33.84h0C37.18,33.83,37.23,33.85,37.36,33.84Z" transform="translate(-0.03)"/><path class="cls-1" d="M50.06,51.94Z" transform="translate(-0.03)"/><path class="cls-1" d="M49.6,51.87c.52-.21.51-.11.49,0L51,51Z" transform="translate(-0.03)"/><path class="cls-1" d="M41.7,41.6l-.17.42c-.68.16-.63-.14-.94.37,1.11-.79.66.65,1.76-.14l-.14.3h-.1c-.34.63.92-.41,1,0a.38.38,0,0,1-.29.39h.45c0,.09-.17.21-.2.12l.36.3h0a5.24,5.24,0,0,1,.72-.18c-.09.21-.15,0-.27.17h.42c-.22.29-.62.33-.68.16-.94,1,.4,0,.07.85l-.28-.09c-.52.59-.19.57-.41,1.07.16-.2.64-1.16,1.08-1.14,0,.12,0,.24.3.19-.39.29-.2.34-.07.47l-.52.37a3.57,3.57,0,0,0,.82-.24c.08.21-.29.55-.59.84.13.34.49-.67.84-.41,0,.38.31.39.83.44-.05.3-.33.21-.44.37l.52-.16a1.61,1.61,0,0,1-.18.17c.25,0,.52-.37.8-.29.6-.37-.53,1,.29.77-.1.17-.33.21-.52.37A3.49,3.49,0,0,0,47.44,47l-.16.48a1.89,1.89,0,0,1,1.39-.68c.14-.2.27-.37.32-.46l.5.09a1.25,1.25,0,0,1-.51.31h.16a1.4,1.4,0,0,1-.79.55l.23-.34a4.46,4.46,0,0,0-1.05.59.35.35,0,0,1,.21,0,.76.76,0,0,0-.23.14s.09,0,.26,0l-.52.5.24-.15-.06.66c.78-.15,1.81-.54,2.38-.27a5.47,5.47,0,0,0-1.2.85c.43-.51-.48-.18-.55-.49,0,.16-.22.31-.33.34l.79,0c-.41.29-.24.32-.33.55.74-.68.76-.09,1.13-.11-.26.21-.57.38-.65.13-.43.68,1.16-.41.81.19,0,0,0-.1-.17,0,.33-.06.35.36.07.47h0a1,1,0,0,0,1.26.65l.21-.1c-.09.07-.85.57-1,.66l2.73-1.13C52,50.8,50.71,52,50.18,52c0,.14,0,.31.28.32,0-.12.74-.77.85-.73a5,5,0,0,0-.61,1.07c.06-.17,1-.77,1.11-.62-.15.08-.9.69-1,.71L52,52.4a3,3,0,0,0-1,.82c.15-.17.19.29.34.3l.11-.29c.13.46,1.53-.6,1.75-.21-.22.1-1.22.75-1.2,1A11.81,11.81,0,0,1,55,52.77l-.22.26h.48A29.88,29.88,0,0,1,52,54.27c-.11.29-.28.27-.11.45a.38.38,0,0,1-.52.12l.19.59c.52-.42.81,0,1.24-.4l-.94-.09c.52-.42,1.75-.85,1.9-.45a6.82,6.82,0,0,1-1.18.8c.22-.1.59,0,.48.18l-.39.08c-.06.34.94-.23.59.37,0,.1-.52.75-.19.52A18.07,18.07,0,0,1,56,54.14a5.69,5.69,0,0,1-.52,1.16c-.39.49-1.29.67-1.62,1.09a1.42,1.42,0,0,1,.46-.19c-.07.17-.48.31-.28.43.57-.38.22.39.52-.26.28,0,0,.27.2.45a3,3,0,0,1,1.62-.67,1.94,1.94,0,0,0-.37.35c.21.39.11.76.35,1.09-.11.13-.15.41-.44.52.13,0,.35-.12.44,0-.33.55-.24-.17-.7.4.33-.22.63-.07.94-.07.46-.41-.15-.4-.46-.4a3.11,3.11,0,0,1,2.14-.68c.37.14-.35.44-.22.42.26.6,1.5-.45,1.33.34-.3.49-.85.65-1.13.92-.33-.1,0-.54-.11-.68L58,58.7c-.2,0-.41,0-.35-.2-.28.43.57.91.51,1.57a.58.58,0,0,0,.57-.22l-.15-.08c.26-.37.65-.13.7-.4.37,0,.89-.12.87.26l-.46.41c.14-.11.18-.37,0-.33.29-.07-.39.86.33.48l.22-.42c.37,0,1-.2,1,.12.41-.46-.09,0,.36-.58-.61.66-.37-.55-1,.21.54-.64.08-.47.49-1.09-.16.13-.26.3-.31.07l-.17.07h0a.88.88,0,0,1-.18.27c-.44.19-.63-.09-.9,0,0-.16.22-.1.35-.28l-.39.08c.35-.28.39-.72.78-.64l-.15-.23c.1-.28.05-.52-.18-.51,0-.16-.59,0-.24-.08L59.26,57l.09-.07c-.21-.37-1.12-.25-.76-1.13a.39.39,0,0,1-.42-.35l.28-.27c-.22-.07,0-.67-.39-.49.72-.79-.35-.85-.4-1.22l-.41.29c-.11-.19-.35-.28-.68-.38l-.35.28c-.44,0-.11-.68-.37-1,.15-.08.17,0,.13.14.54-1-1.16-.32-.81-1.08-.19,0-.19-.08-.14-.2h0c0-.08.08-.17.11-.26a1,1,0,0,0-.12.24.6.6,0,0,0-.33-.14l.36-.33h0c.07-.2-.24.06-.49.33a1.12,1.12,0,0,0-.32,0c.57-.54-.39-.09.19-.69-.37.18-.59-.29-1.31.18.09-.07.11-.13.15-.08,0-.16,0-.32-.26-.27l.46-.41-.83.27a1.14,1.14,0,0,1,.81-.69c-.83.1-.42-.1-1.2,0l.33-.22c-.09-.09-.63.07-.42-.19.43-.68-.75-1.17-.62-2.17-.85.81.22-.58-.52-.06.2-.2.26-.37.52-.42-.44-.13,0-.7-.74-.45.2-.2.37-.18.48-.31-.07,0-.26,0-.15-.08s.22-.1.35-.12c-.26-.27-1,.21-1.62.66.19-.38.09-.42-.41-.22.17-.21.32-.46.54-.33,0-.13-.17-.87-.69-.5.11-.13-.07-.18-.15-.16-.15-.26-.12-.31-.34-.51v.13c-.69.37-.28-.09-.5-.22h.07c.12-.76-.35,0-.16-.83l-.37.31c-.85.58.21-.74-.29-.75l-.15.25c-.38.08.84-1.22.84-1.43s.15,0,.23,0c.22-.72-.54.33-.85.16.23-.25.74-.45.65-.67.15-.25-1.26.15-.92-.48-.17.21-.34.42-.59.41s.41-1.1-.37-.77a.55.55,0,0,1,.14-.16c-.28,0-.63-.25-1.05-.07,1.23-1.13-1.31-.4-.08-1.32L45,38.81l.13-.08c-.13-.34-.5-.22-.86-.1,0-.13.18-.17.25-.21-.06-.59-.14-.6-1-.48l.37-.33c-.3.08.18-1.06-.59-1.11a.57.57,0,0,1,.21-.09c-.8-.1.29-1.91-1.28-1h-.58c.18.47-.67.41-.79.75-.2-.09.14-.72.36-.59l-.05.08c.8-.5-.09-.68.43-1a27.46,27.46,0,0,1-1.25-2.52l-.52.52-.15-.27c.09-.17.39-.43.5-.24.26-.34-.5-.09-.63,0,0-.52.78-.38.72-.49l-.15-.11v.08c-.33.06-.59.24-.72,0s.31-.34.29-.41,0-.06,0-.09l-.18-.35L39,31c-.33,0-.2-.31-.61.22.65-.82-.58-1.38-.43-1.7a.62.62,0,0,1-.76-.41c-.05.13-.54.56-.63.3,1.13-.73.18-.72.83-1.47-.4.53-.56-.49-1.11.29,0-.24.39-.31.55-.63-.72-.09-.4-1.1-.92-1.5-.15.1-.3.34-.59.39l.5-.79c-.14,0-.88.52-.53,0-.1.11-.25.29-.34.25-.05-1.5-2.07-1.59-1.53-3.55-.17.34-.27.27-.35.17,0,.12-.35.26-.53.42l.22-.82c-.59.32-.37-.42-.91-.09l.19.06c-.73.27-1.14,1.24-1.93,1.79.83-.31-.62,1.27.6.87-.1.19-.29.12-.44.3.39-.16.53-.12.52.18h-.1c.47.46.31.92.53,1.66l.35-.33a1.08,1.08,0,0,1-.11.41c.68-.29-.23-.37.5-.72-.65.74.65.89-.15,1.66.14.2.4-.39.54-.19l-.2.23.34-.18a1.08,1.08,0,0,1-.4.6s-.12,0-.16-.06c-.16.37.44.39.39.51v-.29c.61.36.78,1.23,1.64,1.37l.15-.17c.62.14,0,.46.51.76h-.05c.24,0,.42,0,.48.13-.29,0-.26.51-.59.54.67.15.43,0,1.31-.22l-.25.29c.34-.11.49-.21.72,0-.38,0-.35.47-.83.53-.32.93,1.15.17.35,1.08,1-.41.17-.73.43-.74.2-.3.74-.29.76-.09s-.87,1-.59,1.37h-.11c-.11.29.48,0,.26.47.57-.28.13.23.78-.21l-.39-.22c.3.06,1.18-.32,1,.25a1.56,1.56,0,0,1-.52.11c-.12.23.25.08.13.32-.65.45-.44-.29-1.07-.13-.2.3.74,0,0,.45,1-.51.15.43,1,.18l-.39.27c.09,0,.33-.06.37,0l-.59.24c.57-.12-.08.65.28.67-.31-.38.39-.43.54-.8.87.1-.78,1-.2,1.43-.11,0,0-.45.28-.46a1.11,1.11,0,0,1-.2.62c.35.3.35-.35.7-.37-.37.47.32,0,.59.08l-.39.29c.06.6.89-.49.86.1l-.65.25.28.09-.47.29c.48,0,.45.09.48.39.24-.25.72-.5.87-.33-.14.3-.42.21-.17.42-.28.12-.64.29-.36-.09-.13.08-.29.12-.42.21-.16.33.19.38.26.47a.2.2,0,0,1,0-.17h.81a.58.58,0,0,1-.4.25h.43c-.34.21-.65.46-.92.41l.61.09c-.12.13-.24.46-.39.5,0,.34,1,0,.92.47a.35.35,0,0,1,.24,0c.11.3-.11.8.54.77l-.44.59c.3.13.54-.75,1-.53s-.4.46-.49.67c.38-.08,1.13-.28.86.31C41.76,41.77,41.8,41.64,41.7,41.6Zm2.35,2.62c-.12,0-.45.09-.26-.13.5-.26.32-.09.27.13Zm4.13,3.57c-.16.06-.14,0,0-.23,0,0,.06.09,0,.23Zm11.6,9.87h0c0-.22,0-.13,0,0Zm0,.38a.31.31,0,0,0,.17-.11c-.11.06-.16,0-.18-.08-.06.1-.1.15,0,.15ZM39.36,31.1l-.06.12C39.11,31.19,39.23,31.15,39.36,31.1Z" transform="translate(-0.03)"/><path class="cls-1" d="M47.3,47.7a1.49,1.49,0,0,1,.19-.18A.3.3,0,0,0,47.3,47.7Z" transform="translate(-0.03)"/><path class="cls-1" d="M40.19,40Z" transform="translate(-0.03)"/><path class="cls-1" d="M53.61,56.59a.57.57,0,0,1,.12-.25C53.64,56.41,53.58,56.5,53.61,56.59Z" transform="translate(-0.03)"/><path class="cls-1" d="M61.47,58.89l-.22-.09c.08.06,0,.15,0,.24S61.43,58.84,61.47,58.89Z" transform="translate(-0.03)"/><path class="cls-1" d="M60.13,62.08h.11l.17-.14a.16.16,0,0,0-.28.14Z" transform="translate(-0.03)"/><path class="cls-1" d="M60.3,60c-.32.26-.13.27,0,.34h0C60.78,60,60.54,60,60.3,60Z" transform="translate(-0.03)"/><path class="cls-1" d="M60.35,60.36a.16.16,0,0,1,.09.1C60.62,60.33,60.44,60.39,60.35,60.36Z" transform="translate(-0.03)"/><path class="cls-1" d="M60.27,58.2c0,.12.44-.28.33-.15C61.06,57.8,59.83,58.07,60.27,58.2Z" transform="translate(-0.03)"/><polygon class="cls-1" points="59.27 60.89 59.64 60.55 59.27 60.73 59.27 60.89"/><path class="cls-1" d="M59,59.78V60a.22.22,0,0,1,.17,0C59,59.87,59,59.69,59,59.78Z" transform="translate(-0.03)"/><path class="cls-1" d="M59.12,60a.16.16,0,0,0,.18.1A.31.31,0,0,0,59.12,60Z" transform="translate(-0.03)"/><polygon class="cls-1" points="58.96 60.73 59 60.62 58.94 60.47 58.96 60.73"/><path class="cls-1" d="M57.54,57.78l-.26-.11c-.15.08-.2.2-.09.23A.33.33,0,0,0,57.54,57.78Z" transform="translate(-0.03)"/><path class="cls-1" d="M56.89,59.2a1.17,1.17,0,0,1,.24-.32l-.5.37Z" transform="translate(-0.03)"/><path class="cls-1" d="M56.35,58.71c-.15.08-.61,0-.39.24C56.11,58.86,56.37,59,56.35,58.71Z" transform="translate(-0.03)"/><polygon class="cls-1" points="54.71 55.27 54.76 55.31 55.57 54.69 54.71 55.27"/><path class="cls-1" d="M50.83,54.11c0,.38.54-.32.46.07.23-.09.07-.32.28-.39C51.26,53.8,51.32,53.64,50.83,54.11Z" transform="translate(-0.03)"/><path class="cls-1" d="M51.57,53.79h.18A.51.51,0,0,0,51.57,53.79Z" transform="translate(-0.03)"/><polygon class="cls-1" points="32.86 21.61 32.92 21.33 32.72 21.64 32.86 21.61"/><path class="cls-1" d="M32.08,21.78l.49-.42-.54.26A.09.09,0,0,1,32.08,21.78Z" transform="translate(-0.03)"/><path class="cls-1" d="M43.32,45.42l.13-.08c.12-.12.1-.17.07-.25Z" transform="translate(-0.03)"/><polygon class="cls-1" points="42.15 43.09 42.17 43.14 42.59 42.72 42.15 43.09"/><path class="cls-1" d="M40.3,41.83c0,.08.2.09.23.17C40.33,41.92,40.87,41.37,40.3,41.83Z" transform="translate(-0.03)"/><path class="cls-1" d="M54,80.23c.08,0,.06-.38.07-.46C53.9,79.86,54,80.34,54,80.23Z" transform="translate(-0.03)"/><polygon class="cls-1" points="52.58 81.15 52.61 80.98 52.41 81.39 52.58 81.15"/><path class="cls-1" d="M51.39,81.11c.1.72.45-.1.66.16v.16l.11-.57C52,80.94,51.57,81.32,51.39,81.11Z" transform="translate(-0.03)"/><path class="cls-1" d="M50.77,79.55c0,.28-.15.24.15.09v-.07A.27.27,0,0,1,50.77,79.55Z" transform="translate(-0.03)"/><path class="cls-1" d="M50.89,79.57C51,79.57,50.81,79.33,50.89,79.57Z" transform="translate(-0.03)"/><path class="cls-1" d="M50.29,79.72l.18-.24c0-.16-.18-.21-.12-.32C50.17,79.28,50.2,79.44,50.29,79.72Z" transform="translate(-0.03)"/><path class="cls-1" d="M50.12,80.23l.09-.1C50.19,80.06,50.17,80,50.12,80.23Z" transform="translate(-0.03)"/><path class="cls-1" d="M50.4,79.91l-.19.22c0,.12,0,.35.09-.08C50.28,80.26,50.32,80.06,50.4,79.91Z" transform="translate(-0.03)"/><path class="cls-1" d="M50.5,80c.09.16.21.26,0,.5C50.87,80.44,50.83,79.93,50.5,80Z" transform="translate(-0.03)"/><path class="cls-1" d="M51.31,81.85l.12.21.12-.24C51.49,81.94,51.3,81.62,51.31,81.85Z" transform="translate(-0.03)"/><path class="cls-1" d="M49.24,79.32a2.18,2.18,0,0,0,.06.6l.13-.17A.72.72,0,0,1,49.24,79.32Z" transform="translate(-0.03)"/><path class="cls-1" d="M49.29,79.92l-.2.26C49.26,80.21,49.3,80.09,49.29,79.92Z" transform="translate(-0.03)"/><polygon class="cls-1" points="50.03 81.02 50.36 80.48 49.97 81.03 50.03 81.02"/><polygon class="cls-1" points="48.48 79.28 48.6 78.93 48.39 79.46 48.48 79.28"/><path class="cls-1" d="M48,79.33c.09-.29-.1-.5,0-.67-.13,0-.25.3-.35.52C47.78,79.06,47.9,79.09,48,79.33Z" transform="translate(-0.03)"/><path class="cls-1" d="M47.5,79.5a2,2,0,0,0,.18-.32A1,1,0,0,0,47.5,79.5Z" transform="translate(-0.03)"/><path class="cls-1" d="M48.78,80.09a.85.85,0,0,0-.14-.44l.06.43Z" transform="translate(-0.03)"/><path class="cls-1" d="M48.71,80.1Z" transform="translate(-0.03)"/><path class="cls-1" d="M48.8,80.1Z" transform="translate(-0.03)"/><path class="cls-1" d="M49.58,80.63c-.12.24-.35.49-.14.86C49.53,81.19,49.41,81,49.58,80.63Z" transform="translate(-0.03)"/><path class="cls-1" d="M48.88,80.63l.2.1a.9.9,0,0,1,0-.4Z" transform="translate(-0.03)"/><polygon class="cls-1" points="48.74 80.77 48.84 80.63 48.77 80.59 48.74 80.77"/><path class="cls-1" d="M47.83,79.91a.36.36,0,0,1-.29.22.59.59,0,0,0,.34.14C47.9,80.14,48,79.9,47.83,79.91Z" transform="translate(-0.03)"/><path class="cls-1" d="M48.26,80Z" transform="translate(-0.03)"/><path class="cls-1" d="M46.49,80.11Z" transform="translate(-0.03)"/><path class="cls-1" d="M47.9,80.35c.08.08.14,0,.19-.15a.41.41,0,0,1-.21.07C47.87,80.33,47.87,80.37,47.9,80.35Z" transform="translate(-0.03)"/><path class="cls-1" d="M47.2,79.69a1.46,1.46,0,0,0,.14.24C47.3,79.8,47.22,79.58,47.2,79.69Z" transform="translate(-0.03)"/><path class="cls-1" d="M48.21,79.94h0C48.2,79.83,48.2,79.88,48.21,79.94Z" transform="translate(-0.03)"/><path class="cls-1" d="M48.21,79.94a1.25,1.25,0,0,0-.12.26.49.49,0,0,0,.15-.14A.87.87,0,0,1,48.21,79.94Z" transform="translate(-0.03)"/><path class="cls-1" d="M46.1,82.84c0-.4.26-.76.45-.33a5.26,5.26,0,0,0,0-2.33.77.77,0,0,1-.22.56c.06.22.43.52.25.87s-.21-.15-.33-.36c.1.5-.35.71-.31,1.44l.24-.25C46.13,82.56,46,82.74,46.1,82.84Z" transform="translate(-0.03)"/><path class="cls-1" d="M46.88,80.23H47a1.33,1.33,0,0,1-.27-.54.86.86,0,0,0-.18.47l.4.07Z" transform="translate(-0.03)"/><path class="cls-1" d="M47.33,80.19c-.07.43-.27.61-.17,1.08.24,0,.18-.36.32-.54-.39.1.12-.24-.16-.49a.44.44,0,0,1,.21-.11,1.09,1.09,0,0,1-.19-.2h0V80h0a1.46,1.46,0,0,1,0,.16c-.11-.09,0-.11,0-.16v-.06h0l-.39.23C47,80.25,47.14,80.24,47.33,80.19Z" transform="translate(-0.03)"/><path class="cls-1" d="M49.21,82.4a.33.33,0,0,1,0-.1C49.18,82.35,49.17,82.39,49.21,82.4Z" transform="translate(-0.03)"/><path class="cls-1" d="M49.06,82.14c0-.06.06-.23.15-.18s0,.21,0,.35a.43.43,0,0,0,0-.52v.06a1.67,1.67,0,0,1-.31-.75A6.43,6.43,0,0,0,49.06,82.14Z" transform="translate(-0.03)"/><path class="cls-1" d="M48.18,81.28l-.33.2.15.38v-.22C48.19,81.72,48.15,81.45,48.18,81.28Z" transform="translate(-0.03)"/><polygon class="cls-1" points="46.42 79.89 46.48 79.44 46.27 80.08 46.42 79.89"/><polygon class="cls-1" points="46 79.94 46.03 79.54 45.91 79.78 46 79.94"/><path class="cls-1" d="M22.31,84.26l-.1.11A.34.34,0,0,0,22.31,84.26Z" transform="translate(-0.03)"/><path class="cls-1" d="M23,84.3v0Z" transform="translate(-0.03)"/><path class="cls-1" d="M35.76,79.73c-.13-.37-.27-1-.26-.5v.43C35.63,79.58,35.7,79.63,35.76,79.73Z" transform="translate(-0.03)"/><path class="cls-1" d="M28.66,82.14v.13l.1-.41Z" transform="translate(-0.03)"/><path class="cls-1" d="M28.52,83.93l-.17-.28A.94.94,0,0,0,28.52,83.93Z" transform="translate(-0.03)"/><path class="cls-1" d="M18.56,84.63l-.12.44C18.61,85.07,18.54,84.84,18.56,84.63Z" transform="translate(-0.03)"/><path class="cls-1" d="M41.75,80a.57.57,0,0,0-.29-.27C41.59,80,41.7,80.35,41.75,80Z" transform="translate(-0.03)"/><path class="cls-1" d="M22.69,79.66a.42.42,0,0,0-.09.26A.34.34,0,0,0,22.69,79.66Z" transform="translate(-0.03)"/><path class="cls-1" d="M41.11,79.71l.06.1a.31.31,0,0,1,.28-.1C41.36,79.53,41.24,79.41,41.11,79.71Z" transform="translate(-0.03)"/><path class="cls-1" d="M5,83.93v0Z" transform="translate(-0.03)"/><path class="cls-1" d="M1.16,79.46a.37.37,0,0,1,.16,0A.14.14,0,0,0,1.16,79.46Z" transform="translate(-0.03)"/><path class="cls-1" d="M44.36,79.7Z" transform="translate(-0.03)"/><path class="cls-1" d="M44.75,81.43a.6.6,0,0,0,0,.21A.77.77,0,0,1,44.75,81.43Z" transform="translate(-0.03)"/><path class="cls-1" d="M40.16,82.39h0C40.18,82.47,40.18,82.46,40.16,82.39Z" transform="translate(-0.03)"/><path class="cls-1" d="M44.49,79.9a.47.47,0,0,0-.11-.13A.51.51,0,0,0,44.49,79.9Z" transform="translate(-0.03)"/><path class="cls-1" d="M44.47,79.7h.08S44.55,79.63,44.47,79.7Z" transform="translate(-0.03)"/><path class="cls-1" d="M44.23,79.72a.21.21,0,0,1,.14,0,.1.1,0,0,1,0-.07Z" transform="translate(-0.03)"/><path class="cls-1" d="M12.3,83Z" transform="translate(-0.03)"/><path class="cls-1" d="M33.34,84.17Z" transform="translate(-0.03)"/><path class="cls-1" d="M33,84.49c.15-.54.22-.47.32-.35l-.07-1.25Z" transform="translate(-0.03)"/><path class="cls-1" d="M20.66,84.35l.21.4c-.29.63-.48.41-.28,1,.07-1.36.87-.12.94-1.47l.14.29s-.05.07-.09,0c.27.66.24-1,.6-.77a.39.39,0,0,1,.12.47l.3-.33c.08,0,.06.26,0,.24l.44-.1h0a5.39,5.39,0,0,1,.29-.68c.11.2-.06.14,0,.31l.25-.32c.09.35-.12.69-.29.64.19,1.36.21-.34.68.47l-.23.17c.13.77.31.5.56,1-.06-.25-.49-1.22-.22-1.55.07.1.17.16.32-.11,0,.48.13.37.31.34V85c.19-.18.19-.51.3-.79.21.07.24.56.28,1,.33.11-.21-.8.19-.91.27.25.47,0,.82-.38.19.23,0,.39,0,.58l.19-.51v.25c.15-.19,0-.64.26-.81.08-.7.44,1,.75.25a2,2,0,0,1,0,.64,3.51,3.51,0,0,0,.68-1.07l.26.43a2,2,0,0,1,.32-1.51c-.07-.23-.12-.44-.16-.54l.37-.33a1.31,1.31,0,0,1-.07.59l.07-.15a1.47,1.47,0,0,1-.05,1l-.12-.4a4.67,4.67,0,0,0-.18,1.19.35.35,0,0,1,.12-.17.79.79,0,0,0,0,.26c0,.07.05-.07.11-.23l.06.71v-.28l.46.46c.35-.71.67-1.76,1.2-2a5.73,5.73,0,0,0-.07,1.47c-.13-.66-.42.27-.69.13.14.07.1.37.06.47l.5-.58c0,.51.09.38.22.59-.07-1,.38-.66.59-1,0,.34-.05.68-.29.59.25.76.38-1.17.62-.52-.06,0-.09,0-.12.12.15-.3.48,0,.39.24h-.06A1,1,0,0,0,33,83c0,.11-.08,1-.11,1.2l.77-2.84c-.08.73.11,2.47-.22,2.88.09.11.2.23.41,0a2.86,2.86,0,0,1,0-1.12,5.1,5.1,0,0,0,.43,1.14c-.09-.16,0-1.3.19-1.26a7.2,7.2,0,0,1-.07,1.25l.41-1.11a3.15,3.15,0,0,0,0,1.27c0-.22.33,0,.43-.08l-.15-.26c.42.18.46-1.57.88-1.5a3.77,3.77,0,0,0,0,1.57A12.27,12.27,0,0,1,36.86,81l.06.33.3-.37a31,31,0,0,1-1,3.38c.15.26,0,.39.27.37a.39.39,0,0,1-.21.48l.55.21c0-.67.44-.66.43-1.22l-.62.68c0-.67.4-1.9.79-1.77a7.19,7.19,0,0,1-.1,1.42c.06-.23.38-.43.42-.27l-.18.36c.21.26.38-.88.63-.23.09,0,.25.87.28.47a19,19,0,0,1,0-3.72A5.77,5.77,0,0,1,39,82.22c.13.61-.26,1.43-.15,2a1.47,1.47,0,0,1,.13-.48c.09.16-.05.57.16.49.05-.68.42.07.11-.57.21-.19.21.15.45.12a3.12,3.12,0,0,1,.46-1.68,2,2,0,0,0,0,.5c.41.07.63.39,1,.4,0,.17.21.37.13.66.06-.12.12-.35.24-.36.22.59-.27.09-.11.8,0-.4.32-.54.5-.78,0-.61-.39-.13-.57.12a3.21,3.21,0,0,1,.75-2.1c.33-.2.13.55.19.43.6.16.55-1.46,1-.84a4.73,4.73,0,0,1,0,1.46c-.27.2-.39-.35-.57-.33l.21.26c-.09.18-.27.31-.36.15.16.49,1,.12,1.48.58.09-.18.24-.36.17-.58l-.15.07c-.13-.44.29-.59.11-.8.21-.3.44-.77.71-.52v.61c0-.18-.17-.37-.26-.19.12-.27.41.84.55,0L45,81.16c.21-.3.47-1,.71-.75-.1-.61-.06.07-.22-.64.13.88-.63,0-.41.88-.16-.83-.3-.36-.52-1.06,0,.2.07.39-.13.28a1.36,1.36,0,0,1,0,.18h0a.9.9,0,0,1,.1.31c-.11.46-.44.44-.56.68-.12-.1.06-.23,0-.45l-.18.36c0-.45-.31-.75,0-1h-.26c-.15-.26-.36-.36-.49-.18-.12-.1-.32.49-.21.14l-.42.27v-.11c-.4-.07-.85.72-1.29-.1-.14.11-.28.25-.51.11v-.39c-.18.13-.52-.4-.6,0-.16-1-.84-.25-1.15-.44v.51a1.14,1.14,0,0,0-.68.3v.45c-.24.36-.57-.33-.93-.3,0-.17.12-.12.18,0-.4-1-.92.71-1.29,0-.1.16-.17.1-.23,0h0c0-.08-.08-.17-.13-.24a1,1,0,0,0,.11.24.57.57,0,0,0-.3.17V79.9h0c-.1-.18-.09.23,0,.59a1.14,1.14,0,0,0-.15.29c-.07-.78-.3.25-.4-.58-.08.4-.56.29-.64,1.14v-.17c-.12-.1-.24-.2-.36,0v-.61l-.29.82a1.19,1.19,0,0,1,0-1.06c-.41.71-.33.27-.68,1v-.4c-.12,0-.32.54-.39.21-.25-.76-1.32-.14-2-.85.1,1.17-.31-.53-.36.37,0-.28-.12-.43,0-.67-.36.26-.52-.45-.78.31a5.27,5.27,0,0,0,.05-.57c0,.06-.12.24-.15.07s.06-.23.12-.35c-.36,0-.42.89-.46,1.68-.17-.38-.26-.33-.41.19-.06-.26-.16-.54.07-.63-.12,0-.75-.4-.78.24,0-.16-.17,0-.21,0-.28,0-.3-.1-.58,0l.07.11c-.13.77-.23.17-.46.25V81.2c-.5-.57-.23.26-.71-.39v.48c-.07,1-.43-.62-.73-.23l.1.28c-.17.35-.41-1.41-.57-1.55s.06-.14.11-.21c-.4-.62-.07.63-.39.77,0-.34.1-.86-.11-.93-.1-.28-.64,1.08-.91.43a.86.86,0,0,1,0,.72c-.22.09-.58-1-.8-.18a.58.58,0,0,1,0-.21c-.18.21-.56.34-.67.78-.12-1.66-1.08.78-1-.75l-.52.07v-.16c-.33-.11-.46.25-.58.62-.07-.11,0-.25,0-.33-.48-.32-.53-.26-1,.49v-.5c-.12.29-.69-.79-1.18-.23a.6.6,0,0,1,.06-.22c-.55.57-1.25-1.41-1.5.39l-.37.44c.46.15-.09.78.09,1.09-.18.1-.45-.56-.23-.64v.09c.1-.94-.56-.35-.53-1a25.08,25.08,0,0,1-2.62-.58l.08.73h-.29c-.07-.17-.09-.57.12-.54-.1-.42-.36.34-.37.5-.41-.31.18-.85.06-.87l-.17,0v.09c-.15.3-.17.61-.42.57s-.07-.45-.13-.48,0-.08-.1,0l-.37-.07.13.58c-.17.28-.35,0-.19.62-.23-1-1.38-.4-1.53-.71a.59.59,0,0,1-.75.34c.07.12.09.77-.15.69.12-1.34-.43-.59-.61-1.56.16.64-.7.14-.44,1-.2-.11,0-.5-.15-.82-.5.51-1.06-.36-1.66-.2a1.47,1.47,0,0,1-.05.71l-.29-.89c-.12.08-.13,1-.33.4,0,.15.07.37,0,.43-1.15-.89-2.41.64-3.56-1,.15.34,0,.38-.08.39.08.08,0,.43,0,.67L1,79.75c-.11.66-.54,0-.6.66l.16-.11c-.23.74.25,1.67.2,2.62.26-.84.59,1.27,1,.07.08.2-.08.31,0,.53.11-.41.23-.49.44-.3v.1c.62-.08.87.33,1.55.61v-.47c.15.07.17.22.24.34.19-.71-.42,0-.24-.84.17,1,1,0,1.15,1.14.23,0-.05-.55.17-.54l.05.3.07-.38c.15.07.21.44.21.69l-.14.09c.19.35.55-.11.61,0l-.21-.19c.63-.26,1.38.15,2-.44v-.22c.47-.4.36.25.87.08v0c.11-.22.24-.33.38-.3-.13.26.23.51.05.8.51-.43.26-.34.6-1.16l.07.37c.12-.33.13-.51.39-.6-.21.31.15.57-.1,1,.51.82.81-.8,1,.39.27-1-.44-.58-.3-.8-.11-.34.22-.76.38-.65s.25,1.32.68,1.31c0,0,0,.07-.09.07.15.27.32-.35.5.08.12-.62.25,0,.3-.75l-.39.17c.23-.2.46-1.12.81-.66a1.6,1.6,0,0,1-.22.48c.1.24.21-.15.31.09-.05.79-.48.16-.73.76.11.34.46-.56.32.29.2-1.09.42.15.72-.68v.47c0-.07.15-.3.23-.28l-.17.61c.25-.52.44.47.67.19-.47,0-.09-.57-.28-.93.59-.62.3,1.25,1,1-.09.06-.32-.29-.18-.51a1.11,1.11,0,0,1,.35.54c.43-.09-.05-.49.14-.78.13.58.22-.23.41-.41v.48c.48.32.15-1,.58-.62l-.2.66L16,84l-.06.55c.26-.4.33-.29.57-.13,0-.34.05-.87.27-.88.14.29-.09.46.21.39-.08.3-.16.68-.28.23,0,.16-.08.3-.09.46.15.33.4.08.51.08a.19.19,0,0,1-.12-.12l.46-.66a.6.6,0,0,1-.05.47c.09,0,.16-.27.29-.31,0,.39,0,.8-.24,1l.43-.42c0,.17.21.47.15.62.23.24.59-.75.9-.43a.35.35,0,0,1,.12-.2c.29.1.54.58.9,0l.18.71c.28-.15-.24-.89.21-1.15s.1.6.21.8c.17-.35.46-1.06.74-.49C20.83,84.4,20.76,84.3,20.66,84.35ZM24,84.12c-.07.1-.2.41-.24.12.09-.55.14-.24.25-.12Zm5.11-1c-.05.16-.12.08-.2-.11s.14,0,.21.07Zm14.25-3h0c-.14-.22-.09-.12,0,0Zm.29.22a.33.33,0,0,0,0-.2c0,.12-.09.13-.17.09s.09.17.18.06Zm-32.24-.61.06.13c-.13.09-.09,0,0-.18Z" transform="translate(-0.03)"/><path class="cls-1" d="M28.54,83.73a1.55,1.55,0,0,1,0-.26A.31.31,0,0,0,28.54,83.73Z" transform="translate(-0.03)"/><path class="cls-1" d="M18.58,84.55h0a.65.65,0,0,0,0,.09Z" transform="translate(-0.03)"/><path class="cls-1" d="M39,84.26a.58.58,0,0,1-.11-.25C38.8,84.13,38.82,84.23,39,84.26Z" transform="translate(-0.03)"/><path class="cls-1" d="M45.28,79.51l-.2.12c.09,0,.12.08.17.16C45.25,79.68,45.22,79.52,45.28,79.51Z" transform="translate(-0.03)"/><path class="cls-1" d="M46.88,82.53c0-.06.06,0,.09-.06v-.22a.17.17,0,0,0-.09.28Z" transform="translate(-0.03)"/><path class="cls-1" d="M45.42,81.12c0,.41.13.27.27.2h0C45.71,80.75,45.57,80.93,45.42,81.12Z" transform="translate(-0.03)"/><path class="cls-1" d="M45.72,81.3a.14.14,0,0,1,.12,0C45.86,81.07,45.79,81.25,45.72,81.3Z" transform="translate(-0.03)"/><path class="cls-1" d="M44.06,80c.06.11.05-.52.08-.35C44.23,79.16,43.7,80.29,44.06,80Z" transform="translate(-0.03)"/><polygon class="cls-1" points="45.46 82.45 45.43 81.95 45.34 82.36 45.46 82.45"/><path class="cls-1" d="M44.44,82.06l.21.14a.22.22,0,0,1,.06-.17C44.58,82,44.44,81.91,44.44,82.06Z" transform="translate(-0.03)"/><path class="cls-1" d="M44.71,82a.15.15,0,0,0,.18-.08A.29.29,0,0,0,44.71,82Z" transform="translate(-0.03)"/><polygon class="cls-1" points="45.16 82.6 45.1 82.49 44.95 82.45 45.16 82.6"/><path class="cls-1" d="M42.13,81.91l-.24.14c0,.17,0,.28.12.21A.3.3,0,0,0,42.13,81.91Z" transform="translate(-0.03)"/><path class="cls-1" d="M42.81,83.3a1.21,1.21,0,0,1-.09-.38v.62Z" transform="translate(-0.03)"/><path class="cls-1" d="M42.12,83.42c0,.17-.35.49-.05.45C42.09,83.71,42.33,83.57,42.12,83.42Z" transform="translate(-0.03)"/><polygon class="cls-1" points="38.56 82.55 38.62 82.55 38.64 81.53 38.56 82.55"/><path class="cls-1" d="M35.42,84.91c.27.25.08-.63.33-.32.07-.24-.2-.25-.13-.46C35.44,84.38,35.36,84.24,35.42,84.91Z" transform="translate(-0.03)"/><path class="cls-1" d="M35.62,84.14l.09-.15A.51.51,0,0,0,35.62,84.14Z" transform="translate(-0.03)"/><polygon class="cls-1" points="0.48 78.9 0.31 78.68 0.41 79.03 0.48 78.9"/><path class="cls-1" d="M.15,79.64V79L0,79.57S.12,79.5.15,79.64Z" transform="translate(-0.03)"/><path class="cls-1" d="M24.48,85.44v-.16c0-.17-.07-.18-.15-.21Z" transform="translate(-0.03)"/><polygon class="cls-1" points="22.03 84.89 22.07 84.9 22.01 84.32 22.03 84.89"/><path class="cls-1" d="M20,85.59c.08,0,.18-.1.27-.08C20.09,85.61,20,84.86,20,85.59Z" transform="translate(-0.03)"/><path class="cls-1" d="M109,70.07c-.08,0,.27.27.33.33C109.38,70.23,109,70,109,70.07Z" transform="translate(-0.03)"/><polygon class="cls-1" points="109.08 68.4 109.2 68.52 108.98 68.11 109.08 68.4"/><path class="cls-1" d="M109.89,67.37c-.64-.33-.19.44-.53.48l-.15-.07.4.43C109.7,67.93,109.61,67.41,109.89,67.37Z" transform="translate(-0.03)"/><path class="cls-1" d="M111.54,67.75c-.25-.13-.1-.26-.17.08h.07A.29.29,0,0,1,111.54,67.75Z" transform="translate(-0.03)"/><path class="cls-1" d="M111.45,67.84C111.38,68,111.69,67.91,111.45,67.84Z" transform="translate(-0.03)"/><path class="cls-1" d="M111.7,67.24l.09.29c.15.07.28,0,.34.08C112.13,67.39,112,67.32,111.7,67.24Z" transform="translate(-0.03)"/><path class="cls-1" d="M111.38,66.79v.14C111.47,67,111.51,67,111.38,66.79Z" transform="translate(-0.03)"/><path class="cls-1" d="M111.47,67.22l-.06-.29c-.11,0-.29-.19,0,.12C111.26,66.91,111.4,67.07,111.47,67.22Z" transform="translate(-0.03)"/><path class="cls-1" d="M111.31,67.25c-.18,0-.34,0-.43-.26C110.76,67.32,111.19,67.58,111.31,67.25Z" transform="translate(-0.03)"/><path class="cls-1" d="M109.34,66.87h-.25l.12.24C109.15,67,109.52,67,109.34,66.87Z" transform="translate(-0.03)"/><path class="cls-1" d="M112.66,66.57c-.11-.1-.36-.19-.52-.3l.06.21A.71.71,0,0,1,112.66,66.57Z" transform="translate(-0.03)"/><path class="cls-1" d="M112.14,66.27,112,66C112,66.08,112,66.18,112.14,66.27Z" transform="translate(-0.03)"/><polygon class="cls-1" points="110.73 66.29 110.97 66.88 110.76 66.24 110.73 66.29"/><polygon class="cls-1" points="113.1 65.98 113.31 66.28 113 65.8 113.1 65.98"/><path class="cls-1" d="M113.38,65.54c.18.24.46.2.55.38a1.54,1.54,0,0,0-.21-.6C113.76,65.49,113.66,65.56,113.38,65.54Z" transform="translate(-0.03)"/><path class="cls-1" d="M113.57,65a1.94,1.94,0,0,0,.16.34A1,1,0,0,0,113.57,65Z" transform="translate(-0.03)"/><path class="cls-1" d="M112.31,65.73a.83.83,0,0,0,.44.14l-.39-.19Z" transform="translate(-0.03)"/><path class="cls-1" d="M112.35,65.67h0l.12-.12Z" transform="translate(-0.03)"/><path class="cls-1" d="M112.3,65.75Z" transform="translate(-0.03)"/><path class="cls-1" d="M111.39,66.11c-.12-.24-.18-.58-.61-.61C111,65.74,111.2,65.75,111.39,66.11Z" transform="translate(-0.03)"/><path class="cls-1" d="M111.81,65.5l-.2.11c.09.06.25.13.31.25Z" transform="translate(-0.03)"/><polygon class="cls-1" points="111.73 65.34 111.78 65.5 111.85 65.46 111.73 65.34"/><path class="cls-1" d="M113,65a.37.37,0,0,1,0-.38.64.64,0,0,0-.32.21C112.81,65,113,65.14,113,65Z" transform="translate(-0.03)"/><path class="cls-1" d="M112.67,65.32Z" transform="translate(-0.03)"/><path class="cls-1" d="M113.7,63.77h0Z" transform="translate(-0.03)"/><path class="cls-1" d="M112.63,64.83c-.12,0-.07.13,0,.25a.44.44,0,0,1,.07-.22S112.64,64.8,112.63,64.83Z" transform="translate(-0.03)"/><path class="cls-1" d="M113.6,64.62h-.28C113.45,64.65,113.67,64.7,113.6,64.62Z" transform="translate(-0.03)"/><path class="cls-1" d="M112.78,65.33h0C112.88,65.39,112.84,65.36,112.78,65.33Z" transform="translate(-0.03)"/><path class="cls-1" d="M112.78,65.33a1.23,1.23,0,0,0-.14-.25.5.5,0,0,0,0,.21Z" transform="translate(-0.03)"/><path class="cls-1" d="M111.7,61.85c.31.25.46.66,0,.57a5,5,0,0,0,1.93,1.31.75.75,0,0,1-.32-.51c-.22-.07-.68.07-.86-.29,0-.34.25-.1.5-.08-.46-.21-.36-.71-1-1.1l.06.35A.46.46,0,0,0,111.7,61.85Z" transform="translate(-0.03)"/><path class="cls-1" d="M113.35,64v.1a1.32,1.32,0,0,1,.61.09.84.84,0,0,0-.27-.43l-.3.3Z" transform="translate(-0.03)"/><path class="cls-1" d="M113.11,64.43c-.3-.31-.33-.59-.78-.77-.13.22.18.36.24.59.16-.39.12.24.49.15a.47.47,0,0,1,0,.24,1.12,1.12,0,0,1,.28,0h0l-.12-.11c.14,0,.1,0,.12.11h0l.05-.47C113.24,64.16,113.19,64.25,113.11,64.43Z" transform="translate(-0.03)"/><path class="cls-1" d="M110.16,64.77h.09S110.2,64.73,110.16,64.77Z" transform="translate(-0.03)"/><path class="cls-1" d="M110.47,64.79c0,.06.15.18.06.23s-.16-.12-.28-.21c.06.11.13.35.4.33v-.06a1.63,1.63,0,0,1,.8.17A6.16,6.16,0,0,0,110.47,64.79Z" transform="translate(-0.03)"/><path class="cls-1" d="M111.71,64.54v-.4l-.4-.09.18.13C111.34,64.28,111.59,64.41,111.71,64.54Z" transform="translate(-0.03)"/><polygon class="cls-1" points="113.86 63.87 114.19 64.17 113.8 63.63 113.86 63.87"/><polygon class="cls-1" points="114.08 63.48 114.38 63.73 114.26 63.5 114.08 63.48"/><path class="cls-1" d="M125,40.72v-.15A.34.34,0,0,0,125,40.72Z" transform="translate(-0.03)"/><path class="cls-1" d="M124.59,41.28l.15.13C124.67,41.32,124.62,41.26,124.59,41.28Z" transform="translate(-0.03)"/><path class="cls-1" d="M120.54,54.83c.38.11.94.32.57.07l-.37-.22C120.74,54.8,120.66,54.83,120.54,54.83Z" transform="translate(-0.03)"/><path class="cls-1" d="M122.9,47.37h-.13l.27.33Z" transform="translate(-0.03)"/><path class="cls-1" d="M121.53,46.21h.34A.94.94,0,0,0,121.53,46.21Z" transform="translate(-0.03)"/><path class="cls-1" d="M127,37.3l-.28-.36C126.64,37.09,126.87,37.16,127,37.3Z" transform="translate(-0.03)"/><path class="cls-1" d="M116.68,59.79a.6.6,0,0,0,.4-.09C116.79,59.67,116.42,59.54,116.68,59.79Z" transform="translate(-0.03)"/><path class="cls-1" d="M128.56,43.71a.41.41,0,0,0-.16-.23A.33.33,0,0,0,128.56,43.71Z" transform="translate(-0.03)"/><path class="cls-1" d="M117.29,59.41h-.12a.34.34,0,0,1-.09.3C117.29,59.72,117.46,59.69,117.29,59.41Z" transform="translate(-0.03)"/><path class="cls-1" d="M135.86,26.13h.1S135.87,26.11,135.86,26.13Z" transform="translate(-0.03)"/><path class="cls-1" d="M141.85,25.44a.41.41,0,0,1-.08.16A.19.19,0,0,0,141.85,25.44Z" transform="translate(-0.03)"/><path class="cls-1" d="M115.32,62.18Z" transform="translate(-0.03)"/><path class="cls-1" d="M113.68,61.52a.58.58,0,0,0-.15-.16A.74.74,0,0,1,113.68,61.52Z" transform="translate(-0.03)"/><path class="cls-1" d="M115.69,57Z" transform="translate(-0.03)"/><path class="cls-1" d="M115.08,62.18a.48.48,0,0,0,.17,0Z" transform="translate(-0.03)"/><path class="cls-1" d="M115.26,62.28h-.08C115.22,62.38,115.27,62.4,115.26,62.28Z" transform="translate(-0.03)"/><path class="cls-1" d="M115.38,62.07a.22.22,0,0,1-.13.09h.07Z" transform="translate(-0.03)"/><path class="cls-1" d="M132.21,32.93h0C132.17,32.75,132.17,32.8,132.21,32.93Z" transform="translate(-0.03)"/><path class="cls-1" d="M118.39,50.19Z" transform="translate(-0.03)"/><path class="cls-1" d="M118.34,49.73c.35.44.24.46.09.48l1.07.66Z" transform="translate(-0.03)"/><path class="cls-1" d="M126,39.27h-.45c-.34-.61,0-.64-.61-.8,1.07.84-.44.81.63,1.65h-.32V40c-.7-.15.65.77.26,1a.37.37,0,0,1-.45-.17l.09.44c-.07,0-.25-.1-.18-.16l-.19.43h0a5.24,5.24,0,0,1,.37.64c-.23,0-.08-.13-.23-.21l.11.4c-.34-.13-.49-.5-.34-.61-1.23-.62.15.37-.79.31v-.3c-.71-.34-.6,0-1.15-.09.24.1,1.29.29,1.4.72-.13,0-.23,0-.1.34-.39-.29-.38-.1-.47.06l-.5-.39c0,.27.3.45.46.72-.18.14-.61-.12-1-.33-.29.22.78.28.63.69-.37.09-.29.41-.19.92-.3,0-.29-.26-.48-.31l.3.45a1.76,1.76,0,0,1-.21-.13c.07.24.5.39.5.69.52.47-1.12-.22-.66.49-.19,0-.29-.26-.5-.39a3.49,3.49,0,0,0,.46,1.2h-.51c.51.12.8.68,1,1.14l.53.17.05.51a1.25,1.25,0,0,1-.44-.4l.08.15c-.27,0-.52-.31-.75-.6l.4.13a4.46,4.46,0,0,0-.86-.84.35.35,0,0,1,.06.2.76.76,0,0,0-.19-.18c-.06,0,0,.09.12.23l-.62-.36.21.19-.65.12c.36.71,1,1.59.93,2.21a5.46,5.46,0,0,0-1.16-.91c.62.27,0-.51.31-.66-.15.08-.36-.12-.42-.22l.17.77c-.4-.31-.37-.14-.62-.16.86.52.3.71.42,1.06-.28-.19-.52-.44-.3-.59-.77-.23.72,1,0,.83,0,0,.09,0,0-.17.15.3-.25.44-.44.2v0a1,1,0,0,0-.12,1.56c-.09-.06-.79-.66-.91-.78l1.85,2.31c-.55-.49-2.09-1.33-2.21-1.86-.14,0-.31,0-.23.36a2.73,2.73,0,0,1,.94.61,5,5,0,0,0-1.19-.29c.19,0,1,.79.91.9-.12-.12-.91-.67-1-.79l.66,1a3,3,0,0,0-1.06-.71c.2.1-.22.26-.2.41h.31c-.4.26,1,1.3.69,1.62-.15-.18-1.06-1-1.31-.87a11.81,11.81,0,0,1,2.06,2.61l-.31-.14.12.47a29.88,29.88,0,0,1-2.12-2.84c-.31,0-.34-.2-.47,0a.38.38,0,0,1-.26-.46l-.51.35c.55.38.27.76.73,1.08l-.18-.92c.55.38,1.31,1.44,1,1.7-.28-.08-.91-.78-1.09-.91.15.18.12.58,0,.51l-.18-.36c-.34,0,.49.84-.19.67-.09,0-.86-.29-.56,0a18.07,18.07,0,0,1,3,2.16,5.69,5.69,0,0,1-1.26-.18c-.58-.24-1-1-1.5-1.25a1.42,1.42,0,0,1,.31.39c-.19,0-.43-.37-.49-.15.52.44-.31.32.4.43,0,.29-.25.1-.37.32A3,3,0,0,1,116,57.51a1.94,1.94,0,0,0-.44-.25c-.31.31-.7.31-.95.64-.15-.07-.43,0-.62-.27.06.12.21.3.15.41-.62-.16.09-.28-.58-.56.31.25.24.59.33.88.52.32.34-.26.25-.55a3.11,3.11,0,0,1,1.25,1.86c0,.4-.52-.21-.46-.09-.5.42.85,1.32.05,1.37-.56-.16-.86-.63-1.2-.83,0-.34.53-.13.62-.3h-.34c-.09-.18-.09-.41.1-.39-.49-.15-.72.8-1.37.93.09.18.15.41.37.48v-.17c.43.15.3.59.58.56.12.35.36.82,0,.91l-.52-.32c.15.1.41.07.31-.11.14.26-.93-.14-.37.45l.46.09c.12.35.49,1,.18,1,.56.27,0-.09.66.19-.8-.4.43-.51-.47-.86.77.34.48,0,1.18.17-.17-.12-.36-.16-.15-.28l-.11-.15h0a.88.88,0,0,1-.31-.1c-.31-.37-.09-.63-.21-.87.15,0,.15.18.37.26l-.18-.36c.37.26.8.17.83.57l.18-.21c.3,0,.51-.1.44-.32.16,0-.2-.56,0-.26v-.51l.09.06c.3-.31-.07-1.14.87-1a.48.48,0,0,1,.22-.5l.34.2c0-.23.64-.21.36-.51,1,.47.72-.58,1.06-.72l-.4-.31a1.08,1.08,0,0,0,.17-.76l-.37-.26c-.15-.41.62-.3.81-.63.12.12,0,.17-.09.16,1.08.25,0-1.2.81-1.08-.07-.18,0-.2.15-.19h.28a1,1,0,0,0-.26,0,.6.6,0,0,0,0-.36l.41.25h0c.21,0-.13-.21-.45-.38a1.12,1.12,0,0,0-.14-.3c.68.39,0-.4.71,0-.28-.31.11-.65-.54-1.21.09.06.15.07.12.12.16,0,.31-.09.19-.33l.52.32-.49-.72a1.14,1.14,0,0,1,.89.58c-.33-.76,0-.43-.38-1.14l.31.25c.06-.11-.24-.59.07-.45.77.23.92-1,1.91-1.2-1-.59.62,0-.09-.52.25.13.43.14.55.38,0-.46.68-.18.22-.84.25.13.28.31.43.37s-.12-.24,0-.17.15.18.21.3c.19-.33-.47-.87-1.09-1.37.42.07.43,0,.09-.46.25.1.53.18.47.42.11-.08.79-.41.28-.81.15.06.15-.12.11-.19.21-.21.27-.2.39-.47H125c-.55-.55,0-.3.07-.54l.06,0c.77-.09-.07-.34.75-.39l-.4-.26c-.8-.66.77,0,.63-.49l-.29-.08c-.18-.35,1.4.47,1.61.41s.08.13.1.21c.75,0-.47-.42-.39-.77.31.16.64.58.83.44.29.08-.5-1.17.2-1-.25-.1-.5-.21-.56-.45s1.17.09.64-.57a.55.55,0,0,1,.19.09c-.06-.27.07-.68-.23-1,1.42.86,0-1.37,1.24-.45l.26-.49.12.1c.29-.22.07-.54-.15-.86.13,0,.21.13.27.18.55-.22.53-.3.18-1.1l.42.26c-.16-.27,1.07-.13.9-.87a.57.57,0,0,1,.14.18c-.13-.8,1.91-.26.59-1.51l-.13-.57c-.4.3-.58-.53-.94-.55,0-.22.73-.07.66.18h-.09c.7.63.63-.28,1.13.12.53-.79,1.5-1.21,2.07-1.9l-.65-.36.22-.22c.19,0,.52.26.37.41.4.16-.06-.51-.18-.61.5-.17.58.65.67.55l.06-.18h-.09c-.15-.3-.4-.5-.21-.69s.41.2.48.17.07,0,.08-.07l.28-.28-.56-.22c-.12-.31.24-.28-.39-.52,1,.39,1.16-1,1.51-.89a.62.62,0,0,1,.18-.84c-.14,0-.69-.37-.47-.52,1,.88.75,0,1.64.39-.62-.24.31-.68-.59-1,.21-.11.41.29.76.35-.11-.72.94-.69,1.18-1.3-.13-.11-.41-.19-.54-.46l.9.26c0-.15-.74-.7-.12-.52-.14-.06-.34-.16-.34-.26,1.42-.47,1-2.43,3-2.47-.37-.07-.33-.18-.27-.29-.12,0-.35-.26-.55-.39h.84c-.47-.47.3-.48-.17-.9v.2c-.47-.62-1.51-.75-2.26-1.35.53.71-1.4-.23-.67.82-.21,0-.2-.25-.41-.34.27.33.26.48,0,.55l-.07-.08c-.31.58-.8.55-1.45,1l.41.24c-.14.09-.28,0-.42,0,.47.57.29-.33.83.28-.9-.41-.67.87-1.63.32-.15.19.48.27.33.46l-.28-.13.27.28c-.14.09-.49-.07-.69-.22v-.17c-.4,0-.25.53-.38.52l.28-.07c-.17.69-1,1.09-.86,2l.21.1c0,.63-.43.16-.59.7h0c.11.22.12.4,0,.5-.13-.26-.56-.1-.68-.42,0,.68.12.42.58,1.19l-.34-.16c.2.3.33.41.25.68-.12-.36-.55-.2-.74-.65-1,0,.16,1.15-.94.64.67.82.74,0,.83.2.34.11.49.63.3.71s-1.23-.55-1.48-.18v-.11c-.31,0,.09.47-.38.38.43.46-.19.19.43.69l.1-.44c0,.31.64,1,0,1.08a1.56,1.56,0,0,1-.26-.47c-.25,0,0,.26-.27.21-.61-.5.16-.5-.17-1.06-.34-.1.18.72-.43.11.77.8-.37.27.11,1l-.37-.3c0,.08.15.3.09.36l-.4-.5c.27.51-.65.1-.56.46.28-.4.52.25.93.3.14.87-1.2-.47-1.43.21,0-.11.43-.1.52.14a1.11,1.11,0,0,1-.65,0c-.19.42.43.24.55.57-.55-.22.06.32.09.59l-.39-.29c-.55.22.72.71.15.86l-.42-.56v.3l-.41-.37c.17.45,0,.46-.24.57.31.16.68.55.56.74-.32,0-.31-.34-.45,0-.2-.24-.45-.53,0-.38-.12-.11-.2-.24-.31-.34-.36-.06-.31.29-.38.39a.2.2,0,0,1,.17,0l.26.77a.58.58,0,0,1-.35-.32c0,.11.12.29.07.43-.29-.26-.62-.5-.65-.77l.08.62c-.15-.08-.51-.1-.59-.23-.33.06.25.94-.19,1a.35.35,0,0,1,.09.22c-.25.19-.8.12-.59.73l-.69-.26c0,.32.88.31.8.85s-.55-.26-.78-.28c.18.35.59,1-.06.91A1.33,1.33,0,0,1,126,39.27Zm-1.86,3c0-.12-.21-.41,0-.28.47.38.22.27,0,.27Zm-2.27,5c-.1-.14,0-.15.21-.11,0,0-.08.08-.19.07ZM115.6,61.18h0c.25-.08.16-.08,0,0Zm-.36.13a.31.31,0,0,0,.15.13c-.08-.09,0-.15,0-.2s-.16-.12-.13,0Zm20.14-27.18h-.14c0-.27.08-.13.17-.05Z" transform="translate(-0.03)"/><path class="cls-1" d="M121.69,46.35l.23.13A.3.3,0,0,0,121.69,46.35Z" transform="translate(-0.03)"/><path class="cls-1" d="M127.09,37.37h0l-.06-.06Z" transform="translate(-0.03)"/><path class="cls-1" d="M115,54.9a.57.57,0,0,1,.27,0C115.1,54.88,115,54.84,115,54.9Z" transform="translate(-0.03)"/><path class="cls-1" d="M115,63.08v-.24c0,.09-.14.06-.24,0C114.8,63,115,63,115,63.08Z" transform="translate(-0.03)"/><path class="cls-1" d="M111.48,62.69v.11l.18.13a.16.16,0,0,0-.18-.24Z" transform="translate(-0.03)"/><path class="cls-1" d="M113.52,62.27c-.33-.23-.3,0-.32.11h0C113.64,62.74,113.58,62.5,113.52,62.27Z" transform="translate(-0.03)"/><path class="cls-1" d="M113.19,62.42a.16.16,0,0,1-.07.11C113.29,62.68,113.19,62.51,113.19,62.42Z" transform="translate(-0.03)"/><path class="cls-1" d="M115.24,61.74c-.12,0,.39.35.23.28C115.84,62.38,115.24,61.28,115.24,61.74Z" transform="translate(-0.03)"/><polygon class="cls-1" points="112.35 61.56 112.78 61.82 112.51 61.52 112.35 61.56"/><path class="cls-1" d="M113.35,60.89l-.25.1a.22.22,0,0,1,.1.15C113.3,61,113.47,61,113.35,60.89Z" transform="translate(-0.03)"/><path class="cls-1" d="M113.2,61.14a.16.16,0,0,0,0,.2A.31.31,0,0,0,113.2,61.14Z" transform="translate(-0.03)"/><polygon class="cls-1" points="112.42 61.22 112.54 61.23 112.67 61.13 112.42 61.22"/><path class="cls-1" d="M114.88,59v-.28c-.12-.12-.25-.13-.25,0S114.73,58.94,114.88,59Z" transform="translate(-0.03)"/><path class="cls-1" d="M113.34,58.78a1.17,1.17,0,0,1,.37.14l-.49-.38Z" transform="translate(-0.03)"/><path class="cls-1" d="M113.65,58.12c-.12-.12-.18-.58-.34-.31C113.44,57.93,113.4,58.21,113.65,58.12Z" transform="translate(-0.03)"/><polygon class="cls-1" points="116.48 55.62 116.45 55.67 117.27 56.27 116.48 55.62"/><path class="cls-1" d="M116.53,51.54c-.37.09.46.43.06.46.15.2.33,0,.45.16C117,51.86,117.11,51.87,116.53,51.54Z" transform="translate(-0.03)"/><path class="cls-1" d="M117,52.15a1.07,1.07,0,0,0,.07.16A.51.51,0,0,0,117,52.15Z" transform="translate(-0.03)"/><polygon class="cls-1" points="142.67 25.22 142.95 25.19 142.6 25.09 142.67 25.22"/><path class="cls-1" d="M142.31,24.48l.55.35-.4-.44S142.45,24.54,142.31,24.48Z" transform="translate(-0.03)"/><path class="cls-1" d="M122.76,41.89l.12.11c.15.08.19,0,.26,0Z" transform="translate(-0.03)"/><polygon class="cls-1" points="124.65 40.15 124.61 40.17 125.13 40.46 124.65 40.15"/><path class="cls-1" d="M125.36,38c-.07.06,0,.22-.1.27C125.29,38,126,38.41,125.36,38Z" transform="translate(-0.03)"/><path class="cls-1" d="M117.84,85.77c-.08,0,0,.38-.05.46C118,86.13,117.84,85.66,117.84,85.77Z" transform="translate(-0.03)"/><polygon class="cls-1" points="119.1 84.78 119.08 84.95 119.27 84.53 119.1 84.78"/><path class="cls-1" d="M120.37,84.76c-.13-.71-.44.13-.67-.12v-.16l-.08.58C119.84,85,120.17,84.57,120.37,84.76Z" transform="translate(-0.03)"/><path class="cls-1" d="M121.06,86.29c0-.28.14-.24-.16-.08v.07A.27.27,0,0,1,121.06,86.29Z" transform="translate(-0.03)"/><path class="cls-1" d="M121,86.27C120.83,86.27,121,86.5,121,86.27Z" transform="translate(-0.03)"/><path class="cls-1" d="M121.53,86.1l-.16.25c0,.16.19.2.14.32C121.68,86.53,121.64,86.37,121.53,86.1Z" transform="translate(-0.03)"/><path class="cls-1" d="M121.68,85.57l-.09.11C121.61,85.75,121.63,85.77,121.68,85.57Z" transform="translate(-0.03)"/><path class="cls-1" d="M121.41,85.91l.18-.23c0-.11,0-.35-.08.08C121.52,85.55,121.49,85.76,121.41,85.91Z" transform="translate(-0.03)"/><path class="cls-1" d="M121.3,85.8c-.1-.15-.23-.25-.06-.5C121,85.41,121,85.91,121.3,85.8Z" transform="translate(-0.03)"/><path class="cls-1" d="M120.41,84l-.13-.21-.1.24C120.23,83.94,120.42,84.24,120.41,84Z" transform="translate(-0.03)"/><path class="cls-1" d="M122.6,86.44c0-.15-.07-.4-.08-.6l-.12.18A.72.72,0,0,1,122.6,86.44Z" transform="translate(-0.03)"/><path class="cls-1" d="M122.52,85.85l.18-.27C122.53,85.55,122.5,85.68,122.52,85.85Z" transform="translate(-0.03)"/><polygon class="cls-1" points="121.66 84.78 121.36 85.34 121.72 84.77 121.66 84.78"/><polygon class="cls-1" points="123.29 86.44 123.19 86.8 123.37 86.26 123.29 86.44"/><path class="cls-1" d="M123.8,86.37c-.07.29.12.49,0,.67.13,0,.23-.31.33-.54C124.07,86.63,124,86.61,123.8,86.37Z" transform="translate(-0.03)"/><path class="cls-1" d="M124.33,86.17a2,2,0,0,0-.16.33A1,1,0,0,0,124.33,86.17Z" transform="translate(-0.03)"/><path class="cls-1" d="M123,85.65a.85.85,0,0,0,.16.43l-.08-.43Z" transform="translate(-0.03)"/><path class="cls-1" d="M123.09,85.64Z" transform="translate(-0.03)"/><path class="cls-1" d="M123,85.65Z" transform="translate(-0.03)"/><path class="cls-1" d="M122.19,85.16c.1-.24.33-.5.1-.86C122.22,84.59,122.35,84.79,122.19,85.16Z" transform="translate(-0.03)"/><path class="cls-1" d="M122.9,85.11l-.2-.09a.9.9,0,0,1,0,.4Z" transform="translate(-0.03)"/><polygon class="cls-1" points="122.96 84.98 122.87 85.11 122.94 85.15 122.96 84.98"/><path class="cls-1" d="M124,85.78a.36.36,0,0,1,.28-.24.59.59,0,0,0-.35-.12C123.9,85.56,123.85,85.8,124,85.78Z" transform="translate(-0.03)"/><path class="cls-1" d="M123.55,85.68Z" transform="translate(-0.03)"/><path class="cls-1" d="M125.31,85.52v0Z" transform="translate(-0.03)"/><path class="cls-1" d="M123.89,85.35c-.09-.08-.14,0-.18.16a.41.41,0,0,1,.2-.08C124,85.36,124,85.32,123.89,85.35Z" transform="translate(-0.03)"/><path class="cls-1" d="M124.62,86a1.46,1.46,0,0,0-.16-.23C124.51,85.87,124.6,86.08,124.62,86Z" transform="translate(-0.03)"/><path class="cls-1" d="M123.6,85.77h0C123.62,85.88,123.61,85.83,123.6,85.77Z" transform="translate(-0.03)"/><path class="cls-1" d="M123.6,85.77a1.25,1.25,0,0,0,.11-.26.49.49,0,0,0-.14.15Z" transform="translate(-0.03)"/><path class="cls-1" d="M125.56,82.77c0,.4-.22.77-.43.35a5.26,5.26,0,0,0,.16,2.32.77.77,0,0,1,.19-.57c-.07-.21-.45-.49-.29-.86.26-.21.22.13.35.34-.12-.49.32-.73.24-1.45l-.22.26C125.55,83.06,125.63,82.87,125.56,82.77Z" transform="translate(-0.03)"/><path class="cls-1" d="M125,85.41l-.08,0a1.38,1.38,0,0,1,.3.53.86.86,0,0,0,.16-.48h-.4Z" transform="translate(-0.03)"/><path class="cls-1" d="M124.47,85.48c.05-.43.24-.62.11-1.08-.24,0-.16.36-.3.55.38-.12-.1.24.18.48a.44.44,0,0,1-.21.12,1.09,1.09,0,0,1,.2.19h0v-.06h0a1.47,1.47,0,0,1,0-.16c.11.09,0,.11,0,.16v.06h0l.38-.25C124.75,85.41,124.65,85.42,124.47,85.48Z" transform="translate(-0.03)"/><path class="cls-1" d="M122.47,83.36a.33.33,0,0,1,0,.1S122.52,83.37,122.47,83.36Z" transform="translate(-0.03)"/><path class="cls-1" d="M122.64,83.62c0,.06,0,.23-.14.19s0-.21,0-.35a.43.43,0,0,0,0,.52v-.06a1.67,1.67,0,0,1,.35.74A6.43,6.43,0,0,0,122.64,83.62Z" transform="translate(-0.03)"/><path class="cls-1" d="M123.56,84.44l.32-.22-.17-.37v.22C123.53,84,123.58,84.26,123.56,84.44Z" transform="translate(-0.03)"/><polygon class="cls-1" points="125.32 85.73 125.29 86.19 125.46 85.54 125.32 85.73"/><polygon class="cls-1" points="125.74 85.67 125.73 86.07 125.84 85.83 125.74 85.67"/><path class="cls-1" d="M149.26,80.18l.09-.11A.34.34,0,0,0,149.26,80.18Z" transform="translate(-0.03)"/><path class="cls-1" d="M148.57,80.17v.2C148.59,80.26,148.6,80.18,148.57,80.17Z" transform="translate(-0.03)"/><path class="cls-1" d="M136,85.37c.15.37.31.94.29.49l0-.43C136.18,85.51,136.11,85.46,136,85.37Z" transform="translate(-0.03)"/><path class="cls-1" d="M143,82.61v-.13l-.08.42Z" transform="translate(-0.03)"/><path class="cls-1" d="M143.07,80.81l.19.28A.94.94,0,0,0,143.07,80.81Z" transform="translate(-0.03)"/><path class="cls-1" d="M153,79.63l.1-.44C153,79.19,153,79.41,153,79.63Z" transform="translate(-0.03)"/><path class="cls-1" d="M130,85.41a.58.58,0,0,0,.3.25C130.2,85.41,130.08,85,130,85.41Z" transform="translate(-0.03)"/><path class="cls-1" d="M149.1,84.79a.42.42,0,0,0,.07-.27A.34.34,0,0,0,149.1,84.79Z" transform="translate(-0.03)"/><path class="cls-1" d="M130.7,85.65l-.07-.1a.31.31,0,0,1-.28.11C130.46,85.84,130.59,86,130.7,85.65Z" transform="translate(-0.03)"/><path class="cls-1" d="M166.56,79.65v0C166.59,79.64,166.58,79.64,166.56,79.65Z" transform="translate(-0.03)"/><path class="cls-1" d="M170.62,83.93a.37.37,0,0,1-.16,0A.12.12,0,0,0,170.62,83.93Z" transform="translate(-0.03)"/><path class="cls-1" d="M127.46,85.82Z" transform="translate(-0.03)"/><path class="cls-1" d="M127,84.11a.6.6,0,0,0,0-.21A.77.77,0,0,1,127,84.11Z" transform="translate(-0.03)"/><path class="cls-1" d="M131.51,82.93h0C131.49,82.85,131.5,82.86,131.51,82.93Z" transform="translate(-0.03)"/><path class="cls-1" d="M127.32,85.62a.47.47,0,0,0,.12.13A.51.51,0,0,0,127.32,85.62Z" transform="translate(-0.03)"/><path class="cls-1" d="M127.34,85.83h-.08S127.27,85.91,127.34,85.83Z" transform="translate(-0.03)"/><path class="cls-1" d="M127.58,85.79a.21.21,0,0,1-.14,0,.1.1,0,0,1,0,.07Z" transform="translate(-0.03)"/><path class="cls-1" d="M159.32,81h0C159.42,80.85,159.39,80.88,159.32,81Z" transform="translate(-0.03)"/><path class="cls-1" d="M138.24,80.81Z" transform="translate(-0.03)"/><path class="cls-1" d="M138.55,80.48c-.12.54-.2.48-.31.37l.14,1.25Z" transform="translate(-0.03)"/><path class="cls-1" d="M150.89,80l-.23-.38c.25-.65.46-.43.23-1,0,1.36-.87.16-.86,1.52l-.15-.28s0-.07.09-.06c-.3-.64-.19,1-.56.8a.39.39,0,0,1-.14-.46l-.28.34c-.08,0-.07-.26,0-.24l-.44.12h0a5.39,5.39,0,0,1-.26.69c-.12-.19,0-.15,0-.31l-.23.33c-.11-.35.09-.7.25-.65-.26-1.35-.19.35-.7-.43l.22-.18c-.17-.77-.34-.48-.61-1,.07.25.55,1.2.29,1.54-.08-.1-.18-.15-.31.13,0-.48-.15-.36-.32-.33v-.64c-.18.19-.16.51-.26.81-.21-.06-.27-.55-.33-1-.34-.09.25.79-.14.92-.28-.24-.47,0-.8.42-.2-.22,0-.39,0-.57l-.16.51v-.25c-.14.2,0,.64-.22.82,0,.71-.5-1-.76-.21a2,2,0,0,1,0-.64,3.52,3.52,0,0,0-.63,1.1L143.3,81a2,2,0,0,1-.24,1.52c.08.23.14.43.19.53l-.35.35a1.31,1.31,0,0,1,0-.59l-.06.15a1.47,1.47,0,0,1,0-1l.14.39a4.67,4.67,0,0,0,.12-1.2.35.35,0,0,1-.11.18.79.79,0,0,0,0-.26c0-.07,0,.08-.1.24l-.1-.71V81l-.48-.43c-.32.73-.58,1.79-1.1,2.1a5.73,5.73,0,0,0,0-1.47c.16.65.4-.29.68-.16-.14-.07-.12-.36-.09-.47l-.47.61c0-.51-.11-.38-.25-.58.12,1-.35.68-.54,1,0-.34,0-.68.26-.61-.29-.75-.32,1.18-.6.55.06,0,.09,0,.11-.13-.13.3-.48.07-.4-.22H140a1,1,0,0,0-1.24.87v-1.2l-.63,2.88c0-.73-.24-2.47.08-2.89-.1-.1-.22-.22-.41,0A2.86,2.86,0,0,1,138,82a5.1,5.1,0,0,0-.49-1.12c.1.15,0,1.3-.13,1.27V80.9L137,82a3.15,3.15,0,0,0-.1-1.27c0,.22-.33,0-.42.1l.17.26c-.43-.16-.38,1.59-.81,1.54,0-.23.09-1.43-.13-1.57a12.28,12.28,0,0,1-.73,3.23l-.08-.33-.28.38a31,31,0,0,1,.87-3.42c-.17-.26,0-.39-.29-.35a.39.39,0,0,1,.19-.49l-.56-.19c0,.67-.41.68-.37,1.24l.59-.71c0,.67-.3,1.92-.7,1.81a7.19,7.19,0,0,1,0-1.42c0,.23-.36.45-.4.29l.16-.36c-.23-.25-.34.9-.62.26-.09,0-.29-.86-.3-.46a19,19,0,0,1,.17,3.71,5.77,5.77,0,0,1-.61-1.1c-.16-.6.19-1.44,0-2a1.47,1.47,0,0,1-.11.49c-.1-.15,0-.57-.18-.48,0,.68-.42,0-.08.58-.2.2-.22-.13-.46-.1a3.12,3.12,0,0,1-.38,1.7,2,2,0,0,0-.07-.5c-.42,0-.65-.36-1-.35,0-.16-.23-.36-.16-.65,0,.12-.1.35-.22.37-.25-.58.26-.1.07-.8,0,.4-.3.55-.46.81.07.61.4.11.56-.14a3.21,3.21,0,0,1-.65,2.13c-.32.22-.15-.54-.21-.42-.61-.13-.48,1.49-1,.89a4.73,4.73,0,0,1-.09-1.46c.26-.21.41.33.59.31l-.23-.25c.08-.18.25-.32.35-.17-.18-.48-1-.07-1.5-.5-.08.18-.22.37-.14.59l.15-.08c.15.43-.26.61-.07.8-.19.31-.4.79-.69.56l-.07-.61c0,.18.19.36.27.17-.11.27-.45-.82-.56,0l.21.42c-.19.31-.42,1-.67.78.13.6.06-.07.25.63-.17-.88.63,0,.37-.9.2.82.32.34.57,1,0-.2-.09-.38.12-.29a1.36,1.36,0,0,1,0-.18h0a.9.9,0,0,1-.11-.3c.09-.47.42-.46.53-.7.13.09,0,.23,0,.45l.16-.36c0,.45.35.74.06,1h.26c.16.25.37.34.5.15.13.09.3-.5.2-.15l.4-.29v.11c.41,0,.81-.76,1.3,0,.13-.12.27-.26.5-.14l0,.39c.17-.14.53.38.6,0,.21,1,.85.21,1.17.38v-.51a1.15,1.15,0,0,0,.67-.34v-.45c.22-.37.59.3,1,.25,0,.17-.11.13-.18,0,.45,1,.88-.76,1.29,0,.09-.17.16-.11.23,0h0c0,.08.09.16.14.24a1,1,0,0,0-.12-.24.57.57,0,0,0,.29-.18l.06.48h0c.11.17.08-.23,0-.59a1.14,1.14,0,0,0,.14-.29c.11.77.28-.27.43.56.06-.41.55-.32.59-1.17V84c.13.09.25.19.36,0l.07.61.25-.83a1.19,1.19,0,0,1,.1,1.06c.38-.73.31-.28.63-1v.4c.12,0,.3-.55.38-.23.29.75,1.33.07,2,.75-.16-1.16.33.51.34-.39,0,.27.15.43,0,.67.34-.28.54.42.76-.34,0,.28-.06.41,0,.57,0-.06.11-.24.15-.08a.33.33,0,0,1-.1.35c.36-.06.37-.91.38-1.7.19.37.28.32.4-.21.07.26.18.53,0,.63.13,0,.77.36.77-.28,0,.16.18,0,.21,0,.28,0,.31.09.58,0l-.08-.1c.09-.77.22-.18.44-.28v.08c.52.54.21-.27.73.35v-.48c0-1,.46.6.74.2l-.11-.27c.15-.36.48,1.39.64,1.52s0,.15-.1.21c.43.6,0-.63.35-.78.07.34,0,.86.16.92.11.27.58-1.11.88-.47a.86.86,0,0,1,0-.72c.22-.1.62,1,.81.14a.58.58,0,0,1,0,.2c.16-.22.54-.37.63-.82.2,1.65,1-.83,1.07.7l.52-.09v.16c.34.09.45-.28.55-.65.08.1,0,.25,0,.33.5.3.54.23.93-.54l0,.49c.1-.29.72.76,1.19.17a.6.6,0,0,1,0,.22c.52-.59,1.32,1.34,1.48-.47l.34-.45c-.46-.13,0-.78-.15-1.08.18-.11.48.53.26.63v-.09c-.06.94.58.32.58,1a25.08,25.08,0,0,1,2.65.45l-.12-.73h.3c.08.17.12.57-.09.54.12.41.34-.36.35-.52.42.29-.14.86,0,.87l.17-.06V84.4c.13-.3.14-.62.39-.59s.09.45.16.48,0,.08.1,0l.37,0-.16-.57c.16-.29.35,0,.16-.63.28,1,1.4.33,1.56.64a.59.59,0,0,1,.73-.38c-.07-.12-.13-.77.11-.69-.06,1.34.46.57.68,1.53-.19-.63.69-.17.39-1.08.21.1,0,.5.19.81.47-.53,1.08.31,1.67.12a1.47,1.47,0,0,1,0-.71l.34.87c.12-.09.08-1,.31-.41,0-.15-.09-.37,0-.43,1.19.83,2.38-.76,3.61.82-.17-.34-.06-.37.06-.39-.08-.08,0-.43,0-.67l.51.65c.07-.66.53-.06.57-.69l-.15.12c.19-.75-.33-1.65-.33-2.61-.21.85-.65-1.24-1,0-.09-.19.06-.31,0-.53-.09.41-.2.5-.43.32v-.1c-.61.12-.89-.28-1.58-.54l.06.47c-.15-.06-.18-.21-.26-.32-.15.72.42,0,.28.83-.22-1-1,0-1.21-1.08-.23,0,.08.55-.15.55l-.07-.29v.38c-.15-.06-.24-.43-.25-.68l.14-.1c-.2-.34-.54.13-.61,0l.22.18c-.62.29-1.39-.08-2,.54l0,.22c-.45.42-.37-.24-.87,0v0c-.1.23-.23.34-.37.32.12-.26-.25-.5-.09-.8-.49.46-.24.35-.55,1.19l-.09-.37c-.1.34-.11.52-.36.62.2-.32-.17-.56,0-1-.55-.8-.76.84-1-.34-.22,1,.47.56.34.78.12.33-.18.77-.35.67s-.32-1.31-.74-1.28c0,0,0-.07.09-.07-.17-.26-.3.36-.51-.06-.09.62-.25,0-.27.76l.39-.19c-.22.21-.4,1.14-.78.7a1.6,1.6,0,0,1,.2-.49c-.11-.23-.2.16-.32-.08,0-.79.47-.18.69-.79-.12-.33-.43.58-.34-.28-.14,1.09-.42-.13-.69.71V80c0,.08-.13.3-.22.29l.14-.62c-.22.53-.46-.45-.68-.16.47,0,.12.57.33.91-.56.65-.36-1.23-1-1,.09-.07.34.28.2.5a1.11,1.11,0,0,1-.37-.52c-.43.11.08.49-.1.78-.16-.57-.2.24-.39.43V80.1c-.5-.3-.1,1-.55.65l.17-.67-.22.18v-.55c-.24.41-.32.31-.57.16.07.34,0,.88-.23.9-.15-.28.07-.46-.23-.38.06-.3.13-.68.27-.24,0-.16.06-.3.07-.46-.17-.33-.4-.07-.51-.06a.19.19,0,0,1,.12.11l-.43.68a.6.6,0,0,1,0-.47c-.09,0-.15.28-.28.32a1.58,1.58,0,0,1,.19-1l-.41.45c0-.17-.23-.46-.18-.61-.24-.22-.56.77-.87.48a.35.35,0,0,1-.11.21c-.29-.08-.57-.56-.9,0l-.21-.7c-.27.17.29.88-.16,1.16s-.13-.6-.25-.79c-.15.36-.41,1.09-.72.52C150.72,80,150.8,80.07,150.89,80Zm-3.34.39c.06-.1.18-.42.24-.13-.06.57-.12.3-.23.15Zm-5.06,1.29c0-.16.12-.08.21.1s-.12,0-.2-.09Zm-14.08,3.71Zm-.31-.2a.33.33,0,0,0,0,.2c0-.12.09-.13.16-.1s-.06-.2-.14-.09Zm32.23-1-.06-.12c.14-.12.11,0,.08.14Z" transform="translate(-0.03)"/><path class="cls-1" d="M143.06,81a1.56,1.56,0,0,1,0,.26A.31.31,0,0,0,143.06,81Z" transform="translate(-0.03)"/><path class="cls-1" d="M153,79.71h0a.66.66,0,0,0,0-.09Z" transform="translate(-0.03)"/><path class="cls-1" d="M132.66,81a.58.58,0,0,1,.13.25C132.79,81.12,132.76,81,132.66,81Z" transform="translate(-0.03)"/><path class="cls-1" d="M126.54,86.06l.19-.13c-.09,0-.13-.08-.18-.15C126.56,85.89,126.6,86,126.54,86.06Z" transform="translate(-0.03)"/><path class="cls-1" d="M124.8,83.12c0,.06-.06,0-.09.07v.22a.17.17,0,0,0,.09-.29Z" transform="translate(-0.03)"/><path class="cls-1" d="M126.33,84.46c0-.41-.14-.26-.28-.19h0C126,84.84,126.19,84.65,126.33,84.46Z" transform="translate(-0.03)"/><path class="cls-1" d="M126,84.29a.14.14,0,0,1-.12,0C125.89,84.53,126,84.35,126,84.29Z" transform="translate(-0.03)"/><path class="cls-1" d="M127.74,85.48c-.07-.1,0,.52-.07.36C127.62,86.35,128.08,85.2,127.74,85.48Z" transform="translate(-0.03)"/><polygon class="cls-1" points="126.15 83.13 126.21 83.63 126.28 83.22 126.15 83.13"/><path class="cls-1" d="M127.26,83.47l-.22-.13a.22.22,0,0,1-.05.17C127.12,83.52,127.27,83.62,127.26,83.47Z" transform="translate(-0.03)"/><path class="cls-1" d="M127,83.51a.15.15,0,0,0-.17.09A.29.29,0,0,0,127,83.51Z" transform="translate(-0.03)"/><polygon class="cls-1" points="126.44 82.97 126.51 83.07 126.66 83.11 126.44 82.97"/><path class="cls-1" d="M129.57,83.51l.23-.15c0-.17,0-.28-.13-.21S129.53,83.34,129.57,83.51Z" transform="translate(-0.03)"/><path class="cls-1" d="M128.83,82.15a1.21,1.21,0,0,1,.11.38v-.62Z" transform="translate(-0.03)"/><path class="cls-1" d="M129.51,82c0-.17.33-.5,0-.46C129.52,81.71,129.29,81.86,129.51,82Z" transform="translate(-0.03)"/><polygon class="cls-1" points="133.04 82.69 132.98 82.7 133.01 83.72 133.04 82.69"/><path class="cls-1" d="M136.13,80.18c-.28-.24,0,.63-.31.33-.06.24.21.24.15.45C136.13,80.7,136.22,80.84,136.13,80.18Z" transform="translate(-0.03)"/><path class="cls-1" d="M136,81a1.08,1.08,0,0,0-.08.16A.51.51,0,0,0,136,81Z" transform="translate(-0.03)"/><polygon class="cls-1" points="171.25 84.46 171.44 84.67 171.31 84.33 171.25 84.46"/><path class="cls-1" d="M171.61,83.7l.06.65.09-.59A.09.09,0,0,1,171.61,83.7Z" transform="translate(-0.03)"/><path class="cls-1" d="M147,79.11v.16c0,.17.07.18.16.2Z" transform="translate(-0.03)"/><polygon class="cls-1" points="149.43 79.54 149.39 79.53 149.48 80.11 149.43 79.54"/><path class="cls-1" d="M151.48,78.74c-.08,0-.18.11-.26.09C151.4,78.72,151.53,79.47,151.48,78.74Z" transform="translate(-0.03)"/></svg>