<svg id="Слой_1" data-name="Слой 1" xmlns="http://www.w3.org/2000/svg" viewBox="0 0 18.13 17.24"><defs><style>.cls-1{fill:#fff;}</style></defs><title>circle</title><path class="cls-1" d="M135.74,190.21c-.09,0,.16.35.19.42C136,190.47,135.68,190.12,135.74,190.21Z" transform="translate(-122.56 -174.14)"/><polygon class="cls-1" points="13.61 14.55 13.7 14.7 13.55 14.27 13.61 14.55"/><path class="cls-1" d="M137,187.91c-.61-.39-.18.37-.51.34l-.14-.09.34.47C136.77,188.38,136.7,187.9,137,187.91Z" transform="translate(-122.56 -174.14)"/><path class="cls-1" d="M138.57,188.35c-.25-.13-.1-.26-.17.08l.07,0A.32.32,0,0,1,138.57,188.35Z" transform="translate(-122.56 -174.14)"/><path class="cls-1" d="M138.48,188.45c-.07.12.24.07,0,0Z" transform="translate(-122.56 -174.14)"/><path class="cls-1" d="M138.71,187.83l.11.29c.16.06.28-.06.35.05C139.16,187.93,139,187.89,138.71,187.83Z" transform="translate(-122.56 -174.14)"/><path class="cls-1" d="M138.36,187.41l0,.13C138.47,187.56,138.5,187.56,138.36,187.41Z" transform="translate(-122.56 -174.14)"/><path class="cls-1" d="M138.48,187.82l-.08-.28c-.11,0-.31-.16,0,.12C138.25,187.53,138.4,187.67,138.48,187.82Z" transform="translate(-122.56 -174.14)"/><path class="cls-1" d="M138.34,187.86c-.18,0-.33,0-.44-.24C137.79,187.92,138.22,188.19,138.34,187.86Z" transform="translate(-122.56 -174.14)"/><path class="cls-1" d="M136.43,187.39l-.23-.06.12.22C136.26,187.45,136.61,187.53,136.43,187.39Z" transform="translate(-122.56 -174.14)"/><path class="cls-1" d="M139.6,187c-.13-.08-.39-.12-.57-.19l.1.2A.74.74,0,0,1,139.6,187Z" transform="translate(-122.56 -174.14)"/><path class="cls-1" d="M139,186.81l-.15-.29C138.77,186.66,138.87,186.75,139,186.81Z" transform="translate(-122.56 -174.14)"/><path class="cls-1" d="M137.7,187q.16.26.31.54-.13-.31-.28-.59Z" transform="translate(-122.56 -174.14)"/><polygon class="cls-1" points="17.36 12.14 17.65 12.38 17.23 12 17.36 12.14"/><path class="cls-1" d="M140,185.77c.25.18.5,0,.65.18,0-.16-.21-.36-.4-.52C140.39,185.57,140.32,185.69,140,185.77Z" transform="translate(-122.56 -174.14)"/><path class="cls-1" d="M140,185.16a2.24,2.24,0,0,0,.27.26A.89.89,0,0,0,140,185.16Z" transform="translate(-122.56 -174.14)"/><path class="cls-1" d="M139.07,186.26a.78.78,0,0,0,.46,0l-.42-.09Z" transform="translate(-122.56 -174.14)"/><path class="cls-1" d="M139.09,186.19h0l.08-.14Z" transform="translate(-122.56 -174.14)"/><path class="cls-1" d="M139.07,186.28v0S139,186.25,139.07,186.28Z" transform="translate(-122.56 -174.14)"/><path class="cls-1" d="M138.27,186.76c-.16-.21-.3-.5-.71-.5C137.78,186.47,138,186.46,138.27,186.76Z" transform="translate(-122.56 -174.14)"/><path class="cls-1" d="M138.54,186.15l-.17.13a.93.93,0,0,1,.35.18Z" transform="translate(-122.56 -174.14)"/><polygon class="cls-1" points="15.89 11.87 15.98 12.01 16.04 11.96 15.89 11.87"/><path class="cls-1" d="M139.55,185.4a.37.37,0,0,1-.14-.34.6.6,0,0,0-.22.3C139.31,185.41,139.53,185.53,139.55,185.4Z" transform="translate(-122.56 -174.14)"/><path class="cls-1" d="M139.3,185.78l0,0S139.23,185.76,139.3,185.78Z" transform="translate(-122.56 -174.14)"/><path class="cls-1" d="M139.61,184h0Z" transform="translate(-122.56 -174.14)"/><path class="cls-1" d="M139.11,185.35c-.1.06,0,.14.1.22a.42.42,0,0,1,0-.22C139.13,185.33,139.09,185.32,139.11,185.35Z" transform="translate(-122.56 -174.14)"/><path class="cls-1" d="M139.91,184.81l-.26.1C139.79,184.9,140,184.85,139.91,184.81Z" transform="translate(-122.56 -174.14)"/><path class="cls-1" d="M139.41,185.76v0C139.52,185.79,139.48,185.77,139.41,185.76Z" transform="translate(-122.56 -174.14)"/><path class="cls-1" d="M139.41,185.76a1.09,1.09,0,0,0-.21-.19.5.5,0,0,0,.09.18Z" transform="translate(-122.56 -174.14)"/><path class="cls-1" d="M136.92,183.44c.39,0,.75.26.3.35a5.91,5.91,0,0,0,2.32.24.85.85,0,0,1-.54-.26c-.21,0-.56.32-.89.13-.17-.24.16-.16.38-.25-.5,0-.69-.34-1.42-.34l.24.19C137.2,183.48,137,183.41,136.92,183.44Z" transform="translate(-122.56 -174.14)"/><path class="cls-1" d="M139.43,184.39l0,.09a1.5,1.5,0,0,1,.58-.19.79.79,0,0,0-.44-.24l-.12.39Z" transform="translate(-122.56 -174.14)"/><path class="cls-1" d="M139.4,184.84c-.4-.16-.55-.37-1-.37,0,.21.32.22.46.4,0-.38.21.16.51,0a.42.42,0,0,1,.06.23,1.26,1.26,0,0,1,.24-.15h0c-.06,0-.09,0-.05,0h0l-.15-.05c.12-.09.11,0,.15.05l.06,0h0c0-.14-.1-.29-.15-.43C139.39,184.55,139.39,184.65,139.4,184.84Z" transform="translate(-122.56 -174.14)"/><path class="cls-1" d="M136.8,185.7l.09,0S136.83,185.68,136.8,185.7Z" transform="translate(-122.56 -174.14)"/><path class="cls-1" d="M137.09,185.71s.19.14.12.18-.19-.09-.31-.15a.52.52,0,0,0,.46.24l0,0a2.18,2.18,0,0,1,.8.06C137.74,185.87,137.47,185.79,137.09,185.71Z" transform="translate(-122.56 -174.14)"/><path class="cls-1" d="M138.15,185.33c0-.11-.08-.22-.12-.33l-.39,0,.22.06C137.72,185.2,138,185.26,138.15,185.33Z" transform="translate(-122.56 -174.14)"/><polygon class="cls-1" points="17.27 9.88 17.71 9.98 17.1 9.71 17.27 9.88"/><polygon class="cls-1" points="17.25 9.44 17.65 9.49 17.42 9.36 17.25 9.44"/><path class="cls-1" d="M127.6,181.1l.08.09Z" transform="translate(-122.56 -174.14)"/><path class="cls-1" d="M127.77,180.85l-.16-.11C127.69,180.81,127.76,180.85,127.77,180.85Z" transform="translate(-122.56 -174.14)"/><path class="cls-1" d="M134.89,175c0-.39.12-1,0-.58l-.14.41C134.83,174.83,134.88,174.91,134.89,175Z" transform="translate(-122.56 -174.14)"/><path class="cls-1" d="M128.86,177.12l.07.11-.08-.41Z" transform="translate(-122.56 -174.14)"/><path class="cls-1" d="M129.45,178.81l-.19-.22A1.43,1.43,0,0,0,129.45,178.81Z" transform="translate(-122.56 -174.14)"/><path class="cls-1" d="M127.62,182.75l.44.06C128.06,182.74,127.84,182.76,127.62,182.75Z" transform="translate(-122.56 -174.14)"/><path class="cls-1" d="M138.94,179.36a.58.58,0,0,0,.11-.39C138.89,179.22,138.59,179.48,138.94,179.36Z" transform="translate(-122.56 -174.14)"/><path class="cls-1" d="M123.62,178.77a.43.43,0,0,0,.2.2A.36.36,0,0,0,123.62,178.77Z" transform="translate(-122.56 -174.14)"/><path class="cls-1" d="M138.88,178.67l-.06.1c.11,0,.21.09.23.21C139.17,178.8,139.21,178.63,138.88,178.67Z" transform="translate(-122.56 -174.14)"/><path class="cls-1" d="M130.93,186.67v.05C130.95,186.66,130.94,186.66,130.93,186.67Z" transform="translate(-122.56 -174.14)"/><path class="cls-1" d="M134.44,190.31a.33.33,0,0,1-.13.09S134.39,190.39,134.44,190.31Z" transform="translate(-122.56 -174.14)"/><path class="cls-1" d="M140,181.84c0,.09,0,0,0,0Z" transform="translate(-122.56 -174.14)"/><path class="cls-1" d="M138.31,182.4a.7.7,0,0,0-.21,0Z" transform="translate(-122.56 -174.14)"/><path class="cls-1" d="M136.18,179.4h0C136.11,179.46,136.13,179.45,136.18,179.4Z" transform="translate(-122.56 -174.14)"/><path class="cls-1" d="M139.79,182a.45.45,0,0,0,.12-.13A.54.54,0,0,0,139.79,182Z" transform="translate(-122.56 -174.14)"/><path class="cls-1" d="M140,182l0,.08C140,182,140.08,182,140,182Z" transform="translate(-122.56 -174.14)"/><path class="cls-1" d="M139.94,181.71a.22.22,0,0,1,0,.15l.07,0A1,1,0,0,1,139.94,181.71Z" transform="translate(-122.56 -174.14)"/><path class="cls-1" d="M127.25,186l0,0C127.4,186,127.36,186,127.25,186Z" transform="translate(-122.56 -174.14)"/><path class="cls-1" d="M131.84,178.71v0Z" transform="translate(-122.56 -174.14)"/><path class="cls-1" d="M131.63,179c.14-.52.18-.45.21-.33l.16-1.24Q131.8,178.21,131.63,179Z" transform="translate(-122.56 -174.14)"/><path class="cls-1" d="M127.44,181.83l.4,0c.59.29.36.27.91.36-1.31-.4,0-.3-1.31-.8l.29,0s.05,0,0,.06c.63.15-.87-.47-.61-.57a.65.65,0,0,1,.44.15l-.24-.28s.24.1.2.12,0-.15,0-.23l0,0a5.13,5.13,0,0,1-.5-.49c.19.06.1.11.25.19l-.2-.29c.32.16.54.44.46.48,1.17.67-.23-.28.55,0l.08.18a6,6,0,0,0,.88.44,7.76,7.76,0,0,1-1.25-.91c.1,0,.16,0,0-.2.37.31.32.19.35.12l.47.44a7.49,7.49,0,0,0-.5-.64c.11,0,.47.31.77.61.17,0-.62-.52-.57-.71.26.1.13-.15,0-.56.21.12.22.32.36.45l-.23-.46s.11.13.15.2c-.06-.2-.37-.52-.36-.74-.35-.63.76.73.47,0a5.73,5.73,0,0,1,.3.56c-.08-.56,0-.42-.18-1.13l.31.32a2.7,2.7,0,0,1-.4-1.48c-.13-.2-.25-.37-.31-.44a4.26,4.26,0,0,1,.14-.42,1.68,1.68,0,0,1,.16.57v-.16a2,2,0,0,1,.3.91l-.22-.34a6.09,6.09,0,0,0,.34,1.15.41.41,0,0,1,0-.19,1.35,1.35,0,0,0,.08.25c0,.06,0-.08,0-.24l.29.66-.09-.27.36.35c-.06-.75-.12-1.8.22-2.17a8.42,8.42,0,0,0,.21,1.46c-.19-.63-.17.32-.33.22.09.05.14.34.14.45q0-.31.13-.64c.08.5.12.36.21.57-.2-1,.1-.68.19-1,0,.33,0,.68-.1.61.2.74.09-1.2.29-.56,0,0-.06,0-.06.13.07-.3.28-.07.23.23h0c.21.1.62,0,.79-.8l-.2,1.18a18.21,18.21,0,0,1,.93-2.74,19.17,19.17,0,0,1-.66,2.81c0,.11.05.23.21,0a5.34,5.34,0,0,1,.22-1.1c-.05.83,0,.45,0,1.16,0-.16.36-1.25.45-1.19-.06.16-.33,1.08-.39,1.19.17-.34.36-.68.55-1a5.91,5.91,0,0,0-.39,1.21c.06-.21.14.08.23,0l0-.27c.13.23.84-1.36,1.1-1.17a5.4,5.4,0,0,0-.68,1.42c.3-.5,1.57-2.3,2.12-2.48l-.13.31.42-.17a27.46,27.46,0,0,0-2.38,2.51c-.06.27-.17.35-.06.38-.13.28-.29.37-.32.37l.08.29c.36-.57.53-.46.85-.91a5.34,5.34,0,0,0-.63.41c.33-.58,1.2-1.52,1.35-1.24a14,14,0,0,1-.88,1.11c.15-.17.42-.23.33-.09l-.29.23c-.08.25.72-.57.39,0,0,.07-.5.72-.22.43a32.33,32.33,0,0,1,2.55-2.7,3.78,3.78,0,0,1-.46,1.12c-.38.48-1.15.86-1.48,1.27a2.12,2.12,0,0,1,.4-.27c-.08.15-.44.36-.3.39.53-.43.11.22.47-.33.23,0,0,.18.08.28a3.5,3.5,0,0,1,1.54-.76,2.86,2.86,0,0,0-.39.32c.13.28-.08.58,0,.81a1.47,1.47,0,0,1-.54.38c.12,0,.34-.09.39,0-.48.38-.15-.11-.74.29a1.44,1.44,0,0,1,.84-.06c.55-.26,0-.29-.26-.28a3.08,3.08,0,0,1,2.15-.37c.3.19-.47.3-.34.31,0,.5,1.56,0,1.08.61a5.31,5.31,0,0,1-1.41.37c-.23-.14.26-.38.19-.52l-.19.23c-.19,0-.36-.1-.23-.21-.41.25.12.76-.29,1.15a1.12,1.12,0,0,0,.59,0l-.09-.1c.42-.17.62.14.8,0,.31.12.84.29.59.56l-.61.07c.18,0,.36-.17.17-.23.28.1-.82.38,0,.47l.42-.17c.31.16,1,.42.76.66.61-.08-.06-.05.65-.21-.88.13,0-.65-.89-.4.82-.2.35-.31,1-.6-.2,0-.38.12-.3-.11l-.18,0v0h0s0,0,0,0a.84.84,0,0,1-.29.13c-.47-.06-.49-.36-.74-.43.08-.13.24,0,.44-.08l-.38-.1c.44-.08.67-.45,1-.21l0-.27c.21-.21.26-.46,0-.54.05-.15-.57-.17-.2-.16l-.39-.31.1,0c-.09-.43-1-.47-.47-1.23-.17-.07-.36-.12-.36-.38l.31-.24c-.2-.08,0-.68-.36-.51.74-.79-.39-.87-.46-1.23l-.38.34c-.13-.18-.39-.23-.72-.26l-.29.34c-.39.12-.21-.6-.53-.79.12-.12.17,0,.15.09.14-.54-.17-.53-.48-.46s-.6.17-.59-.23c-.16.1-.2,0-.2-.11h0l0,0a2.73,2.73,0,0,0,0-.27,1.1,1.1,0,0,0,0,.27.53.53,0,0,0-.34,0l.16-.46h0c0-.21-.17.17-.27.53a1,1,0,0,0-.24.21c.22-.75-.34.15-.16-.67-.21.34-.61.1-.9.92,0-.11,0-.17.07-.16s-.16-.25-.31,0l.1-.61q-.22.36-.42.75a1.33,1.33,0,0,1,.15-1.05c-.5.65-.36.21-.75.88l.06-.39c-.11,0-.33.52-.36.19-.2-.79-1.15-.15-1.87-.74.31,1.13-.39-.47-.26.43-.09-.26-.21-.4-.15-.65-.27.34-.63-.32-.66.49-.12-.25,0-.41-.12-.56,0,.07,0,.26-.12.12s0-.24,0-.37c-.36.16-.11,1,.13,1.74-.27-.31-.35-.23-.25.31-.14-.22-.34-.43-.19-.6-.11,0-.81-.07-.53.52-.1-.13-.16,0-.15.11-.23.09-.28,0-.46.22l.11.06c.32.7-.07.25-.18.43l0-.07c-.68-.19,0,.31-.73.08l.32.36c.63.82-.67-.22-.61.25l.25.14c.16.33-1.25-.73-1.47-.68s-.07-.14-.08-.22c-.74-.1.42.47.32.79-.29-.18-.6-.63-.79-.5-.29-.07.48,1.16-.2,1a.9.9,0,0,1,.59.42c0,.21-1.15,0-.53.55a.61.61,0,0,1-.2-.06c.11.25.08.63.45.89-.79-.28-.7.05-.57.33s.3.53-.44.31l-.05.5-.15,0c-.18.29.18.48.51.64-.11,0-.25,0-.32,0-.39.39-.31.49.42.9h-.5c.27.09-.8.66-.19,1.1a.61.61,0,0,1-.23,0c.32.23,0,.57-.13.88s-.11.57.78.43c.16.07.35.13.52.19,0-.41.77-.16,1-.4.14.09-.41.5-.55.36l.08-.05c-.92.21-.17.56-.77.78a13.83,13.83,0,0,0,.79,2.4l.52-.52.14.23c-.09.16-.37.44-.48.27-.25.35.49,0,.6-.07,0,.49-.74.45-.68.55l.15.09,0-.09c.32-.1.54-.3.68-.12s-.26.37-.24.44,0,.07.05.08l.22.3.28-.53c.3-.11.21.24.53-.36a.63.63,0,0,0,.19.91c.25.18.55.26.53.43.39-.24.56-.17.76,0,0-.14.25-.73.39-.58-.63,1.19.1.68-.06,1.64.07-.65.67.07.71-.88.14.15-.14.48-.1.82.56-.37.91.58,1.53.46a1.61,1.61,0,0,1,.1-.7q.1.45.23.9c.13-.08.14-1,.33-.39,0-.15-.06-.37,0-.43a1.52,1.52,0,0,0,1.62,0,1.85,1.85,0,0,1,1.86.2c-.28-.25-.19-.32-.09-.38-.1,0-.17-.4-.28-.61.22.14.46.29.7.41-.23-.63.42-.28.14-.85l-.06.17c-.23-.73-1-1.33-1.42-2.2.14.41-.1.18-.3,0s-.37-.38-.25.23c-.11-.16-.07-.3-.18-.5.11.41.06.51-.11.37l0-.1c-.29.2-.55-.16-.9-.37l.09.47c-.09-.05-.12-.2-.17-.31,0,.72.22,0,.25.81-.23-.94-.6,0-.7-1.06-.11,0,0,.55-.08.54l0-.3,0,.38c-.08-.06-.1-.44-.09-.69,0,0,0-.07.07-.09-.07-.36-.25.1-.27,0l.08.19c-.34.26-.59-.2-1.05.3l0,.22c-.38.32-.11-.3-.43-.21l0,0c-.14.19-.25.25-.31.2.17-.21.11-.52.31-.74-.42.28-.26.27-.83.9l.15-.34c-.22.25-.32.4-.51.4.28-.2.23-.52.57-.81.24-.79-.83.41-.21-.6-.76.71-.16.6-.35.72-.14.31-.56.53-.59.38s.72-1.12.56-1.24c0,0,.07,0,.08,0,.13-.24-.37.15-.13-.22-.49.38-.05-.12-.66.39l.28,0c-.22.06-1,.56-.82.09a2.9,2.9,0,0,1,.46-.21c.14-.19-.2,0,0-.19.63-.47.31.09.84-.22.22-.26-.58.21.12-.3-.9.63,0-.22-.76.15l.39-.27c-.07,0-.28.12-.3.07L128,185c-.5.2.26-.41,0-.33.11.17-.47.34-.71.6-.7.06,1-.79.66-.89.07,0-.18.25-.41.3a1.23,1.23,0,0,1,.41-.37c-.16-.12-.43.23-.73.28.5-.3-.25,0-.47,0l.45-.18c.2-.32-1,.29-.69-.06l.66-.12-.2-.05.53-.15c-.42,0-.35-.06-.21-.2-.32.11-.85.2-.89.08.26-.14.46-.06.36-.19.3,0,.68-.07.26.09l.45-.07c.31-.14,0-.18,0-.22a.17.17,0,0,1-.1.07,6.1,6.1,0,0,1-.69-.1,1.23,1.23,0,0,1,.47,0c-.06,0-.28,0-.33-.09a4.7,4.7,0,0,1,1,0l-.45-.12a3.41,3.41,0,0,1,.6-.11c.24-.08-.76-.2-.46-.33a.53.53,0,0,1-.2-.06c.11-.13.57-.16.07-.38l.71,0c-.14-.14-.89,0-1.12-.3s.59.07.8.07c-.33-.13-1-.46-.4-.43C127.51,181.77,127.4,181.77,127.44,181.83Zm.42-1.48c.06.09.27.32,0,.17C127.48,180.15,127.71,180.28,127.87,180.34Zm1.61-2.45c0,.16,0,.1-.15-.06S129.39,177.79,129.47,177.89Zm9.95,3h0C139.55,180.74,139.48,180.81,139.42,180.93Zm-.14.33a.33.33,0,0,0,.2,0c-.12,0-.15-.06-.13-.14S139.15,181.2,139.28,181.26Zm-13.91,7.52,0-.13C125.6,188.63,125.49,188.7,125.36,188.78Z" transform="translate(-122.56 -174.14)"/><path class="cls-1" d="M129.38,178.62c0-.07-.07-.15-.11-.24A.55.55,0,0,0,129.38,178.62Z" transform="translate(-122.56 -174.14)"/><polygon class="cls-1" points="4.98 8.6 4.97 8.6 5.06 8.61 4.98 8.6"/><path class="cls-1" d="M134.23,180a1,1,0,0,1,.14-.21C134.29,179.86,134.22,179.94,134.23,180Z" transform="translate(-122.56 -174.14)"/><path class="cls-1" d="M140.25,182.8l-.13-.2c0,.1-.08.14-.16.18C140.08,182.77,140.24,182.73,140.25,182.8Z" transform="translate(-122.56 -174.14)"/><path class="cls-1" d="M137.16,184c.05,0,0,0,.05.08l.22,0C137.44,184,137.27,184,137.16,184Z" transform="translate(-122.56 -174.14)"/><path class="cls-1" d="M138.65,183c-.41,0-.26.11-.2.23s0,0,0,0C139,183.24,138.84,183.1,138.65,183Z" transform="translate(-122.56 -174.14)"/><path class="cls-1" d="M138.47,183.23a.11.11,0,0,1,0,.11C138.69,183.36,138.52,183.29,138.47,183.23Z" transform="translate(-122.56 -174.14)"/><path class="cls-1" d="M139.61,181.59c-.1.08.52,0,.36,0C140.49,181.6,139.29,181.27,139.61,181.59Z" transform="translate(-122.56 -174.14)"/><polygon class="cls-1" points="14.75 8.89 15.25 8.87 14.85 8.8 14.75 8.89"/><path class="cls-1" d="M137.65,182.22l-.12.18a.27.27,0,0,1,.18,0C137.71,182.32,137.8,182.2,137.65,182.22Z" transform="translate(-122.56 -174.14)"/><path class="cls-1" d="M137.7,182.43a.11.11,0,0,0,.09.13A.19.19,0,0,0,137.7,182.43Z" transform="translate(-122.56 -174.14)"/><polygon class="cls-1" points="14.6 8.68 14.7 8.63 14.74 8.52 14.6 8.68"/><path class="cls-1" d="M137.33,180.45l-.21-.11c-.17.05-.24.13-.15.17A.6.6,0,0,0,137.33,180.45Z" transform="translate(-122.56 -174.14)"/><path class="cls-1" d="M136.19,181.37a2,2,0,0,1,.34-.17l-.59.18Z" transform="translate(-122.56 -174.14)"/><path class="cls-1" d="M135.92,181c-.17,0-.54,0-.44.14C135.65,181.1,135.84,181.18,135.92,181Z" transform="translate(-122.56 -174.14)"/><polygon class="cls-1" points="12.76 4.53 12.8 4.56 13.52 3.84 12.76 4.53"/><path class="cls-1" d="M132.54,179.64c0,.27.29-.55.26-.23.14-.2,0-.27.14-.44C132.76,179.17,132.79,179,132.54,179.64Z" transform="translate(-122.56 -174.14)"/><path class="cls-1" d="M132.94,179l.11-.12A.69.69,0,0,0,132.94,179Z" transform="translate(-122.56 -174.14)"/><polygon class="cls-1" points="12.7 16.37 12.96 16.46 12.69 16.22 12.7 16.37"/><path class="cls-1" d="M135.17,189.69l.37.53-.22-.55S135.27,189.8,135.17,189.69Z" transform="translate(-122.56 -174.14)"/><path class="cls-1" d="M129,181l-.11-.11c-.13-.11-.15-.1-.19-.1Z" transform="translate(-122.56 -174.14)"/><polygon class="cls-1" points="5.56 7.33 5.58 7.32 5.04 7.1 5.56 7.33"/><path class="cls-1" d="M128.6,182.35s-.09-.08-.06-.09S127.89,182.21,128.6,182.35Z" transform="translate(-122.56 -174.14)"/></svg>