<svg id="Слой_1" data-name="Слой 1" xmlns="http://www.w3.org/2000/svg" viewBox="0 0 641.26 165.37"><defs><style>.cls-1,.cls-4,.cls-6{stroke:#000;stroke-linecap:round;stroke-linejoin:round;stroke-width:3px;}.cls-2{fill:#d9d9d9;}.cls-3{fill:#fff;}.cls-4{fill:#129f58;}.cls-5{fill:#107a43;}.cls-6,.cls-7{fill:none;}</style></defs><title>logoDiaVita</title><path class="cls-1" d="M10.5,112.13a86.81,86.81,0,0,0,9.86-15C25.21,88,30.08,75.82,32,65.32A7.37,7.37,0,0,0,30.36,59l-.28-.3C17.59,46.21,14.91,42.61,16.79,28.81,18.22,18.38,28.56,9.81,32.26,7a11.56,11.56,0,0,0,1.89,1.64c1.55-.34,1.93-5.23,3.27-5.42,1.41,1.42,1.08,4.63,3.44,4.54.58,0,.69-1.6.76-2.51.45,0,1.11.38,2.29,1.94A22,22,0,0,1,47.5,9.61c2.18,2,3,5.79,8.32,10.36a8.35,8.35,0,0,0,6.84,1.89c9.17-1.53,11.55-5.37,26.86-6.33,14.42-.91,23.21,4.87,33.15,5.35a8.82,8.82,0,0,0,5-1.18,14,14,0,0,0,3.44-3.33c1.82-2.19,4.42-8.09,8.76-10.6.93-.53,1.68-2.07,2.6-2.31.83,1.3.71,2.45,1.48,2.53,1,.11,2.31-3,3-4.51,1.29.72,2.34,3.63,3.41,4.82.83,0,1.31-.62,1.89-1.36A6.13,6.13,0,0,1,155,7.11c9.31,8.12,13.43,12.76,14.18,23.71.13,2,.61,8.88-3.44,15.09-4.28,6.57-7.3,8-11.77,12.65-1.31,1.37-.55,5.31,1.12,13.51,4.75,23.28,2.75,33.28,16.31,45.17-.52,1.1-1.93,1.93-3.87,2.41,1.48,3.22-.52,9.83-1.76,10.17,0,.12-.25-2-1.29-1.79a12.8,12.8,0,0,1-2.91,5.11c-5.57,6.49-13.5,9.19-26.19,15.76-10.27,5.29-11.43,7.17-20.84,11.4-3.29,1.48-25.92,7.52-42.44-.6a54.89,54.89,0,0,1-12.77-8.21,77.87,77.87,0,0,0-8.52-6.16c-10.94-7.13-29.2-19.08-29.65-23-2.07.19-4,3.82-4,3.82-1.38-.4-4.85-7.18-2.27-12.15C13.31,113.61,11.61,113.23,10.5,112.13Z" transform="translate(-0.07 0.02)"/><path class="cls-2" d="M18.5,111.25a7.26,7.26,0,0,1,1.29-2c5-5.65,11-21,12.09-24.4,3.37-10.47,3.18-13.12,5.86-22.79A51.84,51.84,0,0,1,48.82,41.18a55.87,55.87,0,0,1,18.84-14A58.35,58.35,0,0,1,91.34,22a61.5,61.5,0,0,1,18.59,2.29,58.06,58.06,0,0,1,18.08,9c3.82,2.83,11.94,9,16.93,19.86a62.58,62.58,0,0,1,4.71,17.83c.58,3.91.63,6.17,1.91,16,.63,4.89,1,7.34,1.27,8.79a61.1,61.1,0,0,0,6.37,15.92c1.53,2.55,2.31,3.82,3.82,5.09.25.21,1.15,1,1,1-1.5.41-2.8-.73-3.82-1.4,1.53,1.84,2.1,5.15,1.43,5.66-.45-.45-1.86-1.74-2.83-1.34.29,1,0,2.77-1,5.09a17.85,17.85,0,0,1-5.47,6.88c-1.46,1.23-1,.58-8.53,5.35a42.71,42.71,0,0,1-4.3,2.63c-1.82.91-2.37,1-4.46,2-1.09.55-2,1.09-3.82,2.17-1.21.72-2.79,1.65-4.58,2.8-2.9,1.87-3.37,2.39-5.35,3.69a43.34,43.34,0,0,1-7.26,3.95,42.08,42.08,0,0,1-10.31,2.55,61.12,61.12,0,0,1-9,.89,50.42,50.42,0,0,1-9-.51,47.42,47.42,0,0,1-9.81-2.54,34.64,34.64,0,0,1-7.51-3.69c-3.27-2.18-3.41-3.2-8.15-6.62-.47-.34-2.2-1.58-4.58-3.06-3.17-2-5.63-3.19-6.11-3.44,0,0-18.85-9.65-24.45-17.57a8,8,0,0,1-1.88-3.56,12.36,12.36,0,0,1,0-2.67c-.7-.38-2,.64-2.8,1.78-.64-.39-.64-4.52,1.65-6.88-.69-.5-2,.7-3.61,1.78Q18.48,111.46,18.5,111.25Z" transform="translate(-0.07 0.02)"/><path class="cls-3" d="M80.35,40.67c.89-1.8-4.24-6-3.52-6.91.89-1.17,8.53,1.46,15.53,5.09,7.64-4.39,14.27-6.49,15-5.47.59.76-4.32,4.72-3.55,6.29,6.54-2.43,18.16-3.56,19-1.57.45,1.15-4.06,2.86-4.92,5,9.84.86,17.8,4,17.78,5.09,0,.53-3.59,1.05-5.46,2.26,4.06,3.3,16.47,10.31,14.9,14.29,0,0-2.67-.65-3.44.26A11.28,11.28,0,0,1,145,72.38c1,9.25-.44,11.84,2.55,22.79,2.16,7.92,5.82,9.55,7,19.1.76,6.11-.76,7.26-1.1,7.42-1.1-1.72-7.18-5.38-7.18-5.38,1.91,3.56,3.15,8.93,2.29,9.42-.7.38-3.14-1.18-4.81-3.56.34,2.58.67,3.5-.29,7-2.22,8.15-19.16,11-20,9.29-.24-.5,1-1.19.76-2.42-.28-1.72-3-2.62-3.95-2.93-5.07-1.63-7.29.61-13.62.13-3.21-.24-6.28-.47-8.79-2.67-3.06-2.67-3.21-6.52-4.84-6.49-1.2,0-1.29,2.1-3.56,4.33a12.8,12.8,0,0,1-7.13,3.31,14.52,14.52,0,0,1-8.91-2,24.59,24.59,0,0,1-8.68-8.16c-2.17-3.16-2.45-4.92-5.22-7.38a9.8,9.8,0,0,0-5-2.67c-2.81-.47-5.73.61-5.73,1.4,2.59.22,4.25,1.38,4.2,2.17s-4.14,0-6.11,1.91c1.73.21,2.73.4,3.06,1.53.27.94-1.45,1.58-2.55,3.56-1.6,2.91.07,5.21-1.15,6.11-1.5,1.12-6.08-.85-7.9-4.33-1.57-3-1.34-4.47-1.53-6.49-1-.26-2.44,3.27-3.06,3.06-1-.34-.24-6.24.76-9.93-2.82-.79-3.53,7-5.6,6.62-1.73-.3-3.67-6.15-1.65-10.82,1-2.32,2.43-3.71,5-8.4,4.06-7.51,7.31-24.48,11.08-31.2-1.22-1.12-2.58-.41-3.82-.64C38.5,64,49,56,54.14,51.67c-.68-1.84-6.18-1.18-6.24-1.91-.11-1.37,7.88-4.76,19.61-6.24.1-1.87-5.82-3.5-5.6-4.2C62.29,38.07,72,37.19,80.35,40.67Z" transform="translate(-0.07 0.02)"/><path class="cls-2" d="M84.09,74.38c.87-.38,1.05-2.67.32-4.33-1.11-2.54-2.23-3-3.82-3.88a4.13,4.13,0,0,1,3.25-.38c2.09.63,2.64,2.41,3.63,2.17.62-.15.65-.93,1.53-2.67a8,8,0,0,1,2.86-3.63,7.46,7.46,0,0,1,3.44,4.08c.52,1.49.48,2.73,1,2.8s.61-.91,1.53-1.72c1.6-1.41,4.2-1.53,5-.89-.76.92-1.34,1-2.1,2.67a6.25,6.25,0,0,0-.51,2.86c0,.28.13,2,.76,2.17s1.07-.9,1.4-1.27c1.84-2.1,3.77-2.55,7.13-3.44a28.86,28.86,0,0,1,18,1.59C131,72,138,75,141.26,82.51c.49,1.15,3.2,7.72.51,14.58-2.17,5.53-7.15,9.43-7.7,9-.13-.09,0-.38-.13-1a2.69,2.69,0,0,0-1.34-1.72,21.59,21.59,0,0,1-7.38,6.68c-.26-.06-.26-.17-1.08-1a31.62,31.62,0,0,0-3.56-2.86c-3.74-2.82-7.55-7.77-8.28-7.26-.38.27.47,1.78,0,2.1-2.86-.06-9.29-7.19-11-12.86-1.11-.11-2.18,2.39-2.42,2.93a11.65,11.65,0,0,0-.06,8.28,20.55,20.55,0,0,0,4.65,6.49c1.53,1.6,2,1.75,1.91,2.17-.5,2.89-24.73,1.44-24.83-.45,0-.38.94-.45,2.42-1.91a11.54,11.54,0,0,0,2.29-3.31,14.8,14.8,0,0,0,1.33-4.85,15.79,15.79,0,0,0-.32-5.09c-.42-1.85-1.4-4.68-2.17-4.58-.38,0-.55.78-.7,1.27-.6,2-1.84,3.22-4.33,5.73a22.92,22.92,0,0,1-8.92,5.47,7.57,7.57,0,0,0,2.42-1.72c.64-.68,1.21-1.53,1.08-1.65s-1.31,1.13-3.5,2.23a16.34,16.34,0,0,1-3.65,1.43,38.54,38.54,0,0,0-4,.83,6.27,6.27,0,0,0-2.23,1,3.49,3.49,0,0,0-1.59,2.23c-.44.15-1,0-2.1-1-2.75-2.32-3.24-3.82-4.2-4.65-.65.1-.76,1-1,2.36-1.55.72-9.55-6.32-9-14.9.42-7.23,6.72-11.59,8-12.41a25.55,25.55,0,0,1,6.94-3.44c4.83-1.53,6.52-1.21,12.16-1.53a24.56,24.56,0,0,1,7.57.45C81.23,71,82.81,74.95,84.09,74.38Z" transform="translate(-0.07 0.02)"/><path class="cls-1" d="M84.4,84.82a6.59,6.59,0,0,0,.45-1.91,4.73,4.73,0,0,0-.45-2.48,10.49,10.49,0,0,0-1.34-1.59c-1-1.07-1.15-1.21-1.65-1.78-.68-.79-.84-1.09-1.46-1.91a34.49,34.49,0,0,0-2.29-2.61c-2.07-2.16-3.59-3.74-5.6-4.46s-3.64-.31-6.49.38a28,28,0,0,0-9.68,4.65,24.25,24.25,0,0,0-5.79,5.66,16.33,16.33,0,0,0-2.74,5.35,11.91,11.91,0,0,0-.26,6.56,8.8,8.8,0,0,0,2.1,4C50.53,96.07,52,96.59,54,97.23A25.37,25.37,0,0,0,60,98.31a25,25,0,0,0,8.66-.57,22.37,22.37,0,0,0,6-2.54,33.5,33.5,0,0,0,4.46-3.56,22.36,22.36,0,0,0,3.63-3.75A12.09,12.09,0,0,0,84.4,84.82Z" transform="translate(-0.07 0.02)"/><path class="cls-1" d="M102.8,74.77a27.88,27.88,0,0,0-1.27,3.56,12.79,12.79,0,0,0-.7,3.18,10.57,10.57,0,0,0,.38,3.06,11.94,11.94,0,0,0,1.27,3.69,10.39,10.39,0,0,0,1.59,2c2.12,2.23,3.22,2.92,5.22,4.84,1.7,1.63,1.29,1.51,2.8,2.93a31.24,31.24,0,0,0,4.84,3.75c2.31,1.43,3.72,2.29,5.86,2.55a11.08,11.08,0,0,0,4.27-.38,12.88,12.88,0,0,0,4.27-2.1,16,16,0,0,0,4.27-4.58,18.9,18.9,0,0,0,2.55-6.56,14.86,14.86,0,0,0,.26-4.77,13.85,13.85,0,0,0-1.21-4.27,15.69,15.69,0,0,0-2.86-4,30.29,30.29,0,0,0-3.88-3.56A37.41,37.41,0,0,0,124.35,70a31.4,31.4,0,0,0-11.08-3.31,8.22,8.22,0,0,0-6.56,2.23A15.26,15.26,0,0,0,102.8,74.77Z" transform="translate(-0.07 0.02)"/><path class="cls-3" d="M111.22,87a1.89,1.89,0,0,0,.46,1.15,5.68,5.68,0,0,0,1.77,1.62A6.68,6.68,0,0,0,116,90.91a5.68,5.68,0,0,0,2.32,0,5.58,5.58,0,0,0,2.74-1.64A7,7,0,0,0,122.41,87a3.91,3.91,0,0,0,.49-2.32,1.34,1.34,0,0,0-.48-.94,1.15,1.15,0,0,0-.62-.19,8.17,8.17,0,0,0-2.15.08,36.42,36.42,0,0,0-6,1.53C111.5,85.89,111.26,86.55,111.22,87Z" transform="translate(-0.07 0.02)"/><path class="cls-3" d="M64.11,83.41a3,3,0,0,0-.86,0,1.24,1.24,0,0,0-.86.29,1.06,1.06,0,0,0-.24.72,1.91,1.91,0,0,0,.29,1.05,3.9,3.9,0,0,0,1.43,1.39,16.43,16.43,0,0,0,7.33,1.81,2.77,2.77,0,0,0,1.89-.6c.08-.07.57-.52.45-.93a.76.76,0,0,0-.43-.43A44.54,44.54,0,0,0,64.11,83.41Z" transform="translate(-0.07 0.02)"/><path class="cls-1" d="M58.05,117c.19.19.09.6.06.7-.21.84-1.25,1-1.27,1.53,0,.26.21.44.57.76.64.57,1.18,1.25,1.84,1.78,1.06.85.74.76,2.74,2.55,1.25,1.12,2.48,2.14,3.31,2.8a32.53,32.53,0,0,0,7.64,4.77,26.8,26.8,0,0,0,7.38,2c2.22.26,3.94.44,6-.32a8,8,0,0,0,3.82-2.74,8.76,8.76,0,0,0,1.4-3.44,9.55,9.55,0,0,0,.26-3.82,9.21,9.21,0,0,0-1.21-3.31,10.8,10.8,0,0,0-2-2.48,12.83,12.83,0,0,0-3.29-2.14c-1.44-.73-1.6-.6-3.88-1.65a11.28,11.28,0,0,1-2.8-1.59A4.78,4.78,0,0,1,76.84,110a3.82,3.82,0,0,1,.06-2.36,4.37,4.37,0,0,1,1.78-2,7.31,7.31,0,0,1,2-1,36.94,36.94,0,0,1,6.49-1.53,40.3,40.3,0,0,1,6-.26,45.16,45.16,0,0,1,6.18.57,31.65,31.65,0,0,1,4.46,1.08c1.87.6,2.72,1.06,3.37,1.84a5.29,5.29,0,0,1,1,1.78,3.66,3.66,0,0,1,.19,1.72,3.5,3.5,0,0,1-.89,1.78,6.09,6.09,0,0,1-2.17,1.4c-1.12.56-1.79.84-2.86,1.34s-1.85.85-2.93,1.4A17.14,17.14,0,0,0,97,117.23,8.17,8.17,0,0,0,95.13,119,7.57,7.57,0,0,0,94,121.18a9.83,9.83,0,0,0-.51,3.69,11.62,11.62,0,0,0,.76,3.69,9.93,9.93,0,0,0,2.29,4,9.46,9.46,0,0,0,3.63,2.17,13.6,13.6,0,0,0,4.39.83c1.68.08,1.77-.16,4.52-.26a21,21,0,0,1,4.46.13,16.3,16.3,0,0,1,4.07,1.28c.35.16,3.17,1.46,3,2.17-.06.24-.46.35-.83.45a3.12,3.12,0,0,1-1.65-.06c-.87-.25-1.15-.65-1.59-.51a1.1,1.1,0,0,0-.57.51c-.1.15-.87.8-2.42,2.1-1.38,1.15-3.77,1.86-5.92,2.48a61.5,61.5,0,0,1-7.19,1.53,58,58,0,0,1-5.92.76,49.7,49.7,0,0,1-10.19-.45,55.43,55.43,0,0,1-6.62-1.4,40,40,0,0,1-6.75-2.36,36.73,36.73,0,0,1-4.77-2.67c-3.21-2.12-5.05-4.06-8.21-7.38-3.74-3.93-4.29-5.29-4.27-6.43,0-.14,0-.92-.26-1-.58-.2-1.67,2.67-2.61,2.48-.57-.11-.76-1.25-.83-1.53a4.35,4.35,0,0,1,.41-2.79A9.41,9.41,0,0,1,53.58,119C55.08,117.87,57.5,116.43,58.05,117Z" transform="translate(-0.07 0.02)"/><path class="cls-3" d="M106.18,138c1.56-.08,2.56-.1,3.69-.26.32,1.12-.6,3.28-1.78,3.37S106.21,139.19,106.18,138Z" transform="translate(-0.07 0.02)"/><path class="cls-3" d="M75.36,136.2a16.54,16.54,0,0,0,4.36.45c-1.1,2.64-.41,4.77-2,4.77S74.76,137.84,75.36,136.2Z" transform="translate(-0.07 0.02)"/><path class="cls-3" d="M83.9,106.28c.41-1.08,4.71-1.79,8.21-1.91,4.94-.16,9.39,1.31,9.23,1.84s-2.58,0-8.85-.06C88.85,106.12,83.83,107,83.9,106.28Z" transform="translate(-0.07 0.02)"/><path class="cls-3" d="M80.33,148.87c.11-.19.42-.23,1.08-.19a8.42,8.42,0,0,1,2.86.45,33.64,33.64,0,0,0,7.64,1.34c2.59.18,4.55.32,6.88-.45a18.4,18.4,0,0,1,3.88-1c.82-.1,2.77-.35,3.06.32.07.16,0,.38-.19.76a5.41,5.41,0,0,1-2.48,2.1,27,27,0,0,1-9.87,2,30.65,30.65,0,0,1-7.51-1.34,9,9,0,0,1-4.08-2C81.5,150.83,80,149.41,80.33,148.87Z" transform="translate(-0.07 0.02)"/><path class="cls-1" d="M57.6,124.74c-3.1-.65-5.61-1.13-7.1-1.34-29.63-3.94-45.8-1.79-48-.79-.31.14-.71.63-.89,1.72a8.92,8.92,0,0,0,1,5c13.24-1.34,46-2.74,57.17-2.36C59.72,126.16,58.77,125.38,57.6,124.74Z" transform="translate(-0.07 0.02)"/><path class="cls-1" d="M2.4,122.68a4.7,4.7,0,0,1,3.51,2c1.44,1.75,1.08,4.45.89,5.92-.23,1.75-.57,1.76-1,4a26,26,0,0,0-.45,5.54,23.12,23.12,0,0,0,1,6.62A14,14,0,0,0,9,152.11a8.35,8.35,0,0,0,3.06,2.42,7.34,7.34,0,0,0,4.14.58,10,10,0,0,0,2-.64c2.88-1.09,4-1.59,4-1.59,2.84-1.27,5.73-2.45,8.53-3.75a129.87,129.87,0,0,1,18.75-7.2c2.59-.76,5.16-1.28,10.31-2.36,5.81-1.21,9.35-1.75,11.2-.83.15.07.59.31.89.13.69-.42.34-2.9-.89-4.65-.91-1.29-2.08-1.88-4.14-2.93a52.15,52.15,0,0,1-4.73-2.58c-1.59-1-3.34-3.72-4.58-4C47.13,121.89,10.29,119.52,2.4,122.68Z" transform="translate(-0.07 0.02)"/><path class="cls-4" d="M8.77,124.42c3.15-.68,11-2.2,50.21,1.23,5.18,6.31,12.54,5.56,11.71,10.8-21-.1-49.75,13.71-54.94,15.09a3.35,3.35,0,0,1-1.91,0,3.82,3.82,0,0,1-1.91-1.62,19.79,19.79,0,0,1-2.58-5.31,23.79,23.79,0,0,1-.76-8.21,39.39,39.39,0,0,1,.76-5.06,10.47,10.47,0,0,0,.57-3.72A7,7,0,0,0,8.77,124.42Z" transform="translate(-0.07 0.02)"/><path class="cls-4" d="M3.71,124.71c-.49.24-.73,1.78.22,2.61a4.75,4.75,0,0,1,2.39.06C6.5,125.25,4.5,124.35,3.71,124.71Z" transform="translate(-0.07 0.02)"/><path class="cls-5" d="M9.5,130.81c14.51,1.89,42.06-2.35,51.77-2.9a37.88,37.88,0,0,0,5.89,3.54c-13.22,0-39.68,5.64-58.62,7.62A41.47,41.47,0,0,1,9.5,130.81Z" transform="translate(-0.07 0.02)"/><path class="cls-6" d="M8.77,124.42c3.15-.68,11-2.2,50.21,1.23,5.18,6.31,12.54,5.56,11.71,10.8-21-.1-49.75,13.71-54.94,15.09a3.35,3.35,0,0,1-1.91,0,3.82,3.82,0,0,1-1.91-1.62,19.79,19.79,0,0,1-2.58-5.31,23.79,23.79,0,0,1-.76-8.21,39.39,39.39,0,0,1,.76-5.06,10.47,10.47,0,0,0,.57-3.72A7,7,0,0,0,8.77,124.42Z" transform="translate(-0.07 0.02)"/><path class="cls-1" d="M10.62,153.07c.15-.28,1.2.54,2.67.32,2.26-.35,3.55-2.84,3.75-3.25a8,8,0,0,0,.64-4.33,11.5,11.5,0,0,0-1-3.75A14.67,14.67,0,0,0,15,139.13c-1.22-1.68-1.84-1.83-1.91-2.23,4-2.17,24.17-3.82,52.22-6.33,3.5,2,7.82,2.25,6.54,8.3C56.65,136.2,25,152.61,16.63,155a4.49,4.49,0,0,1-3,0C11.77,154.5,10.43,153.41,10.62,153.07Z" transform="translate(-0.07 0.02)"/><path class="cls-4" d="M18.7,138.43c15.21-2.74,30.43-3.06,49.08-5.73A4,4,0,0,1,70.45,137c-9.74-.26-31.2,4.14-50.23,13.56C21.06,147.28,22.08,144.09,18.7,138.43Z" transform="translate(-0.07 0.02)"/><path class="cls-1" d="M30.6,134.35c.18-.63-.12-1-.19-1.84a5.85,5.85,0,0,1,.45-2.29c.76-2,3.06-3.11,3.88-3.5,5.15-2.45,10.54-.38,11.2-.13a14.3,14.3,0,0,1,4.84,3.12c1.47,1.35,1.81,2.18,1.65,2.8a1.36,1.36,0,0,1-.45.7,1.87,1.87,0,0,1-2.1,0c-.65-.44-.49-1-1.15-1.84A5.06,5.06,0,0,0,47,130.1a14.57,14.57,0,0,0-4.56-1.49,15.3,15.3,0,0,0-4.9.13,5.57,5.57,0,0,0-2.55.83,4.53,4.53,0,0,0-1.5,1.73,4,4,0,0,0-.26,2.93c.18.5.38.58.32.83-.21,1.06-4,1.3-4.14.76C29.32,135.53,30.33,135.32,30.6,134.35Z" transform="translate(-0.07 0.02)"/><path class="cls-5" d="M20.71,143c21.33-5.21,21.1-5.45,49.37-8.31a3.53,3.53,0,0,1,.38,2.23c-13.62-.76-32.34,5.35-50.23,13.56C21,147.12,21.44,144.8,20.71,143Z" transform="translate(-0.07 0.02)"/><path class="cls-7" d="M70.5,137c-13.69.44-32.34,5.35-50.23,13.56.73-3.4,1.21-5.73.48-7.48" transform="translate(-0.07 0.02)"/><path class="cls-6" d="M18.7,138.43c15.21-2.74,30.43-3.06,49.08-5.73A4,4,0,0,1,70.45,137c-9.74-.26-31.2,4.14-50.23,13.56C21.06,147.28,22.08,144.09,18.7,138.43Z" transform="translate(-0.07 0.02)"/><path id="DiaVita_Club_копия" data-name="DiaVita Club копия" class="cls-5" d="M200.11,115.76a3.1,3.1,0,0,0,2.21.87h18.47q14.32,0,20.85-5.71T248.17,93q0-12.23-6.53-18t-20.85-5.74H202.32a3,3,0,0,0-2.21.92,3.14,3.14,0,0,0-.92,2.29v41.17A2.87,2.87,0,0,0,200.11,115.76Zm11.52-37.15h8.79q8.88,0,12.08,3.25t3.2,11.09q0,7.84-3.2,11.08t-12.08,3.24h-8.79Zm43.66-2.32a3.7,3.7,0,0,0,2.77,1h4.1a3.74,3.74,0,0,0,2.8-1,3.79,3.79,0,0,0,1-2.77V72.4a3.51,3.51,0,0,0-3.8-3.8h-4.1a3.73,3.73,0,0,0-2.78,1,3.8,3.8,0,0,0-1,2.78V73.5a3.7,3.7,0,0,0,1,2.77ZM255,116a1.93,1.93,0,0,0,1.44.56h7.4a1.94,1.94,0,0,0,1.43-.56,1.92,1.92,0,0,0,.59-1.44V83.28a2,2,0,0,0-1.88-2h-7.53a2,2,0,0,0-2,1.88v31.45a2,2,0,0,0,.57,1.44Zm32.63,1.24a20.1,20.1,0,0,0,12-3.71v1a2,2,0,0,0,.56,1.43,1.92,1.92,0,0,0,1.46.57H308a1.92,1.92,0,0,0,2-2V94.18c0-4.92-1.59-8.53-4.76-10.89s-7.37-3.51-12.62-3.51q-18,0-18,9.48a2,2,0,0,0,2,2h5a5,5,0,0,0,4-2c1.08-1.34,3-2,5.67-2s4.59.51,5.67,1.52,1.61,2.81,1.61,5.38H287.7a19.69,19.69,0,0,0-11.28,3,9.68,9.68,0,0,0-4.38,8.52,9.84,9.84,0,0,0,4.38,8.6,19.25,19.25,0,0,0,11.18,3Zm.88-15.63H298.6v5.15a18.08,18.08,0,0,1-9.81,3,6,6,0,0,1-3.93-1.16,3.67,3.67,0,0,1-1.39-2.94,3.63,3.63,0,0,1,1.34-2.9,5.49,5.49,0,0,1,3.65-1.13Zm38.75,11.59a5,5,0,0,0,4.72,3.37h4.75a5,5,0,0,0,4.72-3.37l19-41.21a2.44,2.44,0,0,0,.17-.88A2.1,2.1,0,0,0,360,70a2.2,2.2,0,0,0-1.76-.72H351c-1.72,0-3,1.08-3.93,3.15l-12.79,28.46L321.5,72.41c-.91-2.09-2.21-3.15-3.93-3.15h-7.23a2.21,2.21,0,0,0-1.74.72,2.05,2.05,0,0,0-.61,1.18,1.85,1.85,0,0,0,.21.88Zm39.16-37a3.7,3.7,0,0,0,2.77,1h4.1a3.74,3.74,0,0,0,2.8-1,3.79,3.79,0,0,0,1-2.77V72.36a3.51,3.51,0,0,0-3.8-3.8h-4.1a3.73,3.73,0,0,0-2.78,1,3.8,3.8,0,0,0-1,2.78v1.12a3.7,3.7,0,0,0,1,2.77ZM366,116a2,2,0,0,0,1.46.6h7.4a1.94,1.94,0,0,0,1.43-.56,1.92,1.92,0,0,0,.59-1.44V83.28a2,2,0,0,0-.56-1.43,1.93,1.93,0,0,0-1.46-.59h-7.4a2,2,0,0,0-2,1.88v31.47a2,2,0,0,0,.56,1.44Zm32.16-8.4a7.75,7.75,0,0,1-1.59-5.2V90.32h9.22a2,2,0,0,0,1.43-.56,1.92,1.92,0,0,0,.57-1.46V84.37a1.92,1.92,0,0,0-.57-1.46,2,2,0,0,0-1.43-.56h-9.22v-11a2,2,0,0,0-2-2.06h-7.4a2,2,0,0,0-2,2V102.5q0,14.85,14.19,14.85a47.16,47.16,0,0,0,8.79-.66,2.56,2.56,0,0,0,1.47-.7,1.83,1.83,0,0,0,.57-1.3v-3.54a1.94,1.94,0,0,0-2-2H407l-4.53.39A5.34,5.34,0,0,1,398.2,107.61Zm30.63,9.66a20.06,20.06,0,0,0,12-3.71v1a2,2,0,0,0,.57,1.43,1.89,1.89,0,0,0,1.44.57h6.37a1.92,1.92,0,0,0,2-1.81,1.9,1.9,0,0,0,0-.19V94.18c0-4.92-1.59-8.53-4.75-10.89s-7.37-3.51-12.62-3.51q-18,0-18,9.48a2,2,0,0,0,1.91,2h5.06a5,5,0,0,0,4-2c1.09-1.34,3-2,5.68-2s4.58.51,5.66,1.52,1.63,2.81,1.63,5.38H428.91a19.72,19.72,0,0,0-11.28,3,9.7,9.7,0,0,0-4.37,8.52,9.86,9.86,0,0,0,4.37,8.6,19.26,19.26,0,0,0,11.2,3Zm.87-15.63h10.15v5.15a18.11,18.11,0,0,1-9.81,3,6,6,0,0,1-3.94-1.18,3.66,3.66,0,0,1-1.38-2.94,3.59,3.59,0,0,1,1.34-2.9A5.45,5.45,0,0,1,429.7,101.64Zm75.8,15.26h8A23.12,23.12,0,0,0,526.8,113a12.17,12.17,0,0,0,5.74-10.64,4,4,0,0,0-.9-2.51,3,3,0,0,0-2.47-1.16h-3.93q-3.06,0-4.75,3.67a8.31,8.31,0,0,1-8.09,5.22h-6.58c-4.81,0-8.09-1-9.81-3.12S493.5,98.55,493.5,93s.86-9.43,2.58-11.5,5-3.1,9.81-3.1h5.88a8.35,8.35,0,0,1,8.13,5.22q1.68,3.63,4.72,3.63h3.88a3.77,3.77,0,0,0,2.25-.85,3.21,3.21,0,0,0,1.16-2.78,12.23,12.23,0,0,0-5.76-10.67A23.14,23.14,0,0,0,512.88,69H505.5q-12.25,0-18.38,5.87T481,93q0,12.23,6.13,18.08t18.38,5.85Zm33.38-.85a1.9,1.9,0,0,0,1.43.57h7.4a1.9,1.9,0,0,0,1.43-.57,1.93,1.93,0,0,0,.59-1.43V71.32a2,2,0,0,0-.59-1.47,1.91,1.91,0,0,0-1.43-.59h-7.4a1.91,1.91,0,0,0-1.43.59,2,2,0,0,0-.59,1.47v43.29a1.93,1.93,0,0,0,.58,1.43Zm23-2.68a14.36,14.36,0,0,0,10.46,3.92,18.5,18.5,0,0,0,12.16-4.78v2.1a1.93,1.93,0,0,0,.59,1.43,1.9,1.9,0,0,0,1.41.57h7.36a2,2,0,0,0,2-1.9V82.49a2,2,0,0,0-2.06-2H586.5a1.9,1.9,0,0,0-1.43.57,2,2,0,0,0-.59,1.47v22.12q-4.74,4.74-8.88,4.75-6.26,0-6.27-7.92V82.49a2,2,0,0,0-.59-1.47,1.9,1.9,0,0,0-1.43-.57h-7.4a1.9,1.9,0,0,0-1.43.57,2,2,0,0,0-.59,1.47v18.92q0,8.06,4,12Zm40.75.22a26.92,26.92,0,0,0,7.78,2.63,48.58,48.58,0,0,0,9.92,1.07q21,0,21-18.72,0-9.13-4.79-14t-12.92-4.84a32.34,32.34,0,0,0-9.55,1.68V71.33a2,2,0,0,0-2-2.06h-7.4a1.91,1.91,0,0,0-1.43.59,2,2,0,0,0-.59,1.47v42.26Zm18.6-25.83c3,0,5.15.86,6.43,2.56s1.9,4.45,1.9,8.25-.65,6.52-1.94,8.22-3.39,2.54-6.32,2.54a28.6,28.6,0,0,1-7.23-.75V89.1a24.91,24.91,0,0,1,7.17-1.33h0Z" transform="translate(-0.07 0.02)"/></svg>