<svg id="Слой_1" data-name="Слой 1" xmlns="http://www.w3.org/2000/svg" viewBox="0 0 50 92.89"><defs><style>.cls-1{fill:#92ebf3;}.cls-2{isolation:isolate;}.cls-3{fill:#0097a9;}.cls-4{fill:#242325;}.cls-5{fill:#181719;}.cls-6{fill:#f1f3f1;}</style></defs><title>mp</title><circle class="cls-1" cx="24.89" cy="21.44" r="21.44"/><path class="cls-1" d="M50,92.54c-12.61.67-37.39.22-50,0,0-24.7,7.57-44.72,25-44.72S50,67.84,50,92.54Z"/><g class="cls-2"><path class="cls-3" d="M24.13,82.86c-.1-1.84-.22-4.06-.2-5.71h-.06c-.45,1.55-1,3.2-1.67,5l-2.33,6.41H18.58l-2.14-6.29c-.63-1.86-1.16-3.57-1.53-5.14h0c0,1.65-.14,3.86-.25,5.84l-.35,5.67H12.64l.92-13.22h2.18L18,81.84c.55,1.63,1,3.08,1.33,4.45h.06c.33-1.33.8-2.79,1.39-4.45l2.35-6.39H25.3l.82,13.22H24.46Z"/><path class="cls-3" d="M28.75,75.6A19.74,19.74,0,0,1,32,75.35a5.43,5.43,0,0,1,3.71,1.1,3.55,3.55,0,0,1,1.16,2.76,3.89,3.89,0,0,1-1,2.82,5.48,5.48,0,0,1-4,1.45,5.89,5.89,0,0,1-1.37-.12v5.29H28.75ZM30.45,82a5.69,5.69,0,0,0,1.41.14c2.06,0,3.31-1,3.31-2.82s-1.24-2.59-3.12-2.59a7.17,7.17,0,0,0-1.61.14Z"/></g><polygon class="cls-4" points="22.27 52.72 20.39 70.25 24.93 73.16 24.93 52.72 22.27 52.72"/><polygon class="cls-4" points="24.93 73.16 29.02 70.25 27.59 52.72 24.93 52.72 24.93 73.16"/><polygon class="cls-4" points="19.89 47.79 22.3 52.72 27.56 52.72 29.96 47.79 19.89 47.79"/><polygon class="cls-4" points="19.89 47.79 22.3 52.72 24.93 52.72 24.93 47.79 19.89 47.79"/><polygon class="cls-5" points="22.3 52.72 27.56 52.72 27.56 52.96 22.3 52.72"/><polygon class="cls-6" points="15.29 44.68 24.87 47.84 15.1 56.46 15.29 44.68"/><polygon class="cls-6" points="34.51 44.68 24.93 47.84 34.7 56.46 34.51 44.68"/></svg>