<svg id="Слой_1" data-name="Слой 1" xmlns="http://www.w3.org/2000/svg" viewBox="0 0 40 74.28"><defs><style>.cls-1{fill:#b5e7ea;}.cls-2{isolation:isolate;}.cls-3{fill:#0097a9;}.cls-4{fill:#242325;}.cls-5{fill:#181719;}.cls-6{fill:#f1f3f1;}</style></defs><title>p</title><circle class="cls-1" cx="19.91" cy="17.16" r="17.16"/><path class="cls-1" d="M40,74c-10.09.53-29.91.18-40,0C0,54.24,6.06,38.23,20,38.23S40,54.27,40,74Z"/><g class="cls-2"><path class="cls-3" d="M16.69,61a15.87,15.87,0,0,1,2.62-.2,4.35,4.35,0,0,1,3,.88,2.84,2.84,0,0,1,.92,2.21,3.11,3.11,0,0,1-.81,2.26,4.38,4.38,0,0,1-3.23,1.16,4.71,4.71,0,0,1-1.1-.09V71.4H16.69Zm1.36,5.1a4.6,4.6,0,0,0,1.13.11c1.65,0,2.65-.8,2.65-2.26s-1-2.07-2.49-2.07a5.75,5.75,0,0,0-1.29.11Z"/></g><polygon class="cls-4" points="17.81 42.02 16.32 56.04 19.94 58.37 19.94 42.02 17.81 42.02"/><polygon class="cls-4" points="19.94 58.37 23.21 56.04 22.07 42.02 19.94 42.02 19.94 58.37"/><polygon class="cls-4" points="15.91 38.08 17.84 42.02 22.05 42.02 23.97 38.08 15.91 38.08"/><polygon class="cls-4" points="15.91 38.08 17.84 42.02 19.94 42.02 19.94 38.08 15.91 38.08"/><polygon class="cls-5" points="17.84 42.02 22.05 42.02 22.05 42.21 17.84 42.02"/><polygon class="cls-6" points="12.23 35.59 19.89 38.11 12.08 45.01 12.23 35.59"/><polygon class="cls-6" points="27.61 35.59 19.95 38.11 27.76 45.01 27.61 35.59"/></svg>