<svg id="Слой_1" data-name="Слой 1" xmlns="http://www.w3.org/2000/svg" viewBox="0 0 251.91 293.45"><defs><style>.cls-1{fill:#fff;}.cls-2{fill:#fecc0c;}</style></defs><title>rombus-right</title><path class="cls-1" d="M7.57,85c0-1.22-.38-.78-.46-1C7.2,86,7.67,84.91,7.57,85Z"/><polygon class="cls-1" points="8.52 105.14 8.35 104.78 8.77 107.76 8.52 105.14"/><path class="cls-1" d="M8.51,124c.71-1.78-.12-6.84.14-10.2l.16-.55-.57-1.52C8.33,115.83,8.71,121.13,8.51,124Z"/><path class="cls-1" d="M7,134.07c.28-.62.24,2.18.09-2.35a.71.71,0,0,1-.07.42C7,132.56,7,133.12,7,134.07Z"/><path class="cls-1" d="M7,132.15C7,130.15,6.77,133.45,7,132.15Z"/><path class="cls-1" d="M7.14,141.33l-.25-2.62c-.16.55-.2,2.88-.32,2C6.71,143.41,6.87,142.85,7.14,141.33Z"/><path class="cls-1" d="M7.66,143.81l-.11-1.36A2.54,2.54,0,0,0,7.66,143.81Z"/><path class="cls-1" d="M7.34,139.58l.22,2.88c.12-.38.35-.42-.08-1.32C7.69,141.37,7.48,140.8,7.34,139.58Z"/><path class="cls-1" d="M7.44,137.95c.16-1.47.25-3.37.5-.74C7.85,132.2,7.34,132.94,7.44,137.95Z"/><path class="cls-1" d="M9.25,125l.21-2-.24-1.7C9.34,122.16,9,125.1,9.25,125Z"/><path class="cls-1" d="M6.77,157.63c.15.16.4-.88.6-1.08l-.17-1.93A12.3,12.3,0,0,1,6.77,157.63Z"/><path class="cls-1" d="M7.37,156.56l.26,2.89C7.66,156.87,7.54,156.39,7.37,156.56Z"/><polygon class="cls-1" points="8.45 144.27 7.91 139.52 8.46 145.19 8.45 144.27"/><polygon class="cls-1" points="6.75 168.68 6.4 167.04 6.93 169.96 6.75 168.68"/><path class="cls-1" d="M6.81,176c-.29-1.21-.49,1.66-.67.38a41.93,41.93,0,0,0,.53,5.22A30,30,0,0,1,6.81,176Z"/><path class="cls-1" d="M7,184.18c-.07-.81-.19-1.65-.33-2.57A23.21,23.21,0,0,0,7,184.18Z"/><path class="cls-1" d="M7.56,164.38a5.77,5.77,0,0,0-.43,2.28l.43-1.14Z"/><path class="cls-1" d="M7.56,165.49h0v0Z"/><path class="cls-1" d="M7.56,164.09v.29A.3.3,0,0,0,7.56,164.09Z"/><path class="cls-1" d="M8.07,151.86c.24,1.7.5,5.24.86,1.81C8.63,152.49,8.43,154.42,8.07,151.86Z"/><path class="cls-1" d="M8.09,162.68l.1-3.07c-.11.06-.28.61-.4-.23Z"/><polygon class="cls-1" points="8.23 164.18 8.09 162.67 8.06 163.81 8.23 164.18"/><path class="cls-1" d="M7.4,178.92a37.78,37.78,0,0,1,.23,4.42c.08-1.76.13-3.58.13-5.3C7.62,177.79,7.38,177,7.4,178.92Z"/><path class="cls-1" d="M7.51,172.38v.29C7.58,172.49,7.59,172.35,7.51,172.38Z"/><path class="cls-1" d="M7.62,199.49l.08-.26-.07-.06Z"/><path class="cls-1" d="M7.84,177.74a11,11,0,0,0-.15-2.86c0,1,.07,2,.07,3.16C7.82,178.14,7.86,178.16,7.84,177.74Z"/><path class="cls-1" d="M7.2,188.68c.09-.69.16-1.47.23-2.29A8.6,8.6,0,0,0,7.2,188.68Z"/><path class="cls-1" d="M7.42,173.13v-.2C7.31,173.36,7.35,173.31,7.42,173.13Z"/><path class="cls-1" d="M7.42,173.13c.06.68.17,1.21.26,1.75,0-.8-.08-1.55-.14-2.2A3.06,3.06,0,0,1,7.42,173.13Z"/><path class="cls-1" d="M10.37,204.37c-.4-.23-.76-3.71-.34-6.7-.3-3-1.6-1-2.33,1.55.17.09.33.09.57,3.13.22-1.06.51-6.74.86-4.18.2,4-.14,3.3-.35,5.25.49-1.66.72,5.12,1.44,4.24L10,204.13C10.08,204.07,10.26,205.35,10.37,204.37Z"/><path class="cls-1" d="M7.74,193.44v-1.25a34.26,34.26,0,0,1-.54,4.32c.19,2.08.34,2.51.47,2.65L7.73,193Z"/><path class="cls-1" d="M7.69,186.58c.43,1,.61,4,1.08,2.14,0-3.67-.36-2.57-.55-4.76.11,5.92-.24-1.7-.48,2.58-.07-1.16-.1-2.21-.11-3.2-.05,1.07-.12,2.09-.2,3.06v-.14h0c.05-.25.09-.34.06,0a1.09,1.09,0,0,1,0,.12.67.67,0,0,1,.16.27c-.09,1.71-.11.27-.16-.27,0,0,0-.07-.06-.07h0l.24,5.93C7.75,190.93,7.74,189.36,7.69,186.58Z"/><path class="cls-1" d="M9.85,156.83c0,.18-.07.18-.1.19C9.81,157.41,9.84,157.55,9.85,156.83Z"/><path class="cls-1" d="M9.59,159.27a7.74,7.74,0,0,1-.19-2.19c.13-1.22.21,0,.35-.06-.11-.84-.31-3-.52-.31l.06.42a22.38,22.38,0,0,1-.74,5A9.87,9.87,0,0,0,9.59,159.27Z"/><path class="cls-1" d="M8.75,173.1,9,178l.37-2.51-.22.13C9.2,172.84,8.92,173.49,8.75,173.1Z"/><polygon class="cls-1" points="7.41 200.04 6.96 199.39 7.6 202.24 7.41 200.04"/><polygon class="cls-1" points="7.46 206.46 7.07 206.22 7.31 207.91 7.46 206.46"/><path class="cls-1" d="M246.63,151.49l-.11-1.45A12.16,12.16,0,0,0,246.63,151.49Z"/><path class="cls-1" d="M246.6,162l.19.26C246.69,161.81,246.61,161.61,246.6,162Z"/><path class="cls-1" d="M134.22,291.13c2-.74,4.34-1.42,3.9-1.68l-.78,0A23.34,23.34,0,0,1,134.22,291.13Z"/><path class="cls-1" d="M226.36,234.94l-.6.19-1,1.07Z"/><path class="cls-1" d="M226.75,232.64l2.55-1.15C228.71,231.72,227.89,232.09,226.75,232.64Z"/><path class="cls-1" d="M246.17,94.19l-.44-1.69C245.73,95.15,246,94,246.17,94.19Z"/><path class="cls-1" d="M52.26,249.12c1.49,1.06,2.71,1.85,3.81,2.5C54.29,250.31,52.94,249.1,52.26,249.12Z"/><path class="cls-1" d="M251.23,155.67c-.08-.89-.17-1.27-.26-1.24C251,155.34,251.12,155.86,251.23,155.67Z"/><path class="cls-1" d="M60.63,254.26l-.78-.57c-1.19-.6-2.38-1.22-3.78-2.06A19.06,19.06,0,0,0,60.63,254.26Z"/><path class="cls-1" d="M79,47l-.43.19C78.52,47.3,78.7,47.2,79,47Z"/><path class="cls-1" d="M24.3,73.54c.5-.32,1.35-.81,2.14-1.27A24.55,24.55,0,0,0,24.3,73.54Z"/><path class="cls-1" d="M17.54,229.49C16.35,228.83,17.33,229.42,17.54,229.49Z"/><path class="cls-1" d="M12.67,224.69c.27.1.5.16.58.09A1.06,1.06,0,0,1,12.67,224.69Z"/><path class="cls-1" d="M73.71,258.69l.1.06C73.5,258.49,73.56,258.49,73.71,258.69Z"/><path class="cls-1" d="M15.87,228.29l1.44,1C17.08,229.1,16.65,228.8,15.87,228.29Z"/><path class="cls-1" d="M16,228.61,15,228C14.81,227.95,14.92,228.07,16,228.61Z"/><path class="cls-1" d="M19.2,230.41c-.68-.38-1.3-.76-1.88-1.14.22.16.3.24.23.21Z"/><path class="cls-1" d="M173.57,42l-.23-.18C172.06,41.25,172.6,41.49,173.57,42Z"/><path class="cls-1" d="M162.63,269.49l-.12.1.18-.09Z"/><path class="cls-1" d="M166.7,266.8a12.79,12.79,0,0,1-4,2.73l2,.28Z"/><path class="cls-2" d="M246.5,126.4l-.39,3.43c-.64-4.14-.42-7.14-1-3.92,1.36.49.14,13.34,1.5,13.81l-.29,2.26c0-.65-.07-.75,0-1.39-.65,4.4,1,3.27.79,8.94-.1,2-.3,3.35-.46,2l.34,4.4c0,1.28-.26,1-.24-.31l.11,6.71h0c.21,1,.54,3.13.68,4.19-.19,1.71-.14-.86-.31-.42l.33,3.72c-.35,1.51-.69-1.57-.64-4.13-1.36,3.47.34,3.08-.45,10.58l-.17-3.51c-.77,2.26-.49,5-1,9,.25-.94,1.21-7.94,1.55-3.91a21.58,21.58,0,0,0,.12,4.81c-.48,0-.36,2.14-.34,4.8l-.64-.18c.18,2.87.51,2.65.8,4.34-.06,3.2-.56,3.87-1,4.62-.1,5.13.79-3.54.91,2.53a84.94,84.94,0,0,0,.4,12.37c-.22,3-.39-.52-.57.55l.51,2.65c0,.65-.17.44-.25.33.2,2.23.64.18.81,3.69a2.4,2.4,0,0,1,.16,1.31,10.36,10.36,0,0,1-.22,1.53l-1.12.41a4.35,4.35,0,0,0-.78.35l-.91.45a17.65,17.65,0,0,0-3.33,2.13c-1,.38.25-.6-.16-.65-4.9,3.43-4.23,2.88-8.11,5.94l-3.78,1.66c2.89-1.11-.21,1.33-2.94,3.45,1.06-.34,2-.63,2.55-.86l-4.56,3c-.62.24-.26-.23.38-.91l-.79.63c-1.81.77-1.12,0-.08-1.06l1.9-.64c1-1,1.85-2,1.42-2.2a13.85,13.85,0,0,1-1.47,1c.25-.27.4-.46.23-.44a6.51,6.51,0,0,0-1.31,1H223.2l-.12.4-6.42,3.19c-4.07,3.18-7.4,6.32-14.29,10.64,1.48-1.46,0-1-.27-1.55,2.25-.54,5.31-3.39,9-5.38-1.94,1-1.67.54-1.23.17l-6.2,4.27c-.11-.52-1.57.47-3.37,1.27,1.78.13-4.51,3.38-7,5.17-.33-.2.13-.86,3.4-2.65-3.94,1.4-4,3.68-7.83,5.14a4.91,4.91,0,0,0,1.46-1c-1.69,1.32-6.31,3.71-5.4,2.85l.78-.46c-5.29,2.92-15.93,9.19-16.29,10.38a3.48,3.48,0,0,1,.4-1.62l-7.9,7.87c.46-1.11-3.57-.79.56-3.65a35.56,35.56,0,0,0-5.4,3.15c.9-.4,2.65-.31,1.52.42a67.43,67.43,0,0,0-6.71,2.57c1.35-.6.51,1.21-1.52,2.34.23-.33-.73-.88-.06-1.41l-4.45,3.87c1.15-.9-.26-1-1.54-.58.63-.11-4.34,2.48-5.62,3.35l2.25-1c-5.72,3.11-4.84,4.62-10.39,7.76.3-.31.49-.83.29-1.11s-.65-.41-1.39-.07h0a2.83,2.83,0,0,1-1.09.16,6.94,6.94,0,0,1-1.26-.18l-1.59-.34A36.55,36.55,0,0,1,118,286l-.79-.83-4-1.87c2.81.62,10.37,2.88,14.36,4.37-2-1.45-.4-.68-3.58-2.48-1-.91,2,.59,2.9,1.12l-7.28-4.43c0,.77-6-2.67-6-2l8.36,4c0,.77-5.59-1-10.76-4.15-1.2-1,1.59-.46,1.6-.72a34.32,34.32,0,0,1-5.58-2.9l2.4,1c-2.78-1.9-5.2-2-8.37-4.55-1.19-.73-3.17-2.83-3.58-2.61,1.59,1.8.78,4.08-.82,3.82-.4-.29-6-4.3-7.16-5.42-1.69-1.67,3.7.48,2.27-.94a5.67,5.67,0,0,1-1.87-.52c-1.19-.87.81-.19-2-1.71-.8.32-5.58-3.29-1.59-.25-2.79-1.39-2.79-1.78-6-3.58.79,1-3.59-.34-6.39-1.73.25-.06-.25-.6-.49-.86-5.49-3.24-8.31-5.22-13.46-8.2-.39-.42-2.78-2-1.57-1.67a18.92,18.92,0,0,1-3.2-1.42c-2.78-2.29,3.59,2,1.6,0-.4.23-4.38-1.9-6.77-3,.39.93,5.17,3.12,7.56,4.22-.41.74-4.8-.78-10.38-3.55-4.38-2.29-1.58-1.54-2.39-1.87-8-4.77-7.59-2.68-14-7.06-2.38-2,.42-1,0-1.67,3.59,1.84,5.18,3.39,7.56,4.73l-2.78-1.9a29,29,0,0,1,4.78,2.58c-2-1.7-13.54-7.92-19.52-11.89-1.19-.48-3.19-1.42-2.4-.71l2,1.07c1.59,1.42-4-1.61-1.61,0-1.39-.63-2.89-1.26-4.48-2-.8-.39-1.62-.81-2.47-1.28l-.64-.36-.72-.43c-.61-.36-1.22-.74-1.83-1.13q-.11-.26-.19-.49l.28-.61a1.43,1.43,0,0,0-.11.51,20,20,0,0,0,1.79,1.2l.56.33.44.25a7.47,7.47,0,0,0,.78.37,8.32,8.32,0,0,1-1.4-.79c-.67-.43-1.39-.93-2.09-1.41l.11-1.71a13.59,13.59,0,0,1,.05-1.5,6,6,0,0,0-.3-2.16l-.21,1.5-.11.75-.05.37-.05.5a8.61,8.61,0,0,0-.13-1.3l-.15-1.24-.29-2.62a37.65,37.65,0,0,1-.19-5.59c-.61,1.73.07.87-.64,3.57.88-2.34,0,9.7.89,6a7,7,0,0,0-.2.79c-.05.28-.1.79-.14,1.19-.08.8-.13,1.6-.17,2.41l3.28,2.07A24.78,24.78,0,0,1,13,227.36c0-.23-.92-1,1.79.7a5.33,5.33,0,0,1,.69.2l.18.12-.14-.11h-.05a7.28,7.28,0,0,1-1.25-1.08c1.6.39,6,2.93,7.58,3.58,1.59,1-.8-.19,0,.51l2.39,1c0,.52,4,3.16,0,1.16l3.46,2a44.52,44.52,0,0,0,6.5,3.94c1.59,1,4.38,2,2.78,1.44l5.58,2.9v.13c5.34,3.15,11.42,5.74,17.15,10a74.38,74.38,0,0,1,6.9,3.64l.4.68c2.39,1.22,6.77,4.36,8,4.58,2,2.35,11.15,6.7,15.13,9.22l.41-.35c2.79,1.65,5.56,3.08,9.15,4.91V276c3.19,1.42,7.57,4.74,12.35,7.44a8.82,8.82,0,0,1-2.39-1.36,47.19,47.19,0,0,0,8.71,5.15c1.52.75,3,1.49,4.45,2.26.71.39,1.41.78,2.07,1.19l1,.63,1.1.76c1,.49,1.82.93,2.57,1.36.83-.47,1.57-.85,2.34-1.23l-.49.31.84-.48.35-.17.24-.11.47-.2,1-.43c-.59.22-1.15.44-1.62.66,1-.58,2.46-1.49,3.88-2.44l.87,0,.33-.21c1.53-.68,1-.87.1-.74.7-.5,1.33-1,1.8-1.38,1.56,0,3.73-2.46,5.75-2.66.79-.92,7.25-4.54,7.61-5.73.11.07.57-.14-.23.33a29.71,29.71,0,0,0,4.73-2.78l1,.13,3.17-2.78c2.36-.93,3.37-1.27,1.45.39,4.86-3.64,4.1-2.68,8.18-5.87v.47c1.58-.93,3.85-2.85,5-3.12,3.93-1.4,17.61-10,27.07-14.7-2.35,0,4.5-2,4.41-3,.67-.07,2-.67.66.39,4.51-2.92,7.2-3.65,10-6.17.67-.07-.79.92-.24.79a7.53,7.53,0,0,1,1.92-1.2c.56-.13-.57.59-1.24,1.12,4.73-2.78,4.78-3.8,4.73-4.69a13.81,13.81,0,0,0,5.25-3.26c1-.26,2.5-.83-.4,1,1.68-.93,10.33-5.52,10.18-6.18a14.32,14.32,0,0,0,2.74-1.62l3.91-2.19,1.61-.92,2.66-1.56-1.42.7a6.84,6.84,0,0,1,1.78-1.49c0-.78,0-1.61.07-2.62,0-.85.09-1.76.06-2.87l.08.1c.56-7.81-.27-3.37.37-11.07l-.48.42c-1-.72.61-6.82.21-11.3l-.27,1.61c-.35-2.44,1.4-6.82,1.53-9.28.09-.53.14.84.21,1.59.61-6.42-.63-.83-.77-5.62.34-.88.86,1.14.92-2.08.27-1.6-1.1-9.34-.45-13.73-.26,1-.52,1.93-.72-.29-.09-3.41,1-9.21.16-12.28.07-.43.14-.6.2-.61-.21-2.6-.35-8.46-.8-10,1.66-2.41-.81-16.19.72-16.13l-.08-8,.16.21a33.45,33.45,0,0,0-.63-8.73c.1-1.18.25-.32.33-.22a63,63,0,0,0-.52-14.49l.5-.65a33.37,33.37,0,0,1,.09-4.53l.18-3.69.07-2.1V82.9l-1.92-1.11-1.62-.91c-.85-.46-1.7-.9-2.54-1.3a1.56,1.56,0,0,1,.81.21c-7.44-3.62-16.42-11.07-20-11l-4.94-2.34c6,3.64-1.3.15,1.06,1.86-2.45-1.29-5.93-4.05-2.94-2.43l.42.34c1.55-.19-7.42-4.67-6.93-5.13-12-6.89-23.47-14.1-34.7-20.63l.93,1.38-3.9-2.3c-.94-.74-1.1-1.29,1.69.35a13.74,13.74,0,0,0-5-2.32c-5.33-3.42,2.57.5.9-.49L170,35.75l.47.37a25.14,25.14,0,0,1-5.67-2.6c-2.06-1.36-.87-1-1.69-1.53a6.5,6.5,0,0,0-1.27-.76L157,28.32,158.69,30c-2.33-1-4.63-2.71-2.68-.83-2.84-2.81-18.26-11-20.16-12.42-1-.41-1.88-.85-2.82-1.32l-.7-.36-.88-.47-1.95-1.07-2.75,1.6-2.28,1.29c1-.43,1.88-.19-1.4,1.61.51-1.84-6.22,2.92-9.31,3.59,2.66-.8-9.12,5.45-5,4.12-2.75,1.47-.41-.34-2.62.57C100,30.43,91.81,34.16,84,38.89c0,.22,1.43-.31-.14.9l-4.64,1.7c-1.53,1-.94,1.71-4.11,2.84.48-.11,1.19-.26.17.39-16,8.24-31.45,19-48.06,26.7,2.31-.94.9-.09-.73.87,1.1-.54.19.39.52.48L20,76c-.88,1.27-7.07,4.13-7.45,5.08l2-1.31C12.14,82,19.28,79,19.35,80c2.7-2.54,8.86-3.66,13.37-7.67,1.23-.48-.81.82-.09.67a21,21,0,0,1,5.61-3.6l-.28.28c8.11-4.8,11.81-6.47,21.11-11.52h-.92a29.07,29.07,0,0,1,3.47-1.62c1.9-1.93-5.55,3.16-3.89,1.28,3.09-.67,13.9-8,16.21-8.08,3-1.74-1.16,0,1.87-1.71l1-.21.57-.77c2-1.09,3.21-1.35,3.41-1.18-.5.25-1.33.85-1.84,1.17,2.75-1.18,7.2-4.3,8.15-4.71l-3,1.52c8.13-5,18.42-10.51,26.11-15.64l-.72.16c5.89-3.88,5-2.61,11.61-6.64l-.22.19a39.29,39.29,0,0,1,4.81-3.13c-1.56,1.2,3.44-1.4,1.36.13.84-.55,1.71-1.12,1.8-1.22l.63-.5a2.59,2.59,0,0,0,.91.18h.26l.55.16c.44.14,1,.35,1.91.68l.82.9a22.11,22.11,0,0,1,5.26,2.34c-2.9-1.31,1.85,1.72-1.43.31,6.61,4.75,10.83,5.31,13.46,8.2,3.74,1-5.79-4-3.87-3.15-1.34-1.16,3,.87,5.2,2.23s3.16,3.34,8.81,6.58c-.56-.33-.64-.28-1.19-.61,2,1.45,4.31,2.08,6.69,3.94,1.76.3,3.34,2,4.16,1.53l-5.27-2.83c3,1.51,6.25,2.3,10.86,5.48a23.69,23.69,0,0,1-3-1.2c1.3,1,2.8,1.44,4.14,2.49-.81.45-6.37-3.48-9.82-4.77,1.35,1.17,6.23,2.94,4.22,2.77,2.82.37,5.49,3.33,9.73,4.81l-.49.27A28.69,28.69,0,0,1,184.5,49l-2.32-.63c3.35,1.33,5.73,3.84,8.84,5.31-6.22-3.57-1.11-1.3-3.56-3.12,8,3.87,3.78,3.62,12.48,8.37-1.19-.61-4.22-2.76-2.29-1.91a46.43,46.43,0,0,1,4.53,3.22c5.73,3.2-.63-.93,1.94.22,1.65,1.62,2.91,1.41,5.49,2.69l-.22.43c6.32,4,2.22.12,7.86,3.81l-2.8-.84,3.13,1.61-.9.11a45.69,45.69,0,0,1,7.65,4.25c-.58-.73.86-.51,3.74,1.13,1.81,1.38-1.32-.24,2.78,2.05A7.55,7.55,0,0,1,227,73.76c-.26,0-1.06-.26-1.32-.23a62,62,0,0,0,6.73,4,16.93,16.93,0,0,1-1.54-1l6.23,2.82c.84.69,0,.39-.77.1,1.22.64,2.16.93,3.93,1.91-.65.08-.74.49-3.32-.78l5.83,2.87c.29.36,2.65,2.07,1.85,1.77,1.16.74.9.56,1.22.67l.08.19v.43l.19,2.6a42.12,42.12,0,0,1,.06,5.3,8.65,8.65,0,0,1,.2,1.76c-.09,4.48-.57,8.45,0,13.76l-.7,3c.16,4.16.89-4.08,1.15,2.85.22,4.9-.6,1.83-.8,3.55a40.41,40.41,0,0,1,.5,11.18C246.45,129,246.55,127.79,246.5,126.4Zm.31,51.28c-.1-1-.41-3-.13-3.7.56,1.13.32,2,.13,3.69Zm-27.46,60.24a10.22,10.22,0,0,1,2.8-1.5,21.55,21.55,0,0,1-2.8,1.49Zm-188.7-1.31h.1c1.83,1.29,1.19.88-.1,0Zm-3.88-2.48c-.43-.17-.44-.1-.3.06a10.66,10.66,0,0,1,2.24,1.18,5.59,5.59,0,0,0-1.94-1.25ZM162.61,31.89l.71.56C161.5,31.55,162.06,31.73,162.61,31.89Z"/><path class="cls-1" d="M226.68,232.92a.66.66,0,0,1,.5,0C227.47,232.67,227.44,232.59,226.68,232.92Z"/><path class="cls-1" d="M246.25,94.49v-.16a.36.36,0,0,0-.09-.16Z"/><path class="cls-1" d="M90.56,266.22A10.49,10.49,0,0,1,92,267.35C92.12,267.27,91.79,267,90.56,266.22Z"/><path class="cls-1" d="M7.06,218.19l.06,1.47.06,2.48v-2.58l.12-1.06C7.23,218.54,7.07,219.11,7.06,218.19Z"/><path class="cls-1" d="M10,192.6c-.06-.43,0-.91-.07-1.34l-.22.12C9.77,193.21,9.95,194.49,10,192.6Z"/><path class="cls-1" d="M8.66,215.49c.41-.23.27-2.08.19-4.15v.37C8.29,211.07,8.47,213.27,8.66,215.49Z"/><path class="cls-1" d="M8.84,210.83v-1.91C8.6,208.68,8.78,209.7,8.84,210.83Z"/><path class="cls-1" d="M21.58,231.43c-.8-.58-.79.14-1.19-.28C19.19,231.05,26.36,233.88,21.58,231.43Z"/><polygon class="cls-1" points="10 213.78 9.5 214.52 9.9 215.68 10 213.78"/><path class="cls-1" d="M16.84,226.36,14,224.59c0,.1-.39-.07-.85-.29A27.62,27.62,0,0,0,16.84,226.36Z"/><path class="cls-1" d="M13.2,224.29c-.46-.27-.9-.53-1.31-.75s-.83-.44-1.14-.57l1.17.65C12.35,223.86,12.81,224.11,13.2,224.29Z"/><polygon class="cls-1" points="10.15 218.29 10.04 219.27 10.01 221.59 10.15 218.29"/><path class="cls-1" d="M47.51,244.18l3.19,1.68c.4,0-.39-.55-1.59-1.16C48.3,244.37,47.11,243.76,47.51,244.18Z"/><path class="cls-1" d="M38.76,237.54a5.46,5.46,0,0,1,1.19,1.12l.41-.48Z"/><path class="cls-1" d="M47.93,242.67c.4,0,4.77,2.18.8-.06C48.33,242.57,45.13,240.89,47.93,242.67Z"/><polygon class="cls-1" points="94.53 270.48 93.73 270.02 93.33 270.97 94.53 270.48"/><path class="cls-1" d="M134.46,285c-3.82,1.92-.56,1-4.06,2.72-.75.71,2.85-1.36,2.07-.67C134.58,285.49,135.82,285,134.46,285Z"/><path class="cls-1" d="M132.47,287c-.34.24-.69.5-1.06.79A13,13,0,0,0,132.47,287Z"/><polygon class="cls-1" points="15.32 78.09 12.84 79.28 14.55 78.69 15.32 78.09"/><path class="cls-1" d="M11.14,81.38l-.88-.24L9.12,82.49A9.81,9.81,0,0,1,11.14,81.38Z"/><path class="cls-1" d="M245.5,185.3l.16.21a8,8,0,0,0,.21-2.35Z"/><polygon class="cls-1" points="245.99 148.08 245.98 148.72 246.56 147.52 245.99 148.08"/><path class="cls-1" d="M245.24,116.85c0,1.27.11,2.77.08,4C245.22,118.12,246,116.49,245.24,116.85Z"/><polygon class="cls-1" points="0 68.99 119.5 0 239 68.99 239 206.98 119.5 275.97 0 206.98 0 68.99"/></svg>