<svg id="Слой_1" data-name="Слой 1" xmlns="http://www.w3.org/2000/svg" viewBox="0 0 252.89 293.04"><defs><style>.cls-1{fill:#fff;}.cls-2{fill:#fecc0c;}</style></defs><title>rombus-left</title><path class="cls-1" d="M240.43,85c0-1.22-.38-.78-.46-1C240.06,86,240.53,84.91,240.43,85Z" transform="translate(0.03)"/><polygon class="cls-1" points="241.41 105.14 241.23 104.78 241.65 107.76 241.41 105.14"/><path class="cls-1" d="M241.37,124c.71-1.78-.12-6.84.14-10.2l.16-.55-.57-1.52C241.19,115.83,241.57,121.13,241.37,124Z" transform="translate(0.03)"/><path class="cls-1" d="M239.86,134.07c.28-.62.24,2.18.09-2.35a.71.71,0,0,1-.07.42C239.86,132.56,239.86,133.12,239.86,134.07Z" transform="translate(0.03)"/><path class="cls-1" d="M239.86,132.15C239.86,130.15,239.63,133.45,239.86,132.15Z" transform="translate(0.03)"/><path class="cls-1" d="M240,141.33l-.25-2.62c-.16.55-.2,2.88-.32,2C239.57,143.41,239.73,142.85,240,141.33Z" transform="translate(0.03)"/><path class="cls-1" d="M240.52,143.81l-.1-1.36A2.54,2.54,0,0,0,240.52,143.81Z" transform="translate(0.03)"/><path class="cls-1" d="M240.19,139.58l.22,2.88c.12-.38.35-.42-.08-1.32C240.55,141.37,240.34,140.8,240.19,139.58Z" transform="translate(0.03)"/><path class="cls-1" d="M240.3,137.95c.16-1.47.25-3.37.5-.74C240.71,132.2,240.2,132.94,240.3,137.95Z" transform="translate(0.03)"/><path class="cls-1" d="M242.11,125l.21-2-.24-1.7C242.2,122.16,241.86,125.1,242.11,125Z" transform="translate(0.03)"/><path class="cls-1" d="M239.63,157.63c.15.16.4-.88.6-1.08l-.17-1.93A12.3,12.3,0,0,1,239.63,157.63Z" transform="translate(0.03)"/><path class="cls-1" d="M240.23,156.56l.26,2.89C240.52,156.87,240.4,156.39,240.23,156.56Z" transform="translate(0.03)"/><polygon class="cls-1" points="241.34 144.27 240.79 139.52 241.35 145.19 241.34 144.27"/><polygon class="cls-1" points="239.64 168.68 239.29 167.04 239.82 169.96 239.64 168.68"/><path class="cls-1" d="M239.67,176c-.29-1.21-.49,1.66-.67.38a41.93,41.93,0,0,0,.53,5.22A30,30,0,0,1,239.67,176Z" transform="translate(0.03)"/><path class="cls-1" d="M239.86,184.18c-.07-.81-.19-1.65-.33-2.57A23.22,23.22,0,0,0,239.86,184.18Z" transform="translate(0.03)"/><path class="cls-1" d="M240.42,164.38a5.77,5.77,0,0,0-.43,2.28l.43-1.14Z" transform="translate(0.03)"/><path class="cls-1" d="M240.42,165.49h0v0Z" transform="translate(0.03)"/><path class="cls-1" d="M240.42,164.09v.29A.3.3,0,0,0,240.42,164.09Z" transform="translate(0.03)"/><path class="cls-1" d="M240.93,151.86c.24,1.7.5,5.24.86,1.81C241.49,152.49,241.29,154.42,240.93,151.86Z" transform="translate(0.03)"/><path class="cls-1" d="M240.95,162.68l.1-3.07c-.11.06-.28.61-.4-.23Z" transform="translate(0.03)"/><polygon class="cls-1" points="241.12 164.18 240.98 162.67 240.94 163.81 241.12 164.18"/><path class="cls-1" d="M240.26,178.92a37.79,37.79,0,0,1,.23,4.42c.08-1.76.13-3.58.13-5.3C240.48,177.79,240.24,177,240.26,178.92Z" transform="translate(0.03)"/><path class="cls-1" d="M240.37,172.38v.29C240.44,172.49,240.45,172.35,240.37,172.38Z" transform="translate(0.03)"/><path class="cls-1" d="M240.48,199.49l.08-.26-.07-.06Z" transform="translate(0.03)"/><path class="cls-1" d="M240.7,177.74a11,11,0,0,0-.15-2.86c0,1,.07,2,.07,3.16C240.68,178.14,240.72,178.16,240.7,177.74Z" transform="translate(0.03)"/><path class="cls-1" d="M240.06,188.68c.09-.69.17-1.47.23-2.29A8.6,8.6,0,0,0,240.06,188.68Z" transform="translate(0.03)"/><path class="cls-1" d="M240.28,173.13v-.2C240.17,173.36,240.22,173.31,240.28,173.13Z" transform="translate(0.03)"/><path class="cls-1" d="M240.28,173.13c.06.68.17,1.21.26,1.75,0-.8-.08-1.55-.14-2.2A3.06,3.06,0,0,1,240.28,173.13Z" transform="translate(0.03)"/><path class="cls-1" d="M243.23,204.37c-.4-.23-.76-3.71-.34-6.7-.3-3-1.6-1-2.33,1.55.17.09.33.09.57,3.13.22-1.06.51-6.74.86-4.18.2,4-.14,3.3-.35,5.25.49-1.66.72,5.12,1.44,4.24l-.26-3.53C242.94,204.07,243.12,205.35,243.23,204.37Z" transform="translate(0.03)"/><path class="cls-1" d="M240.6,193.44v-1.25a34.25,34.25,0,0,1-.54,4.32c.19,2.08.34,2.51.47,2.65l.06-6.15Z" transform="translate(0.03)"/><path class="cls-1" d="M240.55,186.58c.43,1,.61,4,1.08,2.14,0-3.67-.36-2.57-.55-4.76.11,5.92-.24-1.7-.48,2.58-.07-1.16-.1-2.21-.11-3.2,0,1.07-.12,2.09-.2,3.06v-.14h0c0-.25.09-.34.06,0a1.09,1.09,0,0,1,0,.12.67.67,0,0,1,.16.27c-.09,1.71-.11.27-.16-.27,0,0,0-.07-.06-.07h0l.24,5.93C240.61,190.93,240.6,189.36,240.55,186.58Z" transform="translate(0.03)"/><path class="cls-1" d="M242.71,156.83c0,.18-.07.18-.1.19C242.67,157.41,242.7,157.55,242.71,156.83Z" transform="translate(0.03)"/><path class="cls-1" d="M242.45,159.27a7.74,7.74,0,0,1-.19-2.19c.13-1.22.21,0,.35-.06-.11-.84-.31-3-.52-.31l.06.42a22.38,22.38,0,0,1-.74,5A9.87,9.87,0,0,0,242.45,159.27Z" transform="translate(0.03)"/><path class="cls-1" d="M241.61,173.1l.21,4.94.37-2.51-.22.13C242.06,172.84,241.78,173.49,241.61,173.1Z" transform="translate(0.03)"/><polygon class="cls-1" points="240.3 200.04 239.84 199.39 240.49 202.24 240.3 200.04"/><polygon class="cls-1" points="240.35 206.46 239.96 206.22 240.2 207.91 240.35 206.46"/><path class="cls-1" d="M1.49,151.49,1.38,150C1.41,150.77,1.45,151.22,1.49,151.49Z" transform="translate(0.03)"/><path class="cls-1" d="M1.46,162l.19.26C1.55,161.81,1.47,161.61,1.46,162Z" transform="translate(0.03)"/><path class="cls-1" d="M121.13,286.81c-1.64-1.38-3.4-3-3.4-2.54l.35.7A23.34,23.34,0,0,1,121.13,286.81Z" transform="translate(0.03)"/><path class="cls-1" d="M26.41,235.11l.47.42,1.44.35Z" transform="translate(0.03)"/><path class="cls-1" d="M24.22,235.92l-2.27-1.63C22.44,234.69,23.17,235.22,24.22,235.92Z" transform="translate(0.03)"/><path class="cls-1" d="M1,94.19.58,92.5C.59,95.15.81,94,1,94.19Z" transform="translate(0.03)"/><path class="cls-1" d="M198.23,245c-1.66.76-3,1.43-4.07,2C196.18,246.17,197.86,245.61,198.23,245Z" transform="translate(0.03)"/><path class="cls-1" d="M6.09,155.67c-.08-.89-.17-1.27-.26-1.24C5.86,155.34,6,155.86,6.09,155.67Z" transform="translate(0.03)"/><path class="cls-1" d="M189.6,249.69l.89-.39c1.12-.73,2.25-1.45,3.67-2.24A19.06,19.06,0,0,0,189.6,249.69Z" transform="translate(0.03)"/><path class="cls-1" d="M176.37,42.75l.38.28C176.86,43,176.64,42.9,176.37,42.75Z" transform="translate(0.03)"/><path class="cls-1" d="M226.65,76.84c-.53-.27-1.37-.76-2.17-1.21A24.55,24.55,0,0,0,226.65,76.84Z" transform="translate(0.03)"/><path class="cls-1" d="M232.59,224.77C233.75,224.07,232.75,224.62,232.59,224.77Z" transform="translate(0.03)"/><path class="cls-1" d="M239.18,222.94c-.23.19-.39.35-.37.45A1.06,1.06,0,0,1,239.18,222.94Z" transform="translate(0.03)"/><path class="cls-1" d="M179.21,258.8l-.1.06C179.5,258.73,179.44,258.75,179.21,258.8Z" transform="translate(0.03)"/><path class="cls-1" d="M234.46,223.91c-.47.21-1,.46-1.57.76C233.15,224.56,233.63,224.33,234.46,223.91Z" transform="translate(0.03)"/><path class="cls-1" d="M234.12,223.87l1-.56C235.29,223.17,235.13,223.2,234.12,223.87Z" transform="translate(0.03)"/><path class="cls-1" d="M231,225.73c.67-.39,1.31-.74,1.93-1.06-.25.11-.36.14-.3.09Z" transform="translate(0.03)"/><path class="cls-1" d="M78,39.69l.27-.11C79.35,38.74,78.86,39.06,78,39.69Z" transform="translate(0.03)"/><path class="cls-1" d="M88.22,273l.14.06-.17-.11Z" transform="translate(0.03)"/><path class="cls-1" d="M83.86,270.85A12.79,12.79,0,0,1,88.23,273l-.77-1.89Z" transform="translate(0.03)"/><path class="cls-2" d="M1.36,126.4,1,129.83c-.64-4.14-.42-7.14-1-3.92,1.36.49.14,13.34,1.5,13.81L1.18,142c0-.65-.07-.75-.05-1.39-.65,4.4,1,3.27.79,8.94-.1,2-.3,3.35-.46,2l.34,4.4c0,1.28-.26,1-.24-.31l.11,6.71h0c.21,1,.54,3.13.68,4.19-.19,1.71-.14-.86-.31-.42l.33,3.72c-.35,1.51-.69-1.57-.64-4.13-1.36,3.47.34,3.08-.45,10.58l-.17-3.51c-.77,2.26-.49,5-1,9,.25-.94,1.21-7.94,1.55-3.91a21.58,21.58,0,0,0,.12,4.81c-.48,0-.36,2.14-.34,4.8l-.64-.18c.18,2.87.51,2.65.8,4.34-.06,3.2-.56,3.87-1,4.62-.1,5.13.79-3.54.92,2.53a84.94,84.94,0,0,0,.4,12.37c-.22,3-.39-.52-.57.55l.51,2.65c0,.65-.17.44-.25.33.2,2.23.64.18.81,3.69a2.4,2.4,0,0,1,.16,1.31c0,.74-.12,1.92-.22,3.24l2.13,1.47,1,.65.85.56a17.65,17.65,0,0,0,3.51,1.81c.84.69-.64.08-.48.46,5.42,2.52,4.61,2.22,9.2,4.06l3.4,2.45c-2.41-2,1.26-.48,4.46.83-.82-.74-1.53-1.38-2-1.78l4.91,2.44c.52.42-.07.34-1,.12l.94.37c1.57,1.18.51,1-.88.6l-1.54-1.46c-1.36-.34-2.67-.6-2.62-.13a13.84,13.84,0,0,1,1.64.75c-.36-.09-.6-.12-.49,0a6.51,6.51,0,0,0,1.55.62l.72,1.24.4-.09,6,4c4.79,1.94,9.17,3.25,16.35,7-2-.55-.8.52-1.21,1-1.59-1.68-5.59-2.9-9.17-5.12,1.87,1.16,1.3,1.17.77,1L47.6,249c-.4.35,1.19,1.13,2.78,2.29-.78-1.61,5.18,2.22,8,3.48,0,.39-.81.32-4-1.62,3.18,2.71,5.19,1.64,8.36,4.21a4.91,4.91,0,0,0-1.59-.77c2,.8,6.37,3.61,5.17,3.25l-.79-.45c5.17,3.12,15.92,9.2,17.13,8.92a3.48,3.48,0,0,1-1.6.46l10.77,2.91c-1.19.16,1.1,3.49-3.45,1.34a35.55,35.55,0,0,0,5.43,3.1c-.8-.58-1.59-2.14-.4-1.52A67.45,67.45,0,0,0,99,279.17c-1.2-.87.79-1,2.79.15-.4,0-.4,1.08-1.19.75l5.57,1.92c-1.35-.55-.7.7.26,1.62-.41-.49,4.32,2.52,5.71,3.19l-2-1.45c5.59,3.42,6.33,1.83,12,5.17a1.36,1.36,0,0,0-1.18.26c-.18.26.31,1,2.42,2.26h0c.48-.44,1.21-1.15,2-1.93a14,14,0,0,0,1-1.13c.33-.39.69-.79,1.09-1.21a36.55,36.55,0,0,1,6-5.25l1.12-.26,3.62-2.52a149.44,149.44,0,0,1-11,10.26c2.25-1,.78,0,3.94-1.86,1.27-.38-1.49,1.4-2.42,2l7.48-4.09c-.66-.39,5.31-3.84,4.75-4.17l-7.67,5.23c-.66-.39,3.68-4.33,9-7.25,1.46-.54-.4,1.61-.18,1.74a34.32,34.32,0,0,1,5.31-3.38l-2,1.59c3-1.46,4.31-3.51,8.13-5,1.23-.66,4-1.33,4-1.8-2.35.47-3.92-1.36-2.9-2.62.45-.2,6.71-3,8.28-3.49,2.29-.63-2.27,3-.32,2.43,0-.2,1-1,1.39-1.36,1.35-.6-.24.8,2.47-.87.12-.86,5.63-3.19,1-1.25,2.6-1.72,2.93-1.53,6.09-3.39-1.23.2,2.09-2.94,4.7-4.67-.07.24.65.09,1,0,5.56-3.14,8.68-4.58,13.83-7.55.56-.13,3.14-1.39,2.23-.53a18.92,18.92,0,0,1,2.83-2.06c3.37-1.27-3.5,2.13-.8,1.38,0-.46,3.84-2.85,6-4.37-1-.13-5.29,2.92-7.43,4.44-.43-.72,3.07-3.77,8.26-7.22,4.18-2.65,2.13-.6,2.81-1.13,8.11-4.51,6.11-5.23,13.09-8.56,2.92-1.06.65.86,1.44.85-3.38,2.19-5.52,2.79-7.88,4.18l3-1.46a29,29,0,0,1-4.63,2.85c2.46-.86,13.63-7.76,20-11,1-.79,2.82-2,1.81-1.72l-1.92,1.2c-2,.67,3.39-2.65.81-1.39,1.24-.89,2.54-1.87,4-2.86q1.1-.75,2.34-1.5l.63-.37.58-.33c.27-.15.56-.29.88-.44l.57.06.28-.13a.62.62,0,0,0-.11.22,9.35,9.35,0,0,0-1.23.55l-.34.19-.43.26a7.46,7.46,0,0,0-.71.49,7.64,7.64,0,0,1,1.31-.77l1.49-.66c0-.33.08-.69.11-1s0-.72,0-1.18a6,6,0,0,0-.3-2.16l-.21,1.5-.11.75,0,.37,0,.25c0-.18-.08-.68-.13-1l-.15-1.24-.29-2.62a37.64,37.64,0,0,1-.19-5.59c-.61,1.73.07.87-.64,3.57.88-2.34,0,9.7.89,6-.08.26-.15.53-.2.76l-.14.31a2.89,2.89,0,0,0-.17.5l-.43.17-.21.08a2.07,2.07,0,0,0-.34.15,24.78,24.78,0,0,1-2.76,1.15c.2.12,1.3-.31-1.5,1.2a5.33,5.33,0,0,1-.52.5l-.19.09.16-.07c-.1.1-.11.11.06,0a7.28,7.28,0,0,1,1.56-.54c-1.14,1.19-5.53,3.71-6.89,4.78-1.68.86.57-.6-.43-.27l-2,1.59c-.44-.26-4.72,1.86-1-.59l-3.48,2a44.52,44.52,0,0,0-6.67,3.66c-1.68.86-3.88,2.82-2.63,1.69l-5.3,3.42-.11-.07c-5.4,3-10.68,7-17.22,9.87a74.4,74.4,0,0,1-6.64,4h-.78c-2.25,1.46-7.16,3.69-8,4.61-3,.54-11.38,6.3-15.55,8.5l.1.53c-2.82,1.6-5.44,3.28-8.83,5.47l.44.26c-2.82,2-7.89,4.19-12.62,7a8.82,8.82,0,0,1,2.37-1.4,47.19,47.19,0,0,0-8.82,5c-1.41.94-2.8,1.88-4.18,2.73-.69.42-1.38.83-2.07,1.2l-1,.53a5.4,5.4,0,0,1-.86.37,3.35,3.35,0,0,1-.69.52,3.53,3.53,0,0,1-.63-.49l.14,0-.22-.13-.07-.08-.19-.14-.41-.31-.86-.63c.48.4,1,.78,1.38,1.07-1-.56-2.52-1.38-4-2.13l-.39-.78-.35-.18c-1.36-1-1.28-.47-.69.29-.78-.36-1.51-.67-2.09-.87-.78-1.35-4-2-5.18-3.65-1.19-.22-7.55-4-8.76-3.73,0-.12-.4-.42.4,0a29.71,29.71,0,0,0-4.78-2.7l-.39-.93-4-1.36c-2-1.58-2.78-2.29-.39-1.45-5.58-2.39-4.37-2.21-9.17-4.15l.41-.22c-1.59-.9-4.4-1.91-5.19-2.74-3.17-2.7-17.51-10.23-26.27-16.09,1.18,2-4-2.9-4.79-2.32-.39-.54-1.58-1.41,0-.77-4.78-2.45-6.77-4.41-10.36-5.61-.39-.55,1.2.22.81-.19a7.53,7.53,0,0,1-2-1.07c-.39-.42.8.19,1.59.51-4.77-2.7-5.68-2.24-6.42-1.75A13.81,13.81,0,0,0,25,233.15c-.71-.71-2-1.75,1-.13-1.64-1-10-6.19-10.44-5.73a14.32,14.32,0,0,0-2.77-1.57L9,223.43l-1.6-.93-1.79-1,.6.47a3,3,0,0,1-1.52-.42,16.55,16.55,0,0,1,.07-1.69c0-.78.09-1.75.06-2.84l.08.1c.56-7.81-.27-3.37.37-11.07l-.48.42c-1-.72.61-6.82.21-11.3l-.27,1.61c-.35-2.44,1.4-6.82,1.53-9.28.09-.53.14.84.21,1.59.61-6.42-.63-.83-.77-5.62.34-.88.86,1.14.92-2.08.27-1.6-1.1-9.34-.45-13.73-.26,1-.52,1.93-.72-.29-.09-3.41,1-9.21.16-12.28.07-.43.14-.6.2-.61-.21-2.6-.35-8.46-.8-10,1.66-2.41-.81-16.19.72-16.13l-.08-8,.16.21a33.45,33.45,0,0,0-.63-8.73c.1-1.18.25-.32.33-.22A63,63,0,0,0,5,97.12l.5-.65a33.37,33.37,0,0,1,.09-4.53l.18-3.69.11-3,.61-.35.9-.55c.82-.51,1.63-1,2.4-1.55,0,.08-.12.24-.59.6C16,78.77,27,74.71,28.68,71.64l4.49-3.11c-6.17,3.4.52-1.2-2.14,0,2.35-1.48,6.48-3.11,3.57-1.33l-.51.19c-.61,1.44,7.75-4.09,7.91-3.44,12-7,23.95-13.28,35.22-19.74l-1.66.11,3.94-2.23c1.11-.45,1.67-.3-1.15,1.29a13.74,13.74,0,0,0,4.52-3.19c5.63-2.91-1.71,2,0,1l2.25-1.37-.56.22a25.14,25.14,0,0,1,5.09-3.61c2.2-1.1,1.32-.24,2.17-.7a6.35,6.35,0,0,0,1.3-.72l5-2.8-2.27.64c2-1.51,4.66-2.66,2.06-1.91,3.85-1.06,18.62-10.33,20.83-11.25.83-.62,1.67-1.21,2.55-1.78l1.16-.75.93-.58,1.47.83,2.26,1.33c-.87-.64-1.11-1.53,2.09.41-1.85.48,5.64,3.93,7.77,6.27-2-1.9,9.28,5.18,6.07,2.27,2.65,1.65-.09.53,1.8,2,6.69,3.26,14,8.47,22,12.9.21-.08-1-1.08.85-.32l3.75,3.18c1.61.83,2,0,4.51,2.14-.33-.36-.82-.9.26-.35C191.34,57,208.36,65,223.36,75.51c-2-1.53-.53-.74,1.11.2-1-.68.24-.36.15-.69l6.29,4.39c1.54.12,7.12,4.06,8.12,3.91l-2.17-1.2c3.16,1-3.07-3.69-2.18-4.28-3.54-1.07-7.6-5.84-13.33-7.74-1-.82,1.12.29.62-.25a21,21,0,0,1-5.92-3.06l.38.1c-8.21-4.62-11.5-7-20.54-12.52l.44.8a29.06,29.06,0,0,1-3.14-2.2c-2.62-.68,5.51,3.23,3.06,2.73-2.13-2.34-13.88-8-15.1-10-3-1.75.61,1-2.41-.77l-.65-.72-1-.11c-2-1.2-2.77-2.1-2.72-2.36.47.3,1.41.73,1.93,1C173.9,41,169,38.65,168.15,38L171,39.88c-8.41-4.53-18.31-10.7-26.6-14.79l.49.54c-6.31-3.16-4.76-3-11.56-6.74l.27.09a39.29,39.29,0,0,1-5.12-2.6c1.82.75-2.93-2.28-.56-1.25l-4.61-2.34a17,17,0,0,0-2.21,1.62l-.44.38-.43.4c-.34.31-.82.73-1.54,1.32l-1.19.26a22.11,22.11,0,0,1-4.65,3.39c2.58-1.86-2.42.74.45-1.4-7.42,3.35-10,6.73-13.83,7.56-2.71,2.75,6.36-3,4.66-1.78,1.68-.58-2.28,2.2-4.53,3.38S95.1,29,89.47,32.26c.56-.32.56-.41,1.12-.73-2.24,1-4,2.7-6.76,3.82-1.14,1.38-3.38,1.91-3.4,2.84L85.51,35c-2.83,1.87-5.12,4.26-10.17,6.66a23.69,23.69,0,0,1,2.56-2c-1.53.61-2.64,1.71-4.23,2.34,0-.93,6.2-3.78,9-6.12-1.68.59-5.66,3.93-4.51,2.27-1.72,2.26-5.63,3.09-9,6v-.56a28.69,28.69,0,0,1-2.83,2L68,43.93c-2.83,2.24-6.19,3-9,5,6.2-3.6,1.68-.31,4.48-1.53-7.34,5-5,1.47-13.49,6.62,1.13-.73,4.5-2.27,2.8-1a46.43,46.43,0,0,1-5,2.27c-5.63,3.37,1.12-.08-1.16,1.57-2.22.62-2.67,1.81-5.07,3.41l-.26-.41c-6.63,3.47-1.21,1.86-7.23,4.9l2.13-2-3,1.9.35-.84a45.69,45.69,0,0,1-7.5,4.5c.92-.14,0,1-2.85,2.67-2.1.88.87-1-3.16,1.38A7.55,7.55,0,0,1,23.68,70c.1-.24.75-.78.86-1a62,62,0,0,0-6.8,3.85,16.93,16.93,0,0,1,1.65-.82l-5.56,4c-1,.38-.36-.17.3-.72-1.17.73-1.88,1.4-3.62,2.45.26-.6-.05-.89,2.34-2.48l-5.4,3.62C7,79,4.33,80.19,5,79.64c-.52.23-2.66,1.5-4.37,2.56L.7,84.42v2.07l.19,2.6A42.12,42.12,0,0,1,1,94.39a8.65,8.65,0,0,1,.21,1.76c-.09,4.48-.57,8.45,0,13.76l-.7,3c.16,4.16.89-4.08,1.15,2.85.22,4.9-.6,1.83-.8,3.55a40.41,40.41,0,0,1,.5,11.18C1.31,129,1.41,127.79,1.36,126.4Zm.31,51.28c-.1-1-.41-3-.13-3.7.56,1.13.32,2,.13,3.69Zm30.81,62A10.22,10.22,0,0,1,29.79,238a21.55,21.55,0,0,1,2.69,1.68Zm187.38-7.12-.08.07C217.78,233.58,218.5,233.25,219.86,232.56Zm4.09-2.12c.37-.29.31-.33.1-.29a10.66,10.66,0,0,1-2.14,1.35,5.6,5.6,0,0,0,2.06-1ZM92.18,35.24l-.84.34C93,34.49,92.6,34.83,92.18,35.24Z" transform="translate(0.03)"/><path class="cls-1" d="M24.49,235.84a.66.66,0,0,1-.24-.44C23.86,235.28,23.86,235.36,24.49,235.84Z" transform="translate(0.03)"/><path class="cls-1" d="M1.11,94.49v-.16A.35.35,0,0,0,1,94.17Z" transform="translate(0.03)"/><path class="cls-1" d="M164.27,269.63a10.49,10.49,0,0,1-1.71.7C162.58,270.49,163,270.33,164.27,269.63Z" transform="translate(0.03)"/><path class="cls-1" d="M239.92,218.19l.06,1.47v.47a1.42,1.42,0,0,1,0-.25,2.71,2.71,0,0,0,0-.34l.12-1.06C240.09,218.54,239.93,219.11,239.92,218.19Z" transform="translate(0.03)"/><path class="cls-1" d="M242.86,192.6c-.06-.43,0-.91-.07-1.34l-.22.12C242.63,193.21,242.81,194.49,242.86,192.6Z" transform="translate(0.03)"/><path class="cls-1" d="M241.52,215.49c.41-.23.27-2.08.19-4.15v.37C241.15,211.07,241.33,213.27,241.52,215.49Z" transform="translate(0.03)"/><path class="cls-1" d="M241.7,210.83v-1.91C241.46,208.68,241.64,209.7,241.7,210.83Z" transform="translate(0.03)"/><path class="cls-1" d="M228.86,227.29c.9-.4.27-.76.84-.89C230.41,225.4,224.38,230.2,228.86,227.29Z" transform="translate(0.03)"/><polygon class="cls-1" points="242.89 213.78 242.38 214.52 242.79 215.68 242.89 213.78"/><path class="cls-1" d="M235.65,225.72l2.93-1.53c-.09,0,.25-.3.68-.59A27.63,27.63,0,0,0,235.65,225.72Z" transform="translate(0.03)"/><path class="cls-1" d="M239.26,223.6c.46-.26.91-.52,1.3-.76a8,8,0,0,0,.85-.58l-1,.57C240.06,223.08,239.61,223.36,239.26,223.6Z" transform="translate(0.03)"/><polygon class="cls-1" points="243.04 218.29 242.93 219.27 242.9 221.6 243.04 218.29"/><path class="cls-1" d="M204.86,243.37l-3,1.92c-.23.33.67-.07,1.8-.8C204.32,244,205.45,243.24,204.86,243.37Z" transform="translate(0.03)"/><path class="cls-1" d="M215,239.11a5.46,5.46,0,0,1-1.57.46l.22.59Z" transform="translate(0.03)"/><path class="cls-1" d="M206,244.49c-.22.33-4.28,3-.35.73C205.86,244.88,208.92,242.95,206,244.49Z" transform="translate(0.03)"/><polygon class="cls-1" points="158.63 270.94 159.41 270.47 158.79 269.65 158.63 270.94"/><path class="cls-1" d="M115.7,289.67c3.57,2.34,1.19,0,4.38,2.15,1,.29-2.61-1.79-1.61-1.46C116.11,289.3,115,288.49,115.7,289.67Z" transform="translate(0.03)"/><path class="cls-1" d="M118.46,290.37c.38.17.78.35,1.22.52A13,13,0,0,0,118.46,290.37Z" transform="translate(0.03)"/><polygon class="cls-1" points="235.11 82.33 237.38 83.89 236.02 82.71 235.11 82.33"/><path class="cls-1" d="M240,84.32l.24.89,1.72.32A9.81,9.81,0,0,1,240,84.32Z" transform="translate(0.03)"/><path class="cls-1" d="M.36,185.3l.16.21a8,8,0,0,0,.21-2.35Z" transform="translate(0.03)"/><polygon class="cls-1" points="0.88 148.08 0.86 148.72 1.45 147.52 0.88 148.08"/><path class="cls-1" d="M.1,116.85c0,1.27.11,2.77.08,4C.08,118.12.86,116.49.1,116.85Z" transform="translate(0.03)"/><polygon class="cls-1" points="252.89 68.99 133.39 0 13.89 68.99 13.89 206.98 133.39 275.97 252.89 206.98 252.89 68.99"/></svg>