<svg id="Слой_1" data-name="Слой 1" xmlns="http://www.w3.org/2000/svg" viewBox="0 0 220.63 166.04"><defs><style>.cls-1{fill:#ddfcd0;}.cls-2{fill:#c6ddba;}.cls-3{opacity:0.75;}.cls-4{fill:#ff2c68;}</style></defs><title>sale30</title><path class="cls-1" d="M335.65,259.21c10.49-28.77,29.14-41.12,30.91-72.43.43-7.63-1.13-11.69-4.28-15.78-3.85,4.54-35.76,69.23-149.24,22.09-11.9,6.19-32.17,16.3-56,19-6.52,8.24-10.15,19.63-10.84,23.61,8.84,24.47,15.06,41.21,18.67,53.45,52.15,39.4,149.31,51.14,170.58,47.16C328.89,321.83,321.77,297.28,335.65,259.21Zm-159.16-23a9.33,9.33,0,0,1-5.14,3.9,9.58,9.58,0,0,1-6.78-.93,10.91,10.91,0,0,1-5.84-6.1,10.68,10.68,0,0,1,0-6.45,11.73,11.73,0,0,1,1.91-3.88,9,9,0,0,1,13.21-2.33,10.89,10.89,0,0,1,4.23,6.11,12,12,0,0,1-1.59,9.65Z" transform="translate(-146 -171)"/><path class="cls-2" d="M158.14,212.25c12.9-.07,27.94,6.14,29.09,11.14,6.6-2.78,13.84-5.24,22.33-16.73,3.59-4.87,7.84-11.82,4.61-13.41-.33-.16-1.71,2.84-2.08,3.4C205.85,205.9,158,212.25,158.14,212.25Z" transform="translate(-146 -171)"/><path class="cls-1" d="M158,211.77c24.5-2.39,26.47,3.41,31.34,8.22,15.12-7.82,30.51-26,23.73-26.9C203.71,198.94,172.8,209.43,158,211.77Z" transform="translate(-146 -171)"/><path class="cls-2" d="M146,235.22c13.6,9.93,22,9.24,30.05,9.2,12.28,16.47-8.89,26.18-11.7,44.9C164.53,262.86,158,248.38,146,235.22Z" transform="translate(-146 -171)"/><path class="cls-1" d="M146.16,235.7c12.64,10.26,20.05,9.89,30.71,11.13,3.94,13.21-10.87,18.77-12,42.32C160.23,272.4,151.09,251.8,146.16,235.7Z" transform="translate(-146 -171)"/><g class="cls-3"><path class="cls-4" d="M293.83,223.38a10.92,10.92,0,0,0-11,2.62A75.22,75.22,0,0,0,265,252.49c-3.46,8.76-4.09,15.42-5.33,28.74-.54,5.81-.81,12.17,1.72,19.35,1.37,3.88,3.09,8.57,7.15,10,4.55,1.56,9.38-2,12.56-4.26,8.36-6.07,12.24-14.68,14.09-20.4a136.4,136.4,0,0,0,8.87-31c1.68-10.58.62-15.67-.75-19.67-1.17-3.41-3.19-9.32-8.77-11.57Z" transform="translate(-146 -171)"/><path class="cls-4" d="M195.87,240.92c11,7,15.84,7,21.33,7.31a10,10,0,0,1-3.17,9.69c-8.39-.92-10.33-1.88-22.3-7C194.62,248.35,196.53,244.47,195.87,240.92Z" transform="translate(-146 -171)"/><path class="cls-4" d="M221.67,239.17c9.65-4.89,12.25-2,19.68.86-2.27-1.92-3.62-3.66-2.29-6.76a7.77,7.77,0,0,1,7.07-4.55c4.61.27,7.31,6.25,7.8,10.28.89,7.36-5.11,12.37-5.42,12.61a16.07,16.07,0,0,1-13.53,3,34,34,0,0,1-6.79-2.54c-1.58.91-2.57,6.12-1.57,8.07,3.87.3,5.44.23,10,2.53.51.26,8.39,4.35,8.77,11.57.31,5.9-4.58,9.93-5.11,10.35a14,14,0,0,1-8.69,3c-1.13,0-7.85-.1-10-4.14-1.87-3.48-2-5.8-.05-9.68-5.15,2.29-10.64.38-14.53-3.15-2.23,4.53-.94,11.73-.25,13.55,3.06,8.06,10.91,13.83,19.11,15.06A22,22,0,0,0,246.78,291a23.84,23.84,0,0,0,5.1-12,16.64,16.64,0,0,0-.69-8.38,16.05,16.05,0,0,0-4.23-6.11,41.18,41.18,0,0,0-5.83-4.49,19.34,19.34,0,0,0,8.06-1.66,20.64,20.64,0,0,0,8.35-7.14,22.26,22.26,0,0,0,3.81-11A20.68,20.68,0,0,0,260,229.93a17.53,17.53,0,0,0-16.19-11.2A20.34,20.34,0,0,0,231.26,223C226.39,226.46,222.91,230.13,221.67,239.17Z" transform="translate(-146 -171)"/><path class="cls-4" d="M342.17,211.75a147.73,147.73,0,0,1-8.3,15.25c-1.82,3-1.51,1.93-9.29,12.31-5,6.7-7.59,10.15-10.57,14.9-3.3,5.26-5.43,9.41-6.07,10.68a129,129,0,0,0-6.06,13.9,126.07,126.07,0,0,0-4.75,16.15c-1.2,5.42-2.58,13.37-1.86,13.56.52.13,1.83-3.9,4.14-10A230.17,230.17,0,0,1,310.88,272c3.3-6.26,6.12-11.62,11.2-17.8,2.33-2.84,4.4-5,9.62-11.34,2.88-3.53,15.15-18.61,15.37-21.37C344.79,219.48,344.52,211.73,342.17,211.75Z" transform="translate(-146 -171)"/><path class="cls-4" d="M322.52,217.34c-3.66,1.35-5.64,4.15-7.06,6.17a19.15,19.15,0,0,0-3.5,8.73c-.24,2-.42,3.73.67,5.16,1.64,2.14,4.85,2,5.49,1.91a8.38,8.38,0,0,0,5.15-2.29,30.28,30.28,0,0,0,5.44-7.77c1.92-4,1.93-6.28,1.9-7.11,0-1.47-.13-3.63-1.64-4.83C327,215.71,323.77,216.88,322.52,217.34Z" transform="translate(-146 -171)"/><path class="cls-1" d="M321.58,222.51a8.9,8.9,0,0,0-4.17,3.57,10.18,10.18,0,0,0-1.58,6.46c.09,1.18.19,2.21,1,2.9,1.3,1.12,3.45.44,3.87.3,2.27-.73,3.44-2.62,4.81-4.86,1-1.67,2-3.3,1.91-5.49a3.88,3.88,0,0,0-1-2.9C325,221.19,322.34,222.21,321.58,222.51Z" transform="translate(-146 -171)"/><path class="cls-4" d="M315.79,284.8c-2,.1-3.32,1.77-5.46,4.55a22.21,22.21,0,0,0-4.79,9.7c-.57,2.88-1.46,7.43,1,9.35,1.84,1.43,4.76.79,6.45,0,1-.5,2.51-1.52,5.44-7.77,2.74-5.86,4.1-8.84,3.17-11.31S318.27,284.67,315.79,284.8Z" transform="translate(-146 -171)"/><path class="cls-1" d="M313.88,290.29c-1,.64-1.06,1.24-2.87,5.82-1,2.57-1.7,4.18-1.58,6.46.08,1.51.43,1.83.66,1.93.94.45,2.65-1.34,3.54-2.28a17.83,17.83,0,0,0,3.84-6.15c.84-2.32,1.81-5,.61-6.13C317.13,289.08,315.14,289.48,313.88,290.29Z" transform="translate(-146 -171)"/><path class="cls-1" d="M287.44,233c-1,0-2.59.32-6.75,5.52a63.46,63.46,0,0,0-9,14.89c-1.79,4.46-2.67,8.68-4.43,17.12-1.7,8.16-2.23,13-1.84,18.4.57,7.88,2.52,9.25,3.28,9.66,3.25,1.78,7.93-1.27,9-2,3.48-2.27,5.69-5.51,8.64-12.63,1.54-3.72,3.28-8.47,7-23.91,2.4-10,2.84-12.93,1.85-16.78C294.17,239.12,291.24,233.13,287.44,233Z" transform="translate(-146 -171)"/></g></svg>