<svg id="Слой_1" data-name="Слой 1" xmlns="http://www.w3.org/2000/svg" viewBox="0 0 217.84 147.19"><defs><style>.cls-1{fill:#fff8e3;}.cls-2{fill:#ea6b65;}</style></defs><title>sale12</title><path class="cls-1" d="M257.51,182.32a113.06,113.06,0,0,0,11.15,12.24A49.49,49.49,0,0,0,286,205c10.48,4.13,19.38,4.14,25.38,4.09,6.6,0,15.87-.13,25.7-4.44a73.86,73.86,0,0,0,27.25-21.14,47.27,47.27,0,0,1-1.55,16.69,205.84,205.84,0,0,1-20.42,48.91A219.69,219.69,0,0,1,316.9,284a178.89,178.89,0,0,1-29.56,26.67c-7.7,5.46-32.78,18.82-32.78,18.82s.56-3.15,1.24-8.15a39.28,39.28,0,0,0-3.06-18.62c-1.68-4-5.79-10.55-30.14-21.25A276,276,0,0,0,179.91,267c-20.15-5.16-33.3-8.48-33.3-8.48s7.26-.71,19.54-2.68a135.48,135.48,0,0,0,34.7-10.44,102.88,102.88,0,0,0,21.55-12.68c6-4.63,17.43-13.52,24.94-28.6C253.39,191.94,257.51,182.32,257.51,182.32Z" transform="translate(-146.61 -182.32)"/><path class="cls-2" d="M309.94,228c-1.89,2-2.51,3-2.85,4.23-.08.31-1,3.91.84,5.77,2.85,2.84,9.74-.87,10.23-1.15a19.33,19.33,0,0,0,5.08-4.38c1.86-2,2.94-3.23,3.23-5.15a6,6,0,0,0-1.23-4.85c-1.87-2-5-1.53-5.92-1.39C316,221.62,314,223.76,309.94,228Z" transform="translate(-146.61 -182.32)"/><path class="cls-1" d="M311.7,234.21c.55,1.14,3.47.71,4.08.62a8.64,8.64,0,0,0,3.92-1.61,5.83,5.83,0,0,0,2.46-3.31,2.8,2.8,0,0,0-.15-2.23c-.92-1.28-3.7-.86-5.38-.08s-2.5,2-3.77,3.84C312,232.77,311.4,233.58,311.7,234.21Z" transform="translate(-146.61 -182.32)"/><path class="cls-2" d="M277,283.64A8.41,8.41,0,0,0,274.9,286a6.46,6.46,0,0,0-.08,5.38c1.2,2.33,3.79,2.92,5.15,3.23,3.41.78,6.23-.32,9.31-1.53s5.39-2.11,7.31-4.53c.54-.68,3.64-4.59,2.16-7.77-1-2.23-3.77-2.9-5.15-3.23-4.94-1.21-9.36,1.2-11.92,2.61A22.91,22.91,0,0,0,277,283.64Z" transform="translate(-146.61 -182.32)"/><path class="cls-1" d="M281,284.26c-2,1.51-2.06,2.18-2.08,2.38-.14,1.46,1.66,2.81,2.92,3.39,2.61,1.19,5.29.11,6.69-.46,1.69-.68,4.48-1.8,5.08-4.38a4.23,4.23,0,0,0-.69-3.54c-1.82-2-6-.52-7.62.07A14.46,14.46,0,0,0,281,284.26Z" transform="translate(-146.61 -182.32)"/><path class="cls-2" d="M276.29,280.1c24.09-21.37,39.25-29.13,64.64-38-2.15-5.23-1-8,.16-10.77-12.75,0-44.74,21.12-64,43a5.52,5.52,0,0,0-1.44,4A3.27,3.27,0,0,0,276.29,280.1Z" transform="translate(-146.61 -182.32)"/><path class="cls-2" d="M267,242.64c4.85-1.23,6.54-2.69,10.77.16,1.54-3.69,1.49-4.6,4.39-7.92,2.29-2.62,7.76-5.43,10.46-4.3,3.69,1.54,1.38,7.08.22,9.85a16.12,16.12,0,0,1-7.93,8.61c-3.92,1.61-8.11,2.15-20.31,4.52-17.69,3.45-23.55,9.68-22.94,18.6,14.93-4.61,19-4,26.84,5.79,1.93-4.61,3.47-8.31,9.24-9.15-1.67-5.75-12.3-9.47-27.61-3.94,7.66-9.26,20.45-6.21,35.62-10,4.85-1.23,11.28-7,13.55-11.68,2.48-5.18,4.32-14.08.63-17.08C292.7,220.18,274.48,227.33,267,242.64Z" transform="translate(-146.61 -182.32)"/><path class="cls-2" d="M249,228.62c-.23.51-2.06,4.76-.47,6.31,4.08.62,9.31-1.53,9.31-1.53,2.38,2.08-27.78,19.83-32.94,29.59,4.69-3.46,9.56,1.46,12.61.93,5.55-10.69,26.79-27.83,43-40.59a10.69,10.69,0,0,1-.84-5.77C272.86,223.41,262.17,230.86,249,228.62Z" transform="translate(-146.61 -182.32)"/><path class="cls-2" d="M230.78,230.77c-2.27.86-4.31,2.54-5.85,6.23a49.7,49.7,0,0,1,15.54,4.32c1.69-1.46,4.69-3.46,6.39-4.92C240.93,235,238.16,233.85,230.78,230.77Z" transform="translate(-146.61 -182.32)"/></svg>