<svg id="Слой_1" data-name="Слой 1" xmlns="http://www.w3.org/2000/svg" viewBox="0 0 214.6 322.44"><defs><style>.cls-1{fill:#e3e4e5;}.cls-2,.cls-5{fill:#fff;}.cls-12,.cls-3{fill:none;}.cls-10,.cls-3,.cls-4,.cls-5,.cls-6,.cls-7{stroke:#000;}.cls-10,.cls-12,.cls-3,.cls-4,.cls-5,.cls-6,.cls-7{stroke-linecap:round;stroke-linejoin:round;stroke-width:2px;}.cls-4{fill:#992c44;}.cls-6{fill:#0b1523;}.cls-8{fill:#c4395e;}.cls-9{fill:#162b4c;}.cls-10,.cls-11{fill:#d9d9d9;}.cls-12{stroke:#fff;}</style></defs><title>sales-winner</title><path class="cls-1" d="M354.62,191a30.05,30.05,0,0,1,1.87,15c-6.35,1-11.87,1.59-15,1.94a145.36,145.36,0,0,1-47.8-2.55c-5-1.12-10.34-2.32-15.54-3.77-.26-7.27.69-10.53,1.87-13.16,4.6-10.22,14.9-15.5,20-17.7,2.11-.81,20.25-7.43,37.29,1.4A36.89,36.89,0,0,1,354.62,191Z" transform="translate(-211.63 -25.57)"/><path class="cls-2" d="M356.49,206c-.26,2.86-.75,5.93-1.3,9.45-6.44,41.74-4,39-7.77,50.93-5.26,16.7-10.69,33.9-20.16,34.64-7.37.57-13.93-9.11-23.61-23.43a158.71,158.71,0,0,1-17-34.13,146.43,146.43,0,0,1-8.06-35.65c-.22-2.35-.36-4.39-.43-6.19,5.2,1.45,10.58,2.66,15.54,3.77a145.36,145.36,0,0,0,47.8,2.55C344.62,207.57,350.14,207,356.49,206Z" transform="translate(-211.63 -25.57)"/><path class="cls-3" d="M356.49,206a30.05,30.05,0,0,0-1.87-15,36.89,36.89,0,0,0-17.28-18.85c-17-8.83-35.18-2.21-37.29-1.4-5.12,2.2-15.41,7.48-20,17.7-1.18,2.63-2.13,5.89-1.87,13.16.06,1.8.2,3.85.43,6.19a146.43,146.43,0,0,0,8.06,35.65,158.71,158.71,0,0,0,17,34.13c9.69,14.32,16.24,24,23.61,23.43,9.47-.73,14.9-17.94,20.16-34.64,3.75-11.89,1.33-9.2,7.77-50.93C355.74,211.91,356.22,208.83,356.49,206Z" transform="translate(-211.63 -25.57)"/><path class="cls-4" d="M313.44,201.67c-1.43,10-2.14,15-3.17,25-1.53,14.75-2.65,25.58-6.91,36.16a13.1,13.1,0,0,0-.86,2.8c-2,11.07,11.2,25.2,19.87,23.68,5.93-1,8.79-9.25,10.37-13.75,2.36-6.77,1.88-12.26.86-22.67a179,179,0,0,0-3.46-20.63c-1.52-7.36-1.14-4.09-5.76-22.41a71,71,0,0,0-3.46-9.68c-1.82-4.21-3.26-7.49-4.61-7.39C314.72,192.88,314,197.7,313.44,201.67Z" transform="translate(-211.63 -25.57)"/><path class="cls-4" d="M304.22,193.78c-1,4.9,3.17,8.91,3.46,9.17,4,3.67,9.91,4.07,14.11,2.8a12.19,12.19,0,0,0,5.76-3.57,10.29,10.29,0,0,0,2.3-7.64c0-.79-.36-6.84-4.9-9.42C318.44,181.41,305.78,186.33,304.22,193.78Z" transform="translate(-211.63 -25.57)"/><path class="cls-5" d="M280.9,174.17c-1.86,2.55-.5,6.15,2.3,13.24,4.6,11.66,9.79,16.81,17,25.47,4-14.52,9.5-21.39,18.72-33.11C327.66,168.65,285.93,167.25,280.9,174.17Z" transform="translate(-211.63 -25.57)"/><path class="cls-5" d="M314.59,180.79c9.5,7.89,14.69,15.28,20.44,32.6,9.5-7.39,25.91-30.9,15.84-40C343.49,166.75,321.34,168.68,314.59,180.79Z" transform="translate(-211.63 -25.57)"/><path class="cls-6" d="M281,179.13c-1.2-.54-.76-.75-10.8,7.26-7.51,6-11.6,8.49-14.69,10.19-5.49,3-8.24,4.52-11.23,4.84s-6.61-.1-8.06,1.78a3.45,3.45,0,0,0-.58,2.55c.75,7-6.27,9.34,0,76.91,0,0,1.2,12.94,4,33.62.67,4.9,1.54,10.81,3.17,18.34.52,2.39.78,3.59.86,3.82,7.36,19.91,155-1.37,164.71.51a4.36,4.36,0,0,0,2.88-.25c2.53-1.41,1.65-6.34,1.44-7.64-2-12.44,1-25.24-.86-37.69-5.1-33.3-2.28-56.85-6.34-73.35-2-8.32-5.13-12-4.61-18.34.09-1,.48-4.66-1.44-5.6-1-.47-2,0-3.74.25-2.09.29-3.59,0-7.49-.76-9.46-1.93-14.19-2.89-15.26-3.31-6.14-2.41-10.83-6.19-16.41-10.7-3.59-2.9-5.35-4.71-6-4.33-1.37.76,3.35,9.08,5.18,13,2.53,5.4,6.48,17.19-10.08,64.43-11.18,31.9-15.5,33.73-18.14,34.13-9,1.35-18.1-11-29.66-26.74-13.86-18.85-24.17-32.88-23.61-51.44C274.84,191.87,283.76,180.36,281,179.13Z" transform="translate(-211.63 -25.57)"/><path class="cls-6" d="M251.82,194.29c1.28-2,3.4-1.55,8.35-3.82a38.28,38.28,0,0,0,12.09-8.91c4.18-4.8,5.07-9.11,7.2-8.91.58,0,1.22.44,2.3,2.29a20.26,20.26,0,0,1,2.88,11.46c-.45,5.38.66,13.77,2.88,30.56a113.35,113.35,0,0,0,8.06,29,108.16,108.16,0,0,0,10.94,20.88c7.57,11.16,14.29,16.38,13.53,17.06-1,.92-11.84-9.9-33.4-24.19-5.78-3.83-18-11.66-16.41-14.52.27-.49,1.43-1,3.74-2,3.73-1.66,5.29-1.72,5.76-2.8.65-1.49-1.4-3.47-2-4.07-8.34-8.18-16.29-20.78-22.46-30.56C251.41,199.63,250.37,196.51,251.82,194.29Z" transform="translate(-211.63 -25.57)"/><path class="cls-6" d="M348.57,175.18a3.5,3.5,0,0,1,3.46-3.31c2.16-.26,3.64,2.26,7.2,5.86,2.89,2.91,6.84,6.9,12.38,9.42,5.13,2.33,8.28,1.88,9.5,4.33,1.12,2.23-.4,4.82-1.15,6.11-8.66,15-4.61,14.84-12.09,24.45s-16,15.55-14.11,18.08a8.31,8.31,0,0,0,2.59,1.53c3.52,1.72,5.14,1.47,5.76,2.29,1.43,1.89-4.17,7.26-6.91,9.93-15.93,15.54-23.89,23.31-29.08,29.54-.75.9-2.06,2.51-2.59,2.29-1.66-.68,6.25-18.51,6.62-19.36,3.09-6.93,3.76-7.43,6-12.48,4.43-9.77,6.3-17.52,8.64-27.25a182.3,182.3,0,0,0,4.32-23.18C350.3,194,348.28,183.59,348.57,175.18Z" transform="translate(-211.63 -25.57)"/><path class="cls-6" d="M238.28,209.31c-1-1.23-3.37-4-6.91-4.33a6.85,6.85,0,0,0-4,.76c-2.4,1.43-2.7,4.39-2.88,6.11-.62,5.79-1.67,11.53-2.3,17.32-.39,3.56-.78,4.6-2.3,11.71-1.12,5.25-4.33,20.41-6.34,36.93a86.25,86.25,0,0,0-.29,22.92c.9,6.83,2.32,10.44,5.18,13.5,3.48,3.72,7.94,5.39,11.23,6.62,3.86,1.45,8.29,3.11,13.25,2.55,8.35-.94,13.49-7.64,15.84-10.7,7.45-9.71,7.32-20.38,7.2-29.54,0-3.07-1-9.69-2.88-22.92-1.55-10.8-2.15-13.33-2.59-15a68.3,68.3,0,0,0-8.35-20.37C248.28,218.72,248.41,221.2,238.28,209.31Z" transform="translate(-211.63 -25.57)"/><path class="cls-5" d="M259,255.66c-1.35.84,3.2,1.75,6.34,5.6a16.08,16.08,0,0,1,3.46,9.42c.22,5.89-3.21,8-1.73,9.93,2.19,2.85,12.73,2.33,16.7-2.8,2.44-3.15,1.43-6.8-.29-13-1-3.74-2.33-8.13-6.62-10.19a8.65,8.65,0,0,0-3.74-1C267.65,253.37,261.89,253.88,259,255.66Z" transform="translate(-211.63 -25.57)"/><path class="cls-6" d="M266.79,253.11c3.46-1,12.09-1.53,23.61,0,28.41,3.77,21.23,3.82,31.39,7.13,9.83,3.21,15.38,5.87,28.22,11.71,15.85,7.21,16.8,8.76,16.7,9.93-.46,5.59-25.29,8.08-35.71,8.66,0,0-26.31,1.46-46.36-8.91-1.76-.91-15-.45-12.67-1.27,8.06-2.8,6.77-9.85,6.62-13.5C278.18,256.68,272,254.13,266.79,253.11Z" transform="translate(-211.63 -25.57)"/><path class="cls-7" d="M406.74,291.83c6.66,1.48,10.14,6.24,12.09,8.91,1.36,1.87,4.91,6.87,4.32,13.75A17,17,0,0,1,418,326c-6.08,5.75-14.74,5.47-16.7,5.35-8-.48-16.7-5-19.87-13-3.71-9.38,2.18-18.53,8.93-22.92C391.71,294.49,398.58,290,406.74,291.83Z" transform="translate(-211.63 -25.57)"/><path class="cls-6" d="M310.27,306.09c.37,2.85,7.64,5.46,22.17,10.7,10.35,3.72,17.54,6.26,27.93,7.64a94.71,94.71,0,0,0,24.19.25c11.16-1.43,18.48-2.38,21.6-7.13,4.74-7.24-2.51-19.85-12.09-26.23-2-1.34-8-7.89-26.49-7.39C340.34,284.68,309.23,298,310.27,306.09Z" transform="translate(-211.63 -25.57)"/><path class="cls-6" d="M244.33,289.79c9.94-7,20.53-9.65,28.8-11.71,8.5-2.12,15.32-2.78,23.32-3.57a231.83,231.83,0,0,1,27.07-1c6.67.13,13.37.77,26.78,2,0,0,6.74.64,17.57,2.55,10.64,1.88,12,2.73,12.09,3.57.24,1.87-5.76,3.48-15.26,7.39-2.44,1,.51-.15-19.29,9.17-21,9.87-31.45,14.8-34.84,16-11.86,4.34-21.06,6.31-32,8.66-19,4.08-25.85,3.75-28.51,3.57-7.67-.54-20.88-3.44-28.65-9.55" transform="translate(-211.63 -25.57)"/><path class="cls-7" d="M264.77,256.68c-1.16-.89-3.49-2-10.65-1-5.07.71-10.31,1.44-16.13,4.84-8.28,4.85-11.56,11.53-13.53,15.54-1.66,3.39-3.27,6.76-2.88,11.21a23.47,23.47,0,0,0,2.88,8.66,13.12,13.12,0,0,0,3.17,4.58,14.08,14.08,0,0,0,7.49,3.06c6.69.72,12.3-3.84,17-7.64,1.7-1.38,1.25-1.2,10.65-11.21,5.93-6.31,6.39-6.68,6.91-8.15,1.43-4,.18-7.79-2.3-15.28C266.48,258.6,265.91,257.55,264.77,256.68Z" transform="translate(-211.63 -25.57)"/><path class="cls-3" d="M323.52,313.47c.77,8.83,2.11,23,2.88,31.83" transform="translate(-211.63 -25.57)"/><path class="cls-6" d="M376.87,284.33c.17-2.29.57-5.92,1.36-13.89,2.61-26.55,1.8-23.27,2.59-28,1.61-9.71,6.55-19.88,16.41-40.24.72-1.48,2.36-4.75,5.18-5.09.42,0,2.1-.24,4.61,1.78,6.21,5,7.08,14.93,7.2,16.3.83,9.37,2.75,18.65,3.74,28,2,18.35,5.47,35.91,5.47,35.91,1.51,7.51,3.15,14.41,0,22.67A25.88,25.88,0,0,1,417.09,312a33.08,33.08,0,0,1-10.87,6.73" transform="translate(-211.63 -25.57)"/><path class="cls-8" d="M309.55,198.49A5.36,5.36,0,0,0,311,201.8c2.15,2.43,5.66,2.52,6.91,2.55,1.62,0,5.4.13,7.2-2.29s.12-5.69-.29-6.37a8.85,8.85,0,0,0-6.91-4.07C313.44,191.5,309.47,195.14,309.55,198.49Z" transform="translate(-211.63 -25.57)"/><path class="cls-8" d="M315.89,211c-1.9,2.16-1.51,4.68-1.44,8.15.06,3.06-.4,6.11-.58,9.17C313.1,242,312.71,248.84,311,252a2.15,2.15,0,0,0-.29,1.78c.53,1.34,2.92,1.44,5.47,2,6.41,1.5,8.06,4.75,10.65,3.82,1.43-.51,2-1.9,2.59-3.31,1.83-4.49.71-8.68,0-11.46-1.37-5.33-2.41-10.71-3.74-16-1.24-5-3.7-9.72-4.32-14.77-.19-1.57-.46-4.42-2-4.84S316,210.87,315.89,211Z" transform="translate(-211.63 -25.57)"/><path class="cls-9" d="M238.71,203.58c-.2.33.12.86,2.88,3.57a82.93,82.93,0,0,0,6.34,5.86,47.88,47.88,0,0,1,10.94,13,40,40,0,0,1,4.32,11.71c1.64,7.61.64,12.84,1.73,13,.9.12,2.42-3.32,3.17-6.37,1.64-6.7-.29-12.33-1.44-15.54-1.53-4.29-4.29-8-9.79-15.54-2.77-3.77-4.24-5.4-6.62-6.88C245.5,203.45,239.36,202.49,238.71,203.58Z" transform="translate(-211.63 -25.57)"/><path class="cls-9" d="M384.13,197c1.22-.43,1.9.67,5.18,1,4.06.44,5.76-.93,6.62-.25,2,1.54-4.91,10.17-9.5,18.34-5,8.91-6.71,16.21-8.64,24.45C373,261,376.66,275.33,374,275.68c-1.65.23-4.32-5.32-5.47-10.19-2.42-10.26,1.57-19,1.15-19.1-.59-.14-6.18,18.32-7.49,18.08-1-.18.76-11,1.15-13.5a87.73,87.73,0,0,1,3.46-15.54,60.16,60.16,0,0,1,6.34-14c4.49-7.12,6.38-6.5,8.06-11.21C383.62,203.57,381.44,197.9,384.13,197Z" transform="translate(-211.63 -25.57)"/><path class="cls-9" d="M351.3,181.68c-.84.12,1.54,9.87,1.15,23.94a110.09,110.09,0,0,1-4.32,28c-5.18,17.18-13.47,26.93-12.38,27.5s9.52-8.31,15.26-19.86a64.7,64.7,0,0,0,5.76-17.06c1.91-10.48.54-18.6-.86-26.49S352.07,181.57,351.3,181.68Z" transform="translate(-211.63 -25.57)"/><path class="cls-9" d="M355.34,243.06c.72-.5,2.77.23,3.46,1.53a2.87,2.87,0,0,1,0,2.29,12.89,12.89,0,0,1-3.17,5.09c-6.78,6.54-7.77,7.39-7.77,7.39-5.49,4.85-7,6.24-7.2,6.11s3.72-5,6.91-8.4c1.8-2,2.93-3.34,5.18-6.11,1.6-2,2.49-3.16,2.59-4.84S354.73,243.47,355.34,243.06Z" transform="translate(-211.63 -25.57)"/><path class="cls-9" d="M359.66,181.17c-.25.25,2.18,3.24,6,5.6,3.25,2,5.08,2,6.62,4.07.68.89,1.3,2.17,1.44,5.09.15,3.24-.41,6-2.3,11.71-2.07,6.28-3.14,9.47-5.18,12.48A25.63,25.63,0,0,1,361.1,226a70.62,70.62,0,0,0,10.65-14.52c1.49-2.79.15-.85,4.61-11.71,1.69-4.12,2.73-6.47,1.44-8.4-1-1.46-2.62-1.67-5.18-2.55C364.31,186,360,180.84,359.66,181.17Z" transform="translate(-211.63 -25.57)"/><path class="cls-9" d="M259.73,192.38c-1.59.17-3.18,0-4.61,1a4.51,4.51,0,0,0-1.73,2.8,5.83,5.83,0,0,0,1.44,4.33c2.28,3.09,3.82,6.56,6,9.68,2.89,4,1.57,2.61,8.06,12.22,3.18,4.7,4.24,6.15,5.18,7.39,2.57,3.37,6.28,7.83,6.62,7.64s-2.26-3.87-7.49-12.22c-12.67-20.24-7.57-14.42-11.52-19.86-2.56-3.53-5.48-7-4-9.17.61-.89,1.55-.88,4-1.78a29.26,29.26,0,0,0,9.21-5.35c3.62-3.24,5.08-7.37,4.61-7.64s-2.28,2.76-7.2,6.37C264.47,190.65,262.52,192.09,259.73,192.38Z" transform="translate(-211.63 -25.57)"/><path class="cls-9" d="M277,179.39c-.76.16,1.58,6.81,1.73,17.83.11,8.24-1.13,9.44-.29,16.3a63.07,63.07,0,0,0,3.17,13,87.45,87.45,0,0,0,5.76,13.24c2.65,5.1,6.42,11.4,6.91,11.21s-4.3-8.36-8.06-21.14c-2.55-8.65-4.39-14.89-4.32-23.43,0-5.52.86-8.59-.29-14.77C280.39,185,277.72,179.24,277,179.39Z" transform="translate(-211.63 -25.57)"/><path class="cls-9" d="M281.33,241.78c-.26-.24-1.59,1-4.32,2-2.17.86-3,.77-3.46,1.53-.61,1.1.41,2.7,1.44,3.57,1.51,1.26,4,1.71,4.61,1s-.84-1.51-.86-3.31C278.71,243.94,281.69,242.12,281.33,241.78Z" transform="translate(-211.63 -25.57)"/><path class="cls-9" d="M273.84,253.5c-.12.39,2.22.77,4.32,2.8a11.55,11.55,0,0,1,2.88,5.6c1.48,5.66-.51,8,1.15,9.42s5,0,10.37-1.27c7.9-1.89,14.18-2,20.73-2a82.93,82.93,0,0,1,17.85,1.53c8.11,1.63,12.76,3.94,13,3.57.31-.57-10.68-6.07-22.75-10.7a96.94,96.94,0,0,0-15.84-5.09c-4.89-1-5.11-.64-17-2.29C280.85,254,274,252.83,273.84,253.5Z" transform="translate(-211.63 -25.57)"/><path class="cls-9" d="M228.92,206.89c1.77-.64,4.17,1.27,6,2.8a30.26,30.26,0,0,1,6.34,7.13c3.7,5.6,5.54,8.4,6.91,11.21,2.55,5.23,1.35,4.57,6.34,19.36.49,1.47,1.59,4.68,1.15,4.84s-1.61-2.58-4.32-5.6c-3.1-3.46-7.34-6.39-8.06-5.86s1.45,3.94,3.46,6.37c3.42,4.15,6.76,5.65,6.34,6.37s-4.8-.13-8.35-1.53c-4.09-1.61-4.65-2.9-6.62-2.8-1,0-2.91.45-7.2,6.62a64.65,64.65,0,0,0-6.59,12.2,75.3,75.3,0,0,0-3.74,10.44c-3,11.26-1.44,19.58-2,19.61s-2.5-8-2.3-18.34c.13-6.89,1.16-12.19,2.59-19.36,2.14-10.74,3-10.46,4.61-19.36,1.73-9.79,1.83-16.75,3.17-16.81.82,0,1,2.58,3.46,6.88s6.07,8.52,6.91,8.15-1.07-6.44-3.74-11.46c-2-3.7-3.57-5.44-5.47-10.19a12.29,12.29,0,0,1-.86-7.13C227.15,209.24,227.53,207.39,228.92,206.89Z" transform="translate(-211.63 -25.57)"/><path class="cls-9" d="M256.28,300.61c4.1-5.09,3.57-6.26,8.64-12.73,2.7-3.45,4.83-5.64,8.06-7.39a24,24,0,0,1,5.18-2c10.64-2.93,26-2.84,30.24-2.8,13.36.13,20,.19,21.31.25,9.87.5,8.75,1,30,2.8,4.56.39,8.36.69,8.35,1,0,.48-8.07.29-16.13,1-18.63,1.68-33.36,7.9-33.12,8.66.11.36,3.58-.47,20.44-3.06,17.35-2.66,17.82-2.41,17.85-2.29.25.9-21.94,6.49-24.48,7.13-20.74,5.21-21.49,4.37-32.25,7.39-21.79,6.1-37.12,14.7-38.3,13-.66-1,4.18-3.71,8.06-11.21.51-1,3.29-6.35,2-7.13-1.09-.67-4.3,2.56-12.67,8.66-1.52,1.11-10.15,7.36-10.65,6.88C248.46,308.44,252.14,305.75,256.28,300.61Z" transform="translate(-211.63 -25.57)"/><path class="cls-9" d="M364.84,293.48c-.29.94,5.15,2.07,9.79,5.09,9.26,6,10.09,16.22,12.67,15.79,1.65-.27,2-4.52,2-4.84.44-5.91-4.13-9.52-2.88-10.7,1-1,5.12.58,8.06,2.55,5,3.37,6.69,7.92,7.49,7.64.54-.19.41-2.47-.58-4.84-3.39-8.14-14-10.38-13.25-13,.26-.88,1.9-1.26,5.18-2,3.89-.92,7.64-1.8,11.23-1.27,8.75,1.28,12.62,10.36,14.69,9.42,1.33-.6.3-4.62-.29-6.37-2.24-6.64-8.29-10.42-10.08-11.46-4.15-2.41-7.36-2.81-7.2-3.57s4.73-1.48,8.93-.25c4.71,1.38,6.54,4.34,7.49,3.82,1.16-.64-.27-5.83-3.74-10.44-4.31-5.72-9.8-8-9.21-8.91.42-.68,3.55-.19,6,1,3.76,1.83,4.56,4.56,5.47,4.33,1.51-.38,1.25-8.33-1.44-16.55-1.82-5.58-3.32-6.89-4-12-.37-2.68-.25-4.93,0-9.42.43-7.8,1.42-9.34.58-13.75a25.63,25.63,0,0,0-2.59-7.13c-1.56-2.92-4.76-7.59-6.34-7.13-.33.09-.94.52-.86,7.13.06,4.59.38,6.74.58,10.7a55.9,55.9,0,0,1,0,9.93c-.69,5.7-2.14,6.62-1.73,10.7s2.27,6.37,1.44,6.88c-1,.64-5.35-2-7.77-5.86-3.77-6-1.43-12.35-2.3-12.48s-3.62,5.15-3.46,11.71c.06,2.2.4,2.69,4.32,13.75,3.06,8.62,3.83,11.11,6.91,13.5,2.45,1.9,5.36,3,5.18,3.31s-3.48-1.42-8.06-1.53a16.47,16.47,0,0,0-12.38,4.84c-.68.75-2,2.16-1.44,3.06.73,1.27,4.28.21,8.35.51,7.48.55,13,5.42,12.67,6.11s-7.12-3.13-16.13-1.78c-3.52.53-7,1.79-6.91,2.55.15,1.09,7.76.93,7.77,1.53,0,.32-2.15.64-8.06,1.78-2.76.54-4,.79-4,1.27-.07.68,2.34.91,4.9,2.55,3.17,2,4.69,5.06,4.32,5.35s-2.58-2.43-7.2-4.07c-2.77-1-6-1.43-6.34-.76-.46.89,4.41,3.51,4,4.07s-3.25-1.1-7.77-1.27C367.82,292.93,365,292.83,364.84,293.48Z" transform="translate(-211.63 -25.57)"/><path class="cls-9" d="M255.42,335c-1,1.82.81,4.86,2.3,6.37,2.57,2.58,6.54,2.91,8.64,3.06,16.08,1.13,31.68.76,31.68.76,7.31-.17,14.71-2.53,21.88-1.27a3.37,3.37,0,0,0,2.3-.25c1.86-1.15.68-4.73-.58-11-1.7-8.38-1.35-10.71-2.59-11-2.13-.42-3.24,6.41-8.06,10.7C296.83,345,259.07,328.27,255.42,335Z" transform="translate(-211.63 -25.57)"/><path class="cls-9" d="M332.88,333.46c-1,.94.12,3.85,2,5.6,2.35,2.18,5.66,2.44,7.49,2.55,10.27.6,16.35-1.13,26.49-1.78,8.87-.57,14.84.08,15.26-1.53.26-1-1.69-2.23-2.88-2.8-3.89-1.88-8.28-.69-11.23,0-6.72,1.57-16.1,3.76-24.48,2C338.31,336,334.31,332.16,332.88,333.46Z" transform="translate(-211.63 -25.57)"/><path class="cls-7" d="M380.2,80.81a11.32,11.32,0,0,0,3.61-3.23C385.65,75,386,72,385.67,71.84s-.46.78-1.58,1.64c-.54.42-1.33.89-1.47.74s.8-1,1.41-2.12c1.7-3,.42-7.12,0-7.12-.19,0-.06.75-.68,1.75a5.65,5.65,0,0,1-3.73,2.3c-1,.19-1.59.31-1.84,0-.65-.82,2.41-3.5,4.26-6.59,3.76-6.31,3.32-15.8-.43-20.71a35,35,0,0,0-4.84-5.42c-1.42-1.16-2.41-1.69-3.06-3.13-.93-2.08-.22-4-.85-4.24s-1.4,1-1.83,1.84-.42,1.51-.65,1.53-.82-1.16-.85-2.4c0-1.85,1-2.69.62-3.14-.54-.66-3.3.46-5.25,1.65s-2.21,1.87-3.73,2.3-2.2.08-3.67,0a14.71,14.71,0,0,0-7.09,1.65c-1.4.66-3,1.72-6.18,5.44-4.45,5.28-6.68,7.92-7.33,11-1.23,5.89,2.71,11.16,5.9,15.42,6.49,8.67,14.44,11.63,25.6,15.79C372.14,81.44,376.53,82.75,380.2,80.81Z" transform="translate(-211.63 -25.57)"/><path class="cls-7" d="M244.18,93.38a11.37,11.37,0,0,1-4.33-2.22c-2.45-2.07-3.52-4.92-3.26-5.11s.64.64,2,1.19c.63.27,1.52.52,1.61.34s-1-.81-1.91-1.7c-2.41-2.48-2.21-6.81-1.77-6.93.19,0,.25.72,1.1,1.53a5.68,5.68,0,0,0,4.2,1.28c1-.06,1.63-.1,1.79-.46.42-1-3.23-2.79-5.81-5.33-5.25-5.18-7.23-14.51-4.84-20.24a35.18,35.18,0,0,1,3.33-6.49c1.08-1.49,1.92-2.25,2.18-3.82.37-2.25-.81-4-.24-4.33s1.6.59,2.25,1.32.79,1.36,1,1.32a3.43,3.43,0,0,0,.22-2.55c-.42-1.81-1.64-2.36-1.4-2.89.35-.78,3.32-.39,5.52.27s2.62,1.26,4.2,1.28,2.15-.48,3.57-.93a14.77,14.77,0,0,1,7.31-.19c1.53.28,3.39.9,7.38,3.71,5.67,4,8.5,6,9.92,8.86,2.69,5.41.2,11.53-1.82,16.48-4.1,10.07-11.08,15-20.87,21.83C252.17,92,248.24,94.34,244.18,93.38Z" transform="translate(-211.63 -25.57)"/><path class="cls-10" d="M295.35,51c-6.14.78-9.21,1.17-12.48,2.29A41.79,41.79,0,0,0,268.61,62a49.51,49.51,0,0,0-11,13.5c-2.22,4.08-3.18,7.39-5.09,14a107.2,107.2,0,0,0-4.07,18.59c-.8,6.81-.51,11.08-2,20.63a20.91,20.91,0,0,1-3.06,8.66,21.59,21.59,0,0,1-6.37,6.11c-4.11,2.83-7.62,5.65-11.46,4.84-1.91-.4-3.12-1.52-3.44-1.15-.47.55,1.82,3.47,4.07,5.6a26,26,0,0,0,11.71,6.62c3.35.83,3.94.21,11,1.53,5.19,1,5.36,1.41,5.35,1.53,0,.43-2.73,0-6.62,1a31.11,31.11,0,0,0-7.39,3.06c-2.52,1.34-4.73,2.35-4.58,2.8s3.47-.41,9.17-.76c2-.13,7.69-.48,7.89.51.15.74-2.81,1.94-3.06,2a22.87,22.87,0,0,1-4.33,1c0,.27,5,1,11.46.51,5.27-.43,9-1.52,9.17-1,.11.35-1.69.9-4.07,2.55-3.29,2.27-6.06,5.48-5.6,6.11.32.45,2.1-.67,5.86-2a44.68,44.68,0,0,1,9.93-2.55c3.44-.34,6.07.36,11.21,1.78,5.84,1.61,7.84,2.86,15.28,5.6,6,2.21,9,3.31,11.46,3.82a41.82,41.82,0,0,0,22.16-1.27c1.13-.4,5.68-3.07,14.77-8.4,6.17-3.62,9.56-5.71,15-7.13,3.06-.79,5.7-1.45,9.17-1,5.36.67,8.69,3.46,9.42,2.55s-1.3-3.47-2.8-5.09c-3.24-3.5-6.58-4.22-6.37-5.09s3.86-1,6.88-.51c3.89.62,6,2.07,6.37,1.53s-1.35-2.76-3.57-4.33c-3.44-2.43-6.53-2.25-6.62-3.31s3.7-2.43,4.84-2.8c5.81-1.89,9.92-1.11,10.19-2.29.19-.84-1.71-2-2.8-2.55-2.46-1.16-4.49-.57-4.58-1-.13-.6,3.42-2,7.13-3.06s4.08-.64,6.62-1.53a19.27,19.27,0,0,0,7.13-4.07c3.17-3,5-7.07,4.33-7.64-.32-.27-1,.44-2.8,1a14.62,14.62,0,0,1-4.84.51c-4.4-.25-8.16-4.06-9.68-5.6a29.63,29.63,0,0,1-6.62-11.21c-1.37-4-1.07-5.42-2-11.46-.91-5.7-1.84-11.49-4.33-17.32-2.63-6.14-6-10-9.93-14.52-3.41-3.91-7.51-8.61-14.26-12.73-7-4.31-13.26-5.72-18.34-6.88-9.63-2.19-17.36-2-25-1.78A135.58,135.58,0,0,0,295.35,51Z" transform="translate(-211.63 -25.57)"/><path class="cls-2" d="M315.6,71.28c-2.13-.12-2.46-3.32-5.6-6.88-4.67-5.28-11.3-6.49-14.77-7.13a31.1,31.1,0,0,0-19.1,2.55A32.08,32.08,0,0,0,262.89,72.3c-3.23,5.15-4.15,9.44-5.86,17.83-1.93,9.49-3.71,18.26-2.8,28.78a44.05,44.05,0,0,1-1.53,16.55,20.4,20.4,0,0,1-1.78,4.07,21.59,21.59,0,0,1-7.64,7.64c-3.62,2.1-6.42,2.24-6.37,3.06,0,.29.4.78,4.84,1.53,7.23,1.22,10.85,1.83,14.52,0,2.48-1.24,3.65-2.9,4.07-2.55s-.63,3.53-3.06,5.35c-2.08,1.56-4,1.39-4.07,2,0,.84,3.2,2,6.62,2.29,5.41.44,8.47-1.58,9.17-.51s-1.8,4.17-4.07,6.11c-3.81,3.25-7.25,3.56-7.13,4.33.16,1,6.31,1.87,12.48,0,4-1.2,6.5-3.08,6.88-2.55s-1.54,2.78-3.57,4.33c-1.47,1.12-2.63,1.57-2.55,1.78s3.35-1,7.39-1.27a23.45,23.45,0,0,1,6.88.76c6.21,1.48,9.59,4,14.52,6.37a51.22,51.22,0,0,0,18.59,5.09c4.74.3,9.93.64,15.28-2,5.84-2.92,5.09-6,12.22-10.7a31.06,31.06,0,0,1,13.75-5.35c7.57-.82,12.37,2.09,13,.76s-3.59-5.7-8.66-7.13c-2.24-.63-4-.52-4.07-1-.07-.69,3.18-2,6.62-2,4.06-.07,6.54,1.61,6.88,1s-1.87-3.09-4.84-4.33c-2.14-.89-3.33-.58-3.57-1.27-.42-1.24,2.78-4.23,6.62-5.09,4.49-1,8.06,1.26,8.4.51s-1.89-2.67-4.58-3.57c-2.34-.78-4-.32-4.07-.76-.16-.66,3.31-2.45,7.39-3.31,3.87-.82,4.85-.08,9.68-.51s10-1.68,9.93-2.55c0-.61-2.7-.45-6.62-1.53-2.33-.64-8.46-2.32-12.22-7.13-2.38-3-2.88-6.12-3.57-10.44-1-6.56-.11-10.11,0-15A49.17,49.17,0,0,0,371.88,82c-6-13.35-17.76-19.5-21.9-21.39-3.28-1.5-7.4-3.32-13-3.06a22.26,22.26,0,0,0-12.73,4.33C318.77,66.13,318.36,71.43,315.6,71.28Z" transform="translate(-211.63 -25.57)"/><path class="cls-11" d="M305,136.09c-.25-.74.25-1,1.27-4.33a42.38,42.38,0,0,0,1.53-7.13c.35-3,.28-5.83,0-5.86s-.25,2.25-1.53,5.09a19.51,19.51,0,0,1-4.33,5.86,27,27,0,0,1-14.52,7.64c-3.67.63-6.85.5-6.88.25s1.94-.31,4.84-1.53a14.46,14.46,0,0,0,4.07-2.55c.43-.39,1.43-1.28,1.27-1.53s-2.13.67-4.33,1.53a34.91,34.91,0,0,1-7.39,2,19,19,0,0,1-11.21-2.29c-2.18-1.22-5.2-2.89-6.37-5.86-2.7-6.85,6.16-16.16,11.21-20.12,7.12-5.59,14.47-6.67,19.36-7.39s8.66-1.22,12.22.76c3,1.67,4.86,4.47,6.11,3.82.9-.46.89-2.37.51-3.57a5.21,5.21,0,0,0-4.07-3.31c-2-.35-3.36.64-3.57.25s1.1-1.83,2.8-2.29a4.39,4.39,0,0,1,3.57.51c1,.76,1.08,1.83,1.53,1.78s.5-1.15,1-2.29c1.07-2.33,3.65-3.68,4.07-3.31S315,94,314.38,96.8s0,6.68,1.53,7.13c1,.29,2-.93,3.31-2,3.91-3.38,8.48-4.06,12-4.58,5.58-.83,9.94.74,14.26,2.29,4.12,1.48,9.5,3.42,13.75,8.66a17.1,17.1,0,0,1,4.33,9.93c.08,1.48.26,4.89-2,7.64a9.32,9.32,0,0,1-3.57,2.55c-2.29.93-4.65.84-8.15,0-7.18-1.73-11.46-4.74-11.71-4.33s2.23,2.79,5.86,4.58c5.22,2.57,10,2.3,9.93,2.8s-2.33.59-4.33.51a18.13,18.13,0,0,1-4.58-.76c-6.32-2-16.53-7.79-16.81-7.39-.14.21,2.23,2.43,5.86,4.58,5.59,3.31,10.28,4.16,10.19,4.58s-4.08.38-8.4-.76c-3.08-.81-10.89-2.88-14.77-9.17-.94-1.52-1.58-3.18-2-3.06-.62.17-.45,3.5.25,6.37,1.49,6,4.72,7.43,4.07,9.42C322,139.94,306.32,140,305,136.09Z" transform="translate(-211.63 -25.57)"/><path class="cls-7" d="M308.22,134.75l11.44-.6a4.84,4.84,0,0,1,5.09,4.58h0a4.84,4.84,0,0,1-4.58,5.09l-11.44.6a4.84,4.84,0,0,1-5.09-4.58h0A4.84,4.84,0,0,1,308.22,134.75Z" transform="translate(-211.63 -25.57)"/><rect class="cls-2" x="305.9" y="137.53" width="15.81" height="2.04" rx="1.02" ry="1.02" transform="translate(-218.16 -9.73) rotate(-2.86)"/><path class="cls-7" d="M313,142.08c-.24,1.21,0,1.75.36,5.09.21,1.83,0,.58.36,4.33.09,1,.38,2.83,1.25,2.8.44,0,.52-3.46.18-5.09a44.09,44.09,0,0,1-.89-7.39c0-1.13,0-2-.18-2A4.21,4.21,0,0,0,313,142.08Z" transform="translate(-211.63 -25.57)"/><path class="cls-11" d="M338.39,141.44c-.1.33,2.63.66,5.09,3.31a10.69,10.69,0,0,1,2.8,5.35c.77,4.54-2.45,7.93-1.78,8.4s3.71-1.87,5.09-5.35c.3-.75,1.76-4.42,0-7.64C346.84,140.48,338.55,140.88,338.39,141.44Z" transform="translate(-211.63 -25.57)"/><path class="cls-11" d="M290.26,149.59a7.75,7.75,0,0,0-2.8,3.31A8.06,8.06,0,0,0,287,157c.3,2.69,1.71,4.21,1.53,4.33s-3.73-2.48-3.57-5.6C285.1,152,290.22,149.54,290.26,149.59Z" transform="translate(-211.63 -25.57)"/><path class="cls-7" d="M319.93,109.22a9.77,9.77,0,0,0,.25,4.58,10.22,10.22,0,0,0,4.33,5.35c.71.46,1.79,1.06,8.4,2.29,5.26,1,5,.69,7.13,1.27,4.21,1.18,4.5,2.19,7.89,2.8,2.55.46,5.13.92,7.13-.51,2.89-2.06,2.63-6.65,2.55-8.15a16.51,16.51,0,0,0-4.07-9.42,26.15,26.15,0,0,0-19.1-9.17c-2.91,0-6.42,0-9.68,2.55A13.27,13.27,0,0,0,319.93,109.22Z" transform="translate(-211.63 -25.57)"/><path class="cls-7" d="M269,123.23c1,3.89,4.85,6.39,7.64,7.13a25.87,25.87,0,0,0,13-.25c3.47-.78,8.21-1.85,12.22-5.86a14.77,14.77,0,0,0,4.07-6.37,14.21,14.21,0,0,0-.51-9.42c-.39-.92-2.46-5.82-7.39-7.39-3.32-1.06-6.14,0-10.44,1.53a33.7,33.7,0,0,0-9.42,5.35,33.06,33.06,0,0,0-6.88,6.88C268.48,118.66,268.24,120.4,269,123.23Z" transform="translate(-211.63 -25.57)"/><path class="cls-12" d="M326.5,113.9a34.55,34.55,0,0,0,4.93.87,23.45,23.45,0,0,0,6.39,0,20.39,20.39,0,0,0,3.26-.78" transform="translate(-211.63 -25.57)"/><path class="cls-12" d="M300.13,115.39a34.55,34.55,0,0,1-4.62,1.91,23.45,23.45,0,0,1-6.24,1.36,20.39,20.39,0,0,1-3.35-.06" transform="translate(-211.63 -25.57)"/><path class="cls-5" d="M317.76,74.46c.62.65,4.77-2.43,5.6-3.06A42.13,42.13,0,0,0,333,60.7c3.87-5.83,4.25-8.71,4.33-10.19.06-1.23.21-4-1.27-4.84s-4.13.69-5.6,2.29c-2.51,2.72-2,5.85-2.55,9.42C326.31,67.67,316.86,73.52,317.76,74.46Z" transform="translate(-211.63 -25.57)"/><path class="cls-5" d="M312.16,69.88c.61-.52-1.55-3.31-7.13-13-4.09-7.09-4.94-9.09-7.89-11-1.06-.67-5.75-3.62-10.44-1.78a10.78,10.78,0,0,0-5.09,4.58c-.74,1.24-1.37,2.31-1,3.31.59,1.67,3.4,1.72,6.62,2.55,2.09.54,4.45,1.8,9.17,4.33C306.42,64.31,311.24,70.65,312.16,69.88Z" transform="translate(-211.63 -25.57)"/><path class="cls-5" d="M314.2,72.17c.66-.31-.31-4.2-2.29-12-2.78-10.9-3.81-13-5.35-15s-4.2-5.53-8.91-6.37c-3.74-.67-8.75.41-9.42,2.8-.72,2.57,4.07,4.9,10.19,10.7C309.26,62.59,312.75,72.86,314.2,72.17Z" transform="translate(-211.63 -25.57)"/><path class="cls-5" d="M321.58,35.5a6.57,6.57,0,0,1,4.84-1c3.29.56,5.09,3.7,5.6,4.58s2.57,4.78.51,12.73C329,65.49,317.47,75.29,316,74.21c-.88-.64,2.9-4.21,4.58-12.22C323.38,48.6,317,39,321.58,35.5Z" transform="translate(-211.63 -25.57)"/><path class="cls-5" d="M296.88,39.57c.56-2.29,3.2-3.74,3.82-4.07a9.91,9.91,0,0,1,7.39-.76c7.88,2.49,9.6,19,8.91,28.78-.3,4.25-1.2,9.4-2.29,9.42-1.42,0-.26-8.69-5.35-17.32C304.08,46.65,295.77,44.09,296.88,39.57Z" transform="translate(-211.63 -25.57)"/><path class="cls-5" d="M307.07,36.52a9.41,9.41,0,0,1,3.57-4.58,9.19,9.19,0,0,1,7.64-1c5.25,1.75,6.77,8.84,7.39,11.71,1.54,7.19-.47,13.14-2.29,18.34-2.48,7-6.93,15.09-8.66,14.52-1.36-.45,1-5.56,0-13.5C313,49.09,304.29,43.86,307.07,36.52Z" transform="translate(-211.63 -25.57)"/><path class="cls-3" d="M314.45,152.65a18,18,0,0,0,3.67,4.58,17,17,0,0,0,14,3.82,12.15,12.15,0,0,0,7.58-3.57,12.79,12.79,0,0,0,2.76-4.84" transform="translate(-211.63 -25.57)"/><path class="cls-3" d="M314.45,153.41a10.46,10.46,0,0,1-1.27,2.8c-2.86,4.4-8.36,5.31-11.71,5.86a17.09,17.09,0,0,1-7.89-.25,14.34,14.34,0,0,1-3.31-1.53" transform="translate(-211.63 -25.57)"/><path class="cls-11" d="M307.83,167.16a5.71,5.71,0,0,1,2.29,2c.92,1.5,2.7,2,4.07,2.29a12.1,12.1,0,0,0,7.89-.51c2-.89,3-2.08,3.31-1.78s-.39,2.18-1.53,3.57c-2.35,2.86-6.43,4-9.93,3.57-1.89-.21-4.41-.5-5.6-2.55C306.73,171,307.24,167.11,307.83,167.16Z" transform="translate(-211.63 -25.57)"/></svg>