<svg id="Слой_1" data-name="Слой 1" xmlns="http://www.w3.org/2000/svg" viewBox="0 0 206.75 333.16"><defs><style>.cls-1,.cls-4{fill:none;}.cls-1,.cls-11,.cls-2,.cls-3,.cls-4,.cls-6,.cls-8{stroke:#000;stroke-width:2px;}.cls-1,.cls-2,.cls-3,.cls-4,.cls-6,.cls-8{stroke-linecap:round;}.cls-1,.cls-11,.cls-6,.cls-8{stroke-miterlimit:10;}.cls-2,.cls-3,.cls-4{stroke-linejoin:round;}.cls-3{fill:#c0c6cc;}.cls-5{fill:#fff;}.cls-6,.cls-7{fill:#d9d9d9;}.cls-9{fill:#282828;}.cls-10{fill:#d5dce0;}</style></defs><title>sales-loser</title><path class="cls-1" d="M81.56,107.06" transform="translate(0 0.09)"/><path class="cls-2" d="M68.56,145.42c-1.24,1.17-13.27,12.88-10.86,27.33,3.14,18.82,28.49,28.71,47.41,27.66,2.06-.11,30-2,35.56-20.08,4.79-15.62-10.56-32.32-23.7-39.18C103.08,133.9,82.1,132.64,68.56,145.42Z" transform="translate(0 0.09)"/><path class="cls-3" d="M182.56,221.12c4,23.92,6,40,6,40,2.84,23.22.23,3.22,2.63,24.36a218.07,218.07,0,0,1,1.65,23.38v3.62c-3.36,20.69-166.77,14.6-168.24,0v-2.63c0-8.12.27-14.28.33-15.8,1-25.17,1.65-38.19,1.65-38.19,2.18-42.19,3.27-63.28,3.29-67.82,0-6.82,2.06-13.63,1.32-20.41a8.16,8.16,0,0,1,.66-4.61,14.68,14.68,0,0,1,6.09-5.76c6.09-2.8,25.59-12.77,27.82-12.35,1.41.27-.12,7.36,1.65,16.79.71,3.78,2.58,13.11,9.88,21.4,2.65,3,7.68,8.72,16.46,10.86a29.06,29.06,0,0,0,18.44-1.65,30.26,30.26,0,0,0,12.51-10.86A37.69,37.69,0,0,0,130,170.26c3.46-12-3.31-19.66,0-22.39,3.12-2.57,11.93-2,19.59,2.47,2.93,1.72,13.46,5.86,18.77,10.86" transform="translate(0 0.09)"/><path class="cls-4" d="M135.24,169.29a47.67,47.67,0,0,1-4,15.47,46.42,46.42,0,0,1-12.18,16.46c-6.5,5.42-12.86,7.4-19.75,9.55a82.07,82.07,0,0,1-16.13,3.29" transform="translate(0 0.09)"/><path class="cls-4" d="M66.43,175.22a29.28,29.28,0,0,0,4.94,10.54A30.44,30.44,0,0,0,82.89,195a37.19,37.19,0,0,0,19.42,3.62" transform="translate(0 0.09)"/><path class="cls-5" d="M63.63,198.1" transform="translate(0 0.09)"/><path class="cls-2" d="M35.44,57.77c-1.34.37-2,1-3.42.94-.37,0-1-.08-3.36-1.28-.46-.24-3.9-2-3.69-2.37.11-.19,1.09.3,2.77.22,1.26-.06,2.46-.43,2.45-.64s-1.8,0-4.07-.78c-1.24-.4-2.75-1.13-2.63-1.57s1.58-.15,3.67-1c.68-.26,1.92-.75,1.9-1.27s-1.8-.76-3.11-1.3c-2.73-1.13-3.58-4.06-4.62-7.63a28.77,28.77,0,0,1-.95-11.71,26.94,26.94,0,0,1,2.55-8.66c2.49-5,3.74-7.55,4.8-8.62.38-.38,1.47-1.4,1.29-2.55-.12-.79-.71-.78-.89-1.71a4.93,4.93,0,0,1,.76-3c.11-.22.2-.39.4-.73.63-1.1.94-1.65,1.16-1.62s-.08,1.07.66,2a5.18,5.18,0,0,0,1.33,1c.2.11.35.17.48.23.43.19,1.61.69,1.83.48s-1-1-1.46-2.55c-.38-1.24-.13-2.61.28-2.69s.65,1.44,2.22,2.71A7.71,7.71,0,0,0,39.41,5.1a13.26,13.26,0,0,0,5.22-.42c4.11-.71,7.71.68,10.14,1.62A24.91,24.91,0,0,1,63,11.64c2.35,2.22,2.2,2.93,4.07,3.89,2.68,1.38,4.39.64,6.94,2.33A6.49,6.49,0,0,1,76.72,21c.56,1.62-.53,3-3.2,4.32C68.21,28,45.18,40.67,35.44,57.77Z" transform="translate(0 0.09)"/><path class="cls-2" d="M165.36,57.77c1.34.37,2,1,3.42.94.37,0,1-.08,3.36-1.28.46-.24,3.9-2,3.69-2.37-.11-.19-1.09.3-2.77.22-1.26-.06-2.46-.43-2.45-.64s1.8,0,4.07-.78c1.24-.4,2.75-1.13,2.63-1.57s-1.58-.15-3.67-1c-.68-.26-1.92-.75-1.9-1.27s1.8-.76,3.11-1.3c2.73-1.13,3.58-4.06,4.62-7.63a28.77,28.77,0,0,0,1-11.71,26.94,26.94,0,0,0-2.55-8.66c-2.49-5-3.74-7.55-4.8-8.62-.38-.38-1.47-1.4-1.29-2.55.12-.79.71-.78.89-1.71a4.93,4.93,0,0,0-.76-3c-.11-.22-.2-.39-.4-.73-.63-1.1-.94-1.65-1.16-1.62s.08,1.07-.66,2a5.18,5.18,0,0,1-1.33,1c-.2.11-.35.17-.48.23-.43.19-1.61.69-1.83.48s1-1,1.46-2.55c.38-1.24.13-2.61-.28-2.69s-.65,1.44-2.22,2.71a7.71,7.71,0,0,1-3.62,1.48,13.26,13.26,0,0,1-5.22-.42C152.06,4,148.46,5.36,146,6.3a24.91,24.91,0,0,0-8.19,5.34c-2.35,2.22-2.2,2.93-4.07,3.89-2.68,1.38-4.39.64-6.94,2.33A6.49,6.49,0,0,0,124.08,21c-.56,1.62.53,3,3.2,4.32C132.56,28,155.62,40.67,165.36,57.77Z" transform="translate(0 0.09)"/><path class="cls-6" d="M58.39,26.42c-3.15,1.74-9.1,5-14,10.32-3.58,3.91-5.17,7.39-7.89,13.35a85.61,85.61,0,0,0-6.07,19.42,92.34,92.34,0,0,0-1.52,13c-.47,11.75-.3,16.38-.3,16.38a18.72,18.72,0,0,1-.61,6.37,18.53,18.53,0,0,1-3.64,6.68,17.47,17.47,0,0,1-4.85,4.25A14.28,14.28,0,0,1,15,118c-3.19.64-4.93-.29-5.46.61s1.2,3.21,1.82,3.94a10.28,10.28,0,0,0,3.94,3c4,1.66,7.42-.15,7.89.91.31.69-1.18,1.36-2.73,3.94a18.79,18.79,0,0,0-2.12,6.07c-.41,1.79-.9,4-.3,4.25s1.32-1.83,3.64-2.73c1.46-.57,1.79,0,6.07,0,2.29,0,2.86-.2,3.34.3,1.14,1.21-.31,4.24-.61,4.85a6.65,6.65,0,0,1-2.43,3c-1.89,1.21-3.83.44-3.94.91s2.78,1.92,5.46,2.73,4.22,1.27,6.37.91a17,17,0,0,0,4.85-1.82c1.77-.93,2.77-1.77,3-1.52s-.72,1.35-1.52,3.34a13.11,13.11,0,0,0-.91,5.46c.11,1.86.74,4.74,1.82,4.85.53,0,.76-.6,1.82-1.82A15.78,15.78,0,0,1,51,154.94c2.08-.9,2.8-.69,3-.61,1.11.39,1.62,1.56,2.12,2.73a12,12,0,0,1,.91,5.16c-.1,2.51-.85,3.45-.3,3.94s2-.15,4.85-1.52a15.69,15.69,0,0,0,4.55-2.73c1.24-1.19,1.77-2.27,2.12-2.12s-.21,1.56,0,3.64a9.86,9.86,0,0,0,1.52,4.25c1,1.69,2.89,3.71,3.64,3.34.52-.26-.07-1.36.3-3,.64-2.85,3.42-4.49,4.55-5.16a7.9,7.9,0,0,1,5.16-1.52,7.59,7.59,0,0,1,4.85,3,9.89,9.89,0,0,1,1.82,3.94,7.66,7.66,0,0,1,.3,3.94c-.36,1.53-1.17,2.07-.91,2.43.44.61,3.45-.09,5.46-2.12s2.13-4.34,2.73-4.25.76,1.63.61,3c-.29,2.71-2.12,4.27-1.82,4.55s2-.85,3.34-2.43a11,11,0,0,0,2.08-3.87c.72-2.36.4-4,.65-4s1.21,2.39.91,5.16c-.23,2.1-1,3-.61,3.34.69.64,4.4-1.12,6.68-4.25,3.52-4.84,2.33-11.2,3-11.23.43,0,.32,2.36,1.82,5.16a14.53,14.53,0,0,0,5.46,5.46c2.08,1.29,4.78,2.36,5.16,1.82s-1.42-1.33-2.12-3.64c-.52-1.69-.14-3.25.61-6.37.57-2.36.94-2.64,1.21-2.73.71-.23,1.34.56,3.64,2.43a33.12,33.12,0,0,0,4.25,3c1.44.83,3.88,2,4.25,1.52s-1.12-1.45-2.12-3.94c-.56-1.4-1-3.41-.61-3.64s2.11,1.76,3,3.34a10.94,10.94,0,0,1,1.52,3.94c.38,2.39-.3,3.84,0,3.94.48.17,2.68-3.32,3.64-7.59.6-2.66,1.18-5.26,0-7.89-.77-1.72-1.91-2.61-1.52-3.34.57-1,3.58-.38,3.94-.3a8.67,8.67,0,0,1,4.85,2.73c2,2.4,1.78,5.17,2.43,5.16s1.12-2,1.21-3.94c.21-4.4-2-7.24-1.52-7.59s2.81,1.49,3.94,4.25c1.23,3,.46,5.68.91,5.76s1.45-2,1.82-4.55c.74-5.19-1.91-8.21-.61-9.41,1.11-1,4,.29,6.07,1.21,3.82,1.72,5,3.56,6.07,3,.29-.14.83-.59.61-6.37-.25-6.44-1-7.71-1.82-8.5a6.91,6.91,0,0,0-3-1.52,42.09,42.09,0,0,1,6.37,2.12c3.23,1.28,4,1.84,5.76,1.82,2.25,0,4.31-1,4.25-1.52s-1.54-.18-3.64-.91c-2.77-1-4.76-3-4.55-3.34s1.94,1.08,4.55.91a9.22,9.22,0,0,0,5.76-3c1.57-1.57,2.88-3.77,2.43-4.25s-1.58.86-3.94,1.21c-2.78.42-5.19-.69-5.16-.91s1.77.38,3.94-.3,3.84-2.34,3.64-2.73-.92.19-2.73.3a9.65,9.65,0,0,1-4.25-.61c-.09,0-1.92-.79-1.82-1.21s1.68-.07,3.94-.3a12.38,12.38,0,0,0,5.76-1.82c1.58-1.06,3.52-3.09,3-4.25-.31-.72-1.36-.65-3.34-1.21a21.19,21.19,0,0,1-5.16-2.43,16,16,0,0,1-5.46-7,25.89,25.89,0,0,1-2.12-7,85.59,85.59,0,0,1-1.21-13,76.73,76.73,0,0,0-2.73-16.08,72,72,0,0,0-6.37-15.78A56.9,56.9,0,0,0,138,24.39c-6-3.09-10.76-4.25-17-5.76a89.39,89.39,0,0,0-21.85-3,81.31,81.31,0,0,0-17.9,1.82A85.43,85.43,0,0,0,63,23.82C61.84,24.64,60.35,25.34,58.39,26.42Z" transform="translate(0 0.09)"/><path class="cls-5" d="M33.51,104.4a96.08,96.08,0,0,0,0-11.83c-.23-6.35-.43-11.9.91-18.2,1.12-5.28,2.15-10.12,6.07-14.26,4.26-4.5,9.83-6,9.41-7.28-.29-.91-3.12-1-4.55-.91-2.48.16-3.51,1.06-3.94.61-.78-.81,1.58-4.72,4.25-7.59a21.3,21.3,0,0,1,7.89-5.76c3.1-1.24,5.33-1.15,5.46-2.12s-2-2.2-3.64-2.73c-2.62-.87-4.36-.12-4.55-.61-.35-.88,4.94-4.62,11.53-6.68A28.74,28.74,0,0,1,76,25.52c4.68.74,8.25,2.74,8.8,1.82.39-.64-1-2.28-1.82-3.34-1.68-2-2.88-2.48-2.73-3,.23-.87,3.5-1.07,6.37-.3,1,.26,5.7,1.53,7,5.16.77,2.18-.23,3.73.61,4.25,1.1.68,3.92-1.34,5.76-3.64,3-3.68,2.76-7.27,3.94-7.28.95,0,2.19,2.27,1.82,4.25-.44,2.38-3,3.18-2.73,3.94.07.2.62,1.15,9.71-.61,6-1.17,5.71-1.56,8.19-1.82,6-.62,10.76,1.39,14,2.73,5.44,2.28,10,5.68,9.71,6.37-.23.47-2.65-.65-7.59-1.21-3.36-.38-6.93-.39-7,0s5.6.7,12.14,3.64A32.8,32.8,0,0,1,153,44c5.86,6.32,8.26,14.59,7.28,15.17-.5.3-1.61-1.57-4.85-4.25-5.22-4.32-10.91-6.57-11.23-6.07s5,3.2,10.62,9.71a39,39,0,0,1,7.59,12.14c2.47,6.64,2.45,13.21,2.43,17.6s-.51,7.44.91,11.83a15.67,15.67,0,0,0,3.64,6.68c4.12,4.17,9.81,4,9.71,4.85s-5.85.91-7,.91a18.33,18.33,0,0,1-6.07-.61c-1.88-.58-2.66-1.25-3-.91-.7.65,1.17,3.91,3,6.07,1.21,1.4,2.49,2.84,4.55,3.34,1.64.4,3,0,3,.3s-1.67,1.33-3.64,1.82c-3.29.82-5.91,0-6.07.61-.11.39,1.18.69,2.12,2.12s1.09,3,.61,3.34-1.17-1-3-1.82-4.3-.92-4.55-.3,1.51,1.06,2.43,3c.46,1,.42,2.4.3,5.16-.14,3.45-.49,3.61-.61,3.64-.4.09-.73-.83-1.52-1.82-1.17-1.47-3.78-3.67-6.07-3a4.46,4.46,0,0,0-3,4.25c.24,3.33,5.87,4.86,5.46,6.07-.25.76-2.73.89-4.85.3-3.45-1-5-3.54-5.76-3-.6.39-.15,2.23.3,3.34,1,2.36,2.67,3.17,2.43,3.64s-3.36.12-6.07-1.52c-2.22-1.34-3-2.75-3.94-2.43-.71.25-.6,1.18-1.52,3.34-.71,1.68-2,4.12-2.73,3.94-.42-.1-.27-1.1-.61-2.43-.68-2.69-3-5.46-4.55-5.16s-2.28,3.11-2.12,5.46c.26,3.86,3.34,6,2.73,6.68s-3.52-.31-5.46-2.43c-1.73-1.88-2-4-2.43-3.94s.07,2.22-.3,5.16-1.41,5.82-2.12,5.76-.38-2.22-1.52-5.16-3.77-6.76-5.46-6.37c-2,.45-2.35,6.24-2.43,7.28-.26,3.77.62,5.42-.3,6.07-1.25.88-4.9-.76-6.68-3.64-2.65-4.29.14-9.23-1.82-10.32-1.72-1-5.13,2.13-5.46,2.43-3.08,2.77-3.44,5.93-4.25,5.76s-1.32-3.17-.3-5.76c.92-2.34,2.69-3.23,2.43-3.64s-4.07.11-6.37,2.73c-2.62,3-1.74,6.61-3.34,7-1.15.27-2.82-1.33-3.34-3-.83-2.77,1.57-5.22.91-5.76s-3,1.16-4.55,3c-.7.83-2.89,3.43-2.43,6.37a12.08,12.08,0,0,0,.91,2.43c-.24.16-3.33-2.45-3.94-6.07s1.54-6.83,1.21-7S71,149.6,68.42,152c-2.45,2.3-5.74,3.73-6.37,3-.4-.44.54-1.38,1.21-3.64.84-2.8,1-6.68-.3-7.28-1-.44-2.83.84-3.64,2.43-1.15,2.24.07,4.54-.61,4.85s-2.15-1.15-3-3c-1.84-4,.06-8.4-.3-8.5s-.84,2.52-2.73,5.16c-1.6,2.23-3.79,4-4.25,3.64s.94-2,1.52-4.85c.75-3.74-.14-7.74-1.21-7.89-.73-.1-.93,1.65-3,3.94a15.74,15.74,0,0,1-5.16,3.64c-3.14,1.49-6.75,2.09-7,1.52s2-1.15,4.55-3.64a14.94,14.94,0,0,0,4.25-6.68c.3-1.07,1.57-5.68-.61-7.59-2.64-2.32-8.67.82-10,1.52-4.24,2.21-6,5-6.68,4.55s.35-3.88,2.73-6.37c2.83-3,6.5-3.44,6.37-3.94s-3,.27-7,0c-4.22-.29-8-1.57-7.89-2.12s2.5.19,5.46-.91c4.34-1.61,6.48-5.72,7-6.68C32.46,111.73,33.13,109.85,33.51,104.4Z" transform="translate(0 0.09)"/><path class="cls-7" d="M93.13,96c-.85-.19-1.45,2.32-4.25,5.76a24.38,24.38,0,0,1-7.59,6.37c-2.7,1.39-5.13,1.74-10,2.43-4.71.67-7.06,1-10,.61a21.26,21.26,0,0,1-11.53-4.85c-1.07-.93-5.58-4.84-6.37-10.62-1.37-10,9.42-18,13-20.63,2.73-2,11.39-8.2,23.06-7a22.08,22.08,0,0,1,10.32,3,17.74,17.74,0,0,1,6.68,6.68c1.06,2,1.26,3.53,2.12,3.64,1.17.15,1.65-2.94,3.94-6.07a20.83,20.83,0,0,1,6.07-5.16c5.35-3,11.07-2,16.08-1.21a39.18,39.18,0,0,1,16.69,7c3.38,2.53,7.63,5.69,9.71,11.53.72,2,2.43,6.82.3,11.53s-6.77,6.5-10.32,7.89c-1.8.7-11,4.27-20.94.61-8.33-3.06-12.6-9.45-14.87-7.89-1.17.81-1,3.18-.91,4.55.31,4.43,3,5.83,2.43,7.59-1.08,3.08-11.29,3.88-13.35.3-.74-1.3.14-2.2.61-6.37S94.34,96.32,93.13,96Z" transform="translate(0 0.09)"/><rect class="cls-2" x="89.8" y="108.89" width="19.42" height="9.41" rx="4.7" ry="4.7"/><path class="cls-2" d="M98,116.38a60.56,60.56,0,0,1,.91,7v8.19a82.13,82.13,0,0,0,.91-10.92v-3.94c0-2-.08-4.23-.3-4.25-.05,0,.33,2.14-.61,2.73-.3.19-.75.23-.91.61A.89.89,0,0,0,98,116.38Z" transform="translate(0 0.09)"/><path class="cls-5" d="M105.11,112.44H94.19a1.37,1.37,0,0,1,0-2.73h10.92a1.37,1.37,0,0,1,0,2.73Z" transform="translate(0 0.09)"/><path class="cls-8" d="M53.56,95.9a10.64,10.64,0,0,0,2.73,4.85c3.67,3.71,9.11,3.5,13.35,3.34a25.83,25.83,0,0,0,11.83-3A17.33,17.33,0,0,0,91.79,84.4c.07-3.2.12-5.85-1.52-8.19-2.84-4-8.7-4.18-11.53-4.25a24.51,24.51,0,0,0-14.26,4.55,26.5,26.5,0,0,0-8.5,9.1C54.45,88.32,52.56,91.81,53.56,95.9Z" transform="translate(0 0.09)"/><path class="cls-8" d="M144.56,95.9a10.64,10.64,0,0,1-2.73,4.85c-3.67,3.71-9.11,3.5-13.35,3.34a25.83,25.83,0,0,1-11.83-3A17.33,17.33,0,0,1,106.33,84.4c-.07-3.2-.12-5.85,1.52-8.19,2.84-4,8.7-4.18,11.53-4.25a24.51,24.51,0,0,1,14.26,4.55,26.5,26.5,0,0,1,8.5,9.1C143.69,88.32,145.61,91.81,144.56,95.9Z" transform="translate(0 0.09)"/><path class="cls-5" d="M67.95,89.58c-.09-1.21,1.25-2.3,2.73-3.5s3.81-3,6.82-2.73c1.27.14,2.75.29,3.55,2a5.74,5.74,0,0,1,.27,3.89,4.45,4.45,0,0,1-2.73,2.73,8.76,8.76,0,0,1-6.82.39C70.39,91.85,68.07,91.1,67.95,89.58Z" transform="translate(0 0.09)"/><path class="cls-5" d="M129.47,89.58c.09-1.21-1.25-2.3-2.73-3.5s-3.81-3-6.82-2.73c-1.27.14-2.75.29-3.55,2a5.74,5.74,0,0,0-.27,3.89,4.45,4.45,0,0,0,2.73,2.73,8.76,8.76,0,0,0,6.82.39C127,91.85,129.36,91.1,129.47,89.58Z" transform="translate(0 0.09)"/><path class="cls-9" d="M-77.94,143.77" transform="translate(0 0.09)"/><path class="cls-3" d="M2.22,290.31c7.86,10.88,59.4-6.91,60-22.49C62.5,259,49.56,250,34.65,251.25,11.06,253.15-3.44,282.47,2.22,290.31Z" transform="translate(0 0.09)"/><path class="cls-2" d="M21.42,251.86c-6.73,11.74-3.9,24.35-2.74,29.51,1.52,6.75,3.5,15.57,11,19.57,7.89,4.22,18.08,1,24.15-3.25,15.49-10.91,13-35.16,11.6-49.49-1-9.76-2.83-12-4.23-13.09C52.74,228.34,30.38,236.23,21.42,251.86Z" transform="translate(0 0.09)"/><path class="cls-3" d="M37.09,160.42c-1.35.21-5.29,1-11.31,8A55.76,55.76,0,0,0,14.35,190c-3.46,12.16-4.89,22.57-6,34.22-2.92,29.69-.48,31.38-4.43,44.64-2.77,9.29-3.5,20.43-1.62,21.42,1.33-3.48,1-5.35,7.42-11.18,12.14-11,12.63-11.52,14.26-12.66,3.78-2.67,10.35-7.19,19.69-8.35,2.11-.26,15-1.86,19.84,4.57,1.73,2.31,1.71,4.74,2.32,4.69,1.06-.07,1.79-7.54,1.74-20.44a314,314,0,0,0-3.33-45" transform="translate(0 0.09)"/><path class="cls-2" d="M55.4,257c25-1.65,51,5.27,76.71,9.88A241.76,241.76,0,0,1,164,275.11c7.28,2.48,16.89,7.67,17.12,13.83.12,3.25-2.4,8.28-19.1,15.8-32.72,14.74-61.65,12.13-119.51,6.91a22.51,22.51,0,0,1-10.21-3.29c-8.91-5.64-13.75-18.43-11.52-28C24.56,264.32,47.91,257.52,55.4,257Z" transform="translate(0 0.09)"/><path class="cls-3" d="M200.63,290.31c-7.86,10.88-59.4-6.91-60-22.49-.32-8.81,12.59-17.78,27.54-16.57C191.79,253.15,206.29,282.47,200.63,290.31Z" transform="translate(0 0.09)"/><path class="cls-2" d="M146.27,245.28c-7.9,7.47-6,12.52-5.6,27.88,0,1.08,2.43,6,3.29,17,.8,10.25,1.51,18.62,4.94,28.71,1.5,4.42,2.23,5.37,2.63,5.85,7.09,8.51,28,10,37.2,2.51,1.88-1.55,3.78-3.89,5.27-20.07,1.44-15.6-.19-14.9-.66-42.09-.11-6.61-.1-11.48-4-16.45-4.54-5.86-11.6-8.16-14.49-8.92C165.4,237.2,153,238.94,146.27,245.28Z" transform="translate(0 0.09)"/><path class="cls-3" d="M165.76,160.42c1.35.21,5.29,1,11.31,8A55.76,55.76,0,0,1,188.5,190c3.46,12.16,4.89,22.57,6,34.22,2.92,29.69.48,31.38,4.43,44.64,2.77,9.29,3.5,20.43,1.62,21.42-1.33-3.48-1-5.35-7.42-11.18-12.14-11-12.63-11.52-14.26-12.66-3.78-2.67-10.35-7.19-19.69-8.35-2.11-.26-15-1.86-19.84,4.57-1.73,2.31-1.71,4.74-2.32,4.69-1.06-.07-1.79-7.54-1.74-20.44a314,314,0,0,1,3.33-45" transform="translate(0 0.09)"/><path class="cls-2" d="M138.37,275.14c-.14-3.74,5.65-6.63,14.16-10.86,8-4,14-7,22.72-7.24a32.24,32.24,0,0,1,16.13,3c2.56,1.26,9.21,4.66,12.51,12.18A18.72,18.72,0,0,1,205.56,283c-.24,1.43-1.18,6-4.28,8.89-4.66,4.38-15.24,2.1-36.22-2.63a67.94,67.94,0,0,1-15-5.1C143.85,281.24,138.5,278.67,138.37,275.14Z" transform="translate(0 0.09)"/><path class="cls-2" d="M175.56,276.13c4.72-4,12.7-3,17.78-.33,5.48,2.82,7.81,7.63,9.22,10.54,1.56,3.2,4,8.18,2,13.17a12.24,12.24,0,0,1-4.28,5.27,18.78,18.78,0,0,1-19.75,1C170.43,299.8,168.11,282.4,175.56,276.13Z" transform="translate(0 0.09)"/><path class="cls-2" d="M155.81,284c5.8-6,18.34-1.4,23,.33,4.37,1.6,11.81,4.34,16.13,11.85a22.13,22.13,0,0,1,3,13.17,12.41,12.41,0,0,1-2,6.26c-3.24,4.54-9.73,4.83-12.18,4.94-12.11.54-26.76-8.47-30-21.73C153.36,296.86,151.37,288.62,155.81,284Z" transform="translate(0 0.09)"/><path class="cls-9" d="M147.56,272.5c1.59-2.14,3.8-3.51,8.23-6.26s7.47-4.62,11.85-5.93a35.34,35.34,0,0,1,22.06,1c3.53,1.39,7.58,3,9.88,7.24a14.8,14.8,0,0,1,1.65,7.57c0,1-.15,5.75-2,6.26-1.43.4-2.69-2.18-5.27-4.28-.44-.36-5.79-4.3-12.18-3.62-1.84.2-4,.8-4,1.32s3.5.47,8.23,2a31.7,31.7,0,0,1,8.89,4.61c2.48,1.83,3.88,2.86,4.94,4.94a10.84,10.84,0,0,1,.66,7.9c-.4,1.2-.85,2.54-2,3-1.54.58-2.94-1.09-6.26-3.29a34.79,34.79,0,0,0-11.4-5c-2.63-.54-5.2-.64-5.27-.33s3.76,1,8.56,3.29c4,1.88,7.47,3.54,9.22,7.24a9.5,9.5,0,0,1,.66,6.91c-.12.37-1.42,4.24-4.94,5.27a7,7,0,0,1-3.62,0c-4.35-1-6-3.7-10.86-7.57-6.11-4.84-7.34-3.6-9.55-6.91S163,292,160.43,291c-.69-.27-1.33-.3-4.94.33-6.62,1.16-7,1.7-7.9,1.32C143.8,291,142.39,279.52,147.56,272.5Z" transform="translate(0 0.09)"/><path class="cls-9" d="M150.88,316.29c-.87.59,0,3.87,1.65,6.26s4.37,3.84,7.9,4.94c9.09,2.84,19.77,2.81,20.08,1,.19-1.12-3.59-2.62-5.27-3.29-7.21-2.88-10.16-.49-15.8-3C154.06,319.86,151.93,315.57,150.88,316.29Z" transform="translate(0 0.09)"/><path class="cls-4" d="M147.25,171.43a49.27,49.27,0,0,0-6.58,8.89,52.18,52.18,0,0,0-5.93,16.13,67.24,67.24,0,0,0-1.32,16.46,80.84,80.84,0,0,0,.66,8.56" transform="translate(0 0.09)"/><path class="cls-4" d="M128.82,197.77A42.75,42.75,0,0,0,127.5,207a50.66,50.66,0,0,0,2,14.82,73.66,73.66,0,0,0,3,9.22" transform="translate(0 0.09)"/><path class="cls-4" d="M52.76,169.12a73.33,73.33,0,0,1,12.8,18.77,63.47,63.47,0,0,1,6.58,23.7,60.7,60.7,0,0,1-1,15.8" transform="translate(0 0.09)"/><path class="cls-4" d="M77.79,211.6a62.78,62.78,0,0,1-6.58,36.54" transform="translate(0 0.09)"/><path class="cls-4" d="M120.92,209.62A124,124,0,0,1,93.26,256.7" transform="translate(0 0.09)"/><path class="cls-10" d="M11.94,266.58c1.41.75,4.21-5.45,12.18-9.88,4.92-2.74,9.41-3.46,14.49-4.28,7-1.13,11.07-1.79,16.13-.33,4.17,1.2,6.78,3.2,8.23,2,.91-.77.63-2.2.33-6.91-.39-6.1.29-.38-.33-7.9-1-11.53-1.47-17.68-3-27.66-1.44-9.61-2.19-14.49-3.62-18.11-3.39-8.57-7.88-12.91-6.91-13.83s7.5,3,11.85,8.89a33.71,33.71,0,0,1,4,7.24c.17-.08-2-9.58-8.89-18.11-4-4.93-7.29-9.6-13.5-11.19a18.36,18.36,0,0,0-11.85,1c-5.14,2.36-7.89,6.88-7.57,7.24s2.8-2.36,7.24-3c1.2-.16,3.43-.29,3.62.33.25.8-3.18,1.92-7.24,4.94-2.49,1.85-6.35,4.72-8.23,9.55a17.11,17.11,0,0,0-1,8.23c-.64,11.35-.88,20.61-1,27-.27,16.49.28,19.76-1.32,27.66C13.63,259,10.47,265.79,11.94,266.58Z" transform="translate(0 0.09)"/><path class="cls-10" d="M144.62,191.84c.62-9,2.93-13.17,4-14.82,1.4-2.25,4.37-6.86,10.21-8.89A15.62,15.62,0,0,1,169,167.8c2,.69,5.33,2.41,9.88,10.54,1.62,2.89,4.78,8.92,7.57,22.06,1.13,5.31,1,6.26,2.3,14.16,3.61,22.32,7.1,31.37,3.62,33.58-.6.38-1.51.62-6.26-1-12.75-4.33-20.2-10.82-21.07-9.88-.54.59,1.54,4,4.94,7.24,9.17,8.68,21.18,9.32,21.07,9.88s-7.25-.79-18.77-2.63c-8-1.28-9.87-1.55-12.84-3-6.23-3-9-7.09-10.21-6.26-1,.72-.12,4.6,2.3,6.91,2.61,2.49,5.94,2.13,5.93,2.63,0,.86-9.67,3.49-13.5-.66-2.2-2.38-1.24-5.66,0-13.83,1.2-7.94,2.62-17.27,2.3-26.34C145.94,201.77,144,200.8,144.62,191.84Z" transform="translate(0 0.09)"/><path class="cls-10" d="M137,197.77c-.29-.1.9-5,3.29-10.86,2.2-5.42,3.3-8.14,5.6-10.54,4.63-4.83,12.23-7.17,13.83-5.27,1.24,1.48-.84,5.85-3.62,8.56-4,3.91-7.38,2.32-11.85,5.6C138.19,189.74,137.42,197.9,137,197.77Z" transform="translate(0 0.09)"/><path class="cls-10" d="M75.15,252.09c-.32-1.33,2.36-2.68,6.58-5.6a105.63,105.63,0,0,0,18.11-16.13A119.46,119.46,0,0,0,111,216.2c3.09-4.73,4.73-8.13,5.27-7.9.78.32-1.35,7.85-4,14.49-6.4,16.37-14.11,23.49-17.12,26a21,21,0,0,1-7.57,4.28C82.18,254.74,75.62,254,75.15,252.09Z" transform="translate(0 0.09)"/><path class="cls-10" d="M73.51,195.13c-.42.56,3.24,5.4,9.22,7.9,6.52,2.73,12.45,1.28,12.51,2S91,207,86,207c-5.21,0-8.23-1.68-8.56-1s2.72,3.51,6.58,4.61a15,15,0,0,0,6.26.33,60,60,0,0,0,16.46-4.61c4.23-1.92,8.39-3.81,12.84-7.9a40.21,40.21,0,0,0,6.58-7.9c4.56-7.13,6.2-14.56,5.6-14.82s-2.08,6.3-8.23,12.84a38.21,38.21,0,0,1-16.46,10.21,47,47,0,0,1-9.53,1.61c-3.92.38-7.49.72-11.52,0C78.24,199,73.93,194.56,73.51,195.13Z" transform="translate(0 0.09)"/><path class="cls-10" d="M122.89,224.11c-1.18,0-.87,5.92-4.61,14.82-4.58,10.9-11,16.22-9.88,17.45.91,1,5.59-1.69,8.56-4.28a23.67,23.67,0,0,0,6.91-10.86C126.41,232.94,124.31,224.16,122.89,224.11Z" transform="translate(0 0.09)"/><path class="cls-10" d="M82.4,219.83c-1.37.33-.81,4.21-2,10.54a51.07,51.07,0,0,1-4,12.51c-2.89,6.09-5.79,8.41-4.94,9.55s5.41-.15,8.56-2.3c5.69-3.89,7.16-10.36,7.57-12.18.28-1.23,1.8-8.4-2-14.82C85.15,222.21,83.56,219.54,82.4,219.83Z" transform="translate(0 0.09)"/><path class="cls-11" d="M81.56,131.92c.59-1.73,3.82-1.88,5.6-1.65,1,.14,1,.34,3.83,1a28.25,28.25,0,0,0,2.92.6c3.23.39,5.24-.6,5.33-.27s-2,1.82-4.42,2a9.61,9.61,0,0,1-2.95-.33c-1.21-.32-1.57-.65-2.95-1a6.32,6.32,0,0,0-2.36-.33c-2.28.33-3.05,3-4.12,2.63A2.23,2.23,0,0,1,81.56,131.92Z" transform="translate(0 0.09)"/><path class="cls-11" d="M98.56,131.26c.08-.19,1.32.43,3.62.66a13.6,13.6,0,0,0,3.29,0c2.4-.32,2.77-1.14,4.61-1a6.33,6.33,0,0,1,2.3.66c.67.32,2.12,1.15,2,1.65s-1.32.57-2.3.33-1.14-.71-2-1-1.57,0-3,.33a12.78,12.78,0,0,1-4.94.33C100,132.84,98.43,131.49,98.56,131.26Z" transform="translate(0 0.09)"/><path class="cls-7" d="M117.29,129.62a3.64,3.64,0,0,1,1,2.3v.25a5.23,5.23,0,0,1-1,3c-1.2,1.7-2.73,2-2.63,2.3s3.26.35,4.28-1.32C120.32,133.93,117.12,129.7,117.29,129.62Z" transform="translate(0 0.09)"/><path class="cls-7" d="M78.45,129a6.48,6.48,0,0,0-.66,3,5.22,5.22,0,0,0,1.65,3.29c2.48,2,6.66,0,6.91.66s-1.95,2.3-4.61,2.63c-2,.26-5.28-.22-6.26-2.3C74.08,133.21,78.23,128.85,78.45,129Z" transform="translate(0 0.09)"/><path class="cls-9" d="M146.56,281.39c-3.75,1.84-1.59,13.14-1.32,14.49a16.44,16.44,0,0,0,3.29,7.9c1.07,1.29,2.48,2.5,6.91,4.61a86.68,86.68,0,0,0,14.82,5.27c5.67,1.58,8.57,2.37,11.52,2.3,3.49-.08,8.08-.18,10.86-3.62a9.49,9.49,0,0,0,1.65-8.89c-1-2.66-3.4-4.27-14.16-7.9-13.87-4.68-14.84-3.68-20.41-6.58C151.56,284.68,149.14,280.14,146.56,281.39Z" transform="translate(0 0.09)"/><path class="cls-9" d="M151.86,271.19c-2.53-2.56-6.17-.23-16.13-.66-5.61-.24-7.38-1.1-17.45-3.29-12.48-2.71-21.78-4-30.95-5.27-13.22-1.83-18.72-2-24-1.65-10.28.62-14.48,2.62-15.8,3.29A31,31,0,0,0,34,277.44c-1.84,3.75-4.69,9.56-2.63,15.14,1.93,5.25,7.28,7.83,12.51,9.88,6.87,2.69,22.86,8.11,55,8.56,19.6.28,13.09-1.75,27.33-1.32,5.79.18,10.29.61,14.49-2.3,1.67-1.16,3.79-3.21,7.24-12.84C152.56,281.71,155.11,274.47,151.86,271.19Z" transform="translate(0 0.09)"/></svg>