<svg id="Слой_1" data-name="Слой 1" xmlns="http://www.w3.org/2000/svg" viewBox="0 0 120 222.93"><defs><style>.cls-1{fill:#0097a9;}.cls-2{isolation:isolate;}.cls-3{fill:#fff;}.cls-4{fill:#242325;}.cls-5{fill:#181719;}.cls-6{fill:#f1f3f1;}</style></defs><title>sbl</title><circle class="cls-1" cx="59.72" cy="51.47" r="51.47"/><path class="cls-1" d="M120,222.09c-30.28,1.6-89.72.53-120,0,0-59.27,18.17-107.32,60-107.32S120,162.82,120,222.09Z"/><g class="cls-2"><path class="cls-3" d="M28,209.22a14.5,14.5,0,0,0,7.34,2.07c4.19,0,6.63-2.21,6.63-5.41,0-3-1.69-4.66-6-6.3-5.17-1.83-8.37-4.51-8.37-9,0-4.94,4.09-8.61,10.25-8.61a14.4,14.4,0,0,1,7,1.55l-1.13,3.34a12.62,12.62,0,0,0-6-1.5c-4.33,0-6,2.59-6,4.75,0,3,1.93,4.42,6.3,6.11,5.36,2.07,8.09,4.66,8.09,9.31,0,4.89-3.62,9.12-11.1,9.12a16.38,16.38,0,0,1-8.09-2Z"/><path class="cls-3" d="M51.76,182.94a39.66,39.66,0,0,1,7.48-.66c4.09,0,6.73.71,8.7,2.3a6.65,6.65,0,0,1,2.63,5.6c0,3.06-2,5.74-5.36,7v.09c3,.75,6.54,3.24,6.54,7.95a8.55,8.55,0,0,1-2.68,6.35c-2.21,2-5.79,3-11,3a47.94,47.94,0,0,1-6.35-.38Zm4.09,13h3.72c4.33,0,6.87-2.26,6.87-5.31,0-3.72-2.82-5.17-7-5.17a17.58,17.58,0,0,0-3.62.28Zm0,15.19a21.93,21.93,0,0,0,3.43.19c4.23,0,8.14-1.55,8.14-6.16,0-4.33-3.71-6.11-8.18-6.11H55.85Z"/><path class="cls-3" d="M77.25,182.51h4.09v28.26H94.88v3.43H77.25Z"/></g><polygon class="cls-4" points="53.44 126.53 48.95 168.6 59.83 175.59 59.83 126.53 53.44 126.53"/><polygon class="cls-4" points="59.83 175.59 69.64 168.6 66.21 126.53 59.83 126.53 59.83 175.59"/><polygon class="cls-4" points="47.74 114.7 53.51 126.53 66.15 126.53 71.91 114.7 47.74 114.7"/><polygon class="cls-4" points="47.74 114.7 53.51 126.53 59.83 126.53 59.83 114.7 47.74 114.7"/><polygon class="cls-5" points="53.51 126.53 66.15 126.53 66.15 127.09 53.51 126.53"/><polygon class="cls-6" points="36.7 107.23 59.69 114.8 36.25 135.51 36.7 107.23"/><polygon class="cls-6" points="82.82 107.23 59.84 114.8 83.28 135.51 82.82 107.23"/></svg>