<svg id="Слой_1" data-name="Слой 1" xmlns="http://www.w3.org/2000/svg" viewBox="0 0 60 111.42"><defs><style>.cls-1{fill:#00cfe2;}.cls-2{isolation:isolate;}.cls-3{fill:#fff;}.cls-4{fill:#242325;}.cls-5{fill:#181719;}.cls-6{fill:#f1f3f1;}</style></defs><title>sp</title><circle class="cls-1" cx="29.86" cy="25.73" r="25.73"/><path class="cls-1" d="M60,111c-15.14.8-44.86.27-60,0C0,81.36,9.08,57.34,30,57.34S60,81.41,60,111Z"/><g class="cls-2"><path class="cls-3" d="M19.5,104.14a7.25,7.25,0,0,0,3.67,1c2.09,0,3.32-1.11,3.32-2.7s-.85-2.33-3-3.15c-2.59-.92-4.19-2.26-4.19-4.49,0-2.47,2-4.3,5.13-4.3a7.2,7.2,0,0,1,3.5.78L27.38,93a6.31,6.31,0,0,0-3-.75c-2.16,0-3,1.29-3,2.38,0,1.48,1,2.21,3.15,3.06,2.68,1,4,2.33,4,4.66s-1.81,4.56-5.55,4.56a8.19,8.19,0,0,1-4-1Z"/><path class="cls-3" d="M31.38,91a23.64,23.64,0,0,1,3.93-.31A6.51,6.51,0,0,1,39.75,92a4.26,4.26,0,0,1,1.39,3.32,4.67,4.67,0,0,1-1.22,3.39,6.57,6.57,0,0,1-4.84,1.74,7.07,7.07,0,0,1-1.65-.14v6.35h-2Zm2,7.64a6.84,6.84,0,0,0,1.69.17c2.47,0,4-1.2,4-3.39s-1.48-3.1-3.74-3.1a8.6,8.6,0,0,0-1.93.17Z"/></g><polygon class="cls-4" points="26.95 63.27 24.71 84.3 30.15 87.8 30.15 63.27 26.95 63.27"/><polygon class="cls-4" points="30.15 87.8 35.06 84.3 33.34 63.27 30.15 63.27 30.15 87.8"/><polygon class="cls-4" points="24.11 57.35 26.99 63.27 33.31 63.27 36.19 57.35 24.11 57.35"/><polygon class="cls-4" points="24.11 57.35 26.99 63.27 30.15 63.27 30.15 57.35 24.11 57.35"/><polygon class="cls-5" points="26.99 63.27 33.31 63.27 33.31 63.55 26.99 63.27"/><polygon class="cls-6" points="18.59 53.62 30.08 57.4 18.36 67.75 18.59 53.62"/><polygon class="cls-6" points="41.65 53.62 30.16 57.4 41.88 67.75 41.65 53.62"/></svg>