<svg id="Слой_1" data-name="Слой 1" xmlns="http://www.w3.org/2000/svg" viewBox="0 0 34.48 36.55"><defs><style>.cls-1{fill:#fff;}</style></defs><title>spiral</title><path class="cls-1" d="M137.34,176.57c.29.25.44-.15.53-.18C137.25,176.05,137.29,176.67,137.34,176.57Z" transform="translate(-114.33 -163.58)"/><path class="cls-1" d="M132,177.45l0-.19a3.56,3.56,0,0,0-.28.81A3.51,3.51,0,0,1,132,177.45Z" transform="translate(-114.33 -163.58)"/><path class="cls-1" d="M130.26,181.48c.34-.24.29-.59.27-1a1.73,1.73,0,0,1,.26-1.27l.2,0a4.9,4.9,0,0,1-.33-.59,4,4,0,0,0-.35,1.59A11.62,11.62,0,0,1,130.26,181.48Z" transform="translate(-114.33 -163.58)"/><path class="cls-1" d="M129.77,184.58c.14-.33.54.45-.3-.68,0,.08,0,.1,0,.15Z" transform="translate(-114.33 -163.58)"/><path class="cls-1" d="M129.47,184.05c-.31-.55,0,.48,0,0Z" transform="translate(-114.33 -163.58)"/><path class="cls-1" d="M131.44,186a4,4,0,0,1-.76-.29c0,.26.56.72.28.65C131.7,186.74,131.63,186.49,131.44,186Z" transform="translate(-114.33 -163.58)"/><path class="cls-1" d="M132.28,186l-.36-.09C131.94,186,132,186,132.28,186Z" transform="translate(-114.33 -163.58)"/><path class="cls-1" d="M131.17,185.58a6.7,6.7,0,0,0,.75.28c0-.16.11-.34-.33-.13C131.77,185.58,131.54,185.69,131.17,185.58Z" transform="translate(-114.33 -163.58)"/><path class="cls-1" d="M130.89,185.18c-.19-.43-.44-.86.22-.5-.49-.45-.75-.64-.83-.53S130.34,184.69,130.89,185.18Z" transform="translate(-114.33 -163.58)"/><path class="cls-1" d="M131,181.61a3.36,3.36,0,0,1,.17-.4,3.1,3.1,0,0,1-.24-.33C131,181,130.78,181.65,131,181.61Z" transform="translate(-114.33 -163.58)"/><path class="cls-1" d="M135.72,187.68c0-.15-.26-.39-.31-.59l-.53.15C135.14,187.37,135.67,187.47,135.72,187.68Z" transform="translate(-114.33 -163.58)"/><path class="cls-1" d="M135.41,187.09a7.36,7.36,0,0,0,.75-.3C135.49,186.82,135.37,186.92,135.41,187.09Z" transform="translate(-114.33 -163.58)"/><path class="cls-1" d="M132.77,185.32a5.18,5.18,0,0,1-1.24-.19,5.48,5.48,0,0,0,1.42.28Z" transform="translate(-114.33 -163.58)"/><path class="cls-1" d="M138.83,186.88q-.13.26-.29.53a6.59,6.59,0,0,0,.53-.87C139,186.65,138.92,186.77,138.83,186.88Z" transform="translate(-114.33 -163.58)"/><path class="cls-1" d="M140.52,185.57c-.06.47.71,0,.56.39a2.49,2.49,0,0,0,.42-.78,4.69,4.69,0,0,0,.13-.73,1.72,1.72,0,0,1-.36.6A2.52,2.52,0,0,1,140.52,185.57Z" transform="translate(-114.33 -163.58)"/><path class="cls-1" d="M141.7,183.69c0,.21,0,.48-.07.75A1.72,1.72,0,0,0,141.7,183.69Z" transform="translate(-114.33 -163.58)"/><path class="cls-1" d="M137.42,186.6a.78.78,0,0,0,.73.19l-.44-.29Z" transform="translate(-114.33 -163.58)"/><path class="cls-1" d="M137.69,186.5h0a6.13,6.13,0,0,0,.6-.23A4.66,4.66,0,0,1,137.69,186.5Z" transform="translate(-114.33 -163.58)"/><path class="cls-1" d="M137.35,186.62l.07,0S137.36,186.56,137.35,186.62Z" transform="translate(-114.33 -163.58)"/><path class="cls-1" d="M134.29,186.28c.47-.15,1.22-.35.54-.79C134.53,185.74,134.95,186,134.29,186.28Z" transform="translate(-114.33 -163.58)"/><path class="cls-1" d="M136.87,186.2a6.13,6.13,0,0,1-.73,0c0,.11.18.25,0,.4A6,6,0,0,0,136.87,186.2Z" transform="translate(-114.33 -163.58)"/><polygon class="cls-1" points="22.85 22.39 22.54 22.62 22.81 22.58 22.85 22.39"/><path class="cls-1" d="M140.63,184.58a3.4,3.4,0,0,1,.41-1l-.84,1C140.27,184.65,140.32,185,140.63,184.58Z" transform="translate(-114.33 -163.58)"/><path class="cls-1" d="M139.3,185.69l0-.07C139.29,185.62,139.25,185.63,139.3,185.69Z" transform="translate(-114.33 -163.58)"/><polygon class="cls-1" points="27.75 16.3 27.67 16.36 27.74 16.38 27.75 16.3"/><path class="cls-1" d="M140.1,184.53a.93.93,0,0,0-.4.62l.51-.63C140.18,184.46,140.15,184.43,140.1,184.53Z" transform="translate(-114.33 -163.58)"/><path class="cls-1" d="M142,182.56c-.14.13-.3.28-.44.44C141.76,182.91,142.1,182.66,142,182.56Z" transform="translate(-114.33 -163.58)"/><path class="cls-1" d="M139.52,185.64l0,0C139.64,185.69,139.6,185.66,139.52,185.64Z" transform="translate(-114.33 -163.58)"/><path class="cls-1" d="M139.52,185.64a1.36,1.36,0,0,0,.18-.49c-.13.17-.25.32-.35.47Z" transform="translate(-114.33 -163.58)"/><path class="cls-1" d="M139.28,179.12a.59.59,0,0,1,.38,1c.23.49,1.59.42,2.34-.21-.18,0-.31,0-.59-.69-.17.27-.51,1.4-.85.87-.18-.76.13-.62.32-1-.22.19-.44,0-.68-.25a.78.78,0,0,0-.88-.22,3.9,3.9,0,0,1,.36.5C139.57,179.12,139.36,179,139.28,179.12Z" transform="translate(-114.33 -163.58)"/><path class="cls-1" d="M141.8,181.29l0,.3a4.91,4.91,0,0,1,.71-1c-.14-.54-.31-.64-.43-.68a6.93,6.93,0,0,1-.23,1.45Z" transform="translate(-114.33 -163.58)"/><path class="cls-1" d="M141.35,182.85c-.28-.4-.25-1.05-.81-.85-.27.69.14.63.07,1.14.5-1.22.06.47.7-.3a2.38,2.38,0,0,1-.25.73l.52-.57,0,0h0c-.07,0-.11,0-.06,0a.07.07,0,0,1,0,0,.52.52,0,0,1-.12-.13c.25-.34.13,0,.12.13l.05,0h0a7.1,7.1,0,0,0,.26-1.42C141.66,181.87,141.58,182.23,141.35,182.85Z" transform="translate(-114.33 -163.58)"/><path class="cls-1" d="M135.47,184.61a.16.16,0,0,1,0,.1C135.57,184.65,135.59,184.62,135.47,184.61Z" transform="translate(-114.33 -163.58)"/><path class="cls-1" d="M135.91,184.85c-.07.06-.12.24-.39.21s0-.21,0-.35c-.13.11-.55.29-.05.52l.08-.06c.43.15,1.18.55,1.12.61A6,6,0,0,0,135.91,184.85Z" transform="translate(-114.33 -163.58)"/><path class="cls-1" d="M138.69,184.6a4.86,4.86,0,0,0,.6-.86,4,4,0,0,1-.61.1l.17.15C138.39,184.29,138.64,184.41,138.69,184.6Z" transform="translate(-114.33 -163.58)"/><path class="cls-1" d="M142.29,179.75l.45.17a6.71,6.71,0,0,0-.67-.69C142.15,179.39,142.23,179.57,142.29,179.75Z" transform="translate(-114.33 -163.58)"/><polygon class="cls-1" points="27.74 14.61 28.14 14.59 27.8 14.23 27.74 14.61"/><path class="cls-1" d="M141.54,171.81l-.21-.06A.53.53,0,0,0,141.54,171.81Z" transform="translate(-114.33 -163.58)"/><path class="cls-1" d="M142.41,172.88l.18-.09C142.46,172.8,142.38,172.83,142.41,172.88Z" transform="translate(-114.33 -163.58)"/><path class="cls-1" d="M128.59,189.81c.11.55.2,1.31.41.92l.14-.43A1,1,0,0,1,128.59,189.81Z" transform="translate(-114.33 -163.58)"/><path class="cls-1" d="M145.06,184.63l-.16,0,.24.41Z" transform="translate(-114.33 -163.58)"/><path class="cls-1" d="M143.6,183.58a3.35,3.35,0,0,0,.42-.22A2,2,0,0,0,143.6,183.58Z" transform="translate(-114.33 -163.58)"/><path class="cls-1" d="M134.62,168.75l-.29.41C134.66,169.2,134.55,169,134.62,168.75Z" transform="translate(-114.33 -163.58)"/><path class="cls-1" d="M129.9,173.09a2.6,2.6,0,0,0-1,.3C129.45,173.33,129.94,173.46,129.9,173.09Z" transform="translate(-114.33 -163.58)"/><path class="cls-1" d="M145.39,169.19c-.17-.07-.29-.07-.36,0C145.2,169.27,145.33,169.29,145.39,169.19Z" transform="translate(-114.33 -163.58)"/><path class="cls-1" d="M127.92,174.15l.23-.07a2.51,2.51,0,0,1,.72-.68A1,1,0,0,0,127.92,174.15Z" transform="translate(-114.33 -163.58)"/><path class="cls-1" d="M119.24,187.38a.59.59,0,0,1,0,.08C119.26,187.44,119.26,187.42,119.24,187.38Z" transform="translate(-114.33 -163.58)"/><path class="cls-1" d="M120,197.83a2.57,2.57,0,0,1-.33-.31A.8.8,0,0,0,120,197.83Z" transform="translate(-114.33 -163.58)"/><path class="cls-1" d="M138.62,173.12c.29.14.07,0,0,0Z" transform="translate(-114.33 -163.58)"/><path class="cls-1" d="M138.72,175.33a.28.28,0,0,0-.22.09A.35.35,0,0,1,138.72,175.33Z" transform="translate(-114.33 -163.58)"/><path class="cls-1" d="M128.37,177.86v0C128.47,177.86,128.45,177.86,128.37,177.86Z" transform="translate(-114.33 -163.58)"/><path class="cls-1" d="M138.9,173.54a1.36,1.36,0,0,0-.26-.33A4.15,4.15,0,0,0,138.9,173.54Z" transform="translate(-114.33 -163.58)"/><path class="cls-1" d="M139,173.34l.2.19C139.24,173.5,139.24,173.44,139,173.34Z" transform="translate(-114.33 -163.58)"/><path class="cls-1" d="M138.22,172.92a2.06,2.06,0,0,1,.42.3c0-.06,0-.09,0-.09Z" transform="translate(-114.33 -163.58)"/><path class="cls-1" d="M121.94,171.86h-.06C121.88,172.14,121.91,172.05,121.94,171.86Z" transform="translate(-114.33 -163.58)"/><path class="cls-1" d="M135.6,188l0,0,0,0Z" transform="translate(-114.33 -163.58)"/><path class="cls-1" d="M136.23,187.72c-.27.53-.44.47-.63.33,0,.43.07.85.13,1.26Q136,188.52,136.23,187.72Z" transform="translate(-114.33 -163.58)"/><path class="cls-1" d="M138.78,169.88l.2.57c-.8.28-1-.09-.92.59.35-.58.75-.4,1.14-.2s.74.45,1.18-.07l.07.4c-.06-.06-.12,0-.19-.07,0,.85.94-.48,1.42.18.11.27.09.54-.15.52l.65.2c.1.14-.11.26-.21.12a7.52,7.52,0,0,1,.64.63l0,0a2.8,2.8,0,0,1,.89.09c0,.31-.18,0-.29.12l.55.27c-.2.35-.71.17-.84-.15-.45.57-.34.59-.11.65s.55.16.39.77l-.34-.33c-.58.61-.15.76-.44,1.38.24-.17.71-1.36,1.25-1,0,.18,0,.37.35.55-.45.17-.24.39-.11.71l-.62.16c.26.29.57.18.91.33.06.43-.44.61-.83.77,0,.64.71-.58,1,.17a1.27,1.27,0,0,0,0,.77c.1.25.29.51.46.86-.23.4-.39-.08-.58.06l.5.37c0,.09-.17,0-.25,0,.19.32.65.07.76.58.34.11,0,.35-.23.62s-.62.55-.3,1c-.21.1-.36-.17-.61-.19a8.12,8.12,0,0,0,.57,1.67l-.63.37c.6-.2.94.57,1,1.27a4.46,4.46,0,0,0,.69-.13l-.17,1c-.15,0-.28-.16-.44-.42,0,.08,0,.16,0,.22-.36.16-.59-.19-.79-.56l.49-.07a2,2,0,0,0-.87-.88.49.49,0,0,1,0,.31c-.07-.1-.13-.17-.2-.18s0,.13.09.32l-.7-.21.22.18a7.91,7.91,0,0,1-.92.56c.18,1,.54,2.2-.33,3.26-.06-.61-.47-.71-.83-1.22.32.17.47,0,.56-.3a1.57,1.57,0,0,1,.39-.77c-.25.18-.41-.08-.44-.21a9.2,9.2,0,0,1-.32,1.11c-.3-.41-.41-.17-.73-.19.76.7-.23,1-.47,1.44-.18-.29-.24-.62.21-.82-.43-.19-.41.17-.44.51s-.06.73-.45.56c.11-.06.2,0,.17-.23-.14.42-.95.42-.87.1l.11,0-.72.18c-.26.09-.54.17-.8.26-.51.22-1,.44-1,.88,0-.11.09-1,.12-1.21a10.51,10.51,0,0,1-1.78,2.77c.22-.71,0-2.49.68-2.82a.7.7,0,0,0-.81-.09c.09.13.14,1.11-.06,1.14a9.87,9.87,0,0,0-.69-1.34c.14.21-.39,1.24-.73,1.09.11-.15.35-1.07.5-1.15a7.53,7.53,0,0,1-1.16.75c.28-.1.41-.86.4-1.21,0,.25-.56-.31-.78-.32l.15.39c-.34-.28-.72-.07-1.15.12s-.91.4-1.26,0c.26-.08,1.14-.9.93-1.28a6.94,6.94,0,0,1-1.65.66,2.6,2.6,0,0,1-2.06-.19l.18-.35a6.74,6.74,0,0,1-.72-.56,17.59,17.59,0,0,0,2.1.19,13.35,13.35,0,0,0,2-.14c0-.39.22-.3-.05-.62.17-.3.49-.1.59,0a4.67,4.67,0,0,1-.35-.83c-.57.4-.92-.31-1.42-.06a5.81,5.81,0,0,0,1.14.63,1.72,1.72,0,0,1-1.22.29,1.14,1.14,0,0,1-1-.78c.18-.3,1.17-.27,1.37-.39-.25,0-.66-.53-.5-.65l.42.2c.07-.23-.18-.32-.4-.46s-.36-.33-.08-.62c0-.19.83-.54.43-.55a9.06,9.06,0,0,1-3.7.3,4.11,4.11,0,0,1,1.18-1.54c.32-.15.66.06,1,.23a1.22,1.22,0,0,0,.92.23.88.88,0,0,1-.45-.31c.19-.17.54.16.54-.25-.65-.21.24-.82-.52-.32-.1-.48.26-.4.38-.88-.48,0-1.22-1-1.1-1.61a1,1,0,0,0,.51.13,7.41,7.41,0,0,1,1.86-1.64c.18.08.62,0,.65.34,0-.17,0-.42.21-.57.71.26-.43.37.26.78-.2-.35.25-.79.52-1.15-.35-.55-.89.28-1,.68a2,2,0,0,1,.69-2.67c.87-.47.54.42.66.25a2.4,2.4,0,0,0,1.51-.81,1.08,1.08,0,0,1,1.48-.16c.51.64-.17,1.05-.1,1.46-.68.1-1-.46-1.51-.42a4.61,4.61,0,0,1,.58.25,1,1,0,0,1-.91.18c.24.23.86.18,1.56.32a3.19,3.19,0,0,1,1.85.88c.25-.06.66,0,.63-.31l-.36-.12c-.12-.57.95-.14.61-.58a2,2,0,0,1,2,.9l-.35.52c.13-.12-.09-.67-.41-.67.23,0,.31.4.41.72s.2.61.63.56a4.83,4.83,0,0,0,0-.74c.62.28,1.66.78,1.76,1.71.42-.59-.11-.15.28-1-.29.44-.5-.11-.78-.57s-.59-.84-.7-.22a1.17,1.17,0,0,0-.13-1.06,3.52,3.52,0,0,1-.5-1.12c-.1.19,0,.47-.54,0a.93.93,0,0,1-.23.05l0,0,0,0s0,0,0,0a.76.76,0,0,1,.11.46c-.55.15-1.42-.42-1.85-.32-.31-.25.25-.14.14-.43-.22,0-.42.07-.63.12.14-.43-.81-1.06.24-1a8.13,8.13,0,0,0-.88-.29,2,2,0,0,0-1.72-.42c-.45-.13-1.09.5-.73.14a8.76,8.76,0,0,0-1.38.43l0-.11a5.28,5.28,0,0,0-1.95.9,6.58,6.58,0,0,1-2.1,1,6.69,6.69,0,0,1-1.12,1.34l-.39-.12c-.25.52-1.31,1.29-1.06,1.72-.6.05-1,.73-1.17,1.52s-.17,1.65-.31,2.17l.5.09A4.68,4.68,0,0,0,125,183l.44-.1c.45.62,0,1.84.51,2.91-.2,0-.26-.29-.23-.52a1.87,1.87,0,0,0,.85,1.94c.57.49,1.17.83,1.33,1.52a.8.8,0,0,1,.54.52l-.07,0,.09.09a5,5,0,0,0,.17.47,1.62,1.62,0,0,0-.12-.42,2.26,2.26,0,0,0,.83.44l-.17.47.07,0c.18.35.35,0,.41-.43a1.35,1.35,0,0,0,.51,0c-.18.79.86.2.79,1.1.2-.13.61,0,1,0a1,1,0,0,0,1.07-.41c0,.11,0,.19-.11.14a.94.94,0,0,0,1,.22l0,.63a7.9,7.9,0,0,0,.9-.68c.39.43.6.67.06,1.08a7.31,7.31,0,0,1,1.06-.41,1.91,1.91,0,0,0,.86-.49l0,.4c.35,0,.83-.59,1.06-.31a3.07,3.07,0,0,0,2.45-.17c1.07-.35,2.17-.94,3.2-1.3-.5-.35-.24-.38.09-.43s.73-.16.46-.51c.27.13.59,0,.5.45a4.75,4.75,0,0,1,.93-.92.93.93,0,0,0,.38-1c.29.07.19.42.38.44,0-.11,0-.41.2-.4s.1.26.09.47c.61-.92-.05-1.47-.7-2,.57-.23.66-.5.37-1,.31,0,.7-.17.48.42.23-.26,1.26-1.83.63-2.09.19-.05.2-.45.16-.55a6,6,0,0,0,.41-1.55c0,.06-.09.13-.14.19-.7-.43-.08-.64-.09-1.25l.08,0c.34-.66.25-.83.21-1s-.06-.28.2-1l-.47.1c-.52,0-.38-.33-.18-.73s.41-.91.16-1.27l-.22.33c-.38-.33,1.11-1.48,1.1-2,.06-.13.18.12.28.24.23-1.39-.64,0-1.07-.79.26-.28.89-.08.73-.7.08-.2-.36-.54-.8-.9s-.87-.77-.81-1.3c-.12.3-.26.58-.64.33a4.7,4.7,0,0,1-.37-1.16c-.13-.44-.35-.82-.86-.75a.29.29,0,0,1,.07-.22c-.25-.11-.57-.35-.92-.52a1.51,1.51,0,0,0-1-.2c.39-.79-.35-1.09-1-1.29s-1.31-.29-.92-1a11.71,11.71,0,0,0-1.32-.62l.1-.12a1.42,1.42,0,0,0-1.69,0c-.16-.16,0-.25.08-.32a3.11,3.11,0,0,0-1.28-.57,3.44,3.44,0,0,0-1.33.37l0-.51c-.17.09-.61-.16-1.21-.39a2.7,2.7,0,0,0-2-.12.33.33,0,0,1,.15-.22,2.92,2.92,0,0,1-1.21.1c-.42,0-.86-.17-1.27-.19-.82-.07-1.53,0-1.58,1l-.82.67c1.22-.17,0,.8.6,1-.4.19-1.3-.15-.79-.44l.11.06c-.08-1-1.53.2-1.74-.4a18.88,18.88,0,0,0-6.28,3.78l.71.3-.57.57c-.27,0-.63-.15-.21-.58-.52,0-.39,1-.27,1.07-.9.72-.4-.88-.61-.62s-.17.28-.25.42l.13,0c0,.5.25.71-.18,1.24-.37.27-.5-.07-.63.05,0,0-.1,0-.17.21s-.39.57-.58.85l.7-.06c0,.53-.5.8.3.73-1.29,0-2,3.16-2.31,3.46a3.61,3.61,0,0,1-.2,2c.16-.16.81-.1.6.49-.63-.26-.84,0-1,.37s-.27.85-.79,1.06c.35-.2.33.28.34.72s.13.84.59.51c-.13.53-.5,0-.83.4a5.25,5.25,0,0,1,0,2.16c0,.39-.09.79-.11,1.19a4.6,4.6,0,0,0,.16,1.22c.18,0,.4-.31.71,0-.24.33-.49.67-.72,1,.17.31,1.06.06.62.78.12-.12.31-.29.42-.1a5.86,5.86,0,0,0,.1,1.21A10.85,10.85,0,0,0,116,191a14.49,14.49,0,0,0,1.09,2.18c.41.7.86,1.37,1.22,2.11a10.5,10.5,0,0,1,1,2.37c0-.55.18-.35.42-.11-.09-.22.33-.28.48-.47l.43,1.44c.63-.3,1.12.94,1.63.56l-.39-.19c.89-.21.54-1.74,1.28-2.36-.51.14-.53-.38-.61-.85s-.21-.92-.95-.89c0-.28.34-.06.45-.29-.45.08-.69-.09-.84-.6h.12a3.72,3.72,0,0,1-.82-1.51c-.19-.49-.25-1.06-.46-1.8l-.38.3a1,1,0,0,1,.06-.64c-.83-.07.37.86-.5.87a.78.78,0,0,0,.14-.69,4.78,4.78,0,0,0-.21-.81c-.19-.54-.33-1.09.17-1.38-.12-.49-.49.3-.61-.2l.25-.21-.4,0a.69.69,0,0,1,.54-.65c0,.08.13.2.17.28.2-.47-.34-1.14-.26-1.31l-.11.5c-.56-1.32-.21-3-.74-4.38l-.23.09c-.31-1.09.34-.81.3-2l0,.05a1.07,1.07,0,0,1-.11-.9c.19.34.62-.41.81,0-.18-1.2-.21-.61-.78-1.58l.41-.05a1.06,1.06,0,0,1-.29-1c.14.58.64-.15.87.51a1.32,1.32,0,0,0,.6-1.27c0-.4,0-.72.7-.67-.31-.48-.57-.33-.75-.09s-.24.57-.29.38c-.42.1-.5-.78-.19-1.07s1.45,0,2-.74c-.06.07,0,.12-.06.2.42-.14.12-.77.72-.88-.35-.58.36-.44-.2-1-.15.25-.26.56-.39.83a8.35,8.35,0,0,0,0-1,.94.94,0,0,1,.63-.85,1.66,1.66,0,0,1,0,.69c.33,0,.2-.46.54-.48.54.61-.6.89-.44,1.7.39,0,.19-1.1.67-.37-.56-1,.66-.58.55-1.58l.29.37c0-.12,0-.42.16-.54l.17.68c0-.75,1-.26,1.18-.74-.76.59-.52-.32-1.07-.34.65-1.27,1.29.53,2.28-.33-.11.15-.72.11-.6-.23a1.42,1.42,0,0,1,.9.07c.75-.46-.35-.37-.14-.79.54.38.3-.4.6-.76l.19.44c1.08-.09-.11-1,.94-1l-.16.77.41-.33.08.56c.37-.56.58-.47,1.11-.46-.19-.29-.14-.9.35-1,.38.23-.1.48.55.31-.11.32-.19.72-.55.33,0,.16-.08.32-.08.48.39.27.82-.05,1.05-.1a.41.41,0,0,1-.26-.07,7.25,7.25,0,0,1,.87-.77c.16.17.05.32-.05.47.18-.06.3-.29.59-.35-.06.4,0,.8-.39,1a8.51,8.51,0,0,1,.85-.47c.06.17.44.48.32.62.23.13.52-.08.84-.21a1,1,0,0,1,1-.08.35.35,0,0,1,.27-.16c.59.23,1,.78,1.79.52q.08.4.13.78c.57.06-.19-1,.78-.92.72.08,0,.65.12.93.44-.22,1.31-.54,1.56.26C139,170.1,139,169.93,138.78,169.88Zm4.85,4.67c-.15-.08-.54-.17-.33-.39C143.86,174.05,143.67,174.29,143.63,174.55Zm0,10.58c-.07-.18.1-.27.36-.33A.51.51,0,0,1,143.66,185.13Zm-8.34-12.84,0,0C134.83,172.05,135,172.15,135.32,172.28Zm.94.43c.11,0,.13-.1.11-.18-.1.09-.32,0-.57,0C135.84,172.63,135.94,172.74,136.26,172.72Zm-18.36-.92.2-.06C118,172.11,118,172,117.9,171.8Z" transform="translate(-114.33 -163.58)"/><path class="cls-1" d="M143.77,183.7a.81.81,0,0,1,.26.07C144,183.68,143.9,183.64,143.77,183.7Z" transform="translate(-114.33 -163.58)"/><path class="cls-1" d="M134.67,168.68h0a.35.35,0,0,0,0,.08Z" transform="translate(-114.33 -163.58)"/><path class="cls-1" d="M129.28,180.91a.59.59,0,0,1-.28.19A.23.23,0,0,0,129.28,180.91Z" transform="translate(-114.33 -163.58)"/><path class="cls-1" d="M141.28,175.34l-.55-.53a1.06,1.06,0,0,1,.28.63C141.09,175.37,141.14,175.15,141.28,175.34Z" transform="translate(-114.33 -163.58)"/><path class="cls-1" d="M139.52,181c0,.08,0,.15,0,.23l.22,0C139.82,180.91,139.68,180.68,139.52,181Z" transform="translate(-114.33 -163.58)"/><path class="cls-1" d="M140.25,176.72c-.33.24,0,.48.18.84a.28.28,0,0,1,0-.07C141,177.41,140.62,177,140.25,176.72Z" transform="translate(-114.33 -163.58)"/><path class="cls-1" d="M140.47,177.65a1.06,1.06,0,0,1,.14.36C140.84,178,140.61,177.84,140.47,177.65Z" transform="translate(-114.33 -163.58)"/><path class="cls-1" d="M137.56,172.93c.15.19.35-.41.4-.21.24-.17-.19-.2-.5-.13S137,172.8,137.56,172.93Z" transform="translate(-114.33 -163.58)"/><path class="cls-1" d="M139.2,177.61l.39-.34-.45,0A2.8,2.8,0,0,1,139.2,177.61Z" transform="translate(-114.33 -163.58)"/><path class="cls-1" d="M137.69,175.33a5.32,5.32,0,0,1,.36.45c0-.07.13-.06.23,0C138,175.49,137.76,175.21,137.69,175.33Z" transform="translate(-114.33 -163.58)"/><path class="cls-1" d="M138.28,175.75a1,1,0,0,0,.4.27A1.08,1.08,0,0,0,138.28,175.75Z" transform="translate(-114.33 -163.58)"/><path class="cls-1" d="M138.71,177.06v-.18c-.07-.11-.13-.22-.2-.32C138.58,176.72,138.64,176.89,138.71,177.06Z" transform="translate(-114.33 -163.58)"/><path class="cls-1" d="M131.84,174.35l-.53.35c0,.18.2.22.38.08S132,174.47,131.84,174.35Z" transform="translate(-114.33 -163.58)"/><path class="cls-1" d="M133.74,175.4c-.14-.09-.15-.21-.25-.37l0,.62Z" transform="translate(-114.33 -163.58)"/><path class="cls-1" d="M132.34,175.78c0,.18-.46.7.06.46C132.38,176.05,132.81,175.81,132.34,175.78Z" transform="translate(-114.33 -163.58)"/><polygon class="cls-1" points="13.19 17.95 13.19 17.81 12.17 17.78 13.19 17.95"/><path class="cls-1" d="M132.17,186c-.25-.49-.51.44-.65-.1-.25.1.12.44-.1.52C131.85,186.43,131.89,186.64,132.17,186Z" transform="translate(-114.33 -163.58)"/><path class="cls-1" d="M131.42,186.43h-.22A.46.46,0,0,0,131.42,186.43Z" transform="translate(-114.33 -163.58)"/><polygon class="cls-1" points="6.6 35.92 6.84 36.41 6.82 35.94 6.6 35.92"/><path class="cls-1" d="M122.14,199.55l-.33.58.59-.26C122.3,199.82,122.11,199.72,122.14,199.55Z" transform="translate(-114.33 -163.58)"/><path class="cls-1" d="M142.76,175.91l.16,0c.14-.1.13-.18.1-.33Z" transform="translate(-114.33 -163.58)"/><polygon class="cls-1" points="26.46 8.38 26.51 8.44 26.8 7.91 26.46 8.38"/><path class="cls-1" d="M137.11,170.46c.13.09.35,0,.49.13C137.25,170.55,137.36,169.77,137.11,170.46Z" transform="translate(-114.33 -163.58)"/></svg>