<svg id="Слой_1" data-name="Слой 1" xmlns="http://www.w3.org/2000/svg" viewBox="0 0 16.35 47.87"><defs><style>.cls-1{fill:#fff;}.cls-2{fill:none;stroke:#fff;stroke-linecap:round;stroke-linejoin:round;}</style></defs><title>wave-top-center</title><path class="cls-1" d="M128.77,206.7a4,4,0,0,0,.46,0A3.32,3.32,0,0,0,128.77,206.7Z" transform="translate(-122.67 -158.84)"/><polygon class="cls-1" points="5.18 47.55 5.35 47.56 4.93 47.49 5.18 47.55"/><path class="cls-1" d="M127.88,206.1c-.71,0,.11.12-.15.15h-.16l.57.07C128.05,206.24,127.68,206.12,127.88,206.1Z" transform="translate(-122.67 -158.84)"/><path class="cls-1" d="M129.42,206.16c-.28,0-.24-.06-.09,0h.07S129.4,206.16,129.42,206.16Z" transform="translate(-122.67 -158.84)"/><path class="cls-1" d="M129.4,206.17s.23,0,0,0Z" transform="translate(-122.67 -158.84)"/><path class="cls-1" d="M129.25,206l.24.07a2.56,2.56,0,0,1,.32,0A2.3,2.3,0,0,0,129.25,206Z" transform="translate(-122.67 -158.84)"/><path class="cls-1" d="M128.74,205.93l.1,0C128.91,206,128.93,206,128.74,205.93Z" transform="translate(-122.67 -158.84)"/><path class="cls-1" d="M129.06,206l-.22-.07c-.11,0-.34-.05.08,0C128.71,206,128.91,206,129.06,206Z" transform="translate(-122.67 -158.84)"/><path class="cls-1" d="M128.95,206a1.48,1.48,0,0,1-.49-.07C128.55,206.06,129,206.11,128.95,206Z" transform="translate(-122.67 -158.84)"/><path class="cls-1" d="M127.15,206h-.21l.24.06C127.06,206,127.37,206,127.15,206Z" transform="translate(-122.67 -158.84)"/><path class="cls-1" d="M129.65,206l-.59-.12.16.06A3.09,3.09,0,0,1,129.65,206Z" transform="translate(-122.67 -158.84)"/><path class="cls-1" d="M129.06,205.84l-.24-.09S128.89,205.8,129.06,205.84Z" transform="translate(-122.67 -158.84)"/><polygon class="cls-1" points="5.29 46.94 5.82 47.1 5.28 46.93 5.29 46.94"/><polygon class="cls-1" points="7.03 47.03 7.37 47.13 6.86 46.97 7.03 47.03"/><path class="cls-1" d="M129.66,205.79l.65.18-.49-.19C129.93,205.84,129.89,205.84,129.66,205.79Z" transform="translate(-122.67 -158.84)"/><path class="cls-1" d="M129.5,205.67l.31.12Z" transform="translate(-122.67 -158.84)"/><path class="cls-1" d="M128.91,205.71l.43.08-.42-.09Z" transform="translate(-122.67 -158.84)"/><path class="cls-1" d="M128.9,205.7h0l0,0Z" transform="translate(-122.67 -158.84)"/><path class="cls-1" d="M128.9,205.72h0S128.85,205.7,128.9,205.72Z" transform="translate(-122.67 -158.84)"/><path class="cls-1" d="M128.36,205.75a3.2,3.2,0,0,0-.83-.2C127.8,205.63,128,205.65,128.36,205.75Z" transform="translate(-122.67 -158.84)"/><path class="cls-1" d="M128.38,205.61l-.11,0,.39.09Z" transform="translate(-122.67 -158.84)"/><polygon class="cls-1" points="5.58 46.71 5.71 46.77 5.75 46.76 5.58 46.71"/><path class="cls-1" d="M129.11,205.6c-.17-.07-.18-.09-.21-.12s-.13,0-.14,0A1.42,1.42,0,0,0,129.11,205.6Z" transform="translate(-122.67 -158.84)"/><path class="cls-1" d="M129,205.64h0S128.9,205.62,129,205.64Z" transform="translate(-122.67 -158.84)"/><path class="cls-1" d="M128.95,205.3l-.07,0,.07,0Z" transform="translate(-122.67 -158.84)"/><path class="cls-1" d="M128.68,205.49c-.08,0,0,0,.14.08,0,0-.06,0-.06-.06Z" transform="translate(-122.67 -158.84)"/><path class="cls-1" d="M129.32,205.56l-.23-.05C129.22,205.54,129.43,205.6,129.32,205.56Z" transform="translate(-122.67 -158.84)"/><path class="cls-1" d="M129.06,205.65h0C129.17,205.68,129.13,205.67,129.06,205.65Z" transform="translate(-122.67 -158.84)"/><path class="cls-1" d="M129.06,205.65l-.25-.09.13.06Z" transform="translate(-122.67 -158.84)"/><path class="cls-1" d="M126.41,204.23c.37.15.69.35.28.26a22.32,22.32,0,0,0,2.19.79,2.91,2.91,0,0,1-.52-.24,4.13,4.13,0,0,1-.82-.25c-.17-.14.15,0,.35,0-.47-.15-.63-.35-1.31-.61l.2.16A2.82,2.82,0,0,0,126.41,204.23Z" transform="translate(-122.67 -158.84)"/><path class="cls-1" d="M128.82,205.33l0,0a3.87,3.87,0,0,1,.52.14l-.44-.19-.07.05Z" transform="translate(-122.67 -158.84)"/><path class="cls-1" d="M128.85,205.43c-.41-.14-.57-.25-1-.37,0,.07.33.15.5.24-.08-.11.22.09.47.12a.31.31,0,0,1,.1.07l.2,0h0l-.05,0h0l-.15-.05a.33.33,0,0,1,.15.05l.06,0h0l-.21-.14C128.8,205.36,128.81,205.38,128.85,205.43Z" transform="translate(-122.67 -158.84)"/><path class="cls-1" d="M126.63,205.31l.1,0S126.65,205.3,126.63,205.31Z" transform="translate(-122.67 -158.84)"/><path class="cls-1" d="M126.9,205.32c.06,0,.22.06.17.08a1.91,1.91,0,0,1-.34-.07,1.35,1.35,0,0,0,.51.12l-.06,0a4.37,4.37,0,0,1,.75.09C127.55,205.43,127.28,205.38,126.9,205.32Z" transform="translate(-122.67 -158.84)"/><path class="cls-1" d="M127.78,205.3l-.18-.13-.37-.06.22.06C127.35,205.18,127.62,205.25,127.78,205.3Z" transform="translate(-122.67 -158.84)"/><polygon class="cls-1" points="6.48 46.53 6.9 46.7 6.31 46.44 6.48 46.53"/><polygon class="cls-1" points="6.45 46.44 6.82 46.59 6.6 46.49 6.45 46.44"/><path class="cls-1" d="M131,197.6l0-.11A.53.53,0,0,0,131,197.6Z" transform="translate(-122.67 -158.84)"/><path class="cls-1" d="M130.81,197.68l.09.17A.69.69,0,0,0,130.81,197.68Z" transform="translate(-122.67 -158.84)"/><path class="cls-1" d="M130.26,203.76c.26.27.65.69.37.35l-.28-.33C130.38,203.85,130.34,203.83,130.26,203.76Z" transform="translate(-122.67 -158.84)"/><path class="cls-1" d="M130.42,200.54l-.08-.11.19.37Z" transform="translate(-122.67 -158.84)"/><path class="cls-1" d="M129.53,199l.19.21A1.8,1.8,0,0,0,129.53,199Z" transform="translate(-122.67 -158.84)"/><path class="cls-1" d="M131.71,196.67l-.2-.39S131.6,196.49,131.71,196.67Z" transform="translate(-122.67 -158.84)"/><path class="cls-1" d="M129.35,204.56a1,1,0,0,0,.25.11C129.38,204.55,129.07,204.35,129.35,204.56Z" transform="translate(-122.67 -158.84)"/><path class="cls-1" d="M133.16,201.67a1.17,1.17,0,0,0-.11-.24A.93.93,0,0,0,133.16,201.67Z" transform="translate(-122.67 -158.84)"/><path class="cls-1" d="M129.64,204.63l-.09-.05c0,.06.09.1.05.1C129.76,204.77,129.86,204.83,129.64,204.63Z" transform="translate(-122.67 -158.84)"/><path class="cls-1" d="M133.76,195.31l0,0Z" transform="translate(-122.67 -158.84)"/><path class="cls-1" d="M138.22,195.2s0,0,0,.08S138.28,195.24,138.22,195.2Z" transform="translate(-122.67 -158.84)"/><path class="cls-1" d="M129.42,205.13s0,0,0,0Z" transform="translate(-122.67 -158.84)"/><path class="cls-1" d="M127.85,204.43l-.18-.1Z" transform="translate(-122.67 -158.84)"/><path class="cls-1" d="M127.66,202.77h0C127.59,202.72,127.61,202.73,127.66,202.77Z" transform="translate(-122.67 -158.84)"/><path class="cls-1" d="M129.24,205.06l.12,0Z" transform="translate(-122.67 -158.84)"/><path class="cls-1" d="M129.42,205.15h0C129.44,205.17,129.48,205.19,129.42,205.15Z" transform="translate(-122.67 -158.84)"/><path class="cls-1" d="M129.41,205.1s0,0-.05,0l.06,0Z" transform="translate(-122.67 -158.84)"/><path class="cls-1" d="M133.89,197l0,0C133.82,196.89,133.83,196.92,133.89,197Z" transform="translate(-122.67 -158.84)"/><path class="cls-1" d="M128.07,199.78v0h0Z" transform="translate(-122.67 -158.84)"/><path class="cls-1" d="M128,199.45c.27.47.21.43.12.36l.76,1Z" transform="translate(-122.67 -158.84)"/><path class="cls-1" d="M131.36,197.26l-.25-.31c-.25-.6-.1-.43-.42-.88.66,1.19-.14.24.52,1.43l-.17-.23s0-.07,0-.06c-.38-.53.42.89.23.77a1,1,0,0,1-.26-.39l.08.34s-.14-.22-.11-.21l-.07.16,0,0,.26.64c-.12-.15-.05-.13-.14-.28l.09.32c-.2-.29-.31-.62-.24-.6-.72-1.15.11.33-.4-.29l0-.18c-.41-.65-.33-.38-.63-.76a7.72,7.72,0,0,1,.82,1.32c-.07-.08-.12-.11,0,.15-.23-.42-.21-.3-.25-.25l-.31-.56a6.13,6.13,0,0,0,.31.74,3.63,3.63,0,0,1-.55-.81c-.14,0,.45.66.4.83-.2-.17-.13.09,0,.48-.16-.16-.18-.35-.29-.49l.2.47a1.1,1.1,0,0,1-.13-.21,8,8,0,0,1,.33.75c.33.62-.64-.82-.32-.08-.11-.15-.19-.35-.32-.56a6.61,6.61,0,0,0,.36,1l-.29-.32a5.85,5.85,0,0,1,.69,1.35l.32.43.08.35a4.2,4.2,0,0,1-.29-.52l.06.14a4.62,4.62,0,0,1-.48-.83l.24.32c-.17-.35-.37-.73-.56-1.05a.63.63,0,0,1,.06.17,2.44,2.44,0,0,0-.13-.23c0-.06,0,.07.09.22l-.39-.6.14.25-.36-.3a13.09,13.09,0,0,1,.77,2c-.24-.46-.45-.73-.78-1.25.39.53,0-.31.12-.25A1.17,1.17,0,0,1,129,199l.17.6a1.18,1.18,0,0,0-.38-.46c.56.83.25.63.36.92-.19-.28-.36-.58-.25-.55-.49-.58.54,1.05.12.56,0,0,0,0,0-.13.12.27-.1.14-.24-.12v0c-.18,0-.35.22.13.93l-.67-1q.72,1.25,1.48,2.47a27.21,27.21,0,0,1-1.65-2.36c-.09-.06-.19-.14-.1.11a8,8,0,0,1,.69.89,9.22,9.22,0,0,0-.8-.81,5.88,5.88,0,0,1,.72,1c-.1-.14-.69-.9-.75-1l.58,1a8.76,8.76,0,0,0-.8-1c.15.16-.11.06-.07.17l.21.17c-.23,0,.87,1.32.74,1.35a8.36,8.36,0,0,0-1-1.18c.34.47,1.68,2.21,1.92,2.6l-.23-.23.2.33a31.1,31.1,0,0,1-2-2.75c-.21-.16-.27-.28-.32-.2-.23-.21-.27-.39-.26-.42h-.3c.46.49.33.62.71,1l-.3-.68c.45.5,1.18,1.51,1,1.51-.21-.17-.8-.89-1-1.05.14.18.2.42.08.31l-.2-.3c-.24-.12.52.73,0,.34-.05,0-.69-.53-.41-.25.59.49,2.28,2.16,2.67,2.59,0,0-.62-.43-.92-.66-.47-.38-1-1-1.39-1.36a3.9,3.9,0,0,1,.32.36c-.14-.08-.4-.4-.4-.29.49.47-.14.08.4.42.1.19-.15,0-.19.06a11,11,0,0,1,1.2,1.21c-.13-.11-.31-.25-.39-.31s-.41-.07-.5,0a3.09,3.09,0,0,1-.56-.36c.08.09.26.24.25.28-.53-.28,0-.13-.63-.5a2.86,2.86,0,0,1,.54.6c.51.34.17,0,0-.23a12.76,12.76,0,0,1,1.6,1.39c.12.18-.47-.28-.38-.2-.23.05,1.18.9.61.67s-.92-.54-1.26-.73c-.14-.18.35.07.35,0l-.24-.08c-.14-.12-.23-.24-.09-.18-.43-.21-.22.22-.68.14a2.14,2.14,0,0,0,.49.32l0-.07c.4.17.49.35.7.4s.65.44.4.39l-.56-.25c.16.07.35.12.19,0,.23.14-.8-.25-.09.11l.41.14c.26.17.83.48.63.44.57.22-.06,0,.61.22-.82-.33.09-.07-.78-.42.76.32.35.09,1,.37-.18-.09-.35-.16-.25-.15l-.16-.09h0l-.28-.12a3,3,0,0,1-.56-.42c.1,0,.2.12.39.21l-.3-.2a5.9,5.9,0,0,1,.88.49l0,0c.23.1.33.13.17,0,.09,0-.4-.31-.11-.11l-.19-.21.09.06c.09,0-.5-.56.21-.14-.08-.09-.17-.2,0-.15l.31.24c-.09-.11.35.18,0-.09.81.66.24,0,.43.13l-.37-.35c.05,0,0-.14-.12-.32l-.32-.31c-.22-.3.32.14.34.05.11.13.07.11,0,0,.75.69-.35-.69.21-.2-.09-.14,0-.11,0,0v0h0l.18.16-.18-.17s0-.08-.05-.18l.31.37h0c.13.12-.13-.19-.37-.46l-.15-.25c.5.59-.1-.25.44.38a7.9,7.9,0,0,0-.58-1c.07.09.11.12.1.14s.17.12.05-.1l.38.48-.43-.71a4.17,4.17,0,0,1,.64.85c-.34-.65-.1-.27-.44-.91l.22.33s-.24-.5,0-.24c.48.58.38-.12.91.37-.65-1,.35.4-.12-.37a3.67,3.67,0,0,1,.36.57c-.06-.28.34.3,0-.39.15.23.19.36.28.49,0-.05-.1-.22,0-.09a1.56,1.56,0,0,1,.16.32,6.64,6.64,0,0,0-.77-1.51c.24.3.23.24,0-.23.15.22.31.44.3.55s.39.22.07-.33c.09.13.07,0,0-.05s.13,0,.17-.05l-.07-.08c-.35-.69,0-.18,0-.3l0,.07c.4.41-.07-.27.37.22l-.24-.41c-.49-.91.41.47.3.08l-.16-.22c-.13-.33.8,1.16.9,1.25a.52.52,0,0,1,.07.2c.41.47-.29-.56-.28-.73a4.59,4.59,0,0,0,.48.79c.16.22-.37-1.05,0-.53a2.66,2.66,0,0,1-.34-.63c0-.11.64.78.3,0l.11.17a2.82,2.82,0,0,0-.21-.8c.85,1.42-.1-.87.65.46l.11-.16.07.14c.15,0,0-.3-.16-.64a1.34,1.34,0,0,1,.17.28c.29.19.28.12,0-.6l.26.42c-.12-.26.6.54.45,0a1.56,1.56,0,0,1,.1.2c-.16-.59,1.14.91.2-.64l-.15-.43c-.21,0-.42-.66-.64-.88,0-.12.43.37.42.49l-.06-.07c.51.79.35.18.71.7.23-.23.81,0,1.1-.2l-.5-.54.11,0c.13.11.41.41.32.44.3.29-.12-.34-.23-.47.31.1.52.69.56.66l0-.09-.07-.05c-.16-.26-.37-.5-.27-.55s.33.31.37.31.06,0,0,0l.16-.07-.45-.37c-.15-.25.12-.08-.39-.49.78.64.63-.13.9,0-.26-.33-.2-.4-.1-.46-.11,0-.63-.44-.52-.46,1.05.83.56.21,1.41.68-.57-.29,0-.35-.79-.73.14,0,.43.26.73.37-.34-.44.57-.23.51-.59a3.37,3.37,0,0,1-.64-.31l.86.22c-.06-.09-.92-.43-.32-.29a1.25,1.25,0,0,1-.4-.16c.49-.08.42-.41.41-.67s0-.49.83-.69c-.35,0-.38,0-.38-.07a4.93,4.93,0,0,1-.67-.06l.68-.16c-.66-.07,0-.24-.65-.27l.11.07c-.74-.09-1.67.06-2.62,0,.84.12-1.27,0-.07.21-.2,0-.3-.05-.53-.07.41.06.49.1.3.12l-.1,0c.08.13-.29.13-.6.14l.46.11a1.66,1.66,0,0,1-.34-.05c.68.22.07-.05.82.18-.94-.23-.1.2-1.13-.15,0,0,.52.18.5.21l-.28-.1.35.15a3.85,3.85,0,0,1-.65-.22s-.06,0-.08-.05c-.33-.12.09.1,0,.07l.17,0c.25.21-.17.1.29.49l.19.11c.3.3-.24-.08-.13.11l0,0c.17.15.25.24.21.25-.2-.18-.43-.27-.64-.47.31.34.27.25.85.83l-.3-.23c.24.23.37.35.4.46-.2-.25-.45-.35-.73-.66-.68-.47.48.68-.42-.1.7.76.48.32.62.5s.52.56.41.53-1-.87-1-.8,0-.06,0-.06c-.2-.17.2.31-.12,0,.4.48-.06,0,.46.61,0-.07,0-.14-.06-.2.11.19.68.93.3.65-.1-.13-.21-.3-.27-.4s.06.15-.12,0c-.51-.61,0-.2-.38-.69-.23-.24.3.49-.24-.17.68.85-.16-.05.32.63l-.3-.37c0,.06.16.25.14.25l-.36-.5c.29.44-.36-.3-.22,0,.07-.07.37.44.62.68.28.59-.83-.93-.79-.67,0-.06.22.19.33.38a2.48,2.48,0,0,1-.38-.38c0,.14.3.39.44.65-.36-.45.1.22.17.4l-.28-.39c-.27-.18.55.84.24.6l-.34-.58,0,.17-.3-.46c.18.37.1.3,0,.2a2.48,2.48,0,0,1,.44.78c-.19-.22-.23-.4-.26-.29-.15-.26-.34-.59-.07-.24l-.23-.39c-.21-.25-.13,0-.15,0a.25.25,0,0,1,.09.08l.26.62a2.2,2.2,0,0,1-.24-.4,2.44,2.44,0,0,1,.11.31,6.72,6.72,0,0,1-.48-.86l.14.42c-.1-.14-.29-.37-.36-.5s.28.73,0,.51a.83.83,0,0,1,.08.19c-.12,0-.42-.42-.24.1l-.4-.58c0,.18.51.73.53,1s-.33-.5-.45-.66c.14.33.42,1,.07.54C131.3,197.24,131.37,197.32,131.36,197.26Zm-.72.76c0-.1-.15-.39,0-.15C130.89,198.36,130.75,198.14,130.64,198Zm-.83,1.81c-.07-.15,0-.09.11.05S129.89,199.91,129.81,199.82Zm-.66,5h0C129.3,204.85,129.24,204.82,129.15,204.79Zm-.2-.06.17.1c-.1-.06-.11-.08-.07-.07S128.86,204.67,128.95,204.73Zm7.34-5.53-.1-.07C136.12,199,136.2,199.09,136.29,199.21Z" transform="translate(-122.67 -158.84)"/><path class="cls-1" d="M129.63,199.16l.14.22A.91.91,0,0,0,129.63,199.16Z" transform="translate(-122.67 -158.84)"/><polygon class="cls-1" points="9.08 37.91 9.08 37.91 9.04 37.83 9.08 37.91"/><path class="cls-1" d="M126.51,201.18a1.14,1.14,0,0,1,.21.14C126.64,201.24,126.56,201.18,126.51,201.18Z" transform="translate(-122.67 -158.84)"/><path class="cls-1" d="M129.55,205.34l-.1-.08s-.08,0-.16,0Z" transform="translate(-122.67 -158.84)"/><path class="cls-1" d="M126.65,204.57c.05,0,0,0,.06,0l.21.07S126.75,204.57,126.65,204.57Z" transform="translate(-122.67 -158.84)"/><path class="cls-1" d="M128.08,204.71c-.37-.16-.26-.08-.21,0s0,0,0,0C128.39,204.92,128.23,204.82,128.08,204.71Z" transform="translate(-122.67 -158.84)"/><path class="cls-1" d="M127.88,204.7s0,0,0,0C128.08,204.82,127.92,204.74,127.88,204.7Z" transform="translate(-122.67 -158.84)"/><path class="cls-1" d="M129.15,204.93c-.1,0,.45.25.31.18C129.91,205.37,128.94,204.74,129.15,204.93Z" transform="translate(-122.67 -158.84)"/><polygon class="cls-1" points="4.17 45.35 4.64 45.54 4.28 45.36 4.17 45.35"/><path class="cls-1" d="M127.32,204.07h-.15a.64.64,0,0,1,.15.09S127.45,204.14,127.32,204.07Z" transform="translate(-122.67 -158.84)"/><path class="cls-1" d="M127.31,204.16s0,0,.05.08S127.36,204.2,127.31,204.16Z" transform="translate(-122.67 -158.84)"/><polygon class="cls-1" points="4.08 45.21 4.18 45.23 4.24 45.21 4.08 45.21"/><path class="cls-1" d="M127.73,203.55l-.08-.13c-.14-.1-.23-.15-.19-.09A1.26,1.26,0,0,0,127.73,203.55Z" transform="translate(-122.67 -158.84)"/><path class="cls-1" d="M126.45,203a2.8,2.8,0,0,1,.34.17l-.52-.34Z" transform="translate(-122.67 -158.84)"/><path class="cls-1" d="M126.47,202.7c-.14-.1-.33-.38-.37-.27C126.24,202.54,126.3,202.68,126.47,202.7Z" transform="translate(-122.67 -158.84)"/><polygon class="cls-1" points="5.17 43.43 5.16 43.45 5.89 44.15 5.17 43.43"/><path class="cls-1" d="M127,199.71c-.24-.12.38.5.11.32.13.2.22.15.33.32C127.35,200.12,127.47,200.21,127,199.71Z" transform="translate(-122.67 -158.84)"/><path class="cls-1" d="M127.47,200.35l.07.14Z" transform="translate(-122.67 -158.84)"/><polygon class="cls-1" points="16.13 36.08 16.35 36 16 36.05 16.13 36.08"/><path class="cls-1" d="M138.05,194.75l.65,0-.58,0S138.2,194.74,138.05,194.75Z" transform="translate(-122.67 -158.84)"/><path class="cls-1" d="M129.87,196.94l.07.14c.09.14.11.15.14.16Z" transform="translate(-122.67 -158.84)"/><polygon class="cls-1" points="8.1 38.17 8.08 38.16 8.38 38.66 8.1 38.17"/><path class="cls-1" d="M130.89,196.08s0,.12,0,.11S131.26,196.71,130.89,196.08Z" transform="translate(-122.67 -158.84)"/><path class="cls-1" d="M128.64,182.75a4,4,0,0,0,.46,0A3.32,3.32,0,0,0,128.64,182.75Z" transform="translate(-122.67 -158.84)"/><polygon class="cls-1" points="5.05 23.6 5.22 23.61 4.81 23.54 5.05 23.6"/><path class="cls-1" d="M127.75,182.14c-.71,0,.11.12-.15.15h-.16l.57.07C127.93,182.29,127.55,182.17,127.75,182.14Z" transform="translate(-122.67 -158.84)"/><path class="cls-1" d="M129.29,182.2c-.28,0-.24-.06-.09,0h.07S129.27,182.21,129.29,182.2Z" transform="translate(-122.67 -158.84)"/><path class="cls-1" d="M129.28,182.22s.23,0,0,0Z" transform="translate(-122.67 -158.84)"/><path class="cls-1" d="M129.12,182.09l.24.07a2.56,2.56,0,0,1,.32,0A2.3,2.3,0,0,0,129.12,182.09Z" transform="translate(-122.67 -158.84)"/><path class="cls-1" d="M128.61,182l.1,0C128.78,182,128.8,182,128.61,182Z" transform="translate(-122.67 -158.84)"/><path class="cls-1" d="M128.93,182.08l-.22-.07c-.11,0-.34-.05.08,0C128.58,182,128.78,182,128.93,182.08Z" transform="translate(-122.67 -158.84)"/><path class="cls-1" d="M128.82,182.09a1.48,1.48,0,0,1-.49-.07C128.42,182.11,128.92,182.16,128.82,182.09Z" transform="translate(-122.67 -158.84)"/><path class="cls-1" d="M127,182h-.21l.24.06C126.93,182.08,127.24,182.07,127,182Z" transform="translate(-122.67 -158.84)"/><path class="cls-1" d="M129.52,182l-.59-.12.16.06A3.09,3.09,0,0,1,129.52,182Z" transform="translate(-122.67 -158.84)"/><path class="cls-1" d="M128.93,181.89l-.24-.09S128.77,181.85,128.93,181.89Z" transform="translate(-122.67 -158.84)"/><polygon class="cls-1" points="5.16 22.99 5.7 23.15 5.16 22.98 5.16 22.99"/><polygon class="cls-1" points="6.9 23.07 7.24 23.18 6.73 23.02 6.9 23.07"/><path class="cls-1" d="M129.53,181.84l.65.18-.49-.19C129.8,181.89,129.77,181.89,129.53,181.84Z" transform="translate(-122.67 -158.84)"/><path class="cls-1" d="M129.38,181.71l.31.12Z" transform="translate(-122.67 -158.84)"/><path class="cls-1" d="M128.78,181.76l.43.08-.42-.09Z" transform="translate(-122.67 -158.84)"/><path class="cls-1" d="M128.78,181.75h0l0,0Z" transform="translate(-122.67 -158.84)"/><path class="cls-1" d="M128.78,181.77h0S128.72,181.75,128.78,181.77Z" transform="translate(-122.67 -158.84)"/><path class="cls-1" d="M128.23,181.8a3.2,3.2,0,0,0-.83-.2C127.68,181.68,127.89,181.7,128.23,181.8Z" transform="translate(-122.67 -158.84)"/><path class="cls-1" d="M128.25,181.66l-.11,0,.39.09Z" transform="translate(-122.67 -158.84)"/><polygon class="cls-1" points="5.46 22.76 5.58 22.81 5.62 22.81 5.46 22.76"/><path class="cls-1" d="M129,181.65c-.17-.07-.18-.09-.21-.12s-.13,0-.14,0A1.42,1.42,0,0,0,129,181.65Z" transform="translate(-122.67 -158.84)"/><path class="cls-1" d="M128.85,181.69h0S128.78,181.67,128.85,181.69Z" transform="translate(-122.67 -158.84)"/><path class="cls-1" d="M128.82,181.35l-.07,0,.07,0Z" transform="translate(-122.67 -158.84)"/><path class="cls-1" d="M128.55,181.54c-.08,0,0,0,.14.08,0,0-.06,0-.06-.06Z" transform="translate(-122.67 -158.84)"/><path class="cls-1" d="M129.2,181.61l-.23-.05C129.1,181.59,129.3,181.65,129.2,181.61Z" transform="translate(-122.67 -158.84)"/><path class="cls-1" d="M128.94,181.7h0C129,181.73,129,181.72,128.94,181.7Z" transform="translate(-122.67 -158.84)"/><path class="cls-1" d="M128.94,181.7l-.25-.09.13.06Z" transform="translate(-122.67 -158.84)"/><path class="cls-1" d="M126.28,180.27c.37.15.69.35.28.26a22.32,22.32,0,0,0,2.19.79,2.91,2.91,0,0,1-.52-.24,4.13,4.13,0,0,1-.82-.25c-.17-.14.15,0,.35,0-.47-.15-.63-.35-1.31-.61l.2.16A2.82,2.82,0,0,0,126.28,180.27Z" transform="translate(-122.67 -158.84)"/><path class="cls-1" d="M128.69,181.38l0,0a3.87,3.87,0,0,1,.52.14l-.44-.19-.07.05Z" transform="translate(-122.67 -158.84)"/><path class="cls-1" d="M128.72,181.48c-.41-.14-.57-.25-1-.37,0,.07.33.15.5.24-.08-.11.22.09.47.12a.31.31,0,0,1,.1.07l.2,0h0l-.05,0h0l-.15-.05a.33.33,0,0,1,.15.05l.06,0h0l-.21-.14C128.67,181.4,128.68,181.43,128.72,181.48Z" transform="translate(-122.67 -158.84)"/><path class="cls-1" d="M126.51,181.36l.1,0S126.52,181.35,126.51,181.36Z" transform="translate(-122.67 -158.84)"/><path class="cls-1" d="M126.77,181.37c.06,0,.22.06.17.08a1.91,1.91,0,0,1-.34-.07,1.35,1.35,0,0,0,.51.12l-.06,0a4.37,4.37,0,0,1,.75.09C127.42,181.48,127.15,181.43,126.77,181.37Z" transform="translate(-122.67 -158.84)"/><path class="cls-1" d="M127.66,181.35l-.18-.13-.37-.06.22.06C127.22,181.23,127.49,181.3,127.66,181.35Z" transform="translate(-122.67 -158.84)"/><polygon class="cls-1" points="6.35 22.58 6.78 22.75 6.18 22.48 6.35 22.58"/><polygon class="cls-1" points="6.32 22.49 6.69 22.64 6.48 22.54 6.32 22.49"/><path class="cls-1" d="M130.88,173.65l0-.11A.54.54,0,0,0,130.88,173.65Z" transform="translate(-122.67 -158.84)"/><path class="cls-1" d="M130.69,173.73l.09.17A.69.69,0,0,0,130.69,173.73Z" transform="translate(-122.67 -158.84)"/><path class="cls-1" d="M130.14,179.81c.26.27.65.69.37.35l-.28-.33C130.25,179.9,130.21,179.88,130.14,179.81Z" transform="translate(-122.67 -158.84)"/><path class="cls-1" d="M130.29,176.59l-.08-.11.19.37Z" transform="translate(-122.67 -158.84)"/><path class="cls-1" d="M129.4,175l.19.21A1.8,1.8,0,0,0,129.4,175Z" transform="translate(-122.67 -158.84)"/><path class="cls-1" d="M131.58,172.72l-.2-.39S131.48,172.54,131.58,172.72Z" transform="translate(-122.67 -158.84)"/><path class="cls-1" d="M129.23,180.61a1,1,0,0,0,.25.11C129.26,180.6,128.94,180.4,129.23,180.61Z" transform="translate(-122.67 -158.84)"/><path class="cls-1" d="M133,177.72a1.17,1.17,0,0,0-.11-.24A.93.93,0,0,0,133,177.72Z" transform="translate(-122.67 -158.84)"/><path class="cls-1" d="M129.51,180.68l-.09-.05c0,.06.09.1.05.1C129.63,180.82,129.74,180.88,129.51,180.68Z" transform="translate(-122.67 -158.84)"/><path class="cls-1" d="M133.63,171.36l0,0Z" transform="translate(-122.67 -158.84)"/><path class="cls-1" d="M138.09,171.25s0,0,0,.08S138.15,171.29,138.09,171.25Z" transform="translate(-122.67 -158.84)"/><path class="cls-1" d="M129.3,181.18s0,0,0,0Z" transform="translate(-122.67 -158.84)"/><path class="cls-1" d="M127.73,180.48l-.18-.1Z" transform="translate(-122.67 -158.84)"/><path class="cls-1" d="M127.53,178.82h0C127.47,178.77,127.48,178.78,127.53,178.82Z" transform="translate(-122.67 -158.84)"/><path class="cls-1" d="M129.11,181.1l.12,0Z" transform="translate(-122.67 -158.84)"/><path class="cls-1" d="M129.3,181.2h0C129.32,181.22,129.36,181.24,129.3,181.2Z" transform="translate(-122.67 -158.84)"/><path class="cls-1" d="M129.29,181.15s0,0-.05,0l.06,0Z" transform="translate(-122.67 -158.84)"/><path class="cls-1" d="M133.76,173.06l0,0C133.69,172.94,133.7,173,133.76,173.06Z" transform="translate(-122.67 -158.84)"/><path class="cls-1" d="M127.94,175.83v0h0Z" transform="translate(-122.67 -158.84)"/><path class="cls-1" d="M127.85,175.5c.27.47.21.43.12.36l.76,1Z" transform="translate(-122.67 -158.84)"/><path class="cls-1" d="M131.24,173.31,131,173c-.25-.6-.1-.43-.42-.88.66,1.19-.14.24.52,1.43l-.17-.23s0-.07,0-.06c-.38-.53.42.89.23.77a1,1,0,0,1-.26-.39l.08.34s-.14-.22-.11-.21l-.07.16,0,0,.26.64c-.12-.15-.05-.13-.14-.28l.09.32c-.2-.29-.31-.62-.24-.6-.72-1.15.11.33-.4-.29l0-.18c-.41-.65-.33-.38-.63-.76a7.72,7.72,0,0,1,.82,1.32c-.07-.08-.12-.11,0,.15-.23-.42-.21-.3-.25-.25l-.31-.56a6.14,6.14,0,0,0,.31.74,3.63,3.63,0,0,1-.55-.81c-.14,0,.45.66.4.83-.2-.17-.13.09,0,.48-.16-.16-.18-.35-.29-.49l.2.47a1.1,1.1,0,0,1-.13-.21,8,8,0,0,1,.33.75c.33.62-.64-.82-.32-.08-.11-.15-.19-.35-.32-.56a6.61,6.61,0,0,0,.36,1l-.29-.32a5.85,5.85,0,0,1,.69,1.35l.32.43.08.35a4.2,4.2,0,0,1-.29-.52l.06.14a4.62,4.62,0,0,1-.48-.83l.24.32c-.17-.35-.37-.73-.56-1.05a.63.63,0,0,1,.06.17,2.44,2.44,0,0,0-.13-.23c0-.06,0,.07.09.22l-.39-.6.14.25-.36-.3a13.09,13.09,0,0,1,.77,2c-.24-.46-.45-.73-.78-1.25.39.53,0-.31.12-.25a1.17,1.17,0,0,1-.27-.38l.17.6a1.18,1.18,0,0,0-.38-.46c.56.83.25.63.36.92-.19-.28-.36-.58-.25-.55-.49-.58.54,1.05.12.56,0,0,0,0,0-.13.12.27-.1.14-.24-.12v0c-.18,0-.35.22.13.93l-.67-1q.72,1.25,1.48,2.47a27.21,27.21,0,0,1-1.65-2.36c-.09-.06-.19-.14-.1.11a8,8,0,0,1,.69.89,9.22,9.22,0,0,0-.8-.81,5.88,5.88,0,0,1,.72,1c-.1-.14-.69-.9-.75-1l.58,1a8.75,8.75,0,0,0-.8-1c.15.16-.11.06-.07.17l.21.17c-.23,0,.87,1.32.74,1.35a8.37,8.37,0,0,0-1-1.18c.34.47,1.68,2.21,1.92,2.6l-.23-.23.2.33a31.1,31.1,0,0,1-2-2.75c-.21-.16-.27-.28-.32-.2-.23-.21-.27-.39-.26-.42h-.3c.46.49.33.62.71,1l-.3-.68c.45.5,1.18,1.51,1,1.51-.21-.17-.8-.89-1-1.05.14.18.2.42.08.31l-.2-.3c-.24-.12.52.73,0,.34-.05,0-.69-.53-.41-.25.59.49,2.28,2.16,2.67,2.59,0,0-.62-.43-.92-.66-.47-.38-1-1-1.39-1.36a3.91,3.91,0,0,1,.32.36c-.14-.08-.4-.4-.4-.29.49.47-.14.08.4.42.1.19-.15,0-.19.06a11,11,0,0,1,1.2,1.21c-.13-.11-.31-.25-.39-.31s-.41-.07-.5,0a3.09,3.09,0,0,1-.56-.36c.08.09.26.24.25.28-.53-.28,0-.13-.63-.5a2.86,2.86,0,0,1,.54.6c.51.34.17,0,0-.23a12.76,12.76,0,0,1,1.6,1.39c.12.18-.47-.28-.38-.2-.23.05,1.18.9.61.67s-.92-.54-1.26-.73c-.14-.18.35.07.35,0l-.24-.08c-.14-.12-.23-.24-.09-.18-.43-.21-.22.22-.68.14a2.14,2.14,0,0,0,.49.32l0-.07c.4.17.49.35.7.4s.65.44.4.39l-.56-.25c.16.07.35.12.19,0,.23.14-.8-.25-.09.11l.41.14c.26.17.83.48.63.44.57.22-.06,0,.61.22-.82-.33.09-.07-.78-.42.76.32.35.09,1,.37-.18-.09-.35-.16-.25-.15l-.16-.09h0l-.28-.12a3,3,0,0,1-.56-.42c.1,0,.2.12.39.21l-.3-.2a5.9,5.9,0,0,1,.88.49l0,0c.23.1.33.13.17,0,.09,0-.4-.31-.11-.11l-.19-.21.09.06c.09,0-.5-.56.21-.14-.08-.09-.17-.2,0-.15l.31.24c-.09-.11.35.18,0-.09.81.66.24,0,.43.13l-.37-.35c.05,0,0-.14-.12-.32l-.32-.31c-.22-.3.32.14.34.05.11.13.07.11,0,0,.75.69-.35-.69.21-.2-.09-.14,0-.11,0,0v0h0l.18.16-.18-.17s0-.08-.05-.18l.31.37h0c.13.12-.13-.19-.37-.46l-.15-.25c.5.59-.1-.25.44.38a7.9,7.9,0,0,0-.58-1c.07.09.11.12.1.14s.17.12.05-.1l.38.48-.43-.71a4.17,4.17,0,0,1,.64.85c-.34-.65-.1-.27-.44-.91l.22.33s-.24-.5,0-.24c.48.58.38-.12.91.37-.65-1,.35.4-.12-.37a3.67,3.67,0,0,1,.36.57c-.06-.28.34.3,0-.39.15.23.19.36.28.49,0-.05-.1-.22,0-.09a1.56,1.56,0,0,1,.16.32,6.64,6.64,0,0,0-.77-1.51c.24.3.23.24,0-.23.15.22.31.44.3.55s.39.22.07-.33c.09.13.07,0,0-.05s.13,0,.17-.05l-.07-.08c-.35-.69,0-.18,0-.3l0,.07c.4.41-.07-.27.37.22l-.24-.41c-.49-.91.41.47.3.08l-.16-.22c-.13-.33.8,1.16.9,1.25a.52.52,0,0,1,.07.2c.41.47-.29-.56-.28-.73a4.59,4.59,0,0,0,.48.79c.16.22-.37-1.05,0-.53a2.66,2.66,0,0,1-.34-.63c0-.11.64.78.3,0l.11.17a2.82,2.82,0,0,0-.21-.8c.85,1.42-.1-.87.65.46l.11-.16.07.14c.15,0,0-.3-.16-.64a1.34,1.34,0,0,1,.17.28c.29.19.28.12,0-.6l.26.42c-.12-.26.6.54.45,0a1.56,1.56,0,0,1,.1.2c-.16-.59,1.14.91.2-.64l-.15-.43c-.21,0-.42-.66-.64-.88,0-.12.43.37.42.49l-.06-.07c.51.79.35.18.71.7.23-.23.81,0,1.1-.2l-.5-.54.11,0c.13.11.41.41.32.44.3.29-.12-.34-.23-.47.31.1.52.69.56.66l0-.09-.07-.05c-.16-.26-.37-.5-.27-.55s.33.31.37.31.06,0,0,0l.16-.07-.45-.37c-.15-.25.12-.08-.39-.49.78.64.63-.13.9,0-.26-.33-.2-.4-.1-.46-.11,0-.63-.44-.52-.46,1.05.83.56.21,1.41.68-.57-.29,0-.35-.79-.73.14,0,.43.26.73.37-.34-.44.57-.23.51-.59a3.37,3.37,0,0,1-.64-.31l.86.22c-.06-.09-.92-.43-.32-.29a1.25,1.25,0,0,1-.4-.16c.49-.08.42-.41.41-.67s0-.49.83-.69c-.35,0-.38,0-.38-.07a4.93,4.93,0,0,1-.67-.06l.68-.16c-.66-.07,0-.24-.65-.27l.11.07c-.74-.09-1.67.06-2.62,0,.84.12-1.27,0-.07.21-.2,0-.3-.05-.53-.07.41.06.49.1.3.12l-.1,0c.08.13-.29.13-.6.14l.46.11a1.66,1.66,0,0,1-.34-.05c.68.22.07-.05.82.18-.94-.23-.1.2-1.13-.15,0,0,.52.18.5.21l-.28-.1.35.15a3.85,3.85,0,0,1-.65-.22s-.06,0-.08-.05c-.33-.11.09.1,0,.07l.17,0c.25.21-.17.1.29.49l.19.11c.3.3-.24-.08-.13.11l0,0c.17.15.25.24.21.25-.2-.18-.43-.27-.64-.47.31.34.27.25.85.83l-.3-.23c.24.23.37.35.4.46-.2-.25-.45-.35-.73-.66-.68-.47.48.68-.42-.1.7.76.48.32.62.5s.52.56.41.53-1-.87-1-.8,0-.06,0-.06c-.2-.17.2.31-.12,0,.4.48-.06,0,.46.61,0-.07,0-.14-.06-.2.11.19.68.93.3.65-.1-.13-.21-.3-.27-.4s.06.15-.12,0c-.51-.61,0-.2-.38-.69-.23-.24.3.49-.24-.17.68.85-.16-.05.32.63l-.3-.37c0,.06.16.25.14.25l-.36-.5c.29.44-.36-.3-.22,0,.07-.07.37.44.62.68.28.59-.83-.93-.79-.67,0-.06.23.19.33.38a2.48,2.48,0,0,1-.38-.38c0,.14.3.39.44.65-.36-.45.1.22.17.4l-.28-.39c-.27-.18.55.84.24.6l-.34-.58,0,.17-.3-.46c.18.37.1.3,0,.2a2.48,2.48,0,0,1,.44.78c-.19-.22-.23-.4-.26-.29-.15-.26-.34-.59-.07-.24l-.23-.39c-.21-.25-.13,0-.15,0a.25.25,0,0,1,.09.08l.26.62a2.2,2.2,0,0,1-.24-.4,2.44,2.44,0,0,1,.11.31,6.72,6.72,0,0,1-.48-.86l.14.42c-.1-.14-.29-.37-.36-.5s.28.73,0,.51a.83.83,0,0,1,.08.19c-.12,0-.42-.42-.24.1l-.4-.58c0,.18.51.73.53,1s-.33-.5-.45-.66c.14.33.42,1,.07.54C131.17,173.28,131.24,173.36,131.24,173.31Zm-.72.76c0-.1-.15-.39,0-.15C130.76,174.41,130.62,174.19,130.51,174.06Zm-.83,1.81c-.07-.15,0-.09.11.05S129.77,176,129.68,175.87Zm-.66,5h0C129.18,180.9,129.11,180.87,129,180.84Zm-.2-.06.17.1c-.1-.06-.11-.08-.07-.07S128.73,180.71,128.82,180.78Zm7.34-5.53-.1-.07C136,175,136.07,175.14,136.16,175.25Z" transform="translate(-122.67 -158.84)"/><path class="cls-1" d="M129.51,175.21l.14.22A.91.91,0,0,0,129.51,175.21Z" transform="translate(-122.67 -158.84)"/><polygon class="cls-1" points="8.95 13.95 8.96 13.96 8.91 13.88 8.95 13.95"/><path class="cls-1" d="M126.38,177.23a1.14,1.14,0,0,1,.21.14C126.51,177.29,126.43,177.23,126.38,177.23Z" transform="translate(-122.67 -158.84)"/><path class="cls-1" d="M129.43,181.39l-.1-.08s-.08,0-.16,0Z" transform="translate(-122.67 -158.84)"/><path class="cls-1" d="M126.52,180.62c.05,0,0,0,.06,0l.21.07S126.62,180.62,126.52,180.62Z" transform="translate(-122.67 -158.84)"/><path class="cls-1" d="M128,180.76c-.37-.16-.26-.08-.21,0s0,0,0,0C128.26,181,128.11,180.87,128,180.76Z" transform="translate(-122.67 -158.84)"/><path class="cls-1" d="M127.75,180.75s0,0,0,0C128,180.87,127.8,180.79,127.75,180.75Z" transform="translate(-122.67 -158.84)"/><path class="cls-1" d="M129,181c-.1,0,.45.25.31.18C129.78,181.41,128.81,180.79,129,181Z" transform="translate(-122.67 -158.84)"/><polygon class="cls-1" points="4.05 21.4 4.51 21.59 4.15 21.41 4.05 21.4"/><path class="cls-1" d="M127.19,180.12H127a.64.64,0,0,1,.15.09S127.32,180.19,127.19,180.12Z" transform="translate(-122.67 -158.84)"/><path class="cls-1" d="M127.18,180.2s0,0,.05.08S127.23,180.25,127.18,180.2Z" transform="translate(-122.67 -158.84)"/><polygon class="cls-1" points="3.95 21.26 4.05 21.28 4.11 21.26 3.95 21.26"/><path class="cls-1" d="M127.6,179.6l-.08-.13c-.14-.1-.23-.15-.19-.09A1.26,1.26,0,0,0,127.6,179.6Z" transform="translate(-122.67 -158.84)"/><path class="cls-1" d="M126.32,179a2.81,2.81,0,0,1,.34.17l-.52-.34Z" transform="translate(-122.67 -158.84)"/><path class="cls-1" d="M126.34,178.75c-.14-.1-.33-.38-.37-.27C126.11,178.59,126.18,178.73,126.34,178.75Z" transform="translate(-122.67 -158.84)"/><polygon class="cls-1" points="5.04 19.48 5.03 19.49 5.77 20.2 5.04 19.48"/><path class="cls-1" d="M126.9,175.76c-.24-.12.38.5.11.32.13.2.22.15.33.32C127.23,176.17,127.34,176.26,126.9,175.76Z" transform="translate(-122.67 -158.84)"/><path class="cls-1" d="M127.34,176.4l.07.14Z" transform="translate(-122.67 -158.84)"/><polygon class="cls-1" points="16 12.13 16.22 12.05 15.87 12.1 16 12.13"/><path class="cls-1" d="M137.93,170.8l.65,0-.58,0S138.07,170.79,137.93,170.8Z" transform="translate(-122.67 -158.84)"/><path class="cls-1" d="M129.75,173l.07.14c.09.14.11.15.14.16Z" transform="translate(-122.67 -158.84)"/><polygon class="cls-1" points="7.97 14.22 7.95 14.21 8.26 14.71 7.97 14.22"/><path class="cls-1" d="M130.76,172.13s0,.12,0,.11S131.13,172.76,130.76,172.13Z" transform="translate(-122.67 -158.84)"/><path class="cls-1" d="M123.77,182.82s-.38,0-.46,0A1.43,1.43,0,0,0,123.77,182.82Z" transform="translate(-122.67 -158.84)"/><polygon class="cls-1" points="2.1 24.46 1.93 24.46 2.35 24.5 2.1 24.46"/><path class="cls-1" d="M124.8,183.76c.7-.13-.13-.15.11-.26l.16,0h-.58C124.6,183.58,125,183.67,124.8,183.76Z" transform="translate(-122.67 -158.84)"/><path class="cls-1" d="M123.3,184.24c.27-.06.24,0,.08-.08l-.07,0S123.32,184.21,123.3,184.24Z" transform="translate(-122.67 -158.84)"/><path class="cls-1" d="M123.31,184.18c0-.05-.23.07,0,0Z" transform="translate(-122.67 -158.84)"/><path class="cls-1" d="M123.5,184.42l-.25,0c-.16,0-.19.12-.31.11C123.08,184.55,123.24,184.5,123.5,184.42Z" transform="translate(-122.67 -158.84)"/><path class="cls-1" d="M124,184.39l-.11,0C123.84,184.39,123.82,184.41,124,184.39Z" transform="translate(-122.67 -158.84)"/><path class="cls-1" d="M123.68,184.33l.23,0c.11,0,.34-.07-.08,0C124,184.32,123.83,184.34,123.68,184.33Z" transform="translate(-122.67 -158.84)"/><path class="cls-1" d="M123.78,184.27a.75.75,0,0,1,.49-.1C124.17,184.06,123.67,184.15,123.78,184.27Z" transform="translate(-122.67 -158.84)"/><path class="cls-1" d="M125.54,183.69l.2-.07h-.24C125.62,183.62,125.31,183.72,125.54,183.69Z" transform="translate(-122.67 -158.84)"/><path class="cls-1" d="M123.24,185c.15,0,.39-.12.58-.16l-.19,0A1.22,1.22,0,0,1,123.24,185Z" transform="translate(-122.67 -158.84)"/><path class="cls-1" d="M123.81,184.8l.28,0C124.1,184.75,124,184.76,123.81,184.8Z" transform="translate(-122.67 -158.84)"/><polygon class="cls-1" points="2.13 25.42 1.58 25.39 2.14 25.44 2.13 25.42"/><polygon class="cls-1" points="0.64 26.46 0.29 26.5 0.83 26.45 0.64 26.46"/><path class="cls-1" d="M123.44,185.51c-.29,0-.46.19-.64.21a1.33,1.33,0,0,0,.55,0C123.21,185.71,123.23,185.65,123.44,185.51Z" transform="translate(-122.67 -158.84)"/><path class="cls-1" d="M123.68,185.7l-.34,0A1.44,1.44,0,0,0,123.68,185.7Z" transform="translate(-122.67 -158.84)"/><path class="cls-1" d="M124.05,185a1.54,1.54,0,0,0-.4.17l.4-.14Z" transform="translate(-122.67 -158.84)"/><path class="cls-1" d="M124.07,185h0a.46.46,0,0,1,0,.07Z" transform="translate(-122.67 -158.84)"/><path class="cls-1" d="M124.05,185h0S124.11,185,124.05,185Z" transform="translate(-122.67 -158.84)"/><path class="cls-1" d="M124.46,184.53a1.79,1.79,0,0,0,.85-.13A7.27,7.27,0,0,1,124.46,184.53Z" transform="translate(-122.67 -158.84)"/><path class="cls-1" d="M124.56,184.8l.07-.1a2.13,2.13,0,0,1-.39.09Z" transform="translate(-122.67 -158.84)"/><polygon class="cls-1" points="2.04 25.96 1.89 25.96 1.86 26 2.04 25.96"/><path class="cls-1" d="M124,185.42c.19,0,.22,0,.26.05s.09-.14.08-.18S124,185.38,124,185.42Z" transform="translate(-122.67 -158.84)"/><path class="cls-1" d="M124.08,185.21h0S124.15,185.19,124.08,185.21Z" transform="translate(-122.67 -158.84)"/><path class="cls-1" d="M124.41,185.91l.07,0-.07,0Z" transform="translate(-122.67 -158.84)"/><path class="cls-1" d="M124.43,185.26c.07-.06,0,0-.17,0a.14.14,0,0,1,.1.06C124.41,185.28,124.45,185.27,124.43,185.26Z" transform="translate(-122.67 -158.84)"/><path class="cls-1" d="M123.91,185.76l.2-.14C124,185.68,123.81,185.79,123.91,185.76Z" transform="translate(-122.67 -158.84)"/><path class="cls-1" d="M124,185.25h0C123.89,185.29,123.93,185.28,124,185.25Z" transform="translate(-122.67 -158.84)"/><path class="cls-1" d="M124,185.25l.26,0-.15,0Z" transform="translate(-122.67 -158.84)"/><path class="cls-1" d="M127,185c-.37.15-.73.21-.35,0a13.66,13.66,0,0,0-2.16.88,1.62,1.62,0,0,1,.55-.13,2.28,2.28,0,0,1,.77-.42c.22,0-.11.12-.29.25.44-.22.71-.17,1.37-.47l-.27,0A3,3,0,0,0,127,185Z" transform="translate(-122.67 -158.84)"/><path class="cls-1" d="M124.47,185.71l-.06,0a2.56,2.56,0,0,1-.47.31,1.52,1.52,0,0,0,.46-.1v-.19Z" transform="translate(-122.67 -158.84)"/><path class="cls-1" d="M124.36,185.54a4.82,4.82,0,0,0,1-.3c-.05-.08-.36.06-.55.06.15.12-.24,0-.44.22a.21.21,0,0,1-.13-.05l-.16.15h0l.05,0h0l.16,0c-.07.08-.1,0-.16,0l-.06,0h0l.27.08C124.46,185.64,124.43,185.6,124.36,185.54Z" transform="translate(-122.67 -158.84)"/><path class="cls-1" d="M126.24,184.26l-.1,0C126.19,184.28,126.23,184.27,126.24,184.26Z" transform="translate(-122.67 -158.84)"/><path class="cls-1" d="M126,184.37c-.06,0-.23,0-.2,0a1.62,1.62,0,0,1,.34-.08,1.16,1.16,0,0,0-.51.11h.06a4.18,4.18,0,0,1-.69.29Z" transform="translate(-122.67 -158.84)"/><path class="cls-1" d="M125.27,184.88l.24.05.34-.16-.21.07C125.7,184.75,125.44,184.84,125.27,184.88Z" transform="translate(-122.67 -158.84)"/><polygon class="cls-1" points="1.55 27.16 1.12 27.31 1.74 27.16 1.55 27.16"/><polygon class="cls-1" points="1.67 27.32 1.3 27.46 1.54 27.42 1.67 27.32"/><path class="cls-1" d="M133.23,187.67l.08-.09Z" transform="translate(-122.67 -158.84)"/><path class="cls-1" d="M133.06,187.55l-.1.17A.69.69,0,0,0,133.06,187.55Z" transform="translate(-122.67 -158.84)"/><path class="cls-1" d="M127,189.58c-.19.32-.5.8-.23.45l.26-.35C127,189.72,127,189.66,127,189.58Z" transform="translate(-122.67 -158.84)"/><path class="cls-1" d="M130.45,188.75l.05-.12-.23.35Z" transform="translate(-122.67 -158.84)"/><path class="cls-1" d="M131.37,187.21l-.09.27A2,2,0,0,0,131.37,187.21Z" transform="translate(-122.67 -158.84)"/><path class="cls-1" d="M134.53,187.87l.25-.36C134.74,187.48,134.65,187.68,134.53,187.87Z" transform="translate(-122.67 -158.84)"/><path class="cls-1" d="M125.42,187.71c-.11.14-.14.22-.13.26C125.44,187.77,125.72,187.51,125.42,187.71Z" transform="translate(-122.67 -158.84)"/><path class="cls-1" d="M131,191.69a1.17,1.17,0,0,0,.15-.22A.93.93,0,0,0,131,191.69Z" transform="translate(-122.67 -158.84)"/><path class="cls-1" d="M125.38,188.09l.06-.08c-.08,0-.15,0-.16,0C125.16,188.12,125.11,188.23,125.38,188.09Z" transform="translate(-122.67 -158.84)"/><path class="cls-1" d="M138.33,192.23l0,0C138.34,192.24,138.34,192.24,138.33,192.23Z" transform="translate(-122.67 -158.84)"/><path class="cls-1" d="M134.43,194.52a0,0,0,0,1,0,0S134.36,194.51,134.43,194.52Z" transform="translate(-122.67 -158.84)"/><path class="cls-1" d="M124.51,186.92s0,0,0,0Z" transform="translate(-122.67 -158.84)"/><path class="cls-1" d="M126,186l.19-.08Z" transform="translate(-122.67 -158.84)"/><path class="cls-1" d="M127.67,186.64h0C127.73,186.58,127.72,186.59,127.67,186.64Z" transform="translate(-122.67 -158.84)"/><path class="cls-1" d="M124.66,186.78l-.09.11Z" transform="translate(-122.67 -158.84)"/><path class="cls-1" d="M124.48,186.88l0-.05C124.43,186.86,124.4,186.88,124.48,186.88Z" transform="translate(-122.67 -158.84)"/><path class="cls-1" d="M124.56,187s0,0,0-.08l-.06,0Z" transform="translate(-122.67 -158.84)"/><path class="cls-1" d="M135.56,190.41l0,0C135.68,190.33,135.65,190.34,135.56,190.41Z" transform="translate(-122.67 -158.84)"/><path class="cls-1" d="M130.34,186.41v0h0Z" transform="translate(-122.67 -158.84)"/><path class="cls-1" d="M130.59,186.19c-.33.42-.31.36-.27.25l-.7,1Z" transform="translate(-122.67 -158.84)"/><path class="cls-1" d="M133.76,187.82l.12-.38c.39-.52.34-.29.54-.81-.67,1.18-.33,0-1,1.16l.09-.28s0-.05.05,0c.22-.62-.53.83-.54.61a1,1,0,0,1,.18-.43l-.24.25s.11-.24.12-.21l-.17,0,0,0-.4.56c.06-.19.08-.12.16-.27l-.22.25c.14-.32.36-.6.38-.53.58-1.23-.22.27,0-.5l.14-.12a3.6,3.6,0,0,0,.3-.94,7.69,7.69,0,0,1-.66,1.4c0-.1,0-.16-.14.06.23-.43.13-.34.07-.34l.31-.56a6.12,6.12,0,0,0-.46.66,3.62,3.62,0,0,1,.38-.9c0-.14-.32.73-.48.78,0-.25-.13-.05-.39.24a3.09,3.09,0,0,1,.27-.51l-.29.42a1.24,1.24,0,0,1,.11-.22,8.08,8.08,0,0,1-.45.68c-.36.61.38-1-.08-.31.07-.17.2-.34.32-.56a8.57,8.57,0,0,0-.7.85l.14-.4a6,6,0,0,1-.83,1.27l-.22.49-.27.24a4.13,4.13,0,0,1,.31-.5l-.09.12a4.67,4.67,0,0,1,.49-.83l-.16.36c.22-.32.45-.69.63-1a.68.68,0,0,1-.12.13l.14-.22c0-.06,0,.06-.15.19l.34-.63-.15.24.12-.45a9.47,9.47,0,0,1-1.35,1.6c.31-.42.45-.72.78-1.25-.31.58.24-.18.24,0a1.44,1.44,0,0,1,.22-.41l-.42.44a1.51,1.51,0,0,0,.25-.54c-.5.87-.44.51-.65.74.18-.29.37-.57.39-.47.34-.68-.71.94-.43.36,0,0,0,.05.1-.09-.19.23-.15,0,0-.25h0c0-.15-.27-.18-.76.51l.69-1q-.88,1.13-1.8,2.23c.44-.59,1.4-2,1.7-2.33,0-.1.09-.21-.1,0a10.84,10.84,0,0,1-.64.92c.42-.7.22-.38.57-1a6.84,6.84,0,0,1-.79,1c.11-.13.67-.91.76-1l-.76.84a12,12,0,0,0,.76-1c-.13.18-.05-.06-.14,0l-.13.23c0-.2-1.07,1.18-1.14,1.05a12.06,12.06,0,0,0,1-1.23,21.73,21.73,0,0,1-2.26,2.28l.2-.26-.33.21c.64-.59,1.95-1.86,2.44-2.37.14-.22.24-.3.19-.32a1.18,1.18,0,0,1,.34-.34l.05-.23c-.44.51-.51.44-.89.86l.56-.43c-.43.52-1.32,1.38-1.33,1.21.16-.21.82-.87,1-1-.16.16-.36.26-.26.14l.27-.24c.14-.21-.68.59-.28.08,0,0,.56-.66.28-.38-.52.56-2.18,2.26-2.61,2.65a8.25,8.25,0,0,1,.65-.91c.4-.44,1.08-1,1.42-1.34-.13.13-.31.27-.37.31.1-.12.42-.39.32-.36-.51.46,0-.12-.44.38-.17.09.07-.14,0-.16a7.84,7.84,0,0,1-1.35,1c.13-.11.3-.27.37-.34s.17-.39.1-.47a3.4,3.4,0,0,1,.5-.43c-.1.06-.3.19-.33.17.44-.4.12,0,.66-.46a3,3,0,0,1-.72.37c-.49.37,0,.16.2,0a6.64,6.64,0,0,1-1.85,1.07c-.25,0,.42-.35.31-.3,0-.24-1.33.64-.93.15a12.27,12.27,0,0,1,1.24-.77c.21,0-.23.3-.18.34l.18-.2c.16-.07.3-.1.19,0,.38-.31-.07-.33.25-.67a2.54,2.54,0,0,0-.53.24h.09c-.36.25-.57.2-.72.36-.3.08-.77.22-.6,0l.54-.29c-.16.08-.3.22-.12.16-.27.08.68-.5-.07-.19l-.35.25c-.31.07-1,.24-.83.07-.53.29.07,0-.54.35.77-.42.1.27.88-.22-.71.42-.25.27-.83.68.18-.1.33-.21.28-.08l.17-.06h0l0,0s0,0,0,0a1.67,1.67,0,0,1,.25-.18c.43-.17.48-.05.71-.13-.06.09-.21.09-.39.22l.35-.12c-.39.23-.58.5-.87.52l0,.11c-.18.19-.22.33,0,.28-.05.1.49-.15.17,0h.33l-.09.06c.07.18.81-.16.29.48.13,0,.27-.06.23.09l-.29.26c.15,0-.15.44.18.2-.73.76.08.46,0,.66l.37-.35c0,.08.21,0,.43,0l.31-.33c.32-.21-.06.38.08.45-.12.12-.12.06-.07,0-.55.87.75-.31.38.34.13-.1.12,0,.07.07h0l-.11.22a2.14,2.14,0,0,0,.12-.21s.1,0,.2-.07l-.29.39h0c-.08.16.17-.16.38-.46l.22-.2c-.45.63.24-.15-.23.54.27-.3.35-.12.87-.79-.07.09-.09.14-.11.13s0,.21.13,0l-.35.51.56-.61a3.27,3.27,0,0,1-.6.88c.53-.51.25-.15.75-.68l-.23.32s.39-.39.23-.1c-.34.68.31.32.14,1,.57-1-.18.5.3-.26a2.93,2.93,0,0,1-.34.58c.24-.17-.07.47.39-.14-.13.25-.23.33-.3.48,0,0,.15-.19.08,0a1.11,1.11,0,0,1-.21.28c.13,0,.57-.7,1-1.39-.14.36-.09.32.21-.11-.11.24-.22.49-.33.54s0,.45.34-.1c-.07.15,0,.07.07,0s0,.13.14.12l0-.1c.41-.66.15-.12.25-.16l0,.07c-.13.57.19-.2,0,.43l.22-.43c.5-.9-.17.6.1.3l.1-.26c.21-.29-.54,1.3-.56,1.44a.53.53,0,0,1-.13.17c-.17.6.31-.55.47-.63a4.6,4.6,0,0,0-.4.83c-.1.26.69-.88.46-.27a2.67,2.67,0,0,1,.35-.63c.1,0-.31,1,.14.26a1.76,1.76,0,0,1-.09.19,2.84,2.84,0,0,0,.56-.61c-.75,1.48.66-.56-.08.78h.17l-.08.13c0,.13.24-.17.45-.47a1.47,1.47,0,0,1-.16.29c0,.34,0,.29.5-.31l-.24.44c.18-.23-.23.77.18.34l-.13.18c.43-.41-.45,1.34.57-.15l.33-.32c0-.19.45-.64.57-.92.11-.06-.18.53-.29.57l0-.08c-.54.77,0,.36-.41.89.21.1.07.65.19.79l.45-.58,0,.08c-.09.14-.35.45-.37.4-.25.33.29-.22.4-.33-.13.29-.58.62-.57.65l.06,0,.05-.07c.21-.21.43-.44.44-.37s-.29.34-.3.37,0,.06,0,0v.1l.38-.44c.22-.18,0,.08.46-.42-.67.76,0,.48-.23.72.36-.24.38-.19.37-.11.09-.09.59-.5.56-.4-1.08.8-.41.44-1.18,1,.51-.39.2,0,.93-.53-.07.09-.42.27-.67.47.49-.19-.17.31,0,.3s.4-.2.64-.29L134,194c.08,0,.94-.38.39-.11a3,3,0,0,1,.4-.16c-.36.26-.16.27,0,.36s.09.25-.7.42c.34-.06.37,0,.39,0s.43,0,.67-.07l-.65.15c.66,0,.06.09.69.08l-.12,0c.75,0,1.65-.14,2.61-.19-.85,0,1.22-.37,0-.4.19-.06.31,0,.53-.06-.41,0-.5,0-.33-.14h.1c-.15-.24.28-.42.43-.81l-.45.15c0-.08.18-.13.28-.2-.71.13,0,.19-.76.34.9-.35-.13-.41.87-.84,0-.11-.5.22-.53.12l.27-.14-.36.12a1.8,1.8,0,0,1,.59-.36s.08,0,.11,0c.28-.23-.21-.21-.12-.29l-.12.18c-.34-.17-.21-.66-.87-.57l-.18.14c-.45.07.12-.27-.16-.34l0,0c-.2.1-.32.12-.34.06.24-.11.34-.4.61-.52-.48.1-.34.11-1.06.56l.26-.26c-.28.19-.42.3-.55.3.29-.16.38-.42.75-.64.44-.71-.81.34,0-.55-.79.66-.28.53-.47.64s-.6.48-.57.37.85-1,.7-1.12c0,0,.06,0,.07,0,.13-.24-.33.17-.1-.2-.44.44-.05-.1-.58.49l.23,0c-.2.09-.85.75-.66.33a3.36,3.36,0,0,1,.37-.33c.12-.2-.16.07,0-.13.52-.6.25,0,.71-.42.18-.29-.51.32.08-.3-.75.79,0-.21-.66.37l.3-.37c-.06,0-.23.2-.25.17l.43-.45c-.4.36.14-.47-.11-.3.16.1-.32.48-.47.8-.56.38.65-1.06.3-1,.07,0-.06.31-.24.45a1.82,1.82,0,0,1,.19-.52c-.2,0-.26.41-.49.61.29-.51-.2.14-.36.26l.27-.4c0-.36-.6.8-.52.41l.43-.52-.16.1.32-.45c-.3.29-.26.19-.26,0-.17.3-.49.73-.56.7.11-.27.27-.37.14-.37.18-.24.41-.55.21-.15l.27-.37c.13-.31-.08-.14-.12-.16a.19.19,0,0,1,0,.12l-.49.48a1.62,1.62,0,0,1,.26-.39c-.05,0-.19.2-.25.21a4.24,4.24,0,0,1,.58-.79l-.36.29a4.73,4.73,0,0,1,.27-.56c0-.24-.57.54-.51.22a.74.74,0,0,1-.14.16c0-.12.12-.58-.24-.17l.29-.64c-.16.09-.36.81-.62,1s.26-.54.32-.73c-.22.28-.65.87-.46.32C133.73,187.75,133.71,187.85,133.76,187.82Zm-1.08-.23c.07-.08.25-.34.13-.08C132.52,188,132.63,187.75,132.68,187.59Zm-1.89.28c.09-.13.07-.05,0,.12S130.75,188,130.79,187.87Zm-5.73-.76h0C125,187.25,125,187.2,125.06,187.11Zm.12-.22a.74.74,0,0,0-.18.1c.11-.05.13,0,.12,0S125.29,186.87,125.18,186.89Zm8.43,6.14.08-.1C133.8,192.84,133.71,192.93,133.61,193Z" transform="translate(-122.67 -158.84)"/><path class="cls-1" d="M131.27,187.39l-.12.23A1,1,0,0,0,131.27,187.39Z" transform="translate(-122.67 -158.84)"/><polygon class="cls-1" points="11.82 29.09 11.82 29.1 11.87 29.03 11.82 29.09"/><path class="cls-1" d="M129.28,185.6l-.16.19A.61.61,0,0,0,129.28,185.6Z" transform="translate(-122.67 -158.84)"/><path class="cls-1" d="M124.12,186.64l.15,0s0-.09.11-.14C124.28,186.58,124.14,186.66,124.12,186.64Z" transform="translate(-122.67 -158.84)"/><path class="cls-1" d="M126.62,184.9c-.06,0,0,0-.07,0l-.21.08S126.55,185,126.62,184.9Z" transform="translate(-122.67 -158.84)"/><path class="cls-1" d="M125.54,185.9c.37-.17.22-.16.13-.17s0,0,0,0C125.14,185.95,125.34,185.93,125.54,185.9Z" transform="translate(-122.67 -158.84)"/><path class="cls-1" d="M125.65,185.72s0,0,0,0C125.41,185.77,125.58,185.72,125.65,185.72Z" transform="translate(-122.67 -158.84)"/><path class="cls-1" d="M124.87,186.88c.08-.08-.46.24-.33.14C124.08,187.24,125.18,186.88,124.87,186.88Z" transform="translate(-122.67 -158.84)"/><polygon class="cls-1" points="4.07 26.46 3.62 26.69 4 26.54 4.07 26.46"/><path class="cls-1" d="M126.57,185.77l.09-.13a.55.55,0,0,1-.16.06S126.43,185.84,126.57,185.77Z" transform="translate(-122.67 -158.84)"/><path class="cls-1" d="M126.49,185.7s0,0-.1,0A.12.12,0,0,0,126.49,185.7Z" transform="translate(-122.67 -158.84)"/><polygon class="cls-1" points="4.25 26.48 4.16 26.54 4.15 26.6 4.25 26.48"/><path class="cls-1" d="M126.87,186.48l.16,0c.14-.09.22-.17.14-.15A1.29,1.29,0,0,0,126.87,186.48Z" transform="translate(-122.67 -158.84)"/><path class="cls-1" d="M127.88,185.54c-.08.07-.17.13-.31.23l.52-.34Z" transform="translate(-122.67 -158.84)"/><path class="cls-1" d="M128.11,185.6c.15-.09.46-.22.38-.25S128.19,185.48,128.11,185.6Z" transform="translate(-122.67 -158.84)"/><polygon class="cls-1" points="5.46 28.01 5.45 28 4.72 28.71 5.46 28.01"/><path class="cls-1" d="M130.34,185.57c.1-.23-.41.48-.26.21-.17.18-.12.22-.26.37C130,186,129.94,186.1,130.34,185.57Z" transform="translate(-122.67 -158.84)"/><path class="cls-1" d="M129.82,186.15l-.12.11Z" transform="translate(-122.67 -158.84)"/><polygon class="cls-1" points="11.23 35.81 11.02 35.84 11.36 35.81 11.23 35.81"/><path class="cls-1" d="M134.66,194.68l-.65,0h.59S134.52,194.69,134.66,194.68Z" transform="translate(-122.67 -158.84)"/><path class="cls-1" d="M133.16,186.37l-.08.14c-.07.15-.07.17-.06.21Z" transform="translate(-122.67 -158.84)"/><polygon class="cls-1" points="10.92 28.3 10.92 28.29 10.66 28.82 10.92 28.3"/><path class="cls-1" d="M134.55,186.82s-.11.06-.12,0S134.2,187.46,134.55,186.82Z" transform="translate(-122.67 -158.84)"/><path class="cls-2" d="M126.08,158.83" transform="translate(-122.67 -158.84)"/><path class="cls-1" d="M123.65,158.87s-.38,0-.46,0A1.43,1.43,0,0,0,123.65,158.87Z" transform="translate(-122.67 -158.84)"/><polygon class="cls-1" points="1.97 0.51 1.8 0.51 2.22 0.55 1.97 0.51"/><path class="cls-1" d="M124.67,159.81c.7-.13-.13-.15.11-.26l.16,0h-.58C124.47,159.63,124.86,159.72,124.67,159.81Z" transform="translate(-122.67 -158.84)"/><path class="cls-1" d="M123.17,160.29c.27-.06.24,0,.08-.08l-.07,0S123.19,160.26,123.17,160.29Z" transform="translate(-122.67 -158.84)"/><path class="cls-1" d="M123.18,160.23c0-.05-.23.07,0,0Z" transform="translate(-122.67 -158.84)"/><path class="cls-1" d="M123.37,160.47l-.25,0c-.16,0-.19.12-.31.11C123,160.6,123.11,160.55,123.37,160.47Z" transform="translate(-122.67 -158.84)"/><path class="cls-1" d="M123.89,160.44l-.11,0C123.72,160.44,123.69,160.46,123.89,160.44Z" transform="translate(-122.67 -158.84)"/><path class="cls-1" d="M123.56,160.38l.23,0c.11,0,.34-.07-.08,0C123.91,160.37,123.71,160.39,123.56,160.38Z" transform="translate(-122.67 -158.84)"/><path class="cls-1" d="M123.66,160.32a.75.75,0,0,1,.49-.1C124,160.11,123.54,160.2,123.66,160.32Z" transform="translate(-122.67 -158.84)"/><path class="cls-1" d="M125.41,159.74l.2-.07h-.24C125.49,159.67,125.19,159.77,125.41,159.74Z" transform="translate(-122.67 -158.84)"/><path class="cls-1" d="M123.11,161c.15,0,.39-.12.58-.16l-.19,0A1.22,1.22,0,0,1,123.11,161Z" transform="translate(-122.67 -158.84)"/><path class="cls-1" d="M123.68,160.85l.28,0C124,160.8,123.85,160.81,123.68,160.85Z" transform="translate(-122.67 -158.84)"/><polygon class="cls-1" points="2 1.47 1.45 1.44 2.01 1.49 2 1.47"/><polygon class="cls-1" points="0.52 2.51 0.16 2.55 0.7 2.5 0.52 2.51"/><path class="cls-1" d="M123.31,161.56c-.29,0-.46.19-.64.21a1.33,1.33,0,0,0,.55,0C123.09,161.76,123.1,161.7,123.31,161.56Z" transform="translate(-122.67 -158.84)"/><path class="cls-1" d="M123.56,161.75l-.34,0A1.44,1.44,0,0,0,123.56,161.75Z" transform="translate(-122.67 -158.84)"/><path class="cls-1" d="M123.93,161a1.54,1.54,0,0,0-.4.17l.4-.14Z" transform="translate(-122.67 -158.84)"/><path class="cls-1" d="M123.94,161.05h0a.46.46,0,0,1,0,.07Z" transform="translate(-122.67 -158.84)"/><path class="cls-1" d="M123.93,161h0S124,161,123.93,161Z" transform="translate(-122.67 -158.84)"/><path class="cls-1" d="M124.33,160.58a1.79,1.79,0,0,0,.85-.13A7.27,7.27,0,0,1,124.33,160.58Z" transform="translate(-122.67 -158.84)"/><path class="cls-1" d="M124.43,160.85l.07-.1a2.13,2.13,0,0,1-.39.09Z" transform="translate(-122.67 -158.84)"/><polygon class="cls-1" points="1.91 2.01 1.76 2.01 1.74 2.04 1.91 2.01"/><path class="cls-1" d="M123.89,161.47c.19,0,.22,0,.26.05s.09-.14.08-.18S123.86,161.43,123.89,161.47Z" transform="translate(-122.67 -158.84)"/><path class="cls-1" d="M124,161.26h0S124,161.24,124,161.26Z" transform="translate(-122.67 -158.84)"/><path class="cls-1" d="M124.28,162l.07,0-.07,0Z" transform="translate(-122.67 -158.84)"/><path class="cls-1" d="M124.3,161.31c.07-.06,0,0-.17,0a.14.14,0,0,1,.1.06C124.29,161.33,124.32,161.32,124.3,161.31Z" transform="translate(-122.67 -158.84)"/><path class="cls-1" d="M123.79,161.81l.2-.14C123.87,161.73,123.68,161.84,123.79,161.81Z" transform="translate(-122.67 -158.84)"/><path class="cls-1" d="M123.87,161.3h0C123.76,161.34,123.8,161.33,123.87,161.3Z" transform="translate(-122.67 -158.84)"/><path class="cls-1" d="M123.87,161.3l.26,0-.15,0Z" transform="translate(-122.67 -158.84)"/><path class="cls-1" d="M126.86,161c-.37.15-.73.21-.35,0a13.66,13.66,0,0,0-2.16.88,1.62,1.62,0,0,1,.55-.13,2.28,2.28,0,0,1,.77-.42c.22,0-.11.12-.29.25.44-.22.71-.17,1.37-.47l-.27,0A3,3,0,0,0,126.86,161Z" transform="translate(-122.67 -158.84)"/><path class="cls-1" d="M124.34,161.76l-.06,0a2.56,2.56,0,0,1-.47.31,1.52,1.52,0,0,0,.46-.1v-.19Z" transform="translate(-122.67 -158.84)"/><path class="cls-1" d="M124.24,161.59a4.82,4.82,0,0,0,1-.3c-.05-.08-.36.06-.55.06.15.12-.24,0-.44.22a.21.21,0,0,1-.13-.05l-.16.15h0l.05,0h0l.16,0c-.07.08-.1,0-.16,0l-.06,0h0l.27.08C124.33,161.69,124.31,161.65,124.24,161.59Z" transform="translate(-122.67 -158.84)"/><path class="cls-1" d="M126.11,160.31l-.1,0C126.07,160.33,126.1,160.32,126.11,160.31Z" transform="translate(-122.67 -158.84)"/><path class="cls-1" d="M125.87,160.42c-.06,0-.23,0-.2,0a1.62,1.62,0,0,1,.34-.08,1.17,1.17,0,0,0-.51.11h.06a4.19,4.19,0,0,1-.69.29Z" transform="translate(-122.67 -158.84)"/><path class="cls-1" d="M125.15,160.93l.24.05.34-.16-.21.07C125.57,160.8,125.31,160.89,125.15,160.93Z" transform="translate(-122.67 -158.84)"/><polygon class="cls-1" points="1.42 3.21 0.99 3.36 1.61 3.21 1.42 3.21"/><polygon class="cls-1" points="1.54 3.37 1.17 3.52 1.41 3.47 1.54 3.37"/><path class="cls-1" d="M133.1,163.72l.08-.09Z" transform="translate(-122.67 -158.84)"/><path class="cls-1" d="M132.93,163.6l-.1.17A.69.69,0,0,0,132.93,163.6Z" transform="translate(-122.67 -158.84)"/><path class="cls-1" d="M126.91,165.63c-.19.32-.5.8-.23.45l.26-.35C126.86,165.77,126.87,165.71,126.91,165.63Z" transform="translate(-122.67 -158.84)"/><path class="cls-1" d="M130.33,164.8l.05-.12-.23.35Z" transform="translate(-122.67 -158.84)"/><path class="cls-1" d="M131.25,163.26l-.09.27A2,2,0,0,0,131.25,163.26Z" transform="translate(-122.67 -158.84)"/><path class="cls-1" d="M134.41,163.92l.25-.36C134.61,163.53,134.52,163.73,134.41,163.92Z" transform="translate(-122.67 -158.84)"/><path class="cls-1" d="M125.29,163.76c-.11.14-.14.22-.13.26C125.32,163.82,125.59,163.56,125.29,163.76Z" transform="translate(-122.67 -158.84)"/><path class="cls-1" d="M130.85,167.74a1.18,1.18,0,0,0,.15-.22A.93.93,0,0,0,130.85,167.74Z" transform="translate(-122.67 -158.84)"/><path class="cls-1" d="M125.25,164.14l.06-.08c-.08,0-.15,0-.16,0C125,164.17,125,164.28,125.25,164.14Z" transform="translate(-122.67 -158.84)"/><path class="cls-1" d="M138.2,168.28l0,0C138.22,168.29,138.22,168.28,138.2,168.28Z" transform="translate(-122.67 -158.84)"/><path class="cls-1" d="M134.3,170.57a0,0,0,0,1,0,0S134.24,170.56,134.3,170.57Z" transform="translate(-122.67 -158.84)"/><path class="cls-1" d="M124.38,163s0,0,0,0Z" transform="translate(-122.67 -158.84)"/><path class="cls-1" d="M125.82,162l.19-.08Z" transform="translate(-122.67 -158.84)"/><path class="cls-1" d="M127.55,162.69h0C127.61,162.63,127.59,162.64,127.55,162.69Z" transform="translate(-122.67 -158.84)"/><path class="cls-1" d="M124.53,162.83l-.09.11Z" transform="translate(-122.67 -158.84)"/><path class="cls-1" d="M124.35,162.93l0-.05C124.31,162.91,124.27,162.93,124.35,162.93Z" transform="translate(-122.67 -158.84)"/><path class="cls-1" d="M124.43,163s0,0,0-.08l-.06,0Z" transform="translate(-122.67 -158.84)"/><path class="cls-1" d="M135.43,166.46l0,0C135.55,166.38,135.52,166.39,135.43,166.46Z" transform="translate(-122.67 -158.84)"/><path class="cls-1" d="M130.21,162.46v0h0Z" transform="translate(-122.67 -158.84)"/><path class="cls-1" d="M130.46,162.24c-.33.42-.31.36-.27.25l-.7,1Z" transform="translate(-122.67 -158.84)"/><path class="cls-1" d="M133.63,163.87l.12-.38c.39-.52.34-.29.54-.81-.67,1.18-.33,0-1,1.16l.09-.28s0-.05.05,0c.22-.62-.53.83-.54.61a1,1,0,0,1,.18-.43l-.24.25s.11-.24.12-.21l-.17,0,0,0-.4.56c.06-.19.08-.12.16-.27l-.22.25c.14-.32.36-.6.38-.53.58-1.23-.22.27,0-.5l.14-.12a3.6,3.6,0,0,0,.3-.94,7.69,7.69,0,0,1-.66,1.4c0-.1,0-.16-.14.06.23-.43.13-.34.07-.34l.31-.56a6.12,6.12,0,0,0-.46.66,3.62,3.62,0,0,1,.38-.9c0-.14-.32.73-.48.78,0-.25-.13-.05-.39.24a3.09,3.09,0,0,1,.27-.51l-.29.42a1.24,1.24,0,0,1,.11-.22,8.07,8.07,0,0,1-.45.68c-.36.61.38-1-.08-.31.07-.17.2-.34.32-.56a8.57,8.57,0,0,0-.7.85l.14-.4a6,6,0,0,1-.83,1.27l-.22.49-.27.24a4.14,4.14,0,0,1,.31-.5l-.09.12a4.67,4.67,0,0,1,.49-.83l-.16.36c.22-.32.45-.69.63-1a.68.68,0,0,1-.12.13l.14-.22c0-.06,0,.06-.15.19l.34-.63-.15.24.12-.45a9.47,9.47,0,0,1-1.35,1.6c.31-.42.45-.72.78-1.25-.31.58.24-.18.24,0a1.44,1.44,0,0,1,.22-.41l-.42.44a1.51,1.51,0,0,0,.25-.54c-.5.87-.44.51-.65.74.18-.29.37-.57.39-.47.34-.68-.71.94-.43.36,0,0,0,.05.1-.09-.19.23-.15,0,0-.25h0c0-.15-.27-.18-.76.51l.69-1q-.88,1.13-1.8,2.23c.44-.59,1.4-2,1.7-2.33,0-.1.09-.21-.1,0a10.85,10.85,0,0,1-.64.92c.42-.7.22-.38.57-1a6.84,6.84,0,0,1-.79,1c.11-.13.67-.91.76-1l-.76.84a12,12,0,0,0,.76-1c-.13.18-.05-.06-.14,0l-.13.23c0-.2-1.07,1.18-1.14,1.05a12.06,12.06,0,0,0,1-1.23,21.72,21.72,0,0,1-2.26,2.28l.2-.26-.33.21c.64-.59,1.95-1.86,2.44-2.37.14-.22.24-.3.19-.32a1.18,1.18,0,0,1,.34-.34l.05-.23c-.44.51-.51.44-.89.86l.56-.43c-.43.52-1.32,1.38-1.33,1.21.16-.21.82-.87,1-1-.16.16-.36.26-.26.14l.27-.24c.14-.21-.68.59-.28.08,0,0,.56-.66.28-.38-.52.56-2.18,2.26-2.61,2.65a8.25,8.25,0,0,1,.65-.91c.4-.44,1.08-1,1.42-1.34-.13.13-.31.27-.37.31.1-.12.42-.39.32-.36-.51.46,0-.12-.44.38-.17.09.07-.14,0-.16a7.84,7.84,0,0,1-1.35,1c.13-.11.3-.27.37-.34s.17-.39.1-.47a3.4,3.4,0,0,1,.5-.43c-.1.06-.3.19-.33.17.44-.4.12,0,.66-.46a3,3,0,0,1-.72.37c-.49.37,0,.16.2,0A6.64,6.64,0,0,1,126.1,163c-.25,0,.42-.35.31-.3,0-.24-1.34.64-.93.15a12.27,12.27,0,0,1,1.24-.77c.21,0-.23.3-.18.34l.18-.2c.16-.07.3-.1.19,0,.38-.31-.07-.33.25-.67a2.54,2.54,0,0,0-.54.24h.09c-.36.25-.57.2-.72.36-.3.08-.77.22-.6,0l.54-.29c-.16.08-.3.22-.12.16-.27.08.68-.5-.07-.19l-.35.25c-.31.07-1,.24-.83.07-.53.29.07,0-.54.35.77-.42.1.27.88-.22-.71.42-.25.27-.83.68.18-.1.33-.21.28-.08l.17-.06h0l0,0s0,0,0,0a1.67,1.67,0,0,1,.25-.18c.43-.17.48-.05.71-.13-.06.09-.21.09-.39.22l.35-.12c-.39.23-.58.5-.87.51l0,.11c-.18.19-.22.33,0,.28-.05.1.49-.15.17,0h.33l-.09.06c.07.18.81-.16.29.48.13,0,.27-.06.23.09l-.29.26c.15,0-.15.44.18.2-.73.76.08.46,0,.66l.37-.35c0,.08.21,0,.43,0l.31-.33c.32-.21-.06.38.08.45-.12.12-.12.06-.07,0-.55.87.75-.31.38.34.13-.1.12,0,.07.07h0l-.11.22a2.14,2.14,0,0,0,.12-.21s.1,0,.2-.07l-.29.39h0c-.08.16.17-.16.38-.46l.22-.2c-.45.63.24-.15-.23.54.27-.3.35-.12.87-.79-.07.09-.09.14-.11.13s0,.21.13,0l-.35.51.56-.61a3.27,3.27,0,0,1-.6.88c.53-.51.25-.15.75-.68l-.23.32s.39-.39.23-.1c-.34.68.31.32.14,1,.57-1-.18.5.3-.26a2.93,2.93,0,0,1-.34.58c.24-.17-.07.47.39-.14-.13.25-.23.33-.3.48,0,0,.15-.19.08,0a1.11,1.11,0,0,1-.21.28c.13,0,.57-.7,1-1.39-.14.36-.09.32.21-.11-.11.24-.22.49-.33.54s0,.45.34-.1c-.07.15,0,.07.07,0s0,.13.14.12l0-.1c.41-.66.15-.12.25-.16l0,.07c-.13.57.19-.2,0,.43l.22-.43c.5-.9-.17.6.1.3l.1-.26c.21-.29-.54,1.3-.56,1.44a.53.53,0,0,1-.13.17c-.17.6.31-.55.47-.63a4.6,4.6,0,0,0-.4.83c-.1.26.69-.88.46-.27a2.67,2.67,0,0,1,.35-.63c.1,0-.31,1,.14.26a1.77,1.77,0,0,1-.09.19,2.84,2.84,0,0,0,.56-.61c-.75,1.48.66-.56-.08.78h.17l-.08.13c0,.13.24-.17.45-.47a1.47,1.47,0,0,1-.16.29c0,.34,0,.29.5-.31l-.24.44c.18-.23-.23.77.18.34l-.13.18c.43-.41-.45,1.34.57-.15l.33-.32c0-.19.45-.64.57-.92.11-.06-.18.53-.29.57l0-.08c-.54.77,0,.36-.41.89.21.1.07.65.19.79l.45-.58,0,.08c-.09.14-.35.45-.37.4-.25.33.29-.22.4-.33-.13.29-.58.62-.57.65l.06,0,.05-.07c.21-.21.43-.44.44-.37s-.29.34-.3.37,0,.06,0,0v.1l.38-.44c.22-.18,0,.08.46-.42-.67.76,0,.48-.23.72.36-.24.38-.19.37-.11.09-.09.59-.5.56-.4-1.08.8-.41.44-1.18,1,.51-.39.2,0,.93-.53-.07.1-.42.27-.67.47.49-.19-.17.31,0,.3s.4-.2.64-.29l-.79.41c.08,0,.94-.38.39-.11a3,3,0,0,1,.4-.16c-.36.26-.16.27,0,.36s.09.25-.7.42c.34-.06.37,0,.39,0s.43,0,.67-.07l-.65.15c.66,0,.06.09.69.08l-.12,0c.75,0,1.65-.14,2.6-.19-.85,0,1.22-.37,0-.4.19-.06.31,0,.53-.06-.41,0-.5,0-.33-.14h.1c-.15-.24.28-.42.43-.81l-.45.15c0-.08.18-.13.28-.2-.71.13,0,.19-.76.34.9-.35-.13-.41.87-.84,0-.11-.5.22-.53.12l.27-.14-.36.12a1.8,1.8,0,0,1,.59-.36s.08,0,.11,0c.28-.23-.21-.21-.12-.29l-.12.18c-.34-.17-.21-.66-.87-.57l-.18.14c-.45.07.12-.27-.16-.34l0,0c-.2.1-.32.12-.34.06.24-.11.34-.4.61-.52-.48.1-.34.11-1.06.56l.26-.26c-.28.19-.42.3-.55.3.29-.16.38-.42.75-.64.44-.71-.81.34,0-.55-.79.66-.28.53-.47.64s-.6.48-.57.37.85-1,.7-1.12c0,0,.06,0,.07,0,.13-.24-.33.17-.1-.2-.44.44-.05-.1-.58.49l.23,0c-.2.09-.85.75-.66.33a3.36,3.36,0,0,1,.37-.33c.12-.2-.16.07,0-.13.52-.6.25,0,.71-.42.18-.29-.51.32.08-.3-.75.79,0-.21-.66.37l.3-.37c-.06,0-.23.2-.25.17l.43-.45c-.4.36.14-.47-.11-.3.16.1-.32.48-.47.8-.56.38.65-1.06.3-1,.07,0-.06.31-.24.45a1.82,1.82,0,0,1,.19-.52c-.2,0-.26.41-.49.61.29-.51-.2.14-.36.26l.27-.4c0-.36-.6.8-.52.41l.43-.52-.16.1.32-.45c-.3.29-.26.19-.26,0-.17.3-.49.73-.56.7.11-.27.27-.37.14-.37.18-.24.41-.55.21-.15l.27-.37c.13-.31-.08-.14-.12-.16a.19.19,0,0,1,0,.12l-.49.48a1.62,1.62,0,0,1,.26-.39c-.05,0-.19.2-.25.22A4.24,4.24,0,0,1,135,164l-.36.29a4.73,4.73,0,0,1,.27-.56c0-.24-.57.54-.51.22a.74.74,0,0,1-.14.16c0-.12.12-.58-.24-.17l.29-.64c-.16.09-.36.81-.62,1s.26-.54.32-.73c-.22.28-.65.87-.46.32C133.61,163.8,133.58,163.9,133.63,163.87Zm-1.08-.23c.07-.08.25-.34.13-.08C132.4,164,132.51,163.8,132.55,163.64Zm-1.89.28c.09-.13.07-.05,0,.12S130.62,164,130.66,163.92Zm-5.73-.76h0C124.83,163.3,124.88,163.25,124.93,163.16Zm.12-.22a.74.74,0,0,0-.18.1c.11-.05.13,0,.12,0S125.16,162.92,125.05,162.94Zm8.43,6.14.08-.1C133.67,168.89,133.58,169,133.48,169.08Z" transform="translate(-122.67 -158.84)"/><path class="cls-1" d="M131.14,163.44l-.12.23A1,1,0,0,0,131.14,163.44Z" transform="translate(-122.67 -158.84)"/><polygon class="cls-1" points="11.69 5.14 11.69 5.15 11.74 5.08 11.69 5.14"/><path class="cls-1" d="M129.16,161.65l-.16.19A.61.61,0,0,0,129.16,161.65Z" transform="translate(-122.67 -158.84)"/><path class="cls-1" d="M124,162.69l.15,0s0-.09.11-.14C124.15,162.63,124,162.71,124,162.69Z" transform="translate(-122.67 -158.84)"/><path class="cls-1" d="M126.5,160.95c-.06,0,0,0-.07,0l-.21.08S126.42,161,126.5,160.95Z" transform="translate(-122.67 -158.84)"/><path class="cls-1" d="M125.41,161.95c.37-.17.22-.16.13-.17s0,0,0,0C125,162,125.22,162,125.41,161.95Z" transform="translate(-122.67 -158.84)"/><path class="cls-1" d="M125.52,161.77s0,0,0,0C125.28,161.82,125.46,161.77,125.52,161.77Z" transform="translate(-122.67 -158.84)"/><path class="cls-1" d="M124.74,162.93c.08-.08-.46.24-.33.14C123.95,163.29,125.05,162.93,124.74,162.93Z" transform="translate(-122.67 -158.84)"/><polygon class="cls-1" points="3.94 2.52 3.49 2.74 3.87 2.59 3.94 2.52"/><path class="cls-1" d="M126.44,161.82l.09-.13a.55.55,0,0,1-.16.06S126.31,161.89,126.44,161.82Z" transform="translate(-122.67 -158.84)"/><path class="cls-1" d="M126.37,161.75s0,0-.1,0A.12.12,0,0,0,126.37,161.75Z" transform="translate(-122.67 -158.84)"/><polygon class="cls-1" points="4.12 2.53 4.03 2.59 4.02 2.65 4.12 2.53"/><path class="cls-1" d="M126.74,162.53l.16,0c.14-.09.22-.17.14-.15A1.29,1.29,0,0,0,126.74,162.53Z" transform="translate(-122.67 -158.84)"/><path class="cls-1" d="M127.76,161.59c-.08.07-.17.13-.31.23l.52-.34Z" transform="translate(-122.67 -158.84)"/><path class="cls-1" d="M128,161.65c.15-.09.46-.22.38-.25S128.06,161.53,128,161.65Z" transform="translate(-122.67 -158.84)"/><polygon class="cls-1" points="5.34 4.06 5.32 4.05 4.59 4.76 5.34 4.06"/><path class="cls-1" d="M130.21,161.62c.1-.23-.41.48-.26.21-.17.18-.12.22-.26.37C129.88,162,129.81,162.15,130.21,161.62Z" transform="translate(-122.67 -158.84)"/><path class="cls-1" d="M129.69,162.2l-.12.11Z" transform="translate(-122.67 -158.84)"/><polygon class="cls-1" points="11.1 11.86 10.9 11.89 11.23 11.86 11.1 11.86"/><path class="cls-1" d="M134.54,170.73l-.65,0h.59S134.39,170.74,134.54,170.73Z" transform="translate(-122.67 -158.84)"/><path class="cls-1" d="M133,162.42l-.08.14c-.07.15-.07.17-.06.21Z" transform="translate(-122.67 -158.84)"/><polygon class="cls-1" points="10.8 4.35 10.79 4.34 10.53 4.87 10.8 4.35"/><path class="cls-1" d="M134.43,162.87s-.11.06-.12,0S134.07,163.51,134.43,162.87Z" transform="translate(-122.67 -158.84)"/></svg>