<svg id="Слой_1" data-name="Слой 1" xmlns="http://www.w3.org/2000/svg" viewBox="0 0 29.51 43.94"><defs><style>.cls-1{fill:#fff;}.cls-2{fill:none;stroke:#fff;stroke-linecap:round;stroke-linejoin:round;}</style></defs><title>wave-top-right</title><path class="cls-1" d="M119.59,203.85a4,4,0,0,0,.38.25A3.32,3.32,0,0,0,119.59,203.85Z" transform="translate(-118.39 -160.16)"/><polygon class="cls-1" points="0.57 42.94 0.71 43.05 0.4 42.77 0.57 42.94"/><path class="cls-1" d="M119.15,202.87c-.58-.41,0,.16-.21,0l-.14-.09.45.36C119.22,203.08,119,202.79,119.15,202.87Z" transform="translate(-118.39 -160.16)"/><path class="cls-1" d="M120.43,203.73c-.22-.17-.17-.17-.08,0l.06,0S120.41,203.72,120.43,203.73Z" transform="translate(-118.39 -160.16)"/><path class="cls-1" d="M120.41,203.73s.19.14,0,0Z" transform="translate(-118.39 -160.16)"/><path class="cls-1" d="M120.34,203.54l.17.19a2.56,2.56,0,0,1,.25.19A2.3,2.3,0,0,0,120.34,203.54Z" transform="translate(-118.39 -160.16)"/><path class="cls-1" d="M120,203.18l.07.08C120.09,203.3,120.11,203.31,120,203.18Z" transform="translate(-118.39 -160.16)"/><path class="cls-1" d="M120.18,203.43l-.15-.18c-.09-.07-.26-.22.05.07C119.93,203.19,120.08,203.32,120.18,203.43Z" transform="translate(-118.39 -160.16)"/><path class="cls-1" d="M120.09,203.38a1.48,1.48,0,0,1-.39-.32C119.74,203.19,120.13,203.5,120.09,203.38Z" transform="translate(-118.39 -160.16)"/><path class="cls-1" d="M118.58,202.4l-.19-.1.17.17C118.48,202.39,118.76,202.54,118.58,202.4Z" transform="translate(-118.39 -160.16)"/><path class="cls-1" d="M120.73,203.68l-.44-.41.11.13A3.09,3.09,0,0,1,120.73,203.68Z" transform="translate(-118.39 -160.16)"/><path class="cls-1" d="M120.29,203.27l-.16-.2S120.17,203.15,120.29,203.27Z" transform="translate(-118.39 -160.16)"/><polygon class="cls-1" points="0.98 42.49 1.36 42.9 0.99 42.47 0.98 42.49"/><polygon class="cls-1" points="2.42 43.47 2.66 43.73 2.31 43.33 2.42 43.47"/><path class="cls-1" d="M120.82,203.54l.45.5s-.18-.24-.32-.42C121,203.72,121,203.7,120.82,203.54Z" transform="translate(-118.39 -160.16)"/><path class="cls-1" d="M120.76,203.35l.2.26Z" transform="translate(-118.39 -160.16)"/><path class="cls-1" d="M120.22,203.08c.07.06.24.23.32.29l-.31-.3Z" transform="translate(-118.39 -160.16)"/><path class="cls-1" d="M120.23,203.07h0Z" transform="translate(-118.39 -160.16)"/><path class="cls-1" d="M120.22,203.08h0S120.18,203,120.22,203.08Z" transform="translate(-118.39 -160.16)"/><path class="cls-1" d="M119.74,202.83a3.2,3.2,0,0,0-.61-.6C119.33,202.43,119.5,202.56,119.74,202.83Z" transform="translate(-118.39 -160.16)"/><path class="cls-1" d="M119.83,202.72l-.1,0c.08.08.2.19.28.28Z" transform="translate(-118.39 -160.16)"/><polygon class="cls-1" points="1.36 42.45 1.44 42.55 1.47 42.57 1.36 42.45"/><path class="cls-1" d="M120.46,203.09c-.11-.15-.11-.17-.12-.21s-.12-.07-.13-.05S120.45,203.11,120.46,203.09Z" transform="translate(-118.39 -160.16)"/><path class="cls-1" d="M120.32,203.05v0S120.27,203,120.32,203.05Z" transform="translate(-118.39 -160.16)"/><path class="cls-1" d="M120.48,202.75l0-.06,0,.06Z" transform="translate(-118.39 -160.16)"/><path class="cls-1" d="M120.15,202.77c-.07-.05,0,0,.08.14s0-.07,0-.08Z" transform="translate(-118.39 -160.16)"/><path class="cls-1" d="M120.66,203.17l-.17-.16C120.58,203.1,120.73,203.26,120.66,203.17Z" transform="translate(-118.39 -160.16)"/><path class="cls-1" d="M120.39,203.11v0C120.47,203.19,120.44,203.16,120.39,203.11Z" transform="translate(-118.39 -160.16)"/><path class="cls-1" d="M120.39,203.11l-.16-.2.08.12Z" transform="translate(-118.39 -160.16)"/><path class="cls-1" d="M118.88,200.51c.23.32.41.66.1.36a22.32,22.32,0,0,0,1.45,1.82,2.91,2.91,0,0,1-.31-.48,4.13,4.13,0,0,1-.57-.64c-.07-.21.13.07.27.22-.32-.38-.36-.63-.79-1.21l.09.24A2.82,2.82,0,0,0,118.88,200.51Z" transform="translate(-118.39 -160.16)"/><path class="cls-1" d="M120.35,202.71l0,0a3.87,3.87,0,0,1,.37.39c-.1-.17-.19-.29-.27-.39h-.09Z" transform="translate(-118.39 -160.16)"/><path class="cls-1" d="M120.32,202.81c-.27-.34-.35-.51-.67-.85,0,.06.2.3.3.47,0-.14.14.2.34.35a.31.31,0,0,1,0,.11l.15.13,0,0h0l0,0h0l-.1-.13a.33.33,0,0,1,.1.13l0,0h0l-.1-.23S120.32,202.75,120.32,202.81Z" transform="translate(-118.39 -160.16)"/><path class="cls-1" d="M118.5,201.55l.07.07S118.52,201.55,118.5,201.55Z" transform="translate(-118.39 -160.16)"/><path class="cls-1" d="M118.72,201.7s.16.17.11.16a1.9,1.9,0,0,1-.25-.24,1.35,1.35,0,0,0,.37.36l0,0a4.37,4.37,0,0,1,.59.47C119.22,202.13,119,201.94,118.72,201.7Z" transform="translate(-118.39 -160.16)"/><path class="cls-1" d="M119.48,202.14l-.08-.21-.28-.25.15.16C119.18,201.81,119.37,202,119.48,202.14Z" transform="translate(-118.39 -160.16)"/><polygon class="cls-1" points="2.22 42.76 2.49 43.12 2.12 42.59 2.22 42.76"/><polygon class="cls-1" points="2.24 42.67 2.47 42.99 2.34 42.79 2.24 42.67"/><path class="cls-1" d="M126.27,197.27l0-.11A.53.53,0,0,0,126.27,197.27Z" transform="translate(-118.39 -160.16)"/><path class="cls-1" d="M126.06,197.24v.19A.69.69,0,0,0,126.06,197.24Z" transform="translate(-118.39 -160.16)"/><path class="cls-1" d="M122.4,202.13c.08.36.19.93.13.49l-.07-.43C122.45,202.27,122.43,202.22,122.4,202.13Z" transform="translate(-118.39 -160.16)"/><path class="cls-1" d="M124.22,199.46v-.13l0,.41Z" transform="translate(-118.39 -160.16)"/><path class="cls-1" d="M124.29,197.67l.05.28A1.8,1.8,0,0,0,124.29,197.67Z" transform="translate(-118.39 -160.16)"/><path class="cls-1" d="M127.35,196.85l0-.44S127.36,196.63,127.35,196.85Z" transform="translate(-118.39 -160.16)"/><path class="cls-1" d="M121.21,202.34a1,1,0,0,0,.15.22C121.24,202.34,121.08,202,121.21,202.34Z" transform="translate(-118.39 -160.16)"/><path class="cls-1" d="M126,201.87a1.17,1.17,0,0,0,0-.26A.93.93,0,0,0,126,201.87Z" transform="translate(-118.39 -160.16)"/><path class="cls-1" d="M121.42,202.54l0-.09c0,.07,0,.13,0,.11C121.45,202.73,121.5,202.83,121.42,202.54Z" transform="translate(-118.39 -160.16)"/><path class="cls-1" d="M129.81,196.76l0,0Z" transform="translate(-118.39 -160.16)"/><path class="cls-1" d="M133.67,199s0,.05,0,.08S133.69,199.07,133.67,199Z" transform="translate(-118.39 -160.16)"/><path class="cls-1" d="M121,202.85s0,0,0,0Z" transform="translate(-118.39 -160.16)"/><path class="cls-1" d="M120,201.44l-.1-.18Z" transform="translate(-118.39 -160.16)"/><path class="cls-1" d="M120.71,199.92h0C120.67,199.85,120.68,199.86,120.71,199.92Z" transform="translate(-118.39 -160.16)"/><path class="cls-1" d="M120.85,202.7l.08.1Z" transform="translate(-118.39 -160.16)"/><path class="cls-1" d="M121,202.87l0,0C121,202.9,121,202.94,121,202.87Z" transform="translate(-118.39 -160.16)"/><path class="cls-1" d="M121,202.82s0,0,0,0l0,.06A.09.09,0,0,1,121,202.82Z" transform="translate(-118.39 -160.16)"/><path class="cls-1" d="M129,198.28v0C129,198.14,129,198.17,129,198.28Z" transform="translate(-118.39 -160.16)"/><path class="cls-1" d="M122.62,197.59v0h0Z" transform="translate(-118.39 -160.16)"/><path class="cls-1" d="M122.71,197.26c0,.54,0,.48-.09.37l.13,1.24Z" transform="translate(-118.39 -160.16)"/><path class="cls-1" d="M126.75,197.17l0-.39c.1-.64.14-.42.11-1-.06,1.36-.24.13-.31,1.49l0-.29s0-.07,0-.05c-.05-.65-.1,1-.21.78a1,1,0,0,1,0-.46l-.1.33s0-.26,0-.24l-.14.1v0l-.12.68c0-.2,0-.14,0-.31l-.09.33c0-.35.06-.69.11-.64,0-1.36-.08.34-.19-.46l.08-.17a3.63,3.63,0,0,0-.13-1,7.72,7.72,0,0,1,0,1.55c0-.1,0-.15-.1.12,0-.48,0-.37-.08-.34l0-.64a6.13,6.13,0,0,0-.12.79,3.63,3.63,0,0,1,0-1c-.1-.11,0,.8-.1.91-.08-.25-.16,0-.28.39a2.76,2.76,0,0,1,0-.57l-.08.51a1.1,1.1,0,0,1,0-.25,8,8,0,0,1-.11.81c0,.7-.12-1-.23-.24,0-.18,0-.39,0-.64a6.61,6.61,0,0,0-.24,1.08l-.08-.42a5.85,5.85,0,0,1-.12,1.51l0,.53-.11.34a4.2,4.2,0,0,1,0-.59l0,.15a4.62,4.62,0,0,1,0-1l0,.4c0-.39.07-.82.07-1.19a.63.63,0,0,1,0,.17,2.44,2.44,0,0,0,0-.26c0-.07,0,.07,0,.24v-.43l-.15-.45a13.09,13.09,0,0,1-.38,2.07c0-.52,0-.85,0-1.47.05.66.13-.28.23-.15a1.17,1.17,0,0,1,0-.47l-.16.6a1.18,1.18,0,0,0-.09-.59c0,1-.11.67-.17,1,0-.34,0-.68.08-.6-.11-.75-.09,1.18-.19.54,0,0,0,0,0-.13,0,.3-.16.06-.14-.23h0c-.13-.12-.41,0-.38.86l0-1.2q0,1.44,0,2.88a27.2,27.2,0,0,1-.17-2.88c0-.1-.09-.22-.14,0a8,8,0,0,1,.12,1.12,9.22,9.22,0,0,0-.26-1.11,5.88,5.88,0,0,1,.07,1.26c0-.17-.12-1.12-.11-1.25v1.13a8.76,8.76,0,0,0-.16-1.26c0,.22-.12,0-.14.11l.09.25c-.18-.15.05,1.58-.08,1.54a8.36,8.36,0,0,0-.26-1.55c0,.58.27,2.77.27,3.22l-.08-.32v.38a31.1,31.1,0,0,1-.29-3.41c-.1-.25-.08-.38-.17-.33a.63.63,0,0,1,0-.5l-.26-.15c.13.66,0,.7.07,1.24l.1-.73c.12.66.21,1.9.07,1.81-.09-.25-.21-1.18-.26-1.4,0,.23,0,.46-.1.3v-.36c-.14-.23.06.9-.18.29,0,0-.31-.82-.22-.43.25.73.81,3,.92,3.6,0,0-.3-.69-.44-1-.21-.57-.3-1.4-.47-1.89a3.9,3.9,0,0,1,.08.48c-.08-.14-.14-.55-.19-.46.17.65-.17,0,.12.56,0,.21-.11-.11-.19,0a11,11,0,0,1,.39,1.66c-.05-.17-.13-.38-.17-.47s-.31-.28-.44-.24a3.09,3.09,0,0,1-.29-.59c0,.12.1.34.06.37-.3-.52.05-.12-.27-.75a2.86,2.86,0,0,1,.15.79c.26.55.17.06.13-.19a12.76,12.76,0,0,1,.63,2c0,.22-.26-.48-.22-.37-.23-.08.53,1.38.17.89s-.5-.94-.69-1.28c0-.22.26.24.29.2l-.17-.2c-.06-.17-.07-.32,0-.2-.26-.41-.31.08-.65-.23a2.14,2.14,0,0,0,.25.53v-.09c.25.36.24.56.39.7s.32.72.14.54l-.34-.51c.1.15.24.28.15.12.13.24-.55-.64-.14,0l.28.33c.13.28.46.84.31.7.37.48,0-.06.4.5-.52-.71.11,0-.44-.77.48.67.24.26.65.84-.11-.17-.22-.32-.13-.25l-.09-.16h0v0h0l-.18-.25a3,3,0,0,1-.26-.65c.07.07.11.21.23.39l-.15-.33a5.9,5.9,0,0,1,.5.88h0c.14.21.21.28.14.1.06.08-.18-.47,0-.15a2.72,2.72,0,0,1-.05-.28l0,.1c.08,0-.13-.74.25,0,0-.11,0-.25,0-.15l.14.36c0-.14.2.34.09-.05.34,1,.18.16.3.34l-.13-.49s.05-.13.06-.34l-.11-.44c0-.37.2.28.27.22,0,.17,0,.13,0,0,.28,1,.06-.77.28-.06,0-.17,0-.11.05,0a.1.1,0,0,0,0,0h0l.07.23c0-.11,0-.2-.06-.24s0-.07,0-.18l.08.48h0c0,.17,0-.23-.07-.59,0-.08,0-.18,0-.29.12.77,0-.27.17.55a7.9,7.9,0,0,0,0-1.16c0,.11,0,.16,0,.17s.08.19.09-.05l.07.61v-.83a4.17,4.17,0,0,1,.1,1.06c0-.73.06-.28.1-1l0,.4s.05-.55.09-.23c.1.75.38.1.58.79,0-1.17.09.52.09-.38a3.67,3.67,0,0,1,0,.67c.09-.27.14.44.21-.33,0,.28,0,.4,0,.57,0-.06,0-.24,0-.08a1.56,1.56,0,0,1,0,.35,6.64,6.64,0,0,0,.14-1.69c0,.38.07.33.12-.19a1.44,1.44,0,0,1,0,.63s.21.39.23-.25c0,.16.05,0,.06,0s.09.1.17,0l0-.11c.06-.77.07-.17.14-.26v.08c.13.56.08-.26.2.38v-.48c.06-1,.1.61.21.22l0-.28c.07-.35.07,1.41.11,1.54a.52.52,0,0,1,0,.21c.1.61,0-.63.15-.77a4.59,4.59,0,0,0,0,.93c0,.28.24-1.09.3-.44a2.66,2.66,0,0,1,0-.72c.07-.09.14,1,.24.18a1.76,1.76,0,0,1,0,.2,2.82,2.82,0,0,0,.24-.79c0,1.66.37-.79.31.73l.17-.08v.16c.11.1.16-.26.2-.63a1.34,1.34,0,0,1,0,.33c.15.31.17.25.31-.51v.5c0-.28.23.78.4.2a1.56,1.56,0,0,1,0,.22c.17-.58.49,1.37.51-.44l.1-.45c-.16-.14,0-.78-.08-1.08,0-.11.17.54.11.64l0-.09c0,.94.2.33.24,1,.32-.08.7.4,1,.41l-.15-.72.11,0c.05.16.13.56,0,.54.11.4.08-.36.05-.52.21.25.08.86.13.86l.06-.07,0-.08c0-.31,0-.62.06-.61s.12.43.15.46,0,.07,0,0l.17,0-.19-.55c0-.29.14,0-.08-.62.33,1,.61.22.75.5,0-.42,0-.45.16-.45-.07-.1-.31-.7-.21-.66.46,1.26.37.47.84,1.31-.33-.55.21-.27-.29-1,.12.06.23.45.43.7-.06-.55.6.1.74-.24a3.37,3.37,0,0,1-.38-.59q.3.32.62.63c0-.11-.56-.85-.12-.42a1.25,1.25,0,0,1-.26-.34c.46.18.57-.13.7-.36s.25-.42,1.06-.15c-.32-.15-.31-.21-.29-.26a4.93,4.93,0,0,1-.54-.4l.67.22c-.52-.41.1-.21-.42-.57l.06.11c-.58-.46-1.45-.82-2.23-1.38.65.54-1.09-.64-.17.14-.16-.11-.23-.2-.41-.33.31.27.36.34.19.26l-.08-.07c0,.15-.31,0-.58-.19l.33.34a1.66,1.66,0,0,1-.26-.22c.46.55.08,0,.61.58-.69-.69-.18.12-.89-.72,0,0,.35.43.32.44l-.19-.23.22.31a3.84,3.84,0,0,1-.43-.53s0-.06,0-.08c-.22-.27,0,.14,0,.05l.12.13c.1.31-.2,0,0,.57l.11.2c.09.41-.17-.19-.17,0l0-.05c.07.21.09.33.05.32-.07-.25-.22-.46-.3-.74.08.45.1.35.29,1.15l-.14-.35a1.43,1.43,0,0,1,.09.6c0-.32-.2-.53-.28-.95-.33-.76,0,.83-.3-.31.2,1,.24.53.27.75s.15.75.08.67-.38-1.26-.45-1.22,0-.07,0-.07c-.08-.25,0,.36-.11,0,.09.62-.05,0,.07.76,0-.06,0-.14.06-.2,0,.22.09,1.14-.08.71,0-.16,0-.37,0-.49s0,.16-.09-.08c-.12-.79.1-.18,0-.79-.07-.32,0,.58-.11-.27.13,1.08-.11-.13-.06.7l-.06-.47c0,.07,0,.3,0,.29l0-.61c0,.53-.15-.45-.16-.16.1,0,.09.57.17.9-.07.65-.22-1.23-.32-1,0-.07.09.28.09.5a2.48,2.48,0,0,1-.12-.52c-.08.11.05.48,0,.78-.08-.57,0,.24-.07.43l0-.48c-.13-.3,0,1-.11.64l0-.67-.05.17v-.55c0,.41-.07.3-.14.15a2.48,2.48,0,0,1,0,.89c0-.29,0-.46-.07-.39,0-.3,0-.68.07-.24v-.46c-.05-.33-.1-.07-.13-.07a.25.25,0,0,1,0,.11l-.1.67a2.2,2.2,0,0,1,0-.47,2.44,2.44,0,0,1-.07.32,6.72,6.72,0,0,1,0-1l-.1.44c0-.17-.06-.47,0-.61s-.14.77-.22.46a.83.83,0,0,1,0,.2c-.08-.09-.14-.58-.25,0l0-.7c-.08.16.05.89-.08,1.15s0-.6,0-.8c-.05.35-.16,1.07-.22.5C126.7,197.11,126.72,197.22,126.75,197.17Zm-1,.27c0-.1.08-.41.08-.13C125.77,197.86,125.76,197.59,125.73,197.43Zm-1.65,1.1c0-.16,0-.08.07.1S124.1,198.66,124.08,198.54Zm-3.16,3.89v0C121,202.56,121,202.49,120.92,202.42Zm-.15-.15a1.7,1.7,0,0,0,.09.18c-.06-.11,0-.12,0-.1S120.74,202.17,120.77,202.27Zm9.15-.87,0-.12C129.89,201.14,129.91,201.26,129.92,201.4Z" transform="translate(-118.39 -160.16)"/><path class="cls-1" d="M124.28,197.88v.26A.91.91,0,0,0,124.28,197.88Z" transform="translate(-118.39 -160.16)"/><polygon class="cls-1" points="8.95 36.77 8.95 36.78 8.96 36.69 8.95 36.77"/><path class="cls-1" d="M120.56,198a1.14,1.14,0,0,1,.11.23C120.64,198.08,120.6,198,120.56,198Z" transform="translate(-118.39 -160.16)"/><path class="cls-1" d="M121,203.11l0-.12s-.06-.06-.11-.12A2.36,2.36,0,0,1,121,203.11Z" transform="translate(-118.39 -160.16)"/><path class="cls-1" d="M118.9,200.93c0,.05,0,0,0,.07l.14.17S119,201,118.9,200.93Z" transform="translate(-118.39 -160.16)"/><path class="cls-1" d="M120,201.79c-.23-.33-.18-.2-.17-.13h0C120.2,202.13,120.12,202,120,201.79Z" transform="translate(-118.39 -160.16)"/><path class="cls-1" d="M119.88,201.68s0,0,0,0C120,201.89,119.9,201.74,119.88,201.68Z" transform="translate(-118.39 -160.16)"/><path class="cls-1" d="M120.85,202.54c-.06-.08.25.45.17.31C121.26,203.31,120.76,202.27,120.85,202.54Z" transform="translate(-118.39 -160.16)"/><polygon class="cls-1" points="0.87 40.55 1.16 40.95 0.95 40.61 0.87 40.55"/><path class="cls-1" d="M119.73,200.85l-.13-.09a.64.64,0,0,1,.08.15S119.81,201,119.73,200.85Z" transform="translate(-118.39 -160.16)"/><path class="cls-1" d="M119.68,200.92s0,0,0,.1S119.7,201,119.68,200.92Z" transform="translate(-118.39 -160.16)"/><polygon class="cls-1" points="0.86 40.38 0.94 40.45 1 40.46 0.86 40.38"/><path class="cls-1" d="M120.35,200.62v-.15c-.06-.16-.12-.25-.12-.18A1.26,1.26,0,0,0,120.35,200.62Z" transform="translate(-118.39 -160.16)"/><path class="cls-1" d="M119.56,199.47a2.8,2.8,0,0,1,.2.32l-.27-.56Z" transform="translate(-118.39 -160.16)"/><path class="cls-1" d="M119.73,199.24c-.06-.16-.08-.5-.17-.42C119.62,199,119.59,199.14,119.73,199.24Z" transform="translate(-118.39 -160.16)"/><polygon class="cls-1" points="2.72 39.43 2.71 39.44 2.96 40.42 2.72 39.43"/><path class="cls-1" d="M121.77,197c-.14-.23.06.63-.08.33,0,.24.11.24.11.45C121.83,197.5,121.89,197.64,121.77,197Z" transform="translate(-118.39 -160.16)"/><path class="cls-1" d="M121.81,197.76v.16A1,1,0,0,0,121.81,197.76Z" transform="translate(-118.39 -160.16)"/><polygon class="cls-1" points="15.91 38.91 16.14 38.96 15.81 38.82 15.91 38.91"/><path class="cls-1" d="M133.76,198.54l.56.33-.47-.35S133.89,198.61,133.76,198.54Z" transform="translate(-118.39 -160.16)"/><path class="cls-1" d="M125.64,196.12v.16c0,.17,0,.18,0,.21Z" transform="translate(-118.39 -160.16)"/><polygon class="cls-1" points="7.97 36.48 7.96 36.47 7.96 37.05 7.97 36.48"/><path class="cls-1" d="M127,195.91s-.05.1-.07.08S126.95,196.65,127,195.91Z" transform="translate(-118.39 -160.16)"/><path class="cls-1" d="M132,183.38a4,4,0,0,0,.38.25A3.32,3.32,0,0,0,132,183.38Z" transform="translate(-118.39 -160.16)"/><polygon class="cls-1" points="13.02 22.48 13.15 22.58 12.84 22.3 13.02 22.48"/><path class="cls-1" d="M131.59,182.4c-.58-.41,0,.16-.21,0l-.14-.09.45.36C131.66,182.62,131.41,182.32,131.59,182.4Z" transform="translate(-118.39 -160.16)"/><path class="cls-1" d="M132.87,183.26c-.22-.17-.17-.17-.08,0l.06,0S132.85,183.26,132.87,183.26Z" transform="translate(-118.39 -160.16)"/><path class="cls-1" d="M132.85,183.27s.19.14,0,0Z" transform="translate(-118.39 -160.16)"/><path class="cls-1" d="M132.78,183.08l.17.19a2.56,2.56,0,0,1,.25.19A2.3,2.3,0,0,0,132.78,183.08Z" transform="translate(-118.39 -160.16)"/><path class="cls-1" d="M132.41,182.71l.07.08C132.53,182.83,132.55,182.85,132.41,182.71Z" transform="translate(-118.39 -160.16)"/><path class="cls-1" d="M132.62,183l-.15-.18c-.09-.07-.26-.22.05.07C132.37,182.72,132.52,182.86,132.62,183Z" transform="translate(-118.39 -160.16)"/><path class="cls-1" d="M132.53,182.91a1.48,1.48,0,0,1-.39-.32C132.18,182.72,132.57,183,132.53,182.91Z" transform="translate(-118.39 -160.16)"/><path class="cls-1" d="M131,181.93l-.19-.1.17.17C130.92,181.92,131.2,182.07,131,181.93Z" transform="translate(-118.39 -160.16)"/><path class="cls-1" d="M133.17,183.21l-.44-.41.11.13A3.09,3.09,0,0,1,133.17,183.21Z" transform="translate(-118.39 -160.16)"/><path class="cls-1" d="M132.73,182.8l-.16-.2S132.61,182.69,132.73,182.8Z" transform="translate(-118.39 -160.16)"/><polygon class="cls-1" points="13.42 22.02 13.8 22.43 13.43 22 13.42 22.02"/><polygon class="cls-1" points="14.86 23 15.1 23.26 14.75 22.86 14.86 23"/><path class="cls-1" d="M133.26,183.07l.45.5s-.18-.24-.32-.42C133.47,183.25,133.44,183.24,133.26,183.07Z" transform="translate(-118.39 -160.16)"/><path class="cls-1" d="M133.2,182.89l.2.26Z" transform="translate(-118.39 -160.16)"/><path class="cls-1" d="M132.66,182.61c.07.06.24.23.32.29l-.31-.3Z" transform="translate(-118.39 -160.16)"/><path class="cls-1" d="M132.67,182.6h0Z" transform="translate(-118.39 -160.16)"/><path class="cls-1" d="M132.66,182.61h0S132.62,182.58,132.66,182.61Z" transform="translate(-118.39 -160.16)"/><path class="cls-1" d="M132.18,182.36a3.2,3.2,0,0,0-.61-.6C131.77,182,131.94,182.09,132.18,182.36Z" transform="translate(-118.39 -160.16)"/><path class="cls-1" d="M132.27,182.25l-.1,0c.08.08.2.19.28.28Z" transform="translate(-118.39 -160.16)"/><polygon class="cls-1" points="13.79 21.98 13.88 22.09 13.91 22.1 13.79 21.98"/><path class="cls-1" d="M132.89,182.62c-.11-.15-.11-.17-.12-.21s-.12-.07-.13-.05S132.89,182.65,132.89,182.62Z" transform="translate(-118.39 -160.16)"/><path class="cls-1" d="M132.76,182.58v0S132.71,182.53,132.76,182.58Z" transform="translate(-118.39 -160.16)"/><path class="cls-1" d="M132.91,182.28l0-.06,0,.06Z" transform="translate(-118.39 -160.16)"/><path class="cls-1" d="M132.59,182.3c-.07-.05,0,0,.08.14s0-.07,0-.08Z" transform="translate(-118.39 -160.16)"/><path class="cls-1" d="M133.1,182.7l-.17-.16C133,182.64,133.17,182.79,133.1,182.7Z" transform="translate(-118.39 -160.16)"/><path class="cls-1" d="M132.83,182.65v0C132.91,182.73,132.88,182.69,132.83,182.65Z" transform="translate(-118.39 -160.16)"/><path class="cls-1" d="M132.83,182.65l-.16-.2.08.12Z" transform="translate(-118.39 -160.16)"/><path class="cls-1" d="M131.32,180c.23.32.41.66.1.36a22.32,22.32,0,0,0,1.45,1.82,2.91,2.91,0,0,1-.31-.48,4.13,4.13,0,0,1-.57-.64c-.07-.21.13.07.27.22-.32-.38-.36-.63-.79-1.21l.09.24A2.83,2.83,0,0,0,131.32,180Z" transform="translate(-118.39 -160.16)"/><path class="cls-1" d="M132.79,182.24l0,0a3.87,3.87,0,0,1,.37.39c-.1-.17-.19-.29-.27-.39h-.09Z" transform="translate(-118.39 -160.16)"/><path class="cls-1" d="M132.76,182.34c-.27-.34-.35-.51-.67-.85,0,.06.2.3.3.47,0-.14.14.2.34.35a.31.31,0,0,1,0,.11l.15.13,0,0h0l0,0h0l-.1-.13a.33.33,0,0,1,.1.13l0,0h0l-.1-.23S132.76,182.28,132.76,182.34Z" transform="translate(-118.39 -160.16)"/><path class="cls-1" d="M130.94,181.08l.07.07S131,181.08,130.94,181.08Z" transform="translate(-118.39 -160.16)"/><path class="cls-1" d="M131.16,181.23s.16.17.11.16a1.91,1.91,0,0,1-.25-.24,1.35,1.35,0,0,0,.37.36l0,0a4.37,4.37,0,0,1,.59.47C131.66,181.66,131.45,181.47,131.16,181.23Z" transform="translate(-118.39 -160.16)"/><path class="cls-1" d="M131.92,181.67l-.08-.21-.28-.25.15.16C131.62,181.35,131.81,181.54,131.92,181.67Z" transform="translate(-118.39 -160.16)"/><polygon class="cls-1" points="14.65 22.29 14.93 22.65 14.56 22.12 14.65 22.29"/><polygon class="cls-1" points="14.68 22.2 14.91 22.52 14.78 22.32 14.68 22.2"/><path class="cls-1" d="M138.71,176.8l0-.11A.54.54,0,0,0,138.71,176.8Z" transform="translate(-118.39 -160.16)"/><path class="cls-1" d="M138.5,176.77V177A.69.69,0,0,0,138.5,176.77Z" transform="translate(-118.39 -160.16)"/><path class="cls-1" d="M134.84,181.66c.08.36.19.93.13.49l-.07-.43C134.89,181.8,134.87,181.76,134.84,181.66Z" transform="translate(-118.39 -160.16)"/><path class="cls-1" d="M136.66,179v-.13l0,.41Z" transform="translate(-118.39 -160.16)"/><path class="cls-1" d="M136.73,177.2l.05.28A1.8,1.8,0,0,0,136.73,177.2Z" transform="translate(-118.39 -160.16)"/><path class="cls-1" d="M139.79,176.38l0-.44S139.79,176.17,139.79,176.38Z" transform="translate(-118.39 -160.16)"/><path class="cls-1" d="M133.65,181.87a1,1,0,0,0,.15.22C133.68,181.87,133.51,181.53,133.65,181.87Z" transform="translate(-118.39 -160.16)"/><path class="cls-1" d="M138.41,181.4a1.17,1.17,0,0,0,0-.26A.93.93,0,0,0,138.41,181.4Z" transform="translate(-118.39 -160.16)"/><path class="cls-1" d="M133.85,182.07l0-.09c0,.07,0,.13,0,.11C133.89,182.26,133.94,182.36,133.85,182.07Z" transform="translate(-118.39 -160.16)"/><path class="cls-1" d="M142.25,176.29l0,0Z" transform="translate(-118.39 -160.16)"/><path class="cls-1" d="M146.11,178.54s0,.05,0,.08S146.13,178.6,146.11,178.54Z" transform="translate(-118.39 -160.16)"/><path class="cls-1" d="M133.41,182.39s0,0,0,0Z" transform="translate(-118.39 -160.16)"/><path class="cls-1" d="M132.44,181l-.1-.18Z" transform="translate(-118.39 -160.16)"/><path class="cls-1" d="M133.14,179.45h0C133.11,179.38,133.12,179.39,133.14,179.45Z" transform="translate(-118.39 -160.16)"/><path class="cls-1" d="M133.29,182.23l.08.1Z" transform="translate(-118.39 -160.16)"/><path class="cls-1" d="M133.4,182.4l0,0C133.41,182.43,133.43,182.47,133.4,182.4Z" transform="translate(-118.39 -160.16)"/><path class="cls-1" d="M133.42,182.36s0,0,0,0l0,.06A.09.09,0,0,1,133.42,182.36Z" transform="translate(-118.39 -160.16)"/><path class="cls-1" d="M141.47,177.81v0C141.47,177.67,141.47,177.7,141.47,177.81Z" transform="translate(-118.39 -160.16)"/><path class="cls-1" d="M135.06,177.12v0h0Z" transform="translate(-118.39 -160.16)"/><path class="cls-1" d="M135.15,176.79c0,.54,0,.48-.09.37l.13,1.24Z" transform="translate(-118.39 -160.16)"/><path class="cls-1" d="M139.19,176.7l0-.39c.1-.64.14-.42.11-1-.06,1.36-.24.13-.31,1.49l0-.29s0-.07,0-.05c-.05-.65-.1,1-.21.78a1,1,0,0,1,0-.46l-.1.33s0-.26,0-.24l-.14.1v0l-.12.68c0-.2,0-.14,0-.31l-.09.33c0-.35.06-.69.11-.64,0-1.36-.08.34-.19-.46l.08-.17a3.63,3.63,0,0,0-.13-1,7.72,7.72,0,0,1,0,1.55c0-.1,0-.15-.1.12,0-.48,0-.37-.08-.34l0-.64a6.13,6.13,0,0,0-.12.79,3.63,3.63,0,0,1,0-1c-.1-.11,0,.8-.1.91-.08-.25-.16,0-.28.39a2.76,2.76,0,0,1,0-.57l-.08.51a1.11,1.11,0,0,1,0-.25,8,8,0,0,1-.11.81c0,.7-.12-1-.23-.24,0-.18,0-.39,0-.64a6.61,6.61,0,0,0-.24,1.08l-.08-.42a5.85,5.85,0,0,1-.12,1.51l0,.53-.11.34a4.2,4.2,0,0,1,0-.59l0,.15a4.62,4.62,0,0,1,0-1l0,.4c0-.39.07-.82.07-1.19a.63.63,0,0,1,0,.17,2.44,2.44,0,0,0,0-.26c0-.07,0,.07,0,.24v-.43l-.15-.45a13.09,13.09,0,0,1-.38,2.07c0-.52,0-.85,0-1.47.05.66.13-.28.23-.15a1.17,1.17,0,0,1,0-.47l-.16.6a1.18,1.18,0,0,0-.09-.59c0,1-.11.67-.17,1,0-.34,0-.68.08-.6-.11-.75-.09,1.18-.19.54,0,0,0,0,0-.13,0,.3-.16.06-.14-.23h0c-.13-.12-.41,0-.38.86l0-1.2q0,1.44,0,2.88a27.2,27.2,0,0,1-.17-2.88c0-.1-.09-.22-.14,0a7.94,7.94,0,0,1,.12,1.12,9.22,9.22,0,0,0-.26-1.11,5.88,5.88,0,0,1,.07,1.26c0-.17-.12-1.12-.11-1.25v1.13a8.76,8.76,0,0,0-.16-1.26c0,.22-.12,0-.14.11l.09.25c-.18-.15.05,1.58-.08,1.54a8.37,8.37,0,0,0-.26-1.55c0,.58.27,2.77.27,3.22l-.08-.32v.38a31.1,31.1,0,0,1-.29-3.41c-.1-.25-.08-.38-.17-.33a.63.63,0,0,1,0-.5l-.26-.15c.13.66,0,.7.07,1.24l.1-.73c.12.66.21,1.9.07,1.81-.09-.25-.21-1.18-.26-1.4,0,.23,0,.46-.1.3v-.36c-.14-.23.06.9-.18.29,0,0-.31-.82-.22-.43.25.73.81,3,.92,3.6,0,0-.3-.69-.44-1-.21-.57-.3-1.4-.47-1.89a3.91,3.91,0,0,1,.08.48c-.08-.14-.14-.55-.19-.46.17.65-.17,0,.12.56,0,.21-.11-.11-.19,0a11,11,0,0,1,.39,1.66c-.05-.17-.13-.38-.17-.47s-.31-.28-.44-.24a3.09,3.09,0,0,1-.29-.59c0,.12.1.34.06.37-.3-.52.05-.12-.27-.75a2.86,2.86,0,0,1,.15.79c.26.55.17.06.13-.19a12.76,12.76,0,0,1,.63,2c0,.22-.26-.48-.22-.37-.23-.08.53,1.38.16.89s-.5-.95-.69-1.28c0-.22.26.24.29.2l-.17-.2c-.06-.17-.07-.32,0-.2-.26-.41-.31.08-.65-.23a2.14,2.14,0,0,0,.25.53v-.09c.25.36.24.56.39.7s.32.72.14.54l-.34-.51c.1.15.24.28.15.12.13.24-.55-.64-.14,0l.28.33c.13.28.46.84.31.7.37.48,0-.06.4.5-.52-.71.11,0-.44-.77.48.67.24.26.65.84-.11-.17-.22-.32-.13-.25l-.09-.16h0v0h0l-.18-.25a3,3,0,0,1-.26-.65c.07.07.11.21.23.39l-.15-.33a5.9,5.9,0,0,1,.5.88h0c.14.21.21.28.14.1.06.08-.18-.47,0-.15a2.73,2.73,0,0,1-.05-.28l0,.1c.08,0-.13-.74.25,0,0-.11,0-.25,0-.15l.14.36c0-.14.2.34.09-.05.34,1,.18.16.3.34l-.13-.49s.05-.13.06-.34l-.11-.44c0-.37.2.28.27.22,0,.17,0,.13,0,0,.28,1,.06-.77.28-.06,0-.17,0-.11.05,0a.1.1,0,0,0,0,0h0l.07.23c0-.11,0-.2-.06-.24s0-.07,0-.18l.08.48h0c0,.17,0-.23-.07-.59,0-.08,0-.18,0-.29.12.77,0-.27.17.55a7.9,7.9,0,0,0,0-1.16c0,.11,0,.16,0,.17s.08.19.09-.05l.07.61v-.83a4.17,4.17,0,0,1,.1,1.06c0-.73.06-.28.1-1l0,.4s.05-.55.09-.23c.1.75.38.1.58.79,0-1.17.09.52.09-.38a3.67,3.67,0,0,1,0,.67c.09-.27.14.44.21-.33,0,.28,0,.4,0,.57,0-.06,0-.24,0-.08a1.56,1.56,0,0,1,0,.35,6.64,6.64,0,0,0,.14-1.69c0,.38.07.33.12-.19a1.44,1.44,0,0,1,0,.63s.21.39.23-.25c0,.16.05,0,.06,0s.09.1.17,0l0-.11c.06-.77.07-.17.14-.26v.08c.13.56.08-.26.2.38v-.48c.06-1,.1.61.21.22l0-.28c.07-.35.07,1.41.11,1.54a.52.52,0,0,1,0,.21c.1.61,0-.63.15-.77a4.59,4.59,0,0,0,0,.93c0,.28.24-1.09.3-.44a2.66,2.66,0,0,1,0-.72c.07-.09.14,1,.24.18a1.77,1.77,0,0,1,0,.2,2.82,2.82,0,0,0,.24-.79c0,1.66.37-.79.31.73l.17-.08v.16c.11.1.16-.26.2-.63a1.34,1.34,0,0,1,0,.33c.15.31.17.25.31-.51v.5c0-.28.23.78.4.2a1.57,1.57,0,0,1,0,.22c.17-.58.49,1.37.51-.44l.1-.45c-.16-.14,0-.78-.08-1.08,0-.11.17.54.11.64l0-.09c0,.94.2.33.24,1,.32-.08.7.4,1,.41l-.15-.72.11,0c.05.16.13.56,0,.54.11.4.08-.36.05-.52.21.25.08.86.13.86l.06-.07,0-.08c0-.31,0-.62.05-.61s.12.43.15.46,0,.07,0,0l.17,0-.19-.55c0-.29.14,0-.08-.62.33,1,.61.22.75.5,0-.42,0-.45.16-.45-.07-.1-.31-.7-.21-.66.46,1.26.37.47.84,1.31-.33-.55.21-.27-.29-1,.12.06.23.45.43.7-.06-.55.6.1.74-.24a3.37,3.37,0,0,1-.38-.59q.3.32.62.63c0-.11-.56-.85-.12-.42a1.25,1.25,0,0,1-.26-.34c.46.18.57-.13.7-.36s.25-.42,1.06-.15c-.32-.15-.31-.21-.29-.26a4.93,4.93,0,0,1-.54-.4l.67.22c-.52-.41.1-.21-.42-.57l.06.11c-.58-.46-1.45-.82-2.23-1.38.65.54-1.09-.64-.17.14-.16-.11-.23-.2-.41-.33.31.27.36.34.19.26l-.08-.07c0,.15-.31,0-.58-.19l.33.34a1.66,1.66,0,0,1-.26-.22c.46.55.08,0,.61.58-.69-.69-.18.12-.89-.72,0,0,.35.43.32.44l-.19-.23.22.31a3.85,3.85,0,0,1-.43-.53s0-.06,0-.08c-.22-.27,0,.14,0,.05l.12.13c.1.31-.2,0,0,.57l.11.2c.1.41-.17-.19-.17,0l0-.05c.07.21.09.33.05.32-.07-.25-.22-.46-.3-.74.08.45.1.35.29,1.15l-.14-.35a1.43,1.43,0,0,1,.09.6c0-.32-.2-.53-.28-.95-.33-.76,0,.83-.3-.31.2,1,.24.53.27.75s.15.75.08.67-.38-1.26-.45-1.22,0-.07,0-.07c-.08-.25,0,.36-.11,0,.09.62-.05,0,.07.76,0-.06,0-.14.06-.2,0,.22.09,1.14-.08.71,0-.16,0-.37,0-.49s0,.16-.09-.08c-.12-.79.1-.18,0-.79-.07-.32,0,.58-.11-.27.13,1.08-.11-.13-.06.7l-.06-.47c0,.07,0,.3,0,.29l0-.61c0,.53-.15-.45-.16-.16.1,0,.09.57.17.9-.07.65-.22-1.23-.32-1,0-.07.09.28.09.5a2.48,2.48,0,0,1-.12-.52c-.08.11.05.48,0,.78-.08-.57,0,.24-.07.43l0-.48c-.13-.3,0,1-.11.64l0-.67-.05.17v-.55c0,.41-.07.3-.14.15a2.48,2.48,0,0,1,0,.89c0-.29,0-.46-.07-.39,0-.3,0-.68.07-.24v-.46c-.05-.33-.1-.07-.13-.07a.25.25,0,0,1,0,.11l-.1.67a2.2,2.2,0,0,1,0-.47,2.45,2.45,0,0,1-.07.32,6.72,6.72,0,0,1,0-1l-.1.44c0-.17-.06-.47,0-.61s-.14.77-.22.46a.83.83,0,0,1,0,.2c-.08-.09-.14-.58-.25,0l0-.7c-.08.16.05.89-.08,1.15s0-.6,0-.8c-.05.35-.16,1.07-.22.5C139.14,176.64,139.16,176.75,139.19,176.7Zm-1,.27c0-.1.08-.41.08-.13C138.2,177.39,138.2,177.13,138.17,177Zm-1.65,1.1c0-.16,0-.08.07.1S136.54,178.19,136.52,178.07ZM133.36,182v0C133.46,182.09,133.41,182,133.36,182Zm-.15-.15a1.7,1.7,0,0,0,.09.18c-.06-.11,0-.12,0-.1S133.18,181.7,133.21,181.8Zm9.15-.87,0-.12C142.33,180.67,142.34,180.8,142.36,180.94Z" transform="translate(-118.39 -160.16)"/><path class="cls-1" d="M136.72,177.41v.26A.92.92,0,0,0,136.72,177.41Z" transform="translate(-118.39 -160.16)"/><polygon class="cls-1" points="21.39 16.3 21.39 16.31 21.39 16.22 21.39 16.3"/><path class="cls-1" d="M133,177.5a1.14,1.14,0,0,1,.11.23C133.08,177.62,133,177.52,133,177.5Z" transform="translate(-118.39 -160.16)"/><path class="cls-1" d="M133.41,182.64l0-.12s-.06-.06-.11-.12A2.37,2.37,0,0,1,133.41,182.64Z" transform="translate(-118.39 -160.16)"/><path class="cls-1" d="M131.34,180.46c0,.05,0,0,0,.07l.14.17S131.42,180.51,131.34,180.46Z" transform="translate(-118.39 -160.16)"/><path class="cls-1" d="M132.48,181.33c-.23-.33-.18-.2-.17-.13h0C132.64,181.66,132.56,181.5,132.48,181.33Z" transform="translate(-118.39 -160.16)"/><path class="cls-1" d="M132.32,181.21s0,0,0,0C132.43,181.42,132.34,181.27,132.32,181.21Z" transform="translate(-118.39 -160.16)"/><path class="cls-1" d="M133.29,182.07c-.06-.08.25.45.17.31C133.7,182.84,133.2,181.81,133.29,182.07Z" transform="translate(-118.39 -160.16)"/><polygon class="cls-1" points="13.31 20.08 13.6 20.48 13.39 20.14 13.31 20.08"/><path class="cls-1" d="M132.17,180.38l-.13-.09a.64.64,0,0,1,.08.15S132.25,180.51,132.17,180.38Z" transform="translate(-118.39 -160.16)"/><path class="cls-1" d="M132.12,180.45s0,0,0,.1S132.14,180.51,132.12,180.45Z" transform="translate(-118.39 -160.16)"/><polygon class="cls-1" points="13.3 19.91 13.38 19.98 13.44 19.99 13.3 19.91"/><path class="cls-1" d="M132.79,180.15V180c-.06-.16-.12-.25-.12-.18A1.26,1.26,0,0,0,132.79,180.15Z" transform="translate(-118.39 -160.16)"/><path class="cls-1" d="M132,179a2.8,2.8,0,0,1,.2.32l-.27-.56Z" transform="translate(-118.39 -160.16)"/><path class="cls-1" d="M132.17,178.77c-.06-.16-.08-.5-.17-.42C132.05,178.51,132,178.67,132.17,178.77Z" transform="translate(-118.39 -160.16)"/><polygon class="cls-1" points="15.16 18.96 15.15 18.97 15.4 19.96 15.16 18.96"/><path class="cls-1" d="M134.21,176.51c-.14-.23.06.63-.08.33,0,.24.11.24.11.45C134.27,177,134.32,177.18,134.21,176.51Z" transform="translate(-118.39 -160.16)"/><path class="cls-1" d="M134.25,177.29v.16A1,1,0,0,0,134.25,177.29Z" transform="translate(-118.39 -160.16)"/><polygon class="cls-1" points="28.34 18.45 28.57 18.49 28.25 18.35 28.34 18.45"/><path class="cls-1" d="M146.19,178.07l.56.33-.47-.35S146.33,178.14,146.19,178.07Z" transform="translate(-118.39 -160.16)"/><path class="cls-1" d="M138.08,175.65v.16c0,.17,0,.18,0,.21Z" transform="translate(-118.39 -160.16)"/><polygon class="cls-1" points="20.41 16.01 20.4 16 20.39 16.59 20.41 16.01"/><path class="cls-1" d="M139.4,175.45s-.05.1-.07.08S139.39,176.18,139.4,175.45Z" transform="translate(-118.39 -160.16)"/><path class="cls-1" d="M127.85,180.89s-.32-.22-.38-.26A1.43,1.43,0,0,0,127.85,180.89Z" transform="translate(-118.39 -160.16)"/><polygon class="cls-1" points="10.04 21.66 9.9 21.57 10.24 21.83 10.04 21.66"/><path class="cls-1" d="M128.23,182.23c.67.26,0-.2.23-.16l.15.06-.5-.29C128.15,182,128.44,182.25,128.23,182.23Z" transform="translate(-118.39 -160.16)"/><path class="cls-1" d="M126.7,181.85c.26.09.19.15.11,0l-.07,0S126.73,181.83,126.7,181.85Z" transform="translate(-118.39 -160.16)"/><path class="cls-1" d="M126.74,181.81c0-.06-.23-.06,0,0Z" transform="translate(-118.39 -160.16)"/><path class="cls-1" d="M126.77,182.11l-.2-.16c-.16,0-.22,0-.32-.07C126.35,182,126.51,182,126.77,182.11Z" transform="translate(-118.39 -160.16)"/><path class="cls-1" d="M127.23,182.36l-.08-.07C127.08,182.27,127.05,182.27,127.23,182.36Z" transform="translate(-118.39 -160.16)"/><path class="cls-1" d="M127,182.13l.17.15c.11,0,.33.12-.06-.06C127.28,182.31,127.1,182.22,127,182.13Z" transform="translate(-118.39 -160.16)"/><path class="cls-1" d="M127.1,182.13a.75.75,0,0,1,.47.17C127.53,182.15,127.06,182,127.1,182.13Z" transform="translate(-118.39 -160.16)"/><path class="cls-1" d="M128.89,182.56l.21,0-.2-.13C129,182.54,128.69,182.47,128.89,182.56Z" transform="translate(-118.39 -160.16)"/><path class="cls-1" d="M126.26,182.44c.14.05.39.1.58.16l-.15-.11A1.22,1.22,0,0,1,126.26,182.44Z" transform="translate(-118.39 -160.16)"/><path class="cls-1" d="M126.84,182.6l.22.16C127.11,182.7,127,182.65,126.84,182.6Z" transform="translate(-118.39 -160.16)"/><polygon class="cls-1" points="9.57 22.5 9.11 22.19 9.57 22.52 9.57 22.5"/><polygon class="cls-1" points="7.76 22.61 7.43 22.46 7.92 22.7 7.76 22.61"/><path class="cls-1" d="M126.15,183c-.27-.11-.49-.07-.65-.16a1.33,1.33,0,0,0,.47.3C125.86,183.06,125.9,183,126.15,183Z" transform="translate(-118.39 -160.16)"/><path class="cls-1" d="M126.26,183.3l-.3-.15A1.44,1.44,0,0,0,126.26,183.3Z" transform="translate(-118.39 -160.16)"/><path class="cls-1" d="M127,182.88a1.54,1.54,0,0,0-.43-.06l.42.09Z" transform="translate(-118.39 -160.16)"/><path class="cls-1" d="M127,182.91h0l0,.06Z" transform="translate(-118.39 -160.16)"/><path class="cls-1" d="M127,182.87h0S127,182.89,127,182.87Z" transform="translate(-118.39 -160.16)"/><path class="cls-1" d="M127.54,182.7a1.79,1.79,0,0,0,.8.33A7.27,7.27,0,0,1,127.54,182.7Z" transform="translate(-118.39 -160.16)"/><path class="cls-1" d="M127.48,183l.12,0a2.13,2.13,0,0,1-.37-.13Z" transform="translate(-118.39 -160.16)"/><polygon class="cls-1" points="9.2 22.91 9.09 22.83 9.04 22.85 9.2 22.91"/><path class="cls-1" d="M126.69,183.24c.17.08.18.13.19.18s.15-.07.16-.11S126.69,183.18,126.69,183.24Z" transform="translate(-118.39 -160.16)"/><path class="cls-1" d="M126.85,183.09h0S126.92,183.1,126.85,183.09Z" transform="translate(-118.39 -160.16)"/><path class="cls-1" d="M126.77,183.86h0Z" transform="translate(-118.39 -160.16)"/><path class="cls-1" d="M127.12,183.32c.09,0,0-.06-.13-.12a.14.14,0,0,1,0,.1C127.1,183.32,127.14,183.33,127.12,183.32Z" transform="translate(-118.39 -160.16)"/><path class="cls-1" d="M126.42,183.47h.25C126.53,183.45,126.32,183.44,126.42,183.47Z" transform="translate(-118.39 -160.16)"/><path class="cls-1" d="M126.76,183.08h0C126.65,183.06,126.69,183.07,126.76,183.08Z" transform="translate(-118.39 -160.16)"/><path class="cls-1" d="M126.76,183.08l.24.12a.53.53,0,0,0-.12-.1Z" transform="translate(-118.39 -160.16)"/><path class="cls-1" d="M129.44,184.43c-.39-.06-.73-.2-.3-.18a13.66,13.66,0,0,0-2.3-.38,1.62,1.62,0,0,1,.54.18,2.28,2.28,0,0,1,.88.05c.18.13-.16,0-.37.06.49,0,.69.23,1.42.32l-.25-.11A3,3,0,0,0,129.44,184.43Z" transform="translate(-118.39 -160.16)"/><path class="cls-1" d="M126.93,183.72l0,0a2.56,2.56,0,0,1-.56,0,1.52,1.52,0,0,0,.45.16l.1-.16Z" transform="translate(-118.39 -160.16)"/><path class="cls-1" d="M126.92,183.52a4.82,4.82,0,0,0,1,.29c0-.09-.34-.14-.5-.24.06.18-.22-.1-.49,0a.21.21,0,0,1-.09-.11l-.21,0h.09l.16,0c-.1,0-.11,0-.16,0l-.06,0h0l.19.21C127,183.65,127,183.61,126.92,183.52Z" transform="translate(-118.39 -160.16)"/><path class="cls-1" d="M129.19,183.41l-.1,0S129.18,183.42,129.19,183.41Z" transform="translate(-118.39 -160.16)"/><path class="cls-1" d="M128.93,183.37c-.05,0-.22-.09-.17-.11a1.62,1.62,0,0,1,.33.11,1.16,1.16,0,0,0-.49-.17l.05,0a4.18,4.18,0,0,1-.74-.12Z" transform="translate(-118.39 -160.16)"/><path class="cls-1" d="M128,183.44l.17.17.38,0-.22-.06C128.48,183.55,128.21,183.49,128,183.44Z" transform="translate(-118.39 -160.16)"/><polygon class="cls-1" points="8.16 23.68 7.72 23.58 8.33 23.77 8.16 23.68"/><polygon class="cls-1" points="8.18 23.87 7.79 23.8 8.02 23.89 8.18 23.87"/><path class="cls-1" d="M133.36,190l.11,0Z" transform="translate(-118.39 -160.16)"/><path class="cls-1" d="M133.28,189.78l-.17.09A.69.69,0,0,0,133.28,189.78Z" transform="translate(-118.39 -160.16)"/><path class="cls-1" d="M127.09,188.36c-.33.17-.85.42-.43.27l.4-.16C127,188.45,127,188.41,127.09,188.36Z" transform="translate(-118.39 -160.16)"/><path class="cls-1" d="M130.43,189.44l.11-.07-.38.17Z" transform="translate(-118.39 -160.16)"/><path class="cls-1" d="M132,188.61l-.22.18Z" transform="translate(-118.39 -160.16)"/><path class="cls-1" d="M134.37,190.83l.41-.18S134.56,190.73,134.37,190.83Z" transform="translate(-118.39 -160.16)"/><path class="cls-1" d="M126.68,185.92c-.16.06-.23.11-.25.15C126.67,186,127,185.91,126.68,185.92Z" transform="translate(-118.39 -160.16)"/><path class="cls-1" d="M129.33,192.22a1.18,1.18,0,0,0,.24-.11A.93.93,0,0,0,129.33,192.22Z" transform="translate(-118.39 -160.16)"/><path class="cls-1" d="M126.45,186.22l.1,0c-.08,0-.14-.06-.12-.11C126.25,186.14,126.15,186.2,126.45,186.22Z" transform="translate(-118.39 -160.16)"/><path class="cls-1" d="M135.32,196.53h-.05C135.32,196.55,135.32,196.54,135.32,196.53Z" transform="translate(-118.39 -160.16)"/><path class="cls-1" d="M130.79,196.44a0,0,0,0,1,0,0S130.74,196.4,130.79,196.44Z" transform="translate(-118.39 -160.16)"/><path class="cls-1" d="M126.33,184.77s0,0,0,0Z" transform="translate(-118.39 -160.16)"/><path class="cls-1" d="M128,184.72l.21,0Z" transform="translate(-118.39 -160.16)"/><path class="cls-1" d="M129.17,186.19h0C129.25,186.17,129.23,186.17,129.17,186.19Z" transform="translate(-118.39 -160.16)"/><path class="cls-1" d="M126.53,184.72l-.13,0Z" transform="translate(-118.39 -160.16)"/><path class="cls-1" d="M126.32,184.72l0,0C126.29,184.68,126.25,184.68,126.32,184.72Z" transform="translate(-118.39 -160.16)"/><path class="cls-1" d="M126.35,184.83s0,0,0-.06h-.07A.24.24,0,0,1,126.35,184.83Z" transform="translate(-118.39 -160.16)"/><path class="cls-1" d="M133.91,193.53l0,0C134.06,193.52,134,193.52,133.91,193.53Z" transform="translate(-118.39 -160.16)"/><path class="cls-1" d="M131.56,187.39h0Z" transform="translate(-118.39 -160.16)"/><path class="cls-1" d="M131.88,187.34c-.51.19-.45.14-.36.07l-1.14.52Z" transform="translate(-118.39 -160.16)"/><path class="cls-1" d="M133.73,190.38l.3-.26c.6-.24.44-.07.89-.4-1.19.66-.27-.19-1.45.48l.22-.19s.07,0,.06,0c.52-.41-.88.43-.77.23a1,1,0,0,1,.38-.27l-.34.09s.22-.15.21-.11l-.16-.06,0,0-.63.27c.15-.13.13-.06.28-.15l-.32.1c.29-.2.62-.32.6-.25,1.14-.74-.33.12.28-.41l.18,0c.64-.43.37-.33.75-.64a7.69,7.69,0,0,1-1.3.85c.08-.07.1-.12-.15,0,.42-.24.29-.22.24-.25l.56-.32a6.12,6.12,0,0,0-.73.33,3.62,3.62,0,0,1,.8-.57c0-.14-.65.46-.82.42.17-.19-.08-.11-.46,0a3.09,3.09,0,0,1,.49-.29l-.47.21a1.24,1.24,0,0,1,.21-.13,8.07,8.07,0,0,1-.74.34c-.62.33.83-.62.09-.31.15-.11.35-.18.56-.31a8.57,8.57,0,0,0-1,.36l.33-.27a6,6,0,0,1-1.37.65l-.44.3-.36.07a4.13,4.13,0,0,1,.53-.27l-.14.06a4.67,4.67,0,0,1,.85-.45l-.33.22c.35-.16.74-.35,1.07-.53l-.17.05.24-.12c.06,0-.07,0-.22.09l.62-.36-.25.13.34-.33a9.47,9.47,0,0,1-2,.65c.48-.2.77-.38,1.32-.66-.57.33.3,0,.22.1a1.44,1.44,0,0,1,.41-.23l-.59.15a1.51,1.51,0,0,0,.5-.32c-.88.47-.64.21-.94.29.3-.15.61-.29.57-.2.64-.4-1.1.43-.56.08,0,0,0,0,.13,0-.29.1-.12-.09.16-.2h0c.05-.15-.13-.29-.91,0l1.1-.47q-1.34.5-2.7,1c.68-.27,2.26-1,2.67-1.09.09-.06.19-.14-.07-.08a10.85,10.85,0,0,1-1,.45c.73-.37.38-.21,1-.54a6.84,6.84,0,0,1-1.19.43c.16-.06,1-.42,1.17-.45l-1.09.32a12,12,0,0,0,1.18-.47c-.2.09,0-.08-.13-.07l-.23.13c.12-.16-1.53.44-1.52.3a12.06,12.06,0,0,0,1.48-.54,21.73,21.73,0,0,1-3.12.76l.31-.12h-.39c.85-.17,2.63-.57,3.32-.74.24-.12.37-.13.32-.17a1.18,1.18,0,0,1,.47-.11l.16-.17c-.64.2-.67.11-1.21.27l.7-.07c-.64.21-1.84.48-1.76.34.25-.1,1.16-.31,1.37-.37-.23.05-.45,0-.29,0l.36-.06c.23-.11-.88.15-.28-.07,0,0,.82-.26.44-.17-.74.21-3,.79-3.61.89a8.25,8.25,0,0,1,1-.44c.58-.17,1.42-.24,1.91-.39-.18,0-.41.07-.48.07.15-.06.56-.11.46-.14-.68.13,0-.11-.57.09-.2,0,.13-.08.1-.13a7.84,7.84,0,0,1-1.68.17l.49-.1c0-.14.34-.24.34-.35a3.4,3.4,0,0,1,.65-.1,1.27,1.27,0,0,1-.37,0c.58-.11.1.06.8,0a3,3,0,0,1-.81-.06c-.61.06-.1.12.15.14a6.64,6.64,0,0,1-2.14-.06c-.22-.11.54-.08.42-.09.12-.21-1.47-.15-.87-.36a12.27,12.27,0,0,1,1.46,0c.2.08-.35.13-.33.19l.26-.08c.18,0,.31.07.15.11.49-.06.11-.32.57-.44a2.54,2.54,0,0,0-.58-.08l.07.05c-.44,0-.59-.13-.8-.07s-.77-.21-.52-.3l.61,0c-.18,0-.37,0-.18.08-.27-.07.84-.07,0-.2l-.43,0c-.3-.1-.94-.29-.74-.38-.6,0,.07,0-.64,0,.88,0-.06.28.87.28-.82,0-.36.1-1.06.15.2,0,.39,0,.28.08l.18,0h0s0,0,0,0a1.67,1.67,0,0,1,.31,0c.46.08.44.21.67.26-.1,0-.23,0-.45,0l.36.08c-.45,0-.75.12-1,0l0,.12c-.26.07-.36.17-.17.23-.1.06.49.13.14.09l.28.17h-.11c0,.19.78.29,0,.56.12,0,.26.09.15.2l-.38.07c.14.06-.35.29.05.26-1,.26-.17.44-.31.58l.5-.11c0,.09.16.14.38.19l.43-.12c.38,0-.25.3-.17.42-.17,0-.13,0,0-.06-.92.46.8.12.14.49.17,0,.12,0,0,.09h0a0,0,0,0,0,0,0l-.21.13.21-.12s.09,0,.21,0l-.45.18h0c-.15.1.23,0,.56-.19l.29-.05c-.72.3.28,0-.48.34.39-.12.36.08,1.16-.22-.1,0-.15.07-.16.06s-.15.15.09.1l-.56.25.8-.23a3.27,3.27,0,0,1-1,.44c.72-.16.3,0,1-.18l-.36.16s.54-.13.25,0c-.65.4.1.44-.42,1,1-.57-.42.33.39-.07a2.93,2.93,0,0,1-.59.31c.3,0-.3.37.41.09-.24.14-.37.17-.51.25.06,0,.23-.08.09,0a1.11,1.11,0,0,1-.33.13c.1.09.85-.3,1.56-.67-.3.23-.24.23.24,0-.22.14-.44.3-.56.29s-.21.4.35.09c-.14.09,0,.07.06,0s0,.13.06.18l.08-.07c.69-.35.19,0,.3,0l-.07,0c-.4.42.27-.07-.21.38l.41-.25c.9-.5-.46.43-.07.31l.22-.17c.33-.13-1.14.82-1.23.93a.53.53,0,0,1-.2.08c-.46.42.55-.3.73-.29a4.6,4.6,0,0,0-.78.5c-.22.17,1-.39.53,0a2.67,2.67,0,0,1,.62-.36c.12,0-.76.65,0,.3l-.17.11a2.84,2.84,0,0,0,.79-.23c-1.41.87.85-.13-.48.63l.15.09-.14.07c0,.13.3,0,.63-.16a1.47,1.47,0,0,1-.28.16c-.2.27-.14.25.59,0l-.43.25c.28-.1-.6.54,0,.38l-.2.09c.59-.12-1.09.9.56.17l.45-.1c.07-.18.72-.31,1-.49.12,0-.43.35-.55.33l.08,0c-.87.37-.23.29-.82.54.12.2-.28.59-.25.78l.68-.26v.08c-.15.07-.53.2-.52.15-.38.15.36,0,.51-.08a4,4,0,0,1-.83.26h.06l.08,0c.29-.06.59-.15.57-.09s-.43.14-.45.16-.07,0,0,0l0,.08.55-.17c.28,0,0,.09.61-.11-1,.3-.28.39-.57.49.43,0,.43,0,.37.1.12,0,.76-.12.69,0-1.33.11-.58.16-1.54.25.64-.07.16.11,1.07,0-.11,0-.5,0-.82,0,.52.09-.3.17-.17.25s.45,0,.7.09l-.88-.07c.08,0,1,.17.39.11a3,3,0,0,1,.42.07c-.45,0-.28.15-.22.29s-.06.26-.82,0c.32.12.34.15.35.18s.39.19.61.29l-.63-.21c.58.33,0,.11.55.43l-.09-.09c.62.42,1.48.75,2.32,1.2-.72-.46,1.24.33.21-.35.19,0,.27.15.48.23-.36-.21-.42-.28-.21-.29l.09,0c0-.28.46-.22.79-.47l-.46-.11a.81.81,0,0,1,.34,0c-.68-.26-.08.17-.83-.11.95.17.1-.42,1.18-.26,0-.11-.54-.07-.52-.17l.3,0-.37-.09a1.8,1.8,0,0,1,.7,0s.06.06.08.08c.36,0-.07-.29,0-.31l-.2.09c-.2-.32.17-.67-.45-.94l-.22,0c-.42-.18.24-.17,0-.37h.05c-.22,0-.34-.07-.32-.13.26,0,.5-.16.79-.12-.46-.17-.35-.08-1.19-.08l.36-.09c-.34,0-.52,0-.63,0,.33,0,.54-.16,1-.15.75-.37-.87-.13.26-.49-1,.14-.51.3-.74.3s-.77.09-.68,0,1.25-.41,1.19-.59c0,0,.07,0,.07,0,.24-.14-.37,0,0-.23-.6.14,0-.11-.75.12l.21.09c-.22,0-1.12.19-.74-.06a3.35,3.35,0,0,1,.49-.09c.21-.11-.17,0,0-.13.75-.24.23.1.83,0,.31-.16-.6,0,.23-.22-1.06.28.07-.2-.75,0l.45-.15c-.08,0-.3.05-.3,0l.6-.15c-.53.09.37-.33.06-.31.08.17-.52.24-.82.44-.67,0,1.11-.56.8-.73.08,0-.22.23-.44.26a1.82,1.82,0,0,1,.44-.34c-.16-.12-.44.21-.74.26.51-.28-.25,0-.44,0l.44-.2c.21-.3-.94.37-.66.08l.64-.22h-.19l.51-.21c-.41.09-.32,0-.22-.12-.3.16-.8.37-.84.31.24-.17.43-.17.32-.24.28-.11.64-.25.26,0l.43-.17c.27-.19,0-.16,0-.2a.19.19,0,0,1-.08.09l-.67.16a1.62,1.62,0,0,1,.43-.2c-.06,0-.27.07-.33.05a4.24,4.24,0,0,1,.91-.37l-.46.06a4.73,4.73,0,0,1,.52-.33c.16-.19-.77.16-.55-.08a.74.74,0,0,1-.2.06c0-.13.41-.43-.12-.28l.58-.4c-.18,0-.73.51-1,.5s.5-.33.66-.45c-.34.13-1,.4-.56,0C133.75,190.31,133.67,190.38,133.73,190.38Zm-.8-.76c.1,0,.39-.16.15,0C132.59,189.88,132.81,189.73,132.93,189.62Zm-1.76-.75c.15-.06.09,0-.06.1S131.08,189,131.18,188.87Zm-4.48-3.65h0C126.53,185.29,126.6,185.26,126.7,185.22Zm.22-.13a.74.74,0,0,0-.2,0c.12,0,.13,0,.09.07C126.93,185.15,127,185.13,126.91,185.09Zm4,9.64.12,0C131.13,194.68,131,194.71,130.88,194.74Z" transform="translate(-118.39 -160.16)"/><path class="cls-1" d="M131.84,188.71l-.23.13A1,1,0,0,0,131.84,188.71Z" transform="translate(-118.39 -160.16)"/><polygon class="cls-1" points="15.9 30.7 15.89 30.71 15.97 30.67 15.9 30.7"/><path class="cls-1" d="M131.08,186.14l-.24.08A.61.61,0,0,0,131.08,186.14Z" transform="translate(-118.39 -160.16)"/><path class="cls-1" d="M126.14,184.33l.12.1s.09-.05.16-.06C126.31,184.36,126.14,184.36,126.14,184.33Z" transform="translate(-118.39 -160.16)"/><path class="cls-1" d="M129.18,184.16c-.06,0,0,0-.06,0l-.22,0S129.08,184.17,129.18,184.16Z" transform="translate(-118.39 -160.16)"/><path class="cls-1" d="M127.74,184.44c.4,0,.27,0,.2-.08s0,0,0,0C127.37,184.28,127.56,184.36,127.74,184.44Z" transform="translate(-118.39 -160.16)"/><path class="cls-1" d="M127.92,184.35s0,0,0,0C127.69,184.26,127.87,184.31,127.92,184.35Z" transform="translate(-118.39 -160.16)"/><path class="cls-1" d="M126.65,184.92c.11,0-.52,0-.35-.05C125.79,184.82,126.91,185.09,126.65,184.92Z" transform="translate(-118.39 -160.16)"/><polygon class="cls-1" points="10.67 24.4 10.18 24.36 10.57 24.43 10.67 24.4"/><path class="cls-1" d="M128.68,184.87l.14-.06a.55.55,0,0,1-.17,0S128.53,184.86,128.68,184.87Z" transform="translate(-118.39 -160.16)"/><path class="cls-1" d="M128.65,184.77s0,0-.08-.06S128.59,184.75,128.65,184.77Z" transform="translate(-118.39 -160.16)"/><polygon class="cls-1" points="10.82 24.51 10.71 24.52 10.67 24.56 10.82 24.51"/><path class="cls-1" d="M128.57,185.63l.15.07c.17,0,.27,0,.2-.05A1.29,1.29,0,0,0,128.57,185.63Z" transform="translate(-118.39 -160.16)"/><path class="cls-1" d="M129.92,185.36l-.38,0,.62,0Z" transform="translate(-118.39 -160.16)"/><path class="cls-1" d="M130.08,185.53c.17,0,.5.05.46,0S130.21,185.47,130.08,185.53Z" transform="translate(-118.39 -160.16)"/><polygon class="cls-1" points="11.05 26.45 11.04 26.43 10.05 26.66 11.05 26.45"/><path class="cls-1" d="M132,186.67c.2-.14-.6.2-.33,0-.23.06-.21.13-.42.18A2,2,0,0,0,132,186.67Z" transform="translate(-118.39 -160.16)"/><path class="cls-1" d="M131.25,186.89l-.15,0Z" transform="translate(-118.39 -160.16)"/><polygon class="cls-1" points="11.88 36.11 11.69 36.03 11.99 36.19 11.88 36.11"/><path class="cls-1" d="M130.91,196.7l-.56-.33.5.32S130.78,196.63,130.91,196.7Z" transform="translate(-118.39 -160.16)"/><path class="cls-1" d="M134,188.83l-.14.07c-.14.09-.15.11-.16.15Z" transform="translate(-118.39 -160.16)"/><polygon class="cls-1" points="15.55 29.56 15.55 29.54 15.06 29.86 15.55 29.56"/><path class="cls-1" d="M134.93,189.95s-.12,0-.12,0S134.3,190.31,134.93,189.95Z" transform="translate(-118.39 -160.16)"/><path class="cls-2" d="M142.38,161.66" transform="translate(-118.39 -160.16)"/><path class="cls-1" d="M140.28,160.42s-.32-.22-.38-.26A1.43,1.43,0,0,0,140.28,160.42Z" transform="translate(-118.39 -160.16)"/><polygon class="cls-1" points="22.48 1.19 22.34 1.1 22.68 1.36 22.48 1.19"/><path class="cls-1" d="M140.67,161.76c.67.26,0-.2.23-.16l.15.06-.5-.29C140.59,161.51,140.88,161.78,140.67,161.76Z" transform="translate(-118.39 -160.16)"/><path class="cls-1" d="M139.14,161.38c.26.09.19.15.11,0l-.07,0S139.17,161.37,139.14,161.38Z" transform="translate(-118.39 -160.16)"/><path class="cls-1" d="M139.18,161.34c0-.06-.23-.06,0,0Z" transform="translate(-118.39 -160.16)"/><path class="cls-1" d="M139.21,161.64l-.2-.16c-.16,0-.22,0-.32-.07C138.78,161.54,138.94,161.58,139.21,161.64Z" transform="translate(-118.39 -160.16)"/><path class="cls-1" d="M139.67,161.89l-.08-.07C139.52,161.8,139.49,161.8,139.67,161.89Z" transform="translate(-118.39 -160.16)"/><path class="cls-1" d="M139.41,161.67l.17.15c.11,0,.33.12-.06-.06C139.72,161.84,139.54,161.75,139.41,161.67Z" transform="translate(-118.39 -160.16)"/><path class="cls-1" d="M139.53,161.67a.75.75,0,0,1,.47.17C140,161.68,139.5,161.5,139.53,161.67Z" transform="translate(-118.39 -160.16)"/><path class="cls-1" d="M141.33,162.09l.21,0-.2-.13C141.44,162.07,141.12,162,141.33,162.09Z" transform="translate(-118.39 -160.16)"/><path class="cls-1" d="M138.7,162c.14.05.39.1.58.16l-.15-.11A1.22,1.22,0,0,1,138.7,162Z" transform="translate(-118.39 -160.16)"/><path class="cls-1" d="M139.28,162.13l.22.16C139.55,162.24,139.44,162.18,139.28,162.13Z" transform="translate(-118.39 -160.16)"/><polygon class="cls-1" points="22.01 2.03 21.55 1.72 22 2.05 22.01 2.03"/><polygon class="cls-1" points="20.19 2.14 19.87 1.99 20.36 2.23 20.19 2.14"/><path class="cls-1" d="M138.59,162.54c-.27-.11-.49-.07-.65-.16a1.33,1.33,0,0,0,.47.3C138.29,162.59,138.34,162.55,138.59,162.54Z" transform="translate(-118.39 -160.16)"/><path class="cls-1" d="M138.7,162.83l-.3-.15A1.44,1.44,0,0,0,138.7,162.83Z" transform="translate(-118.39 -160.16)"/><path class="cls-1" d="M139.39,162.41a1.54,1.54,0,0,0-.43-.06l.42.09Z" transform="translate(-118.39 -160.16)"/><path class="cls-1" d="M139.39,162.44h0l0,.06Z" transform="translate(-118.39 -160.16)"/><path class="cls-1" d="M139.4,162.4h0S139.45,162.42,139.4,162.4Z" transform="translate(-118.39 -160.16)"/><path class="cls-1" d="M140,162.24a1.79,1.79,0,0,0,.8.33A7.27,7.27,0,0,1,140,162.24Z" transform="translate(-118.39 -160.16)"/><path class="cls-1" d="M139.92,162.52l.12,0a2.13,2.13,0,0,1-.37-.13Z" transform="translate(-118.39 -160.16)"/><polygon class="cls-1" points="21.64 2.44 21.52 2.36 21.48 2.38 21.64 2.44"/><path class="cls-1" d="M139.13,162.77c.17.08.18.13.19.18s.15-.07.16-.11S139.13,162.71,139.13,162.77Z" transform="translate(-118.39 -160.16)"/><path class="cls-1" d="M139.29,162.62h0S139.36,162.64,139.29,162.62Z" transform="translate(-118.39 -160.16)"/><path class="cls-1" d="M139.21,163.39h0Z" transform="translate(-118.39 -160.16)"/><path class="cls-1" d="M139.56,162.85c.09,0,0-.06-.13-.12a.14.14,0,0,1,0,.1C139.54,162.85,139.58,162.86,139.56,162.85Z" transform="translate(-118.39 -160.16)"/><path class="cls-1" d="M138.86,163h.25C139,163,138.75,163,138.86,163Z" transform="translate(-118.39 -160.16)"/><path class="cls-1" d="M139.2,162.61h0C139.09,162.59,139.13,162.6,139.2,162.61Z" transform="translate(-118.39 -160.16)"/><path class="cls-1" d="M139.2,162.61l.24.12a.53.53,0,0,0-.12-.1Z" transform="translate(-118.39 -160.16)"/><path class="cls-1" d="M141.88,164c-.39-.06-.73-.2-.3-.18a13.66,13.66,0,0,0-2.3-.38,1.62,1.62,0,0,1,.54.18,2.28,2.28,0,0,1,.88.05c.18.13-.16,0-.37.06.49,0,.69.23,1.42.32l-.25-.11A3,3,0,0,0,141.88,164Z" transform="translate(-118.39 -160.16)"/><path class="cls-1" d="M139.36,163.25l0,0a2.56,2.56,0,0,1-.56,0,1.52,1.52,0,0,0,.45.16l.1-.16Z" transform="translate(-118.39 -160.16)"/><path class="cls-1" d="M139.36,163.05a4.82,4.82,0,0,0,1,.29c0-.09-.34-.14-.5-.24.06.18-.22-.1-.49,0a.21.21,0,0,1-.09-.11l-.21,0h.09l.16,0c-.1,0-.11,0-.16,0l-.06,0h0l.19.21C139.39,163.18,139.39,163.14,139.36,163.05Z" transform="translate(-118.39 -160.16)"/><path class="cls-1" d="M141.63,162.94l-.1,0S141.61,163,141.63,162.94Z" transform="translate(-118.39 -160.16)"/><path class="cls-1" d="M141.37,162.91c-.05,0-.22-.09-.17-.11a1.62,1.62,0,0,1,.33.11,1.17,1.17,0,0,0-.49-.17l.05,0a4.18,4.18,0,0,1-.74-.12Z" transform="translate(-118.39 -160.16)"/><path class="cls-1" d="M140.48,163l.17.17.38,0-.22-.06C140.91,163.08,140.64,163,140.48,163Z" transform="translate(-118.39 -160.16)"/><polygon class="cls-1" points="20.6 3.21 20.15 3.11 20.77 3.31 20.6 3.21"/><polygon class="cls-1" points="20.62 3.4 20.23 3.33 20.46 3.42 20.62 3.4"/><path class="cls-1" d="M145.8,169.51l.11,0Z" transform="translate(-118.39 -160.16)"/><path class="cls-1" d="M145.71,169.32l-.17.09A.69.69,0,0,0,145.71,169.32Z" transform="translate(-118.39 -160.16)"/><path class="cls-1" d="M139.53,167.89c-.33.17-.85.42-.43.27l.4-.16C139.41,168,139.45,167.94,139.53,167.89Z" transform="translate(-118.39 -160.16)"/><path class="cls-1" d="M142.87,169l.11-.07-.38.17Z" transform="translate(-118.39 -160.16)"/><path class="cls-1" d="M144.46,168.14l-.22.18Z" transform="translate(-118.39 -160.16)"/><path class="cls-1" d="M146.8,170.36l.41-.18S147,170.26,146.8,170.36Z" transform="translate(-118.39 -160.16)"/><path class="cls-1" d="M139.12,165.45c-.16.06-.23.11-.25.15C139.11,165.52,139.48,165.44,139.12,165.45Z" transform="translate(-118.39 -160.16)"/><path class="cls-1" d="M141.77,171.75a1.18,1.18,0,0,0,.24-.11A.93.93,0,0,0,141.77,171.75Z" transform="translate(-118.39 -160.16)"/><path class="cls-1" d="M138.89,165.75l.1,0c-.08,0-.14-.06-.12-.11C138.69,165.67,138.58,165.74,138.89,165.75Z" transform="translate(-118.39 -160.16)"/><path class="cls-1" d="M147.75,176.06h-.05C147.76,176.08,147.76,176.08,147.75,176.06Z" transform="translate(-118.39 -160.16)"/><path class="cls-1" d="M143.23,176a0,0,0,0,1,0,0S143.18,175.93,143.23,176Z" transform="translate(-118.39 -160.16)"/><path class="cls-1" d="M138.76,164.31s0,0,0,0Z" transform="translate(-118.39 -160.16)"/><path class="cls-1" d="M140.49,164.25l.21,0Z" transform="translate(-118.39 -160.16)"/><path class="cls-1" d="M141.61,165.72h0C141.69,165.7,141.67,165.7,141.61,165.72Z" transform="translate(-118.39 -160.16)"/><path class="cls-1" d="M139,164.26l-.13,0Z" transform="translate(-118.39 -160.16)"/><path class="cls-1" d="M138.76,164.25l0,0C138.73,164.21,138.69,164.21,138.76,164.25Z" transform="translate(-118.39 -160.16)"/><path class="cls-1" d="M138.78,164.36s0,0,0-.06h-.07A.24.24,0,0,1,138.78,164.36Z" transform="translate(-118.39 -160.16)"/><path class="cls-1" d="M146.35,173.06l0,0C146.49,173.05,146.46,173,146.35,173.06Z" transform="translate(-118.39 -160.16)"/><path class="cls-1" d="M144,166.92h0Z" transform="translate(-118.39 -160.16)"/><path class="cls-1" d="M144.32,166.87c-.51.19-.45.14-.36.07l-1.14.52Z" transform="translate(-118.39 -160.16)"/><path class="cls-1" d="M146.17,169.91l.3-.26c.6-.24.44-.07.89-.4-1.19.66-.27-.19-1.45.48l.22-.19s.07,0,.06,0c.52-.41-.88.43-.77.23a1,1,0,0,1,.38-.27l-.34.09s.22-.15.21-.11l-.16-.06,0,0-.63.27c.15-.13.13-.06.28-.15l-.32.1c.29-.2.62-.32.6-.25,1.14-.74-.33.12.28-.41l.18,0c.64-.43.37-.33.75-.64a7.69,7.69,0,0,1-1.3.85c.08-.07.1-.12-.15,0,.42-.24.29-.22.24-.25l.56-.32a6.12,6.12,0,0,0-.73.33,3.62,3.62,0,0,1,.8-.57c0-.14-.65.46-.82.42.17-.19-.08-.11-.46,0a3.09,3.09,0,0,1,.49-.29l-.47.21a1.24,1.24,0,0,1,.21-.13,8.07,8.07,0,0,1-.74.34c-.62.33.83-.62.09-.31.15-.11.35-.18.56-.31a8.57,8.57,0,0,0-1,.36l.33-.27a6,6,0,0,1-1.37.65l-.44.3-.36.07a4.13,4.13,0,0,1,.53-.27l-.14.06a4.67,4.67,0,0,1,.85-.45l-.33.22c.35-.16.74-.35,1.07-.53l-.17.05.24-.12c.06,0-.07,0-.22.09l.62-.36-.25.13.34-.33a9.47,9.47,0,0,1-2,.65c.48-.2.77-.38,1.32-.66-.57.33.3,0,.22.1a1.44,1.44,0,0,1,.41-.23l-.59.15a1.51,1.51,0,0,0,.5-.32c-.88.47-.64.21-.94.29.3-.15.61-.29.57-.2.64-.4-1.1.43-.56.08,0,0,0,0,.13,0-.29.1-.12-.09.16-.2h0c.05-.15-.13-.29-.91,0l1.1-.47q-1.34.5-2.7,1c.68-.27,2.26-1,2.67-1.09.09-.06.19-.14-.07-.08a10.85,10.85,0,0,1-1,.45c.73-.37.38-.21,1-.54a6.84,6.84,0,0,1-1.19.43c.16-.06,1-.42,1.17-.45l-1.09.32a12,12,0,0,0,1.18-.47c-.2.09,0-.08-.13-.07l-.23.13c.12-.16-1.53.44-1.52.3a12.06,12.06,0,0,0,1.48-.54,21.72,21.72,0,0,1-3.12.76l.31-.12h-.39c.85-.17,2.63-.57,3.32-.74.24-.12.37-.13.32-.17a1.18,1.18,0,0,1,.47-.11l.16-.17c-.64.2-.67.11-1.21.27l.7-.07c-.64.21-1.84.48-1.76.34.25-.1,1.16-.31,1.37-.37-.23.05-.45,0-.29,0l.36-.06c.23-.11-.88.15-.28-.07,0,0,.82-.26.44-.17-.74.21-3,.79-3.61.89a8.25,8.25,0,0,1,1-.44c.58-.17,1.42-.24,1.91-.39-.18,0-.41.07-.48.07.15-.06.56-.11.46-.14-.68.13,0-.11-.57.09-.2,0,.13-.08.1-.13a7.84,7.84,0,0,1-1.68.17l.49-.1c0-.14.34-.24.34-.35a3.4,3.4,0,0,1,.65-.1,1.27,1.27,0,0,1-.37,0c.58-.11.1.06.8,0a3,3,0,0,1-.81-.06c-.61.06-.1.12.15.14a6.64,6.64,0,0,1-2.14-.06c-.22-.11.54-.08.42-.09.12-.21-1.47-.15-.87-.36a12.27,12.27,0,0,1,1.46,0c.2.08-.35.13-.33.19l.26-.08c.18,0,.31.07.15.11.49-.06.11-.32.57-.44a2.54,2.54,0,0,0-.58-.08l.07.05c-.44,0-.59-.13-.8-.07s-.77-.21-.52-.3l.61,0c-.18,0-.37,0-.18.08-.27-.07.84-.07,0-.2l-.43,0c-.3-.1-.94-.29-.74-.38-.6,0,.07,0-.64,0,.88,0-.06.28.87.28-.82,0-.36.1-1.06.15.2,0,.39,0,.28.08l.18,0h0s0,0,0,0a1.67,1.67,0,0,1,.31,0c.46.08.44.21.67.26-.1,0-.23,0-.45,0l.36.08c-.45,0-.75.12-1,0l0,.12c-.26.07-.36.17-.17.23-.1.06.49.13.14.09l.28.17H139c0,.19.78.29,0,.56.12,0,.26.09.15.2l-.38.07c.14.06-.35.29.05.26-1,.26-.17.44-.31.58l.5-.11c0,.09.16.14.38.19l.43-.12c.38,0-.25.3-.17.42-.17,0-.13,0,0-.06-.92.46.8.12.14.49.17,0,.12,0,0,.09h0a0,0,0,0,0,0,0l-.21.13.21-.12s.09,0,.21,0l-.45.18h0c-.15.1.23,0,.56-.19l.29-.05c-.72.3.28,0-.48.34.39-.12.36.08,1.16-.22-.1,0-.15.07-.16.06s-.15.15.09.1l-.56.25.8-.23a3.27,3.27,0,0,1-1,.44c.72-.16.3,0,1-.18l-.36.16s.54-.13.25,0c-.65.4.1.44-.42,1,1-.57-.42.33.39-.07a2.93,2.93,0,0,1-.59.31c.3,0-.3.37.41.09-.24.14-.37.17-.51.25.06,0,.23-.08.09,0a1.11,1.11,0,0,1-.33.13c.1.09.85-.3,1.56-.67-.3.23-.24.23.24,0-.22.14-.44.3-.56.29s-.21.4.35.09c-.14.09,0,.07.06,0s0,.13.06.18l.08-.07c.69-.35.19,0,.3,0l-.07,0c-.4.42.27-.07-.21.38l.41-.25c.9-.5-.46.43-.07.31l.22-.17c.33-.13-1.14.82-1.23.93a.53.53,0,0,1-.2.08c-.46.42.55-.3.73-.29a4.6,4.6,0,0,0-.78.5c-.22.17,1-.39.53,0a2.67,2.67,0,0,1,.62-.36c.12,0-.76.65,0,.3l-.17.11a2.84,2.84,0,0,0,.79-.23c-1.41.87.85-.13-.48.63l.15.09-.14.07c0,.13.3,0,.63-.16a1.47,1.47,0,0,1-.28.16c-.2.27-.14.25.59,0l-.43.25c.28-.1-.6.54,0,.38l-.2.09c.59-.12-1.09.9.56.17l.45-.1c.07-.18.72-.31,1-.49.12,0-.43.35-.55.33l.08,0c-.87.37-.23.29-.82.54.12.2-.28.59-.25.78l.68-.26v.08c-.15.07-.53.2-.52.15-.38.15.36,0,.51-.08a4,4,0,0,1-.83.26h.06l.08,0c.29-.06.59-.15.57-.09s-.43.14-.45.16-.07,0,0,0l0,.08.55-.17c.28,0,0,.09.61-.11-1,.3-.28.39-.57.49.43,0,.43,0,.37.1.12,0,.76-.12.69,0-1.33.11-.58.16-1.54.25.64-.07.16.11,1.07,0-.11,0-.5,0-.82,0,.52.09-.3.17-.17.25s.45,0,.7.09l-.88-.06c.08,0,1,.17.39.11a3,3,0,0,1,.42.07c-.45,0-.28.15-.22.29s-.06.26-.82,0c.32.12.34.15.35.18s.39.19.61.29l-.63-.21c.58.33,0,.11.55.43l-.09-.09c.62.42,1.48.75,2.32,1.2-.72-.46,1.24.33.21-.35.19,0,.27.15.48.23-.36-.21-.42-.28-.21-.29l.09,0c0-.28.46-.22.79-.47l-.46-.11a.81.81,0,0,1,.34,0c-.68-.26-.08.17-.83-.11.95.17.1-.42,1.18-.26,0-.11-.54-.07-.52-.17l.3,0L147,176a1.8,1.8,0,0,1,.7,0s.06.06.08.08c.36,0-.07-.29,0-.31l-.2.09c-.2-.32.17-.67-.45-.94l-.22,0c-.42-.18.24-.17,0-.37H147c-.22,0-.34-.07-.32-.13.26,0,.5-.16.79-.12-.46-.17-.35-.08-1.19-.08l.36-.09c-.34,0-.52,0-.63,0,.33,0,.54-.16,1-.15.75-.37-.87-.13.26-.49-1,.14-.51.3-.74.3s-.77.1-.68,0,1.25-.41,1.19-.59c0,0,.07,0,.07,0,.24-.14-.37,0,0-.23-.6.14,0-.11-.75.12l.21.09c-.22,0-1.12.19-.74-.06a3.36,3.36,0,0,1,.49-.09c.21-.11-.17,0,0-.13.75-.24.23.1.83,0,.31-.16-.6,0,.23-.22-1.06.28.07-.2-.75,0l.45-.15c-.08,0-.3.05-.3,0l.6-.15c-.53.09.37-.33.06-.31.08.17-.52.24-.82.44-.67,0,1.11-.56.8-.73.08,0-.22.23-.44.26a1.82,1.82,0,0,1,.44-.34c-.16-.12-.44.21-.74.26.51-.28-.25,0-.44,0l.44-.2c.21-.3-.94.37-.66.08l.64-.22h-.19l.51-.21c-.41.09-.32,0-.22-.12-.3.16-.8.37-.84.31.24-.17.43-.17.32-.24.28-.11.64-.25.26,0l.43-.17c.27-.19,0-.16,0-.2a.19.19,0,0,1-.08.09l-.67.16a1.62,1.62,0,0,1,.43-.2c-.06,0-.27.07-.33.05a4.24,4.24,0,0,1,.91-.37l-.46.06a4.73,4.73,0,0,1,.52-.33c.16-.19-.77.16-.55-.08a.74.74,0,0,1-.2.06c0-.13.41-.43-.12-.28l.58-.4c-.18,0-.73.51-1,.5s.5-.33.66-.45c-.34.13-1,.4-.56,0C146.19,169.84,146.11,169.91,146.17,169.91Zm-.8-.76c.1,0,.39-.16.15,0C145,169.41,145.25,169.26,145.37,169.15Zm-1.76-.75c.15-.06.09,0-.06.1S143.51,168.48,143.61,168.41Zm-4.48-3.65h0C139,164.82,139,164.8,139.13,164.75Zm.22-.13a.74.74,0,0,0-.2,0c.12,0,.13,0,.09.07C139.37,164.68,139.45,164.67,139.35,164.63Zm4,9.64.12,0C143.57,174.21,143.45,174.24,143.31,174.27Z" transform="translate(-118.39 -160.16)"/><path class="cls-1" d="M144.27,168.24l-.23.13A1,1,0,0,0,144.27,168.24Z" transform="translate(-118.39 -160.16)"/><polygon class="cls-1" points="28.33 10.23 28.33 10.24 28.41 10.2 28.33 10.23"/><path class="cls-1" d="M143.52,165.68l-.24.08A.61.61,0,0,0,143.52,165.68Z" transform="translate(-118.39 -160.16)"/><path class="cls-1" d="M138.58,163.86l.12.1s.09-.05.16-.06C138.75,163.89,138.58,163.89,138.58,163.86Z" transform="translate(-118.39 -160.16)"/><path class="cls-1" d="M141.62,163.69c-.06,0,0,0-.06,0l-.22,0S141.52,163.71,141.62,163.69Z" transform="translate(-118.39 -160.16)"/><path class="cls-1" d="M140.17,164c.4,0,.27,0,.2-.08s0,0,0,0C139.81,163.81,140,163.89,140.17,164Z" transform="translate(-118.39 -160.16)"/><path class="cls-1" d="M140.36,163.88s0,0,0,0C140.13,163.79,140.31,163.84,140.36,163.88Z" transform="translate(-118.39 -160.16)"/><path class="cls-1" d="M139.09,164.45c.11,0-.52,0-.35-.05C138.22,164.35,139.35,164.62,139.09,164.45Z" transform="translate(-118.39 -160.16)"/><polygon class="cls-1" points="23.11 3.94 22.61 3.89 23.01 3.96 23.11 3.94"/><path class="cls-1" d="M141.12,164.4l.14-.06a.55.55,0,0,1-.17,0S141,164.39,141.12,164.4Z" transform="translate(-118.39 -160.16)"/><path class="cls-1" d="M141.09,164.31s0,0-.08-.06S141,164.28,141.09,164.31Z" transform="translate(-118.39 -160.16)"/><polygon class="cls-1" points="23.25 4.04 23.15 4.05 23.11 4.09 23.25 4.04"/><path class="cls-1" d="M141,165.16l.15.07c.17,0,.27,0,.2-.05A1.29,1.29,0,0,0,141,165.16Z" transform="translate(-118.39 -160.16)"/><path class="cls-1" d="M142.36,164.9l-.38,0,.62,0Z" transform="translate(-118.39 -160.16)"/><path class="cls-1" d="M142.52,165.06c.17,0,.5.05.46,0S142.65,165,142.52,165.06Z" transform="translate(-118.39 -160.16)"/><polygon class="cls-1" points="23.49 5.98 23.48 5.96 22.49 6.2 23.49 5.98"/><path class="cls-1" d="M144.44,166.2c.2-.14-.6.2-.33,0-.23.06-.21.13-.42.18A2,2,0,0,0,144.44,166.2Z" transform="translate(-118.39 -160.16)"/><path class="cls-1" d="M143.69,166.43l-.15,0Z" transform="translate(-118.39 -160.16)"/><polygon class="cls-1" points="24.32 15.65 24.13 15.56 24.43 15.72 24.32 15.65"/><path class="cls-1" d="M143.35,176.23l-.56-.33.5.32S143.22,176.16,143.35,176.23Z" transform="translate(-118.39 -160.16)"/><path class="cls-1" d="M146.42,168.36l-.14.07c-.14.09-.15.11-.16.15Z" transform="translate(-118.39 -160.16)"/><polygon class="cls-1" points="27.99 9.09 27.99 9.08 27.5 9.39 27.99 9.09"/><path class="cls-1" d="M147.37,169.48s-.12,0-.12,0S146.73,169.84,147.37,169.48Z" transform="translate(-118.39 -160.16)"/></svg>