<svg id="Слой_1" data-name="Слой 1" xmlns="http://www.w3.org/2000/svg" viewBox="0 0 35.42 38.78"><defs><style>.cls-1{fill:#fff;}.cls-2{fill:none;stroke:#fff;stroke-linecap:round;stroke-linejoin:round;}</style></defs><title>wave</title><path class="cls-1" d="M115.52,165a4,4,0,0,0-.37.27A3.32,3.32,0,0,0,115.52,165Z" transform="translate(-113.79 -164.42)"/><polygon class="cls-1" points="2.66 0.25 2.51 0.35 2.88 0.15 2.66 0.25"/><path class="cls-1" d="M116.6,164.93c.59-.4-.16,0,0-.21l.13-.1-.49.29C116.37,164.91,116.74,164.78,116.6,164.93Z" transform="translate(-113.79 -164.42)"/><path class="cls-1" d="M115.34,165.82c.24-.14.22-.1.06-.06l-.06,0S115.35,165.8,115.34,165.82Z" transform="translate(-113.79 -164.42)"/><path class="cls-1" d="M115.34,165.79s-.19.13,0,0Z" transform="translate(-113.79 -164.42)"/><path class="cls-1" d="M115.54,165.8l-.24.09a2.56,2.56,0,0,1-.27.17A2.3,2.3,0,0,0,115.54,165.8Z" transform="translate(-113.79 -164.42)"/><path class="cls-1" d="M116,165.58l-.1,0C115.86,165.65,115.84,165.67,116,165.58Z" transform="translate(-113.79 -164.42)"/><path class="cls-1" d="M115.7,165.69l.22-.08c.1-.06.3-.17-.08,0C116,165.54,115.84,165.63,115.7,165.69Z" transform="translate(-113.79 -164.42)"/><path class="cls-1" d="M115.79,165.62a1.48,1.48,0,0,1,.43-.25C116.09,165.36,115.66,165.62,115.79,165.62Z" transform="translate(-113.79 -164.42)"/><path class="cls-1" d="M117.24,164.56l.16-.14-.22.1C117.29,164.47,117,164.68,117.24,164.56Z" transform="translate(-113.79 -164.42)"/><path class="cls-1" d="M115.28,166.12l.54-.27-.16.06A3.09,3.09,0,0,1,115.28,166.12Z" transform="translate(-113.79 -164.42)"/><path class="cls-1" d="M115.82,165.85l.25-.08S116,165.78,115.82,165.85Z" transform="translate(-113.79 -164.42)"/><polygon class="cls-1" points="2.94 0.8 2.42 1 2.95 0.81 2.94 0.8"/><polygon class="cls-1" points="1.51 1.8 1.18 1.92 1.68 1.74 1.51 1.8"/><path class="cls-1" d="M115.38,166.25l-.62.25.51-.15C115.14,166.38,115.16,166.36,115.38,166.25Z" transform="translate(-113.79 -164.42)"/><path class="cls-1" d="M115.58,166.26l-.32.09Z" transform="translate(-113.79 -164.42)"/><path class="cls-1" d="M116,165.86c-.08,0-.3.14-.39.2l.39-.18Z" transform="translate(-113.79 -164.42)"/><path class="cls-1" d="M116,165.86h0v0Z" transform="translate(-113.79 -164.42)"/><path class="cls-1" d="M116,165.85h0S116.07,165.83,116,165.85Z" transform="translate(-113.79 -164.42)"/><path class="cls-1" d="M116.43,165.49a3.2,3.2,0,0,0,.78-.36C116.94,165.25,116.76,165.36,116.43,165.49Z" transform="translate(-113.79 -164.42)"/><path class="cls-1" d="M116.5,165.62l.07-.08c-.1,0-.25.12-.36.16Z" transform="translate(-113.79 -164.42)"/><polygon class="cls-1" points="2.85 1.16 2.71 1.2 2.69 1.23 2.85 1.16"/><path class="cls-1" d="M115.93,166.07c.18-.05.2,0,.24,0s.1-.08.1-.1A1.42,1.42,0,0,0,115.93,166.07Z" transform="translate(-113.79 -164.42)"/><path class="cls-1" d="M116,166h0S116.08,165.93,116,166Z" transform="translate(-113.79 -164.42)"/><path class="cls-1" d="M116.24,166.21l.07,0-.07,0Z" transform="translate(-113.79 -164.42)"/><path class="cls-1" d="M116.33,165.9c.07,0,0,0-.16,0,0,0,.07,0,.08,0Z" transform="translate(-113.79 -164.42)"/><path class="cls-1" d="M115.78,166.23l.21-.1C115.87,166.18,115.68,166.27,115.78,166.23Z" transform="translate(-113.79 -164.42)"/><path class="cls-1" d="M115.93,166h0C115.83,166,115.87,166,115.93,166Z" transform="translate(-113.79 -164.42)"/><path class="cls-1" d="M115.93,166l.25-.08-.14,0Z" transform="translate(-113.79 -164.42)"/><path class="cls-1" d="M118.9,165.51c-.38.1-.76.15-.37,0a22.32,22.32,0,0,0-2.22.71,2.91,2.91,0,0,1,.56-.12,4.13,4.13,0,0,1,.8-.31c.22,0-.11.09-.3.18.47-.17.71-.11,1.41-.31h-.26A2.82,2.82,0,0,0,118.9,165.51Z" transform="translate(-113.79 -164.42)"/><path class="cls-1" d="M116.32,166.11h-.05a3.87,3.87,0,0,1-.49.21l.46-.11,0-.08Z" transform="translate(-113.79 -164.42)"/><path class="cls-1" d="M116.24,166c.41-.13.6-.15,1-.33-.05,0-.35.08-.54.12.13,0-.23.06-.44.19h-.12l-.17.1h0l.05,0h0l.15-.05a.33.33,0,0,1-.15.05l-.06,0h.25C116.32,166.07,116.3,166.06,116.24,166Z" transform="translate(-113.79 -164.42)"/><path class="cls-1" d="M118.06,164.79l-.09,0C118,164.82,118.06,164.8,118.06,164.79Z" transform="translate(-113.79 -164.42)"/><path class="cls-1" d="M117.85,164.94c-.06,0-.22.09-.18,0a1.91,1.91,0,0,1,.31-.15,1.35,1.35,0,0,0-.47.22l.06,0a4.37,4.37,0,0,1-.65.39C117.26,165.25,117.51,165.13,117.85,164.94Z" transform="translate(-113.79 -164.42)"/><path class="cls-1" d="M117.16,165.5h.23l.33-.18-.21.08C117.58,165.32,117.32,165.44,117.16,165.5Z" transform="translate(-113.79 -164.42)"/><polygon class="cls-1" points="2.25 1.86 1.81 1.98 2.44 1.82 2.25 1.86"/><polygon class="cls-1" points="2.33 1.91 1.95 2.01 2.18 1.96 2.33 1.91"/><path class="cls-1" d="M119.31,173.56l.09.07Z" transform="translate(-113.79 -164.42)"/><path class="cls-1" d="M119.42,173.38l-.18-.08Z" transform="translate(-113.79 -164.42)"/><path class="cls-1" d="M116.14,168.23c-.37,0-.94-.15-.5-.05l.42.09C116,168.23,116,168.22,116.14,168.23Z" transform="translate(-113.79 -164.42)"/><path class="cls-1" d="M118,170.87l.13,0-.37-.18Z" transform="translate(-113.79 -164.42)"/><path class="cls-1" d="M119.64,171.57l-.28-.05Z" transform="translate(-113.79 -164.42)"/><path class="cls-1" d="M119.33,174.72l.4.19S119.53,174.81,119.33,174.72Z" transform="translate(-113.79 -164.42)"/><path class="cls-1" d="M116.37,167a1,1,0,0,0-.26.06C116.35,167.07,116.73,167,116.37,167Z" transform="translate(-113.79 -164.42)"/><path class="cls-1" d="M115.12,171.66a1.17,1.17,0,0,0,.23.13A.93.93,0,0,0,115.12,171.66Z" transform="translate(-113.79 -164.42)"/><path class="cls-1" d="M116.1,167.16h.1c-.07,0-.13,0-.1,0C115.92,167.12,115.8,167.14,116.1,167.16Z" transform="translate(-113.79 -164.42)"/><path class="cls-1" d="M118.54,177.06l0,0Z" transform="translate(-113.79 -164.42)"/><path class="cls-1" d="M115.07,179.87s0,0-.07,0S115,179.87,115.07,179.87Z" transform="translate(-113.79 -164.42)"/><path class="cls-1" d="M116,166.64s0,0,0,0Z" transform="translate(-113.79 -164.42)"/><path class="cls-1" d="M117.64,166.23l.21,0Z" transform="translate(-113.79 -164.42)"/><path class="cls-1" d="M118.8,167.42h0C118.89,167.42,118.87,167.42,118.8,167.42Z" transform="translate(-113.79 -164.42)"/><path class="cls-1" d="M116.16,166.58l-.12,0Z" transform="translate(-113.79 -164.42)"/><path class="cls-1" d="M116,166.62l0,0C115.92,166.61,115.88,166.62,116,166.62Z" transform="translate(-113.79 -164.42)"/><path class="cls-1" d="M116,166.65s0,0,0,0l-.07,0Z" transform="translate(-113.79 -164.42)"/><path class="cls-1" d="M117.4,175.79h0C117.53,175.84,117.5,175.83,117.4,175.79Z" transform="translate(-113.79 -164.42)"/><path class="cls-1" d="M120.31,170h0Z" transform="translate(-113.79 -164.42)"/><path class="cls-1" d="M120.58,170.24c-.5-.21-.43-.21-.31-.22l-1.21-.32Z" transform="translate(-113.79 -164.42)"/><path class="cls-1" d="M119.24,174.05l.38.09c.56.32.34.28.87.44-1.25-.53,0-.27-1.28-.82l.28.07s.06,0,0,0c.63.18-.88-.44-.66-.47a1,1,0,0,1,.44.15l-.27-.21s.25.09.21.1l0-.17,0,0-.59-.35c.19,0,.13.07.28.13l-.27-.2c.34.11.62.3.56.33,1.27.48-.29-.19.5,0l.13.13a3.63,3.63,0,0,0,1,.22,7.72,7.72,0,0,1-1.45-.54c.1,0,.16,0-.07-.14.44.19.35.11.35,0l.59.26a6.13,6.13,0,0,0-.7-.4,3.63,3.63,0,0,1,.93.3c.13-.05-.76-.25-.82-.41.26,0,0-.15-.27-.4.23,0,.36.16.53.21l-.45-.25a1.11,1.11,0,0,1,.23.09,8,8,0,0,1-.72-.39c-.64-.29,1,.26.31-.13.18,0,.36.16.59.25a6.61,6.61,0,0,0-.93-.61l.42.08a5.85,5.85,0,0,1-1.37-.65l-.51-.15-.28-.23a4.2,4.2,0,0,1,.54.23l-.13-.08a4.62,4.62,0,0,1,.89.36l-.38-.11c.35.17.74.35,1.09.49a.63.63,0,0,1-.15-.1l.24.11c.06,0-.06,0-.21-.12l.67.24-.26-.11H120a13.09,13.09,0,0,1-1.81-1.09c.48.22.8.3,1.38.52-.63-.18.21.23.06.27a1.17,1.17,0,0,1,.45.14l-.5-.37a1.18,1.18,0,0,0,.58.13c-1-.31-.58-.34-.85-.51.32.11.64.24.53.29.74.16-1.07-.5-.44-.37,0,0-.05,0,.11.08-.27-.14,0-.17.26,0v0c.16-.08.14-.39-.67-.66l1.14.38q-1.33-.55-2.68-1a27.2,27.2,0,0,1,2.75.86c.11,0,.24,0,0-.15a8,8,0,0,1-1.09-.28,9.22,9.22,0,0,0,1.13.15,5.88,5.88,0,0,1-1.21-.38c.16.05,1.09.29,1.2.34l-1.05-.41a8.76,8.76,0,0,0,1.24.29c-.22,0,.05-.11,0-.17h-.27c.21-.11-1.5-.51-1.41-.62a8.36,8.36,0,0,0,1.54.31c-.55-.17-2.69-.72-3.11-.88l.33,0-.36-.14a31.1,31.1,0,0,1,3.29.93c.27,0,.38.06.37,0a.63.63,0,0,1,.46.18l.23-.19c-.66-.11-.64-.29-1.19-.37l.65.35c-.66-.12-1.86-.48-1.72-.58s1.18.22,1.4.25c-.23-.06-.41-.21-.25-.2l.35.12c.26-.05-.86-.26-.21-.27,0,0,.88,0,.48-.05-.77,0-3.13-.32-3.69-.41.05,0,.75,0,1.13,0,.61,0,1.42.21,1.94.22a3.9,3.9,0,0,1-.47-.09c.16,0,.56.07.49,0-.67-.07.06-.15-.57-.09-.19-.09.14-.07.11-.16a11,11,0,0,1-1.69-.23h.5c.06-.13.37-.19.38-.32a3.09,3.09,0,0,1,.66-.06c-.12,0-.35,0-.37-.07.59-.1.09.09.8,0a2.86,2.86,0,0,1-.79-.14c-.61,0-.12.13.13.19a12.76,12.76,0,0,1-2.11-.13c-.21-.07.54-.07.43-.08.15-.18-1.48,0-.89-.16s1.06-.13,1.44-.19c.22.05-.32.15-.29.2l.24-.09c.18,0,.33,0,.18.09.47-.1,0-.31.45-.53a2.14,2.14,0,0,0-.58.05l.08,0c-.42.11-.6,0-.8.11s-.79,0-.56-.06l.6-.14c-.17,0-.35.12-.16.1-.27,0,.79-.29,0-.14l-.41.14c-.31,0-.95.13-.77,0-.58.17.07,0-.61.2.85-.24,0,.11.87-.14-.8.21-.33.14-1,.31.2,0,.38-.09.29,0l.18,0h0l.3-.08a3,3,0,0,1,.7,0c-.09,0-.23,0-.44.07l.36,0a5.9,5.9,0,0,1-1,.16v0c-.24.06-.34.1-.14.1-.09,0,.51,0,.15,0l.28,0h-.11c-.06.07.74.14-.07.24.11,0,.25.05.12.09h-.39c.14,0-.39.07,0,.1-1,0-.21.11-.42.16l.5.05s.1.09.29.18l.45.05c.36.1-.34.09-.3.17-.17,0-.12,0,0,0-1-.09.69.33,0,.28.16.06.1.06,0,.05h0l-.24,0,.24,0s.05.06.15.11l-.47-.1h0c-.18,0,.22.07.57.14l.27.1c-.76-.16.23.14-.58,0a7.9,7.9,0,0,0,1.07.45c-.11,0-.16,0-.16-.05s-.2,0,0,.11l-.59-.15.77.3a4.17,4.17,0,0,1-1-.28c.67.3.24.15.9.45l-.38-.12s.5.25.18.17c-.73-.17-.23.32-.95.26,1.11.37-.52-.1.32.22a3.67,3.67,0,0,1-.63-.23c.22.18-.46,0,.23.31-.26-.09-.37-.17-.53-.22.05,0,.21.11.06.06a1.56,1.56,0,0,1-.32-.15,6.64,6.64,0,0,0,1.54.73c-.37-.09-.33,0,.14.18-.25-.08-.51-.15-.58-.25s-.44.06.15.31c-.15-.05-.06,0,0,.07s-.12,0-.1.15l.11,0c.7.33.13.13.19.23l-.07,0c-.57-.08.22.17-.42.05l.44.18c.94.42-.61-.12-.28.12l.26.08c.3.19-1.34-.43-1.48-.44a.52.52,0,0,1-.18-.11c-.61-.12.57.27.67.41a4.59,4.59,0,0,0-.87-.33c-.26-.08.93.61.3.43a2.66,2.66,0,0,1,.66.29c.06.1-1-.22-.25.16l-.19-.07a2.82,2.82,0,0,0,.65.5c-1.54-.61.61.63-.79,0v.19l-.14-.06c-.14.06.19.24.51.41a1.34,1.34,0,0,1-.3-.12c-.35,0-.29.07.36.47l-.47-.17c.25.13-.81-.06-.33.31l-.2-.09c.49.37-1.45,0,.23.63l.38.25c.18-.1.74.27,1,.3.08.08-.57,0-.63-.13l.09,0c-.88-.32-.38.07-1-.12,0,.33-.63.51-.75.83l.72.12-.07.09c-.17,0-.57-.08-.52-.15-.42,0,.31.2.47.23-.31.11-.83-.23-.85-.18l0,.08h.09c.29.11.6.17.55.27a3.3,3.3,0,0,1-.48,0c-.05,0-.08,0,0,0l-.08.15.58,0c.27.1,0,.13.61.15-1,0-.42.49-.74.53.41.11.41.19.36.31.12,0,.77,0,.69,0-1.34,0-.57.18-1.53.32.63-.12.18.3,1.08.09-.1.09-.5.05-.81.15.54.14-.31.52,0,.78a3.37,3.37,0,0,1,.69-.15l-.81.35c.1,0,1-.22.43,0a1.25,1.25,0,0,1,.41-.12c-.33.36-.08.58.08.78s.3.38-.23,1c.25-.25.3-.22.34-.18a4.93,4.93,0,0,1,.56-.37q-.23.26-.44.54c.56-.34.16.17.68-.19h-.13c.64-.38,1.28-1.07,2.08-1.6-.74.42,1-.8-.07-.21.16-.11.27-.15.46-.27-.36.2-.45.22-.31.09l.09,0c-.14-.05.15-.28.39-.47l-.44.19a1.66,1.66,0,0,1,.3-.16c-.67.24,0,.08-.76.36.89-.4,0-.21,1-.57,0,0-.52.17-.53.14l.28-.09-.37.1a3.85,3.85,0,0,1,.65-.22h.09c.33-.11-.14,0,0-.06l-.17.07c-.32,0,.08-.18-.53-.21l-.22,0c-.42-.06.24-.09,0-.17h.05c-.22,0-.34,0-.32-.07.26,0,.5,0,.8,0-.45-.09-.36,0-1.18-.14h.37a1.43,1.43,0,0,1-.6-.12c.31.07.57,0,1,.08.82,0-.79-.25.39-.17-1-.17-.58,0-.79,0s-.76-.13-.65-.16,1.31.09,1.3,0,.07,0,.07,0c.26,0-.34-.12.08-.09-.61-.14,0,0-.74-.2l.17.12c-.2-.08-1.1-.32-.63-.33.15,0,.35.11.46.15s-.14-.08.1-.06c.78.17.13.16.72.32.32,0-.54-.21.29,0-1.06-.26.16-.06-.64-.3l.46.11c-.07,0-.28-.1-.27-.11l.59.17c-.5-.17.47,0,.2-.1,0,.1-.56-.12-.91-.16-.58-.29,1.22.23,1,0,.06,0-.29,0-.5-.1a2.48,2.48,0,0,1,.53.07c-.07-.11-.47-.12-.74-.24.56.13-.21-.11-.38-.21l.46.14c.33,0-.95-.33-.56-.33l.62.25-.14-.11.52.18c-.37-.19-.26-.17-.09-.18a2.48,2.48,0,0,1-.82-.35c.28.06.43.17.39.07.28.12.63.26.2.15l.43.17c.33.07.1-.07.11-.1a.25.25,0,0,1-.12,0l-.59-.33a2.2,2.2,0,0,1,.44.17s-.24-.13-.27-.18a6.72,6.72,0,0,1,.9.39l-.37-.25c.16.05.46.11.59.18s-.67-.4-.35-.37a.83.83,0,0,1-.18-.11c.11,0,.59.07.13-.22l.67.22c-.12-.13-.85-.27-1-.49s.57.2.76.24c-.31-.18-.95-.53-.39-.38C119.31,174,119.21,174,119.24,174.05Zm.11-1c.08.06.36.22.09.12C118.94,172.89,119.19,173,119.35,173Zm-.45-1.94c.14.07.06.07-.12,0S118.78,171,118.91,171.07Zm-2.52-4.33h0C116.23,166.78,116.3,166.76,116.39,166.74Zm.2-.08-.2,0c.12,0,.13,0,.1,0C116.61,166.68,116.69,166.66,116.58,166.66Zm-2.43,8.86h.13C114.42,175.59,114.29,175.55,114.16,175.52Z" transform="translate(-113.79 -164.42)"/><path class="cls-1" d="M119.45,171.49l-.25-.09A.91.91,0,0,0,119.45,171.49Z" transform="translate(-113.79 -164.42)"/><polygon class="cls-1" points="5.47 10.27 5.46 10.27 5.54 10.3 5.47 10.27"/><path class="cls-1" d="M120.68,168a1.14,1.14,0,0,1-.25,0A.4.4,0,0,0,120.68,168Z" transform="translate(-113.79 -164.42)"/><path class="cls-1" d="M115.73,166.54h.13s.08,0,.15-.06Z" transform="translate(-113.79 -164.42)"/><path class="cls-1" d="M118.5,165.38c-.06,0,0,0-.07,0l-.21.07A.37.37,0,0,0,118.5,165.38Z" transform="translate(-113.79 -164.42)"/><path class="cls-1" d="M117.29,166.14c.39-.1.25-.1.18-.11s0,0,0,0C116.91,166.17,117.1,166.15,117.29,166.14Z" transform="translate(-113.79 -164.42)"/><path class="cls-1" d="M117.45,166s0,0,0,0C117.21,166.06,117.39,166,117.45,166Z" transform="translate(-113.79 -164.42)"/><path class="cls-1" d="M116.3,166.63c.1,0-.51.08-.35,0C115.44,166.74,116.58,166.64,116.3,166.63Z" transform="translate(-113.79 -164.42)"/><polygon class="cls-1" points="4.79 1.38 4.31 1.51 4.71 1.44 4.79 1.38"/><path class="cls-1" d="M118.28,166.18l.13-.09-.17,0S118.13,166.21,118.28,166.18Z" transform="translate(-113.79 -164.42)"/><path class="cls-1" d="M118.23,166.11s0,0-.09,0S118.17,166.11,118.23,166.11Z" transform="translate(-113.79 -164.42)"/><polygon class="cls-1" points="4.96 1.43 4.86 1.47 4.83 1.53 4.96 1.43"/><path class="cls-1" d="M118.27,166.85l.14.06c.17,0,.28,0,.21,0A1.26,1.26,0,0,0,118.27,166.85Z" transform="translate(-113.79 -164.42)"/><path class="cls-1" d="M119.63,166.52a2.81,2.81,0,0,1-.37.07l.62-.05Z" transform="translate(-113.79 -164.42)"/><path class="cls-1" d="M119.79,166.75c.17,0,.49.1.45,0S119.93,166.66,119.79,166.75Z" transform="translate(-113.79 -164.42)"/><polygon class="cls-1" points="5.18 3.51 5.18 3.49 4.17 3.38 5.18 3.51"/><path class="cls-1" d="M121.18,169.46c.27,0-.61-.16-.28-.19-.23-.08-.26,0-.46-.05C120.67,169.33,120.52,169.33,121.18,169.46Z" transform="translate(-113.79 -164.42)"/><path class="cls-1" d="M120.43,169.22l-.14-.06Z" transform="translate(-113.79 -164.42)"/><polygon class="cls-1" points="1 16.02 0.88 16.22 1.12 15.97 1 16.02"/><path class="cls-1" d="M115.48,180.12l-.5.41.49-.32S115.37,180.22,115.48,180.12Z" transform="translate(-113.79 -164.42)"/><path class="cls-1" d="M120.61,173.39l-.14-.07c-.16-.06-.18-.05-.21,0Z" transform="translate(-113.79 -164.42)"/><polygon class="cls-1" points="6.08 9.46 6.1 9.45 5.55 9.24 6.08 9.46"/><path class="cls-1" d="M120.34,174.69s-.08-.09,0-.1S119.66,174.42,120.34,174.69Z" transform="translate(-113.79 -164.42)"/><path class="cls-1" d="M130.27,183.86a4,4,0,0,0-.37.27A3.32,3.32,0,0,0,130.27,183.86Z" transform="translate(-113.79 -164.42)"/><polygon class="cls-1" points="17.4 19.13 17.26 19.22 17.63 19.03 17.4 19.13"/><path class="cls-1" d="M131.34,183.8c.59-.4-.16,0,0-.21l.13-.1-.49.29C131.12,183.79,131.49,183.66,131.34,183.8Z" transform="translate(-113.79 -164.42)"/><path class="cls-1" d="M130.09,184.7c.24-.14.22-.1.06-.06l-.06,0S130.1,184.68,130.09,184.7Z" transform="translate(-113.79 -164.42)"/><path class="cls-1" d="M130.09,184.67s-.19.13,0,0Z" transform="translate(-113.79 -164.42)"/><path class="cls-1" d="M130.29,184.68l-.24.09a2.56,2.56,0,0,1-.27.17A2.3,2.3,0,0,0,130.29,184.68Z" transform="translate(-113.79 -164.42)"/><path class="cls-1" d="M130.77,184.46l-.1,0C130.6,184.53,130.59,184.54,130.77,184.46Z" transform="translate(-113.79 -164.42)"/><path class="cls-1" d="M130.45,184.57l.22-.08c.1-.06.3-.17-.08,0C130.77,184.42,130.59,184.51,130.45,184.57Z" transform="translate(-113.79 -164.42)"/><path class="cls-1" d="M130.53,184.5a1.48,1.48,0,0,1,.43-.25C130.84,184.24,130.41,184.5,130.53,184.5Z" transform="translate(-113.79 -164.42)"/><path class="cls-1" d="M132,183.43l.16-.14-.22.1C132,183.35,131.79,183.55,132,183.43Z" transform="translate(-113.79 -164.42)"/><path class="cls-1" d="M130,185l.54-.27-.16.06A3.09,3.09,0,0,1,130,185Z" transform="translate(-113.79 -164.42)"/><path class="cls-1" d="M130.57,184.73l.25-.08S130.72,184.65,130.57,184.73Z" transform="translate(-113.79 -164.42)"/><polygon class="cls-1" points="17.68 19.67 17.16 19.88 17.7 19.68 17.68 19.67"/><polygon class="cls-1" points="16.25 20.67 15.93 20.8 16.42 20.61 16.25 20.67"/><path class="cls-1" d="M130.12,185.13l-.62.25.51-.15C129.88,185.26,129.91,185.23,130.12,185.13Z" transform="translate(-113.79 -164.42)"/><path class="cls-1" d="M130.32,185.13l-.32.09Z" transform="translate(-113.79 -164.42)"/><path class="cls-1" d="M130.76,184.73c-.08,0-.3.14-.39.2l.39-.18Z" transform="translate(-113.79 -164.42)"/><path class="cls-1" d="M130.77,184.74h0v0Z" transform="translate(-113.79 -164.42)"/><path class="cls-1" d="M130.76,184.73h0S130.81,184.71,130.76,184.73Z" transform="translate(-113.79 -164.42)"/><path class="cls-1" d="M131.17,184.37A3.2,3.2,0,0,0,132,184C131.68,184.12,131.51,184.24,131.17,184.37Z" transform="translate(-113.79 -164.42)"/><path class="cls-1" d="M131.24,184.49l.07-.08c-.1,0-.25.12-.36.16Z" transform="translate(-113.79 -164.42)"/><polygon class="cls-1" points="17.59 20.04 17.46 20.07 17.43 20.1 17.59 20.04"/><path class="cls-1" d="M130.67,184.94c.18-.05.2,0,.24,0s.1-.08.1-.1A1.42,1.42,0,0,0,130.67,184.94Z" transform="translate(-113.79 -164.42)"/><path class="cls-1" d="M130.76,184.83h0S130.82,184.8,130.76,184.83Z" transform="translate(-113.79 -164.42)"/><path class="cls-1" d="M131,185.08l.07,0-.07,0Z" transform="translate(-113.79 -164.42)"/><path class="cls-1" d="M131.08,184.77c.07,0,0,0-.16,0,0,0,.07,0,.08,0Z" transform="translate(-113.79 -164.42)"/><path class="cls-1" d="M130.53,185.11l.21-.1C130.61,185.06,130.42,185.14,130.53,185.11Z" transform="translate(-113.79 -164.42)"/><path class="cls-1" d="M130.67,184.88h0C130.57,184.92,130.61,184.9,130.67,184.88Z" transform="translate(-113.79 -164.42)"/><path class="cls-1" d="M130.67,184.88l.25-.08-.14,0Z" transform="translate(-113.79 -164.42)"/><path class="cls-1" d="M133.65,184.38c-.38.1-.76.15-.37,0a22.32,22.32,0,0,0-2.22.71,2.91,2.91,0,0,1,.56-.12,4.13,4.13,0,0,1,.8-.31c.22,0-.11.09-.3.18.47-.17.71-.11,1.41-.31h-.26A2.82,2.82,0,0,0,133.65,184.38Z" transform="translate(-113.79 -164.42)"/><path class="cls-1" d="M131.07,185H131a3.87,3.87,0,0,1-.49.21l.46-.11,0-.08Z" transform="translate(-113.79 -164.42)"/><path class="cls-1" d="M131,184.92c.41-.13.6-.15,1-.33-.05,0-.35.08-.54.12.13,0-.23.06-.44.19h-.12l-.17.1h0l.05,0h0l.15-.05a.33.33,0,0,1-.15.05l-.06,0H131C131.06,185,131,184.94,131,184.92Z" transform="translate(-113.79 -164.42)"/><path class="cls-1" d="M132.81,183.66l-.09,0C132.77,183.69,132.8,183.68,132.81,183.66Z" transform="translate(-113.79 -164.42)"/><path class="cls-1" d="M132.59,183.81c-.06,0-.22.09-.18,0a1.91,1.91,0,0,1,.31-.15,1.35,1.35,0,0,0-.47.22l.06,0a4.37,4.37,0,0,1-.65.39C132,184.13,132.26,184,132.59,183.81Z" transform="translate(-113.79 -164.42)"/><path class="cls-1" d="M131.91,184.37h.23l.33-.18-.21.08C132.32,184.2,132.07,184.31,131.91,184.37Z" transform="translate(-113.79 -164.42)"/><polygon class="cls-1" points="17 20.73 16.56 20.86 17.19 20.7 17 20.73"/><polygon class="cls-1" points="17.07 20.78 16.69 20.89 16.92 20.84 17.07 20.78"/><path class="cls-1" d="M134.06,192.44l.09.07Z" transform="translate(-113.79 -164.42)"/><path class="cls-1" d="M134.17,192.25l-.18-.08Z" transform="translate(-113.79 -164.42)"/><path class="cls-1" d="M130.88,187.1c-.37,0-.94-.15-.5-.05l.42.09C130.73,187.1,130.78,187.1,130.88,187.1Z" transform="translate(-113.79 -164.42)"/><path class="cls-1" d="M132.73,189.75l.13,0-.37-.18Z" transform="translate(-113.79 -164.42)"/><path class="cls-1" d="M134.39,190.44l-.28-.05Z" transform="translate(-113.79 -164.42)"/><path class="cls-1" d="M134.07,193.6l.4.19S134.27,193.68,134.07,193.6Z" transform="translate(-113.79 -164.42)"/><path class="cls-1" d="M131.11,185.91a1,1,0,0,0-.26.06C131.1,185.95,131.47,185.91,131.11,185.91Z" transform="translate(-113.79 -164.42)"/><path class="cls-1" d="M129.87,190.53a1.17,1.17,0,0,0,.23.13A.93.93,0,0,0,129.87,190.53Z" transform="translate(-113.79 -164.42)"/><path class="cls-1" d="M130.85,186h.1c-.07,0-.13,0-.1,0C130.66,186,130.55,186,130.85,186Z" transform="translate(-113.79 -164.42)"/><path class="cls-1" d="M133.28,195.93l0,0Z" transform="translate(-113.79 -164.42)"/><path class="cls-1" d="M129.82,198.74s0,0-.07,0S129.75,198.75,129.82,198.74Z" transform="translate(-113.79 -164.42)"/><path class="cls-1" d="M130.71,185.51s0,0,0,0Z" transform="translate(-113.79 -164.42)"/><path class="cls-1" d="M132.38,185.1l.21,0Z" transform="translate(-113.79 -164.42)"/><path class="cls-1" d="M133.55,186.3h0C133.63,186.3,133.61,186.3,133.55,186.3Z" transform="translate(-113.79 -164.42)"/><path class="cls-1" d="M130.9,185.46l-.12,0Z" transform="translate(-113.79 -164.42)"/><path class="cls-1" d="M130.7,185.5l0,0C130.67,185.49,130.62,185.5,130.7,185.5Z" transform="translate(-113.79 -164.42)"/><path class="cls-1" d="M130.74,185.53s0,0,0,0l-.07,0Z" transform="translate(-113.79 -164.42)"/><path class="cls-1" d="M132.14,194.66h0C132.27,194.72,132.25,194.7,132.14,194.66Z" transform="translate(-113.79 -164.42)"/><path class="cls-1" d="M135.05,188.91h0Z" transform="translate(-113.79 -164.42)"/><path class="cls-1" d="M135.33,189.12c-.5-.21-.43-.21-.31-.22l-1.21-.32Z" transform="translate(-113.79 -164.42)"/><path class="cls-1" d="M134,192.92l.38.09c.56.32.34.28.87.44-1.25-.53,0-.27-1.28-.82l.28.07s.06,0,0,0c.63.18-.88-.44-.66-.47a1,1,0,0,1,.44.15l-.27-.21s.25.09.21.1l0-.17,0,0-.59-.35c.19,0,.13.07.28.13l-.27-.2c.34.11.62.3.56.33,1.27.48-.29-.19.5,0l.13.13a3.63,3.63,0,0,0,1,.22,7.72,7.72,0,0,1-1.45-.54c.1,0,.16,0-.07-.14.44.19.35.11.35,0l.59.26a6.13,6.13,0,0,0-.7-.4,3.63,3.63,0,0,1,.93.3c.13-.05-.76-.25-.82-.41.26,0,0-.15-.27-.4.23,0,.36.16.53.21l-.45-.25a1.11,1.11,0,0,1,.23.09,8,8,0,0,1-.72-.39c-.64-.29,1,.26.31-.13.18,0,.36.16.59.25a6.61,6.61,0,0,0-.93-.61l.42.08a5.85,5.85,0,0,1-1.37-.65l-.51-.15-.28-.23a4.2,4.2,0,0,1,.54.23l-.13-.08a4.62,4.62,0,0,1,.89.36l-.38-.11c.35.17.74.35,1.09.49a.63.63,0,0,1-.15-.1l.24.11c.06,0-.06,0-.21-.12l.67.24-.26-.11h.47a13.09,13.09,0,0,1-1.81-1.09c.48.22.8.3,1.38.52-.63-.18.21.23.06.27a1.17,1.17,0,0,1,.45.14l-.5-.37a1.18,1.18,0,0,0,.58.13c-1-.31-.58-.34-.85-.51.32.11.64.24.53.29.74.16-1.07-.5-.44-.37,0,0-.05,0,.11.08-.27-.14,0-.17.26,0v0c.16-.08.14-.39-.67-.66l1.14.38q-1.33-.55-2.68-1a27.2,27.2,0,0,1,2.75.86c.11,0,.24,0,0-.15a8,8,0,0,1-1.09-.28,9.21,9.21,0,0,0,1.13.15,5.88,5.88,0,0,1-1.21-.38c.16.05,1.09.29,1.2.34l-1.05-.41a8.76,8.76,0,0,0,1.24.29c-.22,0,.05-.11,0-.17h-.27c.21-.11-1.5-.51-1.41-.62a8.37,8.37,0,0,0,1.54.31c-.55-.17-2.69-.72-3.11-.89l.33,0-.36-.14a31.1,31.1,0,0,1,3.29.93c.27,0,.38.06.37,0a.63.63,0,0,1,.46.18l.23-.19c-.66-.11-.64-.29-1.19-.37l.65.35c-.66-.12-1.86-.48-1.72-.58s1.18.22,1.4.25c-.23-.06-.41-.21-.25-.2l.35.12c.26-.05-.86-.26-.21-.27,0,0,.88,0,.48-.05-.77,0-3.13-.32-3.69-.41.05,0,.75,0,1.13,0,.61,0,1.42.21,1.94.22a3.9,3.9,0,0,1-.47-.09c.16,0,.56.07.49,0-.67-.07.06-.15-.57-.09-.19-.09.14-.07.11-.16a11,11,0,0,1-1.69-.23h.5c.06-.13.37-.19.38-.32a3.09,3.09,0,0,1,.66-.06c-.12,0-.35,0-.37-.07.59-.1.09.09.8,0a2.86,2.86,0,0,1-.79-.14c-.61,0-.12.13.13.19a12.76,12.76,0,0,1-2.11-.13c-.21-.07.54-.07.43-.08.15-.18-1.48,0-.89-.16s1.06-.13,1.44-.19c.22.05-.32.15-.29.2l.24-.09c.18,0,.33,0,.18.09.47-.1,0-.31.45-.53a2.14,2.14,0,0,0-.58.05l.08,0c-.42.11-.6,0-.8.11s-.79,0-.56-.06l.6-.14c-.17,0-.35.12-.16.1-.27,0,.79-.29,0-.14l-.41.14c-.31,0-.95.13-.77,0-.58.17.07,0-.61.2.85-.24,0,.11.87-.14-.8.21-.33.14-1,.31.2,0,.38-.09.29,0l.18,0h0l.3-.08a3,3,0,0,1,.7,0c-.09,0-.23,0-.44.07l.36,0a5.9,5.9,0,0,1-1,.16v0c-.24.06-.34.1-.14.1-.09,0,.51,0,.15,0l.28,0H131c-.06.07.74.14-.07.24.11,0,.25.05.12.09h-.39c.14,0-.39.07,0,.1-1,0-.21.11-.42.16l.5.05s.1.09.29.18l.45.05c.36.1-.34.09-.3.17-.17,0-.12,0,0,0-1-.09.69.33,0,.28.16.06.1.06,0,.05h0l-.24,0,.24,0s.05.06.15.11l-.47-.1h0c-.18,0,.22.07.57.14l.27.1c-.76-.16.23.14-.58,0a7.9,7.9,0,0,0,1.07.45c-.11,0-.16,0-.16-.05s-.2,0,0,.11l-.59-.15.77.3a4.17,4.17,0,0,1-1-.28c.67.3.24.15.9.45l-.38-.12s.5.25.18.17c-.73-.17-.23.32-.95.26,1.11.37-.52-.1.32.22a3.67,3.67,0,0,1-.63-.23c.22.18-.46,0,.23.31-.26-.09-.37-.17-.53-.22.05,0,.21.11.06.06a1.56,1.56,0,0,1-.32-.15,6.64,6.64,0,0,0,1.54.73c-.37-.09-.33,0,.14.18-.25-.08-.51-.15-.58-.25s-.44.06.15.31c-.15-.05-.06,0,0,.07s-.12,0-.1.15l.11,0c.7.33.13.13.19.23l-.07,0c-.57-.08.22.17-.42.05l.44.18c.94.42-.61-.12-.28.12l.26.08c.3.19-1.34-.43-1.48-.44a.52.52,0,0,1-.18-.11c-.61-.12.57.27.67.41a4.59,4.59,0,0,0-.87-.33c-.26-.08.93.61.3.43a2.66,2.66,0,0,1,.66.29c.06.1-1-.22-.25.16l-.19-.07a2.82,2.82,0,0,0,.65.5c-1.54-.61.61.63-.79,0v.19l-.14-.06c-.14.06.19.24.51.41a1.34,1.34,0,0,1-.3-.12c-.35,0-.29.07.36.47l-.47-.17c.25.13-.81-.06-.33.31l-.2-.09c.49.37-1.45,0,.23.63l.38.25c.18-.1.74.27,1,.3.08.08-.57,0-.63-.13l.09,0c-.88-.32-.38.07-1-.12,0,.33-.63.51-.75.83l.72.12-.07.09c-.17,0-.57-.08-.52-.15-.42,0,.31.2.47.23-.31.11-.83-.23-.85-.18l0,.08h.09c.29.11.6.17.55.27a3.3,3.3,0,0,1-.48,0c-.05,0-.08,0,0,0l-.08.15.58,0c.27.1,0,.13.61.15-1,0-.42.49-.74.53.41.11.41.19.36.31.12,0,.77,0,.69,0-1.34,0-.57.18-1.53.32.63-.12.18.3,1.08.09-.1.09-.5.05-.81.15.54.14-.31.52,0,.78a3.37,3.37,0,0,1,.69-.15l-.81.35c.1,0,1-.22.43,0a1.25,1.25,0,0,1,.41-.12c-.33.36-.08.58.08.78s.3.38-.23,1c.25-.25.3-.22.34-.18a4.93,4.93,0,0,1,.56-.37q-.23.26-.44.54c.56-.34.16.17.68-.19h-.13c.64-.38,1.28-1.07,2.08-1.6-.74.42,1-.8-.07-.21.16-.11.27-.15.46-.27-.36.2-.45.22-.31.09l.09,0c-.14-.05.15-.28.39-.47l-.44.19a1.66,1.66,0,0,1,.3-.16c-.67.24,0,.08-.76.36.89-.4,0-.21,1-.57,0,0-.52.17-.53.14l.28-.09-.37.1a3.85,3.85,0,0,1,.65-.22h.09c.33-.11-.14,0,0-.06l-.17.07c-.32,0,.08-.18-.53-.21l-.22,0c-.42-.06.24-.09,0-.17h.05c-.22,0-.34,0-.32-.07.26,0,.5,0,.8,0-.45-.09-.36,0-1.18-.14h.37a1.43,1.43,0,0,1-.6-.12c.31.07.57,0,1,.08.82,0-.79-.25.39-.17-1-.17-.58,0-.79,0s-.76-.13-.65-.16,1.31.09,1.3,0,.07,0,.07,0c.26,0-.34-.12.08-.09-.61-.14,0,0-.74-.2l.17.12c-.2-.08-1.1-.32-.63-.33.15,0,.35.11.46.15s-.14-.08.1-.06c.78.17.13.16.72.32.32,0-.54-.21.29,0-1.06-.26.16-.06-.64-.3l.46.11c-.07,0-.28-.1-.27-.11l.59.17c-.5-.17.47,0,.2-.1,0,.1-.56-.12-.91-.16-.58-.29,1.22.23,1,0,.06,0-.29,0-.5-.1a2.48,2.48,0,0,1,.53.07c-.07-.11-.47-.12-.74-.24.56.13-.21-.11-.38-.21l.46.14c.33,0-.95-.33-.56-.33l.62.25L133,194l.52.18c-.37-.19-.26-.17-.09-.18a2.48,2.48,0,0,1-.82-.35c.28.06.43.17.39.07.28.12.63.26.2.15l.43.17c.33.07.1-.07.11-.1a.25.25,0,0,1-.12,0l-.59-.33a2.2,2.2,0,0,1,.44.17s-.24-.13-.27-.18a6.72,6.72,0,0,1,.9.39l-.37-.25c.16.05.46.11.59.18s-.67-.4-.35-.37a.83.83,0,0,1-.18-.11c.11,0,.59.07.13-.22l.67.22c-.12-.13-.85-.27-1-.49s.57.2.76.24c-.31-.18-.95-.53-.39-.38C134.05,192.9,134,192.88,134,192.92Zm.11-1c.08.06.36.22.09.12C133.69,191.76,133.94,191.85,134.1,191.88Zm-.45-1.94c.14.07.06.07-.12,0S133.53,189.92,133.65,189.95Zm-2.52-4.33h0C131,185.66,131,185.64,131.13,185.61Zm.2-.08-.2,0c.12,0,.13,0,.1,0C131.35,185.55,131.44,185.53,131.33,185.53Zm-2.43,8.86H129C129.16,194.46,129,194.43,128.9,194.39Z" transform="translate(-113.79 -164.42)"/><path class="cls-1" d="M134.2,190.36l-.25-.09A.91.91,0,0,0,134.2,190.36Z" transform="translate(-113.79 -164.42)"/><polygon class="cls-1" points="20.21 29.14 20.2 29.14 20.28 29.18 20.21 29.14"/><path class="cls-1" d="M135.43,186.85a1.14,1.14,0,0,1-.25,0A.4.4,0,0,0,135.43,186.85Z" transform="translate(-113.79 -164.42)"/><path class="cls-1" d="M130.48,185.42h.13s.08,0,.15-.06Z" transform="translate(-113.79 -164.42)"/><path class="cls-1" d="M133.25,184.25c-.06,0,0,0-.07,0l-.21.07A.37.37,0,0,0,133.25,184.25Z" transform="translate(-113.79 -164.42)"/><path class="cls-1" d="M132,185c.39-.1.25-.1.18-.11s0,0,0,0C131.66,185,131.84,185,132,185Z" transform="translate(-113.79 -164.42)"/><path class="cls-1" d="M132.19,184.9s0,0,0,0C132,184.93,132.14,184.9,132.19,184.9Z" transform="translate(-113.79 -164.42)"/><path class="cls-1" d="M131,185.5c.1,0-.51.08-.35,0C130.18,185.62,131.33,185.52,131,185.5Z" transform="translate(-113.79 -164.42)"/><polygon class="cls-1" points="19.54 20.25 19.05 20.39 19.45 20.31 19.54 20.25"/><path class="cls-1" d="M133,185.06l.13-.09-.17,0S132.88,185.09,133,185.06Z" transform="translate(-113.79 -164.42)"/><path class="cls-1" d="M133,185s0,0-.09,0S132.91,185,133,185Z" transform="translate(-113.79 -164.42)"/><polygon class="cls-1" points="19.7 20.31 19.6 20.35 19.58 20.4 19.7 20.31"/><path class="cls-1" d="M133,185.72l.14.06c.17,0,.28,0,.21,0A1.26,1.26,0,0,0,133,185.72Z" transform="translate(-113.79 -164.42)"/><path class="cls-1" d="M134.38,185.39a2.8,2.8,0,0,1-.37.07l.62-.05Z" transform="translate(-113.79 -164.42)"/><path class="cls-1" d="M134.53,185.62c.17,0,.49.1.45,0S134.67,185.54,134.53,185.62Z" transform="translate(-113.79 -164.42)"/><polygon class="cls-1" points="19.93 22.38 19.92 22.36 18.91 22.26 19.93 22.38"/><path class="cls-1" d="M135.92,188.33c.27,0-.61-.16-.28-.19-.23-.08-.26,0-.46-.05C135.41,188.21,135.26,188.21,135.92,188.33Z" transform="translate(-113.79 -164.42)"/><path class="cls-1" d="M135.18,188.09,135,188Z" transform="translate(-113.79 -164.42)"/><polygon class="cls-1" points="15.75 34.89 15.62 35.09 15.87 34.84 15.75 34.89"/><path class="cls-1" d="M130.23,199l-.5.41.49-.32S130.12,199.09,130.23,199Z" transform="translate(-113.79 -164.42)"/><path class="cls-1" d="M135.36,192.26l-.14-.07c-.16-.06-.18-.05-.21,0Z" transform="translate(-113.79 -164.42)"/><polygon class="cls-1" points="20.83 28.33 20.84 28.33 20.3 28.12 20.83 28.33"/><path class="cls-1" d="M135.08,193.57s-.08-.09,0-.1S134.41,193.29,135.08,193.57Z" transform="translate(-113.79 -164.42)"/><path class="cls-1" d="M134.08,180.84s.32-.22.38-.26A1.43,1.43,0,0,0,134.08,180.84Z" transform="translate(-113.79 -164.42)"/><polygon class="cls-1" points="19.21 16.64 19.35 16.53 18.99 16.76 19.21 16.64"/><path class="cls-1" d="M132.69,180.72c-.48.53.2,0,.07.28l-.11.12.45-.36C133,180.74,132.6,180.91,132.69,180.72Z" transform="translate(-113.79 -164.42)"/><path class="cls-1" d="M133.59,179.42c-.18.21-.21.13,0,.11l0-.06S133.59,179.46,133.59,179.42Z" transform="translate(-113.79 -164.42)"/><path class="cls-1" d="M133.61,179.47c.05,0,.14-.2,0,0Z" transform="translate(-113.79 -164.42)"/><path class="cls-1" d="M133.32,179.4l.22-.13c.1-.13.08-.21.18-.28C133.57,179,133.47,179.17,133.32,179.4Z" transform="translate(-113.79 -164.42)"/><path class="cls-1" d="M132.92,179.74l.1-.05C133.06,179.63,133.07,179.61,132.92,179.74Z" transform="translate(-113.79 -164.42)"/><path class="cls-1" d="M133.22,179.58l-.2.11c-.07.09-.23.26.08,0C133,179.81,133.1,179.67,133.22,179.58Z" transform="translate(-113.79 -164.42)"/><path class="cls-1" d="M133.18,179.69a.75.75,0,0,1-.33.38C133,180.09,133.35,179.72,133.18,179.69Z" transform="translate(-113.79 -164.42)"/><path class="cls-1" d="M132.15,181.22l-.12.18.2-.14C132.13,181.33,132.31,181.06,132.15,181.22Z" transform="translate(-113.79 -164.42)"/><path class="cls-1" d="M133.19,178.81c-.1.11-.24.33-.35.48l.16-.1A1.22,1.22,0,0,1,133.19,178.81Z" transform="translate(-113.79 -164.42)"/><path class="cls-1" d="M132.84,179.29l-.23.15C132.64,179.51,132.73,179.42,132.84,179.29Z" transform="translate(-113.79 -164.42)"/><polygon class="cls-1" points="18.6 15.9 19.05 15.58 18.58 15.89 18.6 15.9"/><polygon class="cls-1" points="19.14 14.16 19.39 13.92 19 14.29 19.14 14.16"/><path class="cls-1" d="M132.7,178.5c.2-.21.24-.43.38-.55-.08,0-.27.18-.44.33C132.75,178.2,132.78,178.26,132.7,178.5Z" transform="translate(-113.79 -164.42)"/><path class="cls-1" d="M132.39,178.5l.25-.22A1.44,1.44,0,0,0,132.39,178.5Z" transform="translate(-113.79 -164.42)"/><path class="cls-1" d="M132.54,179.3a1.54,1.54,0,0,0,.21-.38l-.23.36Z" transform="translate(-113.79 -164.42)"/><path class="cls-1" d="M132.51,179.29h0l0-.06Z" transform="translate(-113.79 -164.42)"/><path class="cls-1" d="M132.54,179.3h0S132.51,179.35,132.54,179.3Z" transform="translate(-113.79 -164.42)"/><path class="cls-1" d="M132.49,179.9a1.79,1.79,0,0,0-.59.63A7.27,7.27,0,0,1,132.49,179.9Z" transform="translate(-113.79 -164.42)"/><path class="cls-1" d="M132.24,179.75v.12a2.13,2.13,0,0,1,.25-.3Z" transform="translate(-113.79 -164.42)"/><polygon class="cls-1" points="18.34 15.41 18.46 15.33 18.46 15.28 18.34 15.41"/><path class="cls-1" d="M132.29,178.92c-.14.13-.18.12-.24.12s0,.16,0,.19S132.35,178.94,132.29,178.92Z" transform="translate(-113.79 -164.42)"/><path class="cls-1" d="M132.38,179.13h0S132.33,179.19,132.38,179.13Z" transform="translate(-113.79 -164.42)"/><path class="cls-1" d="M131.68,178.78l0,.07,0-.06Z" transform="translate(-113.79 -164.42)"/><path class="cls-1" d="M132.07,179.3c0,.09.06,0,.15-.08a.14.14,0,0,1-.12,0S132,179.31,132.07,179.3Z" transform="translate(-113.79 -164.42)"/><path class="cls-1" d="M132.17,178.59c0,.09-.05.16-.07.24C132.15,178.7,132.23,178.5,132.17,178.59Z" transform="translate(-113.79 -164.42)"/><path class="cls-1" d="M132.41,179h0C132.47,178.95,132.45,179,132.41,179Z" transform="translate(-113.79 -164.42)"/><path class="cls-1" d="M132.41,179a2.09,2.09,0,0,0-.19.18l.13-.08Z" transform="translate(-113.79 -164.42)"/><path class="cls-1" d="M130.2,181.08c.2-.34.45-.61.28-.21a13.66,13.66,0,0,0,1.17-2,1.62,1.62,0,0,1-.36.44,2.28,2.28,0,0,1-.36.8c-.18.12,0-.16.08-.37-.22.44-.46.57-.8,1.21l.19-.19A3,3,0,0,0,130.2,181.08Z" transform="translate(-113.79 -164.42)"/><path class="cls-1" d="M131.76,179l.06,0a2.56,2.56,0,0,1,.18-.53,1.52,1.52,0,0,0-.31.36l.11.15Z" transform="translate(-113.79 -164.42)"/><path class="cls-1" d="M131.95,179a4.82,4.82,0,0,0-.64.87c.09,0,.25-.26.4-.39-.19,0,.17-.17.21-.44a.21.21,0,0,1,.14,0,1.27,1.27,0,0,1,0-.21v0h0s0,.08,0,0h0l-.1.13c0-.1.06-.1.1-.13l0-.05h0l-.27.1C131.81,179,131.85,179,131.95,179Z" transform="translate(-113.79 -164.42)"/><path class="cls-1" d="M131.25,181.2l.06-.08S131.24,181.18,131.25,181.2Z" transform="translate(-113.79 -164.42)"/><path class="cls-1" d="M131.37,181s.16-.17.16-.12a1.62,1.62,0,0,1-.22.27,1.16,1.16,0,0,0,.34-.4l0,0a4.19,4.19,0,0,1,.37-.65C131.74,180.43,131.58,180.65,131.37,181Z" transform="translate(-113.79 -164.42)"/><path class="cls-1" d="M131.63,180.12l-.22.1-.17.34.13-.18C131.37,180.48,131.52,180.25,131.63,180.12Z" transform="translate(-113.79 -164.42)"/><polygon class="cls-1" points="17.99 14.16 18.24 13.78 17.84 14.29 17.99 14.16"/><polygon class="cls-1" points="17.81 14.11 18.01 13.77 17.84 13.96 17.81 14.11"/><path class="cls-1" d="M123.63,182.77v.12A.54.54,0,0,0,123.63,182.77Z" transform="translate(-113.79 -164.42)"/><path class="cls-1" d="M123.84,182.77l0-.19A.69.69,0,0,0,123.84,182.77Z" transform="translate(-113.79 -164.42)"/><path class="cls-1" d="M127.36,177.48c0-.37-.1-.94-.1-.5v.43C127.31,177.34,127.34,177.39,127.36,177.48Z" transform="translate(-113.79 -164.42)"/><path class="cls-1" d="M125.16,180.22l0,.13,0-.42Z" transform="translate(-113.79 -164.42)"/><path class="cls-1" d="M125.38,182l-.09-.27A2,2,0,0,0,125.38,182Z" transform="translate(-113.79 -164.42)"/><path class="cls-1" d="M122.48,183.42l0,.44C122.55,183.85,122.5,183.63,122.48,183.42Z" transform="translate(-113.79 -164.42)"/><path class="cls-1" d="M129.79,178c0-.18,0-.25-.05-.28C129.73,177.94,129.67,178.31,129.79,178Z" transform="translate(-113.79 -164.42)"/><path class="cls-1" d="M123,178.22a1.18,1.18,0,0,0,0,.26A.93.93,0,0,0,123,178.22Z" transform="translate(-113.79 -164.42)"/><path class="cls-1" d="M129.59,177.65v.11c.05-.06.11-.11.15-.07C129.74,177.49,129.71,177.37,129.59,177.65Z" transform="translate(-113.79 -164.42)"/><path class="cls-1" d="M116.8,182.29v-.05S116.79,182.29,116.8,182.29Z" transform="translate(-113.79 -164.42)"/><path class="cls-1" d="M118.49,178.09a0,0,0,0,1,0,0S118.55,178.06,118.49,178.09Z" transform="translate(-113.79 -164.42)"/><path class="cls-1" d="M131,178s0,0,0,0Z" transform="translate(-113.79 -164.42)"/><path class="cls-1" d="M130.43,179.67a1.55,1.55,0,0,0-.1.19Z" transform="translate(-113.79 -164.42)"/><path class="cls-1" d="M128.66,180.2h0C128.65,180.28,128.65,180.26,128.66,180.2Z" transform="translate(-113.79 -164.42)"/><path class="cls-1" d="M131,178.24a.52.52,0,0,0,0-.14A.63.63,0,0,0,131,178.24Z" transform="translate(-113.79 -164.42)"/><path class="cls-1" d="M131,178.05v.05C131.09,178,131.1,178,131,178.05Z" transform="translate(-113.79 -164.42)"/><path class="cls-1" d="M130.92,178s0,0,0,.07a.19.19,0,0,1,0-.07Z" transform="translate(-113.79 -164.42)"/><path class="cls-1" d="M120.11,182v0C120.07,182.17,120.08,182.14,120.11,182Z" transform="translate(-113.79 -164.42)"/><path class="cls-1" d="M126.69,182v0Z" transform="translate(-113.79 -164.42)"/><path class="cls-1" d="M126.62,182.33c0-.54,0-.47.06-.36l-.08-1.25Z" transform="translate(-113.79 -164.42)"/><path class="cls-1" d="M123.12,183l.13.37c0,.65-.09.44.06,1-.2-1.34.27-.18.07-1.52l.09.27s0,.07,0,.06c.2.63-.09-1,.05-.81a1,1,0,0,1,.12.45l0-.35s.06.26,0,.23l.12-.13v0l0-.69c.07.19,0,.15,0,.31l0-.34c.09.34.08.69,0,.65.29,1.33,0-.35.28.41l0,.18a3.6,3.6,0,0,0,.34.93,7.69,7.69,0,0,1-.33-1.51c0,.1.08.14.08-.14.08.48.1.35.15.32l.1.63a6.12,6.12,0,0,0,0-.8,3.62,3.62,0,0,1,.25.95c.12.08-.2-.77-.1-.91.12.23.13,0,.17-.43a3.09,3.09,0,0,1,.1.57l0-.51a1.24,1.24,0,0,1,0,.24,8.07,8.07,0,0,1-.06-.81c-.09-.7.29,1,.25.19,0,.18,0,.39.09.63a8.57,8.57,0,0,0,0-1.11l.14.4a6,6,0,0,1-.12-1.51l-.13-.52.06-.36a4.13,4.13,0,0,1,.06.59v-.15a4.67,4.67,0,0,1,.12,1l-.09-.39c0,.39.06.82.12,1.19a.68.68,0,0,1,0-.18,2.62,2.62,0,0,0,0,.26c0,.07,0-.08,0-.24l.12.7,0-.28.19.43a9.47,9.47,0,0,1,.09-2.09c0,.52.08.85.15,1.47-.11-.65-.08.29-.17.16a1.44,1.44,0,0,1,.08.46l.07-.61a1.51,1.51,0,0,0,.13.58c-.13-1,0-.67.06-1,0,.33.05.68,0,.6.14.74,0-1.18.12-.55,0,0,0,0,0,.13,0-.3.13-.08.13.22h0c.12.1.32,0,.29-.87l0,1.2q0-1.43.07-2.86c0,.73.14,2.47.07,2.88,0,.1.06.22.1,0a10.85,10.85,0,0,1-.06-1.12c.09.81.06.43.15,1.12a6.84,6.84,0,0,1,0-1.27c0,.17,0,1.13,0,1.25l.09-1.13a12,12,0,0,0,0,1.27c0-.22.08,0,.11-.09l0-.26c.11.17.13-1.59.26-1.53a12.06,12.06,0,0,0,0,1.57,21.72,21.72,0,0,1,.39-3.19v.33l.13-.37c-.14.86-.4,2.67-.48,3.37,0,.26,0,.39,0,.36a1.18,1.18,0,0,1-.06.48l.1.21c0-.67.13-.66.18-1.22l-.18.68c0-.67.2-1.9.31-1.77s-.12,1.19-.14,1.41c0-.23.13-.43.12-.27l-.07.35c0,.26.17-.88.17-.24,0,0,0,.86,0,.47.07-.76.34-3.12.45-3.69a8.25,8.25,0,0,1,0,1.12c0,.6-.27,1.41-.31,1.93,0-.18.08-.4.1-.48,0,.16-.09.56,0,.48.12-.68.09.08.11-.57.08-.18,0,.15.09.14a7.84,7.84,0,0,1,.44-1.63c0,.17-.07.39-.08.5s.1.41.21.44a3.4,3.4,0,0,1-.13.65c0-.11.12-.33.16-.34-.1.58-.09.07-.24.77A3,3,0,0,1,129,181c.16-.59-.08-.14-.18.09a6.64,6.64,0,0,1,.81-2c.18-.17-.12.53-.06.42.15.19.66-1.33.64-.68a12.27,12.27,0,0,1-.51,1.37c-.15.16,0-.37-.06-.38l0,.27c-.09.16-.18.26-.16.1-.11.48.26.22.21.69a2.54,2.54,0,0,0,.28-.51l-.07,0c.13-.42.33-.51.35-.72.19-.25.47-.65.47-.38l-.25.56c.08-.16.1-.36,0-.2.16-.22-.23.81.17.11l.13-.41c.2-.24.61-.77.61-.56.25-.55-.05.05.21-.61-.35.81-.24-.15-.56.72.3-.77,0-.37.24-1-.08.18-.13.37-.17.24l-.09.15v0s0,0,0,0a1.67,1.67,0,0,1-.09.3c-.24.4-.35.34-.49.54,0-.11.11-.2.17-.41l-.2.3c.17-.42.15-.75.37-.94l-.1-.07c0-.26,0-.4-.15-.24,0-.11-.3.41-.14.1l-.26.21,0-.11c-.16-.1-.54.63-.52-.2-.09.1-.18.22-.24.07l.07-.38c-.1.11-.15-.43-.26,0,.11-1-.35-.32-.44-.5l-.08.5c-.08,0-.19.1-.32.29l0,.45c-.12.36-.19-.34-.34-.3,0-.17.06-.12.07,0-.1-1-.4.71-.51,0,0,.16-.07.1-.09,0v0h0l0-.24a2.14,2.14,0,0,0,0,.24s-.07.07-.11.18v-.48h0c0-.18,0,.23,0,.59a2.24,2.24,0,0,0-.06.29c0-.78-.1.26-.15-.56,0,.4-.2.31-.21,1.16,0-.11,0-.16,0-.17s-.09-.19-.12,0l0-.61-.07.83a3.27,3.27,0,0,1-.07-1.06c-.11.73-.1.28-.18,1l0-.4s-.07.55-.12.22c-.15-.75-.44-.06-.74-.73.17,1.15-.16-.51-.08.39a2.93,2.93,0,0,1-.08-.67c-.09.28-.24-.41-.23.35,0-.27,0-.4-.06-.56,0,.06,0,.24,0,.08a1.11,1.11,0,0,1,0-.35,4.61,4.61,0,0,0,.08,1.69c-.11-.37-.13-.31-.1.22-.06-.26-.13-.52-.07-.62s-.3-.34-.21.29c0-.16-.06,0-.06,0s-.11-.08-.19,0l0,.1c.08.77,0,.18-.1.28v-.08c-.25-.52,0,.27-.28-.33l.08.47c.15,1-.24-.58-.26-.18l.08.26c0,.36-.36-1.36-.43-1.48a.53.53,0,0,1,0-.21c-.23-.58.09.62,0,.78a4.6,4.6,0,0,0-.19-.91c-.08-.27,0,1.12-.2.49a2.67,2.67,0,0,1,.11.71c-.05.1-.34-.94-.27-.12a1.76,1.76,0,0,1,0-.2,2.84,2.84,0,0,0-.07.82c-.31-1.63-.18.84-.42-.67l-.14.1,0-.15c-.11-.09-.09.28-.07.65a1.47,1.47,0,0,1-.05-.32c-.18-.28-.19-.22-.2.55l-.08-.49c0,.29-.29-.75-.35-.16a2.1,2.1,0,0,1,0-.22c-.09.59-.46-1.34-.36.47l-.06.45c.14.13,0,.78.12,1.08,0,.11-.18-.53-.12-.63l0,.09c0-.94-.19-.31-.22-1-.23,0-.45-.47-.64-.51v.73l-.07,0c0-.17,0-.57,0-.54,0-.41-.1.35-.11.51a4,4,0,0,1,.05-.87l0,0v.09c0,.29-.07.61-.12.56s0-.45,0-.48,0-.08,0,0l-.06-.07,0,.58c-.07.28-.08,0-.11.61.06-1-.27-.4-.25-.71-.14.41-.19.38-.23.31,0,.12-.16.76-.2.66.37-1.29.05-.6.31-1.53-.16.62-.16.11-.41,1,0-.12.16-.47.25-.78-.27.45-.06-.34-.17-.25s-.19.4-.33.62q.18-.41.37-.8c-.05.07-.51.87-.24.33a3,3,0,0,1-.22.37c.13-.43,0-.31-.19-.31s-.22-.14.3-.76c-.23.25-.26.27-.29.26s-.31.3-.49.47q.2-.27.42-.51c-.51.42-.1,0-.6.36l.11,0c-.62.43-1.22,1.12-1.94,1.75.69-.51-.74,1,.25.32-.11.16-.24.2-.38.37.32-.26.41-.29.35-.09l-.08.07c.26.1,0,.51.16.9l.26-.39c0,.09-.06.21-.1.33.48-.54-.13-.14.4-.73-.5.83.35.24-.18,1.2.09.06.26-.48.35-.42l-.13.27.22-.32a1.8,1.8,0,0,1-.25.65s-.08,0-.11,0c-.08.36.3,0,.27.15v-.22c.37-.08.57.39,1-.09l.06-.22c.31-.33.07.28.34.17l0,0c.1-.2.18-.29.23-.25-.12.24,0,.52-.17.78.32-.37.2-.3.5-1.09l0,.37c.11-.32.15-.5.25-.58-.13.3,0,.56-.21,1,.09.83.43-.77.36.42.23-1-.1-.59,0-.8s.18-.75.22-.64-.05,1.32.13,1.32c0,0,0,.07,0,.06,0,.27.16-.34.21.1.08-.61.1,0,.16-.74l-.16.17c.11-.19.22-1.11.32-.67a3.35,3.35,0,0,1-.09.49c0,.23.08-.15.11.08,0,.79-.17.18-.31.77,0,.34.21-.57.12.29.11-1.09.16.14.29-.7l0,.47c0-.07.06-.3.09-.29l-.07.62c.1-.53.18.46.27.17-.19,0,0-.57-.12-.92.21-.64.13,1.24.4,1,0,.07-.14-.28-.09-.5a1.82,1.82,0,0,1,.16.53c.17-.1,0-.49,0-.78.08.58.07-.24.13-.42l0,.48c.2.3,0-1,.16-.64l0,.67.07-.18,0,.55c.06-.41.09-.31.19-.17a2.06,2.06,0,0,1,0-.9c.08.28,0,.46.11.38,0,.3,0,.68-.08.24v.46c.09.32.15.06.19.05a.19.19,0,0,1-.05-.11l.09-.68a1.62,1.62,0,0,1,0,.47c0-.06,0-.28.07-.32a4.24,4.24,0,0,1,0,1l.11-.45a4.73,4.73,0,0,1,.13.6c.12.22.12-.78.27-.49a.74.74,0,0,1,0-.21c.11.07.26.54.3,0l.17.69c.07-.17-.21-.86-.11-1.15s.13.59.19.78c0-.36,0-1.09.16-.53C123.18,183,123.14,182.92,123.12,183Zm1-.48c0,.1,0,.42-.05.14C124,182.09,124.05,182.35,124.11,182.5Zm1.32-1.38c0,.16,0,.08-.07-.09S125.4,181,125.43,181.12Zm5-2.9v0C130.43,178,130.43,178.12,130.44,178.23Zm0,.25a.74.74,0,0,0,.08-.18c-.05.11-.08.11-.1.06C130.42,178.47,130.4,178.56,130.48,178.47Zm-10.42.3v.13C120,179,120,178.91,120.06,178.77Z" transform="translate(-113.79 -164.42)"/><path class="cls-1" d="M125.36,181.8l0-.26A1,1,0,0,0,125.36,181.8Z" transform="translate(-113.79 -164.42)"/><polygon class="cls-1" points="8.69 18.92 8.68 18.91 8.69 19 8.69 18.92"/><path class="cls-1" d="M128,182a1.9,1.9,0,0,1,0-.25A.61.61,0,0,0,128,182Z" transform="translate(-113.79 -164.42)"/><path class="cls-1" d="M131.47,178l-.14.07s0,.1,0,.18C131.38,178.17,131.44,178,131.47,178Z" transform="translate(-113.79 -164.42)"/><path class="cls-1" d="M130.55,180.93s0,0,.06,0l.12-.19S130.57,180.83,130.55,180.93Z" transform="translate(-113.79 -164.42)"/><path class="cls-1" d="M130.8,179.48c-.18.36-.08.26,0,.21h0C131.08,179.2,130.94,179.34,130.8,179.48Z" transform="translate(-113.79 -164.42)"/><path class="cls-1" d="M130.82,179.68s0,0,0,0C131,179.5,130.87,179.65,130.82,179.68Z" transform="translate(-113.79 -164.42)"/><path class="cls-1" d="M130.73,178.29c0,.11.22-.47.17-.31C131.13,177.52,130.48,178.48,130.73,178.29Z" transform="translate(-113.79 -164.42)"/><polygon class="cls-1" points="16.43 16.26 16.64 15.81 16.43 16.16 16.43 16.26"/><path class="cls-1" d="M130.07,180.21v.15a.55.55,0,0,1,.09-.15S130.13,180.07,130.07,180.21Z" transform="translate(-113.79 -164.42)"/><path class="cls-1" d="M130.16,180.22s0,0,.09-.05S130.2,180.17,130.16,180.22Z" transform="translate(-113.79 -164.42)"/><polygon class="cls-1" points="16.27 16.35 16.3 16.25 16.28 16.2 16.27 16.35"/><path class="cls-1" d="M129.39,179.83l-.12.12c-.06.16-.07.27,0,.21A1.29,1.29,0,0,0,129.39,179.83Z" transform="translate(-113.79 -164.42)"/><path class="cls-1" d="M129.16,181.19c0-.11.06-.21.1-.37l-.2.59Z" transform="translate(-113.79 -164.42)"/><path class="cls-1" d="M128.95,181.28c-.06.16-.23.45-.15.43S129,181.43,128.95,181.28Z" transform="translate(-113.79 -164.42)"/><polygon class="cls-1" points="14.38 15.89 14.4 15.89 14.53 14.88 14.38 15.89"/><path class="cls-1" d="M127.2,182.68c.06.24,0-.63.08-.33,0-.24,0-.25,0-.46A2,2,0,0,0,127.2,182.68Z" transform="translate(-113.79 -164.42)"/><path class="cls-1" d="M127.26,181.89l0-.16A1.37,1.37,0,0,0,127.26,181.89Z" transform="translate(-113.79 -164.42)"/><polygon class="cls-1" points="5.05 13.24 5.19 13.09 4.94 13.32 5.05 13.24"/><path class="cls-1" d="M118.21,178.11l.5-.41-.47.35S118.32,178,118.21,178.11Z" transform="translate(-113.79 -164.42)"/><path class="cls-1" d="M124.48,183.77l0-.15c0-.17-.05-.18-.08-.2Z" transform="translate(-113.79 -164.42)"/><polygon class="cls-1" points="9.88 18.99 9.89 19 9.77 18.43 9.88 18.99"/><path class="cls-1" d="M123.1,184.26s0-.11.08-.09S123,183.53,123.1,184.26Z" transform="translate(-113.79 -164.42)"/><path class="cls-2" d="M146.92,201.23" transform="translate(-113.79 -164.42)"/><path class="cls-1" d="M148.82,199.71s.32-.22.38-.26A1.43,1.43,0,0,0,148.82,199.71Z" transform="translate(-113.79 -164.42)"/><polygon class="cls-1" points="33.96 35.52 34.09 35.41 33.73 35.63 33.96 35.52"/><path class="cls-1" d="M147.43,199.59c-.48.53.2,0,.07.28l-.11.12.45-.36C147.7,199.61,147.34,199.78,147.43,199.59Z" transform="translate(-113.79 -164.42)"/><path class="cls-1" d="M148.33,198.3c-.18.21-.21.13,0,.11l0-.06S148.34,198.33,148.33,198.3Z" transform="translate(-113.79 -164.42)"/><path class="cls-1" d="M148.36,198.35c.05,0,.14-.2,0,0Z" transform="translate(-113.79 -164.42)"/><path class="cls-1" d="M148.07,198.28l.22-.13c.1-.13.08-.21.18-.28C148.31,197.91,148.22,198,148.07,198.28Z" transform="translate(-113.79 -164.42)"/><path class="cls-1" d="M147.67,198.61l.1-.05C147.81,198.51,147.81,198.48,147.67,198.61Z" transform="translate(-113.79 -164.42)"/><path class="cls-1" d="M148,198.45l-.2.11c-.07.09-.23.26.08,0C147.7,198.68,147.84,198.54,148,198.45Z" transform="translate(-113.79 -164.42)"/><path class="cls-1" d="M147.93,198.57a.75.75,0,0,1-.33.38C147.76,199,148.09,198.59,147.93,198.57Z" transform="translate(-113.79 -164.42)"/><path class="cls-1" d="M146.9,200.1l-.12.18.2-.14C146.88,200.2,147.05,199.94,146.9,200.1Z" transform="translate(-113.79 -164.42)"/><path class="cls-1" d="M147.93,197.68c-.1.11-.24.33-.35.48l.16-.1A1.22,1.22,0,0,1,147.93,197.68Z" transform="translate(-113.79 -164.42)"/><path class="cls-1" d="M147.58,198.16l-.23.15C147.39,198.38,147.48,198.29,147.58,198.16Z" transform="translate(-113.79 -164.42)"/><polygon class="cls-1" points="33.34 34.77 33.8 34.46 33.32 34.76 33.34 34.77"/><polygon class="cls-1" points="33.88 33.04 34.14 32.79 33.74 33.16 33.88 33.04"/><path class="cls-1" d="M147.44,197.37c.2-.21.24-.43.38-.55-.08,0-.27.18-.44.33C147.5,197.08,147.53,197.14,147.44,197.37Z" transform="translate(-113.79 -164.42)"/><path class="cls-1" d="M147.13,197.38l.25-.22A1.44,1.44,0,0,0,147.13,197.38Z" transform="translate(-113.79 -164.42)"/><path class="cls-1" d="M147.28,198.17a1.54,1.54,0,0,0,.21-.38l-.23.36Z" transform="translate(-113.79 -164.42)"/><path class="cls-1" d="M147.25,198.16h0l0-.06Z" transform="translate(-113.79 -164.42)"/><path class="cls-1" d="M147.29,198.18h0S147.25,198.22,147.29,198.18Z" transform="translate(-113.79 -164.42)"/><path class="cls-1" d="M147.24,198.78a1.79,1.79,0,0,0-.59.63A7.27,7.27,0,0,1,147.24,198.78Z" transform="translate(-113.79 -164.42)"/><path class="cls-1" d="M147,198.62v.12a2.13,2.13,0,0,1,.25-.3Z" transform="translate(-113.79 -164.42)"/><polygon class="cls-1" points="33.09 34.29 33.2 34.2 33.2 34.16 33.09 34.29"/><path class="cls-1" d="M147,197.8c-.14.13-.18.12-.24.12s0,.16,0,.19S147.09,197.82,147,197.8Z" transform="translate(-113.79 -164.42)"/><path class="cls-1" d="M147.12,198h0S147.08,198.06,147.12,198Z" transform="translate(-113.79 -164.42)"/><path class="cls-1" d="M146.43,197.65l0,.07,0-.06Z" transform="translate(-113.79 -164.42)"/><path class="cls-1" d="M146.81,198.18c0,.09.06,0,.15-.08a.14.14,0,0,1-.12,0S146.79,198.19,146.81,198.18Z" transform="translate(-113.79 -164.42)"/><path class="cls-1" d="M146.91,197.46c0,.09-.05.16-.07.24C146.9,197.58,147,197.38,146.91,197.46Z" transform="translate(-113.79 -164.42)"/><path class="cls-1" d="M147.16,197.92h0C147.22,197.82,147.19,197.86,147.16,197.92Z" transform="translate(-113.79 -164.42)"/><path class="cls-1" d="M147.16,197.92a2.09,2.09,0,0,0-.19.18l.13-.08Z" transform="translate(-113.79 -164.42)"/><path class="cls-1" d="M144.94,199.95c.2-.34.45-.61.28-.21a13.66,13.66,0,0,0,1.17-2,1.62,1.62,0,0,1-.36.44,2.28,2.28,0,0,1-.36.8c-.18.12,0-.16.08-.37-.22.44-.46.57-.8,1.21l.19-.19A3,3,0,0,0,144.94,199.95Z" transform="translate(-113.79 -164.42)"/><path class="cls-1" d="M146.5,197.85l.06,0a2.56,2.56,0,0,1,.18-.53,1.52,1.52,0,0,0-.31.36l.11.15Z" transform="translate(-113.79 -164.42)"/><path class="cls-1" d="M146.69,197.91a4.82,4.82,0,0,0-.64.87c.09,0,.25-.26.4-.39-.19,0,.17-.17.21-.44a.21.21,0,0,1,.14,0,1.27,1.27,0,0,1,0-.21v0h0s0,.08,0,0h0l-.1.13c0-.1.06-.1.1-.13l0-.05h0l-.27.1C146.56,197.9,146.6,197.91,146.69,197.91Z" transform="translate(-113.79 -164.42)"/><path class="cls-1" d="M146,200.07l.06-.08S146,200.06,146,200.07Z" transform="translate(-113.79 -164.42)"/><path class="cls-1" d="M146.12,199.84s.16-.17.16-.12a1.62,1.62,0,0,1-.22.27,1.16,1.16,0,0,0,.34-.4l0,0a4.19,4.19,0,0,1,.37-.65C146.49,199.3,146.33,199.53,146.12,199.84Z" transform="translate(-113.79 -164.42)"/><path class="cls-1" d="M146.37,199l-.22.1-.17.34.13-.18C146.11,199.36,146.26,199.12,146.37,199Z" transform="translate(-113.79 -164.42)"/><polygon class="cls-1" points="32.74 33.04 32.99 32.66 32.59 33.16 32.74 33.04"/><polygon class="cls-1" points="32.55 32.99 32.75 32.65 32.59 32.83 32.55 32.99"/><path class="cls-1" d="M138.37,201.65v.12A.54.54,0,0,0,138.37,201.65Z" transform="translate(-113.79 -164.42)"/><path class="cls-1" d="M138.58,201.64l0-.19A.69.69,0,0,0,138.58,201.64Z" transform="translate(-113.79 -164.42)"/><path class="cls-1" d="M142.11,196.36c0-.37-.1-.94-.1-.5v.43C142.06,196.22,142.09,196.26,142.11,196.36Z" transform="translate(-113.79 -164.42)"/><path class="cls-1" d="M139.91,199.1l0,.13,0-.42Z" transform="translate(-113.79 -164.42)"/><path class="cls-1" d="M140.12,200.88l-.09-.27A2,2,0,0,0,140.12,200.88Z" transform="translate(-113.79 -164.42)"/><path class="cls-1" d="M137.22,202.29l0,.44C137.3,202.72,137.24,202.51,137.22,202.29Z" transform="translate(-113.79 -164.42)"/><path class="cls-1" d="M144.53,196.84c0-.18,0-.25-.05-.28C144.47,196.81,144.41,197.18,144.53,196.84Z" transform="translate(-113.79 -164.42)"/><path class="cls-1" d="M137.7,197.09a1.18,1.18,0,0,0,0,.26A.93.93,0,0,0,137.7,197.09Z" transform="translate(-113.79 -164.42)"/><path class="cls-1" d="M144.33,196.52v.11c.05-.06.11-.11.15-.07C144.48,196.36,144.45,196.24,144.33,196.52Z" transform="translate(-113.79 -164.42)"/><path class="cls-1" d="M131.55,201.16v-.05S131.54,201.17,131.55,201.16Z" transform="translate(-113.79 -164.42)"/><path class="cls-1" d="M133.24,197a0,0,0,0,1,0,0S133.29,196.93,133.24,197Z" transform="translate(-113.79 -164.42)"/><path class="cls-1" d="M145.73,196.91s0,0,0,0Z" transform="translate(-113.79 -164.42)"/><path class="cls-1" d="M145.17,198.54a1.55,1.55,0,0,0-.1.19Z" transform="translate(-113.79 -164.42)"/><path class="cls-1" d="M143.4,199.07h0C143.39,199.15,143.39,199.14,143.4,199.07Z" transform="translate(-113.79 -164.42)"/><path class="cls-1" d="M145.7,197.12a.52.52,0,0,0,0-.14A.63.63,0,0,0,145.7,197.12Z" transform="translate(-113.79 -164.42)"/><path class="cls-1" d="M145.78,196.93V197C145.83,196.92,145.85,196.87,145.78,196.93Z" transform="translate(-113.79 -164.42)"/><path class="cls-1" d="M145.67,196.91s0,0,0,.07a.19.19,0,0,1,0-.07Z" transform="translate(-113.79 -164.42)"/><path class="cls-1" d="M134.86,200.91v0C134.81,201,134.83,201,134.86,200.91Z" transform="translate(-113.79 -164.42)"/><path class="cls-1" d="M141.43,200.88v0Z" transform="translate(-113.79 -164.42)"/><path class="cls-1" d="M141.37,201.2c0-.54,0-.47.06-.36l-.08-1.25Z" transform="translate(-113.79 -164.42)"/><path class="cls-1" d="M137.86,201.85l.13.37c0,.65-.09.44.06,1-.2-1.34.27-.18.07-1.52l.09.27s0,.07,0,.06c.2.63-.09-1,.05-.81a1,1,0,0,1,.12.45l0-.35s.06.26,0,.23l.12-.13v0l0-.69c.07.19,0,.15,0,.31l0-.34c.09.34.08.69,0,.65.29,1.33,0-.35.28.41l0,.18a3.6,3.6,0,0,0,.34.93,7.69,7.69,0,0,1-.33-1.51c0,.1.08.14.08-.14.08.48.1.35.15.32l.1.63a6.12,6.12,0,0,0,0-.8,3.62,3.62,0,0,1,.25.95c.12.08-.2-.77-.1-.91.12.23.13,0,.17-.43a3.09,3.09,0,0,1,.1.57l0-.51a1.24,1.24,0,0,1,0,.24,8.07,8.07,0,0,1-.06-.81c-.09-.7.29,1,.25.19,0,.18,0,.39.09.63a8.57,8.57,0,0,0,0-1.11l.14.4a6,6,0,0,1-.12-1.51l-.13-.52.06-.36a4.13,4.13,0,0,1,.06.59v-.15a4.67,4.67,0,0,1,.12,1l-.09-.39c0,.39.06.82.12,1.19a.68.68,0,0,1,0-.18,2.62,2.62,0,0,0,0,.26c0,.07,0-.08,0-.24l.12.7,0-.28.19.43a9.47,9.47,0,0,1,.09-2.09c0,.52.08.85.15,1.47-.11-.65-.08.29-.17.16a1.44,1.44,0,0,1,.08.46l.07-.61a1.51,1.51,0,0,0,.13.58c-.13-1,0-.67.06-1,0,.33.05.68,0,.6.14.74,0-1.18.12-.55,0,0,0,0,0,.13,0-.3.13-.08.13.22h0c.12.1.32,0,.29-.87l0,1.2q0-1.43.07-2.86c0,.73.14,2.47.07,2.88,0,.1.06.22.1,0a10.85,10.85,0,0,1-.06-1.12c.09.81.06.43.15,1.12a6.84,6.84,0,0,1,0-1.27c0,.17,0,1.13,0,1.25l.09-1.13a12,12,0,0,0,0,1.27c0-.22.08,0,.11-.09l0-.26c.11.17.13-1.59.26-1.53a12.06,12.06,0,0,0,0,1.57,21.72,21.72,0,0,1,.39-3.19v.33l.13-.37c-.14.86-.4,2.67-.48,3.37,0,.26,0,.39,0,.36a1.18,1.18,0,0,1-.06.48l.1.21c0-.67.13-.66.18-1.22l-.18.68c0-.67.2-1.9.31-1.77s-.12,1.19-.14,1.41c0-.23.13-.43.12-.27l-.07.35c0,.26.17-.88.17-.24,0,0,0,.86,0,.47.07-.76.34-3.12.45-3.69a8.25,8.25,0,0,1,0,1.12c0,.6-.27,1.41-.31,1.93,0-.18.08-.4.1-.48,0,.16-.09.56,0,.48.12-.68.09.08.11-.57.08-.18,0,.15.09.14a7.84,7.84,0,0,1,.44-1.63c0,.17-.07.39-.08.5s.1.41.21.44a3.4,3.4,0,0,1-.13.65c0-.11.12-.33.16-.34-.1.58-.09.07-.24.77a3,3,0,0,1,.34-.73c.16-.59-.08-.14-.18.09a6.64,6.64,0,0,1,.81-2c.18-.17-.12.53-.06.42.15.19.66-1.33.64-.68a12.27,12.27,0,0,1-.51,1.37c-.15.16,0-.37-.06-.38l0,.27c-.09.16-.18.26-.16.1-.11.48.26.22.21.69a2.54,2.54,0,0,0,.28-.51l-.07,0c.13-.42.33-.51.35-.72.19-.25.47-.65.47-.38l-.25.56c.08-.16.1-.36,0-.2.16-.22-.23.81.17.11l.13-.41c.2-.24.61-.77.61-.56.25-.55-.05.05.21-.61-.35.81-.24-.15-.56.72.3-.77,0-.37.24-1-.08.18-.13.37-.17.24l-.09.15v0s0,0,0,0a1.67,1.67,0,0,1-.09.3c-.24.4-.35.34-.49.54,0-.11.11-.2.17-.41l-.2.3c.17-.42.15-.75.37-.94l-.1-.07c0-.26,0-.4-.15-.24,0-.11-.3.41-.14.1l-.26.21,0-.11c-.16-.1-.54.63-.52-.2-.09.1-.18.22-.24.07l.07-.38c-.1.11-.15-.43-.26,0,.11-1-.35-.32-.44-.5l-.08.5c-.08,0-.19.1-.32.29l0,.45c-.12.36-.19-.34-.34-.3,0-.17.06-.12.07,0-.1-1-.4.71-.51,0,0,.16-.07.1-.09,0v0h0l0-.24a2.14,2.14,0,0,0,0,.24s-.07.07-.11.18v-.48h0c0-.18,0,.23,0,.59a2.24,2.24,0,0,0-.06.29c0-.78-.1.26-.15-.56,0,.4-.2.31-.21,1.16,0-.11,0-.16,0-.17s-.09-.19-.12,0l0-.61-.07.83a3.27,3.27,0,0,1-.07-1.06c-.11.73-.1.28-.18,1l0-.4s-.07.55-.12.22c-.15-.75-.44-.06-.74-.73.17,1.15-.16-.51-.08.39a2.93,2.93,0,0,1-.08-.67c-.09.28-.24-.41-.23.35,0-.27,0-.4-.06-.56,0,.06,0,.24,0,.08a1.11,1.11,0,0,1,0-.35,4.61,4.61,0,0,0,.08,1.69c-.11-.37-.13-.31-.1.22-.06-.26-.13-.52-.07-.62s-.3-.34-.21.29c0-.16-.06,0-.06,0s-.11-.08-.19,0l0,.1c.08.77,0,.18-.1.28v-.08c-.25-.52,0,.27-.28-.33l.08.47c.15,1-.24-.58-.26-.18l.08.26c0,.36-.36-1.36-.43-1.48a.53.53,0,0,1,0-.21c-.23-.58.09.62,0,.78a4.6,4.6,0,0,0-.19-.91c-.08-.27,0,1.12-.2.49a2.67,2.67,0,0,1,.11.71c-.05.1-.34-.94-.27-.12a1.77,1.77,0,0,1,0-.2,2.84,2.84,0,0,0-.07.82c-.31-1.63-.18.84-.42-.67l-.14.1,0-.15c-.11-.09-.09.28-.07.65a1.47,1.47,0,0,1-.05-.32c-.18-.28-.19-.22-.2.55l-.08-.49c0,.29-.29-.75-.35-.16a2.1,2.1,0,0,1,0-.22c-.09.59-.46-1.34-.36.47l-.06.45c.14.13,0,.78.12,1.08,0,.11-.18-.53-.12-.63l0,.09c0-.94-.19-.31-.22-1-.23,0-.45-.47-.64-.51v.73l-.07,0c0-.17,0-.57,0-.54,0-.41-.1.35-.11.51a4,4,0,0,1,.05-.87l0,0v.09c0,.29-.07.61-.12.57s0-.45,0-.48,0-.08,0,0l-.06-.07,0,.58c-.07.28-.08,0-.11.61.06-1-.27-.4-.25-.71-.14.41-.19.38-.23.31,0,.12-.16.76-.2.66.37-1.29.05-.6.31-1.53-.16.62-.16.11-.41,1,0-.12.16-.47.25-.78-.27.45-.06-.34-.17-.24s-.19.4-.33.62q.18-.41.37-.8c-.05.07-.51.87-.24.33a3,3,0,0,1-.22.37c.13-.43,0-.31-.19-.31s-.22-.14.3-.76c-.23.25-.26.27-.29.26s-.31.3-.49.47q.2-.27.42-.51c-.51.42-.1,0-.6.36l.11,0c-.62.43-1.22,1.12-1.94,1.75.69-.51-.74,1,.25.32-.11.16-.24.2-.38.37.32-.26.41-.29.35-.09l-.08.07c.26.1,0,.51.16.9l.26-.39c0,.09-.06.21-.1.33.48-.54-.13-.14.4-.73-.5.83.35.24-.18,1.2.09.06.26-.48.35-.42l-.13.27.22-.32a1.8,1.8,0,0,1-.25.65s-.08,0-.11,0c-.08.36.3,0,.27.15v-.22c.37-.08.57.39,1-.09l.06-.22c.31-.33.07.28.34.17l0,0c.1-.2.18-.29.23-.25-.12.24,0,.52-.17.78.32-.37.2-.3.49-1.09l0,.37c.11-.32.15-.5.25-.58-.13.3,0,.56-.21,1,.09.83.43-.77.36.42.23-1-.1-.59,0-.8s.18-.75.22-.64-.05,1.32.13,1.32c0,0,0,.07,0,.06,0,.27.16-.34.21.1.08-.61.1,0,.16-.74l-.16.17c.11-.19.22-1.11.32-.67a3.36,3.36,0,0,1-.09.49c0,.23.08-.15.11.08,0,.79-.17.18-.3.77,0,.34.21-.57.12.29.11-1.09.16.14.29-.7l0,.47c0-.07.06-.3.09-.29l-.07.62c.1-.53.18.46.27.17-.19,0,0-.57-.12-.92.21-.64.13,1.24.4,1,0,.07-.14-.28-.09-.5a1.82,1.82,0,0,1,.16.53c.17-.1,0-.49,0-.78.08.58.07-.24.13-.42l0,.48c.2.3,0-1,.16-.64l0,.67.07-.18,0,.55c.06-.41.09-.31.19-.17a2.06,2.06,0,0,1,0-.9c.08.28,0,.46.11.38,0,.3,0,.68-.08.24v.46c.09.32.15.06.19.05a.19.19,0,0,1-.05-.11l.09-.68a1.62,1.62,0,0,1,0,.47c0-.06,0-.28.07-.32a4.24,4.24,0,0,1,0,1l.11-.45a4.73,4.73,0,0,1,.13.6c.12.22.12-.78.27-.49a.74.74,0,0,1,0-.21c.11.07.26.54.3,0l.17.69c.07-.17-.21-.86-.11-1.15s.13.59.19.78c0-.36,0-1.09.16-.53C137.93,201.9,137.89,201.8,137.86,201.85Zm1-.48c0,.1,0,.42-.05.14C138.74,201,138.8,201.23,138.86,201.38Zm1.32-1.38c0,.16,0,.08-.07-.09S140.14,199.88,140.18,200Zm5-2.9v0C145.18,196.92,145.17,197,145.18,197.1Zm0,.25a.74.74,0,0,0,.08-.18c-.05.11-.08.11-.1.06C145.16,197.34,145.15,197.43,145.22,197.35Zm-10.42.3v.13C134.76,197.9,134.78,197.78,134.8,197.64Z" transform="translate(-113.79 -164.42)"/><path class="cls-1" d="M140.1,200.67l0-.26A1,1,0,0,0,140.1,200.67Z" transform="translate(-113.79 -164.42)"/><polygon class="cls-1" points="23.43 37.79 23.43 37.78 23.43 37.87 23.43 37.79"/><path class="cls-1" d="M142.76,200.88a1.89,1.89,0,0,1,0-.25A.61.61,0,0,0,142.76,200.88Z" transform="translate(-113.79 -164.42)"/><path class="cls-1" d="M146.21,196.9l-.14.07s0,.1,0,.18C146.12,197,146.18,196.89,146.21,196.9Z" transform="translate(-113.79 -164.42)"/><path class="cls-1" d="M145.3,199.8s0,0,.06,0l.12-.19S145.32,199.7,145.3,199.8Z" transform="translate(-113.79 -164.42)"/><path class="cls-1" d="M145.54,198.35c-.18.36-.08.26,0,.21h0C145.82,198.07,145.68,198.21,145.54,198.35Z" transform="translate(-113.79 -164.42)"/><path class="cls-1" d="M145.56,198.56s0,0,0,0C145.73,198.37,145.62,198.52,145.56,198.56Z" transform="translate(-113.79 -164.42)"/><path class="cls-1" d="M145.48,197.16c0,.11.22-.47.17-.31C145.88,196.39,145.23,197.35,145.48,197.16Z" transform="translate(-113.79 -164.42)"/><polygon class="cls-1" points="31.17 35.13 31.39 34.68 31.18 35.03 31.17 35.13"/><path class="cls-1" d="M144.81,199.08v.15a.55.55,0,0,1,.09-.15S144.87,198.95,144.81,199.08Z" transform="translate(-113.79 -164.42)"/><path class="cls-1" d="M144.91,199.09s0,0,.09-.05S144.95,199,144.91,199.09Z" transform="translate(-113.79 -164.42)"/><polygon class="cls-1" points="31.02 35.23 31.05 35.13 31.02 35.08 31.02 35.23"/><path class="cls-1" d="M144.14,198.71l-.12.12c-.06.16-.07.27,0,.21A1.29,1.29,0,0,0,144.14,198.71Z" transform="translate(-113.79 -164.42)"/><path class="cls-1" d="M143.91,200.07c0-.11.06-.21.1-.37l-.2.59Z" transform="translate(-113.79 -164.42)"/><path class="cls-1" d="M143.69,200.16c-.06.16-.23.45-.15.43S143.7,200.3,143.69,200.16Z" transform="translate(-113.79 -164.42)"/><polygon class="cls-1" points="29.12 34.77 29.14 34.76 29.28 33.75 29.12 34.77"/><path class="cls-1" d="M141.95,201.55c.06.24,0-.63.08-.33,0-.24,0-.25,0-.46A2,2,0,0,0,141.95,201.55Z" transform="translate(-113.79 -164.42)"/><path class="cls-1" d="M142,200.77l0-.16A1.37,1.37,0,0,0,142,200.77Z" transform="translate(-113.79 -164.42)"/><polygon class="cls-1" points="19.79 32.12 19.94 31.97 19.68 32.2 19.79 32.12"/><path class="cls-1" d="M133,197l.5-.41-.47.35S133.06,196.89,133,197Z" transform="translate(-113.79 -164.42)"/><path class="cls-1" d="M139.22,202.64l0-.15c0-.17-.05-.18-.08-.2Z" transform="translate(-113.79 -164.42)"/><polygon class="cls-1" points="24.62 37.87 24.64 37.88 24.52 37.3 24.62 37.87"/><path class="cls-1" d="M137.84,203.13s0-.11.08-.09S137.73,202.41,137.84,203.13Z" transform="translate(-113.79 -164.42)"/></svg>