<svg id="Слой_1" data-name="Слой 1" xmlns="http://www.w3.org/2000/svg" viewBox="0 0 29.33 42.55"><defs><style>.cls-1{fill:#fff;}.cls-2{fill:none;stroke:#fff;stroke-linecap:round;stroke-linejoin:round;}</style></defs><title>wave-bottom-right</title><path class="cls-1" d="M121.19,161.56a4,4,0,0,0-.42.18A3.32,3.32,0,0,0,121.19,161.56Z" transform="translate(-116.59 -161.42)"/><polygon class="cls-1" points="5.57 0.05 5.41 0.1 5.81 0 5.57 0.05"/><path class="cls-1" d="M122.25,161.75c.67-.25-.15-.07.08-.2l.15-.06-.55.17C122,161.68,122.42,161.64,122.25,161.75Z" transform="translate(-116.59 -161.42)"/><path class="cls-1" d="M120.82,162.33c.26-.08.24,0,.07,0l-.07,0S120.84,162.31,120.82,162.33Z" transform="translate(-116.59 -161.42)"/><path class="cls-1" d="M120.83,162.3s-.22.08,0,0Z" transform="translate(-116.59 -161.42)"/><path class="cls-1" d="M121,162.36l-.25,0a2.56,2.56,0,0,1-.3.1A2.3,2.3,0,0,0,121,162.36Z" transform="translate(-116.59 -161.42)"/><path class="cls-1" d="M121.54,162.25h-.11C121.36,162.28,121.34,162.29,121.54,162.25Z" transform="translate(-116.59 -161.42)"/><path class="cls-1" d="M121.2,162.29l.23,0c.11,0,.33-.09-.08,0C121.55,162.21,121.35,162.26,121.2,162.29Z" transform="translate(-116.59 -161.42)"/><path class="cls-1" d="M121.3,162.24a1.48,1.48,0,0,1,.48-.14C121.66,162.06,121.18,162.21,121.3,162.24Z" transform="translate(-116.59 -161.42)"/><path class="cls-1" d="M123,161.54l.19-.1-.24,0C123,161.46,122.75,161.61,123,161.54Z" transform="translate(-116.59 -161.42)"/><path class="cls-1" d="M120.7,162.6l.59-.13-.17,0A3.09,3.09,0,0,1,120.7,162.6Z" transform="translate(-116.59 -161.42)"/><path class="cls-1" d="M121.28,162.47l.26,0S121.44,162.43,121.28,162.47Z" transform="translate(-116.59 -161.42)"/><polygon class="cls-1" points="5.72 0.64 5.16 0.72 5.73 0.65 5.72 0.64"/><polygon class="cls-1" points="4.09 1.28 3.75 1.33 4.27 1.26 4.09 1.28"/><path class="cls-1" d="M120.75,162.75l-.66.1.53,0C120.49,162.82,120.52,162.81,120.75,162.75Z" transform="translate(-116.59 -161.42)"/><path class="cls-1" d="M120.95,162.8l-.33,0Z" transform="translate(-116.59 -161.42)"/><path class="cls-1" d="M121.47,162.52c-.09,0-.33.07-.42.1l.42-.09Z" transform="translate(-116.59 -161.42)"/><path class="cls-1" d="M121.48,162.53h0l0,0Z" transform="translate(-116.59 -161.42)"/><path class="cls-1" d="M121.47,162.51h0S121.53,162.5,121.47,162.51Z" transform="translate(-116.59 -161.42)"/><path class="cls-1" d="M122,162.26a3.2,3.2,0,0,0,.84-.16C122.51,162.14,122.31,162.21,122,162.26Z" transform="translate(-116.59 -161.42)"/><path class="cls-1" d="M122,162.4l.09-.06-.39.08Z" transform="translate(-116.59 -161.42)"/><polygon class="cls-1" points="5.54 0.97 5.41 0.98 5.37 1 5.54 0.97"/><path class="cls-1" d="M121.34,162.7c.19,0,.2,0,.24,0s.12-.06.12-.08A1.42,1.42,0,0,0,121.34,162.7Z" transform="translate(-116.59 -161.42)"/><path class="cls-1" d="M121.44,162.61h0S121.51,162.6,121.44,162.61Z" transform="translate(-116.59 -161.42)"/><path class="cls-1" d="M121.61,162.91h0Z" transform="translate(-116.59 -161.42)"/><path class="cls-1" d="M121.77,162.63c.08,0,0,0-.16,0,0,0,.07,0,.08,0Z" transform="translate(-116.59 -161.42)"/><path class="cls-1" d="M121.15,162.83l.23,0C121.25,162.8,121,162.84,121.15,162.83Z" transform="translate(-116.59 -161.42)"/><path class="cls-1" d="M121.35,162.64h0C121.24,162.66,121.29,162.65,121.35,162.64Z" transform="translate(-116.59 -161.42)"/><path class="cls-1" d="M121.35,162.64l.26,0h-.14Z" transform="translate(-116.59 -161.42)"/><path class="cls-1" d="M124.36,162.85c-.4,0-.77,0-.36-.12a22.32,22.32,0,0,0-2.32.17,2.91,2.91,0,0,1,.57,0,4.13,4.13,0,0,1,.85-.11c.21.06-.13.06-.33.1.49-.05.72.06,1.44,0l-.25-.06A2.82,2.82,0,0,0,124.36,162.85Z" transform="translate(-116.59 -161.42)"/><path class="cls-1" d="M121.71,162.83h-.05a3.87,3.87,0,0,1-.53.09h.48l0-.08Z" transform="translate(-116.59 -161.42)"/><path class="cls-1" d="M121.64,162.75c.43,0,.62,0,1.08-.08,0-.05-.36,0-.55,0,.12.07-.24,0-.48.09l-.12,0-.19.06h.26a.33.33,0,0,1-.16,0h-.07l.25,0C121.71,162.8,121.7,162.78,121.64,162.75Z" transform="translate(-116.59 -161.42)"/><path class="cls-1" d="M123.71,162l-.1,0C123.67,162,123.7,162,123.71,162Z" transform="translate(-116.59 -161.42)"/><path class="cls-1" d="M123.46,162.05c-.06,0-.23,0-.19,0a1.91,1.91,0,0,1,.34-.07,1.35,1.35,0,0,0-.51.1h.06a4.37,4.37,0,0,1-.72.23C122.82,162.22,123.09,162.16,123.46,162.05Z" transform="translate(-116.59 -161.42)"/><path class="cls-1" d="M122.67,162.43l.22,0,.36-.09-.22,0C123.11,162.36,122.84,162.41,122.67,162.43Z" transform="translate(-116.59 -161.42)"/><polygon class="cls-1" points="4.8 1.51 4.35 1.53 4.99 1.53 4.8 1.51"/><polygon class="cls-1" points="4.86 1.58 4.47 1.59 4.71 1.6 4.86 1.58"/><path class="cls-1" d="M122.88,170.78l.07.09Z" transform="translate(-116.59 -161.42)"/><path class="cls-1" d="M123,170.63l-.15-.12A.69.69,0,0,0,123,170.63Z" transform="translate(-116.59 -161.42)"/><path class="cls-1" d="M121,164.85c-.35-.13-.88-.36-.48-.17l.39.19C120.89,164.82,120.94,164.82,121,164.85Z" transform="translate(-116.59 -161.42)"/><path class="cls-1" d="M122.22,167.86l.11.07-.32-.26Z" transform="translate(-116.59 -161.42)"/><path class="cls-1" d="M123.67,168.92l-.26-.11Z" transform="translate(-116.59 -161.42)"/><path class="cls-1" d="M122.62,171.91l.34.28S122.8,172,122.62,171.91Z" transform="translate(-116.59 -161.42)"/><path class="cls-1" d="M121.53,163.75a1,1,0,0,0-.27,0C121.51,163.78,121.89,163.83,121.53,163.75Z" transform="translate(-116.59 -161.42)"/><path class="cls-1" d="M119.25,167.95a1.17,1.17,0,0,0,.2.18A.93.93,0,0,0,119.25,167.95Z" transform="translate(-116.59 -161.42)"/><path class="cls-1" d="M121.25,163.81h.1c-.07,0-.12-.06-.09-.07C121.08,163.73,121,163.72,121.25,163.81Z" transform="translate(-116.59 -161.42)"/><path class="cls-1" d="M121.32,174h0Z" transform="translate(-116.59 -161.42)"/><path class="cls-1" d="M117.29,175.93s0,0-.05-.06S117.22,175.91,117.29,175.93Z" transform="translate(-116.59 -161.42)"/><path class="cls-1" d="M121.24,163.26s0,0,0,0Z" transform="translate(-116.59 -161.42)"/><path class="cls-1" d="M123,163.26l.21,0Z" transform="translate(-116.59 -161.42)"/><path class="cls-1" d="M123.81,164.69h0C123.9,164.71,123.88,164.7,123.81,164.69Z" transform="translate(-116.59 -161.42)"/><path class="cls-1" d="M121.44,163.25h0Z" transform="translate(-116.59 -161.42)"/><path class="cls-1" d="M121.23,163.25h0C121.2,163.23,121.16,163.23,121.23,163.25Z" transform="translate(-116.59 -161.42)"/><path class="cls-1" d="M121.26,163.29s0,0,0,0h-.07Z" transform="translate(-116.59 -161.42)"/><path class="cls-1" d="M120.5,172.5h0C120.61,172.58,120.59,172.56,120.5,172.5Z" transform="translate(-116.59 -161.42)"/><path class="cls-1" d="M124.67,167.58h0Z" transform="translate(-116.59 -161.42)"/><path class="cls-1" d="M124.89,167.85c-.44-.32-.37-.31-.25-.28l-1.1-.59Z" transform="translate(-116.59 -161.42)"/><path class="cls-1" d="M122.7,171.24l.35.18c.47.44.26.35.74.63-1.09-.81,0-.27-1.06-1.09l.25.14s0,.05,0,.05c.57.33-.75-.64-.53-.61a1,1,0,0,1,.39.25l-.22-.27s.22.14.19.15v-.17l0,0-.5-.48c.18.09.1.1.25.19l-.22-.26c.3.19.54.44.46.45,1.13.76-.24-.25.49.1l.1.16a3.63,3.63,0,0,0,.89.44,7.72,7.72,0,0,1-1.29-.87c.1,0,.15,0,0-.15.39.29.32.18.33.13l.51.39a6.13,6.13,0,0,0-.59-.55,3.63,3.63,0,0,1,.84.51c.14,0-.68-.42-.7-.59.25.07.08-.14-.17-.45.21.08.31.24.47.33l-.38-.35a1.1,1.1,0,0,1,.2.14c-.13-.16-.51-.38-.61-.54-.56-.43.92.48.33-.06.16.09.31.24.52.38a6.61,6.61,0,0,0-.76-.8l.39.17a5.85,5.85,0,0,1-1.18-.95l-.46-.26-.22-.29a4.2,4.2,0,0,1,.47.35l-.11-.1a4.62,4.62,0,0,1,.78.56l-.35-.2c.3.25.64.52.95.73a.63.63,0,0,1-.12-.13l.21.16c.06,0-.05-.06-.17-.16l.6.39-.23-.17.45.12a13.09,13.09,0,0,1-1.5-1.48c.41.32.71.48,1.22.82-.57-.32.16.27,0,.27a1.17,1.17,0,0,1,.4.24l-.4-.47a1.18,1.18,0,0,0,.53.26c-.85-.53-.49-.47-.71-.69.28.18.56.38.45.4.68.33-.92-.74-.34-.46,0,0-.05,0,.09.1-.23-.2,0-.16.27,0v0c.18,0,.23-.35-.5-.8l1,.64q-1.17-.84-2.36-1.64a27.2,27.2,0,0,1,2.48,1.48c.11,0,.23,0,0-.15a8,8,0,0,1-1-.53,9.22,9.22,0,0,0,1.06.41,5.88,5.88,0,0,1-1.08-.65c.15.09,1,.53,1.09.61l-.93-.65a8.76,8.76,0,0,0,1.14.57c-.2-.09.08-.1,0-.18l-.26-.07c.23-.06-1.34-.84-1.23-.93a8.37,8.37,0,0,0,1.43.66c-.5-.29-2.44-1.33-2.82-1.58l.31.12-.32-.22a31.1,31.1,0,0,1,3,1.67c.26.05.36.15.37,0,.29.1.4.24.41.28l.27-.13c-.62-.26-.55-.43-1.07-.64l.55.5c-.61-.27-1.69-.9-1.54-1s1.09.48,1.3.57c-.21-.11-.35-.3-.2-.25l.31.19c.27,0-.78-.45-.14-.31.05,0,.85.2.48.06-.74-.21-3-1-3.5-1.26.05,0,.74.14,1.11.23.59.15,1.33.54,1.83.67a3.9,3.9,0,0,1-.44-.2c.16,0,.53.2.48.1-.64-.23.1-.13-.53-.22-.17-.13.15,0,.15-.13a11,11,0,0,1-1.59-.61l.49.12c.09-.11.41-.1.44-.23a3.09,3.09,0,0,1,.65.09c-.11,0-.33-.11-.34-.15.6,0,.07.11.78.2a2.86,2.86,0,0,1-.74-.33c-.61-.1-.15.1.08.22a12.76,12.76,0,0,1-2-.61c-.19-.11.55.06.43,0,.19-.14-1.44-.34-.83-.36s1.06.12,1.45.15c.2.1-.34.08-.33.13l.26,0c.18,0,.31.12.15.13.48,0,.11-.3.56-.41a2.14,2.14,0,0,0-.58-.09l.07,0c-.43,0-.59-.12-.8-.08s-.78-.14-.53-.19h.61c-.18,0-.37,0-.18.06-.27,0,.84-.1,0-.14l-.43,0c-.3-.05-1-.09-.75-.14-.61,0,.07,0-.64.05.88,0,0,.1.88.07-.82,0-.35.06-1.06.07.2,0,.39,0,.29,0l.18,0h.33a3,3,0,0,1,.68.15c-.1,0-.23,0-.45,0l.36.06a5.9,5.9,0,0,1-1-.08l0,0c-.25,0-.35,0-.16.06-.1,0,.49.12.14.05l.26.11-.11,0c-.08.05.68.31-.13.22.1,0,.23.11.1.12l-.38-.09c.12.07-.39,0,0,.1-1-.27-.23.06-.45.06l.48.17s.07.11.24.24l.42.16c.32.18-.35,0-.33.1-.16-.07-.11-.07,0,0-1-.32.6.48-.11.26.14.09.08.08,0,0l0,0h0l-.23-.08.23.08s0,.07.12.14l-.44-.21h0c-.17-.06.19.12.52.27l.24.16c-.7-.33.2.19-.56-.17a7.9,7.9,0,0,0,.94.68c-.1-.05-.15-.07-.15-.09s-.2,0,0,.11l-.54-.29.68.47a4.17,4.17,0,0,1-.93-.51c.58.45.2.21.77.65l-.34-.21s.43.36.14.2c-.68-.33-.3.26-1,0,1,.61-.48-.22.26.29a3.67,3.67,0,0,1-.56-.37c.17.23-.44-.13.15.36-.23-.15-.32-.25-.46-.33,0,0,.18.16,0,.08a1.56,1.56,0,0,1-.27-.22,6.64,6.64,0,0,0,1.33,1.06c-.34-.17-.31-.12.09.21-.22-.14-.46-.27-.5-.38s-.44,0,.07.33c-.14-.09-.07,0,0,.07s-.13,0-.13.12l.1,0c.6.48.1.16.13.26l-.06,0c-.54-.21.18.21-.42,0l.39.28c.82.63-.56-.26-.3.05l.24.14c.25.25-1.2-.73-1.34-.77a.52.52,0,0,1-.15-.15c-.56-.26.49.39.55.55a4.59,4.59,0,0,0-.76-.52c-.24-.14.77.81.19.49a2.66,2.66,0,0,1,.57.44c0,.11-.9-.44-.28.1l-.17-.11a2.82,2.82,0,0,0,.52.64c-1.36-.95.45.75-.78-.16l0,.19-.12-.1c-.15,0,.13.27.4.52a1.34,1.34,0,0,1-.27-.19c-.34-.05-.3,0,.24.55l-.41-.27c.22.19-.77-.25-.39.22l-.17-.14c.39.47-1.41-.36.08.67l.31.34c.2-.05.65.43.94.54.06.1-.54-.16-.58-.27l.08,0c-.79-.51-.39,0-.93-.35-.11.31-.73.35-.92.63l.68.28-.09.08c-.17,0-.54-.21-.47-.26-.4-.14.25.26.4.33-.33,0-.75-.41-.79-.37l0,.09.08,0c.25.18.54.31.47.39a3.3,3.3,0,0,1-.46-.13s-.07,0,0,0l-.11.13.56.15c.24.16-.08.12.56.29-1-.26-.52.38-.84.34.37.2.35.28.28.38.12,0,.76.14.66.2-1.3-.32-.6,0-1.56,0,.64,0,.11.33,1,.34-.12.07-.5-.07-.82,0,.49.26-.42.44-.22.75a3.37,3.37,0,0,1,.71,0l-.87.15c.09.06,1,0,.41.14a1.25,1.25,0,0,1,.43,0c-.41.28-.22.55-.1.78s.2.44-.47,1c.3-.18.35-.14.38-.09a4.93,4.93,0,0,1,.63-.22l-.55.43c.63-.2.12.21.71,0l-.13,0c.71-.22,1.5-.74,2.4-1.07-.81.24,1.15-.54,0-.22.18-.07.3-.08.51-.16-.4.11-.49.11-.32,0l.1,0c-.12-.09.21-.24.49-.37l-.47.08a1.66,1.66,0,0,1,.33-.09c-.71.08,0,.07-.82.18,1-.18,0-.22,1.1-.33,0,0-.55,0-.54,0l.3,0h-.38a3.85,3.85,0,0,1,.68-.06h.09c.35,0-.13-.06,0-.07l-.18,0c-.31-.09.12-.16-.46-.33l-.22,0c-.39-.15.25,0,.08-.15h.05c-.22-.06-.32-.12-.29-.14.25.08.5.07.78.17-.42-.19-.35-.12-1.12-.41l.36.08c-.31-.12-.48-.17-.55-.26.29.14.55.13.94.3.81.15-.71-.42.42-.08-.95-.4-.57-.1-.77-.2s-.71-.3-.59-.31,1.25.39,1.26.31.06,0,.06,0c.25.07-.31-.2.1-.07-.56-.27,0,0-.67-.37l.14.16c-.18-.12-1-.57-.54-.47.14.08.32.19.41.26s-.11-.11.12,0c.72.35.09.18.63.48.3.12-.48-.33.29.06-1-.5.17,0-.55-.44l.42.21c-.06,0-.25-.16-.23-.17l.53.31c-.44-.28.45.12.22,0,0,.09-.52-.25-.85-.36-.5-.42,1.14.51,1,.29.05,0-.28-.08-.46-.21a2.48,2.48,0,0,1,.5.19c0-.13-.43-.23-.67-.41.52.26-.18-.16-.32-.3l.42.25c.32.06-.85-.55-.46-.45l.54.39-.11-.14.46.3c-.31-.27-.21-.23,0-.2-.3-.17-.74-.47-.72-.53.26.12.37.26.36.16.24.18.55.4.16.19l.38.26c.3.14.12,0,.13-.07a.25.25,0,0,1-.11,0l-.5-.46a2.2,2.2,0,0,1,.39.27s-.21-.18-.22-.24a6.72,6.72,0,0,1,.79.59l-.31-.33c.15.09.42.22.53.31s-.56-.55-.25-.44a.83.83,0,0,1-.15-.14c.12,0,.56.21.18-.19l.6.37c-.08-.15-.76-.46-.9-.72s.51.32.68.41c-.26-.24-.8-.73-.29-.46C122.77,171.23,122.67,171.19,122.7,171.24Zm.35-1c.07.08.29.3.06.14C122.68,170,122.9,170.18,123,170.25Zm0-2c.12.1,0,.08-.12,0S123,168.21,123.07,168.26Zm-1.44-4.8h0C121.46,163.47,121.54,163.47,121.63,163.46Zm.21,0-.2,0c.12,0,.13,0,.09,0C121.86,163.45,121.94,163.45,121.84,163.43Zm-4.42,8.05.12,0C117.65,171.61,117.54,171.55,117.41,171.48Z" transform="translate(-116.59 -161.42)"/><path class="cls-1" d="M123.5,168.79l-.22-.14A.91.91,0,0,0,123.5,168.79Z" transform="translate(-116.59 -161.42)"/><polygon class="cls-1" points="5.97 10.44 5.96 10.44 6.03 10.49 5.97 10.44"/><path class="cls-1" d="M125.52,165.66a1.14,1.14,0,0,1-.25,0A.4.4,0,0,0,125.52,165.66Z" transform="translate(-116.59 -161.42)"/><path class="cls-1" d="M121,163.12l.12,0s.08,0,.16,0Z" transform="translate(-116.59 -161.42)"/><path class="cls-1" d="M124,162.63c-.06,0,0,0-.07,0l-.22,0A.37.37,0,0,0,124,162.63Z" transform="translate(-116.59 -161.42)"/><path class="cls-1" d="M122.64,163.09c.41,0,.27,0,.2-.07s0,0,0,0C122.27,163,122.45,163.06,122.64,163.09Z" transform="translate(-116.59 -161.42)"/><path class="cls-1" d="M122.82,163s0,0,0,0C122.59,163,122.77,163,122.82,163Z" transform="translate(-116.59 -161.42)"/><path class="cls-1" d="M121.57,163.33c.1,0-.52,0-.35,0C120.7,163.24,121.84,163.41,121.57,163.33Z" transform="translate(-116.59 -161.42)"/><polygon class="cls-1" points="7.39 1.64 6.88 1.65 7.29 1.68 7.39 1.64"/><path class="cls-1" d="M123.59,163.36l.14-.06-.17,0S123.44,163.36,123.59,163.36Z" transform="translate(-116.59 -161.42)"/><path class="cls-1" d="M123.56,163.28s0,0-.08-.05S123.5,163.26,123.56,163.28Z" transform="translate(-116.59 -161.42)"/><polygon class="cls-1" points="7.53 1.73 7.43 1.75 7.39 1.79 7.53 1.73"/><path class="cls-1" d="M123.44,164l.12.09c.17,0,.27,0,.21,0A1.26,1.26,0,0,0,123.44,164Z" transform="translate(-116.59 -161.42)"/><path class="cls-1" d="M124.83,164a2.8,2.8,0,0,1-.38,0l.61.09Z" transform="translate(-116.59 -161.42)"/><path class="cls-1" d="M124.93,164.26c.17,0,.46.21.44.1C125.21,164.32,125.09,164.21,124.93,164.26Z" transform="translate(-116.59 -161.42)"/><polygon class="cls-1" points="7.27 3.8 7.27 3.78 6.31 3.44 7.27 3.8"/><path class="cls-1" d="M125.65,167.22c.27,0-.55-.3-.23-.25-.2-.13-.26,0-.43-.16C125.18,167,125,166.95,125.65,167.22Z" transform="translate(-116.59 -161.42)"/><path class="cls-1" d="M125,166.81l-.12-.1Z" transform="translate(-116.59 -161.42)"/><polygon class="cls-1" points="0.29 14.99 0.12 15.16 0.42 14.97 0.29 14.99"/><path class="cls-1" d="M117.63,176.26l-.59.28.55-.2S117.5,176.34,117.63,176.26Z" transform="translate(-116.59 -161.42)"/><path class="cls-1" d="M124.19,170.91l-.12-.1c-.14-.09-.16-.09-.19-.09Z" transform="translate(-116.59 -161.42)"/><polygon class="cls-1" points="6.76 9.8 6.78 9.79 6.29 9.46 6.76 9.8"/><path class="cls-1" d="M123.62,172.12s-.06-.1,0-.11S123,171.69,123.62,172.12Z" transform="translate(-116.59 -161.42)"/><path class="cls-1" d="M131.14,183.35a4,4,0,0,0-.42.18A3.32,3.32,0,0,0,131.14,183.35Z" transform="translate(-116.59 -161.42)"/><polygon class="cls-1" points="15.51 21.84 15.35 21.89 15.76 21.79 15.51 21.84"/><path class="cls-1" d="M132.19,183.54c.67-.25-.15-.07.08-.2l.15-.06-.55.17C132,183.47,132.37,183.43,132.19,183.54Z" transform="translate(-116.59 -161.42)"/><path class="cls-1" d="M130.76,184.12c.26-.08.24,0,.07,0l-.07,0S130.78,184.1,130.76,184.12Z" transform="translate(-116.59 -161.42)"/><path class="cls-1" d="M130.77,184.09s-.22.08,0,0Z" transform="translate(-116.59 -161.42)"/><path class="cls-1" d="M131,184.15l-.25,0a2.56,2.56,0,0,1-.3.1A2.3,2.3,0,0,0,131,184.15Z" transform="translate(-116.59 -161.42)"/><path class="cls-1" d="M131.48,184h-.11C131.31,184.07,131.29,184.08,131.48,184Z" transform="translate(-116.59 -161.42)"/><path class="cls-1" d="M131.15,184.08l.23,0c.11,0,.33-.09-.08,0C131.5,184,131.3,184,131.15,184.08Z" transform="translate(-116.59 -161.42)"/><path class="cls-1" d="M131.24,184a1.48,1.48,0,0,1,.48-.14C131.6,183.84,131.12,184,131.24,184Z" transform="translate(-116.59 -161.42)"/><path class="cls-1" d="M132.9,183.33l.19-.1-.24,0C133,183.25,132.69,183.4,132.9,183.33Z" transform="translate(-116.59 -161.42)"/><path class="cls-1" d="M130.64,184.39l.59-.13-.17,0A3.09,3.09,0,0,1,130.64,184.39Z" transform="translate(-116.59 -161.42)"/><path class="cls-1" d="M131.22,184.26l.26,0S131.39,184.22,131.22,184.26Z" transform="translate(-116.59 -161.42)"/><polygon class="cls-1" points="15.66 22.43 15.11 22.51 15.67 22.44 15.66 22.43"/><polygon class="cls-1" points="14.04 23.07 13.69 23.12 14.22 23.05 14.04 23.07"/><path class="cls-1" d="M130.7,184.54l-.66.1.53,0C130.44,184.61,130.47,184.6,130.7,184.54Z" transform="translate(-116.59 -161.42)"/><path class="cls-1" d="M130.89,184.59l-.33,0Z" transform="translate(-116.59 -161.42)"/><path class="cls-1" d="M131.42,184.31c-.09,0-.33.07-.42.1l.42-.09Z" transform="translate(-116.59 -161.42)"/><path class="cls-1" d="M131.42,184.32h0l0,0Z" transform="translate(-116.59 -161.42)"/><path class="cls-1" d="M131.42,184.3h0S131.47,184.29,131.42,184.3Z" transform="translate(-116.59 -161.42)"/><path class="cls-1" d="M131.9,184a3.2,3.2,0,0,0,.84-.16C132.45,183.93,132.25,184,131.9,184Z" transform="translate(-116.59 -161.42)"/><path class="cls-1" d="M131.94,184.19l.09-.06-.39.08Z" transform="translate(-116.59 -161.42)"/><polygon class="cls-1" points="15.48 22.76 15.35 22.77 15.31 22.79 15.48 22.76"/><path class="cls-1" d="M131.28,184.49c.19,0,.2,0,.24,0s.12-.06.12-.08A1.42,1.42,0,0,0,131.28,184.49Z" transform="translate(-116.59 -161.42)"/><path class="cls-1" d="M131.39,184.4h0S131.46,184.39,131.39,184.4Z" transform="translate(-116.59 -161.42)"/><path class="cls-1" d="M131.55,184.7h0Z" transform="translate(-116.59 -161.42)"/><path class="cls-1" d="M131.71,184.42c.08,0,0,0-.16,0,0,0,.07,0,.08,0Z" transform="translate(-116.59 -161.42)"/><path class="cls-1" d="M131.1,184.62l.23,0C131.19,184.59,131,184.63,131.1,184.62Z" transform="translate(-116.59 -161.42)"/><path class="cls-1" d="M131.29,184.43h0C131.19,184.45,131.23,184.44,131.29,184.43Z" transform="translate(-116.59 -161.42)"/><path class="cls-1" d="M131.29,184.43l.26,0h-.14Z" transform="translate(-116.59 -161.42)"/><path class="cls-1" d="M134.3,184.64c-.4,0-.77,0-.36-.12a22.32,22.32,0,0,0-2.32.17,2.91,2.91,0,0,1,.57,0,4.13,4.13,0,0,1,.85-.11c.21.06-.13.06-.33.1.49-.05.72.06,1.44,0l-.25-.06A2.82,2.82,0,0,0,134.3,184.64Z" transform="translate(-116.59 -161.42)"/><path class="cls-1" d="M131.65,184.62h-.05a3.87,3.87,0,0,1-.53.09h.48l0-.08Z" transform="translate(-116.59 -161.42)"/><path class="cls-1" d="M131.59,184.54c.43,0,.62,0,1.08-.08,0-.05-.36,0-.55,0,.12.07-.24,0-.48.09l-.12,0-.19.06h.26a.33.33,0,0,1-.16,0h-.07l.25,0C131.66,184.59,131.64,184.57,131.59,184.54Z" transform="translate(-116.59 -161.42)"/><path class="cls-1" d="M133.65,183.74l-.1,0C133.61,183.76,133.64,183.76,133.65,183.74Z" transform="translate(-116.59 -161.42)"/><path class="cls-1" d="M133.41,183.84c-.06,0-.23,0-.19,0a1.91,1.91,0,0,1,.34-.07,1.35,1.35,0,0,0-.51.1h.06a4.37,4.37,0,0,1-.72.23C132.77,184,133,183.95,133.41,183.84Z" transform="translate(-116.59 -161.42)"/><path class="cls-1" d="M132.61,184.22l.22,0,.36-.09-.22,0C133.05,184.15,132.78,184.2,132.61,184.22Z" transform="translate(-116.59 -161.42)"/><polygon class="cls-1" points="14.74 23.3 14.29 23.32 14.94 23.32 14.74 23.3"/><polygon class="cls-1" points="14.81 23.37 14.41 23.38 14.65 23.39 14.81 23.37"/><path class="cls-1" d="M132.83,192.57l.07.09Z" transform="translate(-116.59 -161.42)"/><path class="cls-1" d="M133,192.42l-.15-.12A.69.69,0,0,0,133,192.42Z" transform="translate(-116.59 -161.42)"/><path class="cls-1" d="M131,186.64c-.35-.13-.88-.36-.48-.17l.39.19C130.83,186.61,130.89,186.61,131,186.64Z" transform="translate(-116.59 -161.42)"/><path class="cls-1" d="M132.16,189.65l.11.07-.32-.26Z" transform="translate(-116.59 -161.42)"/><path class="cls-1" d="M133.61,190.71l-.26-.11Z" transform="translate(-116.59 -161.42)"/><path class="cls-1" d="M132.57,193.7l.34.28S132.74,193.83,132.57,193.7Z" transform="translate(-116.59 -161.42)"/><path class="cls-1" d="M131.48,185.54a1,1,0,0,0-.27,0C131.46,185.57,131.83,185.62,131.48,185.54Z" transform="translate(-116.59 -161.42)"/><path class="cls-1" d="M129.19,189.74a1.17,1.17,0,0,0,.2.18A.93.93,0,0,0,129.19,189.74Z" transform="translate(-116.59 -161.42)"/><path class="cls-1" d="M131.19,185.6h.1c-.07,0-.12-.06-.09-.07C131,185.52,130.91,185.51,131.19,185.6Z" transform="translate(-116.59 -161.42)"/><path class="cls-1" d="M131.26,195.79h0Z" transform="translate(-116.59 -161.42)"/><path class="cls-1" d="M127.23,197.72s0,0-.05-.06S127.17,197.7,127.23,197.72Z" transform="translate(-116.59 -161.42)"/><path class="cls-1" d="M131.18,185.05s0,0,0,0Z" transform="translate(-116.59 -161.42)"/><path class="cls-1" d="M132.9,185l.21,0Z" transform="translate(-116.59 -161.42)"/><path class="cls-1" d="M133.76,186.48h0C133.84,186.5,133.82,186.49,133.76,186.48Z" transform="translate(-116.59 -161.42)"/><path class="cls-1" d="M131.38,185h0Z" transform="translate(-116.59 -161.42)"/><path class="cls-1" d="M131.18,185h0C131.15,185,131.1,185,131.18,185Z" transform="translate(-116.59 -161.42)"/><path class="cls-1" d="M131.21,185.07s0,0,0,0h-.07Z" transform="translate(-116.59 -161.42)"/><path class="cls-1" d="M130.45,194.29h0C130.56,194.37,130.54,194.35,130.45,194.29Z" transform="translate(-116.59 -161.42)"/><path class="cls-1" d="M134.61,189.37h0Z" transform="translate(-116.59 -161.42)"/><path class="cls-1" d="M134.83,189.64c-.44-.32-.37-.31-.25-.28l-1.1-.59Z" transform="translate(-116.59 -161.42)"/><path class="cls-1" d="M132.64,193l.35.18c.47.44.26.35.74.63-1.09-.81,0-.27-1.06-1.09l.25.14s0,.05,0,.05c.57.33-.75-.64-.53-.61a1,1,0,0,1,.39.25l-.22-.27s.22.14.19.15v-.17l0,0-.5-.48c.18.09.1.1.25.19l-.22-.26c.3.19.54.44.46.45,1.13.76-.24-.25.49.1l.1.16a3.63,3.63,0,0,0,.89.44A7.72,7.72,0,0,1,133,192c.1,0,.15,0,0-.15.39.29.32.18.33.13l.51.39a6.13,6.13,0,0,0-.59-.55,3.63,3.63,0,0,1,.84.51c.14,0-.68-.42-.7-.59.25.07.08-.14-.17-.45.21.08.31.24.47.33l-.38-.35a1.11,1.11,0,0,1,.2.14c-.13-.16-.51-.38-.61-.54-.56-.43.92.48.33-.06.16.09.31.24.52.38a6.61,6.61,0,0,0-.76-.8l.39.17a5.85,5.85,0,0,1-1.18-.95l-.46-.26-.22-.29a4.2,4.2,0,0,1,.47.35l-.11-.1a4.62,4.62,0,0,1,.78.56l-.35-.2c.3.25.64.52.95.73a.63.63,0,0,1-.12-.13l.21.16c.06,0-.05-.06-.17-.16l.6.39-.23-.17.45.12a13.09,13.09,0,0,1-1.5-1.48c.41.32.71.48,1.22.82-.57-.32.16.27,0,.27a1.17,1.17,0,0,1,.4.24l-.4-.47a1.18,1.18,0,0,0,.53.26c-.85-.53-.49-.47-.71-.69.28.18.56.38.45.4.68.33-.92-.74-.34-.46,0,0-.05,0,.09.1-.23-.2,0-.16.27,0v0c.18,0,.23-.35-.5-.8l1,.64q-1.17-.84-2.36-1.64a27.2,27.2,0,0,1,2.48,1.48c.11,0,.23,0,0-.15a8,8,0,0,1-1-.53,9.22,9.22,0,0,0,1.06.41,5.88,5.88,0,0,1-1.08-.65c.15.09,1,.53,1.09.61l-.93-.65a8.75,8.75,0,0,0,1.14.57c-.2-.09.08-.1,0-.18l-.26-.07c.23-.06-1.34-.84-1.23-.93a8.37,8.37,0,0,0,1.43.66c-.5-.29-2.44-1.33-2.82-1.59l.31.12-.32-.22a31.1,31.1,0,0,1,3,1.67c.26.05.36.15.37,0,.29.1.4.24.41.28l.27-.13c-.62-.26-.55-.43-1.07-.64l.55.5c-.61-.27-1.69-.9-1.54-1s1.09.48,1.3.57c-.21-.11-.35-.3-.2-.25l.31.19c.27,0-.78-.45-.14-.31.05,0,.85.2.48.06-.74-.21-3-1-3.5-1.26.05,0,.74.14,1.11.23.59.15,1.33.54,1.83.67a3.9,3.9,0,0,1-.44-.2c.16,0,.53.2.48.1-.64-.23.1-.13-.53-.22-.17-.13.15,0,.15-.13a11,11,0,0,1-1.59-.61l.49.12c.09-.11.41-.1.44-.23a3.09,3.09,0,0,1,.65.1c-.11,0-.33-.11-.34-.15.6,0,.07.11.78.2a2.86,2.86,0,0,1-.74-.33c-.61-.1-.15.1.08.22a12.76,12.76,0,0,1-2-.61c-.19-.11.55.06.43,0,.19-.14-1.44-.34-.83-.36s1.06.12,1.45.15c.2.1-.34.08-.33.13l.26,0c.18,0,.31.12.15.13.48,0,.11-.3.56-.41a2.14,2.14,0,0,0-.58-.09l.07,0c-.43,0-.59-.12-.8-.08s-.78-.14-.53-.19h.61c-.18,0-.37,0-.18.06-.27,0,.84-.1,0-.14l-.43,0c-.3-.05-1-.09-.75-.14-.61,0,.07,0-.64.05.88,0,0,.1.88.07-.82,0-.35.06-1.06.07.2,0,.39,0,.29,0l.18,0h.33a3,3,0,0,1,.68.15c-.1,0-.23,0-.45,0l.36.06a5.9,5.9,0,0,1-1-.08l0,0c-.25,0-.35,0-.16.06-.1,0,.49.12.14.05l.26.11-.11,0c-.07.05.68.31-.13.22.1,0,.23.11.1.12l-.38-.09c.12.07-.39,0,0,.1-1-.27-.23.06-.45.06l.48.17s.07.11.24.24l.42.16c.32.18-.35,0-.33.09-.16-.07-.11-.07,0,0-1-.32.6.48-.11.26.14.09.08.08,0,0l0,0h0l-.23-.08.23.08s0,.07.12.14l-.44-.21h0c-.17-.06.19.12.52.27l.24.16c-.7-.33.2.19-.56-.17a7.9,7.9,0,0,0,.94.68c-.1-.05-.15-.07-.15-.09s-.2,0,0,.11l-.54-.29.68.47a4.17,4.17,0,0,1-.93-.51c.58.45.2.21.77.65l-.34-.21s.43.36.14.2c-.68-.33-.3.26-1,0,1,.61-.48-.22.26.29a3.67,3.67,0,0,1-.56-.37c.17.23-.44-.13.15.36-.23-.15-.32-.25-.46-.33,0,0,.18.16,0,.08a1.56,1.56,0,0,1-.27-.22,6.64,6.64,0,0,0,1.33,1.06c-.34-.17-.31-.12.09.21-.22-.14-.46-.27-.5-.38s-.44,0,.07.33c-.14-.09-.07,0,0,.07s-.13,0-.13.12l.1,0c.6.48.1.16.13.26l-.06,0c-.54-.21.18.21-.42,0l.39.28c.82.63-.56-.26-.3.05l.24.14c.25.25-1.2-.73-1.34-.77a.52.52,0,0,1-.15-.15c-.56-.26.49.39.55.55a4.59,4.59,0,0,0-.76-.52c-.24-.14.77.81.19.49a2.66,2.66,0,0,1,.57.44c0,.11-.9-.44-.28.1l-.17-.11a2.82,2.82,0,0,0,.52.64c-1.36-.95.45.75-.78-.16l0,.19-.12-.1c-.15,0,.13.27.4.52a1.34,1.34,0,0,1-.27-.19c-.34-.05-.3,0,.24.55l-.41-.27c.22.19-.77-.25-.39.22l-.17-.14c.39.47-1.41-.36.08.67l.31.34c.2-.05.65.43.94.54.06.1-.54-.16-.58-.27l.08,0c-.79-.51-.39,0-.93-.35-.11.31-.73.35-.92.63l.68.28-.09.08c-.17,0-.54-.21-.47-.26-.4-.14.25.26.4.33-.33,0-.75-.41-.79-.37l0,.09.08,0c.25.18.54.31.47.39a3.3,3.3,0,0,1-.46-.13s-.07,0,0,0l-.11.13.56.15c.24.16-.08.12.56.29-1-.26-.52.38-.84.34.37.2.35.28.28.38.12,0,.76.14.66.2-1.3-.32-.6,0-1.56,0,.64,0,.11.33,1,.34-.12.07-.5-.07-.82,0,.49.26-.42.44-.22.75a3.37,3.37,0,0,1,.71,0l-.87.15c.09.06,1,0,.41.14a1.25,1.25,0,0,1,.43,0c-.41.28-.22.55-.1.78s.2.44-.47,1c.3-.18.35-.14.38-.09a4.93,4.93,0,0,1,.63-.22l-.55.43c.63-.2.12.21.71,0l-.13,0c.71-.22,1.5-.74,2.4-1.07-.81.24,1.15-.54,0-.22.18-.07.3-.08.51-.16-.4.11-.49.11-.32,0l.1,0c-.12-.09.21-.24.49-.37l-.47.08a1.66,1.66,0,0,1,.33-.09c-.71.08,0,.07-.82.18,1-.18,0-.22,1.1-.33,0,0-.55,0-.54,0l.3,0h-.38a3.85,3.85,0,0,1,.68-.06h.09c.35,0-.13-.06,0-.07l-.18,0c-.31-.09.12-.16-.46-.33l-.22,0c-.39-.15.25,0,.08-.15h.05c-.22-.06-.32-.12-.29-.14.25.08.5.07.78.17-.42-.19-.35-.12-1.12-.41l.36.08c-.31-.12-.48-.17-.55-.26.29.14.55.13.94.3.81.15-.71-.42.42-.08-.95-.4-.57-.1-.77-.2s-.71-.3-.59-.31,1.25.39,1.26.31.06,0,.06,0c.25.07-.31-.2.1-.07-.56-.27,0,0-.67-.37l.14.16c-.18-.12-1-.57-.54-.47.14.08.32.19.41.26s-.11-.11.12,0c.72.35.09.18.63.48.3.12-.48-.33.29.06-1-.5.17,0-.55-.44l.42.21c-.06,0-.25-.16-.23-.17l.53.31c-.44-.28.45.12.22,0,0,.09-.52-.25-.85-.36-.5-.42,1.14.51,1,.29.05,0-.28-.08-.46-.21a2.48,2.48,0,0,1,.5.19c0-.13-.43-.23-.67-.41.52.26-.18-.16-.32-.3l.42.25c.32.06-.85-.55-.46-.45l.54.39-.11-.14.46.3c-.31-.27-.21-.23,0-.2-.3-.17-.74-.47-.72-.53.26.12.37.26.36.16.24.18.55.4.16.19l.38.26c.3.14.12,0,.13-.07a.25.25,0,0,1-.11,0l-.5-.46a2.2,2.2,0,0,1,.39.27s-.21-.18-.22-.24a6.72,6.72,0,0,1,.79.59l-.31-.33c.15.09.42.22.53.31s-.56-.55-.25-.44a.83.83,0,0,1-.15-.14c.12,0,.56.21.18-.19l.6.37c-.08-.15-.76-.46-.9-.72s.51.32.68.41c-.26-.24-.8-.73-.29-.46C132.71,193,132.62,193,132.64,193Zm.35-1c.07.08.29.3.06.14C132.62,191.82,132.85,192,133,192Zm0-2c.12.1,0,.08-.12,0S132.89,190,133,190.05Zm-1.44-4.8h0C131.41,185.26,131.48,185.26,131.57,185.25Zm.21,0-.2,0c.12,0,.13,0,.1,0C131.8,185.24,131.89,185.24,131.78,185.22Zm-4.42,8.05.12,0C127.59,193.4,127.48,193.34,127.36,193.27Z" transform="translate(-116.59 -161.42)"/><path class="cls-1" d="M133.44,190.58l-.22-.14A.91.91,0,0,0,133.44,190.58Z" transform="translate(-116.59 -161.42)"/><polygon class="cls-1" points="15.91 32.23 15.91 32.23 15.98 32.28 15.91 32.23"/><path class="cls-1" d="M135.46,187.45a1.14,1.14,0,0,1-.25,0A.4.4,0,0,0,135.46,187.45Z" transform="translate(-116.59 -161.42)"/><path class="cls-1" d="M131,184.91l.12,0s.08,0,.16,0Z" transform="translate(-116.59 -161.42)"/><path class="cls-1" d="M133.94,184.42c-.06,0,0,0-.07,0l-.22,0A.37.37,0,0,0,133.94,184.42Z" transform="translate(-116.59 -161.42)"/><path class="cls-1" d="M132.58,184.88c.41,0,.27,0,.2-.07s0,0,0,0C132.21,184.82,132.4,184.85,132.58,184.88Z" transform="translate(-116.59 -161.42)"/><path class="cls-1" d="M132.77,184.81s0,0,0,0C132.53,184.78,132.71,184.79,132.77,184.81Z" transform="translate(-116.59 -161.42)"/><path class="cls-1" d="M131.51,185.12c.1,0-.52,0-.35,0C130.65,185,131.78,185.2,131.51,185.12Z" transform="translate(-116.59 -161.42)"/><polygon class="cls-1" points="17.33 23.43 16.83 23.44 17.23 23.46 17.33 23.43"/><path class="cls-1" d="M133.54,185.15l.14-.06-.17,0S133.39,185.15,133.54,185.15Z" transform="translate(-116.59 -161.42)"/><path class="cls-1" d="M133.51,185.07s0,0-.08-.05S133.45,185.05,133.51,185.07Z" transform="translate(-116.59 -161.42)"/><polygon class="cls-1" points="17.48 23.52 17.37 23.54 17.33 23.58 17.48 23.52"/><path class="cls-1" d="M133.38,185.8l.12.09c.17,0,.27,0,.21,0A1.26,1.26,0,0,0,133.38,185.8Z" transform="translate(-116.59 -161.42)"/><path class="cls-1" d="M134.78,185.79a2.81,2.81,0,0,1-.38,0l.61.09Z" transform="translate(-116.59 -161.42)"/><path class="cls-1" d="M134.87,186.05c.17,0,.46.21.44.1C135.15,186.11,135,186,134.87,186.05Z" transform="translate(-116.59 -161.42)"/><polygon class="cls-1" points="17.21 25.59 17.21 25.57 16.25 25.23 17.21 25.59"/><path class="cls-1" d="M135.59,189c.27,0-.55-.3-.23-.25-.2-.13-.26,0-.43-.16C135.13,188.77,135,188.74,135.59,189Z" transform="translate(-116.59 -161.42)"/><path class="cls-1" d="M134.93,188.6l-.12-.1Z" transform="translate(-116.59 -161.42)"/><polygon class="cls-1" points="10.23 36.78 10.07 36.95 10.36 36.76 10.23 36.78"/><path class="cls-1" d="M127.57,198.05l-.59.28.55-.2S127.44,198.12,127.57,198.05Z" transform="translate(-116.59 -161.42)"/><path class="cls-1" d="M134.13,192.7l-.12-.1c-.14-.09-.16-.09-.19-.09Z" transform="translate(-116.59 -161.42)"/><polygon class="cls-1" points="16.7 31.59 16.72 31.58 16.24 31.25 16.7 31.59"/><path class="cls-1" d="M133.56,193.91s-.06-.1,0-.11S133,193.48,133.56,193.91Z" transform="translate(-116.59 -161.42)"/><path class="cls-1" d="M135.55,181.29s.36-.14.43-.17A1.43,1.43,0,0,0,135.55,181.29Z" transform="translate(-116.59 -161.42)"/><polygon class="cls-1" points="17.86 19.84 18.01 19.77 17.61 19.9 17.86 19.84"/><path class="cls-1" d="M134.22,180.85c-.59.4.18.08,0,.28l-.14.09.52-.25C134.48,180.93,134.09,181,134.22,180.85Z" transform="translate(-116.59 -161.42)"/><path class="cls-1" d="M135.4,179.8c-.22.17-.23.08,0,.11l.05,0S135.39,179.84,135.4,179.8Z" transform="translate(-116.59 -161.42)"/><path class="cls-1" d="M135.41,179.86s.18-.16,0,0Z" transform="translate(-116.59 -161.42)"/><path class="cls-1" d="M135.14,179.72l.24-.07c.13-.1.12-.18.24-.23C135.47,179.42,135.34,179.53,135.14,179.72Z" transform="translate(-116.59 -161.42)"/><path class="cls-1" d="M134.68,180l.11,0C134.84,179.88,134.85,179.86,134.68,180Z" transform="translate(-116.59 -161.42)"/><path class="cls-1" d="M135,179.87l-.22.06c-.09.07-.28.2.08,0C134.69,180,134.87,179.92,135,179.87Z" transform="translate(-116.59 -161.42)"/><path class="cls-1" d="M134.94,180a.75.75,0,0,1-.41.29C134.68,180.32,135.1,180,134.94,180Z" transform="translate(-116.59 -161.42)"/><path class="cls-1" d="M133.58,181.22l-.16.15.22-.09C133.54,181.32,133.77,181.1,133.58,181.22Z" transform="translate(-116.59 -161.42)"/><path class="cls-1" d="M135.16,179.11c-.12.09-.31.27-.46.39l.18-.06A1.22,1.22,0,0,1,135.16,179.11Z" transform="translate(-116.59 -161.42)"/><path class="cls-1" d="M134.7,179.5l-.26.09C134.46,179.67,134.57,179.6,134.7,179.5Z" transform="translate(-116.59 -161.42)"/><polygon class="cls-1" points="17.43 18.98 17.94 18.77 17.41 18.96 17.43 18.98"/><polygon class="cls-1" points="18.36 17.41 18.66 17.23 18.19 17.5 18.36 17.41"/><path class="cls-1" d="M134.75,178.7c.25-.16.34-.36.5-.45a1.33,1.33,0,0,0-.51.22C134.87,178.42,134.88,178.49,134.75,178.7Z" transform="translate(-116.59 -161.42)"/><path class="cls-1" d="M134.45,178.63l.3-.16A1.44,1.44,0,0,0,134.45,178.63Z" transform="translate(-116.59 -161.42)"/><path class="cls-1" d="M134.41,179.44a1.54,1.54,0,0,0,.29-.32l-.31.29Z" transform="translate(-116.59 -161.42)"/><path class="cls-1" d="M134.38,179.42h0l0-.07Z" transform="translate(-116.59 -161.42)"/><path class="cls-1" d="M134.41,179.44h0S134.37,179.48,134.41,179.44Z" transform="translate(-116.59 -161.42)"/><path class="cls-1" d="M134.22,180a1.79,1.79,0,0,0-.72.47A7.27,7.27,0,0,1,134.22,180Z" transform="translate(-116.59 -161.42)"/><path class="cls-1" d="M134,179.81l0,.12a2.13,2.13,0,0,1,.32-.24Z" transform="translate(-116.59 -161.42)"/><polygon class="cls-1" points="17.29 18.44 17.43 18.39 17.43 18.34 17.29 18.44"/><path class="cls-1" d="M134.25,179c-.16.09-.2.07-.26.06s0,.16,0,.2S134.3,179,134.25,179Z" transform="translate(-116.59 -161.42)"/><path class="cls-1" d="M134.29,179.24h0S134.23,179.28,134.29,179.24Z" transform="translate(-116.59 -161.42)"/><path class="cls-1" d="M133.7,178.73l0,.06.05-.05Z" transform="translate(-116.59 -161.42)"/><path class="cls-1" d="M133.95,179.33c0,.08.05,0,.17,0a.14.14,0,0,1-.11,0S133.92,179.34,133.95,179.33Z" transform="translate(-116.59 -161.42)"/><path class="cls-1" d="M134.21,178.66l-.13.21C134.17,178.77,134.3,178.59,134.21,178.66Z" transform="translate(-116.59 -161.42)"/><path class="cls-1" d="M134.35,179.16h0C134.43,179.08,134.39,179.11,134.35,179.16Z" transform="translate(-116.59 -161.42)"/><path class="cls-1" d="M134.35,179.16l-.23.13.15,0Z" transform="translate(-116.59 -161.42)"/><path class="cls-1" d="M131.72,180.62c.27-.29.58-.49.32-.14a13.66,13.66,0,0,0,1.61-1.69,1.62,1.62,0,0,1-.45.34,2.28,2.28,0,0,1-.53.7c-.2.08,0-.16.16-.34-.31.38-.58.44-1.06,1l.23-.14A3,3,0,0,0,131.72,180.62Z" transform="translate(-116.59 -161.42)"/><path class="cls-1" d="M133.73,178.94h.06a2.56,2.56,0,0,1,.3-.47,1.52,1.52,0,0,0-.38.28l.08.17Z" transform="translate(-116.59 -161.42)"/><path class="cls-1" d="M133.89,179a4.82,4.82,0,0,0-.82.7c.08,0,.3-.2.48-.28-.18,0,.21-.13.31-.38a.21.21,0,0,1,.14,0,1.27,1.27,0,0,1,.09-.2l0,0h0s-.06.07,0,0h0l-.12.11c0-.1.08-.08.12-.11l0,0h0l-.28,0C133.77,179,133.8,179,133.89,179Z" transform="translate(-116.59 -161.42)"/><path class="cls-1" d="M132.71,181l.08-.06S132.71,181,132.71,181Z" transform="translate(-116.59 -161.42)"/><path class="cls-1" d="M132.88,180.79c.05,0,.2-.13.18-.08a1.62,1.62,0,0,1-.28.21,1.16,1.16,0,0,0,.42-.31l-.05,0a4.18,4.18,0,0,1,.51-.55C133.37,180.35,133.16,180.53,132.88,180.79Z" transform="translate(-116.59 -161.42)"/><path class="cls-1" d="M133.33,180l-.24,0-.24.29.17-.15C133,180.32,133.19,180.13,133.33,180Z" transform="translate(-116.59 -161.42)"/><polygon class="cls-1" points="17.24 17.15 17.57 16.84 17.07 17.23 17.24 17.15"/><polygon class="cls-1" points="17.07 17.05 17.35 16.77 17.15 16.91 17.07 17.05"/><path class="cls-1" d="M124.93,180.74l0,.11A.54.54,0,0,0,124.93,180.74Z" transform="translate(-116.59 -161.42)"/><path class="cls-1" d="M125.14,180.78l0-.19A.69.69,0,0,0,125.14,180.78Z" transform="translate(-116.59 -161.42)"/><path class="cls-1" d="M129.8,176.47c0-.37.12-.94,0-.5l-.09.42C129.78,176.32,129.8,176.37,129.8,176.47Z" transform="translate(-116.59 -161.42)"/><path class="cls-1" d="M127,178.62v.13l.07-.41Z" transform="translate(-116.59 -161.42)"/><path class="cls-1" d="M126.82,180.4l0-.28A2,2,0,0,0,126.82,180.4Z" transform="translate(-116.59 -161.42)"/><path class="cls-1" d="M123.66,181.1l-.08.44C123.64,181.54,123.63,181.31,123.66,181.1Z" transform="translate(-116.59 -161.42)"/><path class="cls-1" d="M132,177.5c0-.17,0-.25,0-.29C132,177.46,131.85,177.8,132,177.5Z" transform="translate(-116.59 -161.42)"/><path class="cls-1" d="M125.34,176.16a1.18,1.18,0,0,0,0,.26A.93.93,0,0,0,125.34,176.16Z" transform="translate(-116.59 -161.42)"/><path class="cls-1" d="M131.92,177.14l0,.1c.07,0,.13-.08.16,0C132.1,177,132.11,176.9,131.92,177.14Z" transform="translate(-116.59 -161.42)"/><path class="cls-1" d="M118.41,178.68l0,0S118.4,178.68,118.41,178.68Z" transform="translate(-116.59 -161.42)"/><path class="cls-1" d="M121,175a0,0,0,0,1,0,0S121.09,175,121,175Z" transform="translate(-116.59 -161.42)"/><path class="cls-1" d="M133.19,177.85s0,0,0,0Z" transform="translate(-116.59 -161.42)"/><path class="cls-1" d="M132.27,179.31l-.14.16Z" transform="translate(-116.59 -161.42)"/><path class="cls-1" d="M130.42,179.41h0C130.39,179.49,130.4,179.47,130.42,179.41Z" transform="translate(-116.59 -161.42)"/><path class="cls-1" d="M133.12,178a.52.52,0,0,0,0-.13A.63.63,0,0,0,133.12,178Z" transform="translate(-116.59 -161.42)"/><path class="cls-1" d="M133.24,177.88v.05C133.29,177.88,133.31,177.84,133.24,177.88Z" transform="translate(-116.59 -161.42)"/><path class="cls-1" d="M133.13,177.83s0,0,0,.08l0-.06Z" transform="translate(-116.59 -161.42)"/><path class="cls-1" d="M121.69,179.2v0C121.61,179.33,121.63,179.3,121.69,179.2Z" transform="translate(-116.59 -161.42)"/><path class="cls-1" d="M128.09,180.71v0Z" transform="translate(-116.59 -161.42)"/><path class="cls-1" d="M127.95,181c.13-.52.14-.45.14-.34l.21-1.23Z" transform="translate(-116.59 -161.42)"/><path class="cls-1" d="M124.39,180.82l0,.39c-.14.63-.19.41-.17,1,.12-1.35.31-.11.42-1.47l0,.29s0,.07,0,.05c0,.66.14-1,.24-.77a1,1,0,0,1,0,.46l.11-.33s0,.26,0,.24l.14-.1v0l.13-.68c0,.2,0,.14,0,.31l.1-.32c0,.35-.08.69-.13.64,0,1.36.09-.34.18.46l-.08.17a3.6,3.6,0,0,0,.11,1,7.69,7.69,0,0,1,0-1.55c0,.1,0,.15.11-.12,0,.48,0,.37.07.34l0,.64a6.12,6.12,0,0,0,.14-.79,3.62,3.62,0,0,1,0,1c.09.11,0-.8.11-.91.06.25.14,0,.26-.38a3.09,3.09,0,0,1,0,.57l.09-.5a1.24,1.24,0,0,1,0,.25,8.07,8.07,0,0,1,.14-.8c.08-.7.05,1,.2.25,0,.18,0,.39-.06.64a8.57,8.57,0,0,0,.29-1.07l0,.42a6,6,0,0,1,.23-1.5v-.53l.15-.33a4.13,4.13,0,0,1-.08.59l0-.15a4.67,4.67,0,0,1-.11,1v-.4c-.07.38-.13.81-.16,1.18a.68.68,0,0,1,.05-.17,2.62,2.62,0,0,0,0,.26c0,.07,0-.07.06-.23l0,.71,0-.28.08.46a9.47,9.47,0,0,1,.57-2c-.11.51-.12.85-.2,1.46,0-.66-.15.26-.21.12a1.44,1.44,0,0,1,0,.47l.21-.57a1.51,1.51,0,0,0,0,.59c.1-1,.19-.65.29-.95,0,.33-.11.67-.16.58,0,.76.26-1.15.24-.51,0,0,0,0-.05.12.08-.29.14,0,.08.24h0c.1.13.32.06.49-.77l-.23,1.17q.34-1.39.73-2.77c-.16.71-.44,2.43-.6,2.82,0,.11,0,.23.11,0a10.85,10.85,0,0,1,.21-1.1c-.1.81,0,.44-.11,1.13a6.84,6.84,0,0,1,.31-1.23c0,.17-.24,1.1-.28,1.22l.35-1.08a12,12,0,0,0-.27,1.24c0-.22.08,0,.13-.07l0-.26c.06.19.49-1.51.61-1.43a12.06,12.06,0,0,0-.39,1.52,21.73,21.73,0,0,1,1.12-3l-.07.32.21-.33c-.34.8-1,2.5-1.25,3.16,0,.26-.1.38,0,.37a1.18,1.18,0,0,1-.17.45l0,.23c.19-.65.28-.61.45-1.15l-.34.62c.18-.65.64-1.8.71-1.65s-.4,1.13-.46,1.34c.08-.22.22-.39.18-.23l-.15.33c0,.25.37-.81.22-.19,0,0-.25.83-.1.46.24-.73,1.06-3,1.29-3.48a8.25,8.25,0,0,1-.22,1.1c-.19.57-.59,1.31-.75,1.8.07-.17.17-.37.21-.44,0,.15-.22.52-.14.46.27-.63.07.1.24-.52.12-.16,0,.15.06.15a7.84,7.84,0,0,1,.81-1.49c-.08.16-.16.37-.2.46s0,.42.1.48a3.4,3.4,0,0,1-.28.6c.07-.1.19-.3.23-.3-.23.54-.11,0-.41.69a3,3,0,0,1,.5-.64c.3-.53,0-.15-.2,0a6.64,6.64,0,0,1,1.25-1.74c.21-.12-.24.49-.16.4.1.22,1-1.14.78-.51a12.27,12.27,0,0,1-.81,1.21c-.18.12.09-.36,0-.38l-.08.26c-.12.13-.24.21-.18.06-.22.44.2.27,0,.72a2.54,2.54,0,0,0,.39-.43l-.08,0c.22-.37.44-.42.51-.62.24-.2.61-.52.54-.26l-.38.48c.11-.14.18-.32,0-.2.21-.18-.41.73.14.15l.22-.37c.26-.19.77-.61.72-.4.37-.48-.06,0,.35-.54-.53.7-.2-.21-.72.56.47-.68.12-.35.48-1-.12.16-.21.33-.22.19l-.13.13v0s0,0,0,0a1.67,1.67,0,0,1-.15.27c-.32.34-.42.24-.6.41,0-.11.15-.17.26-.36l-.27.25c.26-.37.32-.69.58-.83l-.08-.09c.09-.25.06-.39-.09-.27,0-.12-.38.33-.15.07l-.3.14.06-.1c-.13-.14-.67.48-.46-.32-.11.07-.22.17-.25,0l.16-.36c-.13.09,0-.46-.25-.11.35-1-.26-.39-.31-.59l-.19.47c-.07-.06-.2.05-.37.21l-.15.42c-.2.32-.1-.37-.26-.37.06-.16.08-.11.07,0,.14-1-.55.59-.48-.16-.08.15-.09.08-.09,0l0,0h0v-.24a2.14,2.14,0,0,0,0,.24s-.08,0-.15.15l.1-.47h0c0-.18-.09.21-.16.57a2.24,2.24,0,0,0-.12.27c.15-.76-.16.23,0-.58-.12.39-.27.25-.47,1.08,0-.11,0-.16,0-.16s0-.21-.13,0l.11-.6-.26.79a3.27,3.27,0,0,1,.18-1c-.28.68-.17.24-.41.93l.08-.39s-.2.52-.17.19c0-.76-.42-.16-.55-.89-.1,1.16,0-.53-.16.36a2.93,2.93,0,0,1,.07-.67c-.15.25-.13-.46-.3.29,0-.28.07-.4.08-.56,0,.06-.06.23-.06.07a1.11,1.11,0,0,1,.08-.34,4.61,4.61,0,0,0-.32,1.67c0-.38-.05-.33-.15.19,0-.26,0-.54.08-.62s-.21-.4-.27.23c0-.16-.05-.05-.07,0s-.09-.1-.18-.05l0,.11c-.1.77-.09.17-.16.25v-.08c-.12-.57-.09.26-.2-.39l0,.48c-.09,1-.1-.62-.22-.23v.28c-.07.35,0-1.41-.08-1.54a.53.53,0,0,1,0-.21c-.09-.62-.06.63-.17.76a4.6,4.6,0,0,0,0-.93c0-.28-.26,1.08-.31.43a2.67,2.67,0,0,1-.06.72c-.07.09-.11-1-.23-.18a1.77,1.77,0,0,1,0-.2,2.84,2.84,0,0,0-.26.78c.08-1.66-.37.78-.25-.75l-.16.07,0-.15c-.09-.11-.15.25-.22.62a1.47,1.47,0,0,1,0-.33c-.11-.32-.13-.25-.33.49l0-.49c-.07.29-.11-.8-.3-.24a2.1,2.1,0,0,1,0-.22c-.23.56-.13-1.41-.45.37l-.17.43c.11.16-.14.77-.14,1.07-.07.1-.05-.56,0-.64v.09c.18-.93-.11-.35,0-1-.23,0-.33-.57-.5-.64l-.17.71-.06-.06c0-.17.13-.56.17-.52.09-.4-.18.32-.23.47a4,4,0,0,1,.25-.83l0,0,0,.08c-.11.28-.21.58-.25.52s.13-.43.12-.47,0-.07,0,0l0-.08-.17.55c-.13.25-.06-.06-.25.57.3-1-.17-.45-.08-.75-.23.37-.27.33-.3.25,0,.11-.33.7-.35.59.66-1.17.19-.57.66-1.41-.3.56-.18.07-.63.86,0-.11.27-.42.42-.7-.37.38,0-.35-.11-.28s-.28.35-.47.53q.27-.36.55-.69c-.07.05-.7.73-.31.26a3,3,0,0,1-.3.31c.22-.39,0-.31-.11-.35s-.18-.19.47-.67c-.28.19-.32.2-.34.19s-.38.22-.58.34l.53-.4c-.59.29-.09-.06-.67.21l.12,0c-.7.28-1.45.8-2.3,1.25.79-.34-1,.84.17.37-.15.13-.28.14-.46.27.37-.18.47-.19.36,0l-.09,0c.23.16-.08.5-.06.92l.35-.32c0,.09-.11.19-.17.3.6-.41-.1-.16.56-.62-.68.69.29.32-.45,1.13.07.08.36-.41.43-.33l-.19.23.28-.26a1.8,1.8,0,0,1-.39.57s-.08,0-.11,0c-.17.33.28.1.23.21l0-.21c.38,0,.46.51,1,.16l.1-.2c.38-.25,0,.29.29.24l0,0c.15-.17.25-.24.28-.19-.17.2-.15.5-.34.72.4-.29.26-.24.74-.94l-.13.35c.18-.29.26-.45.38-.5-.2.26-.17.54-.43.89-.11.83.6-.65.26.49.45-.93,0-.6.17-.78s.35-.69.37-.57-.36,1.27-.18,1.31c0,0,0,.06-.06.05,0,.27.23-.29.18.14.22-.58.09.07.32-.69l-.19.13c.15-.16.47-1,.47-.58a3.36,3.36,0,0,1-.2.45c0,.23.11-.13.09.11-.22.76-.21.13-.48.68,0,.34.33-.5,0,.31.36-1,.13.17.45-.61l-.13.46c0-.07.13-.28.15-.26l-.21.58c.22-.49.06.49.22.23-.19,0,.09-.57.1-.92.35-.57-.16,1.24.15,1.07,0,.06-.07-.31,0-.51a1.82,1.82,0,0,1,0,.55c.19-.06.07-.48.2-.75-.06.58.13-.21.22-.38l-.09.47c.13.34.22-1,.31-.59l-.17.65.11-.16-.11.54c.16-.39.16-.28.23-.12,0-.34.14-.86.22-.87,0,.29-.1.45,0,.4-.07.3-.15.67-.13.22l-.1.45c0,.33.13.09.17.1a.19.19,0,0,1,0-.12l.25-.64a1.62,1.62,0,0,1-.08.46s.09-.26.14-.3a4.24,4.24,0,0,1-.2,1l.21-.41a4.73,4.73,0,0,1,0,.62c.06.24.3-.73.37-.41a.74.74,0,0,1,.06-.2c.09.1.13.58.29.06v.71c.1-.15,0-.89.17-1.14s0,.6,0,.8c.08-.35.23-1.06.28-.48C124.44,180.88,124.42,180.78,124.39,180.82Zm1.08-.23c0,.1-.09.41-.08.12C125.45,180.17,125.45,180.43,125.47,180.59Zm1.61-1c0,.16,0,.08,0-.11S127.06,179.43,127.07,179.56Zm5.54-1.65,0,0C132.65,177.73,132.63,177.8,132.61,177.9Zm0,.25a.74.74,0,0,0,.12-.16c-.08.09-.11.08-.11,0C132.54,178.14,132.5,178.22,132.6,178.15ZM122.39,176l0,.12C122.29,176.26,122.34,176.14,122.39,176Z" transform="translate(-116.59 -161.42)"/><path class="cls-1" d="M126.84,180.2l0-.26A1,1,0,0,0,126.84,180.2Z" transform="translate(-116.59 -161.42)"/><polygon class="cls-1" points="7.09 19.6 7.08 19.59 7.07 19.68 7.09 19.6"/><path class="cls-1" d="M129.38,181a1.9,1.9,0,0,1,.07-.24A.61.61,0,0,0,129.38,181Z" transform="translate(-116.59 -161.42)"/><path class="cls-1" d="M133.66,177.95l-.15,0s0,.1,0,.17C133.54,178.07,133.64,177.93,133.66,177.95Z" transform="translate(-116.59 -161.42)"/><path class="cls-1" d="M132.09,180.56s0,0,.07,0l.16-.16S132.14,180.47,132.09,180.56Z" transform="translate(-116.59 -161.42)"/><path class="cls-1" d="M132.68,179.21c-.26.31-.14.23,0,.21h0C133,179,132.84,179.1,132.68,179.21Z" transform="translate(-116.59 -161.42)"/><path class="cls-1" d="M132.65,179.41s0,0,0,0C132.85,179.27,132.71,179.39,132.65,179.41Z" transform="translate(-116.59 -161.42)"/><path class="cls-1" d="M132.88,178c0,.1.32-.4.24-.26C133.46,177.38,132.6,178.16,132.88,178Z" transform="translate(-116.59 -161.42)"/><polygon class="cls-1" points="15.23 18.82 15.55 18.43 15.27 18.72 15.23 18.82"/><path class="cls-1" d="M131.79,179.75l0,.15a.55.55,0,0,1,.12-.12S131.88,179.63,131.79,179.75Z" transform="translate(-116.59 -161.42)"/><path class="cls-1" d="M131.88,179.78s0,0,.1,0A.12.12,0,0,0,131.88,179.78Z" transform="translate(-116.59 -161.42)"/><polygon class="cls-1" points="15.06 18.88 15.12 18.79 15.1 18.73 15.06 18.88"/><path class="cls-1" d="M131.22,179.22l-.14.09c-.09.15-.13.25-.07.2A1.29,1.29,0,0,0,131.22,179.22Z" transform="translate(-116.59 -161.42)"/><path class="cls-1" d="M130.68,180.49c0-.1.1-.19.18-.34l-.34.52Z" transform="translate(-116.59 -161.42)"/><path class="cls-1" d="M130.45,180.53c-.1.14-.33.39-.24.39S130.43,180.68,130.45,180.53Z" transform="translate(-116.59 -161.42)"/><polygon class="cls-1" points="13.33 17.98 13.35 17.98 13.71 17.03 13.33 17.98"/><path class="cls-1" d="M128.43,181.48c0,.25.17-.61.16-.3.08-.23,0-.25.08-.45A2,2,0,0,0,128.43,181.48Z" transform="translate(-116.59 -161.42)"/><path class="cls-1" d="M128.67,180.73l.06-.15Z" transform="translate(-116.59 -161.42)"/><polygon class="cls-1" points="4.87 13.24 5.04 13.13 4.75 13.29 4.87 13.24"/><path class="cls-1" d="M120.75,174.94l.58-.28-.54.23S120.88,174.87,120.75,174.94Z" transform="translate(-116.59 -161.42)"/><path class="cls-1" d="M125.53,181.91l0-.16c0-.17,0-.18,0-.21Z" transform="translate(-116.59 -161.42)"/><polygon class="cls-1" points="8.22 19.95 8.24 19.97 8.26 19.38 8.22 19.95"/><path class="cls-1" d="M124.07,182.06s.07-.1.1-.07S124.13,181.33,124.07,182.06Z" transform="translate(-116.59 -161.42)"/><path class="cls-2" d="M143.29,204.11" transform="translate(-116.59 -161.42)"/><path class="cls-1" d="M145.49,203.08s.36-.14.43-.17A1.43,1.43,0,0,0,145.49,203.08Z" transform="translate(-116.59 -161.42)"/><polygon class="cls-1" points="27.8 41.63 27.95 41.55 27.55 41.69 27.8 41.63"/><path class="cls-1" d="M144.17,202.64c-.59.4.18.08,0,.28L144,203l.52-.25C144.42,202.72,144,202.8,144.17,202.64Z" transform="translate(-116.59 -161.42)"/><path class="cls-1" d="M145.34,201.59c-.22.17-.23.08,0,.11l.05,0S145.34,201.62,145.34,201.59Z" transform="translate(-116.59 -161.42)"/><path class="cls-1" d="M145.36,201.65s.18-.16,0,0Z" transform="translate(-116.59 -161.42)"/><path class="cls-1" d="M145.09,201.51l.24-.07c.13-.1.12-.18.24-.23C145.41,201.21,145.29,201.32,145.09,201.51Z" transform="translate(-116.59 -161.42)"/><path class="cls-1" d="M144.62,201.74l.11,0C144.78,201.67,144.8,201.65,144.62,201.74Z" transform="translate(-116.59 -161.42)"/><path class="cls-1" d="M145,201.66l-.22.06c-.09.07-.28.2.08,0C144.63,201.81,144.81,201.71,145,201.66Z" transform="translate(-116.59 -161.42)"/><path class="cls-1" d="M144.88,201.76a.75.75,0,0,1-.41.29C144.63,202.11,145,201.82,144.88,201.76Z" transform="translate(-116.59 -161.42)"/><path class="cls-1" d="M143.53,203l-.16.15.22-.09C143.48,203.11,143.72,202.89,143.53,203Z" transform="translate(-116.59 -161.42)"/><path class="cls-1" d="M145.1,200.9c-.12.09-.31.27-.46.39l.18-.06A1.22,1.22,0,0,1,145.1,200.9Z" transform="translate(-116.59 -161.42)"/><path class="cls-1" d="M144.64,201.29l-.26.09C144.4,201.45,144.51,201.39,144.64,201.29Z" transform="translate(-116.59 -161.42)"/><polygon class="cls-1" points="27.37 40.77 27.89 40.56 27.36 40.75 27.37 40.77"/><polygon class="cls-1" points="28.3 39.2 28.61 39.02 28.14 39.29 28.3 39.2"/><path class="cls-1" d="M144.69,200.49c.25-.16.34-.36.5-.45a1.33,1.33,0,0,0-.51.22C144.81,200.21,144.83,200.28,144.69,200.49Z" transform="translate(-116.59 -161.42)"/><path class="cls-1" d="M144.39,200.42l.3-.16A1.44,1.44,0,0,0,144.39,200.42Z" transform="translate(-116.59 -161.42)"/><path class="cls-1" d="M144.35,201.23a1.54,1.54,0,0,0,.29-.32l-.31.29Z" transform="translate(-116.59 -161.42)"/><path class="cls-1" d="M144.32,201.21h0l0-.07Z" transform="translate(-116.59 -161.42)"/><path class="cls-1" d="M144.35,201.23h0S144.31,201.26,144.35,201.23Z" transform="translate(-116.59 -161.42)"/><path class="cls-1" d="M144.17,201.8a1.79,1.79,0,0,0-.72.47A7.26,7.26,0,0,1,144.17,201.8Z" transform="translate(-116.59 -161.42)"/><path class="cls-1" d="M144,201.59l0,.12a2.13,2.13,0,0,1,.32-.24Z" transform="translate(-116.59 -161.42)"/><polygon class="cls-1" points="27.24 40.23 27.37 40.18 27.38 40.13 27.24 40.23"/><path class="cls-1" d="M144.2,200.8c-.16.09-.2.07-.26.06s0,.16,0,.2S144.25,200.83,144.2,200.8Z" transform="translate(-116.59 -161.42)"/><path class="cls-1" d="M144.23,201h0S144.18,201.07,144.23,201Z" transform="translate(-116.59 -161.42)"/><path class="cls-1" d="M143.64,200.52l0,.06.05-.05Z" transform="translate(-116.59 -161.42)"/><path class="cls-1" d="M143.89,201.12c0,.08.05,0,.17,0a.14.14,0,0,1-.11,0S143.87,201.12,143.89,201.12Z" transform="translate(-116.59 -161.42)"/><path class="cls-1" d="M144.16,200.45l-.13.21C144.12,200.56,144.24,200.38,144.16,200.45Z" transform="translate(-116.59 -161.42)"/><path class="cls-1" d="M144.29,200.95h0C144.37,200.87,144.34,200.9,144.29,200.95Z" transform="translate(-116.59 -161.42)"/><path class="cls-1" d="M144.29,200.95l-.23.13.15,0Z" transform="translate(-116.59 -161.42)"/><path class="cls-1" d="M141.66,202.41c.27-.29.58-.49.32-.14a13.66,13.66,0,0,0,1.61-1.69,1.62,1.62,0,0,1-.45.34,2.28,2.28,0,0,1-.53.7c-.2.08,0-.16.16-.34-.31.38-.58.44-1.06,1l.23-.14A3,3,0,0,0,141.66,202.41Z" transform="translate(-116.59 -161.42)"/><path class="cls-1" d="M143.67,200.73h.06a2.56,2.56,0,0,1,.3-.47,1.52,1.52,0,0,0-.38.28l.08.17Z" transform="translate(-116.59 -161.42)"/><path class="cls-1" d="M143.84,200.84a4.82,4.82,0,0,0-.82.7c.08,0,.3-.2.48-.28-.18,0,.21-.13.31-.38a.21.21,0,0,1,.14,0,1.27,1.27,0,0,1,.09-.2l0,0h0s-.06.07,0,0h0l-.12.11c0-.1.08-.08.12-.11l0,0h0l-.28,0C143.71,200.79,143.75,200.81,143.84,200.84Z" transform="translate(-116.59 -161.42)"/><path class="cls-1" d="M142.66,202.78l.08-.06S142.65,202.76,142.66,202.78Z" transform="translate(-116.59 -161.42)"/><path class="cls-1" d="M142.83,202.58c.05,0,.2-.13.18-.08a1.62,1.62,0,0,1-.28.21,1.16,1.16,0,0,0,.42-.31l-.05,0a4.19,4.19,0,0,1,.51-.55C143.32,202.14,143.11,202.32,142.83,202.58Z" transform="translate(-116.59 -161.42)"/><path class="cls-1" d="M143.28,201.81l-.24,0-.24.29L143,202C142.94,202.1,143.14,201.91,143.28,201.81Z" transform="translate(-116.59 -161.42)"/><polygon class="cls-1" points="27.19 38.93 27.52 38.62 27.02 39.02 27.19 38.93"/><polygon class="cls-1" points="27.02 38.84 27.29 38.56 27.09 38.7 27.02 38.84"/><path class="cls-1" d="M134.88,202.53l0,.11A.54.54,0,0,0,134.88,202.53Z" transform="translate(-116.59 -161.42)"/><path class="cls-1" d="M135.08,202.57l0-.19A.69.69,0,0,0,135.08,202.57Z" transform="translate(-116.59 -161.42)"/><path class="cls-1" d="M139.74,198.26c0-.37.12-.94,0-.5l-.09.42C139.73,198.11,139.74,198.16,139.74,198.26Z" transform="translate(-116.59 -161.42)"/><path class="cls-1" d="M137,200.41v.13l.07-.41Z" transform="translate(-116.59 -161.42)"/><path class="cls-1" d="M136.76,202.19l0-.28A2,2,0,0,0,136.76,202.19Z" transform="translate(-116.59 -161.42)"/><path class="cls-1" d="M133.61,202.89l-.08.44C133.58,203.33,133.58,203.1,133.61,202.89Z" transform="translate(-116.59 -161.42)"/><path class="cls-1" d="M142,199.29c0-.17,0-.25,0-.29C141.94,199.25,141.79,199.59,142,199.29Z" transform="translate(-116.59 -161.42)"/><path class="cls-1" d="M135.28,197.94a1.17,1.17,0,0,0,0,.26A.93.93,0,0,0,135.28,197.94Z" transform="translate(-116.59 -161.42)"/><path class="cls-1" d="M141.86,198.93l0,.1c.07,0,.13-.08.16,0C142,198.81,142.05,198.69,141.86,198.93Z" transform="translate(-116.59 -161.42)"/><path class="cls-1" d="M128.35,200.47l0,0S128.34,200.47,128.35,200.47Z" transform="translate(-116.59 -161.42)"/><path class="cls-1" d="M131,196.78a0,0,0,0,1,0,0S131,196.76,131,196.78Z" transform="translate(-116.59 -161.42)"/><path class="cls-1" d="M143.13,199.64s0,0,0,0Z" transform="translate(-116.59 -161.42)"/><path class="cls-1" d="M142.21,201.09l-.14.16Z" transform="translate(-116.59 -161.42)"/><path class="cls-1" d="M140.37,201.2h0C140.34,201.27,140.34,201.26,140.37,201.2Z" transform="translate(-116.59 -161.42)"/><path class="cls-1" d="M143.06,199.83a.52.52,0,0,0,0-.13A.63.63,0,0,0,143.06,199.83Z" transform="translate(-116.59 -161.42)"/><path class="cls-1" d="M143.18,199.67v.05C143.23,199.67,143.26,199.63,143.18,199.67Z" transform="translate(-116.59 -161.42)"/><path class="cls-1" d="M143.08,199.62s0,0,0,.08l0-.06Z" transform="translate(-116.59 -161.42)"/><path class="cls-1" d="M131.63,201v0C131.55,201.12,131.58,201.09,131.63,201Z" transform="translate(-116.59 -161.42)"/><path class="cls-1" d="M138,202.5v0Z" transform="translate(-116.59 -161.42)"/><path class="cls-1" d="M137.89,202.8c.13-.52.14-.45.14-.34l.21-1.23Z" transform="translate(-116.59 -161.42)"/><path class="cls-1" d="M134.34,202.61l0,.39c-.14.63-.19.41-.17,1,.12-1.35.31-.11.42-1.47l0,.29s0,.07,0,.05c0,.66.14-1,.24-.77a1,1,0,0,1,0,.46l.11-.33s0,.26,0,.24l.14-.1v0l.13-.68c0,.2,0,.14,0,.31l.1-.32c0,.35-.08.69-.13.64,0,1.36.09-.34.18.46l-.08.17a3.6,3.6,0,0,0,.11,1,7.69,7.69,0,0,1,0-1.55c0,.1,0,.15.11-.12,0,.48,0,.37.07.34l0,.64a6.12,6.12,0,0,0,.14-.79,3.62,3.62,0,0,1,0,1c.09.11,0-.8.11-.91.06.25.14,0,.26-.38a3.09,3.09,0,0,1,0,.57l.09-.5a1.24,1.24,0,0,1,0,.25,8.07,8.07,0,0,1,.14-.8c.08-.7.05,1,.2.25,0,.18,0,.39-.06.64a8.57,8.57,0,0,0,.29-1.07l0,.42a6,6,0,0,1,.23-1.5v-.53l.15-.33a4.13,4.13,0,0,1-.08.59l0-.15a4.67,4.67,0,0,1-.11,1v-.4c-.07.38-.13.81-.16,1.18a.68.68,0,0,1,.05-.17,2.63,2.63,0,0,0,0,.26c0,.07,0-.07.06-.23l0,.71,0-.28.08.46a9.47,9.47,0,0,1,.57-2c-.11.51-.12.85-.2,1.46,0-.66-.15.26-.21.12a1.44,1.44,0,0,1,0,.47l.21-.57a1.51,1.51,0,0,0,0,.59c.1-1,.19-.65.29-.95,0,.33-.11.67-.16.58,0,.76.26-1.15.24-.51,0,0,0,0-.05.12.08-.29.14,0,.08.24h0c.1.13.32.06.49-.77l-.23,1.17q.34-1.39.73-2.77c-.16.71-.44,2.43-.6,2.82,0,.11,0,.23.11,0a10.85,10.85,0,0,1,.21-1.1c-.1.81,0,.44-.11,1.13a6.84,6.84,0,0,1,.31-1.23c0,.17-.24,1.1-.28,1.22l.35-1.08a12,12,0,0,0-.27,1.24c0-.22.08,0,.13-.07l0-.26c.06.19.49-1.51.61-1.43a12.06,12.06,0,0,0-.39,1.52,21.72,21.72,0,0,1,1.12-3l-.07.32.21-.33c-.34.8-1,2.5-1.25,3.16,0,.26-.1.38,0,.37a1.18,1.18,0,0,1-.17.45l0,.23c.19-.65.28-.61.45-1.15l-.34.62c.18-.65.64-1.8.71-1.65s-.4,1.13-.46,1.34c.08-.22.22-.39.18-.23l-.15.33c0,.25.37-.81.22-.19,0,0-.25.83-.1.46.24-.73,1.06-3,1.29-3.48a8.25,8.25,0,0,1-.22,1.1c-.19.57-.59,1.31-.75,1.8.07-.17.17-.37.21-.44,0,.15-.22.52-.14.46.27-.63.07.1.24-.52.12-.16,0,.15.06.15a7.84,7.84,0,0,1,.81-1.49c-.08.16-.16.37-.2.46s0,.42.1.48a3.4,3.4,0,0,1-.28.6c.07-.1.19-.3.23-.3-.23.54-.11,0-.41.69a3,3,0,0,1,.5-.64c.3-.53,0-.15-.2,0a6.64,6.64,0,0,1,1.25-1.74c.21-.12-.24.49-.16.4.1.22,1-1.14.78-.51a12.27,12.27,0,0,1-.81,1.21c-.18.12.09-.36,0-.38l-.08.26c-.12.13-.24.21-.18.06-.22.44.2.27,0,.72a2.54,2.54,0,0,0,.39-.43l-.08,0c.22-.37.44-.42.51-.62.24-.2.61-.52.54-.26l-.38.48c.11-.14.18-.32,0-.2.21-.18-.41.73.14.15l.22-.37c.26-.19.77-.61.72-.4.37-.48-.06,0,.35-.54-.53.7-.2-.21-.72.56.47-.68.12-.35.48-1-.12.16-.21.33-.22.19l-.13.13v0s0,0,0,0a1.67,1.67,0,0,1-.15.27c-.32.34-.42.24-.6.41,0-.11.15-.17.26-.36l-.27.25c.26-.37.32-.69.58-.83l-.08-.09c.09-.25.06-.39-.09-.27,0-.12-.38.33-.15.07l-.3.14.06-.1c-.13-.14-.67.48-.46-.32-.11.07-.22.17-.25,0l.16-.36c-.13.09,0-.46-.25-.11.35-1-.26-.39-.31-.59l-.19.47c-.07-.06-.2.05-.37.21l-.15.42c-.2.32-.1-.37-.26-.37.06-.16.08-.11.07,0,.14-1-.55.59-.48-.16-.08.15-.09.08-.09,0l0,0h0v-.24a2.14,2.14,0,0,0,0,.24s-.08,0-.15.15l.1-.47h0c0-.18-.09.21-.16.57a2.24,2.24,0,0,0-.12.27c.15-.76-.16.23,0-.58-.12.39-.27.25-.47,1.08,0-.11,0-.16,0-.16s0-.21-.13,0l.11-.6-.26.79a3.27,3.27,0,0,1,.18-1c-.28.68-.17.24-.41.93l.08-.39s-.2.52-.17.19c0-.76-.42-.16-.55-.89-.1,1.16,0-.53-.16.36a2.93,2.93,0,0,1,.07-.67c-.15.25-.13-.46-.3.29,0-.28.07-.4.08-.56,0,.06-.06.23-.06.07a1.11,1.11,0,0,1,.08-.34,4.61,4.61,0,0,0-.32,1.67c0-.38-.05-.33-.15.19,0-.26,0-.54.08-.62s-.21-.4-.27.23c0-.16-.05-.05-.07,0s-.09-.1-.18-.05l0,.11c-.1.77-.09.17-.16.25v-.08c-.12-.57-.09.26-.2-.39l0,.48c-.09,1-.1-.62-.22-.23v.28c-.07.35,0-1.41-.08-1.54a.53.53,0,0,1,0-.21c-.09-.62-.06.63-.17.76a4.6,4.6,0,0,0,0-.93c0-.28-.26,1.08-.31.43a2.67,2.67,0,0,1-.06.72c-.07.09-.11-1-.23-.18a1.77,1.77,0,0,1,0-.2,2.84,2.84,0,0,0-.26.78c.08-1.66-.37.78-.25-.75l-.16.07,0-.15c-.09-.11-.15.25-.22.62a1.47,1.47,0,0,1,0-.33c-.11-.32-.13-.25-.33.49l0-.49c-.07.29-.11-.8-.3-.24a2.11,2.11,0,0,1,0-.22c-.23.56-.13-1.41-.45.37l-.17.43c.11.16-.14.77-.14,1.07-.07.1-.05-.56,0-.64v.09c.18-.93-.11-.35,0-1-.23,0-.33-.57-.5-.64l-.17.71-.06-.06c0-.17.13-.56.17-.52.09-.4-.18.32-.23.47a4,4,0,0,1,.25-.83l0,0,0,.08c-.11.28-.21.58-.25.52s.13-.43.12-.47,0-.07,0,0l0-.08-.17.55c-.13.25-.06-.06-.25.57.3-1-.17-.45-.08-.75-.23.37-.27.33-.3.25,0,.11-.33.7-.35.59.65-1.17.19-.57.66-1.41-.3.56-.18.07-.63.86,0-.11.27-.42.42-.7-.37.38,0-.35-.11-.28s-.28.35-.47.53q.27-.36.55-.7c-.07.05-.7.73-.31.26a3,3,0,0,1-.3.31c.22-.39,0-.31-.11-.35s-.18-.19.47-.67c-.28.19-.32.2-.34.19s-.38.22-.58.34l.53-.4c-.59.29-.09-.06-.67.21l.12,0c-.7.28-1.45.8-2.3,1.25.79-.34-1,.84.17.37-.15.13-.28.14-.46.27.37-.18.47-.19.36,0l-.09,0c.23.16-.08.5-.06.92l.35-.32c0,.09-.11.19-.17.3.6-.41-.1-.16.56-.62-.68.69.29.32-.45,1.13.07.08.36-.41.43-.33l-.19.23.28-.26a1.8,1.8,0,0,1-.39.58s-.08,0-.11,0c-.17.33.28.1.23.21l0-.21c.38,0,.46.51,1,.16l.1-.2c.38-.25,0,.29.29.24l0,0c.15-.17.25-.24.28-.19-.17.2-.15.5-.34.72.4-.29.26-.24.73-.94l-.13.35c.18-.29.26-.45.38-.5-.2.26-.17.54-.43.89-.11.83.6-.65.26.49.45-.93,0-.6.17-.78s.35-.69.37-.57-.36,1.27-.18,1.31c0,0,0,.06-.06.05,0,.27.23-.29.18.14.22-.58.09.07.32-.69l-.19.13c.15-.16.47-1,.47-.58a3.35,3.35,0,0,1-.2.45c0,.23.11-.13.09.11-.22.76-.21.13-.48.68,0,.34.33-.5,0,.31.36-1,.13.17.45-.61l-.13.46c0-.07.13-.28.15-.26l-.21.58c.22-.49.06.49.22.23-.19,0,.09-.57.1-.92.35-.57-.16,1.24.15,1.07,0,.06-.07-.31,0-.51a1.82,1.82,0,0,1,0,.55c.19-.06.07-.48.2-.75-.06.58.13-.21.22-.38l-.09.47c.13.34.22-1,.31-.59l-.17.65.11-.16-.11.54c.16-.39.16-.28.23-.12,0-.34.14-.86.22-.87,0,.29-.1.45,0,.4-.07.3-.15.67-.13.22l-.1.45c0,.33.13.09.17.1a.19.19,0,0,1,0-.12l.25-.64a1.62,1.62,0,0,1-.08.46s.09-.26.14-.3a4.24,4.24,0,0,1-.2,1l.21-.41a4.73,4.73,0,0,1,0,.62c.06.24.3-.73.37-.41a.74.74,0,0,1,.06-.2c.09.1.13.58.29.06v.71c.1-.15,0-.89.17-1.14s0,.6,0,.8c.08-.35.23-1.06.28-.48C134.39,202.67,134.37,202.56,134.34,202.61Zm1.08-.23c0,.1-.09.41-.08.12C135.39,202,135.39,202.22,135.41,202.38Zm1.6-1c0,.16,0,.08,0-.11S137,201.22,137,201.35Zm5.54-1.65,0,0C142.6,199.52,142.57,199.59,142.56,199.69Zm0,.25a.74.74,0,0,0,.12-.16c-.08.09-.11.08-.11,0C142.48,199.93,142.45,200,142.54,199.94Zm-10.2-2.14,0,.12C132.24,198,132.28,197.93,132.33,197.8Z" transform="translate(-116.59 -161.42)"/><path class="cls-1" d="M136.78,202l0-.26A1,1,0,0,0,136.78,202Z" transform="translate(-116.59 -161.42)"/><polygon class="cls-1" points="17.03 41.39 17.03 41.38 17.02 41.47 17.03 41.39"/><path class="cls-1" d="M139.33,202.8a1.89,1.89,0,0,1,.07-.24A.61.61,0,0,0,139.33,202.8Z" transform="translate(-116.59 -161.42)"/><path class="cls-1" d="M143.61,199.73l-.15,0s0,.1,0,.17C143.49,199.86,143.58,199.72,143.61,199.73Z" transform="translate(-116.59 -161.42)"/><path class="cls-1" d="M142,202.35s0,0,.07,0l.16-.16S142.08,202.25,142,202.35Z" transform="translate(-116.59 -161.42)"/><path class="cls-1" d="M142.62,201c-.26.31-.14.23,0,.21h0C143,200.78,142.79,200.89,142.62,201Z" transform="translate(-116.59 -161.42)"/><path class="cls-1" d="M142.59,201.2s0,0,0,0C142.79,201.06,142.65,201.17,142.59,201.2Z" transform="translate(-116.59 -161.42)"/><path class="cls-1" d="M142.83,199.82c0,.1.32-.4.24-.26C143.4,199.17,142.54,199.95,142.83,199.82Z" transform="translate(-116.59 -161.42)"/><polygon class="cls-1" points="25.18 40.61 25.5 40.22 25.21 40.51 25.18 40.61"/><path class="cls-1" d="M141.74,201.53l0,.15a.55.55,0,0,1,.12-.12S141.83,201.42,141.74,201.53Z" transform="translate(-116.59 -161.42)"/><path class="cls-1" d="M141.83,201.56s0,0,.1,0A.12.12,0,0,0,141.83,201.56Z" transform="translate(-116.59 -161.42)"/><polygon class="cls-1" points="25.01 40.66 25.06 40.57 25.05 40.52 25.01 40.66"/><path class="cls-1" d="M141.17,201l-.14.09c-.09.15-.13.25-.07.2A1.29,1.29,0,0,0,141.17,201Z" transform="translate(-116.59 -161.42)"/><path class="cls-1" d="M140.63,202.28c0-.1.1-.19.18-.34l-.34.52Z" transform="translate(-116.59 -161.42)"/><path class="cls-1" d="M140.4,202.32c-.1.14-.33.39-.24.39S140.37,202.46,140.4,202.32Z" transform="translate(-116.59 -161.42)"/><polygon class="cls-1" points="23.27 39.77 23.29 39.77 23.66 38.82 23.27 39.77"/><path class="cls-1" d="M138.37,203.27c0,.25.17-.61.16-.3.08-.23,0-.25.08-.45A2,2,0,0,0,138.37,203.27Z" transform="translate(-116.59 -161.42)"/><path class="cls-1" d="M138.61,202.52l.06-.15Z" transform="translate(-116.59 -161.42)"/><polygon class="cls-1" points="14.81 35.02 14.99 34.91 14.69 35.08 14.81 35.02"/><path class="cls-1" d="M130.69,196.73l.58-.28-.54.23S130.82,196.66,130.69,196.73Z" transform="translate(-116.59 -161.42)"/><path class="cls-1" d="M135.47,203.7l0-.16c0-.17,0-.18,0-.21Z" transform="translate(-116.59 -161.42)"/><polygon class="cls-1" points="18.17 41.74 18.18 41.76 18.2 41.17 18.17 41.74"/><path class="cls-1" d="M134,203.85s.07-.1.1-.07S134.08,203.12,134,203.85Z" transform="translate(-116.59 -161.42)"/></svg>