<svg id="Слой_1" data-name="Слой 1" xmlns="http://www.w3.org/2000/svg" viewBox="0 0 18.81 48.12"><defs><style>.cls-1{fill:#fff;}.cls-2{fill:none;stroke:#fff;stroke-linecap:round;stroke-linejoin:round;}</style></defs><title>wave-bottom-left</title><path class="cls-1" d="M125.09,206.74a4,4,0,0,0,.44.1A3.32,3.32,0,0,0,125.09,206.74Z" transform="translate(-123.27 -158.72)"/><polygon class="cls-1" points="0.98 47.53 1.15 47.58 0.75 47.43 0.98 47.53"/><path class="cls-1" d="M124.34,206c-.69-.19.08.14-.18.12l-.16,0,.55.18C124.48,206.15,124.14,206,124.34,206Z" transform="translate(-123.27 -158.72)"/><path class="cls-1" d="M125.84,206.33c-.26-.09-.22-.1-.09,0l.07,0S125.81,206.34,125.84,206.33Z" transform="translate(-123.27 -158.72)"/><path class="cls-1" d="M125.82,206.35s.22.06,0,0Z" transform="translate(-123.27 -158.72)"/><path class="cls-1" d="M125.69,206.19l.23.12a2.56,2.56,0,0,1,.3.09A2.3,2.3,0,0,0,125.69,206.19Z" transform="translate(-123.27 -158.72)"/><path class="cls-1" d="M125.21,206l.09.05C125.37,206.05,125.39,206.06,125.21,206Z" transform="translate(-123.27 -158.72)"/><path class="cls-1" d="M125.5,206.14l-.2-.11c-.11,0-.33-.12.07,0C125.18,206,125.37,206.08,125.5,206.14Z" transform="translate(-123.27 -158.72)"/><path class="cls-1" d="M125.4,206.13a1.48,1.48,0,0,1-.47-.16C125,206.07,125.48,206.22,125.4,206.13Z" transform="translate(-123.27 -158.72)"/><path class="cls-1" d="M123.64,205.73l-.21,0,.22.1C123.54,205.75,123.85,205.79,123.64,205.73Z" transform="translate(-123.27 -158.72)"/><path class="cls-1" d="M126.1,206.18l-.55-.23.15.09A3.09,3.09,0,0,1,126.1,206.18Z" transform="translate(-123.27 -158.72)"/><path class="cls-1" d="M125.54,206l-.22-.13S125.39,205.89,125.54,206Z" transform="translate(-123.27 -158.72)"/><polygon class="cls-1" points="1.21 46.96 1.7 47.22 1.2 46.95 1.21 46.96"/><polygon class="cls-1" points="2.9 47.39 3.21 47.55 2.74 47.3 2.9 47.39"/><path class="cls-1" d="M126.14,206l.6.31-.45-.28C126.39,206.12,126.36,206.12,126.14,206Z" transform="translate(-123.27 -158.72)"/><path class="cls-1" d="M126,205.87l.28.18Z" transform="translate(-123.27 -158.72)"/><path class="cls-1" d="M125.42,205.8c.08,0,.3.13.4.16l-.39-.17Z" transform="translate(-123.27 -158.72)"/><path class="cls-1" d="M125.42,205.78h0Z" transform="translate(-123.27 -158.72)"/><path class="cls-1" d="M125.42,205.8h0S125.37,205.78,125.42,205.8Z" transform="translate(-123.27 -158.72)"/><path class="cls-1" d="M124.87,205.73a3.2,3.2,0,0,0-.78-.36C124.36,205.5,124.56,205.56,124.87,205.73Z" transform="translate(-123.27 -158.72)"/><path class="cls-1" d="M124.92,205.59h-.11c.1,0,.26.11.36.16Z" transform="translate(-123.27 -158.72)"/><polygon class="cls-1" points="1.54 46.8 1.66 46.87 1.7 46.87 1.54 46.8"/><path class="cls-1" d="M125.64,205.73c-.16-.1-.16-.12-.18-.16s-.13,0-.14,0A1.42,1.42,0,0,0,125.64,205.73Z" transform="translate(-123.27 -158.72)"/><path class="cls-1" d="M125.5,205.74h0S125.43,205.7,125.5,205.74Z" transform="translate(-123.27 -158.72)"/><path class="cls-1" d="M125.54,205.4l-.07,0,.06,0Z" transform="translate(-123.27 -158.72)"/><path class="cls-1" d="M125.24,205.53c-.08,0,0,0,.12.1s-.05-.05,0-.07Z" transform="translate(-123.27 -158.72)"/><path class="cls-1" d="M125.86,205.73l-.21-.09C125.76,205.7,126,205.79,125.86,205.73Z" transform="translate(-123.27 -158.72)"/><path class="cls-1" d="M125.59,205.77h0C125.69,205.82,125.65,205.8,125.59,205.77Z" transform="translate(-123.27 -158.72)"/><path class="cls-1" d="M125.59,205.77l-.22-.14.12.09Z" transform="translate(-123.27 -158.72)"/><path class="cls-1" d="M123.27,203.85c.33.22.61.48.22.3a22.32,22.32,0,0,0,2,1.21A2.91,2.91,0,0,1,125,205a4.13,4.13,0,0,1-.76-.4c-.14-.17.14,0,.33.11-.43-.24-.55-.46-1.16-.86l.17.2A2.82,2.82,0,0,0,123.27,203.85Z" transform="translate(-123.27 -158.72)"/><path class="cls-1" d="M125.41,205.4l0,0a3.87,3.87,0,0,1,.48.23c-.16-.12-.28-.2-.39-.28l-.08,0Z" transform="translate(-123.27 -158.72)"/><path class="cls-1" d="M125.42,205.51c-.37-.22-.51-.35-.92-.56,0,.07.29.21.44.33-.06-.12.2.14.44.21a.31.31,0,0,1,.08.09l.19.06h0l0,0h0l-.14-.08a.33.33,0,0,1,.14.08l.06,0h0l-.17-.18C125.39,205.43,125.39,205.45,125.42,205.51Z" transform="translate(-123.27 -158.72)"/><path class="cls-1" d="M123.27,205l.09,0S123.29,204.95,123.27,205Z" transform="translate(-123.27 -158.72)"/><path class="cls-1" d="M123.53,205c.05,0,.21.11.15.11a1.91,1.91,0,0,1-.32-.14,1.35,1.35,0,0,0,.47.21l-.05,0a4.37,4.37,0,0,1,.72.23C124.15,205.25,123.89,205.15,123.53,205Z" transform="translate(-123.27 -158.72)"/><path class="cls-1" d="M124.4,205.17l-.15-.17-.35-.13.2.1C124,205,124.25,205.09,124.4,205.17Z" transform="translate(-123.27 -158.72)"/><polygon class="cls-1" points="2.46 46.79 2.84 47.04 2.31 46.66 2.46 46.79"/><polygon class="cls-1" points="2.44 46.7 2.77 46.92 2.59 46.77 2.44 46.7"/><path class="cls-1" d="M129.08,198.26v-.12A.53.53,0,0,0,129.08,198.26Z" transform="translate(-123.27 -158.72)"/><path class="cls-1" d="M128.87,198.3l.05.19A.69.69,0,0,0,128.87,198.3Z" transform="translate(-123.27 -158.72)"/><path class="cls-1" d="M127.14,204.16c.2.31.5.81.29.41l-.21-.38C127.23,204.27,127.19,204.23,127.14,204.16Z" transform="translate(-123.27 -158.72)"/><path class="cls-1" d="M127.92,201l-.06-.12.11.4Z" transform="translate(-123.27 -158.72)"/><path class="cls-1" d="M127.36,199.32l.15.25A1.8,1.8,0,0,0,127.36,199.32Z" transform="translate(-123.27 -158.72)"/><path class="cls-1" d="M130,197.49l-.12-.43S129.88,197.29,130,197.49Z" transform="translate(-123.27 -158.72)"/><path class="cls-1" d="M126.08,204.76a1,1,0,0,0,.22.16C126.12,204.75,125.84,204.49,126.08,204.76Z" transform="translate(-123.27 -158.72)"/><path class="cls-1" d="M130.39,202.68a1.17,1.17,0,0,0-.06-.26A.93.93,0,0,0,130.39,202.68Z" transform="translate(-123.27 -158.72)"/><path class="cls-1" d="M126.35,204.88l-.08-.07c0,.06.06.12,0,.11C126.44,205,126.53,205.12,126.35,204.88Z" transform="translate(-123.27 -158.72)"/><path class="cls-1" d="M132.23,196.56l0,0Z" transform="translate(-123.27 -158.72)"/><path class="cls-1" d="M136.63,197.33s0,.05,0,.08S136.67,197.38,136.63,197.33Z" transform="translate(-123.27 -158.72)"/><path class="cls-1" d="M126,205.33s0,0,0,0Z" transform="translate(-123.27 -158.72)"/><path class="cls-1" d="M124.64,204.33l-.16-.14Z" transform="translate(-123.27 -158.72)"/><path class="cls-1" d="M124.78,202.67h0C124.72,202.61,124.73,202.62,124.78,202.67Z" transform="translate(-123.27 -158.72)"/><path class="cls-1" d="M125.88,205.22l.11.07Z" transform="translate(-123.27 -158.72)"/><path class="cls-1" d="M126,205.34l0,0C126.05,205.37,126.09,205.4,126,205.34Z" transform="translate(-123.27 -158.72)"/><path class="cls-1" d="M126,205.3s0,0,0,0l.06,0A.09.09,0,0,1,126,205.3Z" transform="translate(-123.27 -158.72)"/><path class="cls-1" d="M132,198.25l0,0C132,198.12,132,198.14,132,198.25Z" transform="translate(-123.27 -158.72)"/><path class="cls-1" d="M125.77,199.82v0h0Z" transform="translate(-123.27 -158.72)"/><path class="cls-1" d="M125.74,199.48c.17.51.12.47,0,.38l.55,1.12Z" transform="translate(-123.27 -158.72)"/><path class="cls-1" d="M129.5,198l-.18-.35c-.13-.63,0-.44-.23-.94.41,1.29-.18.21.22,1.5l-.13-.26s0-.07,0-.06c-.27-.59.24,1,.07.8a1,1,0,0,1-.18-.43l0,.35s-.1-.24-.07-.23l-.1.14v0l.13.68c-.09-.18,0-.14-.09-.3l0,.34c-.13-.33-.18-.67-.11-.64-.47-1.27,0,.34-.34-.37l0-.19c-.27-.72-.24-.44-.46-.87a7.72,7.72,0,0,1,.54,1.45c-.05-.09-.1-.13-.06.15-.15-.46-.15-.33-.19-.29l-.19-.61a6.13,6.13,0,0,0,.16.79,3.63,3.63,0,0,1-.38-.9c-.13-.07.31.74.23.89-.16-.2-.14.06-.13.46-.13-.19-.11-.38-.19-.54l.1.5a1.11,1.11,0,0,1-.08-.23,8,8,0,0,1,.18.8c.2.68-.47-.93-.3-.14-.08-.17-.11-.38-.2-.61a6.61,6.61,0,0,0,.15,1.1l-.22-.37a5.85,5.85,0,0,1,.41,1.46l.22.49v.36a4.2,4.2,0,0,1-.18-.56l0,.15a4.62,4.62,0,0,1-.31-.91l.17.36c-.1-.38-.22-.79-.34-1.14a.63.63,0,0,1,0,.17,2.44,2.44,0,0,0-.08-.25c0-.06,0,.08,0,.23l-.26-.67.09.27-.3-.37a13.09,13.09,0,0,1,.36,2.08c-.15-.5-.29-.8-.51-1.38.28.6,0-.31.16-.22a1.17,1.17,0,0,1-.19-.43l.05.62a1.18,1.18,0,0,0-.28-.52c.39.92.12.67.17,1-.13-.31-.24-.64-.13-.59-.36-.67.32,1.14,0,.57,0,0,0,0,0-.13.07.29-.12.11-.21-.17h0c-.17-.07-.39.15-.06.94l-.46-1.11q.46,1.37,1,2.71a27.2,27.2,0,0,1-1.15-2.64c-.07-.08-.16-.17-.12.09a8,8,0,0,1,.5,1,9.22,9.22,0,0,0-.63-1,5.88,5.88,0,0,1,.5,1.16c-.07-.16-.5-1-.53-1.13l.38,1.07a8.76,8.76,0,0,0-.59-1.13c.11.19-.12,0-.1.15l.17.21c-.22-.08.6,1.46.45,1.47a8.37,8.37,0,0,0-.78-1.36c.24.53,1.21,2.5,1.37,2.93l-.18-.27.13.36a31.1,31.1,0,0,1-1.45-3.1c-.18-.2-.2-.33-.27-.25a.63.63,0,0,1-.17-.47l-.3-.05c.35.57.2.67.5,1.14l-.16-.72c.34.58.85,1.71.69,1.68-.17-.21-.61-1-.73-1.22.1.21.11.45,0,.32l-.14-.34c-.21-.17.37.82-.07.34-.05,0-.57-.66-.36-.33.48.6,1.81,2.57,2.11,3.06,0,0-.52-.54-.77-.83-.39-.46-.77-1.21-1.1-1.61a3.9,3.9,0,0,1,.24.42c-.12-.11-.32-.47-.33-.36.39.55-.16.05.31.49.06.2-.14-.06-.19,0a11,11,0,0,1,.94,1.42c-.11-.14-.26-.31-.33-.38s-.39-.15-.49-.07a3.09,3.09,0,0,1-.48-.46c.07.1.21.29.19.32-.46-.38,0-.13-.52-.61a2.86,2.86,0,0,1,.41.69c.44.43.18,0,.06-.22a12.76,12.76,0,0,1,1.29,1.68c.09.2-.41-.37-.34-.27-.24,0,1,1.12.46.78s-.8-.71-1.09-1c-.1-.2.32.14.34.09l-.22-.13c-.12-.14-.18-.28,0-.19-.38-.29-.26.18-.7,0a2.14,2.14,0,0,0,.42.41l0-.08c.36.25.42.44.6.53s.55.56.32.46l-.5-.36c.15.11.32.18.18.06.2.18-.74-.41-.11.09l.37.21c.22.22.72.63.53.55.51.33,0,0,.55.33-.74-.49.1-.06-.68-.57.68.46.32.16.9.56-.16-.12-.31-.23-.21-.19l-.13-.12h0l-.25-.18a3,3,0,0,1-.47-.52c.09,0,.17.16.35.28l-.25-.26a5.9,5.9,0,0,1,.77.65l0,0c.2.15.29.19.17,0,.08.05-.33-.38-.09-.13a2.72,2.72,0,0,1-.15-.25l.08.08c.09,0-.38-.65.23-.1-.06-.1-.13-.22,0-.16l.26.29c-.06-.13.31.25.06-.08.66.81.22.09.4.21l-.29-.42c.05,0,0-.14-.06-.34l-.25-.37c-.16-.34.29.2.33.12.08.15,0,.12,0,0,.6.82-.2-.74.24-.15-.06-.15,0-.11,0,0v0h0l.14.2L127,204s0-.08,0-.19l.24.42h0c.11.15-.09-.21-.27-.53,0-.08-.06-.17-.1-.27.38.68-.05-.27.35.46a7.9,7.9,0,0,0-.37-1.1c0,.1.08.14.07.16s.14.15.07-.08l.27.55-.28-.78a4.17,4.17,0,0,1,.46,1c-.21-.7,0-.28-.25-1l.15.36s-.14-.54,0-.25c.36.66.39,0,.82.55-.45-1.08.27.46,0-.39a3.67,3.67,0,0,1,.24.63c0-.29.28.36.08-.38.1.26.12.39.18.54,0-.06-.05-.24,0-.08a1.56,1.56,0,0,1,.09.34,6.64,6.64,0,0,0-.46-1.64c.17.34.18.28,0-.23a1.44,1.44,0,0,1,.19.6s.34.29.13-.31c.06.15.06,0,.05,0s.12.06.17,0l-.05-.09c-.21-.74,0-.18,0-.29l0,.08c.32.48,0-.27.32.28l-.15-.45c-.3-1,.31.54.28.14l-.11-.25c-.06-.35.55,1.3.64,1.41a.52.52,0,0,1,0,.21c.31.54-.17-.6-.13-.77a4.59,4.59,0,0,0,.32.87c.11.25-.15-1.11.13-.51a2.66,2.66,0,0,1-.21-.69c0-.11.47.89.28.08a1.77,1.77,0,0,1,.07.19,2.82,2.82,0,0,0,0-.82c.55,1.56.07-.87.54.58L131,202l0,.15c.14.06.06-.3,0-.66a1.34,1.34,0,0,1,.11.31c.25.24.25.17.12-.59l.18.46c-.07-.28.49.65.44,0a1.56,1.56,0,0,1,.06.21c0-.61.94,1.11.32-.59l-.06-.45c-.19-.07-.28-.73-.45-1,0-.12.35.45.32.56l0-.08c.34.88.3.24.56.83.27-.18.8.14,1.11,0l-.39-.62h.12c.11.14.32.48.23.49.24.34-.05-.36-.13-.5.29.16.37.77.42.76l0-.09-.06-.06c-.1-.29-.26-.56-.16-.59s.27.36.3.37,0,.06,0,0l.17,0-.37-.45c-.1-.27.13-.05-.29-.56.64.79.65,0,.88.21-.19-.38-.12-.43,0-.48-.1-.07-.53-.55-.42-.55.87,1,.51.31,1.25.94-.5-.4.11-.33-.63-.87.14,0,.37.34.64.51-.25-.5.6-.11.61-.48a3.37,3.37,0,0,1-.57-.43l.8.38c0-.1-.82-.6-.26-.35a1.25,1.25,0,0,1-.36-.23c.49,0,.49-.32.54-.58s.09-.48.95-.51c-.35,0-.37-.09-.36-.14a4.93,4.93,0,0,1-.65-.19l.7,0c-.63-.2,0-.24-.59-.39l.09.09c-.71-.23-1.65-.27-2.57-.52.8.28-1.25-.23-.11.19-.19,0-.29-.11-.5-.17.39.14.46.2.27.18l-.09,0c.05.14-.31.07-.61,0l.43.2a1.66,1.66,0,0,1-.32-.12c.62.35.08,0,.77.34-.88-.41-.13.17-1.08-.37,0,0,.47.28.45.31l-.26-.15.32.21a3.85,3.85,0,0,1-.59-.35s-.05,0-.07-.06c-.3-.18.07.12,0,.06l.16.08c.2.25-.19.06.18.54l.17.15c.23.35-.22-.12-.15.08l0,0c.14.18.19.28.16.28-.16-.21-.36-.35-.53-.59.23.4.21.3.67,1l-.25-.28c.19.28.29.42.3.53-.15-.28-.37-.43-.59-.79-.57-.6.33.76-.39-.18.53.88.41.41.51.61s.4.66.3.6-.79-1-.84-1,0-.07,0-.07c-.16-.21.13.34-.12,0,.3.55-.06,0,.33.69,0-.07,0-.14,0-.21.07.21.48,1,.17.69-.07-.14-.15-.34-.19-.45s0,.16-.11,0c-.38-.7,0-.2-.24-.75-.18-.28.2.54-.2-.21.5,1-.15-.08.19.68l-.22-.42c0,.07.11.28.09.28l-.26-.56c.2.49-.3-.37-.21-.09.08-.06.28.5.48.79.16.63-.63-1.07-.64-.81,0-.07.18.23.25.44a2.48,2.48,0,0,1-.29-.44c0,.13.22.44.3.72-.27-.51.06.24.09.43l-.19-.44c-.23-.23.37.94.11.64l-.21-.63V198l-.2-.51c.1.4,0,.31-.08.19a2.48,2.48,0,0,1,.27.85c-.14-.25-.15-.43-.2-.34-.09-.29-.22-.65,0-.25l-.15-.43c-.16-.29-.12,0-.15,0a.25.25,0,0,1,.07.09l.14.66a2.2,2.2,0,0,1-.16-.44,2.44,2.44,0,0,1,0,.32,6.72,6.72,0,0,1-.3-.94l.06.44c-.07-.16-.21-.42-.25-.56s.13.77-.05.51a.83.83,0,0,1,0,.2c-.11-.06-.33-.49-.25,0l-.28-.65c0,.18.35.82.32,1.11s-.22-.56-.31-.73c.07.35.22,1.06,0,.54C129.44,198,129.49,198.05,129.5,198Zm-.86.6c0-.1-.07-.41,0-.15C128.82,199,128.72,198.74,128.64,198.59Zm-1.17,1.61c0-.16,0-.09.1.07S127.53,200.31,127.47,200.2Zm-1.62,4.74,0,0C126,205,125.92,205,125.84,204.94Zm-.19-.09.15.13c-.09-.08-.09-.1-.05-.09S125.58,204.76,125.65,204.85Zm8.29-4-.09-.09C133.82,200.63,133.88,200.75,133.94,200.88Z" transform="translate(-123.27 -158.72)"/><path class="cls-1" d="M127.43,199.51l.09.25A.91.91,0,0,0,127.43,199.51Z" transform="translate(-123.27 -158.72)"/><polygon class="cls-1" points="6.71 38.85 6.71 38.85 6.69 38.77 6.71 38.85"/><path class="cls-1" d="M124,200.88a1.14,1.14,0,0,1,.18.18C124.08,201,124,200.89,124,200.88Z" transform="translate(-123.27 -158.72)"/><path class="cls-1" d="M126.13,205.56l-.08-.1s-.08,0-.15-.07A2.37,2.37,0,0,1,126.13,205.56Z" transform="translate(-123.27 -158.72)"/><path class="cls-1" d="M123.43,204.24s0,0,0,.06l.19.11S123.53,204.25,123.43,204.24Z" transform="translate(-123.27 -158.72)"/><path class="cls-1" d="M124.8,204.65c-.33-.23-.24-.13-.2-.06h0C125.07,204.92,124.93,204.79,124.8,204.65Z" transform="translate(-123.27 -158.72)"/><path class="cls-1" d="M124.61,204.6s0,0,0,0C124.79,204.76,124.65,204.65,124.61,204.6Z" transform="translate(-123.27 -158.72)"/><path class="cls-1" d="M125.82,205.08c-.09-.06.39.34.26.24C126.47,205.65,125.64,204.86,125.82,205.08Z" transform="translate(-123.27 -158.72)"/><polygon class="cls-1" points="0.43 45.18 0.85 45.46 0.53 45.21 0.43 45.18"/><path class="cls-1" d="M124.19,203.88l-.15,0a.64.64,0,0,1,.12.12S124.3,204,124.19,203.88Z" transform="translate(-123.27 -158.72)"/><path class="cls-1" d="M124.16,204s0,0,0,.09S124.2,204,124.16,204Z" transform="translate(-123.27 -158.72)"/><polygon class="cls-1" points="0.36 45.02 0.46 45.07 0.52 45.05 0.36 45.02"/><path class="cls-1" d="M124.69,203.44l0-.15c-.11-.13-.2-.19-.17-.13A1.26,1.26,0,0,0,124.69,203.44Z" transform="translate(-123.27 -158.72)"/><path class="cls-1" d="M123.55,202.64a2.8,2.8,0,0,1,.3.24l-.45-.43Z" transform="translate(-123.27 -158.72)"/><path class="cls-1" d="M123.62,202.36c-.12-.13-.25-.44-.31-.34C123.43,202.16,123.47,202.31,123.62,202.36Z" transform="translate(-123.27 -158.72)"/><polygon class="cls-1" points="1.78 43.49 1.77 43.51 2.35 44.34 1.78 43.49"/><path class="cls-1" d="M124.76,199.54c-.21-.17.27.57,0,.34.09.22.19.19.26.38C125,200,125.1,200.12,124.76,199.54Z" transform="translate(-123.27 -158.72)"/><path class="cls-1" d="M125.07,200.26l0,.15A1,1,0,0,0,125.07,200.26Z" transform="translate(-123.27 -158.72)"/><polygon class="cls-1" points="13.98 38.45 14.21 38.42 13.86 38.4 13.98 38.45"/><path class="cls-1" d="M136.55,196.86l.64.11-.56-.16S136.7,196.88,136.55,196.86Z" transform="translate(-123.27 -158.72)"/><path class="cls-1" d="M128.1,197.39l0,.15c.06.16.07.17.11.18Z" transform="translate(-123.27 -158.72)"/><polygon class="cls-1" points="5.69 38.91 5.67 38.9 5.88 39.46 5.69 38.91"/><path class="cls-1" d="M129.27,196.74s0,.12,0,.1S129.5,197.44,129.27,196.74Z" transform="translate(-123.27 -158.72)"/><path class="cls-1" d="M129.69,183.24a4,4,0,0,0,.44.1A3.32,3.32,0,0,0,129.69,183.24Z" transform="translate(-123.27 -158.72)"/><polygon class="cls-1" points="5.59 24.03 5.75 24.07 5.36 23.92 5.59 24.03"/><path class="cls-1" d="M128.94,182.47c-.69-.19.08.14-.18.12l-.16,0,.55.18C129.08,182.64,128.74,182.45,128.94,182.47Z" transform="translate(-123.27 -158.72)"/><path class="cls-1" d="M130.44,182.83c-.26-.09-.22-.1-.09,0l.07,0S130.42,182.83,130.44,182.83Z" transform="translate(-123.27 -158.72)"/><path class="cls-1" d="M130.42,182.84s.22.06,0,0Z" transform="translate(-123.27 -158.72)"/><path class="cls-1" d="M130.29,182.69l.23.12a2.56,2.56,0,0,1,.3.09A2.3,2.3,0,0,0,130.29,182.69Z" transform="translate(-123.27 -158.72)"/><path class="cls-1" d="M129.82,182.47l.09.05C130,182.55,130,182.55,129.82,182.47Z" transform="translate(-123.27 -158.72)"/><path class="cls-1" d="M130.11,182.64l-.2-.11c-.11,0-.33-.12.07,0C129.78,182.49,130,182.57,130.11,182.64Z" transform="translate(-123.27 -158.72)"/><path class="cls-1" d="M130,182.62a1.48,1.48,0,0,1-.47-.16C129.6,182.56,130.08,182.71,130,182.62Z" transform="translate(-123.27 -158.72)"/><path class="cls-1" d="M128.24,182.22l-.21,0,.22.1C128.15,182.24,128.46,182.29,128.24,182.22Z" transform="translate(-123.27 -158.72)"/><path class="cls-1" d="M130.7,182.68l-.55-.23.15.09A3.09,3.09,0,0,1,130.7,182.68Z" transform="translate(-123.27 -158.72)"/><path class="cls-1" d="M130.15,182.45l-.22-.13S130,182.38,130.15,182.45Z" transform="translate(-123.27 -158.72)"/><polygon class="cls-1" points="5.81 23.46 6.31 23.72 5.81 23.44 5.81 23.46"/><polygon class="cls-1" points="7.5 23.88 7.81 24.05 7.35 23.79 7.5 23.88"/><path class="cls-1" d="M130.74,182.52l.6.31-.45-.28C131,182.62,131,182.61,130.74,182.52Z" transform="translate(-123.27 -158.72)"/><path class="cls-1" d="M130.62,182.36l.28.18Z" transform="translate(-123.27 -158.72)"/><path class="cls-1" d="M130,182.29c.08,0,.3.13.4.16l-.39-.17Z" transform="translate(-123.27 -158.72)"/><path class="cls-1" d="M130,182.28h0Z" transform="translate(-123.27 -158.72)"/><path class="cls-1" d="M130,182.3h0S130,182.27,130,182.3Z" transform="translate(-123.27 -158.72)"/><path class="cls-1" d="M129.48,182.22a3.2,3.2,0,0,0-.78-.36C129,182,129.16,182.05,129.48,182.22Z" transform="translate(-123.27 -158.72)"/><path class="cls-1" d="M129.53,182.09h-.11c.1,0,.26.11.36.16Z" transform="translate(-123.27 -158.72)"/><polygon class="cls-1" points="6.15 23.29 6.26 23.36 6.3 23.37 6.15 23.29"/><path class="cls-1" d="M130.24,182.22c-.16-.1-.16-.12-.18-.16s-.13,0-.14,0A1.42,1.42,0,0,0,130.24,182.22Z" transform="translate(-123.27 -158.72)"/><path class="cls-1" d="M130.1,182.23h0S130,182.2,130.1,182.23Z" transform="translate(-123.27 -158.72)"/><path class="cls-1" d="M130.14,181.9l-.07,0,.06,0Z" transform="translate(-123.27 -158.72)"/><path class="cls-1" d="M129.85,182c-.08,0,0,0,.12.1s-.05-.05,0-.07Z" transform="translate(-123.27 -158.72)"/><path class="cls-1" d="M130.46,182.23l-.21-.09C130.37,182.19,130.56,182.28,130.46,182.23Z" transform="translate(-123.27 -158.72)"/><path class="cls-1" d="M130.19,182.27h0C130.29,182.31,130.25,182.29,130.19,182.27Z" transform="translate(-123.27 -158.72)"/><path class="cls-1" d="M130.19,182.27l-.22-.14.12.09Z" transform="translate(-123.27 -158.72)"/><path class="cls-1" d="M127.87,180.34c.33.22.61.48.22.3a22.32,22.32,0,0,0,2,1.21,2.91,2.91,0,0,1-.46-.34,4.13,4.13,0,0,1-.76-.4c-.14-.17.14,0,.33.11-.43-.24-.55-.46-1.16-.86l.17.2A2.82,2.82,0,0,0,127.87,180.34Z" transform="translate(-123.27 -158.72)"/><path class="cls-1" d="M130,181.9l0,0a3.87,3.87,0,0,1,.48.23c-.16-.12-.28-.2-.39-.28l-.08,0Z" transform="translate(-123.27 -158.72)"/><path class="cls-1" d="M130,182c-.37-.22-.51-.35-.92-.56,0,.07.29.21.44.33-.06-.12.2.14.44.21a.31.31,0,0,1,.08.09l.19.06h0l0,0h0L130,182a.33.33,0,0,1,.14.08l.06,0h0l-.17-.18C130,181.92,130,181.95,130,182Z" transform="translate(-123.27 -158.72)"/><path class="cls-1" d="M127.87,181.45l.09,0S127.89,181.44,127.87,181.45Z" transform="translate(-123.27 -158.72)"/><path class="cls-1" d="M128.13,181.51c.05,0,.21.11.15.11a1.91,1.91,0,0,1-.32-.14,1.35,1.35,0,0,0,.47.21l-.05,0a4.37,4.37,0,0,1,.72.23C128.75,181.75,128.5,181.64,128.13,181.51Z" transform="translate(-123.27 -158.72)"/><path class="cls-1" d="M129,181.66l-.15-.17-.35-.13.2.1C128.6,181.47,128.85,181.58,129,181.66Z" transform="translate(-123.27 -158.72)"/><polygon class="cls-1" points="7.06 23.28 7.44 23.53 6.91 23.16 7.06 23.28"/><polygon class="cls-1" points="7.05 23.19 7.38 23.41 7.19 23.27 7.05 23.19"/><path class="cls-1" d="M133.69,174.76v-.12A.54.54,0,0,0,133.69,174.76Z" transform="translate(-123.27 -158.72)"/><path class="cls-1" d="M133.48,174.79l.05.19A.69.69,0,0,0,133.48,174.79Z" transform="translate(-123.27 -158.72)"/><path class="cls-1" d="M131.74,180.65c.2.31.5.81.29.41l-.21-.38C131.84,180.76,131.8,180.73,131.74,180.65Z" transform="translate(-123.27 -158.72)"/><path class="cls-1" d="M132.52,177.52l-.06-.12.11.4Z" transform="translate(-123.27 -158.72)"/><path class="cls-1" d="M132,175.81l.15.25A1.8,1.8,0,0,0,132,175.81Z" transform="translate(-123.27 -158.72)"/><path class="cls-1" d="M134.56,174l-.12-.43S134.49,173.78,134.56,174Z" transform="translate(-123.27 -158.72)"/><path class="cls-1" d="M130.69,181.26a1,1,0,0,0,.22.16C130.72,181.25,130.45,181,130.69,181.26Z" transform="translate(-123.27 -158.72)"/><path class="cls-1" d="M135,179.17a1.17,1.17,0,0,0-.06-.26A.93.93,0,0,0,135,179.17Z" transform="translate(-123.27 -158.72)"/><path class="cls-1" d="M131,181.37l-.08-.07c0,.06.06.12,0,.11C131,181.54,131.14,181.61,131,181.37Z" transform="translate(-123.27 -158.72)"/><path class="cls-1" d="M136.84,173.05l0,0Z" transform="translate(-123.27 -158.72)"/><path class="cls-1" d="M141.23,173.83s0,.05,0,.08S141.28,173.88,141.23,173.83Z" transform="translate(-123.27 -158.72)"/><path class="cls-1" d="M130.65,181.82s0,0,0,0Z" transform="translate(-123.27 -158.72)"/><path class="cls-1" d="M129.25,180.83l-.16-.14Z" transform="translate(-123.27 -158.72)"/><path class="cls-1" d="M129.38,179.16h0C129.33,179.1,129.34,179.11,129.38,179.16Z" transform="translate(-123.27 -158.72)"/><path class="cls-1" d="M130.48,181.71l.11.07Z" transform="translate(-123.27 -158.72)"/><path class="cls-1" d="M130.64,181.84l0,0C130.66,181.87,130.69,181.9,130.64,181.84Z" transform="translate(-123.27 -158.72)"/><path class="cls-1" d="M130.64,181.79s0,0,0,0l.06,0A.09.09,0,0,1,130.64,181.79Z" transform="translate(-123.27 -158.72)"/><path class="cls-1" d="M136.62,174.74l0,0C136.58,174.61,136.59,174.64,136.62,174.74Z" transform="translate(-123.27 -158.72)"/><path class="cls-1" d="M130.37,176.32v0h0Z" transform="translate(-123.27 -158.72)"/><path class="cls-1" d="M130.35,176c.17.51.12.47,0,.38l.55,1.12Z" transform="translate(-123.27 -158.72)"/><path class="cls-1" d="M134.1,174.49l-.18-.35c-.13-.63,0-.44-.23-.94.41,1.29-.18.21.22,1.5l-.13-.26s0-.07,0-.06c-.27-.59.24,1,.07.8a1,1,0,0,1-.18-.43l0,.35s-.1-.24-.07-.23l-.1.14v0l.13.68c-.09-.18,0-.14-.09-.3l0,.34c-.13-.33-.18-.67-.11-.64-.47-1.27,0,.34-.34-.37l0-.19c-.27-.72-.24-.44-.46-.87a7.72,7.72,0,0,1,.54,1.45c-.05-.09-.1-.13-.06.15-.15-.46-.15-.33-.19-.29l-.19-.61a6.13,6.13,0,0,0,.16.79,3.63,3.63,0,0,1-.38-.9c-.13-.07.31.74.23.89-.16-.2-.14.06-.13.46-.13-.19-.11-.38-.19-.54l.1.5a1.11,1.11,0,0,1-.08-.23,8,8,0,0,1,.18.8c.2.68-.47-.93-.3-.14-.08-.17-.11-.38-.2-.61a6.61,6.61,0,0,0,.15,1.1l-.22-.37a5.85,5.85,0,0,1,.41,1.46l.22.49v.36a4.2,4.2,0,0,1-.18-.56l0,.15a4.62,4.62,0,0,1-.31-.91l.17.36c-.1-.38-.22-.79-.34-1.14a.63.63,0,0,1,0,.17,2.44,2.44,0,0,0-.08-.25c0-.06,0,.08,0,.23l-.26-.67.09.27-.3-.37a13.09,13.09,0,0,1,.36,2.08c-.15-.5-.29-.8-.51-1.38.28.6,0-.31.16-.22a1.17,1.17,0,0,1-.19-.43l.05.62a1.18,1.18,0,0,0-.28-.52c.39.92.12.67.17,1-.13-.31-.24-.64-.13-.59-.36-.67.32,1.14,0,.57,0,0,0,0,0-.13.07.29-.12.11-.21-.17h0c-.17-.07-.39.15-.06.94l-.46-1.11q.46,1.37,1,2.71a27.2,27.2,0,0,1-1.15-2.64c-.07-.08-.16-.17-.12.09a8,8,0,0,1,.5,1,9.22,9.22,0,0,0-.63-1,5.88,5.88,0,0,1,.5,1.16c-.07-.16-.5-1-.53-1.13l.38,1.07a8.76,8.76,0,0,0-.59-1.13c.11.19-.12,0-.1.15l.17.21c-.22-.08.6,1.46.45,1.47a8.37,8.37,0,0,0-.78-1.36c.24.53,1.21,2.5,1.37,2.93l-.18-.27.13.36a31.1,31.1,0,0,1-1.45-3.1c-.18-.2-.2-.33-.27-.25a.63.63,0,0,1-.17-.47l-.3-.05c.35.57.2.67.5,1.14l-.16-.72c.34.58.85,1.71.69,1.68-.17-.21-.61-1-.73-1.22.1.21.11.45,0,.32l-.14-.34c-.21-.17.37.82-.07.34-.05,0-.57-.66-.36-.33.48.6,1.81,2.57,2.11,3.06,0,0-.52-.54-.77-.83-.39-.46-.77-1.21-1.1-1.61a3.9,3.9,0,0,1,.24.42c-.12-.11-.32-.47-.33-.36.39.55-.16.05.31.49.06.2-.14-.06-.19,0a11,11,0,0,1,.94,1.42c-.11-.14-.26-.31-.33-.38s-.39-.15-.49-.07a3.09,3.09,0,0,1-.48-.46c.07.1.21.29.19.32-.46-.38,0-.13-.52-.61a2.86,2.86,0,0,1,.41.69c.44.43.18,0,.06-.22a12.76,12.76,0,0,1,1.29,1.68c.09.2-.41-.37-.34-.27-.24,0,1,1.12.46.78s-.8-.71-1.09-1c-.1-.2.32.14.34.09L129,180c-.12-.14-.18-.28,0-.19-.38-.29-.26.18-.7,0a2.14,2.14,0,0,0,.42.41l0-.08c.36.25.42.44.6.53s.55.56.32.46l-.5-.36c.15.11.32.18.18.06.2.18-.74-.41-.11.09l.37.21c.22.22.72.63.53.55.51.33,0,0,.55.33-.74-.49.1-.06-.68-.57.68.46.32.16.9.56-.16-.12-.31-.23-.21-.19l-.13-.12h0l-.25-.18a3,3,0,0,1-.47-.52c.09,0,.17.16.35.28l-.25-.26a5.9,5.9,0,0,1,.77.65l0,0c.2.15.29.19.17,0,.08.05-.33-.38-.09-.13a2.73,2.73,0,0,1-.15-.25l.08.08c.09,0-.38-.65.23-.1-.06-.1-.13-.22,0-.16l.26.29c-.06-.13.31.25.06-.08.66.81.22.09.4.21l-.29-.42c.05,0,0-.14-.06-.34l-.25-.37c-.16-.34.29.2.33.12.08.15,0,.12,0,0,.6.82-.2-.74.24-.15-.06-.15,0-.11,0,0v0h0l.14.2-.14-.2s0-.08,0-.19l.24.42h0c.11.15-.09-.21-.27-.53,0-.08-.06-.17-.1-.27.38.68-.05-.27.35.46a7.9,7.9,0,0,0-.37-1.1c0,.1.08.14.07.16s.14.15.07-.08l.27.55-.28-.78a4.17,4.17,0,0,1,.46,1c-.21-.7,0-.28-.25-1l.15.36s-.14-.54,0-.25c.36.66.39,0,.82.55-.45-1.08.27.46,0-.39a3.67,3.67,0,0,1,.24.63c0-.29.28.36.08-.38.1.26.12.39.18.54,0-.06-.05-.24,0-.08a1.56,1.56,0,0,1,.09.34,6.64,6.64,0,0,0-.46-1.64c.17.34.18.28,0-.23a1.44,1.44,0,0,1,.19.6s.34.29.13-.31c.06.15.06,0,.05,0s.12.06.17,0l-.05-.09c-.21-.74,0-.18,0-.29l0,.08c.32.48,0-.27.32.28l-.15-.45c-.3-1,.31.54.28.14l-.11-.25c-.06-.35.55,1.3.64,1.41a.52.52,0,0,1,0,.21c.31.54-.17-.6-.13-.77a4.59,4.59,0,0,0,.32.87c.11.25-.15-1.11.13-.51a2.66,2.66,0,0,1-.21-.69c0-.11.47.89.28.08a1.77,1.77,0,0,1,.07.19,2.82,2.82,0,0,0,0-.82c.55,1.56.07-.87.54.58l.14-.13,0,.15c.14.06.06-.3,0-.66a1.34,1.34,0,0,1,.11.31c.25.24.25.17.12-.59l.18.46c-.07-.28.49.65.44,0a1.56,1.56,0,0,1,.06.21c0-.61.94,1.11.32-.59l-.06-.45c-.19-.07-.28-.73-.45-1,0-.12.35.45.32.56l0-.08c.34.88.3.24.56.83.27-.18.8.14,1.11,0l-.39-.62H138c.11.14.32.48.23.49.24.34-.05-.36-.13-.5.29.16.37.77.42.76l0-.09-.06-.06c-.1-.29-.26-.56-.16-.59s.27.36.3.37,0,.06,0,0l.17,0-.37-.45c-.1-.27.13-.05-.29-.56.64.79.65,0,.88.21-.19-.38-.12-.43,0-.48-.1-.07-.53-.55-.42-.55.87,1,.51.31,1.25.94-.5-.4.11-.33-.63-.87.14,0,.37.34.64.51-.25-.5.6-.11.61-.48a3.37,3.37,0,0,1-.57-.43l.8.38c0-.1-.82-.6-.26-.35a1.25,1.25,0,0,1-.36-.23c.49,0,.49-.32.54-.58s.09-.48.95-.51c-.35,0-.37-.09-.36-.14a4.93,4.93,0,0,1-.65-.19l.7,0c-.63-.2,0-.24-.59-.39l.09.09c-.71-.23-1.65-.27-2.57-.52.8.28-1.25-.23-.11.19-.19,0-.29-.11-.5-.17.39.14.46.2.27.18l-.09,0c.05.14-.31.07-.61,0l.43.2a1.66,1.66,0,0,1-.32-.12c.62.35.08,0,.77.34-.88-.41-.13.17-1.08-.37,0,0,.47.28.45.31l-.26-.15.32.21a3.85,3.85,0,0,1-.59-.35s-.05,0-.07-.06c-.3-.18.07.12,0,.06l.16.08c.2.25-.19.06.18.54l.17.15c.23.35-.22-.12-.15.08l0,0c.14.18.19.28.16.28-.16-.21-.36-.35-.53-.59.23.4.21.3.67,1l-.25-.28c.19.28.29.42.3.53-.15-.28-.37-.43-.59-.79-.57-.6.33.76-.39-.18.53.88.41.41.51.61s.4.66.3.6-.79-1-.84-1,0-.07,0-.07c-.16-.21.13.34-.12,0,.3.55-.06,0,.33.69,0-.07,0-.14,0-.21.07.21.48,1,.17.69-.07-.14-.15-.34-.19-.45s0,.16-.11,0c-.38-.7,0-.2-.24-.75-.18-.28.2.54-.2-.21.5,1-.15-.08.19.68L136,174c0,.07.11.28.09.28l-.26-.56c.2.49-.3-.37-.21-.09.08-.06.28.5.48.79.16.63-.63-1.07-.64-.81,0-.07.18.23.25.44a2.48,2.48,0,0,1-.29-.44c0,.13.22.44.3.72-.27-.51.06.24.09.43l-.19-.44c-.23-.23.37.94.11.64l-.22-.63v.18l-.2-.51c.1.4,0,.31-.08.19a2.48,2.48,0,0,1,.27.85c-.14-.25-.15-.43-.2-.34-.09-.29-.22-.65,0-.25l-.15-.43c-.16-.29-.12,0-.15,0a.25.25,0,0,1,.07.09l.14.66a2.2,2.2,0,0,1-.16-.44,2.44,2.44,0,0,1,0,.32,6.72,6.72,0,0,1-.3-.94l.06.44c-.07-.16-.21-.42-.25-.56s.13.77-.05.51a.83.83,0,0,1,0,.2c-.11-.06-.33-.49-.25,0l-.28-.65c0,.18.35.82.32,1.11s-.22-.56-.31-.73c.07.35.22,1.06,0,.54C134,174.45,134.09,174.55,134.1,174.49Zm-.86.6c0-.1-.07-.41,0-.15C133.42,175.48,133.32,175.23,133.24,175.09Zm-1.17,1.61c0-.16,0-.09.1.07S132.14,176.8,132.07,176.7Zm-1.62,4.74,0,0C130.58,181.53,130.52,181.48,130.45,181.44Zm-.19-.09.15.13c-.09-.08-.09-.1-.05-.09S130.19,181.26,130.26,181.34Zm8.29-4-.09-.09C138.43,177.13,138.48,177.24,138.54,177.37Z" transform="translate(-123.27 -158.72)"/><path class="cls-1" d="M132,176l.09.25A.91.91,0,0,0,132,176Z" transform="translate(-123.27 -158.72)"/><polygon class="cls-1" points="11.31 15.35 11.32 15.35 11.29 15.27 11.31 15.35"/><path class="cls-1" d="M128.57,177.38a1.14,1.14,0,0,1,.18.18C128.68,177.46,128.62,177.39,128.57,177.38Z" transform="translate(-123.27 -158.72)"/><path class="cls-1" d="M130.73,182.06l-.08-.1s-.08,0-.15-.07A2.36,2.36,0,0,1,130.73,182.06Z" transform="translate(-123.27 -158.72)"/><path class="cls-1" d="M128,180.73s0,0,0,.06l.19.11S128.13,180.75,128,180.73Z" transform="translate(-123.27 -158.72)"/><path class="cls-1" d="M129.41,181.15c-.33-.23-.24-.13-.2-.06h0C129.67,181.41,129.54,181.28,129.41,181.15Z" transform="translate(-123.27 -158.72)"/><path class="cls-1" d="M129.22,181.1s0,0,0,0C129.39,181.26,129.25,181.15,129.22,181.1Z" transform="translate(-123.27 -158.72)"/><path class="cls-1" d="M130.42,181.57c-.09-.06.39.34.26.24C131.07,182.15,130.25,181.35,130.42,181.57Z" transform="translate(-123.27 -158.72)"/><polygon class="cls-1" points="5.03 21.68 5.45 21.95 5.13 21.7 5.03 21.68"/><path class="cls-1" d="M128.79,180.37l-.15,0a.64.64,0,0,1,.12.12S128.91,180.46,128.79,180.37Z" transform="translate(-123.27 -158.72)"/><path class="cls-1" d="M128.77,180.45s0,0,0,.09S128.81,180.5,128.77,180.45Z" transform="translate(-123.27 -158.72)"/><polygon class="cls-1" points="4.97 21.52 5.06 21.56 5.12 21.55 4.97 21.52"/><path class="cls-1" d="M129.29,179.94l0-.15c-.11-.13-.2-.19-.17-.13A1.26,1.26,0,0,0,129.29,179.94Z" transform="translate(-123.27 -158.72)"/><path class="cls-1" d="M128.16,179.13a2.81,2.81,0,0,1,.3.24l-.45-.43Z" transform="translate(-123.27 -158.72)"/><path class="cls-1" d="M128.23,178.86c-.12-.13-.25-.44-.31-.34C128,178.65,128.07,178.81,128.23,178.86Z" transform="translate(-123.27 -158.72)"/><polygon class="cls-1" points="6.39 19.99 6.38 20 6.96 20.84 6.39 19.99"/><path class="cls-1" d="M129.36,176c-.21-.17.27.57,0,.34.09.22.19.19.26.38C129.61,176.5,129.7,176.62,129.36,176Z" transform="translate(-123.27 -158.72)"/><path class="cls-1" d="M129.67,176.76l0,.15A1,1,0,0,0,129.67,176.76Z" transform="translate(-123.27 -158.72)"/><polygon class="cls-1" points="18.58 14.95 18.81 14.91 18.46 14.89 18.58 14.95"/><path class="cls-1" d="M141.15,173.36l.64.11-.56-.16S141.3,173.37,141.15,173.36Z" transform="translate(-123.27 -158.72)"/><path class="cls-1" d="M132.7,173.89l0,.15c.06.16.07.17.11.18Z" transform="translate(-123.27 -158.72)"/><polygon class="cls-1" points="10.3 15.41 10.28 15.4 10.48 15.95 10.3 15.41"/><path class="cls-1" d="M133.87,173.24s0,.12,0,.1S134.11,173.93,133.87,173.24Z" transform="translate(-123.27 -158.72)"/><path class="cls-1" d="M124.91,182.34s-.37-.09-.45-.11A1.43,1.43,0,0,0,124.91,182.34Z" transform="translate(-123.27 -158.72)"/><polygon class="cls-1" points="2.52 24.29 2.35 24.26 2.76 24.38 2.52 24.29"/><path class="cls-1" d="M125.73,183.47c.72,0-.1-.17.16-.23h.16l-.57-.1C125.57,183.25,125.93,183.41,125.73,183.47Z" transform="translate(-123.27 -158.72)"/><path class="cls-1" d="M124.16,183.64c.28,0,.23.07.09-.06h-.07S124.19,183.61,124.16,183.64Z" transform="translate(-123.27 -158.72)"/><path class="cls-1" d="M124.18,183.58c0-.06-.24,0,0,0Z" transform="translate(-123.27 -158.72)"/><path class="cls-1" d="M124.32,183.85l-.24-.08c-.17,0-.21.08-.32,0C123.88,183.9,124,183.89,124.32,183.85Z" transform="translate(-123.27 -158.72)"/><path class="cls-1" d="M124.84,183.93l-.1,0C124.66,183.9,124.64,183.91,124.84,183.93Z" transform="translate(-123.27 -158.72)"/><path class="cls-1" d="M124.52,183.81l.21.08c.12,0,.35,0-.08,0C124.87,183.87,124.67,183.85,124.52,183.81Z" transform="translate(-123.27 -158.72)"/><path class="cls-1" d="M124.63,183.77a.75.75,0,0,1,.5,0C125,183.63,124.54,183.62,124.63,183.77Z" transform="translate(-123.27 -158.72)"/><path class="cls-1" d="M126.46,183.54l.21,0-.23-.06C126.56,183.49,126.24,183.53,126.46,183.54Z" transform="translate(-123.27 -158.72)"/><path class="cls-1" d="M124,184.34c.15,0,.4,0,.6,0l-.18-.05A1.22,1.22,0,0,1,124,184.34Z" transform="translate(-123.27 -158.72)"/><path class="cls-1" d="M124.55,184.29l.27.08C124.85,184.29,124.72,184.28,124.55,184.29Z" transform="translate(-123.27 -158.72)"/><polygon class="cls-1" points="2.36 25.24 1.82 25.1 2.37 25.26 2.36 25.24"/><polygon class="cls-1" points="0.7 25.97 0.34 25.94 0.88 25.99 0.7 25.97"/><path class="cls-1" d="M124,184.91c-.29,0-.49.1-.67.07a1.33,1.33,0,0,0,.54.12C123.79,185.07,123.81,185,124,184.91Z" transform="translate(-123.27 -158.72)"/><path class="cls-1" d="M124.25,185.14l-.33,0A1.44,1.44,0,0,0,124.25,185.14Z" transform="translate(-123.27 -158.72)"/><path class="cls-1" d="M124.76,184.51a1.54,1.54,0,0,0-.43.09l.42-.06Z" transform="translate(-123.27 -158.72)"/><path class="cls-1" d="M124.77,184.54h0a.46.46,0,0,1,0,.07Z" transform="translate(-123.27 -158.72)"/><path class="cls-1" d="M124.76,184.5h0S124.81,184.5,124.76,184.5Z" transform="translate(-123.27 -158.72)"/><path class="cls-1" d="M125.24,184.15a1.79,1.79,0,0,0,.86,0A7.27,7.27,0,0,1,125.24,184.15Z" transform="translate(-123.27 -158.72)"/><path class="cls-1" d="M125.29,184.44l.09-.09a2.13,2.13,0,0,1-.4,0Z" transform="translate(-123.27 -158.72)"/><polygon class="cls-1" points="2.16 25.75 2.02 25.72 1.99 25.75 2.16 25.75"/><path class="cls-1" d="M124.63,184.94c.19,0,.21.06.24.1s.12-.11.11-.16S124.61,184.89,124.63,184.94Z" transform="translate(-123.27 -158.72)"/><path class="cls-1" d="M124.73,184.74h0S124.81,184.74,124.73,184.74Z" transform="translate(-123.27 -158.72)"/><path class="cls-1" d="M124.92,185.5l.08,0h-.08Z" transform="translate(-123.27 -158.72)"/><path class="cls-1" d="M125.07,184.87c.08,0,0-.06-.16-.07,0,0,.08.05.08.08S125.09,184.87,125.07,184.87Z" transform="translate(-123.27 -158.72)"/><path class="cls-1" d="M124.46,185.25l.23-.1C124.56,185.19,124.35,185.26,124.46,185.25Z" transform="translate(-123.27 -158.72)"/><path class="cls-1" d="M124.64,184.77h0C124.53,184.79,124.58,184.78,124.64,184.77Z" transform="translate(-123.27 -158.72)"/><path class="cls-1" d="M124.64,184.77l.26,0-.15-.05Z" transform="translate(-123.27 -158.72)"/><path class="cls-1" d="M127.63,185.11c-.39.07-.76.06-.34-.07a13.66,13.66,0,0,0-2.29.43,1.62,1.62,0,0,1,.57,0,2.28,2.28,0,0,1,.84-.25c.21.06-.13.1-.33.19.48-.13.73,0,1.44-.19l-.27,0A3,3,0,0,0,127.63,185.11Z" transform="translate(-123.27 -158.72)"/><path class="cls-1" d="M125,185.31l-.05,0a2.55,2.55,0,0,1-.52.21,1.52,1.52,0,0,0,.47,0l0-.18Z" transform="translate(-123.27 -158.72)"/><path class="cls-1" d="M124.95,185.13A4.82,4.82,0,0,0,126,185c0-.08-.36,0-.55,0,.12.14-.24,0-.47.13a.21.21,0,0,1-.12-.08l-.19.11h.26c-.08.06-.11,0-.16,0h-.07l.25.14C125,185.24,125,185.2,124.95,185.13Z" transform="translate(-123.27 -158.72)"/><path class="cls-1" d="M127,184.24h-.1C127,184.25,127,184.25,127,184.24Z" transform="translate(-123.27 -158.72)"/><path class="cls-1" d="M126.78,184.3c-.06,0-.23,0-.19,0a1.62,1.62,0,0,1,.35,0,1.16,1.16,0,0,0-.52,0h.06a4.18,4.18,0,0,1-.73.15Z" transform="translate(-123.27 -158.72)"/><path class="cls-1" d="M126,184.66l.22.1.37-.09-.22,0C126.42,184.62,126.14,184.66,126,184.66Z" transform="translate(-123.27 -158.72)"/><polygon class="cls-1" points="1.45 26.83 1 26.89 1.64 26.86 1.45 26.83"/><polygon class="cls-1" points="1.53 27.01 1.14 27.08 1.39 27.08 1.53 27.01"/><path class="cls-1" d="M133.22,189l.09-.07Z" transform="translate(-123.27 -158.72)"/><path class="cls-1" d="M133.07,188.81l-.13.15A.69.69,0,0,0,133.07,188.81Z" transform="translate(-123.27 -158.72)"/><path class="cls-1" d="M126.77,189.61c-.25.27-.65.69-.31.4l.32-.29C126.7,189.74,126.72,189.69,126.77,189.61Z" transform="translate(-123.27 -158.72)"/><path class="cls-1" d="M130.28,189.48l.08-.11-.3.29Z" transform="translate(-123.27 -158.72)"/><path class="cls-1" d="M131.49,188.15l-.14.24A2,2,0,0,0,131.49,188.15Z" transform="translate(-123.27 -158.72)"/><path class="cls-1" d="M134.46,189.42l.32-.31S134.61,189.26,134.46,189.42Z" transform="translate(-123.27 -158.72)"/><path class="cls-1" d="M125.55,187.46c-.13.12-.18.18-.18.23C125.57,187.53,125.89,187.33,125.55,187.46Z" transform="translate(-123.27 -158.72)"/><path class="cls-1" d="M130.22,192.46a1.18,1.18,0,0,0,.19-.19A.93.93,0,0,0,130.22,192.46Z" transform="translate(-123.27 -158.72)"/><path class="cls-1" d="M125.44,187.82l.08-.07c-.08,0-.15,0-.15-.06C125.22,187.81,125.15,187.91,125.44,187.82Z" transform="translate(-123.27 -158.72)"/><path class="cls-1" d="M137.32,194.44l0,0C137.33,194.46,137.33,194.45,137.32,194.44Z" transform="translate(-123.27 -158.72)"/><path class="cls-1" d="M133,195.91a0,0,0,0,1,0,0S133,195.89,133,195.91Z" transform="translate(-123.27 -158.72)"/><path class="cls-1" d="M124.82,186.51s0,0,0,0Z" transform="translate(-123.27 -158.72)"/><path class="cls-1" d="M126.42,185.86l.21,0Z" transform="translate(-123.27 -158.72)"/><path class="cls-1" d="M128,186.85h0C128,186.81,128,186.82,128,186.85Z" transform="translate(-123.27 -158.72)"/><path class="cls-1" d="M125,186.39l-.11.09Z" transform="translate(-123.27 -158.72)"/><path class="cls-1" d="M124.8,186.46l0,0C124.76,186.43,124.72,186.45,124.8,186.46Z" transform="translate(-123.27 -158.72)"/><path class="cls-1" d="M124.86,186.56s0,0,0-.08l-.06,0Z" transform="translate(-123.27 -158.72)"/><path class="cls-1" d="M135,192.11l0,0C135.1,192.05,135.06,192.06,135,192.11Z" transform="translate(-123.27 -158.72)"/><path class="cls-1" d="M130.63,187.16h0Z" transform="translate(-123.27 -158.72)"/><path class="cls-1" d="M130.92,187c-.41.35-.38.29-.31.19l-.89.88Z" transform="translate(-123.27 -158.72)"/><path class="cls-1" d="M133.71,189.21l.2-.35c.48-.43.39-.22.69-.68-.89,1-.32-.09-1.2.95l.15-.25s.06,0,.06,0c.34-.56-.68.71-.65.49a1,1,0,0,1,.26-.38l-.28.2s.15-.21.16-.18h-.17l0,0-.5.47c.1-.17.11-.1.21-.24l-.27.21c.2-.29.47-.51.47-.44.81-1.09-.27.22.12-.48l.16-.09c.46-.62.24-.44.48-.86a7.69,7.69,0,0,1-.93,1.24c0-.09.06-.15-.15,0,.31-.37.2-.31.14-.32l.41-.49a6.12,6.12,0,0,0-.58.56,3.62,3.62,0,0,1,.55-.81c0-.14-.45.66-.62.67.1-.24-.11-.07-.43.16.1-.21.26-.29.36-.45l-.37.36a1.24,1.24,0,0,1,.16-.19c-.16.12-.42.49-.58.57-.47.52.56-.87,0-.32.1-.15.26-.29.42-.48a8.57,8.57,0,0,0-.86.7l.21-.37a6,6,0,0,1-1.06,1.09l-.31.43-.31.19a4.13,4.13,0,0,1,.4-.43l-.12.1a4.67,4.67,0,0,1,.64-.72l-.23.32c.28-.27.58-.58.82-.87l-.14.11.18-.19c0-.05-.06,0-.18.16l.45-.55-.19.21.2-.42a9.47,9.47,0,0,1-1.64,1.3c.39-.36.59-.62,1-1.07-.42.51.27-.13.24,0a1.44,1.44,0,0,1,.3-.36l-.5.35a1.51,1.51,0,0,0,.36-.47c-.66.75-.53.42-.78.6.23-.25.48-.48.47-.38.47-.6-.88.79-.5.27,0,0,0,0,.11-.07-.24.19-.14,0,.08-.24h0c0-.16-.23-.23-.85.35l.87-.82q-1.08.93-2.21,1.83c.54-.49,1.77-1.72,2.13-1.94.06-.09.13-.19-.09-.05a10.85,10.85,0,0,1-.81.78c.55-.6.29-.33.75-.85a6.84,6.84,0,0,1-1,.81c.13-.11.84-.76.94-.83l-.91.67a12,12,0,0,0,.94-.85c-.16.15,0-.07-.14,0l-.17.2c.06-.19-1.28.94-1.32.81a12.06,12.06,0,0,0,1.2-1,21.73,21.73,0,0,1-2.67,1.79l.25-.22-.36.14c.74-.45,2.28-1.44,2.86-1.84.18-.19.3-.25.24-.27a1.18,1.18,0,0,1,.41-.27l.1-.21c-.53.41-.59.33-1,.67l.64-.31c-.52.42-1.56,1.09-1.54.92.2-.18,1-.69,1.16-.82-.19.13-.41.19-.28.09l.32-.18c.18-.18-.78.44-.29,0,0,0,.68-.53.35-.31-.62.45-2.58,1.79-3.08,2.08a8.25,8.25,0,0,1,.82-.77c.48-.36,1.25-.72,1.66-1-.16.1-.36.2-.43.24.12-.1.49-.3.39-.29-.59.36,0-.12-.5.28-.19.06.1-.12,0-.16a7.84,7.84,0,0,1-1.52.74c.15-.08.34-.2.43-.26s.24-.35.2-.44a3.4,3.4,0,0,1,.57-.32,1.27,1.27,0,0,1-.36.11c.51-.3.11,0,.73-.32a3,3,0,0,1-.78.23c-.55.26-.05.15.19.08a6.64,6.64,0,0,1-2,.68c-.25,0,.48-.26.36-.23,0-.23-1.44.37-.94,0a12.27,12.27,0,0,1,1.36-.51c.21,0-.28.24-.24.3l.22-.16c.17,0,.32,0,.18.05.43-.23,0-.34.38-.61a2.54,2.54,0,0,0-.57.13l.09,0c-.4.17-.6.09-.78.21s-.8.07-.59-.1l.59-.17c-.17,0-.33.16-.15.14-.28,0,.76-.35,0-.2l-.39.17c-.32,0-1,0-.82-.1-.58.18.07,0-.6.24.84-.26,0,.28.91,0-.78.28-.3.21-.95.5.19-.06.36-.14.29,0l.18,0h0s0,0,0,0a1.67,1.67,0,0,1,.28-.13c.46-.09.48,0,.72,0-.08.08-.23.05-.42.14l.36,0c-.43.14-.67.37-1,.33l0,.12c-.22.15-.28.28-.08.27-.07.09.51,0,.16,0l.33.06-.1,0c0,.19.83,0,.19.53.13,0,.28,0,.21.14l-.33.2c.15,0-.23.4.14.23-.87.6,0,.47-.09.66l.43-.27c0,.09.2.08.42,0l.37-.26c.35-.14-.13.36,0,.45-.14.09-.13,0-.06,0-.71.75.79-.16.3.41.15-.07.12,0,.05.08h0a0,0,0,0,0,0,0l-.15.19.16-.18s.1,0,.21,0l-.36.32h0c-.11.15.2-.12.46-.37l.26-.15c-.57.53.27-.09-.33.48.32-.25.37,0,1-.6-.08.08-.11.12-.13.11s-.09.19.12.06l-.44.43.67-.49a3.27,3.27,0,0,1-.76.74c.62-.39.28-.1.87-.52l-.29.27s.46-.3.25-.06c-.47.6.24.37-.07,1,.76-.88-.28.46.35-.2a2.93,2.93,0,0,1-.45.5c.27-.12-.16.45.41-.06-.17.22-.29.28-.39.41,0,0,.19-.15.09,0a1.11,1.11,0,0,1-.26.24c.13.05.7-.58,1.23-1.17-.21.32-.15.3.23-.07-.16.21-.31.44-.43.46s-.06.45.36,0c-.1.13,0,.07.07,0s0,.14.12.15l0-.1c.53-.56.17-.08.28-.11l-.05.06c-.24.53.22-.16-.06.43l.3-.37c.67-.78-.28.56,0,.31l.15-.23c.26-.24-.79,1.17-.83,1.3a.53.53,0,0,1-.16.14c-.29.55.41-.47.58-.52-.2.27-.57.65-.56.74-.15.23.85-.73.5-.17a2.67,2.67,0,0,1,.46-.55c.11,0-.49.88.09.28l-.12.17a2.84,2.84,0,0,0,.67-.49c-1,1.3.76-.41-.23.75l.17,0-.1.12c0,.14.27-.12.54-.37a1.47,1.47,0,0,1-.21.25c-.09.33,0,.28.55-.21l-.32.38c.22-.19-.37.71.11.37l-.16.15c.51-.32-.71,1.22.59,0l.38-.25c0-.19.57-.54.74-.79.12,0-.28.48-.4.5l.06-.07c-.68.65-.11.35-.58.79.19.14-.06.65,0,.81l.55-.48,0,.08c-.12.12-.43.37-.44.32-.31.28.33-.15.46-.25a4,4,0,0,1-.69.53h.06l.06-.06c.25-.16.51-.35.51-.28s-.36.28-.37.31-.06,0,0,0v.1l.46-.35c.25-.13,0,.08.54-.32-.8.61-.13.46-.37.66.4-.17.41-.11.39,0s.68-.37.63-.28c-1.21.57-.49.35-1.36.77.57-.28.19,0,1-.33-.08.08-.47.19-.75.32.52-.09-.22.27-.07.29s.43-.12.69-.16l-.85.24c.09,0,1-.18.4,0a3,3,0,0,1,.42-.08c-.41.18-.21.24-.11.35s0,.26-.77.27c.34,0,.37,0,.38,0s.43,0,.67.06l-.66,0c.65.11,0,.1.67.22l-.11-.05c.73.18,1.64.19,2.59.32-.83-.19,1.27-.12.08-.4.2,0,.31.05.53,0-.41-.07-.49-.12-.3-.2h.1c-.1-.26.36-.36.58-.71l-.47.06c.05-.07.2-.1.31-.14-.73,0,0,.19-.81.18.95-.16,0-.43,1-.65,0-.11-.54.12-.55,0l.29-.08-.38,0a1.8,1.8,0,0,1,.65-.24s.08,0,.1.05c.32-.17-.17-.25-.06-.3l-.16.15c-.3-.23-.08-.69-.74-.73l-.2.1c-.46,0,.17-.24-.09-.36l.05,0c-.22.05-.34.05-.34,0,.26-.07.41-.32.7-.39-.49,0-.35,0-1.15.34l.31-.2c-.32.13-.47.21-.6.19.32-.1.45-.34.86-.48.57-.61-.86.18.08-.55-.91.49-.38.46-.59.54s-.69.35-.63.25,1-.82.91-1c0,0,.07,0,.08,0,.17-.21-.36.1-.06-.22-.52.34,0-.11-.66.37h.23c-.22,0-1,.56-.71.2a3.35,3.35,0,0,1,.43-.25c.16-.17-.17,0,0-.14.62-.49.25,0,.78-.27.24-.25-.56.22.14-.28-.9.63,0-.21-.72.23l.37-.3c-.07,0-.26.15-.28.12l.51-.35c-.46.27.23-.43,0-.32.14.13-.4.41-.62.69-.62.26.85-.91.5-1,.07,0-.12.29-.32.4a1.82,1.82,0,0,1,.29-.47c-.19-.06-.34.35-.6.5.38-.44-.23.1-.4.18l.35-.34c.1-.35-.75.67-.59.3l.52-.43-.18.07.4-.38c-.35.23-.3.13-.25,0-.22.26-.62.62-.68.58.16-.24.34-.31.21-.33.23-.2.51-.45.23-.1l.34-.31c.19-.28-.05-.15-.09-.18a.19.19,0,0,1,0,.11l-.57.38a1.62,1.62,0,0,1,.33-.33c-.06,0-.23.16-.29.16a4.24,4.24,0,0,1,.73-.66l-.41.21a4.73,4.73,0,0,1,.37-.49c.09-.23-.67.41-.54.12a.74.74,0,0,1-.16.13c0-.13.23-.55-.21-.22l.41-.57c-.17.06-.51.73-.8.83s.36-.48.46-.65c-.27.23-.81.73-.51.23C133.7,189.14,133.65,189.24,133.71,189.21Zm-1-.44c.08-.07.31-.28.14-.05C132.46,189.14,132.62,188.92,132.7,188.78Zm-1.91-.09c.12-.11.08,0,0,.12S130.72,188.79,130.79,188.68Zm-5.47-1.88h0C125.19,186.92,125.25,186.88,125.32,186.8Zm.16-.19a.74.74,0,0,0-.19.06c.12,0,.13,0,.11,0S125.59,186.61,125.48,186.61Zm7.05,7.68.1-.08C132.76,194.15,132.65,194.21,132.53,194.29Z" transform="translate(-123.27 -158.72)"/><path class="cls-1" d="M131.35,188.3l-.17.2A1,1,0,0,0,131.35,188.3Z" transform="translate(-123.27 -158.72)"/><polygon class="cls-1" points="11.13 30.75 11.13 30.76 11.19 30.7 11.13 30.75"/><path class="cls-1" d="M129.76,186.15l-.19.16A.61.61,0,0,0,129.76,186.15Z" transform="translate(-123.27 -158.72)"/><path class="cls-1" d="M124.49,186.16l.15.06s.06-.08.13-.12C124.66,186.12,124.51,186.18,124.49,186.16Z" transform="translate(-123.27 -158.72)"/><path class="cls-1" d="M127.29,184.94c-.06,0,0,0-.07,0l-.22,0S127.2,185,127.29,184.94Z" transform="translate(-123.27 -158.72)"/><path class="cls-1" d="M126,185.71c.39-.1.25-.11.16-.14s0,0,0,0C125.63,185.68,125.83,185.7,126,185.71Z" transform="translate(-123.27 -158.72)"/><path class="cls-1" d="M126.17,185.56s0,0,0,0C125.93,185.56,126.11,185.54,126.17,185.56Z" transform="translate(-123.27 -158.72)"/><path class="cls-1" d="M125.18,186.54c.09-.06-.5.14-.35.07C124.33,186.74,125.48,186.6,125.18,186.54Z" transform="translate(-123.27 -158.72)"/><polygon class="cls-1" points="4.05 26.64 3.57 26.77 3.97 26.7 4.05 26.64"/><path class="cls-1" d="M127.06,185.78l.11-.11a.55.55,0,0,1-.17,0S126.92,185.83,127.06,185.78Z" transform="translate(-123.27 -158.72)"/><path class="cls-1" d="M127,185.71s0,0-.1,0A.12.12,0,0,0,127,185.71Z" transform="translate(-123.27 -158.72)"/><polygon class="cls-1" points="4.23 26.7 4.13 26.74 4.11 26.79 4.23 26.7"/><path class="cls-1" d="M127.22,186.54h.17c.16-.06.25-.12.17-.12A1.29,1.29,0,0,0,127.22,186.54Z" transform="translate(-123.27 -158.72)"/><path class="cls-1" d="M128.4,185.82l-.35.17.58-.23Z" transform="translate(-123.27 -158.72)"/><path class="cls-1" d="M128.61,185.92c.16-.06.49-.13.42-.17S128.71,185.82,128.61,185.92Z" transform="translate(-123.27 -158.72)"/><polygon class="cls-1" points="5.12 28.43 5.1 28.42 4.25 28.98 5.12 28.43"/><path class="cls-1" d="M130.8,186.33c.14-.2-.49.39-.3.15-.2.14-.16.2-.33.32A2,2,0,0,0,130.8,186.33Z" transform="translate(-123.27 -158.72)"/><path class="cls-1" d="M130.18,186.8l-.13.08Z" transform="translate(-123.27 -158.72)"/><polygon class="cls-1" points="9.23 37.22 9.02 37.2 9.36 37.25 9.23 37.22"/><path class="cls-1" d="M133.24,196.12l-.64-.11.58.13S133.1,196.1,133.24,196.12Z" transform="translate(-123.27 -158.72)"/><path class="cls-1" d="M133.41,187.67l-.1.12c-.1.14-.1.15-.1.19Z" transform="translate(-123.27 -158.72)"/><polygon class="cls-1" points="10.41 29.8 10.41 29.78 10.05 30.25 10.41 29.8"/><path class="cls-1" d="M134.68,188.39s-.12,0-.12,0S134.21,189,134.68,188.39Z" transform="translate(-123.27 -158.72)"/><path class="cls-2" d="M131.9,159.28" transform="translate(-123.27 -158.72)"/><path class="cls-1" d="M129.51,158.83s-.37-.09-.45-.11A1.43,1.43,0,0,0,129.51,158.83Z" transform="translate(-123.27 -158.72)"/><polygon class="cls-1" points="7.12 0.78 6.95 0.75 7.36 0.88 7.12 0.78"/><path class="cls-1" d="M130.33,160c.72,0-.1-.17.16-.23h.16l-.57-.1C130.17,159.75,130.54,159.91,130.33,160Z" transform="translate(-123.27 -158.72)"/><path class="cls-1" d="M128.77,160.13c.28,0,.23.07.09-.06h-.07S128.79,160.11,128.77,160.13Z" transform="translate(-123.27 -158.72)"/><path class="cls-1" d="M128.79,160.08c0-.06-.24,0,0,0Z" transform="translate(-123.27 -158.72)"/><path class="cls-1" d="M128.92,160.35l-.24-.08c-.17,0-.21.08-.32,0C128.49,160.4,128.65,160.38,128.92,160.35Z" transform="translate(-123.27 -158.72)"/><path class="cls-1" d="M129.44,160.43l-.1,0C129.27,160.39,129.24,160.4,129.44,160.43Z" transform="translate(-123.27 -158.72)"/><path class="cls-1" d="M129.12,160.3l.21.08c.12,0,.35,0-.08,0C129.47,160.36,129.27,160.34,129.12,160.3Z" transform="translate(-123.27 -158.72)"/><path class="cls-1" d="M129.24,160.26a.75.75,0,0,1,.5,0C129.65,160.13,129.15,160.12,129.24,160.26Z" transform="translate(-123.27 -158.72)"/><path class="cls-1" d="M131.07,160l.21,0L131,160C131.16,160,130.84,160,131.07,160Z" transform="translate(-123.27 -158.72)"/><path class="cls-1" d="M128.56,160.84c.15,0,.4,0,.6,0l-.18-.05A1.22,1.22,0,0,1,128.56,160.84Z" transform="translate(-123.27 -158.72)"/><path class="cls-1" d="M129.16,160.79l.27.08C129.45,160.79,129.32,160.78,129.16,160.79Z" transform="translate(-123.27 -158.72)"/><polygon class="cls-1" points="6.96 1.73 6.43 1.6 6.97 1.75 6.96 1.73"/><polygon class="cls-1" points="5.3 2.46 4.95 2.43 5.48 2.49 5.3 2.46"/><path class="cls-1" d="M128.65,161.41c-.29,0-.49.1-.67.07a1.33,1.33,0,0,0,.54.12C128.39,161.56,128.42,161.5,128.65,161.41Z" transform="translate(-123.27 -158.72)"/><path class="cls-1" d="M128.85,161.64l-.33,0A1.43,1.43,0,0,0,128.85,161.64Z" transform="translate(-123.27 -158.72)"/><path class="cls-1" d="M129.36,161a1.54,1.54,0,0,0-.43.09l.42-.06Z" transform="translate(-123.27 -158.72)"/><path class="cls-1" d="M129.37,161h0a.46.46,0,0,1,0,.07Z" transform="translate(-123.27 -158.72)"/><path class="cls-1" d="M129.36,161h0S129.42,161,129.36,161Z" transform="translate(-123.27 -158.72)"/><path class="cls-1" d="M129.85,160.65a1.79,1.79,0,0,0,.86,0A7.27,7.27,0,0,1,129.85,160.65Z" transform="translate(-123.27 -158.72)"/><path class="cls-1" d="M129.89,160.93l.09-.09a2.13,2.13,0,0,1-.4,0Z" transform="translate(-123.27 -158.72)"/><polygon class="cls-1" points="6.76 2.25 6.63 2.21 6.59 2.25 6.76 2.25"/><path class="cls-1" d="M129.24,161.44c.19,0,.21.06.24.1s.12-.11.11-.16S129.22,161.39,129.24,161.44Z" transform="translate(-123.27 -158.72)"/><path class="cls-1" d="M129.34,161.24h0S129.41,161.23,129.34,161.24Z" transform="translate(-123.27 -158.72)"/><path class="cls-1" d="M129.52,162l.08,0h-.08Z" transform="translate(-123.27 -158.72)"/><path class="cls-1" d="M129.67,161.36c.08,0,0-.06-.16-.07,0,0,.08.05.08.08S129.69,161.37,129.67,161.36Z" transform="translate(-123.27 -158.72)"/><path class="cls-1" d="M129.07,161.75l.23-.1C129.16,161.69,129,161.76,129.07,161.75Z" transform="translate(-123.27 -158.72)"/><path class="cls-1" d="M129.25,161.27h0C129.14,161.28,129.18,161.28,129.25,161.27Z" transform="translate(-123.27 -158.72)"/><path class="cls-1" d="M129.25,161.27l.26,0-.15-.05Z" transform="translate(-123.27 -158.72)"/><path class="cls-1" d="M132.23,161.61c-.39.07-.76.06-.34-.07a13.66,13.66,0,0,0-2.29.43,1.62,1.62,0,0,1,.57,0,2.28,2.28,0,0,1,.84-.25c.21.06-.13.1-.33.19.48-.13.73,0,1.44-.19l-.27,0A3,3,0,0,0,132.23,161.61Z" transform="translate(-123.27 -158.72)"/><path class="cls-1" d="M129.62,161.81l-.05,0a2.56,2.56,0,0,1-.52.21,1.52,1.52,0,0,0,.47,0l0-.18Z" transform="translate(-123.27 -158.72)"/><path class="cls-1" d="M129.55,161.62a4.82,4.82,0,0,0,1.08-.09c0-.09-.36,0-.55,0,.12.14-.24,0-.47.13a.21.21,0,0,1-.12-.08l-.19.11h.26c-.08.06-.11,0-.16,0h-.07l.25.14C129.63,161.74,129.61,161.7,129.55,161.62Z" transform="translate(-123.27 -158.72)"/><path class="cls-1" d="M131.64,160.73h-.1C131.59,160.75,131.63,160.75,131.64,160.73Z" transform="translate(-123.27 -158.72)"/><path class="cls-1" d="M131.38,160.79c-.06,0-.23,0-.19,0a1.62,1.62,0,0,1,.35,0,1.16,1.16,0,0,0-.52,0h.06a4.19,4.19,0,0,1-.73.15Z" transform="translate(-123.27 -158.72)"/><path class="cls-1" d="M130.57,161.16l.22.1.37-.09-.22,0C131,161.12,130.75,161.15,130.57,161.16Z" transform="translate(-123.27 -158.72)"/><polygon class="cls-1" points="6.05 3.33 5.6 3.39 6.24 3.36 6.05 3.33"/><polygon class="cls-1" points="6.13 3.5 5.74 3.57 5.99 3.58 6.13 3.5"/><path class="cls-1" d="M137.82,165.46l.09-.07Z" transform="translate(-123.27 -158.72)"/><path class="cls-1" d="M137.68,165.31l-.13.15A.69.69,0,0,0,137.68,165.31Z" transform="translate(-123.27 -158.72)"/><path class="cls-1" d="M131.38,166.11c-.25.27-.65.69-.31.4l.32-.29C131.3,166.24,131.32,166.18,131.38,166.11Z" transform="translate(-123.27 -158.72)"/><path class="cls-1" d="M134.89,166l.08-.11-.3.29Z" transform="translate(-123.27 -158.72)"/><path class="cls-1" d="M136.09,164.64l-.14.24A2,2,0,0,0,136.09,164.64Z" transform="translate(-123.27 -158.72)"/><path class="cls-1" d="M139.06,165.91l.32-.31S139.21,165.75,139.06,165.91Z" transform="translate(-123.27 -158.72)"/><path class="cls-1" d="M130.15,164c-.13.12-.18.18-.18.23C130.17,164,130.49,163.82,130.15,164Z" transform="translate(-123.27 -158.72)"/><path class="cls-1" d="M134.82,169a1.18,1.18,0,0,0,.19-.19A.93.93,0,0,0,134.82,169Z" transform="translate(-123.27 -158.72)"/><path class="cls-1" d="M130,164.32l.08-.07c-.08,0-.15,0-.15-.06C129.83,164.31,129.75,164.41,130,164.32Z" transform="translate(-123.27 -158.72)"/><path class="cls-1" d="M141.92,170.94l0,0C141.93,171,141.93,170.94,141.92,170.94Z" transform="translate(-123.27 -158.72)"/><path class="cls-1" d="M137.64,172.41a0,0,0,0,1,0,0S137.59,172.39,137.64,172.41Z" transform="translate(-123.27 -158.72)"/><path class="cls-1" d="M129.42,163s0,0,0,0Z" transform="translate(-123.27 -158.72)"/><path class="cls-1" d="M131,162.36l.21,0Z" transform="translate(-123.27 -158.72)"/><path class="cls-1" d="M132.58,163.35h0C132.65,163.3,132.64,163.31,132.58,163.35Z" transform="translate(-123.27 -158.72)"/><path class="cls-1" d="M129.6,162.89l-.11.09Z" transform="translate(-123.27 -158.72)"/><path class="cls-1" d="M129.4,163l0,0C129.36,162.93,129.32,162.94,129.4,163Z" transform="translate(-123.27 -158.72)"/><path class="cls-1" d="M129.46,163.05s0,0,0-.08l-.06,0Z" transform="translate(-123.27 -158.72)"/><path class="cls-1" d="M139.56,168.6l0,0C139.7,168.55,139.67,168.55,139.56,168.6Z" transform="translate(-123.27 -158.72)"/><path class="cls-1" d="M135.24,163.66h0Z" transform="translate(-123.27 -158.72)"/><path class="cls-1" d="M135.52,163.49c-.41.35-.38.29-.31.19l-.89.88Z" transform="translate(-123.27 -158.72)"/><path class="cls-1" d="M138.31,165.71l.2-.35c.48-.43.39-.22.69-.68-.89,1-.32-.09-1.2.95l.15-.25s.06,0,.06,0c.34-.56-.68.71-.65.49a1,1,0,0,1,.26-.38l-.28.2s.15-.21.16-.18h-.17l0,0-.5.47c.1-.17.11-.1.21-.24l-.27.21c.2-.29.47-.51.47-.44.81-1.09-.27.22.12-.48l.16-.09c.46-.62.24-.44.48-.86a7.69,7.69,0,0,1-.93,1.24c0-.09.06-.15-.15,0,.31-.37.2-.31.14-.32l.41-.49a6.12,6.12,0,0,0-.58.56,3.62,3.62,0,0,1,.55-.81c0-.14-.45.66-.62.67.1-.24-.11-.07-.43.16.1-.21.26-.29.36-.45l-.37.36a1.24,1.24,0,0,1,.16-.19c-.16.12-.42.49-.58.57-.47.52.56-.87,0-.32.1-.15.26-.29.42-.48a8.57,8.57,0,0,0-.86.7l.21-.37a6,6,0,0,1-1.06,1.09l-.31.43-.31.19a4.13,4.13,0,0,1,.4-.43l-.12.1a4.67,4.67,0,0,1,.64-.72l-.23.32c.28-.27.58-.58.82-.87l-.14.11.18-.19c0-.05-.06,0-.18.16l.45-.55-.19.21.2-.42a9.47,9.47,0,0,1-1.64,1.3c.39-.36.59-.62,1-1.07-.42.51.27-.13.24,0a1.44,1.44,0,0,1,.3-.36l-.5.35a1.51,1.51,0,0,0,.36-.47c-.66.75-.53.42-.78.6.23-.25.48-.48.47-.38.47-.6-.88.79-.5.27,0,0,0,0,.11-.07-.24.19-.14,0,.08-.24h0c0-.16-.23-.23-.85.35l.87-.82q-1.08.93-2.21,1.83c.54-.49,1.77-1.72,2.13-1.94.06-.09.13-.19-.09-.05a10.85,10.85,0,0,1-.81.78c.55-.6.29-.33.75-.85a6.84,6.84,0,0,1-1,.81c.13-.11.84-.76.94-.83l-.91.67a12,12,0,0,0,.94-.85c-.16.15,0-.07-.14,0l-.17.2c.06-.19-1.28.94-1.32.81a12.06,12.06,0,0,0,1.2-1,21.72,21.72,0,0,1-2.67,1.79l.25-.22-.36.14c.74-.45,2.28-1.44,2.86-1.84.18-.19.3-.25.24-.27a1.18,1.18,0,0,1,.41-.27l.1-.21c-.53.41-.59.33-1,.67l.64-.31c-.52.42-1.56,1.09-1.54.92.2-.18,1-.69,1.16-.82-.19.13-.41.19-.28.09l.32-.18c.18-.18-.78.44-.29,0,0,0,.68-.53.35-.31-.62.45-2.58,1.79-3.08,2.08a8.25,8.25,0,0,1,.82-.77c.48-.36,1.25-.72,1.66-1-.16.1-.36.2-.43.24.12-.1.49-.3.39-.29-.59.36,0-.12-.5.28-.19.06.1-.12,0-.16a7.84,7.84,0,0,1-1.52.74c.15-.08.34-.2.43-.26s.24-.35.2-.44a3.4,3.4,0,0,1,.57-.32,1.27,1.27,0,0,1-.36.11c.51-.3.11,0,.73-.32a3,3,0,0,1-.78.23c-.55.26-.05.15.19.08a6.64,6.64,0,0,1-2,.68c-.25,0,.48-.26.36-.23,0-.23-1.44.37-.94,0a12.27,12.27,0,0,1,1.36-.51c.21,0-.28.24-.24.3l.22-.16c.17,0,.32,0,.18.05.43-.23,0-.34.38-.61a2.54,2.54,0,0,0-.57.13l.09,0c-.4.17-.6.09-.78.21s-.8.07-.59-.1l.59-.17c-.17,0-.33.16-.15.14-.28,0,.76-.35,0-.2l-.39.17c-.32,0-1,0-.82-.1-.58.18.07,0-.6.24.84-.26,0,.28.91,0-.78.28-.3.21-.95.5.19-.06.36-.14.29,0l.18,0h0s0,0,0,0a1.67,1.67,0,0,1,.28-.13c.46-.09.48,0,.72,0-.08.08-.23.05-.42.14l.36,0c-.43.14-.67.37-1,.33l0,.12c-.22.15-.28.28-.08.27-.07.09.51,0,.16,0l.33.06-.1,0c0,.19.83,0,.19.53.13,0,.28,0,.21.14l-.33.2c.15,0-.23.4.14.23-.87.6,0,.47-.09.66l.43-.27c0,.09.2.08.42,0l.37-.26c.35-.14-.13.36,0,.45-.14.09-.13,0-.06,0-.71.75.79-.16.3.41.15-.07.12,0,.05.08h0a0,0,0,0,0,0,0l-.15.19.16-.18s.1,0,.21,0l-.36.32h0c-.11.15.2-.12.46-.37l.26-.15c-.57.53.27-.09-.33.48.32-.25.37,0,1-.6-.08.08-.11.12-.13.11s-.09.19.12.06l-.44.43.67-.49a3.27,3.27,0,0,1-.76.74c.62-.39.28-.1.87-.52l-.29.27s.46-.3.25-.06c-.47.6.24.37-.07,1,.76-.88-.28.46.35-.2a2.93,2.93,0,0,1-.45.5c.27-.12-.16.45.41-.06-.17.22-.29.28-.39.41,0,0,.19-.15.09,0a1.11,1.11,0,0,1-.26.24c.13.05.7-.58,1.23-1.17-.21.32-.15.3.23-.07-.16.21-.31.44-.43.46s-.06.45.36,0c-.1.13,0,.07.07,0s0,.14.12.15l0-.1c.53-.56.17-.08.28-.11l-.05.06c-.24.53.22-.16-.06.43l.3-.37c.67-.78-.28.56,0,.31l.15-.23c.26-.24-.79,1.17-.83,1.3a.53.53,0,0,1-.16.14c-.29.55.41-.47.58-.52-.2.27-.57.65-.56.74-.15.23.85-.73.5-.17a2.67,2.67,0,0,1,.46-.55c.11,0-.49.88.09.28l-.12.17a2.84,2.84,0,0,0,.67-.49c-1,1.3.76-.41-.23.75l.17,0-.1.12c0,.14.27-.12.54-.37a1.47,1.47,0,0,1-.21.25c-.09.33,0,.28.55-.21l-.32.38c.22-.19-.37.71.11.37l-.16.15c.51-.32-.71,1.22.59,0l.38-.25c0-.19.57-.54.74-.79.12,0-.28.48-.4.5l.06-.07c-.68.65-.11.35-.58.79.19.14-.06.65,0,.81l.55-.48,0,.08c-.12.12-.43.37-.44.32-.31.28.33-.15.46-.25a4,4,0,0,1-.69.53h.06l.06-.06c.25-.16.51-.35.51-.28s-.36.28-.37.31-.06,0,0,0v.1l.46-.35c.25-.13,0,.08.54-.32-.8.61-.13.46-.37.66.4-.17.41-.11.39,0s.68-.37.63-.28c-1.21.57-.48.35-1.36.77.57-.28.19,0,1-.33-.08.08-.47.19-.75.32.52-.09-.22.27-.07.29s.43-.12.69-.16l-.85.24c.09,0,1-.18.4,0a3,3,0,0,1,.42-.08c-.41.18-.21.24-.11.35s0,.26-.77.27c.34,0,.37,0,.38,0s.43,0,.67.06l-.66,0c.65.11,0,.1.67.22l-.11-.05c.73.18,1.64.19,2.59.32-.83-.18,1.27-.12.08-.4.2,0,.31.05.53,0-.41-.07-.49-.12-.3-.2h.1c-.1-.26.36-.36.58-.71l-.47.06c.05-.07.2-.1.31-.14-.73,0,0,.19-.81.18.95-.16,0-.43,1-.65,0-.11-.54.12-.55,0l.29-.08-.38,0a1.8,1.8,0,0,1,.65-.24s.08,0,.1.05c.32-.17-.17-.25-.06-.3l-.16.15c-.3-.23-.08-.69-.74-.73l-.2.1c-.46,0,.17-.24-.09-.36l.05,0c-.22.05-.34.05-.34,0,.26-.07.41-.32.7-.39-.49,0-.35,0-1.15.34l.31-.2c-.32.13-.47.21-.6.19.32-.1.45-.34.86-.48.57-.61-.86.18.08-.55-.91.49-.38.46-.59.54s-.69.35-.63.25,1-.82.91-1c0,0,.07,0,.08,0,.17-.21-.36.1-.06-.22-.52.34,0-.11-.66.37h.23c-.22,0-1,.56-.71.2a3.35,3.35,0,0,1,.43-.25c.16-.17-.17,0,0-.14.62-.49.25,0,.78-.27.24-.25-.56.22.14-.28-.9.63,0-.21-.72.23l.37-.3c-.07,0-.26.15-.28.12l.51-.35c-.46.27.23-.43,0-.32.14.13-.4.41-.62.69-.62.26.85-.91.5-1,.07,0-.12.29-.32.4a1.82,1.82,0,0,1,.29-.47c-.19-.06-.34.35-.6.5.38-.44-.23.1-.4.18l.35-.34c.1-.35-.75.67-.59.3l.52-.43-.18.07.4-.38c-.35.23-.3.13-.25,0-.22.26-.62.62-.68.58.16-.24.34-.31.21-.33.23-.2.51-.45.23-.1l.34-.31c.19-.28-.05-.15-.09-.18a.19.19,0,0,1,0,.11l-.57.38a1.62,1.62,0,0,1,.33-.33c-.06,0-.23.16-.29.16a4.24,4.24,0,0,1,.73-.66l-.41.21a4.73,4.73,0,0,1,.37-.49c.09-.23-.67.41-.54.12a.74.74,0,0,1-.16.13c0-.13.23-.55-.21-.22l.41-.57c-.17.06-.51.73-.8.83s.36-.48.46-.65c-.27.23-.81.73-.51.23C138.3,165.64,138.25,165.73,138.31,165.71Zm-1-.44c.08-.07.31-.28.14-.05C137.07,165.63,137.22,165.42,137.3,165.27Zm-1.91-.09c.12-.11.08,0,0,.12S135.33,165.29,135.39,165.18Zm-5.47-1.88h0C129.79,163.42,129.85,163.37,129.93,163.3Zm.16-.19a.74.74,0,0,0-.19.06c.12,0,.13,0,.11,0S130.2,163.11,130.08,163.11Zm7.05,7.68.1-.08C137.36,170.64,137.25,170.71,137.14,170.79Z" transform="translate(-123.27 -158.72)"/><path class="cls-1" d="M136,164.8l-.17.2A1,1,0,0,0,136,164.8Z" transform="translate(-123.27 -158.72)"/><polygon class="cls-1" points="15.74 7.25 15.73 7.25 15.79 7.19 15.74 7.25"/><path class="cls-1" d="M134.36,162.65l-.19.16A.61.61,0,0,0,134.36,162.65Z" transform="translate(-123.27 -158.72)"/><path class="cls-1" d="M129.1,162.65l.15.06s.06-.08.13-.12C129.26,162.62,129.11,162.68,129.1,162.65Z" transform="translate(-123.27 -158.72)"/><path class="cls-1" d="M131.89,161.44c-.06,0,0,0-.07,0l-.22,0S131.8,161.49,131.89,161.44Z" transform="translate(-123.27 -158.72)"/><path class="cls-1" d="M130.63,162.2c.39-.1.25-.11.16-.14s0,0,0,0C130.24,162.18,130.44,162.19,130.63,162.2Z" transform="translate(-123.27 -158.72)"/><path class="cls-1" d="M130.78,162.05s0,0,0,0C130.53,162.05,130.71,162,130.78,162.05Z" transform="translate(-123.27 -158.72)"/><path class="cls-1" d="M129.78,163c.09-.06-.5.14-.35.07C128.93,163.23,130.08,163.1,129.78,163Z" transform="translate(-123.27 -158.72)"/><polygon class="cls-1" points="8.66 3.14 8.17 3.27 8.57 3.2 8.66 3.14"/><path class="cls-1" d="M131.67,162.28l.11-.11a.55.55,0,0,1-.17,0S131.52,162.32,131.67,162.28Z" transform="translate(-123.27 -158.72)"/><path class="cls-1" d="M131.61,162.2s0,0-.1,0A.12.12,0,0,0,131.61,162.2Z" transform="translate(-123.27 -158.72)"/><polygon class="cls-1" points="8.83 3.19 8.73 3.24 8.71 3.29 8.83 3.19"/><path class="cls-1" d="M131.82,163H132c.16-.06.25-.12.17-.12A1.29,1.29,0,0,0,131.82,163Z" transform="translate(-123.27 -158.72)"/><path class="cls-1" d="M133,162.32l-.35.17.58-.23Z" transform="translate(-123.27 -158.72)"/><path class="cls-1" d="M133.21,162.42c.16-.06.49-.13.42-.17S133.31,162.32,133.21,162.42Z" transform="translate(-123.27 -158.72)"/><polygon class="cls-1" points="9.72 4.93 9.71 4.92 8.85 5.48 9.72 4.93"/><path class="cls-1" d="M135.41,162.83c.14-.2-.49.39-.3.15-.2.14-.16.2-.33.32A2,2,0,0,0,135.41,162.83Z" transform="translate(-123.27 -158.72)"/><path class="cls-1" d="M134.78,163.3l-.13.08Z" transform="translate(-123.27 -158.72)"/><polygon class="cls-1" points="13.83 13.71 13.63 13.7 13.96 13.74 13.83 13.71"/><path class="cls-1" d="M137.85,172.62l-.64-.11.58.13S137.7,172.6,137.85,172.62Z" transform="translate(-123.27 -158.72)"/><path class="cls-1" d="M138,164.17l-.1.12c-.1.14-.1.15-.1.19Z" transform="translate(-123.27 -158.72)"/><polygon class="cls-1" points="15.02 6.3 15.01 6.28 14.66 6.75 15.02 6.3"/><path class="cls-1" d="M139.29,164.89s-.12,0-.12,0S138.82,165.45,139.29,164.89Z" transform="translate(-123.27 -158.72)"/></svg>