<svg id="Слой_1" data-name="Слой 1" xmlns="http://www.w3.org/2000/svg" viewBox="0 0 47.9 16.17"><defs><style>.cls-1{fill:#fff;}.cls-2{fill:none;stroke:#fff;stroke-linecap:round;stroke-linejoin:round;}</style></defs><title>wave-horizontal</title><path class="cls-1" d="M107.31,180.14a4,4,0,0,0,0,.46A3.32,3.32,0,0,0,107.31,180.14Z" transform="translate(-107.3 -174.28)"/><polygon class="cls-1" points="0.33 4.94 0.32 5.11 0.39 4.7 0.33 4.94"/><path class="cls-1" d="M107.93,179.26c.05-.71-.12.11-.15-.15v-.16l-.07.57C107.78,179.43,107.9,179.05,107.93,179.26Z" transform="translate(-107.3 -174.28)"/><path class="cls-1" d="M107.86,180.8c0-.28.06-.24,0-.09v.07S107.85,180.77,107.86,180.8Z" transform="translate(-107.3 -174.28)"/><path class="cls-1" d="M107.84,180.78s0,.23,0,0Z" transform="translate(-107.3 -174.28)"/><path class="cls-1" d="M108,180.62l-.07.24a2.56,2.56,0,0,1,0,.32A2.3,2.3,0,0,0,108,180.62Z" transform="translate(-107.3 -174.28)"/><path class="cls-1" d="M108.09,180.11l0,.1C108,180.28,108,180.31,108.09,180.11Z" transform="translate(-107.3 -174.28)"/><path class="cls-1" d="M108,180.43l.07-.22c0-.11.05-.34,0,.08C108.06,180.09,108,180.29,108,180.43Z" transform="translate(-107.3 -174.28)"/><path class="cls-1" d="M108,180.32a1.48,1.48,0,0,1,.07-.49C108,179.92,107.9,180.42,108,180.32Z" transform="translate(-107.3 -174.28)"/><path class="cls-1" d="M108,178.52v-.21l-.06.24C108,178.43,108,178.75,108,178.52Z" transform="translate(-107.3 -174.28)"/><path class="cls-1" d="M108.06,181l.12-.59-.06.16A3.08,3.08,0,0,1,108.06,181Z" transform="translate(-107.3 -174.28)"/><path class="cls-1" d="M108.18,180.44l.09-.24S108.21,180.27,108.18,180.44Z" transform="translate(-107.3 -174.28)"/><polygon class="cls-1" points="0.93 5.05 0.77 5.59 0.95 5.05 0.93 5.05"/><polygon class="cls-1" points="0.84 6.79 0.74 7.13 0.9 6.63 0.84 6.79"/><path class="cls-1" d="M108.22,181l-.19.65s.11-.28.19-.49C108.17,181.3,108.17,181.27,108.22,181Z" transform="translate(-107.3 -174.28)"/><path class="cls-1" d="M108.35,180.88l-.12.31Z" transform="translate(-107.3 -174.28)"/><path class="cls-1" d="M108.3,180.28c0,.09-.07.32-.08.43l.09-.42Z" transform="translate(-107.3 -174.28)"/><path class="cls-1" d="M108.32,180.28h0l0,0Z" transform="translate(-107.3 -174.28)"/><path class="cls-1" d="M108.3,180.28h0S108.31,180.23,108.3,180.28Z" transform="translate(-107.3 -174.28)"/><path class="cls-1" d="M108.27,179.73a3.2,3.2,0,0,0,.2-.83C108.39,179.18,108.37,179.39,108.27,179.73Z" transform="translate(-107.3 -174.28)"/><path class="cls-1" d="M108.41,179.76l0-.11c0,.11-.06.27-.09.38Z" transform="translate(-107.3 -174.28)"/><polygon class="cls-1" points="1.16 5.35 1.11 5.48 1.12 5.52 1.16 5.35"/><path class="cls-1" d="M108.42,180.48c.07-.17.09-.18.12-.21s0-.13,0-.14A1.42,1.42,0,0,0,108.42,180.48Z" transform="translate(-107.3 -174.28)"/><path class="cls-1" d="M108.38,180.35v0S108.4,180.28,108.38,180.35Z" transform="translate(-107.3 -174.28)"/><path class="cls-1" d="M108.72,180.33l0-.07,0,.07Z" transform="translate(-107.3 -174.28)"/><path class="cls-1" d="M108.53,180.06c0-.08,0,0-.08.14,0,0,0-.06.06-.06S108.54,180,108.53,180.06Z" transform="translate(-107.3 -174.28)"/><path class="cls-1" d="M108.45,180.7l.05-.23C108.47,180.6,108.42,180.81,108.45,180.7Z" transform="translate(-107.3 -174.28)"/><path class="cls-1" d="M108.36,180.44v0C108.33,180.55,108.35,180.51,108.36,180.44Z" transform="translate(-107.3 -174.28)"/><path class="cls-1" d="M108.36,180.44l.09-.24-.06.13Z" transform="translate(-107.3 -174.28)"/><path class="cls-1" d="M109.8,177.8c-.16.36-.35.69-.26.27a22.32,22.32,0,0,0-.81,2.18,2.91,2.91,0,0,1,.25-.52,4.13,4.13,0,0,1,.25-.82c.14-.17,0,.15,0,.35.16-.47.35-.63.62-1.3l-.16.2A2.82,2.82,0,0,0,109.8,177.8Z" transform="translate(-107.3 -174.28)"/><path class="cls-1" d="M108.69,180.2l0,0a3.87,3.87,0,0,1-.14.52c.09-.18.15-.31.2-.44l-.05-.07Z" transform="translate(-107.3 -174.28)"/><path class="cls-1" d="M108.59,180.23c.15-.41.25-.57.38-1-.07,0-.15.33-.24.5.11-.08-.1.22-.12.47a.31.31,0,0,1-.07.1,1.77,1.77,0,0,1,0,.2v0h0l0-.05h0l.05-.15a.33.33,0,0,1-.05.15l0,.06h0l.14-.21C108.66,180.18,108.64,180.19,108.59,180.23Z" transform="translate(-107.3 -174.28)"/><path class="cls-1" d="M108.72,178l0,.1S108.73,178,108.72,178Z" transform="translate(-107.3 -174.28)"/><path class="cls-1" d="M108.71,178.28c0,.06-.07.22-.08.17a1.91,1.91,0,0,1,.07-.34,1.35,1.35,0,0,0-.12.5l0-.06a4.37,4.37,0,0,1-.09.75C108.59,178.93,108.65,178.66,108.71,178.28Z" transform="translate(-107.3 -174.28)"/><path class="cls-1" d="M108.72,179.16l.14-.18.06-.37-.06.22C108.84,178.73,108.78,179,108.72,179.16Z" transform="translate(-107.3 -174.28)"/><polygon class="cls-1" points="1.34 6.25 1.17 6.67 1.44 6.08 1.34 6.25"/><polygon class="cls-1" points="1.43 6.22 1.28 6.58 1.38 6.37 1.43 6.22"/><path class="cls-1" d="M116.4,182.43l.11,0Z" transform="translate(-107.3 -174.28)"/><path class="cls-1" d="M116.33,182.23l-.17.09Z" transform="translate(-107.3 -174.28)"/><path class="cls-1" d="M110.25,181.65c-.27.26-.69.65-.35.36l.33-.28C110.15,181.77,110.18,181.72,110.25,181.65Z" transform="translate(-107.3 -174.28)"/><path class="cls-1" d="M113.47,181.82l.11-.08-.37.18Z" transform="translate(-107.3 -174.28)"/><path class="cls-1" d="M115,180.94l-.21.19A1.8,1.8,0,0,0,115,180.94Z" transform="translate(-107.3 -174.28)"/><path class="cls-1" d="M117.33,183.14l.4-.2S117.52,183,117.33,183.14Z" transform="translate(-107.3 -174.28)"/><path class="cls-1" d="M109.45,180.74a1,1,0,0,0-.11.25C109.47,180.77,109.67,180.45,109.45,180.74Z" transform="translate(-107.3 -174.28)"/><path class="cls-1" d="M112.32,184.56a1.17,1.17,0,0,0,.24-.1A.93.93,0,0,0,112.32,184.56Z" transform="translate(-107.3 -174.28)"/><path class="cls-1" d="M109.38,181l.05-.09c-.06,0-.1.09-.1.05C109.24,181.14,109.18,181.25,109.38,181Z" transform="translate(-107.3 -174.28)"/><path class="cls-1" d="M118.68,185.19l0,0C118.69,185.19,118.69,185.18,118.68,185.19Z" transform="translate(-107.3 -174.28)"/><path class="cls-1" d="M118.77,189.65s0,0-.08,0S118.72,189.71,118.77,189.65Z" transform="translate(-107.3 -174.28)"/><path class="cls-1" d="M108.89,180.8s0,0,0,0Z" transform="translate(-107.3 -174.28)"/><path class="cls-1" d="M109.59,179.24l.1-.18Z" transform="translate(-107.3 -174.28)"/><path class="cls-1" d="M111.25,179.05h0C111.3,179,111.29,179,111.25,179.05Z" transform="translate(-107.3 -174.28)"/><path class="cls-1" d="M109,180.62l0,.12Z" transform="translate(-107.3 -174.28)"/><path class="cls-1" d="M108.87,180.8v0C108.84,180.82,108.82,180.86,108.87,180.8Z" transform="translate(-107.3 -174.28)"/><path class="cls-1" d="M108.91,180.79s0,0,0-.05l0,.06Z" transform="translate(-107.3 -174.28)"/><path class="cls-1" d="M117,185.31l0,0C117.1,185.24,117.07,185.25,117,185.31Z" transform="translate(-107.3 -174.28)"/><path class="cls-1" d="M114.24,179.48h0Z" transform="translate(-107.3 -174.28)"/><path class="cls-1" d="M114.57,179.39c-.47.27-.43.21-.36.11l-1,.75Z" transform="translate(-107.3 -174.28)"/><path class="cls-1" d="M116.75,182.79l.31-.24c.6-.25.43-.09.88-.41-1.19.66-.24-.14-1.43.51l.23-.17s.07,0,.06,0c.53-.38-.89.42-.78.23a1,1,0,0,1,.39-.26l-.34.08s.22-.14.21-.11l-.16-.07,0,0-.64.25c.15-.12.13-.05.28-.14l-.32.09c.29-.2.62-.3.6-.23,1.16-.71-.33.11.29-.4l.18,0c.66-.41.38-.32.77-.62a7.72,7.72,0,0,1-1.32.81c.08-.07.11-.12-.15,0,.42-.23.3-.21.25-.25l.56-.3a6.13,6.13,0,0,0-.74.31,3.63,3.63,0,0,1,.81-.55c0-.14-.66.44-.83.39.17-.2-.09-.13-.48,0,.16-.16.35-.18.5-.29l-.47.2a1.11,1.11,0,0,1,.21-.13,8,8,0,0,1-.75.33c-.62.33.82-.64.08-.32.15-.11.35-.18.56-.31a6.61,6.61,0,0,0-1,.36l.32-.29a5.85,5.85,0,0,1-1.35.68l-.43.31-.35.08a4.2,4.2,0,0,1,.52-.28l-.14.06a4.62,4.62,0,0,1,.84-.48l-.32.23c.35-.17.73-.37,1.06-.56l-.17.05.23-.13c.06,0-.07,0-.22.09l.6-.38-.25.14.3-.36a13.09,13.09,0,0,1-2,.75c.47-.24.73-.44,1.26-.77-.53.39.31,0,.25.12a1.17,1.17,0,0,1,.39-.26l-.6.17a1.18,1.18,0,0,0,.46-.38c-.83.56-.63.25-.92.36.28-.18.58-.36.55-.24.59-.48-1.05.53-.56.12,0,0,0,0,.13,0-.28.12-.14-.1.12-.24h0c0-.18-.22-.35-.93.12l1-.66q-1.25.71-2.47,1.47a27.2,27.2,0,0,1,2.37-1.64c.06-.09.14-.19-.11-.1a8,8,0,0,1-.89.68,9.22,9.22,0,0,0,.81-.8,5.88,5.88,0,0,1-1,.72c.14-.1.9-.69,1-.74l-1,.58a8.75,8.75,0,0,0,1-.8c-.17.15-.06-.11-.16-.07l-.17.21c0-.23-1.32.87-1.36.73a8.37,8.37,0,0,0,1.19-1c-.47.33-2.22,1.67-2.61,1.91l.23-.23-.33.2a31.1,31.1,0,0,1,2.76-2c.16-.21.28-.26.2-.31.21-.23.39-.27.42-.26v-.3c-.5.45-.62.32-1,.71l.68-.29c-.5.44-1.52,1.17-1.52,1,.17-.21.89-.8,1.06-.95-.18.14-.42.2-.31.08l.3-.2c.12-.24-.74.52-.34,0,0-.05.54-.69.25-.41-.5.59-2.18,2.27-2.6,2.66,0,0,.43-.62.67-.92.38-.47,1-1,1.37-1.39a3.9,3.9,0,0,1-.36.32c.08-.14.4-.4.29-.4-.47.49-.08-.14-.42.4-.19.1,0-.15-.06-.19a11,11,0,0,1-1.22,1.19c.12-.13.25-.31.31-.39s.08-.41,0-.5a3.09,3.09,0,0,1,.36-.56c-.09.08-.24.26-.28.25.28-.53.13,0,.5-.62a2.86,2.86,0,0,1-.6.54c-.34.51,0,.17.23,0a12.76,12.76,0,0,1-1.4,1.59c-.18.12.28-.47.2-.38-.05-.23-.91,1.17-.68.6s.55-.92.74-1.26c.18-.14-.07.35,0,.35l.08-.24c.12-.14.24-.23.18-.09.21-.43-.22-.22-.14-.68a2.14,2.14,0,0,0-.32.49l.07,0c-.17.4-.35.49-.4.69s-.45.65-.39.4l.26-.56c-.08.16-.12.35,0,.19-.14.23.26-.8-.11-.09l-.14.41c-.18.26-.48.83-.44.63-.22.57,0-.06-.22.61.34-.82.07.09.43-.77-.32.76-.1.34-.38,1,.09-.18.16-.35.15-.25l.09-.15h0v0s0,0,0,0l.12-.28a3,3,0,0,1,.42-.56c0,.1-.12.2-.21.39l.21-.3a5.9,5.9,0,0,1-.49.88l0,0c-.1.23-.13.32,0,.17,0,.09.31-.4.11-.11l.21-.19-.06.09c0,.09.56-.5.14.21.09-.07.2-.17.15,0l-.24.31c.11-.08-.18.35.09,0-.66.81,0,.24-.13.43l.35-.36c0,.05.14,0,.32-.12l.32-.32c.3-.22-.14.32-.05.34-.13.11-.11.07,0,0-.69.74.69-.34.2.21.14-.09.11,0,0,0h0a0,0,0,0,0,0,0l-.17.18.17-.17s.08,0,.18-.05l-.37.31h0c-.12.13.19-.13.46-.36l.25-.15c-.6.5.25-.1-.38.43a7.9,7.9,0,0,0,1-.57c-.09.07-.12.11-.14.1s-.12.17.09.05l-.49.37.71-.43a4.17,4.17,0,0,1-.85.63c.65-.34.27-.09.91-.43l-.33.22s.5-.24.24,0c-.58.48.11.38-.38.91,1-.65-.4.35.37-.12a3.67,3.67,0,0,1-.57.36c.28-.06-.3.34.39,0-.23.15-.36.19-.49.28.06,0,.22-.1.09,0a1.56,1.56,0,0,1-.32.16,6.64,6.64,0,0,0,1.52-.76c-.3.24-.24.23.23,0-.22.15-.44.31-.55.3s-.22.39.33.07c-.14.09,0,.07.05,0s0,.13.05.17l.08-.07c.69-.35.18,0,.3,0l-.07,0c-.41.4.27-.07-.22.37L113,183c.91-.48-.47.41-.08.3l.23-.16c.33-.13-1.17.79-1.26.9a.52.52,0,0,1-.2.07c-.47.4.56-.29.73-.27a4.59,4.59,0,0,0-.79.48c-.23.16,1.06-.36.53,0a2.66,2.66,0,0,1,.63-.34c.11,0-.78.64,0,.3l-.17.11a2.82,2.82,0,0,0,.8-.21c-1.43.84.87-.1-.47.64l.15.11-.14.07c0,.15.3,0,.64-.15a1.34,1.34,0,0,1-.28.17c-.19.29-.12.28.6,0l-.42.26c.26-.12-.55.6,0,.45l-.2.1c.59-.16-.91,1.13.64.21l.43-.14c0-.21.66-.42.88-.63.12,0-.37.43-.49.42l.07-.06c-.79.5-.18.34-.7.7.23.23,0,.81.19,1.1l.54-.5,0,.11c-.11.13-.41.4-.44.32-.29.3.35-.12.47-.23-.11.31-.69.51-.67.56l.09,0,.05-.07c.27-.15.5-.36.55-.27s-.31.33-.31.37,0,.06,0,0l.07.16.37-.45c.25-.15.07.12.49-.39-.65.78.13.63,0,.9.33-.25.4-.2.47-.1,0-.11.44-.63.46-.52-.84,1.05-.21.56-.68,1.4.3-.57.35,0,.74-.79,0,.14-.27.43-.38.73.44-.34.22.57.59.51a3.37,3.37,0,0,1,.31-.64q-.12.42-.22.86c.09-.06.43-.92.3-.32a1.25,1.25,0,0,1,.16-.4c.08.49.41.42.67.41s.49,0,.68.83c0-.35,0-.38.07-.38a4.93,4.93,0,0,1,.06-.67q.07.34.16.68c.08-.66.24,0,.27-.65l-.07.11c.09-.74-.05-1.67,0-2.62-.12.84,0-1.27-.21-.07,0-.2.05-.3.07-.53-.07.41-.11.49-.12.3l0-.1c-.13.08-.13-.29-.14-.6l-.12.46a1.66,1.66,0,0,1,.05-.34c-.23.68.05.07-.18.82.23-.94-.19-.1.16-1.13,0,0-.18.52-.21.5l.1-.28-.15.35a3.85,3.85,0,0,1,.23-.64s0-.06.05-.08c.12-.33-.1.09-.07,0l-.05.17c-.21.24-.1-.17-.49.28l-.11.19c-.3.29.08-.24-.11-.14l0,0c-.15.17-.24.24-.25.21.18-.2.27-.42.48-.64-.35.3-.25.27-.84.85l.23-.3c-.24.24-.35.37-.46.39.25-.2.35-.45.66-.73.48-.67-.68.47.1-.42-.76.69-.33.48-.5.62s-.57.52-.53.41.88-1,.81-1,.06,0,.06,0c.17-.2-.31.2,0-.12-.48.4,0-.06-.61.45l.2-.06c-.19.11-.93.67-.65.3.13-.1.31-.21.41-.27s-.15.06,0-.12c.61-.51.2,0,.69-.38.24-.23-.5.3.17-.24-.85.67.05-.16-.63.31l.37-.3c-.06,0-.25.16-.25.14l.5-.36c-.44.29.3-.36.05-.22.07.07-.44.37-.68.62-.59.28.93-.82.67-.79.06,0-.19.22-.38.33a2.48,2.48,0,0,1,.38-.37c-.14,0-.39.3-.65.44.45-.36-.22.1-.4.17l.4-.28c.19-.27-.85.54-.6.23l.58-.33-.18,0,.46-.3c-.37.17-.3.1-.2,0a2.48,2.48,0,0,1-.78.43c.22-.19.4-.23.29-.26.26-.15.59-.34.24-.07l.39-.23c.25-.21,0-.13,0-.15a.25.25,0,0,1-.08.09l-.63.26a2.2,2.2,0,0,1,.4-.24,2.44,2.44,0,0,1-.31.1,6.72,6.72,0,0,1,.86-.47l-.43.14c.14-.1.37-.29.5-.35s-.73.28-.51,0a.83.83,0,0,1-.19.08c0-.12.42-.42-.1-.24l.58-.4c-.18,0-.73.51-1,.52s.5-.33.66-.45c-.33.14-1,.42-.54.07C116.77,182.72,116.69,182.79,116.75,182.79Zm-.75-.73c.1,0,.39-.15.15,0C115.64,182.31,115.87,182.16,116,182.06Zm-1.8-.84c.15-.07.09,0-.05.11S114.1,181.3,114.19,181.22Zm-5-.68v0C109.16,180.69,109.19,180.62,109.23,180.53Zm.06-.2-.1.17c.06-.1.08-.11.08-.07S109.35,180.24,109.28,180.33Zm5.49,7.37.08-.1C115,187.54,114.88,187.61,114.77,187.7Z" transform="translate(-107.3 -174.28)"/><path class="cls-1" d="M114.86,181l-.22.14A.91.91,0,0,0,114.86,181Z" transform="translate(-107.3 -174.28)"/><polygon class="cls-1" points="9.95 8.89 9.95 8.9 10.03 8.86 9.95 8.89"/><path class="cls-1" d="M112.85,177.91a1.14,1.14,0,0,1-.14.21C112.79,178,112.85,178,112.85,177.91Z" transform="translate(-107.3 -174.28)"/><path class="cls-1" d="M108.67,180.93l.08-.1s0-.08,0-.16A2.36,2.36,0,0,1,108.67,180.93Z" transform="translate(-107.3 -174.28)"/><path class="cls-1" d="M109.45,178c0,.05,0,0,0,.06l-.07.21S109.46,178.13,109.45,178Z" transform="translate(-107.3 -174.28)"/><path class="cls-1" d="M109.31,179.46c.16-.37.08-.26,0-.21h0C109.1,179.77,109.2,179.61,109.31,179.46Z" transform="translate(-107.3 -174.28)"/><path class="cls-1" d="M109.32,179.26s0,0,0,0C109.2,179.46,109.28,179.31,109.32,179.26Z" transform="translate(-107.3 -174.28)"/><path class="cls-1" d="M109.09,180.53c0-.1-.26.45-.18.3C108.65,181.28,109.27,180.32,109.09,180.53Z" transform="translate(-107.3 -174.28)"/><polygon class="cls-1" points="2.53 3.95 2.34 4.41 2.52 4.05 2.53 3.95"/><path class="cls-1" d="M110,178.7v-.15a.64.64,0,0,1-.09.14S109.89,178.84,110,178.7Z" transform="translate(-107.3 -174.28)"/><path class="cls-1" d="M109.87,178.7s0,0-.08.05S109.83,178.74,109.87,178.7Z" transform="translate(-107.3 -174.28)"/><polygon class="cls-1" points="2.67 3.85 2.65 3.96 2.67 4.01 2.67 3.85"/><path class="cls-1" d="M110.47,179.11l.14-.08c.11-.14.15-.23.09-.19A1.26,1.26,0,0,0,110.47,179.11Z" transform="translate(-107.3 -174.28)"/><path class="cls-1" d="M111,177.84a2.8,2.8,0,0,1-.17.34l.34-.52Z" transform="translate(-107.3 -174.28)"/><path class="cls-1" d="M111.33,177.86c.1-.14.38-.33.27-.37C111.49,177.63,111.35,177.7,111.33,177.86Z" transform="translate(-107.3 -174.28)"/><polygon class="cls-1" points="4.45 4.95 4.43 4.94 3.73 5.68 4.45 4.95"/><path class="cls-1" d="M114.32,178.43c.13-.24-.5.38-.32.11-.2.13-.15.22-.32.33C113.9,178.76,113.81,178.88,114.32,178.43Z" transform="translate(-107.3 -174.28)"/><path class="cls-1" d="M113.67,178.87l-.14.07Z" transform="translate(-107.3 -174.28)"/><polygon class="cls-1" points="11.74 15.95 11.82 16.17 11.77 15.82 11.74 15.95"/><path class="cls-1" d="M119.21,189.49v.65l.05-.58S119.22,189.64,119.21,189.49Z" transform="translate(-107.3 -174.28)"/><path class="cls-1" d="M117.07,181.3l-.14.07c-.14.09-.15.11-.16.14Z" transform="translate(-107.3 -174.28)"/><polygon class="cls-1" points="9.69 7.91 9.7 7.89 9.2 8.19 9.69 7.91"/><path class="cls-1" d="M117.93,182.32s-.12,0-.11,0S117.29,182.69,117.93,182.32Z" transform="translate(-107.3 -174.28)"/><path class="cls-1" d="M131.27,180.14a4,4,0,0,0,0,.46A3.32,3.32,0,0,0,131.27,180.14Z" transform="translate(-107.3 -174.28)"/><polygon class="cls-1" points="24.28 4.94 24.27 5.11 24.34 4.7 24.28 4.94"/><path class="cls-1" d="M131.88,179.26c.05-.71-.12.11-.15-.15v-.16l-.07.57C131.73,179.43,131.85,179.05,131.88,179.26Z" transform="translate(-107.3 -174.28)"/><path class="cls-1" d="M131.81,180.8c0-.28.06-.24,0-.09v.07S131.8,180.78,131.81,180.8Z" transform="translate(-107.3 -174.28)"/><path class="cls-1" d="M131.79,180.78s0,.23,0,0Z" transform="translate(-107.3 -174.28)"/><path class="cls-1" d="M131.92,180.63l-.07.24a2.56,2.56,0,0,1,0,.32A2.3,2.3,0,0,0,131.92,180.63Z" transform="translate(-107.3 -174.28)"/><path class="cls-1" d="M132,180.11l0,.1C132,180.28,132,180.31,132,180.11Z" transform="translate(-107.3 -174.28)"/><path class="cls-1" d="M131.93,180.43l.07-.22c0-.11.05-.34,0,.08C132,180.09,132,180.29,131.93,180.43Z" transform="translate(-107.3 -174.28)"/><path class="cls-1" d="M131.93,180.32a1.48,1.48,0,0,1,.07-.49C131.91,179.92,131.85,180.42,131.93,180.32Z" transform="translate(-107.3 -174.28)"/><path class="cls-1" d="M132,178.52v-.21l-.06.24C131.94,178.43,132,178.75,132,178.52Z" transform="translate(-107.3 -174.28)"/><path class="cls-1" d="M132,181l.12-.59-.06.16A3.09,3.09,0,0,1,132,181Z" transform="translate(-107.3 -174.28)"/><path class="cls-1" d="M132.13,180.44l.09-.24S132.16,180.27,132.13,180.44Z" transform="translate(-107.3 -174.28)"/><polygon class="cls-1" points="24.89 5.05 24.72 5.59 24.9 5.05 24.89 5.05"/><polygon class="cls-1" points="24.79 6.8 24.69 7.13 24.85 6.63 24.79 6.8"/><path class="cls-1" d="M132.17,181l-.19.65s.11-.28.19-.49C132.13,181.3,132.12,181.27,132.17,181Z" transform="translate(-107.3 -174.28)"/><path class="cls-1" d="M132.3,180.88l-.12.31Z" transform="translate(-107.3 -174.28)"/><path class="cls-1" d="M132.25,180.28c0,.09-.07.32-.08.43l.09-.42Z" transform="translate(-107.3 -174.28)"/><path class="cls-1" d="M132.27,180.28h0l0,0Z" transform="translate(-107.3 -174.28)"/><path class="cls-1" d="M132.25,180.28h0S132.27,180.23,132.25,180.28Z" transform="translate(-107.3 -174.28)"/><path class="cls-1" d="M132.22,179.74a3.2,3.2,0,0,0,.2-.83C132.34,179.18,132.33,179.39,132.22,179.74Z" transform="translate(-107.3 -174.28)"/><path class="cls-1" d="M132.36,179.76l0-.11c0,.11-.06.27-.09.38Z" transform="translate(-107.3 -174.28)"/><polygon class="cls-1" points="25.11 5.35 25.06 5.48 25.07 5.52 25.11 5.35"/><path class="cls-1" d="M132.37,180.48c.07-.17.09-.18.12-.21s0-.13,0-.14A1.42,1.42,0,0,0,132.37,180.48Z" transform="translate(-107.3 -174.28)"/><path class="cls-1" d="M132.33,180.35v0S132.35,180.28,132.33,180.35Z" transform="translate(-107.3 -174.28)"/><path class="cls-1" d="M132.67,180.33l0-.07,0,.07Z" transform="translate(-107.3 -174.28)"/><path class="cls-1" d="M132.48,180.06c0-.08,0,0-.08.14,0,0,0-.06.06-.06S132.49,180,132.48,180.06Z" transform="translate(-107.3 -174.28)"/><path class="cls-1" d="M132.4,180.7l.05-.23C132.42,180.6,132.37,180.81,132.4,180.7Z" transform="translate(-107.3 -174.28)"/><path class="cls-1" d="M132.31,180.44v0C132.29,180.55,132.3,180.51,132.31,180.44Z" transform="translate(-107.3 -174.28)"/><path class="cls-1" d="M132.31,180.44l.09-.24-.06.13Z" transform="translate(-107.3 -174.28)"/><path class="cls-1" d="M133.76,177.8c-.16.36-.35.69-.26.27a22.33,22.33,0,0,0-.81,2.18,2.91,2.91,0,0,1,.25-.52,4.13,4.13,0,0,1,.25-.82c.14-.17,0,.15,0,.35.16-.47.35-.63.62-1.3l-.16.2A2.82,2.82,0,0,0,133.76,177.8Z" transform="translate(-107.3 -174.28)"/><path class="cls-1" d="M132.64,180.2l0,0a3.87,3.87,0,0,1-.14.52c.09-.18.15-.31.2-.44l-.05-.07Z" transform="translate(-107.3 -174.28)"/><path class="cls-1" d="M132.54,180.23c.15-.41.25-.57.38-1-.07,0-.15.33-.24.5.11-.08-.1.22-.12.47a.31.31,0,0,1-.07.1,1.77,1.77,0,0,1,0,.2v0h0l0-.05h0l.05-.15a.33.33,0,0,1-.05.15l0,.06h0l.14-.21C132.61,180.18,132.59,180.19,132.54,180.23Z" transform="translate(-107.3 -174.28)"/><path class="cls-1" d="M132.67,178l0,.1S132.68,178,132.67,178Z" transform="translate(-107.3 -174.28)"/><path class="cls-1" d="M132.66,178.28c0,.06-.07.22-.08.17a1.9,1.9,0,0,1,.07-.34,1.35,1.35,0,0,0-.12.5l0-.06a4.37,4.37,0,0,1-.09.75C132.54,178.93,132.6,178.66,132.66,178.28Z" transform="translate(-107.3 -174.28)"/><path class="cls-1" d="M132.68,179.16l.14-.18.07-.37-.06.22C132.79,178.73,132.73,179,132.68,179.16Z" transform="translate(-107.3 -174.28)"/><polygon class="cls-1" points="25.3 6.25 25.12 6.67 25.39 6.08 25.3 6.25"/><polygon class="cls-1" points="25.38 6.22 25.23 6.58 25.34 6.37 25.38 6.22"/><path class="cls-1" d="M140.36,182.43l.11,0Z" transform="translate(-107.3 -174.28)"/><path class="cls-1" d="M140.28,182.23l-.17.09Z" transform="translate(-107.3 -174.28)"/><path class="cls-1" d="M134.2,181.65c-.27.26-.69.65-.35.36l.33-.28C134.11,181.77,134.13,181.72,134.2,181.65Z" transform="translate(-107.3 -174.28)"/><path class="cls-1" d="M137.42,181.82l.11-.08-.37.18Z" transform="translate(-107.3 -174.28)"/><path class="cls-1" d="M139,180.95l-.21.19A1.8,1.8,0,0,0,139,180.95Z" transform="translate(-107.3 -174.28)"/><path class="cls-1" d="M141.28,183.14l.4-.2S141.47,183,141.28,183.14Z" transform="translate(-107.3 -174.28)"/><path class="cls-1" d="M133.4,180.74a1,1,0,0,0-.11.25C133.42,180.77,133.62,180.45,133.4,180.74Z" transform="translate(-107.3 -174.28)"/><path class="cls-1" d="M136.27,184.56a1.17,1.17,0,0,0,.24-.1A.93.93,0,0,0,136.27,184.56Z" transform="translate(-107.3 -174.28)"/><path class="cls-1" d="M133.34,181l.05-.09c-.06,0-.1.09-.1.05C133.19,181.14,133.14,181.25,133.34,181Z" transform="translate(-107.3 -174.28)"/><path class="cls-1" d="M142.63,185.19l0,0C142.64,185.19,142.64,185.18,142.63,185.19Z" transform="translate(-107.3 -174.28)"/><path class="cls-1" d="M142.72,189.65s0,0-.08,0S142.67,189.71,142.72,189.65Z" transform="translate(-107.3 -174.28)"/><path class="cls-1" d="M132.84,180.81s0,0,0,0Z" transform="translate(-107.3 -174.28)"/><path class="cls-1" d="M133.55,179.24l.1-.18Z" transform="translate(-107.3 -174.28)"/><path class="cls-1" d="M135.2,179.05h0C135.25,179,135.24,179,135.2,179.05Z" transform="translate(-107.3 -174.28)"/><path class="cls-1" d="M132.91,180.62l0,.12Z" transform="translate(-107.3 -174.28)"/><path class="cls-1" d="M132.82,180.8v0C132.79,180.82,132.77,180.87,132.82,180.8Z" transform="translate(-107.3 -174.28)"/><path class="cls-1" d="M132.87,180.79s0,0,0-.05l0,.06Z" transform="translate(-107.3 -174.28)"/><path class="cls-1" d="M140.93,185.31l0,0C141.05,185.24,141,185.25,140.93,185.31Z" transform="translate(-107.3 -174.28)"/><path class="cls-1" d="M138.19,179.48h0Z" transform="translate(-107.3 -174.28)"/><path class="cls-1" d="M138.52,179.39c-.47.27-.43.21-.36.11l-1,.75Z" transform="translate(-107.3 -174.28)"/><path class="cls-1" d="M140.7,182.79l.31-.24c.6-.25.43-.09.88-.41-1.19.66-.24-.14-1.43.51l.23-.17s.07,0,.06,0c.53-.38-.89.42-.78.23a1,1,0,0,1,.39-.26l-.34.08s.22-.14.21-.11l-.16-.07,0,0-.64.25c.15-.12.13-.05.28-.14l-.32.09c.29-.2.62-.3.6-.23,1.16-.71-.33.11.29-.4l.18,0c.66-.41.38-.32.77-.62a7.72,7.72,0,0,1-1.32.81c.08-.07.11-.12-.15,0,.42-.23.3-.21.25-.25l.56-.3a6.13,6.13,0,0,0-.74.31,3.63,3.63,0,0,1,.81-.55c0-.14-.66.44-.83.39.17-.2-.09-.13-.48,0,.16-.16.35-.18.5-.29l-.47.2a1.11,1.11,0,0,1,.21-.13,8,8,0,0,1-.75.33c-.62.33.82-.64.08-.32.15-.11.35-.18.56-.31a6.62,6.62,0,0,0-1,.36l.32-.29a5.85,5.85,0,0,1-1.35.68l-.43.31-.35.08a4.2,4.2,0,0,1,.52-.28L137,182a4.62,4.62,0,0,1,.84-.48l-.32.23c.35-.17.73-.37,1.06-.56l-.17.05.23-.13c.06,0-.07,0-.22.09l.6-.38-.25.14.3-.36a13.09,13.09,0,0,1-2,.75c.47-.24.73-.44,1.26-.77-.53.39.31,0,.25.12a1.17,1.17,0,0,1,.39-.26l-.6.17a1.18,1.18,0,0,0,.46-.38c-.83.56-.63.25-.92.36.28-.18.58-.36.55-.24.59-.48-1.05.53-.56.12,0,0,0,0,.13,0-.28.12-.14-.1.12-.24h0c0-.18-.22-.35-.93.12l1-.66q-1.25.71-2.47,1.47a27.2,27.2,0,0,1,2.37-1.64c.06-.09.14-.19-.11-.1a7.94,7.94,0,0,1-.89.68,9.22,9.22,0,0,0,.81-.8,5.88,5.88,0,0,1-1,.72c.14-.1.9-.69,1-.74l-1,.58a8.76,8.76,0,0,0,1-.8c-.17.15-.06-.11-.16-.07l-.17.21c0-.23-1.32.87-1.36.73a8.36,8.36,0,0,0,1.19-1c-.47.33-2.22,1.67-2.61,1.91l.23-.23-.33.2a31.1,31.1,0,0,1,2.76-2c.16-.21.28-.26.2-.31.21-.23.39-.27.42-.26v-.3c-.5.45-.62.32-1,.71l.68-.29c-.5.44-1.52,1.17-1.52,1,.17-.21.89-.8,1.06-.95-.18.14-.42.2-.31.08l.3-.2c.12-.24-.74.52-.34,0,0-.05.54-.69.25-.41-.5.59-2.18,2.27-2.6,2.66,0,0,.43-.62.67-.92.38-.47,1-1,1.37-1.39a3.9,3.9,0,0,1-.36.32c.08-.14.4-.4.29-.4-.47.49-.08-.14-.42.4-.19.1,0-.15-.06-.19a11,11,0,0,1-1.22,1.19c.12-.13.25-.31.31-.39s.08-.41,0-.5a3.09,3.09,0,0,1,.36-.56c-.09.08-.24.26-.28.25.28-.53.13,0,.5-.62a2.86,2.86,0,0,1-.6.54c-.34.51,0,.17.23,0a12.76,12.76,0,0,1-1.4,1.59c-.18.12.28-.47.2-.38-.05-.23-.91,1.17-.68.6s.55-.92.74-1.26c.18-.14-.07.35,0,.35l.08-.24c.12-.14.24-.23.18-.09.21-.43-.22-.22-.14-.68a2.14,2.14,0,0,0-.32.49l.07,0c-.17.4-.35.49-.4.69s-.45.65-.39.4l.26-.56c-.08.16-.12.35,0,.19-.14.23.26-.8-.11-.09l-.14.41c-.18.26-.48.83-.44.63-.22.57,0-.06-.22.61.34-.82.07.09.43-.77-.32.76-.1.34-.38,1,.09-.18.16-.35.15-.25l.09-.15h0v0s0,0,0,0l.12-.28a3,3,0,0,1,.42-.56c0,.1-.12.2-.21.39l.21-.3a5.9,5.9,0,0,1-.49.88l0,0c-.1.23-.13.32,0,.17,0,.09.31-.4.11-.11l.21-.19-.06.09c0,.09.56-.5.14.21.09-.07.2-.17.15,0l-.24.31c.11-.08-.18.35.09,0-.66.81,0,.24-.13.43l.35-.36c0,.05.14,0,.32-.12l.32-.32c.3-.22-.14.32-.05.34-.13.11-.11.07,0,0-.69.74.69-.34.2.21.14-.09.11,0,0,0h0a0,0,0,0,0,0,0l-.17.18.17-.17s.08,0,.18-.05l-.37.31h0c-.12.13.19-.13.46-.36l.25-.15c-.6.5.25-.1-.38.43a7.9,7.9,0,0,0,1-.57c-.09.07-.12.11-.14.1s-.12.17.09.05l-.49.37.71-.43a4.17,4.17,0,0,1-.85.63c.65-.34.27-.09.91-.43l-.33.22s.5-.24.24,0c-.58.48.11.38-.38.91,1-.65-.4.35.37-.12a3.67,3.67,0,0,1-.57.36c.28-.06-.3.34.39,0-.23.15-.36.19-.49.28.06,0,.22-.1.09,0a1.56,1.56,0,0,1-.32.16,6.64,6.64,0,0,0,1.52-.76c-.3.24-.24.23.23,0-.22.15-.44.31-.55.3s-.22.39.33.07c-.14.09,0,.07.05,0s0,.13.05.17l.08-.07c.69-.35.18,0,.3,0l-.07,0c-.41.4.27-.07-.22.37l.42-.24c.91-.48-.47.41-.08.3l.23-.16c.33-.13-1.17.79-1.26.9a.52.52,0,0,1-.2.07c-.47.4.56-.29.73-.27a4.59,4.59,0,0,0-.79.48c-.23.16,1.06-.36.53,0a2.66,2.66,0,0,1,.63-.34c.11,0-.78.64,0,.3l-.17.11a2.82,2.82,0,0,0,.8-.21c-1.43.84.87-.1-.47.64l.15.11-.14.07c0,.15.3,0,.64-.15a1.34,1.34,0,0,1-.28.17c-.19.29-.12.28.6,0l-.42.26c.26-.12-.55.6,0,.45l-.2.1c.59-.16-.91,1.13.64.2l.43-.14c0-.21.66-.42.88-.63.12,0-.37.43-.49.42l.07-.06c-.79.5-.18.34-.7.7.23.23,0,.81.19,1.1l.54-.5,0,.11c-.11.13-.41.4-.44.32-.29.3.34-.12.47-.23-.11.31-.69.51-.67.56l.09,0,.05-.07c.27-.16.5-.36.55-.27s-.31.33-.31.37,0,.06,0,0l.07.16.37-.45c.25-.15.07.12.49-.39-.65.78.13.63,0,.9.33-.25.4-.2.47-.1,0-.11.44-.63.46-.52-.84,1.05-.21.56-.68,1.4.3-.57.35,0,.74-.79,0,.14-.27.43-.38.73.44-.34.22.57.59.51a3.37,3.37,0,0,1,.31-.64q-.12.42-.22.86c.09-.06.43-.92.3-.32a1.25,1.25,0,0,1,.16-.4c.08.49.41.42.67.41s.49,0,.68.83c0-.35,0-.38.07-.38a4.93,4.93,0,0,1,.06-.67q.07.34.16.68c.08-.66.24,0,.27-.65l-.07.11c.09-.74-.05-1.67,0-2.62-.12.84,0-1.27-.21-.07,0-.2.05-.3.07-.53-.07.41-.11.49-.12.3l0-.1c-.13.08-.13-.29-.14-.6l-.12.46a1.66,1.66,0,0,1,.05-.34c-.23.68.05.07-.18.82.23-.94-.19-.1.16-1.13,0,0-.18.52-.21.5l.1-.28-.15.35a3.84,3.84,0,0,1,.23-.64s0-.06.05-.08c.12-.33-.1.09-.07,0l-.05.17c-.21.24-.1-.17-.49.28l-.11.19c-.3.29.08-.24-.11-.14l0,0c-.15.17-.24.24-.25.21.18-.2.27-.42.48-.64-.35.3-.25.27-.84.85l.23-.3c-.24.24-.35.37-.46.39.25-.2.35-.45.66-.73.48-.67-.68.47.1-.42-.76.69-.33.48-.5.62s-.57.52-.53.41.88-1,.81-1,.06,0,.06,0c.17-.2-.31.2,0-.12-.48.4,0-.06-.61.45l.2-.06c-.19.11-.93.67-.65.3.13-.1.31-.21.41-.27s-.15.06,0-.12c.61-.51.2,0,.69-.38.24-.23-.5.3.17-.24-.85.67.05-.16-.63.31l.37-.3c-.06,0-.25.16-.25.14l.5-.36c-.44.29.3-.36.05-.22.07.07-.44.37-.68.62-.59.28.93-.82.67-.79.06,0-.19.22-.38.33a2.48,2.48,0,0,1,.38-.37c-.14,0-.39.3-.65.44.45-.36-.22.1-.4.17l.4-.28c.19-.27-.85.54-.6.23l.58-.33-.18,0,.46-.3c-.37.17-.3.1-.2,0a2.48,2.48,0,0,1-.78.43c.22-.19.4-.23.29-.26.26-.15.59-.34.24-.07l.39-.23c.25-.21,0-.13,0-.15a.25.25,0,0,1-.08.09l-.63.26a2.2,2.2,0,0,1,.4-.24,2.44,2.44,0,0,1-.31.1,6.72,6.72,0,0,1,.86-.47l-.43.14c.14-.1.37-.29.5-.35s-.73.28-.51,0a.83.83,0,0,1-.19.08c0-.12.42-.42-.1-.24l.58-.4c-.18,0-.73.51-1,.52s.5-.33.66-.45c-.33.14-1,.42-.54.07C140.72,182.72,140.64,182.79,140.7,182.79Zm-.75-.73c.1,0,.39-.15.15,0C139.6,182.31,139.82,182.16,139.94,182.06Zm-1.8-.84c.15-.07.09,0-.05.11S138,181.3,138.14,181.22Zm-5-.68v0C133.12,180.69,133.15,180.62,133.18,180.54Zm.06-.2-.1.17c.06-.1.08-.11.08-.07S133.3,180.24,133.23,180.33Zm5.49,7.37.08-.1C138.94,187.54,138.83,187.61,138.72,187.7Z" transform="translate(-107.3 -174.28)"/><path class="cls-1" d="M138.81,181l-.22.14A.91.91,0,0,0,138.81,181Z" transform="translate(-107.3 -174.28)"/><polygon class="cls-1" points="33.9 8.89 33.9 8.9 33.98 8.86 33.9 8.89"/><path class="cls-1" d="M136.8,177.91a1.14,1.14,0,0,1-.14.21C136.74,178,136.8,178,136.8,177.91Z" transform="translate(-107.3 -174.28)"/><path class="cls-1" d="M132.62,180.93l.08-.1s0-.08,0-.16A2.36,2.36,0,0,1,132.62,180.93Z" transform="translate(-107.3 -174.28)"/><path class="cls-1" d="M133.41,178c0,.05,0,0,0,.06l-.07.21S133.41,178.13,133.41,178Z" transform="translate(-107.3 -174.28)"/><path class="cls-1" d="M133.26,179.46c.16-.37.08-.26,0-.21h0C133.05,179.77,133.15,179.61,133.26,179.46Z" transform="translate(-107.3 -174.28)"/><path class="cls-1" d="M133.27,179.26s0,0,0,0C133.15,179.46,133.23,179.31,133.27,179.26Z" transform="translate(-107.3 -174.28)"/><path class="cls-1" d="M133,180.53c0-.1-.26.45-.18.3C132.6,181.29,133.22,180.32,133,180.53Z" transform="translate(-107.3 -174.28)"/><polygon class="cls-1" points="26.48 3.95 26.29 4.41 26.48 4.05 26.48 3.95"/><path class="cls-1" d="M133.9,178.71v-.15a.64.64,0,0,1-.09.14S133.84,178.84,133.9,178.71Z" transform="translate(-107.3 -174.28)"/><path class="cls-1" d="M133.82,178.7s0,0-.08.05S133.78,178.75,133.82,178.7Z" transform="translate(-107.3 -174.28)"/><polygon class="cls-1" points="26.63 3.85 26.6 3.96 26.63 4.01 26.63 3.85"/><path class="cls-1" d="M134.42,179.12l.14-.08c.11-.14.15-.23.09-.19A1.26,1.26,0,0,0,134.42,179.12Z" transform="translate(-107.3 -174.28)"/><path class="cls-1" d="M135,177.84a2.8,2.8,0,0,1-.17.34l.34-.52Z" transform="translate(-107.3 -174.28)"/><path class="cls-1" d="M135.28,177.86c.1-.14.38-.33.27-.37C135.45,177.63,135.3,177.7,135.28,177.86Z" transform="translate(-107.3 -174.28)"/><polygon class="cls-1" points="28.4 4.95 28.38 4.95 27.68 5.68 28.4 4.95"/><path class="cls-1" d="M138.27,178.44c.13-.24-.5.38-.32.11-.2.13-.15.22-.32.33C137.85,178.76,137.76,178.88,138.27,178.44Z" transform="translate(-107.3 -174.28)"/><path class="cls-1" d="M137.62,178.87l-.14.07Z" transform="translate(-107.3 -174.28)"/><polygon class="cls-1" points="35.69 15.95 35.77 16.17 35.72 15.82 35.69 15.95"/><path class="cls-1" d="M143.16,189.49v.65l.05-.58S143.17,189.64,143.16,189.49Z" transform="translate(-107.3 -174.28)"/><path class="cls-1" d="M141,181.3l-.14.07c-.14.09-.15.11-.16.14Z" transform="translate(-107.3 -174.28)"/><polygon class="cls-1" points="33.65 7.91 33.65 7.89 33.15 8.19 33.65 7.91"/><path class="cls-1" d="M141.88,182.32s-.12,0-.11,0S141.24,182.69,141.88,182.32Z" transform="translate(-107.3 -174.28)"/><path class="cls-1" d="M131.23,175.27s0-.38,0-.46A1.43,1.43,0,0,0,131.23,175.27Z" transform="translate(-107.3 -174.28)"/><polygon class="cls-1" points="23.44 1.98 23.44 1.81 23.39 2.23 23.44 1.98"/><path class="cls-1" d="M130.28,176.29c.12.71.15-.13.26.12l0,.16V176C130.46,176.1,130.37,176.49,130.28,176.29Z" transform="translate(-107.3 -174.28)"/><path class="cls-1" d="M129.81,174.79c.06.27,0,.24.08.08l0-.07S129.84,174.81,129.81,174.79Z" transform="translate(-107.3 -174.28)"/><path class="cls-1" d="M129.87,174.8c.05,0-.07-.23,0,0Z" transform="translate(-107.3 -174.28)"/><path class="cls-1" d="M129.63,175l0-.25c0-.16-.12-.19-.11-.31C129.49,174.57,129.54,174.73,129.63,175Z" transform="translate(-107.3 -174.28)"/><path class="cls-1" d="M129.65,175.51l0-.11C129.65,175.33,129.64,175.31,129.65,175.51Z" transform="translate(-107.3 -174.28)"/><path class="cls-1" d="M129.71,175.17l0,.23c0,.11.07.34,0-.08C129.72,175.53,129.7,175.33,129.71,175.17Z" transform="translate(-107.3 -174.28)"/><path class="cls-1" d="M129.77,175.28a.75.75,0,0,1,.1.49C130,175.66,129.9,175.16,129.77,175.28Z" transform="translate(-107.3 -174.28)"/><path class="cls-1" d="M130.34,177l.07.2V177C130.42,177.11,130.31,176.81,130.34,177Z" transform="translate(-107.3 -174.28)"/><path class="cls-1" d="M129.08,174.72c0,.15.11.39.16.58l0-.19A1.22,1.22,0,0,1,129.08,174.72Z" transform="translate(-107.3 -174.28)"/><path class="cls-1" d="M129.24,175.3l0,.28C129.3,175.59,129.28,175.46,129.24,175.3Z" transform="translate(-107.3 -174.28)"/><polygon class="cls-1" points="22.48 2.01 22.5 1.46 22.45 2.02 22.48 2.01"/><polygon class="cls-1" points="21.44 0.52 21.4 0.16 21.45 0.7 21.44 0.52"/><path class="cls-1" d="M128.54,174.92c0-.29-.19-.46-.2-.64a1.33,1.33,0,0,0,0,.55C128.34,174.7,128.4,174.71,128.54,174.92Z" transform="translate(-107.3 -174.28)"/><path class="cls-1" d="M128.35,175.17c0-.07,0-.2,0-.34A1.44,1.44,0,0,0,128.35,175.17Z" transform="translate(-107.3 -174.28)"/><path class="cls-1" d="M129.07,175.54a1.54,1.54,0,0,0-.17-.4l.14.4Z" transform="translate(-107.3 -174.28)"/><path class="cls-1" d="M129,175.56H129Z" transform="translate(-107.3 -174.28)"/><path class="cls-1" d="M129.07,175.54h0S129.08,175.59,129.07,175.54Z" transform="translate(-107.3 -174.28)"/><path class="cls-1" d="M129.51,175.95a1.79,1.79,0,0,0,.13.85A7.27,7.27,0,0,1,129.51,175.95Z" transform="translate(-107.3 -174.28)"/><path class="cls-1" d="M129.24,176l.1.07a2.13,2.13,0,0,1-.08-.39Z" transform="translate(-107.3 -174.28)"/><polygon class="cls-1" points="21.93 1.91 21.94 1.77 21.9 1.74 21.93 1.91"/><path class="cls-1" d="M128.62,175.5c0,.19,0,.22-.05.26s.14.09.18.08S128.67,175.47,128.62,175.5Z" transform="translate(-107.3 -174.28)"/><path class="cls-1" d="M128.83,175.56v0S128.85,175.63,128.83,175.56Z" transform="translate(-107.3 -174.28)"/><path class="cls-1" d="M128.13,175.89l0,.07,0-.07Z" transform="translate(-107.3 -174.28)"/><path class="cls-1" d="M128.78,175.91c.06.07,0,0,0-.17a.14.14,0,0,1-.06.1C128.76,175.9,128.77,175.94,128.78,175.91Z" transform="translate(-107.3 -174.28)"/><path class="cls-1" d="M128.28,175.4l.14.2C128.36,175.48,128.25,175.29,128.28,175.4Z" transform="translate(-107.3 -174.28)"/><path class="cls-1" d="M128.79,175.48v0C128.75,175.38,128.76,175.42,128.79,175.48Z" transform="translate(-107.3 -174.28)"/><path class="cls-1" d="M128.79,175.48a2.09,2.09,0,0,0,0,.26.53.53,0,0,0,0-.15Z" transform="translate(-107.3 -174.28)"/><path class="cls-1" d="M129,178.48c-.15-.37-.21-.73,0-.35a13.66,13.66,0,0,0-.87-2.16,1.62,1.62,0,0,1,.13.55,2.28,2.28,0,0,1,.41.77c0,.22-.12-.11-.25-.29.22.44.16.71.46,1.37l0-.27A3,3,0,0,0,129,178.48Z" transform="translate(-107.3 -174.28)"/><path class="cls-1" d="M128.33,176l0-.06a2.56,2.56,0,0,1-.3-.47,1.52,1.52,0,0,0,.09.46h.19Z" transform="translate(-107.3 -174.28)"/><path class="cls-1" d="M128.5,175.85a4.82,4.82,0,0,0,.29,1c.08-.05-.05-.36-.06-.55-.12.15,0-.24-.22-.44a.21.21,0,0,1,.05-.13l-.15-.16v0h0s0,.08,0,.05a0,0,0,0,1,0,0l0,.16c-.07-.07,0-.1,0-.16l0-.06h0l-.08.27C128.4,175.94,128.44,175.92,128.5,175.85Z" transform="translate(-107.3 -174.28)"/><path class="cls-1" d="M129.77,177.73l0-.1C129.75,177.68,129.76,177.72,129.77,177.73Z" transform="translate(-107.3 -174.28)"/><path class="cls-1" d="M129.67,177.49c0-.06,0-.23,0-.2a1.62,1.62,0,0,1,.08.34,1.16,1.16,0,0,0-.11-.51v.06a4.18,4.18,0,0,1-.28-.69C129.47,176.86,129.55,177.13,129.67,177.49Z" transform="translate(-107.3 -174.28)"/><path class="cls-1" d="M129.15,176.76l-.05.24.16.34-.07-.21C129.28,177.19,129.19,176.93,129.15,176.76Z" transform="translate(-107.3 -174.28)"/><polygon class="cls-1" points="20.73 1.42 20.59 0.99 20.74 1.61 20.73 1.42"/><polygon class="cls-1" points="20.58 1.53 20.43 1.17 20.48 1.41 20.58 1.53"/><path class="cls-1" d="M126.32,184.7l.08.08Z" transform="translate(-107.3 -174.28)"/><path class="cls-1" d="M126.44,184.53l-.17-.1A.69.69,0,0,0,126.44,184.53Z" transform="translate(-107.3 -174.28)"/><path class="cls-1" d="M124.45,178.5c-.32-.19-.8-.5-.45-.23l.35.26C124.31,178.45,124.36,178.46,124.45,178.5Z" transform="translate(-107.3 -174.28)"/><path class="cls-1" d="M125.26,181.92l.12.06-.34-.23Z" transform="translate(-107.3 -174.28)"/><path class="cls-1" d="M126.79,182.85l-.27-.09Z" transform="translate(-107.3 -174.28)"/><path class="cls-1" d="M126.12,186l.36.26C126.51,186.21,126.3,186.12,126.12,186Z" transform="translate(-107.3 -174.28)"/><path class="cls-1" d="M126.32,176.89c-.14-.11-.22-.14-.26-.13C126.26,176.92,126.52,177.19,126.32,176.89Z" transform="translate(-107.3 -174.28)"/><path class="cls-1" d="M122.32,182.43a1.18,1.18,0,0,0,.22.15A.93.93,0,0,0,122.32,182.43Z" transform="translate(-107.3 -174.28)"/><path class="cls-1" d="M125.95,176.85l.08.06c0-.08,0-.15,0-.16C125.92,176.64,125.8,176.58,125.95,176.85Z" transform="translate(-107.3 -174.28)"/><path class="cls-1" d="M121.74,189.78l0,0C121.72,189.79,121.73,189.79,121.74,189.78Z" transform="translate(-107.3 -174.28)"/><path class="cls-1" d="M119.47,185.86a0,0,0,0,1,0,0S119.48,185.8,119.47,185.86Z" transform="translate(-107.3 -174.28)"/><path class="cls-1" d="M127.12,176s0,0,0,0Z" transform="translate(-107.3 -174.28)"/><path class="cls-1" d="M128.06,177.43a1.55,1.55,0,0,0,.08.19Z" transform="translate(-107.3 -174.28)"/><path class="cls-1" d="M127.39,179.15h0C127.44,179.21,127.43,179.2,127.39,179.15Z" transform="translate(-107.3 -174.28)"/><path class="cls-1" d="M127.26,176.14l-.11-.09Z" transform="translate(-107.3 -174.28)"/><path class="cls-1" d="M127.16,176l.05,0C127.18,175.91,127.16,175.87,127.16,176Z" transform="translate(-107.3 -174.28)"/><path class="cls-1" d="M127.08,176s0,0,.08,0l0-.06Z" transform="translate(-107.3 -174.28)"/><path class="cls-1" d="M123.57,187l0,0C123.65,187.14,123.64,187.11,123.57,187Z" transform="translate(-107.3 -174.28)"/><path class="cls-1" d="M127.6,181.82h0Z" transform="translate(-107.3 -174.28)"/><path class="cls-1" d="M127.81,182.07c-.42-.34-.36-.32-.25-.27l-1-.7Z" transform="translate(-107.3 -174.28)"/><path class="cls-1" d="M126.17,185.23l.38.12c.52.39.29.34.8.55-1.18-.67,0-.33-1.16-1l.27.09s.05,0,0,.05c.62.23-.83-.53-.6-.54a1,1,0,0,1,.43.19l-.25-.24s.24.11.2.12l0-.17,0,0-.56-.4c.19.06.12.08.27.16l-.25-.22c.32.14.59.36.53.38,1.22.59-.27-.22.5,0l.12.14a3.6,3.6,0,0,0,.94.31,7.69,7.69,0,0,1-1.4-.67c.1,0,.16,0-.06-.14.42.23.34.14.34.08l.56.31a6.12,6.12,0,0,0-.66-.46,3.62,3.62,0,0,1,.9.39c.14,0-.73-.32-.78-.48.25,0,.05-.13-.24-.4a3.09,3.09,0,0,1,.51.27l-.42-.29a1.24,1.24,0,0,1,.22.12,8.07,8.07,0,0,1-.68-.46c-.6-.36,1,.38.31-.08.17.07.34.2.55.32a8.57,8.57,0,0,0-.85-.71l.4.14a6,6,0,0,1-1.27-.83l-.49-.22-.24-.27a4.13,4.13,0,0,1,.5.31l-.12-.09a4.67,4.67,0,0,1,.83.49l-.36-.16c.32.22.68.46,1,.64a.68.68,0,0,1-.13-.12l.22.14c.06,0-.06,0-.19-.15l.63.34-.24-.15.45.12a9.47,9.47,0,0,1-1.59-1.36c.42.31.72.46,1.25.79-.58-.31.18.24,0,.24a1.44,1.44,0,0,1,.41.22l-.44-.43a1.51,1.51,0,0,0,.53.26c-.86-.51-.51-.44-.74-.65.29.18.57.37.46.39.67.34-.94-.72-.36-.43,0,0-.05,0,.09.1-.23-.2,0-.15.25,0v0c.15,0,.18-.27-.5-.76l1,.7q-1.12-.88-2.22-1.81c.58.44,2,1.41,2.32,1.72.1,0,.21.09,0-.1a10.85,10.85,0,0,1-.92-.65c.7.43.38.22,1,.57a6.84,6.84,0,0,1-1-.8c.13.11.9.68,1,.76l-.83-.76a12,12,0,0,0,1,.76c-.18-.13.06-.05,0-.14l-.23-.13c.2,0-1.17-1.08-1-1.14a12.06,12.06,0,0,0,1.23,1,21.72,21.72,0,0,1-2.27-2.27l.26.2-.21-.33c.59.64,1.85,2,2.36,2.45.22.14.3.24.32.19a1.18,1.18,0,0,1,.34.35l.23.05c-.51-.44-.44-.51-.86-.89l.43.56c-.51-.43-1.37-1.32-1.2-1.33.21.16.86.83,1,1-.16-.16-.26-.37-.14-.26l.23.28c.21.14-.59-.68-.08-.28,0,0,.65.57.37.28-.56-.52-2.25-2.19-2.63-2.62a8.25,8.25,0,0,1,.91.65c.44.41.95,1.08,1.33,1.43-.13-.13-.27-.31-.31-.37.12.1.38.42.36.32-.46-.51.12,0-.38-.44-.09-.17.14.07.16,0a7.84,7.84,0,0,1-1-1.35c.11.13.27.3.34.37s.38.17.47.11a3.4,3.4,0,0,1,.43.5c-.06-.11-.19-.3-.17-.33.39.44,0,.12.46.66a3,3,0,0,1-.37-.72c-.36-.49-.16,0,0,.2a6.64,6.64,0,0,1-1.06-1.86c0-.25.35.42.3.31.24,0-.64-1.34-.14-.93a12.27,12.27,0,0,1,.77,1.24c0,.21-.29-.23-.34-.18l.2.18c.07.16.1.3,0,.19.31.38.33-.07.67.25a2.54,2.54,0,0,0-.23-.54v.09c-.25-.36-.2-.57-.35-.72-.08-.3-.22-.77,0-.6l.28.54c-.08-.16-.22-.3-.16-.12-.08-.27.49.68.19-.07L128,177c-.07-.31-.24-1-.06-.83-.28-.53,0,.07-.35-.54.42.77-.27.09.22.89-.42-.71-.27-.26-.68-.83.09.18.21.33.08.28l.06.17h0l0,0s0,0,0,0a1.67,1.67,0,0,1,.18.25c.17.43,0,.48.13.71-.09-.06-.09-.21-.22-.39l.12.35c-.22-.39-.49-.58-.51-.87l-.11,0c-.19-.18-.33-.22-.28,0-.1-.05.14.49,0,.17a2.8,2.8,0,0,0,0,.33l-.06-.09c-.18.06.16.81-.48.29,0,.13.06.27-.09.23l-.26-.29c0,.15-.44-.15-.2.18-.75-.73-.46.08-.66,0l.35.37c-.08,0,0,.21,0,.43l.32.31c.21.32-.38-.06-.45.08-.12-.12-.06-.12,0-.07-.87-.55.31.75-.35.37.1.13,0,.12-.07.07v0h0l-.22-.11.21.12s0,.1.07.2l-.39-.29v0c-.16-.08.16.17.45.38a2.24,2.24,0,0,0,.2.22c-.63-.46.14.24-.53-.23.3.27.12.35.79.88-.09-.07-.14-.09-.13-.11s-.21,0,0,.13l-.5-.35.61.56a3.27,3.27,0,0,1-.88-.6c.51.53.15.25.67.76l-.32-.23s.39.39.1.23c-.68-.34-.32.31-1,.14,1,.58-.5-.18.26.3a2.93,2.93,0,0,1-.58-.34c.17.24-.47-.07.14.39-.25-.13-.33-.23-.48-.3,0,0,.19.16,0,.08a1.11,1.11,0,0,1-.28-.21c0,.13.7.57,1.38,1-.36-.14-.32-.09.11.21-.24-.11-.49-.22-.53-.33s-.45,0,.1.35c-.15-.07-.07,0,0,.07s-.13,0-.12.14l.1,0c.65.41.11.15.16.25l-.07,0c-.57-.13.2.19-.43,0l.42.22c.9.51-.6-.17-.3.1l.26.1c.29.21-1.3-.55-1.43-.57a.53.53,0,0,1-.17-.13c-.6-.18.54.32.63.47a4.6,4.6,0,0,0-.83-.41c-.26-.1.88.69.26.46a2.67,2.67,0,0,1,.63.35c0,.1-1-.31-.26.14l-.19-.09a2.84,2.84,0,0,0,.61.56c-1.47-.76.55.66-.78-.08v.17l-.13-.08c-.14,0,.17.24.47.46a1.47,1.47,0,0,1-.29-.16c-.34,0-.29,0,.31.5l-.43-.24c.23.18-.77-.23-.34.17l-.18-.13c.41.44-1.33-.46.15.57l.32.33c.19,0,.64.45.92.57.06.11-.53-.18-.57-.29l.08,0c-.77-.55-.36,0-.89-.42-.11.21-.65.06-.79.19l.57.45-.08,0c-.14-.09-.45-.35-.4-.37-.33-.25.21.29.33.4-.29-.14-.62-.58-.65-.58l0,.06.07.05c.2.22.44.43.37.44s-.34-.3-.37-.31-.06,0,0,0h-.1l.43.38c.18.22-.08,0,.42.47-.76-.67-.48,0-.71-.24.24.36.19.38.11.37.09.09.5.59.39.57-.79-1.08-.44-.41-1-1.18.39.51,0,.2.52.93-.09-.07-.27-.42-.46-.67.19.49-.31-.17-.3,0s.2.4.29.64q-.21-.39-.4-.79c0,.08.37.94.11.39a3,3,0,0,1,.16.4c-.26-.37-.27-.16-.36,0s-.25.09-.42-.7c.06.34,0,.37,0,.39s0,.43.07.67q-.09-.32-.15-.65c0,.66-.09.06-.08.69l0-.12c0,.75.13,1.65.18,2.61,0-.85.36,1.23.4,0,.06.19,0,.31.05.53,0-.41,0-.5.14-.33v.1c.24-.14.42.28.81.43l-.15-.45c.08,0,.13.18.2.28-.13-.71-.19,0-.33-.76.34.9.41-.13.84.88.11,0-.22-.5-.12-.53l.13.27-.12-.36a1.8,1.8,0,0,1,.36.59s0,.08,0,.11c.23.29.21-.21.29-.12l-.18-.13c.17-.34.66-.21.57-.87l-.14-.18c-.07-.45.27.12.34-.16l0,0c-.09-.2-.12-.33-.06-.34.11.24.4.34.51.61-.09-.48-.11-.34-.55-1.06l.26.26c-.19-.28-.3-.42-.3-.55.16.29.42.38.63.76.71.44-.34-.81.55,0-.65-.8-.53-.28-.64-.48s-.48-.6-.37-.57,1,.85,1.12.71c0,0,0,.06,0,.07.24.13-.17-.33.2-.1-.43-.44.1-.05-.49-.58,0,.08,0,.15,0,.23-.09-.2-.74-.86-.33-.66a3.35,3.35,0,0,1,.33.37c.2.12-.07-.16.13,0,.6.52,0,.25.42.71.29.18-.32-.51.3.08-.79-.76.21,0-.37-.66l.36.31c0-.06-.2-.23-.17-.25l.44.43c-.35-.4.47.14.3-.11-.1.16-.48-.32-.8-.47-.37-.56,1.06.66,1,.31,0,.07-.31-.06-.45-.24a1.82,1.82,0,0,1,.51.2c0-.2-.41-.26-.6-.49.5.29-.14-.2-.25-.36l.4.28c.36,0-.8-.61-.41-.52l.52.43-.1-.16.45.32c-.29-.3-.19-.27,0-.26-.29-.17-.73-.49-.7-.56.27.11.37.27.37.15.24.18.54.41.15.21l.37.28c.31.13.14-.08.16-.12a.19.19,0,0,1-.12,0L125,186a1.62,1.62,0,0,1,.39.26c0-.06-.2-.19-.21-.25a4.24,4.24,0,0,1,.79.58l-.29-.36a4.73,4.73,0,0,1,.55.27c.24,0-.53-.58-.22-.51a.74.74,0,0,1-.16-.14c.12,0,.58.13.17-.24l.64.29c-.09-.16-.81-.36-1-.62s.54.26.73.33c-.28-.22-.87-.65-.32-.46C126.24,185.21,126.14,185.18,126.17,185.23Zm.24-1.08c.08.07.33.25.08.13C126,184,126.25,184.11,126.41,184.15Zm-.27-1.89c.13.09.05.07-.12,0S126,182.22,126.13,182.26Zm.79-5.73v0C126.78,176.43,126.84,176.48,126.93,176.54Zm.22.12a.74.74,0,0,0-.1-.18c.05.11,0,.13,0,.12S127.17,176.77,127.15,176.66Zm-6.18,8.4.1.08C121.15,185.24,121.06,185.15,121,185.05Z" transform="translate(-107.3 -174.28)"/><path class="cls-1" d="M126.62,182.74l-.23-.12A1,1,0,0,0,126.62,182.74Z" transform="translate(-107.3 -174.28)"/><polygon class="cls-1" points="18.75 11.68 18.74 11.68 18.82 11.73 18.75 11.68"/><path class="cls-1" d="M128.42,180.77l-.19-.16A.61.61,0,0,0,128.42,180.77Z" transform="translate(-107.3 -174.28)"/><path class="cls-1" d="M127.4,175.6l0,.15s.09,0,.14.11C127.46,175.76,127.38,175.62,127.4,175.6Z" transform="translate(-107.3 -174.28)"/><path class="cls-1" d="M129.13,178.11c0-.06,0,0,0-.07l-.08-.21S129.06,178,129.13,178.11Z" transform="translate(-107.3 -174.28)"/><path class="cls-1" d="M128.14,177c.17.37.15.22.17.13h0C128.09,176.63,128.11,176.83,128.14,177Z" transform="translate(-107.3 -174.28)"/><path class="cls-1" d="M128.31,177.13s0,0,0,0C128.27,176.89,128.31,177.07,128.31,177.13Z" transform="translate(-107.3 -174.28)"/><path class="cls-1" d="M127.16,176.34c.07.08-.23-.46-.14-.33C126.8,175.55,127.15,176.66,127.16,176.34Z" transform="translate(-107.3 -174.28)"/><polygon class="cls-1" points="21.42 3.94 21.2 3.49 21.34 3.87 21.42 3.94"/><path class="cls-1" d="M128.26,178l.13.09a.55.55,0,0,1-.06-.16S128.19,177.92,128.26,178Z" transform="translate(-107.3 -174.28)"/><path class="cls-1" d="M128.33,178s0,0,0-.1A.12.12,0,0,0,128.33,178Z" transform="translate(-107.3 -174.28)"/><polygon class="cls-1" points="21.4 4.12 21.34 4.04 21.28 4.02 21.4 4.12"/><path class="cls-1" d="M127.55,178.35l0,.16c.09.14.17.22.15.15A1.29,1.29,0,0,0,127.55,178.35Z" transform="translate(-107.3 -174.28)"/><path class="cls-1" d="M128.48,179.37c-.07-.08-.13-.17-.23-.31l.34.52Z" transform="translate(-107.3 -174.28)"/><path class="cls-1" d="M128.42,179.59c.09.15.22.46.25.38S128.54,179.67,128.42,179.59Z" transform="translate(-107.3 -174.28)"/><polygon class="cls-1" points="19.87 5.33 19.88 5.31 19.16 4.58 19.87 5.33"/><path class="cls-1" d="M128.44,181.83c.23.1-.48-.41-.21-.27-.18-.17-.22-.12-.37-.26C128,181.49,127.91,181.42,128.44,181.83Z" transform="translate(-107.3 -174.28)"/><path class="cls-1" d="M127.86,181.3l-.11-.12Z" transform="translate(-107.3 -174.28)"/><polygon class="cls-1" points="12.04 11.05 12.01 10.85 12.03 11.19 12.04 11.05"/><path class="cls-1" d="M119.3,186.1V186S119.3,186,119.3,186.1Z" transform="translate(-107.3 -174.28)"/><path class="cls-1" d="M127.63,184.64l-.14-.08c-.15-.07-.17-.07-.21-.06Z" transform="translate(-107.3 -174.28)"/><polygon class="cls-1" points="19.54 10.79 19.56 10.78 19.03 10.52 19.54 10.79"/><path class="cls-1" d="M127.16,186s-.06-.11,0-.12S126.52,185.68,127.16,186Z" transform="translate(-107.3 -174.28)"/><path class="cls-2" d="M155.2,177.7" transform="translate(-107.3 -174.28)"/><path class="cls-1" d="M155.18,175.27s0-.38,0-.46A1.43,1.43,0,0,0,155.18,175.27Z" transform="translate(-107.3 -174.28)"/><polygon class="cls-1" points="47.39 1.98 47.39 1.81 47.34 2.23 47.39 1.98"/><path class="cls-1" d="M154.23,176.29c.12.71.15-.13.26.12l0,.16V176C154.41,176.1,154.32,176.49,154.23,176.29Z" transform="translate(-107.3 -174.28)"/><path class="cls-1" d="M153.76,174.79c.06.27,0,.24.08.08l0-.07S153.79,174.81,153.76,174.79Z" transform="translate(-107.3 -174.28)"/><path class="cls-1" d="M153.82,174.8c.05,0-.07-.23,0,0Z" transform="translate(-107.3 -174.28)"/><path class="cls-1" d="M153.58,175l0-.25c0-.16-.12-.19-.11-.31C153.45,174.57,153.49,174.73,153.58,175Z" transform="translate(-107.3 -174.28)"/><path class="cls-1" d="M153.6,175.51l0-.11C153.6,175.33,153.59,175.31,153.6,175.51Z" transform="translate(-107.3 -174.28)"/><path class="cls-1" d="M153.66,175.17l0,.23c0,.11.07.34,0-.08C153.67,175.53,153.65,175.33,153.66,175.17Z" transform="translate(-107.3 -174.28)"/><path class="cls-1" d="M153.72,175.28a.75.75,0,0,1,.1.49C153.94,175.66,153.85,175.16,153.72,175.28Z" transform="translate(-107.3 -174.28)"/><path class="cls-1" d="M154.29,177l.07.2V177C154.37,177.11,154.26,176.81,154.29,177Z" transform="translate(-107.3 -174.28)"/><path class="cls-1" d="M153,174.72c0,.15.11.39.16.58l0-.19A1.22,1.22,0,0,1,153,174.72Z" transform="translate(-107.3 -174.28)"/><path class="cls-1" d="M153.19,175.3l0,.28C153.25,175.59,153.23,175.46,153.19,175.3Z" transform="translate(-107.3 -174.28)"/><polygon class="cls-1" points="46.43 2.01 46.45 1.46 46.41 2.02 46.43 2.01"/><polygon class="cls-1" points="45.39 0.52 45.35 0.16 45.4 0.7 45.39 0.52"/><path class="cls-1" d="M152.49,174.92c0-.29-.19-.46-.2-.64a1.33,1.33,0,0,0,0,.55C152.29,174.7,152.35,174.71,152.49,174.92Z" transform="translate(-107.3 -174.28)"/><path class="cls-1" d="M152.3,175.17c0-.07,0-.2,0-.34A1.44,1.44,0,0,0,152.3,175.17Z" transform="translate(-107.3 -174.28)"/><path class="cls-1" d="M153,175.54a1.54,1.54,0,0,0-.17-.4l.14.4Z" transform="translate(-107.3 -174.28)"/><path class="cls-1" d="M153,175.56h-.08Z" transform="translate(-107.3 -174.28)"/><path class="cls-1" d="M153,175.54h0S153,175.59,153,175.54Z" transform="translate(-107.3 -174.28)"/><path class="cls-1" d="M153.46,175.95a1.79,1.79,0,0,0,.13.85A7.27,7.27,0,0,1,153.46,175.95Z" transform="translate(-107.3 -174.28)"/><path class="cls-1" d="M153.19,176l.1.07a2.13,2.13,0,0,1-.08-.39Z" transform="translate(-107.3 -174.28)"/><polygon class="cls-1" points="45.88 1.91 45.89 1.77 45.85 1.74 45.88 1.91"/><path class="cls-1" d="M152.57,175.5c0,.19,0,.22-.05.26s.14.09.18.08S152.62,175.47,152.57,175.5Z" transform="translate(-107.3 -174.28)"/><path class="cls-1" d="M152.78,175.56v0S152.8,175.63,152.78,175.56Z" transform="translate(-107.3 -174.28)"/><path class="cls-1" d="M152.08,175.89l0,.07,0-.07Z" transform="translate(-107.3 -174.28)"/><path class="cls-1" d="M152.73,175.91c.06.07,0,0,0-.17a.14.14,0,0,1-.06.1C152.71,175.9,152.72,175.94,152.73,175.91Z" transform="translate(-107.3 -174.28)"/><path class="cls-1" d="M152.23,175.4l.14.2C152.31,175.48,152.2,175.29,152.23,175.4Z" transform="translate(-107.3 -174.28)"/><path class="cls-1" d="M152.74,175.48v0C152.7,175.38,152.72,175.42,152.74,175.48Z" transform="translate(-107.3 -174.28)"/><path class="cls-1" d="M152.74,175.48a2.09,2.09,0,0,0,0,.26.53.53,0,0,0,0-.15Z" transform="translate(-107.3 -174.28)"/><path class="cls-1" d="M153,178.48c-.15-.37-.21-.73,0-.35a13.66,13.66,0,0,0-.87-2.16,1.62,1.62,0,0,1,.13.55,2.28,2.28,0,0,1,.41.78c0,.22-.12-.11-.25-.29.22.44.16.71.46,1.37l0-.27A3,3,0,0,0,153,178.48Z" transform="translate(-107.3 -174.28)"/><path class="cls-1" d="M152.28,176l0-.06a2.56,2.56,0,0,1-.3-.47,1.52,1.52,0,0,0,.09.46h.19Z" transform="translate(-107.3 -174.28)"/><path class="cls-1" d="M152.45,175.85a4.82,4.82,0,0,0,.29,1c.08-.05-.05-.36-.06-.55-.12.15,0-.24-.22-.44a.21.21,0,0,1,.05-.13l-.15-.16v0h0s0,.08,0,.05a0,0,0,0,1,0,0l0,.16c-.07-.07,0-.1,0-.16l0-.06h0l-.08.27C152.35,175.94,152.39,175.92,152.45,175.85Z" transform="translate(-107.3 -174.28)"/><path class="cls-1" d="M153.72,177.73l0-.1C153.7,177.68,153.71,177.72,153.72,177.73Z" transform="translate(-107.3 -174.28)"/><path class="cls-1" d="M153.62,177.49c0-.06,0-.23,0-.2a1.62,1.62,0,0,1,.08.34,1.16,1.16,0,0,0-.11-.51v.06a4.18,4.18,0,0,1-.28-.69C153.42,176.86,153.5,177.13,153.62,177.49Z" transform="translate(-107.3 -174.28)"/><path class="cls-1" d="M153.1,176.76,153,177l.16.34-.07-.21C153.23,177.19,153.14,176.93,153.1,176.76Z" transform="translate(-107.3 -174.28)"/><polygon class="cls-1" points="44.68 1.42 44.54 0.99 44.69 1.61 44.68 1.42"/><polygon class="cls-1" points="44.53 1.53 44.38 1.17 44.43 1.41 44.53 1.53"/><path class="cls-1" d="M150.27,184.7l.08.08Z" transform="translate(-107.3 -174.28)"/><path class="cls-1" d="M150.39,184.53l-.17-.1A.69.69,0,0,0,150.39,184.53Z" transform="translate(-107.3 -174.28)"/><path class="cls-1" d="M148.4,178.5c-.32-.19-.8-.5-.45-.23l.35.26C148.26,178.45,148.31,178.46,148.4,178.5Z" transform="translate(-107.3 -174.28)"/><path class="cls-1" d="M149.21,181.92l.12.06-.34-.23Z" transform="translate(-107.3 -174.28)"/><path class="cls-1" d="M150.74,182.85l-.27-.09Z" transform="translate(-107.3 -174.28)"/><path class="cls-1" d="M150.07,186l.36.26C150.46,186.21,150.25,186.12,150.07,186Z" transform="translate(-107.3 -174.28)"/><path class="cls-1" d="M150.27,176.89c-.14-.11-.22-.14-.26-.13C150.21,176.92,150.47,177.19,150.27,176.89Z" transform="translate(-107.3 -174.28)"/><path class="cls-1" d="M146.27,182.43a1.18,1.18,0,0,0,.22.15A.93.93,0,0,0,146.27,182.43Z" transform="translate(-107.3 -174.28)"/><path class="cls-1" d="M149.9,176.85l.08.06c0-.08,0-.15,0-.16C149.87,176.63,149.75,176.58,149.9,176.85Z" transform="translate(-107.3 -174.28)"/><path class="cls-1" d="M145.69,189.78l0,0C145.67,189.79,145.68,189.79,145.69,189.78Z" transform="translate(-107.3 -174.28)"/><path class="cls-1" d="M143.42,185.86a0,0,0,0,1,0,0S143.43,185.8,143.42,185.86Z" transform="translate(-107.3 -174.28)"/><path class="cls-1" d="M151.07,176s0,0,0,0Z" transform="translate(-107.3 -174.28)"/><path class="cls-1" d="M152,177.43a1.56,1.56,0,0,0,.08.19Z" transform="translate(-107.3 -174.28)"/><path class="cls-1" d="M151.34,179.15h0C151.39,179.21,151.38,179.2,151.34,179.15Z" transform="translate(-107.3 -174.28)"/><path class="cls-1" d="M151.21,176.14l-.11-.09Z" transform="translate(-107.3 -174.28)"/><path class="cls-1" d="M151.11,176l.05,0C151.13,175.91,151.11,175.87,151.11,176Z" transform="translate(-107.3 -174.28)"/><path class="cls-1" d="M151,176s0,0,.08,0l0-.06Z" transform="translate(-107.3 -174.28)"/><path class="cls-1" d="M147.52,187l0,0C147.61,187.14,147.59,187.11,147.52,187Z" transform="translate(-107.3 -174.28)"/><path class="cls-1" d="M151.55,181.82h0Z" transform="translate(-107.3 -174.28)"/><path class="cls-1" d="M151.76,182.07c-.42-.34-.35-.32-.25-.27l-1-.7Z" transform="translate(-107.3 -174.28)"/><path class="cls-1" d="M150.12,185.23l.38.12c.52.39.29.34.8.55-1.18-.67,0-.33-1.16-1l.27.09s.05,0,0,.05c.62.23-.83-.53-.6-.54a1,1,0,0,1,.43.19l-.25-.24s.24.11.2.12l0-.17,0,0-.56-.4c.19.06.12.08.27.16l-.25-.22c.32.14.59.36.53.38,1.22.59-.27-.22.5,0l.12.14a3.6,3.6,0,0,0,.94.31,7.69,7.69,0,0,1-1.4-.67c.1,0,.16,0-.06-.14.42.23.34.14.34.08l.56.31a6.12,6.12,0,0,0-.66-.46,3.62,3.62,0,0,1,.9.39c.14,0-.73-.32-.78-.48.25,0,.05-.13-.24-.4a3.1,3.1,0,0,1,.51.27l-.42-.29a1.24,1.24,0,0,1,.22.12,8.07,8.07,0,0,1-.68-.46c-.6-.36,1,.38.31-.08.17.07.34.2.55.32a8.57,8.57,0,0,0-.85-.71l.4.14a6,6,0,0,1-1.27-.83l-.49-.22-.24-.27a4.13,4.13,0,0,1,.5.31l-.12-.09a4.67,4.67,0,0,1,.83.49l-.36-.16c.32.22.68.46,1,.64a.68.68,0,0,1-.13-.12l.22.14c.06,0-.06,0-.19-.15l.63.34-.24-.15.45.12a9.47,9.47,0,0,1-1.59-1.36c.42.31.72.46,1.25.79-.58-.31.18.24,0,.24a1.44,1.44,0,0,1,.41.22l-.44-.43a1.51,1.51,0,0,0,.53.26c-.86-.51-.51-.44-.74-.65.29.18.57.37.46.39.67.34-.94-.72-.36-.43,0,0-.05,0,.09.1-.23-.2,0-.15.25,0v0c.15,0,.18-.27-.5-.76l1,.7q-1.12-.88-2.22-1.82c.58.44,2,1.41,2.32,1.72.1,0,.21.09,0-.1a10.84,10.84,0,0,1-.92-.65c.7.43.38.22,1,.57a6.84,6.84,0,0,1-1-.8c.13.11.9.68,1,.76l-.83-.76a12,12,0,0,0,1,.76c-.18-.13.06-.05,0-.14l-.23-.13c.2,0-1.17-1.08-1-1.14a12.06,12.06,0,0,0,1.23,1,21.72,21.72,0,0,1-2.27-2.27l.26.2-.21-.33c.59.64,1.85,2,2.36,2.45.22.14.3.24.32.19a1.18,1.18,0,0,1,.34.35l.23.05c-.51-.44-.44-.51-.86-.89l.42.56c-.51-.43-1.37-1.32-1.2-1.33.21.16.86.83,1,1-.16-.16-.26-.37-.14-.26l.23.28c.21.14-.59-.68-.08-.28,0,0,.65.57.37.28-.56-.52-2.25-2.19-2.63-2.62a8.25,8.25,0,0,1,.91.65c.44.41.95,1.08,1.33,1.43-.13-.13-.27-.31-.31-.37.12.1.38.42.36.32-.46-.51.12,0-.38-.44-.09-.17.14.07.16,0a7.84,7.84,0,0,1-1-1.35c.11.13.27.3.34.37s.38.17.47.11a3.4,3.4,0,0,1,.43.5c-.06-.11-.19-.3-.17-.33.39.44,0,.12.46.66a3,3,0,0,1-.37-.72c-.36-.49-.16,0,0,.2a6.64,6.64,0,0,1-1.06-1.86c0-.25.35.42.3.31.24,0-.64-1.34-.14-.93a12.27,12.27,0,0,1,.77,1.24c0,.21-.29-.23-.34-.18l.2.18c.07.16.1.3,0,.19.31.38.33-.07.67.25a2.54,2.54,0,0,0-.23-.54v.09c-.25-.36-.2-.57-.35-.72-.08-.3-.22-.77,0-.6l.28.54c-.08-.16-.22-.3-.16-.12-.08-.27.49.68.19-.07L152,177c-.07-.31-.24-1-.06-.83-.28-.53,0,.07-.35-.54.42.77-.27.09.22.89-.42-.71-.27-.26-.68-.83.09.18.21.33.08.28l.06.17h0l0,0s0,0,0,0a1.67,1.67,0,0,1,.18.25c.17.43,0,.48.13.71-.09-.06-.09-.21-.22-.39l.12.35c-.22-.39-.49-.58-.51-.87l-.11,0c-.19-.18-.33-.22-.28,0-.1-.05.14.49,0,.17a2.8,2.8,0,0,0,0,.33l-.06-.09c-.18.06.16.81-.48.29,0,.13.06.27-.09.23l-.26-.29c0,.15-.44-.15-.2.18-.75-.73-.46.08-.66,0l.35.37c-.08,0,0,.21,0,.43l.32.31c.21.32-.38-.06-.45.08-.12-.12-.06-.12,0-.07-.87-.55.31.75-.35.37.1.13,0,.12-.07.07v0h0l-.22-.11.21.12s0,.1.07.2l-.39-.29v0c-.16-.08.16.17.45.38a2.24,2.24,0,0,0,.2.22c-.63-.46.14.24-.53-.23.3.27.12.35.79.88-.09-.07-.14-.09-.13-.11s-.21,0,0,.13l-.5-.35.61.56a3.27,3.27,0,0,1-.88-.6c.51.53.15.25.67.76l-.32-.23s.39.39.1.23c-.68-.34-.32.31-1,.14,1,.58-.5-.18.26.3a2.93,2.93,0,0,1-.58-.34c.17.24-.47-.07.14.39-.25-.13-.33-.23-.48-.3,0,0,.19.16,0,.08a1.11,1.11,0,0,1-.28-.21c0,.13.7.57,1.38,1-.36-.14-.32-.09.11.21-.24-.11-.49-.22-.53-.33s-.45,0,.1.35c-.15-.07-.07,0,0,.07s-.13,0-.12.14l.1,0c.65.41.11.15.16.25l-.07,0c-.57-.13.2.19-.43,0l.42.22c.9.51-.6-.17-.3.1l.26.1c.29.21-1.3-.55-1.43-.57a.53.53,0,0,1-.17-.13c-.6-.18.54.32.63.47a4.6,4.6,0,0,0-.83-.41c-.26-.1.88.69.26.46a2.67,2.67,0,0,1,.63.35c0,.1-1-.31-.26.14l-.19-.09a2.84,2.84,0,0,0,.61.56c-1.47-.76.55.66-.78-.08v.17l-.13-.08c-.14,0,.17.24.47.46a1.47,1.47,0,0,1-.29-.16c-.34,0-.29,0,.31.5l-.43-.24c.23.18-.77-.23-.34.17l-.18-.13c.41.44-1.33-.46.15.57l.32.33c.19,0,.64.45.92.57.06.11-.53-.18-.57-.29l.08,0c-.77-.55-.36,0-.89-.42-.11.21-.65.06-.79.19l.57.45-.08,0c-.14-.09-.45-.35-.4-.37-.33-.25.21.29.33.4-.29-.14-.62-.58-.65-.58l0,.06.07.05c.2.22.44.43.37.44s-.34-.29-.37-.31-.06,0,0,0h-.1l.43.38c.18.22-.08,0,.42.47-.76-.67-.48,0-.71-.24.24.36.19.38.11.37.09.09.5.59.39.57-.79-1.08-.44-.41-1-1.18.39.51,0,.2.52.93-.09-.07-.27-.42-.46-.67.19.49-.31-.17-.3,0s.2.4.29.64q-.21-.39-.4-.79c0,.08.37.94.11.39a3,3,0,0,1,.16.4c-.26-.37-.27-.16-.36,0s-.25.09-.42-.7c.06.34,0,.37,0,.39s0,.43.07.67q-.09-.32-.15-.65c0,.66-.09.06-.08.69l0-.12c0,.75.13,1.65.18,2.61,0-.85.36,1.23.4,0,.06.19,0,.31.05.53,0-.41,0-.5.14-.33v.1c.24-.14.42.28.81.43l-.15-.45c.08,0,.13.18.2.28-.13-.71-.19,0-.33-.76.34.9.41-.13.84.88.11,0-.22-.5-.12-.53l.13.27-.12-.36a1.8,1.8,0,0,1,.36.59s0,.08,0,.11c.23.29.21-.21.29-.12l-.18-.13c.17-.34.66-.21.57-.87l-.14-.18c-.07-.45.27.12.34-.16l0,0c-.09-.2-.12-.33-.06-.34.11.24.4.34.52.61-.09-.48-.11-.34-.55-1.06l.26.26c-.19-.28-.3-.42-.3-.55.16.29.42.38.63.76.71.44-.34-.81.55,0-.65-.8-.53-.28-.64-.48s-.48-.6-.37-.57,1,.85,1.12.71c0,0,0,.06,0,.07.24.13-.17-.33.2-.1-.43-.44.1-.05-.49-.58,0,.08,0,.15,0,.23-.09-.2-.74-.86-.33-.66a3.35,3.35,0,0,1,.33.37c.2.12-.07-.16.13,0,.6.52,0,.25.42.71.29.18-.32-.51.3.08-.79-.76.21,0-.37-.66l.36.31c0-.06-.2-.23-.17-.25l.44.43c-.35-.4.47.14.3-.11-.1.16-.48-.32-.8-.47-.37-.56,1.06.66,1,.31,0,.07-.31-.06-.45-.24a1.82,1.82,0,0,1,.51.2c0-.2-.41-.26-.6-.49.5.29-.14-.2-.25-.36l.4.28c.36,0-.8-.61-.41-.52l.52.43-.1-.16.45.32c-.29-.3-.19-.27,0-.26-.29-.17-.73-.49-.7-.56.27.11.37.27.37.15.24.18.54.41.15.21l.37.28c.31.13.14-.08.16-.12a.19.19,0,0,1-.12,0L149,186a1.62,1.62,0,0,1,.39.26c0-.06-.2-.19-.21-.25a4.24,4.24,0,0,1,.79.58l-.29-.36a4.73,4.73,0,0,1,.55.27c.24,0-.53-.58-.22-.51a.74.74,0,0,1-.16-.14c.12,0,.58.13.17-.24l.64.29c-.09-.16-.81-.36-1-.62s.54.26.73.33c-.28-.22-.87-.65-.32-.46C150.19,185.21,150.09,185.18,150.12,185.23Zm.24-1.08c.08.07.33.25.08.13C150,184,150.2,184.11,150.36,184.15Zm-.27-1.89c.13.09.05.07-.12,0S150,182.22,150.08,182.26Zm.8-5.73v0C150.73,176.43,150.79,176.48,150.88,176.54Zm.22.12a.74.74,0,0,0-.1-.18c.05.11,0,.13,0,.12S151.12,176.77,151.1,176.66Zm-6.18,8.4.1.08C145.1,185.24,145,185.15,144.91,185.05Z" transform="translate(-107.3 -174.28)"/><path class="cls-1" d="M150.57,182.74l-.23-.12A1,1,0,0,0,150.57,182.74Z" transform="translate(-107.3 -174.28)"/><polygon class="cls-1" points="42.7 11.68 42.69 11.68 42.77 11.73 42.7 11.68"/><path class="cls-1" d="M152.37,180.77l-.19-.16A.61.61,0,0,0,152.37,180.77Z" transform="translate(-107.3 -174.28)"/><path class="cls-1" d="M151.35,175.6l0,.15s.09,0,.14.11C151.41,175.76,151.33,175.62,151.35,175.6Z" transform="translate(-107.3 -174.28)"/><path class="cls-1" d="M153.08,178.11c0-.06,0,0,0-.07l-.08-.21S153,178,153.08,178.11Z" transform="translate(-107.3 -174.28)"/><path class="cls-1" d="M152.09,177c.17.37.15.22.17.13h0C152,176.63,152.06,176.83,152.09,177Z" transform="translate(-107.3 -174.28)"/><path class="cls-1" d="M152.26,177.13s0,0,0,0C152.22,176.89,152.26,177.07,152.26,177.13Z" transform="translate(-107.3 -174.28)"/><path class="cls-1" d="M151.11,176.34c.07.08-.23-.46-.14-.33C150.75,175.55,151.1,176.65,151.11,176.34Z" transform="translate(-107.3 -174.28)"/><polygon class="cls-1" points="45.37 3.94 45.15 3.49 45.3 3.87 45.37 3.94"/><path class="cls-1" d="M152.21,178l.13.09a.55.55,0,0,1-.06-.16S152.14,177.92,152.21,178Z" transform="translate(-107.3 -174.28)"/><path class="cls-1" d="M152.28,178s0,0,0-.1A.12.12,0,0,0,152.28,178Z" transform="translate(-107.3 -174.28)"/><polygon class="cls-1" points="45.35 4.12 45.29 4.04 45.23 4.02 45.35 4.12"/><path class="cls-1" d="M151.5,178.35l0,.16c.09.14.17.22.15.15A1.29,1.29,0,0,0,151.5,178.35Z" transform="translate(-107.3 -174.28)"/><path class="cls-1" d="M152.43,179.37c-.07-.08-.13-.17-.23-.31l.34.52Z" transform="translate(-107.3 -174.28)"/><path class="cls-1" d="M152.37,179.59c.09.15.22.46.25.38S152.49,179.67,152.37,179.59Z" transform="translate(-107.3 -174.28)"/><polygon class="cls-1" points="43.82 5.33 43.83 5.31 43.12 4.58 43.82 5.33"/><path class="cls-1" d="M152.39,181.83c.23.1-.48-.41-.21-.27-.18-.17-.22-.12-.37-.26C152,181.49,151.86,181.42,152.39,181.83Z" transform="translate(-107.3 -174.28)"/><path class="cls-1" d="M151.81,181.3l-.11-.12Z" transform="translate(-107.3 -174.28)"/><polygon class="cls-1" points="35.99 11.05 35.96 10.85 35.98 11.19 35.99 11.05"/><path class="cls-1" d="M143.25,186.1V186S143.25,186,143.25,186.1Z" transform="translate(-107.3 -174.28)"/><path class="cls-1" d="M151.58,184.64l-.14-.08c-.15-.07-.17-.07-.21-.06Z" transform="translate(-107.3 -174.28)"/><polygon class="cls-1" points="43.49 10.79 43.51 10.78 42.98 10.52 43.49 10.79"/><path class="cls-1" d="M151.11,186s-.06-.11,0-.12S150.47,185.68,151.11,186Z" transform="translate(-107.3 -174.28)"/></svg>