<svg id="Слой_1" data-name="Слой 1" xmlns="http://www.w3.org/2000/svg" viewBox="0 0 1161.98 33.59"><defs><style>.cls-1{opacity:0.7;}.cls-2{fill:#fff;}</style></defs><title>zig-zag</title><g class="cls-1"><path class="cls-2" d="M874.75,156.43c1.68,3,1.43,1.72,1.75,2.13C873.56,153.62,874.73,156.61,874.75,156.43Z" transform="translate(285.48 -133.2)"/><polygon class="cls-2" points="1131.09 14.48 1131.74 15.26 1129.44 11.68 1126.51 7 1131.09 14.48"/><path class="cls-2" d="M818.39,140.32c.59,1.29,1.36,2.78,2.27,4.46l1.18,2.14,1.29,2.25,2.82,4.75,2,3.32,1.38-2.46,1.63-2.73.92-1.27,1.63-4-3.4,6.06-2.16,4-1.75-2.89-2.58-4.38-2.47-4.27Z" transform="translate(285.48 -133.2)"/><path class="cls-2" d="M804.72,153.45c.11.68-.6-.56.26.75l.48-1a1.12,1.12,0,0,1-.17.15l-.32.55Z" transform="translate(285.48 -133.2)"/><path class="cls-2" d="M805.3,153.39c.3-.54.15-.41,0-.25S805.08,153.55,805.3,153.39Z" transform="translate(285.48 -133.2)"/><path class="cls-2" d="M793.63,134.51l6.3,10.47c-.08-.18-.2-.42-.34-.71l-.94-1.73-2.2-4c-1.39-2.5-2.36-4.27-1.2-2.38l-1.76-3c-4.94,8.84-3.27,6.25,0,1Z" transform="translate(285.48 -133.2)"/><path class="cls-2" d="M788.06,144.74l3-5.4c-.29.43-.64,1-1.13,1.87l-.84,1.54-.5,1Z" transform="translate(285.48 -133.2)"/><path class="cls-2" d="M797.78,142.12l-4.29-7.19L791,139.35a18.75,18.75,0,0,0,2.44-4.18l.59.8C793.53,135.45,794.78,137.21,797.78,142.12Z" transform="translate(285.48 -133.2)"/><path class="cls-2" d="M800.53,147.12c1.93,3.66,4.5,8.34.6,2l2.31,3.9c.34.55.56.87.75,1.15.37.52.49.6.46.42a6.74,6.74,0,0,0-.54-1.25l-.27-.52-.95-1.67Z" transform="translate(285.48 -133.2)"/><path class="cls-2" d="M816.51,138.54l3.14,5.88,2.67,4.16c-.32-.5-.81-1.34-1.35-2.3l-2-3.53A32.94,32.94,0,0,0,816.51,138.54Z" transform="translate(285.48 -133.2)"/><path class="cls-2" d="M770.87,134.19c-.21-.22.35,1,1,2.28s1.34,2.76,1.52,3.28l2.35,3.91,1.62,2.65L776.09,144l-2.3-4.18C772.31,137.07,771,134.71,770.87,134.19Z" transform="translate(285.48 -133.2)"/><path class="cls-2" d="M773.38,139.75l-2.89-4.8-3.78,6.87,3.78-6.58C773,139.61,773.6,140.38,773.38,139.75Z" transform="translate(285.48 -133.2)"/><polygon class="cls-2" points="1073.57 13.07 1074.64 11.05 1076.04 8.45 1078.96 3.03 1082.99 9.61 1078.96 2.96 1075.1 10.05 1073.55 12.95 1072.29 15.31 1073.57 13.07"/><path class="cls-2" d="M758,151.79l.33.48.16.24s0,0,0,0l.14.06a.22.22,0,0,0,.2,0,.2.2,0,0,1-.16,0l-.1,0-.06,0h0l-.07-.11-.14-.21-2.28-3.43Z" transform="translate(285.48 -133.2)"/><path class="cls-2" d="M742.8,141.76c1.47-2.85.36-1.16-.84.69l-.84,1.31L741,144l-.09.12-.14.17c-.07.07-.09.07,0-.06s.06-.15.12-.28l.49-.91c-3.11,5.51-5.77,10.65-5.15,10,.07-.18.13-.33.19-.46l0-.1.39-.69,1-1.64,2.08-3.48Z" transform="translate(285.48 -133.2)"/><path class="cls-2" d="M735.43,153a2.34,2.34,0,0,0,.56.55l.15-.49-.15.39C735.86,153.35,735.69,153.22,735.43,153Z" transform="translate(285.48 -133.2)"/><path class="cls-2" d="M759.81,153.66a2.7,2.7,0,0,0-.82.69c-.06-.16-.15-.35-.24-.54q.09.41.24.92a.72.72,0,0,0,.24-.06Z" transform="translate(285.48 -133.2)"/><polygon class="cls-2" points="1044.72 21.45 1044.7 21.47 1044.46 21.87 1043.46 20.09 1044.46 21.89 1044.72 21.45"/><path class="cls-2" d="M760,153.41l-.15.25A.32.32,0,0,0,760,153.41Z" transform="translate(285.48 -133.2)"/><path class="cls-2" d="M780.39,153.35c-.05-.06-.26-.4-.44-.67l-.56-.88L778.23,150c-.78-1.23-1.53-2.41-2.06-3.19-1.06-1.56-1.23-1.56,1,2.72,1,1.41.83.9.92.79s.15,0,.49.43c.17.22.4.54.7,1Z" transform="translate(285.48 -133.2)"/><path class="cls-2" d="M762,151l4.76-8.09c-.18.08-1.53,2.11.24-1.21l-1.73,3.15-1.09,2Z" transform="translate(285.48 -133.2)"/><polygon class="cls-2" points="1045.83 20.87 1046.09 20.35 1046.21 20.1 1046.45 19.66 1047.44 17.79 1045.97 20.28 1045.83 20.87"/><path class="cls-2" d="M738.58,150.26l-1.06,2-.28.52-.1.18,0,.1-.2.4c-.27.54-.59,1.12-.92,1.73l-.52-.87.52,1,1.26-2.07,2.88-5C740.36,147.63,741.21,145.66,738.58,150.26Z" transform="translate(285.48 -133.2)"/><path class="cls-2" d="M751.62,142.21l-.69-1.16C751.33,141.81,751.65,142.39,751.62,142.21Z" transform="translate(285.48 -133.2)"/><path class="cls-2" d="M712.61,154.57l.13.38,0-.07Z" transform="translate(285.48 -133.2)"/><path class="cls-2" d="M740.62,147.61c1-1.67,1.52-2.58,2.68-4.65,1-1.76,1.8-3.31,2.63-4.88l-5.79,10.21C740,148.59,740,148.66,740.62,147.61Z" transform="translate(285.48 -133.2)"/><path class="cls-2" d="M729.07,142.33l1.2,2.21.74,1.4,1.58,3A74,74,0,0,0,729.07,142.33Z" transform="translate(285.48 -133.2)"/><path class="cls-2" d="M750,139.11l.47.78C749.44,138,749.55,138.28,750,139.11Z" transform="translate(285.48 -133.2)"/><path class="cls-2" d="M750,139.11c-1-1.62-1.81-3-2.46-4l-1.57,3,1.57-2.8,3.44,5.77C750.57,140.36,750.21,139.65,750,139.11Z" transform="translate(285.48 -133.2)"/><path class="cls-2" d="M704.82,146.52c.59.32,4.7,6.82,8.17,13.3l1.56-2.47c3.88-7.31-.34-2.31-1.56-1.68l-.26-.72c0,.1-.06.23-.35-.08a10.1,10.1,0,0,1-.7-.93l-.28-.41-.16-.24-.3-.48-1.48-2.4.79,1.56c.33.64.83,1.57,1,1.95l1.71,3.41c1-1.53,1.93-2.76.65-.19l-.65,1.19c-.92-1.54-1.6-2.7-2.08-3.57l-.63-1.17-.56-1.09c-.65-1.3-1-2.16-2.2-4.45.69,1.56-.15.39-1.46-1.6l-2.39-3.72c-.83-1.29-1.6-2.47-2.17-3.27-.91,1.86-1.3,2.86-.92,2.6l.92-1.7,4,6.54c0,.11-.49-.6-.82-1S704.19,145.32,704.82,146.52Z" transform="translate(285.48 -133.2)"/><path class="cls-2" d="M718.52,145.86l2.36-4.2-1.18,2-.94,1.56-1.47,2.33-1.63,2.52-.93,1.42-.5.76a5.89,5.89,0,0,1-.4.59c-.42,1-.74,1.77-.83,2.13-.13-.13-.18-.13-.21-.1l.21.37,6.07-10.46Z" transform="translate(285.48 -133.2)"/><path class="cls-2" d="M732.1,148.6c-.44-.54-1-1.4-1.66-2.31l-.93-1.37-1.18-1.82c-1.44-2.19-2-2.78-.4.41l1.89,3.25,1.18,2c.66,1.07,1.09,1.72,1.46,2.25l1.09,1.56,1.24,1.83L733,151.28c-.51-.89-.8-1.4-.92-1.63-.24-.46.16.16.65.9,1,1.49,2.27,3.45-.62-1.83l3.35,5.6-.89-1.73-2-3.7.17.34,0,.07h0c.31.65.4.87,0,.15l-.18-.3a3.4,3.4,0,0,1-.52-.57c-2.33-4.22-.28-.71.52.57,0,0,.13.14.16.14l0-.06-8.25-14-3.62,6.42,3.62-6.21Z" transform="translate(285.48 -133.2)"/><path class="cls-2" d="M771.87,142.11c-.26-.52-.24-.55-.25-.63C771,140.56,770.83,140.28,771.87,142.11Z" transform="translate(285.48 -133.2)"/><path class="cls-2" d="M768.18,143.2c.51-1,.93-2,2.31-4.4l1.13,2c1,1.81.92,1.83.67,1.51s-.71-1-.68-.82c.64,1,1.81,2.88,2.36,3.66s.47.44-1.7-3.56l-.72-1.13-1.07-2-2.94,4.76-1.44,2.28L765,147.19c-1.34,2-2.19,3.27-2,2.8.66-.75,1.26-1.47,2-2.46.38-.49.8-1.06,1.28-1.73Z" transform="translate(285.48 -133.2)"/><path class="cls-2" d="M749.5,141l-2-3.4-6.3,11.29,4.1-6.38-.33.12c1.16-2,2-3.37,2.53-4.39C749.4,141.47,749,140.33,749.5,141Z" transform="translate(285.48 -133.2)"/><path class="cls-2" d="M712.41,153.78a.51.51,0,0,0,.4-.21,2.6,2.6,0,0,1-.66-.5,2.48,2.48,0,0,1-.23-.24l-.57-.83-1.14-1.66,1.61,2.61Z" transform="translate(285.48 -133.2)"/><path class="cls-2" d="M702.68,137q.31.15.66.35l-1.84-3-2.25,4.19,2.25-3.72Z" transform="translate(285.48 -133.2)"/><path class="cls-2" d="M195.31,145.48l-.69,1.43C194.94,146.29,195.15,145.84,195.31,145.48Z" transform="translate(285.48 -133.2)"/><path class="cls-2" d="M210.73,158.7l.46-1.19C210.19,159.47,209.75,160.39,210.73,158.7Z" transform="translate(285.48 -133.2)"/><path class="cls-2" d="M482.44,153.91c-.11-.28-.21-.55-.29-.79l-.06-.18a1.28,1.28,0,0,0-.12-.29l-.48-1-1.75-3.57c-1-2.07-1.75-3.37-1.76-3l.53,1.8c1.07,1.78,2,3.37,2.8,4.81l.59,1.05.21.41Z" transform="translate(285.48 -133.2)"/><path class="cls-2" d="M330.1,146.35,331,145l1.8-4Z" transform="translate(285.48 -133.2)"/><path class="cls-2" d="M329.57,150.88l-2.07,3.33-2.69,4.4Z" transform="translate(285.48 -133.2)"/><path class="cls-2" d="M113.52,162.63l-4.47-6.89C115.86,167.57,112.92,162,113.52,162.63Z" transform="translate(285.48 -133.2)"/><path class="cls-2" d="M610.43,136.8l-.9-1.65-8.11,13.66,2-3.11.46-.72.57-.92,1.31-2.13c1.65-2.7,2.91-4.8,3.78-6.44A12.72,12.72,0,0,0,610.43,136.8Z" transform="translate(285.48 -133.2)"/><path class="cls-2" d="M202.39,147.12c-.66-1.06-1.14-1.81-1.46-2.29-.44-.67-.69-1-.69-.92l.66,1.09.42.67.65,1C202.32,147.21,202.47,147.38,202.39,147.12Z" transform="translate(285.48 -133.2)"/><path class="cls-2" d="M597.49,153.77c.12.3.27.59.42.93l.12.19.86-1.65.25-.47.73-1.28,1.55-2.68L598.83,153a11.17,11.17,0,0,0-.8,1.43A7.4,7.4,0,0,0,597.49,153.77Z" transform="translate(285.48 -133.2)"/><path class="cls-2" d="M-175.2,150.42l-.7,1.12C-175.92,151.69-175.62,151.18-175.2,150.42Z" transform="translate(285.48 -133.2)"/><path class="cls-2" d="M-261.45,140.63l4.32,7.45C-257.82,146.84-258.44,145.75-261.45,140.63Z" transform="translate(285.48 -133.2)"/><path class="cls-2" d="M666.72,154c.56.91.1.07,0,0Z" transform="translate(285.48 -133.2)"/><path class="cls-2" d="M674.46,145l-.29.58L674,146a1.16,1.16,0,0,0-.14.49,3.61,3.61,0,0,1,.2-.61C674.15,145.64,674.24,145.43,674.46,145Z" transform="translate(285.48 -133.2)"/><path class="cls-2" d="M577.36,156.09l-.17.29C577.82,155.46,577.71,155.61,577.36,156.09Z" transform="translate(285.48 -133.2)"/><path class="cls-2" d="M667.66,153.8c-.21.28-.42.58-.65.92l-.17-.35c0,.06.06.14.17.35A8.52,8.52,0,0,0,667.66,153.8Z" transform="translate(285.48 -133.2)"/><path class="cls-2" d="M667.45,153.76l.52-.82C668,152.78,667.89,152.83,667.45,153.76Z" transform="translate(285.48 -133.2)"/><path class="cls-2" d="M665.71,152.31l.45.79.23.42.45.85c-.11-.25-.15-.37-.12-.34Z" transform="translate(285.48 -133.2)"/><path class="cls-2" d="M-20.57,159l-.56.89c-1.26,2.37-1.65,3.12-1.43,2.74Z" transform="translate(285.48 -133.2)"/><path class="cls-2" d="M429.9,151.54l.24.37-.27-.5Z" transform="translate(285.48 -133.2)"/><path class="cls-2" d="M425.28,145.24l.31-.82a12.53,12.53,0,0,1,1.6,2.2l.61,1.06.68,1.21,1.38,2.53-1.18-4.57c-.19-.23-.43-.52-.59-.69l-.48-.5q-.46-.46-.84-.79a3.14,3.14,0,0,0-1.19-.74Q425.4,144.73,425.28,145.24Z" transform="translate(285.48 -133.2)"/><path class="cls-2" d="M158.23,159.76l3,5.56,5.21-8.58-5.21,9.62-4.92-8.2-1-1.61-.64-1-.66-1c-.32-.48-.41-.54-.2-.07.3.65.31.83,2.35,4.59.49.28,2.4,3.24,5,7.61l4.52-8.11,3.6-6.37,2.78-4.89.59-1.11c.15.23.3.44.46.65l.24.31.13.15.37.58c1,1.6,1.8,2.6,2.11,2.68l1.46,2.83.73,1.42.37.71.63,1.17-.83-1.44-.44-.72c-.28-.45-.55-.89-1-1.68l.83,1.61.38.72.46.84c.84,1.5,1.58,2.81,2.26,4,1.35,2.29,2.39,3.93,3.33,5.35,1.33-2.63,2.48-5,4.11-8.2l1.21-2.31,1-2c.78-1.42,1.72-3.1,2.91-5.1l.53-.88.27-.42.46-.7a10.32,10.32,0,0,1,.64-.87c.28-.33.26-.1-.08.65l.41-.83,1.11,1.66.31.46.25.4.33.55,1.34,2.19c1.77,3.14,1.13,2.49-.64-.63l8.78,15.13,4.06-7.12-.08.22,5.65-11.2c.79-1.18.61-.79.34-.26l-.47.93c-.19.38-.28.59-.09.34l2.09-4.1.93,1.43c.34.8.29.93.08.74a8.87,8.87,0,0,1-1-1.29c-.28.58-.59,1.18-.91,1.76l-.48.88-1,1.75.84-1.1.19-.26.09-.12,0,0,.16-.15c.2-.19.35-.34.47-.48a3.85,3.85,0,0,0,.59-1l.53.67.37.5.22.31.12.17.29.48c.83,1.39,1.79,3,2.9,5l5.51,10-4.16-7.07-2.54-4.24c.34.79.7,1.59,1.09,2.41l.61,1.25.32.63.5.95c1.7,3.14,3.62,6.58,5.74,10.35l6-10.12,1.1-1.82.93-1.51,2-3.18c-.5.7-2,2.92-3.5,5.25L233,161.29c-1.17,1.83-2.14,3.31-2.76,4.19-1-2.05-1.15-2.59,0-.82.39-.78,1.05-2,2-3.64l2.08-3.49,2-3.47c1.1-1.93,2.34-4.2,3.74-6.92,0,0,.09,0,.17-.07l.12-.12.08-.06a2.37,2.37,0,0,0,.37-.41,16.31,16.31,0,0,0,1-1.56l1.21,2a2.47,2.47,0,0,0-.59.26l2.17,3.45c.63,1,1.1,1.65,1.52,2.24l1.22,1.69.34.47.18.26.27.42,1.32,2.08c1.53,2.69,2.8,5,3.85,6.89,2-3.28,3.38-5.43,4.51-7.09l.81-1.16.37-.53.18-.25.12-.15.85-1c7.28-12.47-5.66,8.25,2.75-6.63l.53-.88.23-.37.4-.64.73-1.21c.34.61.68,1.18,1,1.76l2.4,4,8.06,13.44,2.93-5.3,1.82-3c.22-.35.4-.64.47-.74l.21-.29c.19-.24.06.09-.16.57-.72,1.45-2.08,4-.79,1.91,1.13-2.13,1.44-2.85,2-4.05l1.64-3.36c.92-1.57.76-1,.68-.69.35-.66.62-1.17.82-1.58l.26-.54a1,1,0,0,0,.09-.26,3,3,0,0,0,.08-.57c0-.37.15-.85,1.42-3.26l.37.59c.17,0,.52.56,1,1.37.23.4.48.87.75,1.38l1.24,2.35,3.06,5.85,2.38,4.39,2.7,4.87c1.34-2.28,2.71-4.65,4-7l.94-1.69.61-1.15q.6-1.14,1.14-2.25c1.66-2.52-.38,1.46.29.78l2.24-4.2.47-.89.23-.42.11-.22.36-.73,1.1-2.24,1.83,2.73,4.66,7.25,5,9.27,2.67-4.37c-3.15,5-2.51,3.36-.88,0,1.81-3.67,3.93-7.87,6.17-12.25-1.72,2.53-3.2,4.7-4.16,6.17l7.69-14,.42.7c.86,1.65.42,1.19-.42.11l-.79,1.72.79-1.54.71,1.09c1.47,2.8,1.67,3.45,1.33,3.19a23.43,23.43,0,0,1-2-2.48h0L331,145,330,147.43c-.34.79-.64,1.52-.86,2.11-.45,1.2-.62,1.9-.26,1.65.43-.9,1.34-2.6,2.36-4.46-.4.91-.64,1.51-.35,1.14a10.63,10.63,0,0,0,.74-1.36l.85-1.88a2.45,2.45,0,0,1,1.17-.61l0-.08a.65.65,0,0,1,.21-.14l1.31,2.51,2.2,4,2.41,4.42,3.67,6.62,1.68,2.71,4-7.58.88-1.7.62-1.24,1.26-2.51,4.72-9.47,2.15,3.31,2.78,4.45,3.12,5.11,3.44,5.75.75-1.35a14.25,14.25,0,0,0-.75,1.74c-.82-1-.87-.74-.65,0a10.62,10.62,0,0,1,.61,2.42c-.89-1.81-1.86-3.64-3-5.6l-1.69-2.95L362,152.06l-3.27-5.37-2.08-3.32c-.6,1.11-1.18,2.15-1.82,3.2,1.79-3,1.37-1.65,1.1-1l.71-1.43,1.1,1.66.6.92,1.16,1.89,5,8.14c-.49-.15,1.16,2.82,3.66,7.3l3.72-6.22c-.77.94-.72.54-.19-.58.26-.57.65-1.32,1.12-2.22l1.2-2.27c.91-1.68,2-3.7,3.22-5.8l2.43-4.36c.76,1.27,1.47,2.43,2.09,3.39-.07.4-.68-.14-2.09-2.44-.42.77-.93,1.67-1.59,2.78a18.73,18.73,0,0,0,1.59-2.42,19,19,0,0,0,1.35,1.92l.38.48.2.25.31.44,1.28,1.86c.86,1.26,1.73,2.58,2.64,4.1l.69,1.18.83,1.47c.63,1.13,1.29,2.36,2,3.76l-2-3.51c-.26-.44-.52-.88-.71-1.16a8,8,0,0,0-.5-.68l.41.65.56.92,1.28,2.14,2.77,4.75,2.85-4.91,1.29-2.18.93-1.53c1-1.63,1.54-2.36,1.05-1.31L396,154.79l6.63-11.47,11.49,19.63,3.78-6.81,1.34-2.48,1-1.9a30.54,30.54,0,0,0,2.08-4.46,10.68,10.68,0,0,1-.58,3.42l1.17-2.57.58-1.28.14-.31.08-.2.16-.42q.68-1.72,1.75-4.11c2.23,2.67,7.11,10,10,13.74-.35-.24-.47,0-.44.65s.21,1.5.24,2.14-.11.94-1-.06a29.58,29.58,0,0,1-1.88-2.65l-1.13-1.73-1.26-2,1,1.9,1.38,2.49c1.29,2.3,2.79,4.93,4.54,7.93l2.5-4.45,2.74-5-.77,1.19c-.3.45-.61.9-.9,1.3a17.25,17.25,0,0,1-1.47,1.82c-.71.72-.79.34.32-1.66l3.41-5.1c.75-1.12,1.28-1.95,1.84-2.82l1.92-3c.51-.75,1.16-1.71,1.91-2.71a2.33,2.33,0,0,0,.22.54,5.11,5.11,0,0,1-.22-.51c-.24.19-.27-.19,0-1.1.2,0,.6.38,1.18,1.13.29.37.61.84,1,1.38l.54.85.65,1.12c-.33-.4-.51-.14-.76,0a.48.48,0,0,1-.47-.05,1.59,1.59,0,0,1-.34-.3,2.21,2.21,0,0,1-.26-.29c.13.13.61.88,1,1.4l1.14,1.69,2.27,3.39,1.14,1.69,1.41,2.17,2.64,4c-1.95-3.07-1.46-1.21.45,2.83.48-.65,1.07-1.49,1.68-2.42-.34.48.17-.45,1.15-2.19l3.46-6,3.27-5.64.85-1.49.49-.9-.92,1.35-.27.4-.46.73-.92,1.46,1.35-2.33.66-1.17c.41-.76.79-1.48,1.15-2.21.63.92,1.23,1.73,1.9,2.62l.25.33.13.17.17.25.7,1,1.4,2c.94,1.35,1.92,2.77,3,4.45,1.18,1.83,2.47,3.91,3.93,6.37l2.08-3.66a20,20,0,0,0-.77,2,4.49,4.49,0,0,0-.33,1.57c.06.25.34.09,1.07-.89.36-.49.83-1.19,1.43-2.14l1-1.61.95-1.57,2.2-5.41,1.61-3.88c.57-1.37,1.32-3.05,2.26-5.06q1.09,1.46,2.53,3.55l2.88,4.25q1.39,2.07,2.8,4.26l2.2,3.42q.42,1.05,1,2.33l.11.18,2-3.86,2.74-5.13c-.51,1.17-1.19,2.69-2,4.53l-1.14,2.56-1.57,3.36q-1.15-1.49-2.84-3.9l-3.44-4.95-1.72-2.5-.85-1.24-.21-.31-.16-.22-.31-.41c-.8-1.08-1.44-1.91-2-2.55-.77,1.6-1.17,2.53-1.5,3.3a10.54,10.54,0,0,1,1-1.37,2.93,2.93,0,0,0,.46-.56c.2.4.54,1,1.25,2.23,0,.07,0,.13.05.18s.07.18.08.22,0,.15,0,.1l-.43-.49c-.29-.36-.65-.87-.92-1.27l-.34.65.34-.55.7,1.32.17.32.66,1.17,1.32,2.35,7.28,12.85c-.15-.53.36.16,1.35,1.7.87-1.71,2.14-4.06,3.52-6.59l2-3.69,1.28-2.42c1.66-3.14,3-5.75,2.63-5.54l-3.78,7-5.66,10.27c-2.52-4.21-5.86-9.83-7.18-11.94,0-.33.65.34,1.73,1.79l.43.58.24.34.32.48,1.39,2.08,3.07,4.73,3-5.64,2.75-5.15,2.78-5.06,1.26-2.24,1.26-2.17c.3-.43.45-.58.48-.49.08.27.07.38,0,.4-.12.59-.46,1.63-.68,2.39a3.45,3.45,0,0,0-.26,1.33,20.65,20.65,0,0,1,.93-2l1.07,1.69.59,1,.93,1.57c1.34,2.29,2.42,4.19,2.65,4.71L519,146.79l.2.37.27.5.55,1,1.08,1.86c.72,1.21,1.43,2.36,2.14,3.49l2.77,4.47,3.07,5.06c1.08-2,2.19-3.92,3.41-6l.94-1.59.85-1.4,1.52-2.38c.5-.84,1.16-1.88,1.87-3l1.09-1.65.27-.41.13-.19.07-.08.25-.3c.62-.76.94-1.1,1-1.61a7.82,7.82,0,0,1-1.2.43,5.22,5.22,0,0,1-1.44.29.72.72,0,0,1-.78-.8,7.63,7.63,0,0,1,.9-3l2.61-4.25L544,144l1.59,3,1.44,2.77,2.54,4.95,1.63,3.32c.72,1.56.86,2.13.57,2a12.55,12.55,0,0,1-1.86-2.18c-.83-1.1-1.82-2.47-2.35-3.08-.23-.24-.37-.33-.39-.21s0,.37.53,1.33a20.57,20.57,0,0,1,1.71,2.41l2.15,3.34c.23.43.42.78.51,1,.82-1.25.56-.53.77-.7s1-1.35,3.9-6.53a7.51,7.51,0,0,1,.47-1.22c.25-.52.58-1.16,1-1.84.75-1.37,1.65-2.92,2.31-4.05,1.32-2.26,1.69-2.84-2.07,3.06l1.89-3.41,1.32-2.28,2-3.18,1,1.9,1.47,2.58c-.57-1.4.63,0,2.54,2.7,1,1.34,2.09,3,3.26,4.76s2.23,3.38,3.18,4.89l1-1.79c-.09.33.09.21.39-.12s.7-.87,1-1.24c3.64-6.28,6.67-11.42,9.18-15.65l5.22,9.34L598,160.88l1.54-2.68c.23-.32.69-1,1.25-1.91l1.69-2.64c1-1.49,1.67-2.44.94-.87l1.73-3.46c.66-1.29,1.65-3.14,2.6-4.82s1.25-1.72,1.09-1.34-.71,1.36-1.27,2.37l-.94,1.7c-.34.63-.63,1.17-.8,1.52-.34.71-.21.69.89-.87a3,3,0,0,1,.28-.78l.61-1.3c.44-.91,1.09-2.18,1.88-3.67l2.46,3.95,3.13,5.11a26.16,26.16,0,0,0-2-4.1c-.58-1-1.11-1.95-1.71-3L609.53,141l-5.16,9.68c-.22-.11.11-1.19.91-3.07.41-1,.9-2,1.6-3.5s1.58-3.19,2.65-5.26l2.3,3.58,2.64,4.22,5,8.07c.68,1.12,1.18,2,1.57,2.65,1.19-2,1.42-2.17,1.41-1.89s-.31,1,.08.24l2.89-5,2.53-4.54,2.41-4.45,2.18-4.1,6.23,9.76c.88,1.41,1.83,3,2.93,4.86.67,1.16.85,1.47,1.21,2.13l1.13,2.13.45-.69a8,8,0,0,1,1.32-1.49c.25-.17.3,0,.24.35-.09.66-.71,2.19-.18,1.67L644,159.62c-1.06-1.82-2-3.53-2.87-5.08l-2.5-4.61-2.31-4.29c-.86-1.57-1.78-3.21-2.74-4.87l4.83,8.92c-.72-1.12-1.68-2.66-2.73-4.42s-2.18-3.65-3.18-5.42c-.75,1.29-1.44,2.45-2,3.4.49-.73,1.18-1.84,2-3.25,1.3,2.37,2.89,5.2,4.86,8.66L644,160.29l11.5-19.86,3.48,6.2,3.25,5.88,3.22,5c.88,1.34,1.25,1.79.58.4l-3.13-5.3c-.64-1.32-.55-1.36-.12-.77.21.29.52.74.85,1.26l1,1.54c1.25,1.93,2.15,3.32.66.52l1.7,2.63,1.74-3.41.42-.81.62-1.17,1.34-2.48,1.4-2.55,1.54-2.75c1.41-2.48,2.9-5.06,4.43-7.67l1.82,3.25q.67,1.78,1.16,3.25c0-.21-1.34-2.72-3-5.65-1.43,2.41-3.07,5.27-4,7.06.88-1.69,2.38-4.22,4-6.87l5.41,10c.77,1.39,1.53,2.7,2.24,3.86.36.58.7,1.12,1,1.61.18.27.31.44.43.6s.25.31.36.44l-.8-1.6-1-1.88-1.92-3.77,3.56,5.64.23.37.15.23.27.4.52.76,1,1.39.89-1.79.41-.82.25-.48.48-.88c1.3-2.34,2.65-4.7,4-7a24.36,24.36,0,0,0-2.24,3.33c-.24.42-.52.9-1,1.68l-.93,1.4-.63.91c-.1.14-.26.39-.33.46l-.15.13.19-.1s.14-.1.13,0a1.07,1.07,0,0,1-.1.43,21.21,21.21,0,0,1-1,2l-3.2-5.52c-1.32-2.22-1.85-2.91-.5,0-.44-1-.89-2-1.34-2.88l-.68-1.37-.34-.67-.54-1c-1.55-2.85-3.16-5.73-4.89-8.83l-4.41,7.4-1.25,2.07-.82,1.29-1.76,2.68c.17-.09.7-.82.62-.57a11.6,11.6,0,0,1-.7,1.32L668,152.94a3.92,3.92,0,0,1-.2.7l-.11.17.1-.12c-.05.15-.06.17,0,0l.32-.42.16-.2.32-.49c.44-.66.79-1.16,1-1.43-.32.75-1.13,2.3-1.31,2.74-.34.72-.79,1.59-1.29,2.54l-1.15-1.84L664.35,152c-1.33-2.22-2.49-4.15-3.27-5.35a19.25,19.25,0,0,1-.91-1.75c0-.07.06,0,.13.14l.31.44c.49.71,1.14,1.67.52.36L656,137.67a8.63,8.63,0,0,0-.49-1.14c-.95,1.27-3.29,5-4.41,6.71s-1,1.14,3.66-7.13l-7.58,13.15-1.35,2.17-.7,1.14-.16.26-.06.08-.11.16c-.29.42-.55.81-.79,1.2-.25-.47-.48-.88-.72-1.27l-2.11-3.48c-.64-1.16-1.41-2.46-2.15-3.69l-2.81-4.61-1.7-2.77c-.16-.26.14.19,1.15,1.77l-3.16-5.38-5.6,10-3.37,6.08-.18.09-1.53,2.67-.81,1.48-1.09-1.76L617.35,149l-3.19-5.41-4.63-8-4.39,7.66-3.19,5.46-1.48,2.49-.75,1.25-.35.58-.16.24c-.42.64-.83,1.22-1.17,1.67l-.12-.27-.83-1.27-.23-.36-.51-.86L595.05,150l-2.83-4.88L587,136l-.48-1.07-1.14,1.44-4.27,7.46L578,149.1l-1.52,2.56-.67,1.12-.19.29c-.24.38-.44.71-.62,1a2,2,0,0,0-.58-.69l-.1-.47,0-.21v-.05l-.1-.21L574,152c-.58-1.16-1.28-2.48-2.06-3.92l-1.23-2.24-1.68-3-5.48-9.57-8.7,15.27-1.44,2.56-.71,1.26-.13.24-.06.11-.46.87-.37-.64-.77-1.39-.69-.18-3.63-6.29-6-10.35-5.62,10-3.66,6.63L532,151l-1.66,3.08c-.4.72-.84,1.49-1.29,2.26l-3.74-6.82-3-5.47-4.72-8.39-6,10.37a11.37,11.37,0,0,1,.55-1.14l.64-1.15.83-1.45c1.16-2,2.51-4.29,3.6-6.09-1.44,2.31-3,4.82-4.53,7.43l-3.1,5.21-1.42,2.46L507,153.22l-1,1.87-1.17-1.78-.16-.24-.35-.58-.76-1.25-1.51-2.49-3.25-5.44-4.3-7.39c-2.53,4.41-5.58,9.62-6.92,11.67-1,1.85-1.84,3.42-2.67,4.84-.51.88-.56,1-.77,1.27s-.35.53-.52.76c.08-.14.15-.28.21-.41l-.36.61-.46.62-.63-1.38c.19.49.42,1,.63,1.49l.27-.39-.27.49-4-6.55-.6-2-.56-1-.71-1.32-.81-1.39c-.46-.76-.69-1.07-.75-1.05s.06.38.28.95l.41,1,.25.58.18.45L474.26,141l-2.14-3.41c-.15-.36-.33-.74-.55-1.19-.74,1-1.71,2.61-2.77,4.43l-1.64,2.88-1.33,2.4c-.76,1.37-1.53,2.76-2.31,4-.39.64-.78,1.26-1.17,1.84a6.7,6.7,0,0,1-1,1.28,19.67,19.67,0,0,1-1.28,2.74l-1.57-2.47-3.1-5.08-1.5-2.4-1.55-2.42a19.43,19.43,0,0,0-2.14-3c-.06-.33-1-2,.72.91l-2.35-4.21c-1.37,2.33-2.76,4.7-4.09,7l-1.54,2.76q-.69,1.27-1.33,2.52L440,151.36l-1,2-.55,1.27-1.36,3-1-1.37-1.48-3.09a21.8,21.8,0,0,1-1-2.15c-.11-.36,0-.34.37.14.19.24.45.59.78,1.07l.56.81a3.14,3.14,0,0,0,.22.3l.18.23-.26-.37-.47-.75-.91-1.44-1.57-2.51-2.46-4L425.59,137l-2.83,5.21L421,145.55l-1.69,3.3V148l-1.48,2.68-1.56,2.92c-.69,1.35-1.47,2.87-2.15,4.08a19.38,19.38,0,0,1-1.2-2.3l-.46-1-.57-1.13-2.13-3.93L407,144.5l-4.4-7.74-11.49,19.9L379.61,136.5l-7,12L369.93,153l-.72,1.16-.61.95c.33-.12.46-.11.34.2a9.41,9.41,0,0,1-.83,1.43l-1-2-.49-1-.27-.52-.47-.87c-1.23-2.26-2.31-4.07-2.74-4.25-.62-1.63-2.54-5.29.06-1.25l-1.28-2.16L360,141.39l-3.42-5.94-8.08,13.85-1.35,2.36-.66,1.18-.18.34-.12.24c-.33.66-.66,1.4-1.11,2.42l-.22-.25c-.19-.64.06-.4.22-.31.16-.43.26-.74.13-.67l-.13.3a5.73,5.73,0,0,1-1-1.64c-.13-.55.54.48.86.78l-2.62-4.22c-1.25-2-2.2-3.36-3-4.35l-.53-.67-.62-.81a12.29,12.29,0,0,0-1-1.11,2.7,2.7,0,0,0-1.12-.76l-2.56-4.79q-1.35,2.21-2.52,4.23l-1.14,2-1,1.82c-1,1.86-1.88,3.67-2.84,5.77l-1.23,1.75c-.19.26-.37.52-.5.68a1.05,1.05,0,0,1-.23.22s-.06,0,0-.11a1.92,1.92,0,0,1,.07-.2c0-.08.13-.28.23-.47.4-.78,1.13-2.11,2.3-4.2l-4.6,7.8-2.19-3.87-3.45-5.94-1.62-2.73-1.65-2.72a9.48,9.48,0,0,0-1.56-2.24c-.23-.46-.58-1.13-1-1.93-.81,1.36-1.89,3.25-2.83,4.95s-1.82,3.28-2,3.64l-6.67,11.48-3.53-6.1,1.46,2.74a9.75,9.75,0,0,1-.9-1.14c-.32-.45-.64-.92-1-1.41-.63-1-1.25-2-1.92-3.22L291,144l-3.35-6-1.57,2.74.15-.42c-10.07,16.67-7.17,12.38-10.08,17.28l-3.93-7.32.17,1.26c-.53-.34-1.45-1.79-2.65-3.93-1.09-1.94-3-5.44-5.09-9.42l-5.47,9c-.79,1.31-1.56,2.62-2.31,3.92L255.81,153l-.45.83-.35.67c.5-.69,1.47-2.19,2.27-3.41-.3.59-.64,1.21-1,1.86l-.56.95-.5.79c-.68,1.06-1.39,2.07-2,2.89-.5-1.1-.95-2.13-1.31-3l-.49-1.24-.89-1.93c-1.21-2.58-2.34-4.95-3.38-6.83-.28-.54-.3-.61-.14-.36l.68,1.08,1.87,3.06-2.22-4.14L244.89,140a16.81,16.81,0,0,0-1.83-2.89c-.17-.13-.07.27-.17.34s-.36-.17-1.2-1.45c-.66,1.29-1.72,3.27-3.41,6.25-1,1.45-.59.26-.71.11s-.3.17-1,1.27l-1.09,1.74-1.41,2.36c-.51.78-1.33,2.24-2.37,4.15l-.4.74-.1.19,0,.07-.06.12-.25.55-.65,1.4c-.31-.43-.69-1-1.11-1.58l-.16-.24-.3-.48-.77-1.27-1.55-2.56-1.52-2.56-1.8-3.1c-1.49-2.59-2.91-5.1-4.27-7.56l-2.4,3.94a28.19,28.19,0,0,1,2.36-3.33c.18-.06-.5,1.35-2.66,5.3l-1.43,2.5-1.29,2.2-2.46,4.08-1.31,2.14-.61,1-.36.56L207.21,156l-1-1.87-.47-.84-.91-1.56c-1.32-2.25-2.59-4.27-3.74-5.9a13.24,13.24,0,0,1-.86-1.91l-4.52-7.59-4.58,8.21-3.17,5.8-1.41,2.61-.3.57-.19.38-.37.73c-.47,1-.89,1.84-1.18,2.52a1.24,1.24,0,0,0-.3.19c-.32-.87-.7-1.74-1.13-2.61-.21-.44-.44-.88-.68-1.34l-1.4-2.5c-1-1.78-2.13-3.7-3.3-5.67l-5-8.43-5.25,9.46c-1.22,2.22-2.36,4.27-3.36,6l-.72,1.24-.43.71c-.27.43-.51.79-.7,1-.39.52-.6.61-.63.27l-.41.72-9.94-17.14.49.53-2-3.58-3.24,5.64-2.42,4.27c-1.1,2-2,3.65-2.78,5.12l-1.07,2.07-.11.23-.06.14-.13.28-.25.55-1,2.31a3.68,3.68,0,0,1-.4.56c-.26-.57-.13-.47,0-.35.07-.19.15-.38.17-.47l-.17.28L136,152.52l-2.95-5.24-3-5.23-3.28-5.6-2.54,4.6-2.49,4.6-4.37,8.43a5.34,5.34,0,0,1-.91.58c-.21.46-.62,1.2-1.18,2.14l-3.41-6.23-3-5.52-5-9L96.3,149l-2.61,4.63-1.4,2.65-.22-.33s.09,0,.22.13c.06-.18.18-.45.34-.78l-.34.65c-.43-.67-.89-1.43-1.36-2.23l-2.57-4.47L80.8,135.83,76,143.93l-3.22,5.4-3.5,5.84c-.35-.63-.68-1.19-1-1.72l-2-3.22c-.75-1.19-1.45-2.25-2.09-3.15q-.48-.68-.91-1.24l-.86-1.05-4.63-7.67L52.4,147l3.35-5.67c.84-1.4,1.33-2.18,1.58-2.53.5-.69,0,.33-.59,1.62s-1.4,2.87-1.7,3.6-.15.66.93-1.06c-1,1.77-2.13,3.71-3.21,5.5s-2.14,3.48-2.92,4.68l-.53.81-.37.52c-.2.27-.32.39-.33.34a16.06,16.06,0,0,1,1.51-2.93l.83-1.25c.23-.86-.4,0-1.48,1.67l-1.58,2.56-1.56,2.62-3.57-6.37c-1.27-2.3-2.07-3.87-1.86-3.83l-6.07-10.55L23.33,156.61l-11.5-20.28L4.41,149.09.34,156l-4-7.08-7.5-13.16L-19,149.31l2.73-3.29-5.61,9.68c-.56.8-.86,1-.75.6a6.88,6.88,0,0,1,.48-1.13c.13-.27.3-.58.49-.94l.82-1.45c-.33.49-.39.54-.55.78s-.28.43-.42.67c-.28.48-.57,1-.88,1.65-.49-.7-1-1.44-1.55-2.1l-.37-.47-.48-.68a4.77,4.77,0,0,0-.49-.63c-8.62-15.59,4.21,5.61,1.5.86l-3.74-6.4L-27,148l-1.54-2.35-.71-1.08-.9-1.41c-1.18-1.86-2.32-3.69-4-6.49l-2.12,3.76L-39,145.26c-3.57,5.92-2.16,2.85-3.54,5.2,0,0-.15.17-.47.72l-.64,1.12-.45.8-.24.45-1.25,2.13-3.3-5.83,1.35,2.93a10.08,10.08,0,0,1,.43,1l.36.92c-.28-.41-.56-.86-.85-1.31l-1.32-2.2L-51,147.73c-1-1.68-1.15-1.76.41,1.61-.49-1.06-1.19-2.47-2.1-4.19-1.21-2.25-2.71-5-4.42-8l-6.81,11.61-4.68,8.08-11.49-20-4,6.94-1.24,2.1-.73,1.18c-1.06,2-2.14,4.06-3.24,6.1l-1.12,2.1-1.14,2.09L-93,155l-1.79-3.1-4.95-8.66a23.89,23.89,0,0,1,1.06,2.17c.15.41.17.63,0,.49a2.68,2.68,0,0,1-.42-.49c-.22-.32-.51-.75-.87-1.32-.72-1.14-1.72-2.82-3.12-5.29l-.38.65c.45-1.34.26-1.4-.53-.28-.39.55-.93,1.38-1.58,2.42l-2.22,3.66-4.09,6.86-1,1.59-.62,1c-.41.64-.79,1.23-1.12,1.71a19.87,19.87,0,0,1-1.17-2.75c.22.6.19.71-.07.36l-.24-.34-.15-.22-.21-.34-1.47-2.46-3.66-6.22-4.52-7.64a34.21,34.21,0,0,0-1.77,3.45c-.08.31.43-.37,1.6-2.13-2.81,4.77-3,4.88-3,4.57,0-.15,0-.4-.22-.1a9.39,9.39,0,0,0-.69.95l-1.29,2q-1.78,3.28-3.7,6.69l-2.43,4.31-11.5-20.34-11.49,19.64-3.22-5.57c-.35-.26,1.57,3.62-1.42-1l-1.26-2.56-.63-1.28-.38-.76-.48-.92-4.11-7.88-1.78,2.81c-1,1.78-1.69,3.14-2.26,4.31l-.79,1.66-.17.37-.12.27-.25.57a50.87,50.87,0,0,1-4.33,7.42c.79-1.07,1.95-2.64.31.32l-2.1,3.46-1.69-3.07-2.63-4.67-7.17-12.59-11.49,20L-218,136.81l-11.49,20.07L-241,136.64l-4.18,7.14-3.16,5.33-1.48,2.47c-.47.78-1.09,1.83-1.24,2.05l-1.43,2.24-1-2.07-.23-.48-.11-.23-.26-.49-1.13-2.12.94,1.87a7.06,7.06,0,0,1,.41.88c.06.21,0,.2-.12,0l-.06-.08-.12-.2-.29-.47-.73-1.23-1.85-3.19c1.65,3-.42.15-.28.86l-2.82-5.25-3.77-6.9-3.8,6.29-1.71,2.82-1.37,2.23a42.93,42.93,0,0,1-2.24,4.48l-1.21,2.2-1.16,2-1.26-2.18-1.44-2.43a28.64,28.64,0,0,0-2.55-3.86l3.35,5.59-.79-1c-.23-.28-.38-.42-.46-.44s-.07.38.2,1.11.59,1.56,1.12,2.75,1.16,2.56,1.84,4c.83-1.1,1.72-2.31,2.43-3.18s1.21-1.4,1.18-1c.78-1.56,1.26-2.51,1.92-3.71s1.35-2.4,2.1-3.67l1.17-1.94.53-.86.44-.7,1.72-2.64,1.64,3.23.42.81.68,1.25,1.39,2.53,1.44,2.55,1.65,2.83c1.44,2.44,2.89,4.85,4.27,7l1.8-3.47c1.26-2,.8-1,.13.29s-1.54,3-.8,1.95c.75-1.52,1.51-3,2.33-4.54l2.26-4.2c.72-1.3,1.54-2.74,2.48-4.36l1.4-2.37,1.06-1.72-.27.68,1.12-2,4.71,8.23,6.78,12,7.09-12.07,2.84-4.79L-218,144l.93,1.71,1.35,2.44,5,8.9-.66-1.63a6.15,6.15,0,0,1-.23-.63l-.17-.54,3.13,5.61,2.14,3.95,2.4-3.88c1.1-2.21,1.09-2.38.55-1.55s-1.66,2.74-2.95,5l-2.81-4.92-1.32-2.33-1-1.74c-.9-1.67-1.2-2.4,0-.82.18.41.37.83.64,1.38l1.2,2.3c.91,1.7,2,3.72,3.27,6l7-11.89,4.54-7.84,1.77,3.16,2.76,5,1.15,2.15,1.07,2.07c.89,1.7,1.59,3.1,2,4.1,1.58,2.75,2.43,4.19,2.72,4.62.78-1.47.33-.87,0-.47-.3-.66-.52-1.19,0-.38.26-.53,1-1.93,2.59-4.63l2.14-3.13.38-.85.23-.59.45-1.17c1.64-2.78,2.94-4.83,3.88-6.2a3.14,3.14,0,0,1,.45-.57,2.19,2.19,0,0,1,.26-.23c.14-.11.23-.12.28-.08s-.17.28-.26.46l-.53,1-1.49,2.73,1.24-2,1-1.61c.31-.5.61-1,.92-1.58l.87,1.42.22.35.51.86,1.15,1.94c1.46,2.46,2.59,4.38,3,5.2l-4.47-8.14,4,6.9,6.15,10.63,11.49-20,11.5,19.88,4.52-8,3-5.43,1.38-2.49,1.11-2,1.38-2.62q-.27.24-.59.57l.64-1.22,1.33,2.19,1.31,2.22c1.05,1.82,1.89,3.3,2.64,4.66l2.46,4.46,3.75,6.69,3.73-6.45,3.85-6.78-.35.71,1.17-2.26,1.2-2.27c.55-1.06,1.2-2.26,1.88-3.48l1.5,2.59c-.48-.7-.5-.61-.36-.23.07.19.19.46.32.75l.2.45.1.23.14.29c1.07,2.12,2,4.06.11,1l6.39,10.6c1.69,2.81,2.47,4.05,3.1,5L-86,152.21l2-2.65,1-2.18.45-.94.33-.71c.45-1,1-2.11,2.09-4.06l2.36,3.94c-1-1.5-1.22-1.82-1.23-1.67a8.88,8.88,0,0,0,.5,1.32c.23.55.41,1,.32,1s-.45-.41-1.17-1.47c.63,1.38,2.87,5.42,4.43,8.17l3,5.19,3.3,5.64,7.81-14.1c.88-1.57,2-3.43,2.3-3.93A10.67,10.67,0,0,1-57.13,144l.23.62c.46.43.71.59.66.29a10.44,10.44,0,0,0-.89-2c-1.13,1.66-7.13,12.38-5.26,8.84-1.2,1.79-.65.51.65-2l1.1-2.09,1.2-2.23c.73-1.36,1.56-2.84,2.32-4.18l1.23,2.16c.29.51.57,1,.83,1.52l.77,1.54,1.86,3.85c.66,1.4,1.36,2.87,2.24,4.65,1.22,2.36,2.71,5.18,4.56,8.58l3.61-6,3.36-5.77c-.91,1.58-.91,1.72-1.82,3.3,1.4-2.23,2.66-4.48,3.94-6.82l.87-1.59.47-.9c.33-.61.68-1.26,1-1.88.44.79.91,1.69,1.29,2.55a4.12,4.12,0,0,1,.29.3,2.94,2.94,0,0,1,.22.3l.26.39c.35.52.69,1.06,1,1.6.66,1.08,1.29,2.17,1.87,3.17s1.12,1.9,1.59,2.61l.41.61c.15.22.29.41.42.58a3.07,3.07,0,0,0,.66.68L-30.63,149l-3.17-5.34c.52.82,1.05,1.64,1.66,2.55l2.68,4.2,3,4.81c1.25,2,2.49,4.09,3.8,6.3,1.06-1.9,2.17-3.85,3.38-5.92l1.69-2.86,1.74-2.86c-.53,1.25-2.35,4.84-4.73,9.2.79-1.26,1.57-2.58,2.33-3.9l1.67-3,1.65-2.95.88-1.49.46-.75c.16-.25.33-.52.41-.64.08.11-.17.73-.6,1.6s-1,2-1.77,3.35l-2.72,4.82-4.38,7.66L-28,154.57c-1.23-2-2.41-4-3.47-5.57.73,1.49,2.11,3.84,3.5,6.15l3,5.09,2.31,3.94c1.14-2,1.54-2.48.2.41,1.18-2.48,2.34-4.76,3.6-7.08,1.45-2.66,2.09-3.8,3.1-5.54l3-5.17c.52-.85,1-1.69,1.54-2.67.28.46.58.92.92,1.41l.53.76.3.41.53.8-.82-.47,2.25,3.56L-6,152.89l.71,1.19.72,1.24-3.83-5.42q.92,1.42,1.77,2.84l.85,1.42.89,1.54c1.76,3.08,3.48,6.16,5.25,9.36l6.34-10.57c1.36-2.26,2.7-4.54,4-6.89l-3,5.2-1,1.69-.79,1.29c-1.31,2.17-1.52,2.36-1.45,2.05s.41-1.12.3-1.13-.67.76-2.27,3.36l4.77-8.56c1.08-1.89,2-3.4,2.75-4.66l.2-.31.15-.23.29-.41c.18-.26.35-.47.5-.66a6.76,6.76,0,0,1,.77-.81l.57,1.52.26.7.13.34.07.17.28.53c.77,1.46,1.7,3.18,2.87,5.27l2.27,4L22.35,164c-.82-1.39-2-3.46-3.2-5.6l-1.69-3-.9-1.71c-1.07-2.08-1.5-3.12.06-.62l6.7,12.14c2.09-3.46,4-6.6,5.36-8.74l2.74-4.88c.58-1.05.91-1.68,1.07-2,.31-.65-.09-.09-.66.75-1.14,1.69-3,4.52-1.13,1,.68-1,1.25-1.84,1.76-2.68l.73-1.24.28-.51.13-.26,1.21-2.83a23.13,23.13,0,0,1,1.5,2.15l-.32.42.39.72.7,1.25,1.22,2.15c.74,1.29,1.33,2.29,1.81,3.08l.65,1,.57.88c.44.69.77,1.16,1,1.52a35.45,35.45,0,0,1,3.94,5.91c1-1.82,2.53-4.4,4.7-8.06l-4.7,9.32-.94-1.43.94,1.59,6.06-10.86c-.19.7-.33,1.32-.56,2.08,1.76-3.35,3.06-5.76,4.3-8l.93-1.67.76-1.28.73,1.36.39.75.87,1.59c-.46-1.15-.1-1,1,.53.53.74,1.23,1.81,2.1,3.19l1.41,2.32L66.4,158c1.69,3.17,1.69,3.35,1.58,3.3s-.28-.25,1.33,2.57l4.07-7.11c-1.08,2.21-2.35,4.78-4.07,7.91-1.42-2.36-3.18-5.49-5.07-9.17l-.51-.65-.62-.85c-.43-.6-.87-1.21-1.09-1.43l1.08,2.06.65,1.2,1.06,1.89,4.48,7.85L77.55,151c-.93,1.59-2.05,3.48-2.67,4.43l3.82-7.22.48-.9.22-.41.09-.2.4-.84L80.8,144l.71,1c.35.79.32.89.16.78a7.27,7.27,0,0,1-.67-.73c.38.6.73,1.08,1.19,1.75l1.54,2.49,1.93,3.25A13.61,13.61,0,0,1,84.12,151c-.35-.44-.8-1.05-1.42-2l-1.07-1.67-.38-.51.29.4L82.61,149,85,152.9l2.88,4.79,3.87,6.52.57,1.11,4.21-6.74c.72-1.15,1.33-2.11,1.65-2.58l.18-.26s0,0,0,0a4.23,4.23,0,0,1-.33.68l1.1-1.86,1-1.66,2-3.56,1-1.88c.1-.2.12-.28.19-.44l.45-1c.2.25.43.55.69.93l.2.29.66,1.1,1.39,2.32,2.74,4.68,4.44,7.85c.29.44.72,1.1,1.36,2.16l2.77-5,3.63-6.21,2.5-4.21,1.25-2.1.44-.73.19-.29.71-1.12c.23.5,2.64,4.63,8.11,13.65l3.38,6.56,4.06-6.33L144,156.6l.51-.93.21-.42c.23-.47.26-.61.16-.53a5.47,5.47,0,0,0-.59.71c-.1.11-.38.55-.61.89l-.7,1c-.9,1.32-1.52,2.17-1,1,.14-.29.34-.7.63-1.26l1.07-2c.59-1.11,1.43-2.66,2.62-4.79l2-3.54c.25-.43.45-.75.59-1,.29-.41.39-.41.44-.29.07.28.05.83.36.48l.08-.21a7.12,7.12,0,0,1,.71.77l.25.31.14.17,0,0,.09.14.18.29,1.52,2.41c1,1.67,2.13,3.44,3.25,5.31,1.72,2.91,3.5,6,5.32,9.19l3-5.13,1.58-2.64.81-1.33.53-.83-.51.94-.81,1.44-1.58,2.78L161.25,165Zm73.71,1.61-1.73,3.2c-1.14-1.86-2.49-4.09-3.72-6.17-.61-1-1.19-2-1.67-2.92a14.35,14.35,0,0,1-.7-1.43c.21.26.42.51.61.77l.28.38.39.59c.52.8,1,1.6,1.5,2.44,1,1.68,2,3.57,3.31,6Zm107.77-8.75c-.59-.86-1.26-2-2-3.33l-1.15-2.12-.56-1.08-.46-.92.83,1.41,1.07,1.88Q338.55,150.43,339.71,152.63Zm304.74,1.94-.05.14-.38.54c-.55-1.14-.42-.87,0,0Zm5.27-8.75c.59-1.16.49-1.12.16-.67-.34.84-1.79,3.37-3.47,6.22A43.61,43.61,0,0,0,649.73,145.81Zm-692.88,6,1.37-2.12C-44.5,154.68-43.82,153.23-43.15,151.8Z" transform="translate(285.48 -133.2)"/><path class="cls-2" d="M329.67,150.29a3.17,3.17,0,0,1-.82.91C328.37,152.19,328.44,152.25,329.67,150.29Z" transform="translate(285.48 -133.2)"/><path class="cls-2" d="M114.3,163.81l-.37-.66a3.4,3.4,0,0,0-.4-.52Z" transform="translate(285.48 -133.2)"/><path class="cls-2" d="M551.34,162.73c-2-3.61-3-5.59-3.67-6.89C547.47,155.73,548.27,157.33,551.34,162.73Z" transform="translate(285.48 -133.2)"/><path class="cls-2" d="M688.32,151.17l-4.4-7.41,1.44,2.51.92,1.67,1.39,2.65C687.67,150.38,687,148.92,688.32,151.17Z" transform="translate(285.48 -133.2)"/><path class="cls-2" d="M721.68,145c.56-1.1,1.26-2.21,1.84-3.33l-.23,0C720.5,146.47,719,149.48,721.68,145Z" transform="translate(285.48 -133.2)"/><path class="cls-2" d="M689.74,156.85a3.42,3.42,0,0,0,.27.8,19.45,19.45,0,0,0,1.55-2.48l2.87-5.15-.51.89c.17-.84-.4,0-1.37,1.63-.58,1-.81,1.44-1.23,2.22l-1.3,2.5Z" transform="translate(285.48 -133.2)"/><path class="cls-2" d="M695.08,148.84l1.33-2.35,1.52-2.63c.15-.48-.23.14-.89,1.34Z" transform="translate(285.48 -133.2)"/><path class="cls-2" d="M661.83,146.18c1.28,2.44,1.31,1.24,1.95,2.67.5.6.14-.07-.56-1.22l-2.95-4.71a26.85,26.85,0,0,0-2.26-3.41c.05.15.37.75,1.06,2l1.33,2.3Z" transform="translate(285.48 -133.2)"/><path class="cls-2" d="M691.94,156.63a13.11,13.11,0,0,1-1.15,1l-.78,1.81-.71-.87.71,1.28Z" transform="translate(285.48 -133.2)"/><path class="cls-2" d="M668.88,156l4.62-7.77a10.38,10.38,0,0,1,1.09-2.24l-4.08,7-1.25,2.2C669,155.72,668.83,156,668.88,156Z" transform="translate(285.48 -133.2)"/><path class="cls-2" d="M674.59,146c1.51-2.62,3-5.22,3.91-7l.18.28-.18-.31C677.61,140.59,675.75,143.88,674.59,146Z" transform="translate(285.48 -133.2)"/><polygon class="cls-2" points="970.96 19.23 969.68 16.8 966.45 11.1 970.96 19.23"/><path class="cls-2" d="M619.53,156.47l-5-8.37c-.66-.81.62,1.64,2.56,4.87C618.47,155.08,620.16,157.89,619.53,156.47Z" transform="translate(285.48 -133.2)"/><path class="cls-2" d="M634.11,144.59c-.92-1.79-1.05-2.22-1.59-3.45a.83.83,0,0,0-.13.14l-.08,1.39.21-.43Z" transform="translate(285.48 -133.2)"/><path class="cls-2" d="M619.56,159.56c-.17-.21-.86-1.3-1.69-2.65l-1.31-2.11-.92-1.44c-.53-.82-.83-1.27-.6-.81.11.23.36.68.78,1.42l2.31,4c.36.47,1.89,3,2.89,4.61,1.09-2,1.62-3.08,0-.4Z" transform="translate(285.48 -133.2)"/><polygon class="cls-2" points="829.03 12.55 830.31 14.77 831.01 13.94 829.03 12.55"/><path class="cls-2" d="M474.36,150.27c1.4,2.55,2.23,4,2.77,4.85l.83,1.28c.24.35.4.55.54.73a11.65,11.65,0,0,1,1.12,1.57c.61,1,1.58,2.65,3.45,6l.75-1.25c.73-1.43.2-.62-.75,1-1.85-3.39-5.34-9.57-3.77-7.12l-2.89-4.76c-.69-1.13-1.24-2-1.63-2.63C474,148.7,473.82,148.66,474.36,150.27Z" transform="translate(285.48 -133.2)"/><path class="cls-2" d="M479.3,157.3l2.79,4.54C480.55,159.29,479.78,158.05,479.3,157.3Z" transform="translate(285.48 -133.2)"/><polygon class="cls-2" points="9.65 21.32 9.02 20.01 8.88 19.72 8.46 18.93 7.54 17.22 8.64 19.47 8.77 19.75 8.81 19.86 8.89 20.09 9.07 20.58 9.65 21.32"/><path class="cls-2" d="M-282.31,144.75l-.34-1.9-2.82-3.73C-284.58,140.62-282.85,143.53-282.31,144.75Z" transform="translate(285.48 -133.2)"/><path class="cls-2" d="M241.72,147.07a1.62,1.62,0,0,1,.05-.22,1.94,1.94,0,0,0-.08-.36c-.1,0-.25.28-.51.69q.37-.31.51-.23Z" transform="translate(285.48 -133.2)"/><polygon class="cls-2" points="477.9 18.58 478.81 17.02 476.63 19.65 477.9 18.58"/><path class="cls-2" d="M149.28,148.37l.39-.68v0l0-.06a1.87,1.87,0,0,1,.06-.2.28.28,0,0,1,.09.12.36.36,0,0,1-.09-.19.44.44,0,0,0-.32.13l0,0-.1.17a3.46,3.46,0,0,0-.23.47C149,148.4,149.05,148.47,149.28,148.37Z" transform="translate(285.48 -133.2)"/></g></svg>